G04 #@! TF.GenerationSoftware,KiCad,Pcbnew,(5.1.2)-2*
G04 #@! TF.CreationDate,2019-07-30T15:22:38+02:00*
G04 #@! TF.ProjectId,main_controller,6d61696e-5f63-46f6-9e74-726f6c6c6572,1*
G04 #@! TF.SameCoordinates,Original*
G04 #@! TF.FileFunction,Soldermask,Top*
G04 #@! TF.FilePolarity,Negative*
%FSLAX46Y46*%
G04 Gerber Fmt 4.6, Leading zero omitted, Abs format (unit mm)*
G04 Created by KiCad (PCBNEW (5.1.2)-2) date 2019-07-30 15:22:38*
%MOMM*%
%LPD*%
G04 APERTURE LIST*
%ADD10C,0.100000*%
G04 APERTURE END LIST*
D10*
G36*
X71805355Y-62800083D02*
G01*
X71810029Y-62801501D01*
X71814330Y-62803800D01*
X71820702Y-62809029D01*
X71841076Y-62822643D01*
X71863715Y-62832020D01*
X71887749Y-62836800D01*
X71912253Y-62836800D01*
X71936286Y-62832019D01*
X71958925Y-62822642D01*
X71979298Y-62809029D01*
X71985670Y-62803800D01*
X71989971Y-62801501D01*
X71994645Y-62800083D01*
X72005641Y-62799000D01*
X72294359Y-62799000D01*
X72305355Y-62800083D01*
X72310029Y-62801501D01*
X72314330Y-62803800D01*
X72320702Y-62809029D01*
X72341076Y-62822643D01*
X72363715Y-62832020D01*
X72387749Y-62836800D01*
X72412253Y-62836800D01*
X72436286Y-62832019D01*
X72458925Y-62822642D01*
X72479298Y-62809029D01*
X72485670Y-62803800D01*
X72489971Y-62801501D01*
X72494645Y-62800083D01*
X72505641Y-62799000D01*
X72794359Y-62799000D01*
X72805355Y-62800083D01*
X72810029Y-62801501D01*
X72814330Y-62803800D01*
X72820702Y-62809029D01*
X72841076Y-62822643D01*
X72863715Y-62832020D01*
X72887749Y-62836800D01*
X72912253Y-62836800D01*
X72936286Y-62832019D01*
X72958925Y-62822642D01*
X72979298Y-62809029D01*
X72985670Y-62803800D01*
X72989971Y-62801501D01*
X72994645Y-62800083D01*
X73005641Y-62799000D01*
X73294359Y-62799000D01*
X73305355Y-62800083D01*
X73310029Y-62801501D01*
X73314330Y-62803800D01*
X73320702Y-62809029D01*
X73341076Y-62822643D01*
X73363715Y-62832020D01*
X73387749Y-62836800D01*
X73412253Y-62836800D01*
X73436286Y-62832019D01*
X73458925Y-62822642D01*
X73479298Y-62809029D01*
X73485670Y-62803800D01*
X73489971Y-62801501D01*
X73494645Y-62800083D01*
X73505641Y-62799000D01*
X73794359Y-62799000D01*
X73805355Y-62800083D01*
X73810029Y-62801501D01*
X73814330Y-62803800D01*
X73820702Y-62809029D01*
X73841076Y-62822643D01*
X73863715Y-62832020D01*
X73887749Y-62836800D01*
X73912253Y-62836800D01*
X73936286Y-62832019D01*
X73958925Y-62822642D01*
X73979298Y-62809029D01*
X73985670Y-62803800D01*
X73989971Y-62801501D01*
X73994645Y-62800083D01*
X74005641Y-62799000D01*
X74294359Y-62799000D01*
X74305355Y-62800083D01*
X74310029Y-62801501D01*
X74314331Y-62803800D01*
X74318104Y-62806896D01*
X74321200Y-62810669D01*
X74323499Y-62814971D01*
X74324917Y-62819645D01*
X74326000Y-62830641D01*
X74326000Y-63649001D01*
X74328402Y-63673387D01*
X74335515Y-63696836D01*
X74347066Y-63718447D01*
X74362611Y-63737389D01*
X74381553Y-63752934D01*
X74403164Y-63764485D01*
X74426613Y-63771598D01*
X74450999Y-63774000D01*
X75269359Y-63774000D01*
X75280355Y-63775083D01*
X75285029Y-63776501D01*
X75289331Y-63778800D01*
X75293104Y-63781896D01*
X75296200Y-63785669D01*
X75298499Y-63789971D01*
X75299917Y-63794645D01*
X75301000Y-63805641D01*
X75301000Y-64094359D01*
X75299917Y-64105355D01*
X75298499Y-64110029D01*
X75296200Y-64114330D01*
X75290971Y-64120702D01*
X75277357Y-64141076D01*
X75267980Y-64163715D01*
X75263200Y-64187749D01*
X75263200Y-64212253D01*
X75267981Y-64236286D01*
X75277358Y-64258925D01*
X75290971Y-64279298D01*
X75296200Y-64285670D01*
X75298499Y-64289971D01*
X75299917Y-64294645D01*
X75301000Y-64305641D01*
X75301000Y-64594359D01*
X75299917Y-64605355D01*
X75298499Y-64610029D01*
X75296200Y-64614330D01*
X75290971Y-64620702D01*
X75277357Y-64641076D01*
X75267980Y-64663715D01*
X75263200Y-64687749D01*
X75263200Y-64712253D01*
X75267981Y-64736286D01*
X75277358Y-64758925D01*
X75290971Y-64779298D01*
X75296200Y-64785670D01*
X75298499Y-64789971D01*
X75299917Y-64794645D01*
X75301000Y-64805641D01*
X75301000Y-65094359D01*
X75299917Y-65105355D01*
X75298499Y-65110029D01*
X75296200Y-65114330D01*
X75290971Y-65120702D01*
X75277357Y-65141076D01*
X75267980Y-65163715D01*
X75263200Y-65187749D01*
X75263200Y-65212253D01*
X75267981Y-65236286D01*
X75277358Y-65258925D01*
X75290971Y-65279298D01*
X75296200Y-65285670D01*
X75298499Y-65289971D01*
X75299917Y-65294645D01*
X75301000Y-65305641D01*
X75301000Y-65594359D01*
X75299917Y-65605355D01*
X75298499Y-65610029D01*
X75296200Y-65614330D01*
X75290971Y-65620702D01*
X75277357Y-65641076D01*
X75267980Y-65663715D01*
X75263200Y-65687749D01*
X75263200Y-65712253D01*
X75267981Y-65736286D01*
X75277358Y-65758925D01*
X75290971Y-65779298D01*
X75296200Y-65785670D01*
X75298499Y-65789971D01*
X75299917Y-65794645D01*
X75301000Y-65805641D01*
X75301000Y-66094359D01*
X75299917Y-66105355D01*
X75298499Y-66110029D01*
X75296200Y-66114330D01*
X75290971Y-66120702D01*
X75277357Y-66141076D01*
X75267980Y-66163715D01*
X75263200Y-66187749D01*
X75263200Y-66212253D01*
X75267981Y-66236286D01*
X75277358Y-66258925D01*
X75290971Y-66279298D01*
X75296200Y-66285670D01*
X75298499Y-66289971D01*
X75299917Y-66294645D01*
X75301000Y-66305641D01*
X75301000Y-66594359D01*
X75299917Y-66605355D01*
X75298499Y-66610029D01*
X75296200Y-66614331D01*
X75293104Y-66618104D01*
X75289331Y-66621200D01*
X75285029Y-66623499D01*
X75280355Y-66624917D01*
X75269359Y-66626000D01*
X74450999Y-66626000D01*
X74426613Y-66628402D01*
X74403164Y-66635515D01*
X74381553Y-66647066D01*
X74362611Y-66662611D01*
X74347066Y-66681553D01*
X74335515Y-66703164D01*
X74328402Y-66726613D01*
X74326000Y-66750999D01*
X74326000Y-67569359D01*
X74324917Y-67580355D01*
X74323499Y-67585029D01*
X74321200Y-67589331D01*
X74318104Y-67593104D01*
X74314331Y-67596200D01*
X74310029Y-67598499D01*
X74305355Y-67599917D01*
X74294359Y-67601000D01*
X74005641Y-67601000D01*
X73994645Y-67599917D01*
X73989971Y-67598499D01*
X73985670Y-67596200D01*
X73979298Y-67590971D01*
X73958924Y-67577357D01*
X73936285Y-67567980D01*
X73912251Y-67563200D01*
X73887747Y-67563200D01*
X73863714Y-67567981D01*
X73841075Y-67577358D01*
X73820702Y-67590971D01*
X73814330Y-67596200D01*
X73810029Y-67598499D01*
X73805355Y-67599917D01*
X73794359Y-67601000D01*
X73505641Y-67601000D01*
X73494645Y-67599917D01*
X73489971Y-67598499D01*
X73485670Y-67596200D01*
X73479298Y-67590971D01*
X73458924Y-67577357D01*
X73436285Y-67567980D01*
X73412251Y-67563200D01*
X73387747Y-67563200D01*
X73363714Y-67567981D01*
X73341075Y-67577358D01*
X73320702Y-67590971D01*
X73314330Y-67596200D01*
X73310029Y-67598499D01*
X73305355Y-67599917D01*
X73294359Y-67601000D01*
X73005641Y-67601000D01*
X72994645Y-67599917D01*
X72989971Y-67598499D01*
X72985670Y-67596200D01*
X72979298Y-67590971D01*
X72958924Y-67577357D01*
X72936285Y-67567980D01*
X72912251Y-67563200D01*
X72887747Y-67563200D01*
X72863714Y-67567981D01*
X72841075Y-67577358D01*
X72820702Y-67590971D01*
X72814330Y-67596200D01*
X72810029Y-67598499D01*
X72805355Y-67599917D01*
X72794359Y-67601000D01*
X72505641Y-67601000D01*
X72494645Y-67599917D01*
X72489971Y-67598499D01*
X72485670Y-67596200D01*
X72479298Y-67590971D01*
X72458924Y-67577357D01*
X72436285Y-67567980D01*
X72412251Y-67563200D01*
X72387747Y-67563200D01*
X72363714Y-67567981D01*
X72341075Y-67577358D01*
X72320702Y-67590971D01*
X72314330Y-67596200D01*
X72310029Y-67598499D01*
X72305355Y-67599917D01*
X72294359Y-67601000D01*
X72005641Y-67601000D01*
X71994645Y-67599917D01*
X71989971Y-67598499D01*
X71985670Y-67596200D01*
X71979298Y-67590971D01*
X71958924Y-67577357D01*
X71936285Y-67567980D01*
X71912251Y-67563200D01*
X71887747Y-67563200D01*
X71863714Y-67567981D01*
X71841075Y-67577358D01*
X71820702Y-67590971D01*
X71814330Y-67596200D01*
X71810029Y-67598499D01*
X71805355Y-67599917D01*
X71794359Y-67601000D01*
X71505641Y-67601000D01*
X71494645Y-67599917D01*
X71489971Y-67598499D01*
X71485669Y-67596200D01*
X71481896Y-67593104D01*
X71478800Y-67589331D01*
X71476501Y-67585029D01*
X71475083Y-67580355D01*
X71474000Y-67569359D01*
X71474000Y-66750999D01*
X71471598Y-66726613D01*
X71464485Y-66703164D01*
X71452934Y-66681553D01*
X71437389Y-66662611D01*
X71418447Y-66647066D01*
X71396836Y-66635515D01*
X71373387Y-66628402D01*
X71349001Y-66626000D01*
X70530641Y-66626000D01*
X70519645Y-66624917D01*
X70514971Y-66623499D01*
X70510669Y-66621200D01*
X70506896Y-66618104D01*
X70503800Y-66614331D01*
X70501501Y-66610029D01*
X70500083Y-66605355D01*
X70499000Y-66594359D01*
X70499000Y-66305641D01*
X70500083Y-66294645D01*
X70501501Y-66289971D01*
X70503800Y-66285670D01*
X70509029Y-66279298D01*
X70522643Y-66258924D01*
X70532020Y-66236285D01*
X70536800Y-66212251D01*
X70536800Y-66187747D01*
X70532019Y-66163714D01*
X70522642Y-66141075D01*
X70509029Y-66120702D01*
X70503800Y-66114330D01*
X70501501Y-66110029D01*
X70500083Y-66105355D01*
X70499000Y-66094359D01*
X70499000Y-65805641D01*
X70500083Y-65794645D01*
X70501501Y-65789971D01*
X70503800Y-65785670D01*
X70509029Y-65779298D01*
X70522643Y-65758924D01*
X70532020Y-65736285D01*
X70536800Y-65712251D01*
X70536800Y-65687747D01*
X70532019Y-65663714D01*
X70522642Y-65641075D01*
X70509029Y-65620702D01*
X70503800Y-65614330D01*
X70501501Y-65610029D01*
X70500083Y-65605355D01*
X70499000Y-65594359D01*
X70499000Y-65305641D01*
X70500083Y-65294645D01*
X70501501Y-65289971D01*
X70503800Y-65285670D01*
X70509029Y-65279298D01*
X70522643Y-65258924D01*
X70532020Y-65236285D01*
X70536800Y-65212251D01*
X70536800Y-65187747D01*
X70532019Y-65163714D01*
X70522642Y-65141075D01*
X70509029Y-65120702D01*
X70503800Y-65114330D01*
X70501501Y-65110029D01*
X70500083Y-65105355D01*
X70499000Y-65094359D01*
X70499000Y-64805641D01*
X70500083Y-64794645D01*
X70501501Y-64789971D01*
X70503800Y-64785670D01*
X70509029Y-64779298D01*
X70522643Y-64758924D01*
X70532020Y-64736285D01*
X70536800Y-64712251D01*
X70536800Y-64687747D01*
X70532019Y-64663714D01*
X70522642Y-64641075D01*
X70509029Y-64620702D01*
X70503800Y-64614330D01*
X70501501Y-64610029D01*
X70500083Y-64605355D01*
X70499000Y-64594359D01*
X70499000Y-64305641D01*
X70500083Y-64294645D01*
X70501501Y-64289971D01*
X70503800Y-64285670D01*
X70509029Y-64279298D01*
X70522643Y-64258924D01*
X70532020Y-64236285D01*
X70536800Y-64212251D01*
X70536800Y-64187747D01*
X70532019Y-64163714D01*
X70522642Y-64141075D01*
X70509029Y-64120702D01*
X70503800Y-64114330D01*
X70501501Y-64110029D01*
X70500083Y-64105355D01*
X70499000Y-64094359D01*
X70499000Y-63805641D01*
X70500083Y-63794645D01*
X70501501Y-63789971D01*
X70503800Y-63785669D01*
X70506896Y-63781896D01*
X70510669Y-63778800D01*
X70514971Y-63776501D01*
X70519645Y-63775083D01*
X70530641Y-63774000D01*
X71349001Y-63774000D01*
X71373387Y-63771598D01*
X71396836Y-63764485D01*
X71418447Y-63752934D01*
X71437389Y-63737389D01*
X71452934Y-63718447D01*
X71464485Y-63696836D01*
X71471598Y-63673387D01*
X71474000Y-63649001D01*
X71474000Y-62830641D01*
X71475083Y-62819645D01*
X71476501Y-62814971D01*
X71478800Y-62810669D01*
X71481896Y-62806896D01*
X71485669Y-62803800D01*
X71489971Y-62801501D01*
X71494645Y-62800083D01*
X71505641Y-62799000D01*
X71794359Y-62799000D01*
X71805355Y-62800083D01*
X71805355Y-62800083D01*
G37*
G36*
X95275880Y-62759776D02*
G01*
X95656593Y-62835504D01*
X96066249Y-63005189D01*
X96434929Y-63251534D01*
X96748466Y-63565071D01*
X96994811Y-63933751D01*
X97164496Y-64343407D01*
X97232989Y-64687747D01*
X97251000Y-64778295D01*
X97251000Y-65221705D01*
X97244253Y-65255622D01*
X97164496Y-65656593D01*
X96994811Y-66066249D01*
X96748466Y-66434929D01*
X96434929Y-66748466D01*
X96066249Y-66994811D01*
X95656593Y-67164496D01*
X95275880Y-67240224D01*
X95221705Y-67251000D01*
X94778295Y-67251000D01*
X94724120Y-67240224D01*
X94343407Y-67164496D01*
X93933751Y-66994811D01*
X93565071Y-66748466D01*
X93251534Y-66434929D01*
X93005189Y-66066249D01*
X92835504Y-65656593D01*
X92755747Y-65255622D01*
X92749000Y-65221705D01*
X92749000Y-64778295D01*
X92767011Y-64687747D01*
X92835504Y-64343407D01*
X93005189Y-63933751D01*
X93251534Y-63565071D01*
X93565071Y-63251534D01*
X93933751Y-63005189D01*
X94343407Y-62835504D01*
X94724120Y-62759776D01*
X94778295Y-62749000D01*
X95221705Y-62749000D01*
X95275880Y-62759776D01*
X95275880Y-62759776D01*
G37*
G36*
X35275880Y-62759776D02*
G01*
X35656593Y-62835504D01*
X36066249Y-63005189D01*
X36434929Y-63251534D01*
X36748466Y-63565071D01*
X36994811Y-63933751D01*
X37164496Y-64343407D01*
X37232989Y-64687747D01*
X37251000Y-64778295D01*
X37251000Y-65221705D01*
X37244253Y-65255622D01*
X37164496Y-65656593D01*
X36994811Y-66066249D01*
X36748466Y-66434929D01*
X36434929Y-66748466D01*
X36066249Y-66994811D01*
X35656593Y-67164496D01*
X35275880Y-67240224D01*
X35221705Y-67251000D01*
X34778295Y-67251000D01*
X34724120Y-67240224D01*
X34343407Y-67164496D01*
X33933751Y-66994811D01*
X33565071Y-66748466D01*
X33251534Y-66434929D01*
X33005189Y-66066249D01*
X32835504Y-65656593D01*
X32755747Y-65255622D01*
X32749000Y-65221705D01*
X32749000Y-64778295D01*
X32767011Y-64687747D01*
X32835504Y-64343407D01*
X33005189Y-63933751D01*
X33251534Y-63565071D01*
X33565071Y-63251534D01*
X33933751Y-63005189D01*
X34343407Y-62835504D01*
X34724120Y-62759776D01*
X34778295Y-62749000D01*
X35221705Y-62749000D01*
X35275880Y-62759776D01*
X35275880Y-62759776D01*
G37*
G36*
X68938674Y-65603465D02*
G01*
X68976367Y-65614899D01*
X69011103Y-65633466D01*
X69041548Y-65658452D01*
X69066534Y-65688897D01*
X69085101Y-65723633D01*
X69096535Y-65761326D01*
X69101000Y-65806661D01*
X69101000Y-66893339D01*
X69096535Y-66938674D01*
X69085101Y-66976367D01*
X69066534Y-67011103D01*
X69041548Y-67041548D01*
X69011103Y-67066534D01*
X68976367Y-67085101D01*
X68938674Y-67096535D01*
X68893339Y-67101000D01*
X68056661Y-67101000D01*
X68011326Y-67096535D01*
X67973633Y-67085101D01*
X67938897Y-67066534D01*
X67908452Y-67041548D01*
X67883466Y-67011103D01*
X67864899Y-66976367D01*
X67853465Y-66938674D01*
X67849000Y-66893339D01*
X67849000Y-65806661D01*
X67853465Y-65761326D01*
X67864899Y-65723633D01*
X67883466Y-65688897D01*
X67908452Y-65658452D01*
X67938897Y-65633466D01*
X67973633Y-65614899D01*
X68011326Y-65603465D01*
X68056661Y-65599000D01*
X68893339Y-65599000D01*
X68938674Y-65603465D01*
X68938674Y-65603465D01*
G37*
G36*
X66888674Y-65603465D02*
G01*
X66926367Y-65614899D01*
X66961103Y-65633466D01*
X66991548Y-65658452D01*
X67016534Y-65688897D01*
X67035101Y-65723633D01*
X67046535Y-65761326D01*
X67051000Y-65806661D01*
X67051000Y-66893339D01*
X67046535Y-66938674D01*
X67035101Y-66976367D01*
X67016534Y-67011103D01*
X66991548Y-67041548D01*
X66961103Y-67066534D01*
X66926367Y-67085101D01*
X66888674Y-67096535D01*
X66843339Y-67101000D01*
X66006661Y-67101000D01*
X65961326Y-67096535D01*
X65923633Y-67085101D01*
X65888897Y-67066534D01*
X65858452Y-67041548D01*
X65833466Y-67011103D01*
X65814899Y-66976367D01*
X65803465Y-66938674D01*
X65799000Y-66893339D01*
X65799000Y-65806661D01*
X65803465Y-65761326D01*
X65814899Y-65723633D01*
X65833466Y-65688897D01*
X65858452Y-65658452D01*
X65888897Y-65633466D01*
X65923633Y-65614899D01*
X65961326Y-65603465D01*
X66006661Y-65599000D01*
X66843339Y-65599000D01*
X66888674Y-65603465D01*
X66888674Y-65603465D01*
G37*
G36*
X91951000Y-66991000D02*
G01*
X89849000Y-66991000D01*
X89849000Y-65589000D01*
X91951000Y-65589000D01*
X91951000Y-66991000D01*
X91951000Y-66991000D01*
G37*
G36*
X61951000Y-66991000D02*
G01*
X59849000Y-66991000D01*
X59849000Y-65589000D01*
X61951000Y-65589000D01*
X61951000Y-66991000D01*
X61951000Y-66991000D01*
G37*
G36*
X40351000Y-66991000D02*
G01*
X38249000Y-66991000D01*
X38249000Y-65589000D01*
X40351000Y-65589000D01*
X40351000Y-66991000D01*
X40351000Y-66991000D01*
G37*
G36*
X83351000Y-66991000D02*
G01*
X81249000Y-66991000D01*
X81249000Y-65589000D01*
X83351000Y-65589000D01*
X83351000Y-66991000D01*
X83351000Y-66991000D01*
G37*
G36*
X68938674Y-63603465D02*
G01*
X68976367Y-63614899D01*
X69011103Y-63633466D01*
X69041548Y-63658452D01*
X69066534Y-63688897D01*
X69085101Y-63723633D01*
X69096535Y-63761326D01*
X69101000Y-63806661D01*
X69101000Y-64893339D01*
X69096535Y-64938674D01*
X69085101Y-64976367D01*
X69066534Y-65011103D01*
X69041548Y-65041548D01*
X69011103Y-65066534D01*
X68976367Y-65085101D01*
X68938674Y-65096535D01*
X68893339Y-65101000D01*
X68056661Y-65101000D01*
X68011326Y-65096535D01*
X67973633Y-65085101D01*
X67938897Y-65066534D01*
X67908452Y-65041548D01*
X67883466Y-65011103D01*
X67864899Y-64976367D01*
X67853465Y-64938674D01*
X67849000Y-64893339D01*
X67849000Y-63806661D01*
X67853465Y-63761326D01*
X67864899Y-63723633D01*
X67883466Y-63688897D01*
X67908452Y-63658452D01*
X67938897Y-63633466D01*
X67973633Y-63614899D01*
X68011326Y-63603465D01*
X68056661Y-63599000D01*
X68893339Y-63599000D01*
X68938674Y-63603465D01*
X68938674Y-63603465D01*
G37*
G36*
X66888674Y-63603465D02*
G01*
X66926367Y-63614899D01*
X66961103Y-63633466D01*
X66991548Y-63658452D01*
X67016534Y-63688897D01*
X67035101Y-63723633D01*
X67046535Y-63761326D01*
X67051000Y-63806661D01*
X67051000Y-64893339D01*
X67046535Y-64938674D01*
X67035101Y-64976367D01*
X67016534Y-65011103D01*
X66991548Y-65041548D01*
X66961103Y-65066534D01*
X66926367Y-65085101D01*
X66888674Y-65096535D01*
X66843339Y-65101000D01*
X66006661Y-65101000D01*
X65961326Y-65096535D01*
X65923633Y-65085101D01*
X65888897Y-65066534D01*
X65858452Y-65041548D01*
X65833466Y-65011103D01*
X65814899Y-64976367D01*
X65803465Y-64938674D01*
X65799000Y-64893339D01*
X65799000Y-63806661D01*
X65803465Y-63761326D01*
X65814899Y-63723633D01*
X65833466Y-63688897D01*
X65858452Y-63658452D01*
X65888897Y-63633466D01*
X65923633Y-63614899D01*
X65961326Y-63603465D01*
X66006661Y-63599000D01*
X66843339Y-63599000D01*
X66888674Y-63603465D01*
X66888674Y-63603465D01*
G37*
G36*
X55351000Y-64141000D02*
G01*
X54849000Y-64141000D01*
X54849000Y-63039000D01*
X55351000Y-63039000D01*
X55351000Y-64141000D01*
X55351000Y-64141000D01*
G37*
G36*
X43351000Y-64141000D02*
G01*
X42849000Y-64141000D01*
X42849000Y-63039000D01*
X43351000Y-63039000D01*
X43351000Y-64141000D01*
X43351000Y-64141000D01*
G37*
G36*
X54351000Y-64141000D02*
G01*
X53849000Y-64141000D01*
X53849000Y-63039000D01*
X54351000Y-63039000D01*
X54351000Y-64141000D01*
X54351000Y-64141000D01*
G37*
G36*
X53351000Y-64141000D02*
G01*
X52849000Y-64141000D01*
X52849000Y-63039000D01*
X53351000Y-63039000D01*
X53351000Y-64141000D01*
X53351000Y-64141000D01*
G37*
G36*
X52351000Y-64141000D02*
G01*
X51849000Y-64141000D01*
X51849000Y-63039000D01*
X52351000Y-63039000D01*
X52351000Y-64141000D01*
X52351000Y-64141000D01*
G37*
G36*
X45351000Y-64141000D02*
G01*
X44849000Y-64141000D01*
X44849000Y-63039000D01*
X45351000Y-63039000D01*
X45351000Y-64141000D01*
X45351000Y-64141000D01*
G37*
G36*
X51351000Y-64141000D02*
G01*
X50849000Y-64141000D01*
X50849000Y-63039000D01*
X51351000Y-63039000D01*
X51351000Y-64141000D01*
X51351000Y-64141000D01*
G37*
G36*
X50351000Y-64141000D02*
G01*
X49849000Y-64141000D01*
X49849000Y-63039000D01*
X50351000Y-63039000D01*
X50351000Y-64141000D01*
X50351000Y-64141000D01*
G37*
G36*
X49351000Y-64141000D02*
G01*
X48849000Y-64141000D01*
X48849000Y-63039000D01*
X49351000Y-63039000D01*
X49351000Y-64141000D01*
X49351000Y-64141000D01*
G37*
G36*
X48351000Y-64141000D02*
G01*
X47849000Y-64141000D01*
X47849000Y-63039000D01*
X48351000Y-63039000D01*
X48351000Y-64141000D01*
X48351000Y-64141000D01*
G37*
G36*
X47351000Y-64141000D02*
G01*
X46849000Y-64141000D01*
X46849000Y-63039000D01*
X47351000Y-63039000D01*
X47351000Y-64141000D01*
X47351000Y-64141000D01*
G37*
G36*
X46351000Y-64141000D02*
G01*
X45849000Y-64141000D01*
X45849000Y-63039000D01*
X46351000Y-63039000D01*
X46351000Y-64141000D01*
X46351000Y-64141000D01*
G37*
G36*
X56351000Y-64141000D02*
G01*
X55849000Y-64141000D01*
X55849000Y-63039000D01*
X56351000Y-63039000D01*
X56351000Y-64141000D01*
X56351000Y-64141000D01*
G37*
G36*
X57351000Y-64141000D02*
G01*
X56849000Y-64141000D01*
X56849000Y-63039000D01*
X57351000Y-63039000D01*
X57351000Y-64141000D01*
X57351000Y-64141000D01*
G37*
G36*
X58351000Y-64141000D02*
G01*
X57849000Y-64141000D01*
X57849000Y-63039000D01*
X58351000Y-63039000D01*
X58351000Y-64141000D01*
X58351000Y-64141000D01*
G37*
G36*
X88351000Y-64141000D02*
G01*
X87849000Y-64141000D01*
X87849000Y-63039000D01*
X88351000Y-63039000D01*
X88351000Y-64141000D01*
X88351000Y-64141000D01*
G37*
G36*
X87351000Y-64141000D02*
G01*
X86849000Y-64141000D01*
X86849000Y-63039000D01*
X87351000Y-63039000D01*
X87351000Y-64141000D01*
X87351000Y-64141000D01*
G37*
G36*
X85351000Y-64141000D02*
G01*
X84849000Y-64141000D01*
X84849000Y-63039000D01*
X85351000Y-63039000D01*
X85351000Y-64141000D01*
X85351000Y-64141000D01*
G37*
G36*
X86351000Y-64141000D02*
G01*
X85849000Y-64141000D01*
X85849000Y-63039000D01*
X86351000Y-63039000D01*
X86351000Y-64141000D01*
X86351000Y-64141000D01*
G37*
G36*
X44351000Y-64141000D02*
G01*
X43849000Y-64141000D01*
X43849000Y-63039000D01*
X44351000Y-63039000D01*
X44351000Y-64141000D01*
X44351000Y-64141000D01*
G37*
G36*
X42351000Y-64141000D02*
G01*
X41849000Y-64141000D01*
X41849000Y-63039000D01*
X42351000Y-63039000D01*
X42351000Y-64141000D01*
X42351000Y-64141000D01*
G37*
G36*
X68938674Y-61603465D02*
G01*
X68976367Y-61614899D01*
X69011103Y-61633466D01*
X69041548Y-61658452D01*
X69066534Y-61688897D01*
X69085101Y-61723633D01*
X69096535Y-61761326D01*
X69101000Y-61806661D01*
X69101000Y-62893339D01*
X69096535Y-62938674D01*
X69085101Y-62976367D01*
X69066534Y-63011103D01*
X69041548Y-63041548D01*
X69011103Y-63066534D01*
X68976367Y-63085101D01*
X68938674Y-63096535D01*
X68893339Y-63101000D01*
X68056661Y-63101000D01*
X68011326Y-63096535D01*
X67973633Y-63085101D01*
X67938897Y-63066534D01*
X67908452Y-63041548D01*
X67883466Y-63011103D01*
X67864899Y-62976367D01*
X67853465Y-62938674D01*
X67849000Y-62893339D01*
X67849000Y-61806661D01*
X67853465Y-61761326D01*
X67864899Y-61723633D01*
X67883466Y-61688897D01*
X67908452Y-61658452D01*
X67938897Y-61633466D01*
X67973633Y-61614899D01*
X68011326Y-61603465D01*
X68056661Y-61599000D01*
X68893339Y-61599000D01*
X68938674Y-61603465D01*
X68938674Y-61603465D01*
G37*
G36*
X66888674Y-61603465D02*
G01*
X66926367Y-61614899D01*
X66961103Y-61633466D01*
X66991548Y-61658452D01*
X67016534Y-61688897D01*
X67035101Y-61723633D01*
X67046535Y-61761326D01*
X67051000Y-61806661D01*
X67051000Y-62893339D01*
X67046535Y-62938674D01*
X67035101Y-62976367D01*
X67016534Y-63011103D01*
X66991548Y-63041548D01*
X66961103Y-63066534D01*
X66926367Y-63085101D01*
X66888674Y-63096535D01*
X66843339Y-63101000D01*
X66006661Y-63101000D01*
X65961326Y-63096535D01*
X65923633Y-63085101D01*
X65888897Y-63066534D01*
X65858452Y-63041548D01*
X65833466Y-63011103D01*
X65814899Y-62976367D01*
X65803465Y-62938674D01*
X65799000Y-62893339D01*
X65799000Y-61806661D01*
X65803465Y-61761326D01*
X65814899Y-61723633D01*
X65833466Y-61688897D01*
X65858452Y-61658452D01*
X65888897Y-61633466D01*
X65923633Y-61614899D01*
X65961326Y-61603465D01*
X66006661Y-61599000D01*
X66843339Y-61599000D01*
X66888674Y-61603465D01*
X66888674Y-61603465D01*
G37*
G36*
X71188674Y-60903465D02*
G01*
X71226367Y-60914899D01*
X71261103Y-60933466D01*
X71291548Y-60958452D01*
X71316534Y-60988897D01*
X71335101Y-61023633D01*
X71346535Y-61061326D01*
X71351000Y-61106661D01*
X71351000Y-61943339D01*
X71346535Y-61988674D01*
X71335101Y-62026367D01*
X71316534Y-62061103D01*
X71291548Y-62091548D01*
X71261103Y-62116534D01*
X71226367Y-62135101D01*
X71188674Y-62146535D01*
X71143339Y-62151000D01*
X70056661Y-62151000D01*
X70011326Y-62146535D01*
X69973633Y-62135101D01*
X69938897Y-62116534D01*
X69908452Y-62091548D01*
X69883466Y-62061103D01*
X69864899Y-62026367D01*
X69853465Y-61988674D01*
X69849000Y-61943339D01*
X69849000Y-61106661D01*
X69853465Y-61061326D01*
X69864899Y-61023633D01*
X69883466Y-60988897D01*
X69908452Y-60958452D01*
X69938897Y-60933466D01*
X69973633Y-60914899D01*
X70011326Y-60903465D01*
X70056661Y-60899000D01*
X71143339Y-60899000D01*
X71188674Y-60903465D01*
X71188674Y-60903465D01*
G37*
G36*
X96891000Y-62051000D02*
G01*
X95489000Y-62051000D01*
X95489000Y-59949000D01*
X96891000Y-59949000D01*
X96891000Y-62051000D01*
X96891000Y-62051000D01*
G37*
G36*
X77163685Y-60528474D02*
G01*
X77201378Y-60539908D01*
X77236114Y-60558475D01*
X77266559Y-60583461D01*
X77291545Y-60613906D01*
X77310112Y-60648642D01*
X77321546Y-60686335D01*
X77326011Y-60731670D01*
X77326011Y-61568348D01*
X77321546Y-61613683D01*
X77310112Y-61651376D01*
X77291545Y-61686112D01*
X77266559Y-61716557D01*
X77236114Y-61741543D01*
X77201378Y-61760110D01*
X77163685Y-61771544D01*
X77118350Y-61776009D01*
X76031672Y-61776009D01*
X75986337Y-61771544D01*
X75948644Y-61760110D01*
X75913908Y-61741543D01*
X75883463Y-61716557D01*
X75858477Y-61686112D01*
X75839910Y-61651376D01*
X75828476Y-61613683D01*
X75824011Y-61568348D01*
X75824011Y-60731670D01*
X75828476Y-60686335D01*
X75839910Y-60648642D01*
X75858477Y-60613906D01*
X75883463Y-60583461D01*
X75913908Y-60558475D01*
X75948644Y-60539908D01*
X75986337Y-60528474D01*
X76031672Y-60524009D01*
X77118350Y-60524009D01*
X77163685Y-60528474D01*
X77163685Y-60528474D01*
G37*
G36*
X74907811Y-60378605D02*
G01*
X74946867Y-60390453D01*
X74982862Y-60409693D01*
X75014414Y-60435586D01*
X75040307Y-60467138D01*
X75059547Y-60503133D01*
X75071395Y-60542189D01*
X75076000Y-60588949D01*
X75076000Y-61561051D01*
X75071395Y-61607811D01*
X75059547Y-61646867D01*
X75040307Y-61682862D01*
X75014414Y-61714414D01*
X74982862Y-61740307D01*
X74946867Y-61759547D01*
X74907811Y-61771395D01*
X74861051Y-61776000D01*
X74138949Y-61776000D01*
X74092189Y-61771395D01*
X74053133Y-61759547D01*
X74017138Y-61740307D01*
X73985586Y-61714414D01*
X73959693Y-61682862D01*
X73940453Y-61646867D01*
X73928605Y-61607811D01*
X73924000Y-61561051D01*
X73924000Y-60588949D01*
X73928605Y-60542189D01*
X73940453Y-60503133D01*
X73959693Y-60467138D01*
X73985586Y-60435586D01*
X74017138Y-60409693D01*
X74053133Y-60390453D01*
X74092189Y-60378605D01*
X74138949Y-60374000D01*
X74861051Y-60374000D01*
X74907811Y-60378605D01*
X74907811Y-60378605D01*
G37*
G36*
X34511000Y-61751000D02*
G01*
X33109000Y-61751000D01*
X33109000Y-59649000D01*
X34511000Y-59649000D01*
X34511000Y-61751000D01*
X34511000Y-61751000D01*
G37*
G36*
X82359999Y-59399737D02*
G01*
X82374528Y-59404145D01*
X82387711Y-59409606D01*
X82411745Y-59414388D01*
X82436249Y-59414389D01*
X82460282Y-59409609D01*
X82482921Y-59400232D01*
X82484765Y-59399000D01*
X83716050Y-59399000D01*
X83728164Y-59405475D01*
X83751613Y-59412588D01*
X83775999Y-59414990D01*
X83800385Y-59412588D01*
X83823834Y-59405475D01*
X83828746Y-59403152D01*
X83840001Y-59399737D01*
X83856140Y-59398148D01*
X84393861Y-59398148D01*
X84412199Y-59399954D01*
X84424450Y-59400556D01*
X84442869Y-59400556D01*
X84465149Y-59402750D01*
X84549233Y-59419476D01*
X84570660Y-59425976D01*
X84649858Y-59458780D01*
X84655303Y-59461691D01*
X84655309Y-59461693D01*
X84664169Y-59466429D01*
X84664173Y-59466432D01*
X84669614Y-59469340D01*
X84740899Y-59516971D01*
X84758204Y-59531172D01*
X84818828Y-59591796D01*
X84833029Y-59609101D01*
X84880660Y-59680386D01*
X84883568Y-59685827D01*
X84883571Y-59685831D01*
X84888307Y-59694691D01*
X84888309Y-59694697D01*
X84891220Y-59700142D01*
X84924024Y-59779340D01*
X84930524Y-59800767D01*
X84947250Y-59884851D01*
X84949444Y-59907131D01*
X84949444Y-59925550D01*
X84950046Y-59937801D01*
X84951852Y-59956139D01*
X84951852Y-60443862D01*
X84950046Y-60462199D01*
X84949444Y-60474450D01*
X84949444Y-60492869D01*
X84947250Y-60515149D01*
X84930524Y-60599233D01*
X84924024Y-60620660D01*
X84891220Y-60699858D01*
X84888309Y-60705303D01*
X84888307Y-60705309D01*
X84883571Y-60714169D01*
X84883568Y-60714173D01*
X84880660Y-60719614D01*
X84833029Y-60790899D01*
X84818828Y-60808204D01*
X84758204Y-60868828D01*
X84740899Y-60883029D01*
X84669614Y-60930660D01*
X84664173Y-60933568D01*
X84664169Y-60933571D01*
X84655309Y-60938307D01*
X84655303Y-60938309D01*
X84649858Y-60941220D01*
X84570660Y-60974024D01*
X84549233Y-60980524D01*
X84465149Y-60997250D01*
X84442869Y-60999444D01*
X84424450Y-60999444D01*
X84412199Y-61000046D01*
X84393862Y-61001852D01*
X83856140Y-61001852D01*
X83840001Y-61000263D01*
X83825472Y-60995855D01*
X83812289Y-60990394D01*
X83788255Y-60985612D01*
X83763751Y-60985611D01*
X83739718Y-60990391D01*
X83717079Y-60999768D01*
X83715235Y-61001000D01*
X82483950Y-61001000D01*
X82471836Y-60994525D01*
X82448387Y-60987412D01*
X82424001Y-60985010D01*
X82399615Y-60987412D01*
X82376166Y-60994525D01*
X82371254Y-60996848D01*
X82359999Y-61000263D01*
X82343860Y-61001852D01*
X81806138Y-61001852D01*
X81787801Y-61000046D01*
X81775550Y-60999444D01*
X81757131Y-60999444D01*
X81734851Y-60997250D01*
X81650767Y-60980524D01*
X81629340Y-60974024D01*
X81550142Y-60941220D01*
X81544697Y-60938309D01*
X81544691Y-60938307D01*
X81535831Y-60933571D01*
X81535827Y-60933568D01*
X81530386Y-60930660D01*
X81459101Y-60883029D01*
X81441796Y-60868828D01*
X81381172Y-60808204D01*
X81366971Y-60790899D01*
X81319340Y-60719614D01*
X81316432Y-60714173D01*
X81316429Y-60714169D01*
X81311693Y-60705309D01*
X81311691Y-60705303D01*
X81308780Y-60699858D01*
X81275976Y-60620660D01*
X81269476Y-60599233D01*
X81252750Y-60515149D01*
X81250556Y-60492869D01*
X81250556Y-60474450D01*
X81249954Y-60462199D01*
X81248148Y-60443862D01*
X81248148Y-59956139D01*
X81249954Y-59937801D01*
X81250556Y-59925550D01*
X81250556Y-59907131D01*
X81252750Y-59884851D01*
X81269476Y-59800767D01*
X81275976Y-59779340D01*
X81308780Y-59700142D01*
X81311691Y-59694697D01*
X81311693Y-59694691D01*
X81316429Y-59685831D01*
X81316432Y-59685827D01*
X81319340Y-59680386D01*
X81366971Y-59609101D01*
X81381172Y-59591796D01*
X81441796Y-59531172D01*
X81459101Y-59516971D01*
X81530386Y-59469340D01*
X81535827Y-59466432D01*
X81535831Y-59466429D01*
X81544691Y-59461693D01*
X81544697Y-59461691D01*
X81550142Y-59458780D01*
X81629340Y-59425976D01*
X81650767Y-59419476D01*
X81734851Y-59402750D01*
X81757131Y-59400556D01*
X81775550Y-59400556D01*
X81787801Y-59399954D01*
X81806139Y-59398148D01*
X82343860Y-59398148D01*
X82359999Y-59399737D01*
X82359999Y-59399737D01*
G37*
G36*
X71188674Y-58853465D02*
G01*
X71226367Y-58864899D01*
X71261103Y-58883466D01*
X71291548Y-58908452D01*
X71316534Y-58938897D01*
X71335101Y-58973633D01*
X71346535Y-59011326D01*
X71351000Y-59056661D01*
X71351000Y-59893339D01*
X71346535Y-59938674D01*
X71335101Y-59976367D01*
X71316534Y-60011103D01*
X71291548Y-60041548D01*
X71261103Y-60066534D01*
X71226367Y-60085101D01*
X71188674Y-60096535D01*
X71143339Y-60101000D01*
X70056661Y-60101000D01*
X70011326Y-60096535D01*
X69973633Y-60085101D01*
X69938897Y-60066534D01*
X69908452Y-60041548D01*
X69883466Y-60011103D01*
X69864899Y-59976367D01*
X69853465Y-59938674D01*
X69849000Y-59893339D01*
X69849000Y-59056661D01*
X69853465Y-59011326D01*
X69864899Y-58973633D01*
X69883466Y-58938897D01*
X69908452Y-58908452D01*
X69938897Y-58883466D01*
X69973633Y-58864899D01*
X70011326Y-58853465D01*
X70056661Y-58849000D01*
X71143339Y-58849000D01*
X71188674Y-58853465D01*
X71188674Y-58853465D01*
G37*
G36*
X74907811Y-58428605D02*
G01*
X74946867Y-58440453D01*
X74982862Y-58459693D01*
X75014414Y-58485586D01*
X75040307Y-58517138D01*
X75059547Y-58553133D01*
X75071395Y-58592189D01*
X75076000Y-58638949D01*
X75076000Y-59611051D01*
X75071395Y-59657811D01*
X75059547Y-59696867D01*
X75040307Y-59732862D01*
X75014414Y-59764414D01*
X74982862Y-59790307D01*
X74946867Y-59809547D01*
X74907811Y-59821395D01*
X74861051Y-59826000D01*
X74138949Y-59826000D01*
X74092189Y-59821395D01*
X74053133Y-59809547D01*
X74017138Y-59790307D01*
X73985586Y-59764414D01*
X73959693Y-59732862D01*
X73940453Y-59696867D01*
X73928605Y-59657811D01*
X73924000Y-59611051D01*
X73924000Y-58638949D01*
X73928605Y-58592189D01*
X73940453Y-58553133D01*
X73959693Y-58517138D01*
X73985586Y-58485586D01*
X74017138Y-58459693D01*
X74053133Y-58440453D01*
X74092189Y-58428605D01*
X74138949Y-58424000D01*
X74861051Y-58424000D01*
X74907811Y-58428605D01*
X74907811Y-58428605D01*
G37*
G36*
X77163685Y-58478474D02*
G01*
X77201378Y-58489908D01*
X77236114Y-58508475D01*
X77266559Y-58533461D01*
X77291545Y-58563906D01*
X77310112Y-58598642D01*
X77321546Y-58636335D01*
X77326011Y-58681670D01*
X77326011Y-59518348D01*
X77321546Y-59563683D01*
X77310112Y-59601376D01*
X77291545Y-59636112D01*
X77266559Y-59666557D01*
X77236114Y-59691543D01*
X77201378Y-59710110D01*
X77163685Y-59721544D01*
X77118350Y-59726009D01*
X76031672Y-59726009D01*
X75986337Y-59721544D01*
X75948644Y-59710110D01*
X75913908Y-59691543D01*
X75883463Y-59666557D01*
X75858477Y-59636112D01*
X75839910Y-59601376D01*
X75828476Y-59563683D01*
X75824011Y-59518348D01*
X75824011Y-58681670D01*
X75828476Y-58636335D01*
X75839910Y-58598642D01*
X75858477Y-58563906D01*
X75883463Y-58533461D01*
X75913908Y-58508475D01*
X75948644Y-58489908D01*
X75986337Y-58478474D01*
X76031672Y-58474009D01*
X77118350Y-58474009D01*
X77163685Y-58478474D01*
X77163685Y-58478474D01*
G37*
G36*
X83607811Y-57178605D02*
G01*
X83646867Y-57190453D01*
X83682862Y-57209693D01*
X83714414Y-57235586D01*
X83740307Y-57267138D01*
X83759547Y-57303133D01*
X83771395Y-57342189D01*
X83776000Y-57388949D01*
X83776000Y-58361051D01*
X83771395Y-58407811D01*
X83759547Y-58446867D01*
X83740307Y-58482862D01*
X83714414Y-58514414D01*
X83682862Y-58540307D01*
X83646867Y-58559547D01*
X83607811Y-58571395D01*
X83561051Y-58576000D01*
X82838949Y-58576000D01*
X82792189Y-58571395D01*
X82753133Y-58559547D01*
X82717138Y-58540307D01*
X82685586Y-58514414D01*
X82659693Y-58482862D01*
X82640453Y-58446867D01*
X82628605Y-58407811D01*
X82624000Y-58361051D01*
X82624000Y-57388949D01*
X82628605Y-57342189D01*
X82640453Y-57303133D01*
X82659693Y-57267138D01*
X82685586Y-57235586D01*
X82717138Y-57209693D01*
X82753133Y-57190453D01*
X82792189Y-57178605D01*
X82838949Y-57174000D01*
X83561051Y-57174000D01*
X83607811Y-57178605D01*
X83607811Y-57178605D01*
G37*
G36*
X65846000Y-58451000D02*
G01*
X64844000Y-58451000D01*
X64844000Y-56349000D01*
X65846000Y-56349000D01*
X65846000Y-58451000D01*
X65846000Y-58451000D01*
G37*
G36*
X94041000Y-58451000D02*
G01*
X92939000Y-58451000D01*
X92939000Y-57949000D01*
X94041000Y-57949000D01*
X94041000Y-58451000D01*
X94041000Y-58451000D01*
G37*
G36*
X67116000Y-58451000D02*
G01*
X66114000Y-58451000D01*
X66114000Y-56349000D01*
X67116000Y-56349000D01*
X67116000Y-58451000D01*
X67116000Y-58451000D01*
G37*
G36*
X68386000Y-58451000D02*
G01*
X67384000Y-58451000D01*
X67384000Y-56349000D01*
X68386000Y-56349000D01*
X68386000Y-58451000D01*
X68386000Y-58451000D01*
G37*
G36*
X69656000Y-58451000D02*
G01*
X68654000Y-58451000D01*
X68654000Y-56349000D01*
X69656000Y-56349000D01*
X69656000Y-58451000D01*
X69656000Y-58451000D01*
G37*
G36*
X53146000Y-58451000D02*
G01*
X52144000Y-58451000D01*
X52144000Y-56349000D01*
X53146000Y-56349000D01*
X53146000Y-58451000D01*
X53146000Y-58451000D01*
G37*
G36*
X64576000Y-58451000D02*
G01*
X63574000Y-58451000D01*
X63574000Y-56349000D01*
X64576000Y-56349000D01*
X64576000Y-58451000D01*
X64576000Y-58451000D01*
G37*
G36*
X54416000Y-58451000D02*
G01*
X53414000Y-58451000D01*
X53414000Y-56349000D01*
X54416000Y-56349000D01*
X54416000Y-58451000D01*
X54416000Y-58451000D01*
G37*
G36*
X56956000Y-58451000D02*
G01*
X55954000Y-58451000D01*
X55954000Y-56349000D01*
X56956000Y-56349000D01*
X56956000Y-58451000D01*
X56956000Y-58451000D01*
G37*
G36*
X58226000Y-58451000D02*
G01*
X57224000Y-58451000D01*
X57224000Y-56349000D01*
X58226000Y-56349000D01*
X58226000Y-58451000D01*
X58226000Y-58451000D01*
G37*
G36*
X63306000Y-58451000D02*
G01*
X62304000Y-58451000D01*
X62304000Y-56349000D01*
X63306000Y-56349000D01*
X63306000Y-58451000D01*
X63306000Y-58451000D01*
G37*
G36*
X62036000Y-58451000D02*
G01*
X61034000Y-58451000D01*
X61034000Y-56349000D01*
X62036000Y-56349000D01*
X62036000Y-58451000D01*
X62036000Y-58451000D01*
G37*
G36*
X60766000Y-58451000D02*
G01*
X59764000Y-58451000D01*
X59764000Y-56349000D01*
X60766000Y-56349000D01*
X60766000Y-58451000D01*
X60766000Y-58451000D01*
G37*
G36*
X59496000Y-58451000D02*
G01*
X58494000Y-58451000D01*
X58494000Y-56349000D01*
X59496000Y-56349000D01*
X59496000Y-58451000D01*
X59496000Y-58451000D01*
G37*
G36*
X55686000Y-58451000D02*
G01*
X54684000Y-58451000D01*
X54684000Y-56349000D01*
X55686000Y-56349000D01*
X55686000Y-58451000D01*
X55686000Y-58451000D01*
G37*
G36*
X37061000Y-58151000D02*
G01*
X35959000Y-58151000D01*
X35959000Y-57649000D01*
X37061000Y-57649000D01*
X37061000Y-58151000D01*
X37061000Y-58151000D01*
G37*
G36*
X94041000Y-57451000D02*
G01*
X92939000Y-57451000D01*
X92939000Y-56949000D01*
X94041000Y-56949000D01*
X94041000Y-57451000D01*
X94041000Y-57451000D01*
G37*
G36*
X37061000Y-57151000D02*
G01*
X35959000Y-57151000D01*
X35959000Y-56649000D01*
X37061000Y-56649000D01*
X37061000Y-57151000D01*
X37061000Y-57151000D01*
G37*
G36*
X83607811Y-55228605D02*
G01*
X83646867Y-55240453D01*
X83682862Y-55259693D01*
X83714414Y-55285586D01*
X83740307Y-55317138D01*
X83759547Y-55353133D01*
X83771395Y-55392189D01*
X83776000Y-55438949D01*
X83776000Y-56411051D01*
X83771395Y-56457811D01*
X83759547Y-56496867D01*
X83740307Y-56532862D01*
X83714414Y-56564414D01*
X83682862Y-56590307D01*
X83646867Y-56609547D01*
X83607811Y-56621395D01*
X83561051Y-56626000D01*
X82838949Y-56626000D01*
X82792189Y-56621395D01*
X82753133Y-56609547D01*
X82717138Y-56590307D01*
X82685586Y-56564414D01*
X82659693Y-56532862D01*
X82640453Y-56496867D01*
X82628605Y-56457811D01*
X82624000Y-56411051D01*
X82624000Y-55438949D01*
X82628605Y-55392189D01*
X82640453Y-55353133D01*
X82659693Y-55317138D01*
X82685586Y-55285586D01*
X82717138Y-55259693D01*
X82753133Y-55240453D01*
X82792189Y-55228605D01*
X82838949Y-55224000D01*
X83561051Y-55224000D01*
X83607811Y-55228605D01*
X83607811Y-55228605D01*
G37*
G36*
X94041000Y-56451000D02*
G01*
X92939000Y-56451000D01*
X92939000Y-55949000D01*
X94041000Y-55949000D01*
X94041000Y-56451000D01*
X94041000Y-56451000D01*
G37*
G36*
X37061000Y-56151000D02*
G01*
X35959000Y-56151000D01*
X35959000Y-55649000D01*
X37061000Y-55649000D01*
X37061000Y-56151000D01*
X37061000Y-56151000D01*
G37*
G36*
X94041000Y-55451000D02*
G01*
X92939000Y-55451000D01*
X92939000Y-54949000D01*
X94041000Y-54949000D01*
X94041000Y-55451000D01*
X94041000Y-55451000D01*
G37*
G36*
X37061000Y-55151000D02*
G01*
X35959000Y-55151000D01*
X35959000Y-54649000D01*
X37061000Y-54649000D01*
X37061000Y-55151000D01*
X37061000Y-55151000D01*
G37*
G36*
X52696000Y-55116000D02*
G01*
X50594000Y-55116000D01*
X50594000Y-54114000D01*
X52696000Y-54114000D01*
X52696000Y-55116000D01*
X52696000Y-55116000D01*
G37*
G36*
X90362199Y-51349954D02*
G01*
X90374450Y-51350556D01*
X90392869Y-51350556D01*
X90415149Y-51352750D01*
X90499233Y-51369476D01*
X90520660Y-51375976D01*
X90599858Y-51408780D01*
X90605303Y-51411691D01*
X90605309Y-51411693D01*
X90614169Y-51416429D01*
X90614173Y-51416432D01*
X90619614Y-51419340D01*
X90690899Y-51466971D01*
X90708204Y-51481172D01*
X90768828Y-51541796D01*
X90783029Y-51559101D01*
X90830660Y-51630386D01*
X90833568Y-51635827D01*
X90833571Y-51635831D01*
X90838307Y-51644691D01*
X90838309Y-51644697D01*
X90841220Y-51650142D01*
X90874024Y-51729340D01*
X90880524Y-51750767D01*
X90897250Y-51834851D01*
X90899444Y-51857131D01*
X90899444Y-51875550D01*
X90900046Y-51887801D01*
X90901852Y-51906139D01*
X90901852Y-52443860D01*
X90900263Y-52459999D01*
X90895855Y-52474528D01*
X90890394Y-52487711D01*
X90885612Y-52511745D01*
X90885611Y-52536249D01*
X90890391Y-52560282D01*
X90899768Y-52582921D01*
X90901000Y-52584765D01*
X90901000Y-53816050D01*
X90894525Y-53828164D01*
X90887412Y-53851613D01*
X90885010Y-53875999D01*
X90887412Y-53900385D01*
X90894525Y-53923834D01*
X90896848Y-53928746D01*
X90900263Y-53940001D01*
X90901852Y-53956140D01*
X90901852Y-54493862D01*
X90900046Y-54512199D01*
X90899444Y-54524450D01*
X90899444Y-54542869D01*
X90897250Y-54565149D01*
X90880524Y-54649233D01*
X90874024Y-54670660D01*
X90841220Y-54749858D01*
X90838309Y-54755303D01*
X90838307Y-54755309D01*
X90833571Y-54764169D01*
X90833568Y-54764173D01*
X90830660Y-54769614D01*
X90783029Y-54840899D01*
X90768828Y-54858204D01*
X90708204Y-54918828D01*
X90690899Y-54933029D01*
X90619614Y-54980660D01*
X90614173Y-54983568D01*
X90614169Y-54983571D01*
X90605309Y-54988307D01*
X90605303Y-54988309D01*
X90599858Y-54991220D01*
X90520660Y-55024024D01*
X90499233Y-55030524D01*
X90415149Y-55047250D01*
X90392869Y-55049444D01*
X90374450Y-55049444D01*
X90362199Y-55050046D01*
X90343862Y-55051852D01*
X89856138Y-55051852D01*
X89837801Y-55050046D01*
X89825550Y-55049444D01*
X89807131Y-55049444D01*
X89784851Y-55047250D01*
X89700767Y-55030524D01*
X89679340Y-55024024D01*
X89600142Y-54991220D01*
X89594697Y-54988309D01*
X89594691Y-54988307D01*
X89585831Y-54983571D01*
X89585827Y-54983568D01*
X89580386Y-54980660D01*
X89509101Y-54933029D01*
X89491796Y-54918828D01*
X89431172Y-54858204D01*
X89416971Y-54840899D01*
X89369340Y-54769614D01*
X89366432Y-54764173D01*
X89366429Y-54764169D01*
X89361693Y-54755309D01*
X89361691Y-54755303D01*
X89358780Y-54749858D01*
X89325976Y-54670660D01*
X89319476Y-54649233D01*
X89302750Y-54565149D01*
X89300556Y-54542869D01*
X89300556Y-54524450D01*
X89299954Y-54512199D01*
X89298148Y-54493862D01*
X89298148Y-53956140D01*
X89299737Y-53940001D01*
X89304145Y-53925472D01*
X89309606Y-53912289D01*
X89314388Y-53888255D01*
X89314389Y-53863751D01*
X89309609Y-53839718D01*
X89300232Y-53817079D01*
X89299000Y-53815235D01*
X89299000Y-52583950D01*
X89305475Y-52571836D01*
X89312588Y-52548387D01*
X89314990Y-52524001D01*
X89312588Y-52499615D01*
X89305475Y-52476166D01*
X89303152Y-52471254D01*
X89299737Y-52459999D01*
X89298148Y-52443860D01*
X89298148Y-51906139D01*
X89299954Y-51887801D01*
X89300556Y-51875550D01*
X89300556Y-51857131D01*
X89302750Y-51834851D01*
X89319476Y-51750767D01*
X89325976Y-51729340D01*
X89358780Y-51650142D01*
X89361691Y-51644697D01*
X89361693Y-51644691D01*
X89366429Y-51635831D01*
X89366432Y-51635827D01*
X89369340Y-51630386D01*
X89416971Y-51559101D01*
X89431172Y-51541796D01*
X89491796Y-51481172D01*
X89509101Y-51466971D01*
X89580386Y-51419340D01*
X89585827Y-51416432D01*
X89585831Y-51416429D01*
X89594691Y-51411693D01*
X89594697Y-51411691D01*
X89600142Y-51408780D01*
X89679340Y-51375976D01*
X89700767Y-51369476D01*
X89784851Y-51352750D01*
X89807131Y-51350556D01*
X89825550Y-51350556D01*
X89837801Y-51349954D01*
X89856139Y-51348148D01*
X90343861Y-51348148D01*
X90362199Y-51349954D01*
X90362199Y-51349954D01*
G37*
G36*
X37061000Y-54151000D02*
G01*
X35959000Y-54151000D01*
X35959000Y-53649000D01*
X37061000Y-53649000D01*
X37061000Y-54151000D01*
X37061000Y-54151000D01*
G37*
G36*
X52696000Y-53846000D02*
G01*
X50594000Y-53846000D01*
X50594000Y-52844000D01*
X52696000Y-52844000D01*
X52696000Y-53846000D01*
X52696000Y-53846000D01*
G37*
G36*
X96891000Y-53451000D02*
G01*
X95489000Y-53451000D01*
X95489000Y-51349000D01*
X96891000Y-51349000D01*
X96891000Y-53451000D01*
X96891000Y-53451000D01*
G37*
G36*
X37061000Y-53151000D02*
G01*
X35959000Y-53151000D01*
X35959000Y-52649000D01*
X37061000Y-52649000D01*
X37061000Y-53151000D01*
X37061000Y-53151000D01*
G37*
G36*
X82657811Y-51478605D02*
G01*
X82696867Y-51490453D01*
X82732862Y-51509693D01*
X82764414Y-51535586D01*
X82790307Y-51567138D01*
X82809547Y-51603133D01*
X82821395Y-51642189D01*
X82826000Y-51688949D01*
X82826000Y-52411051D01*
X82821395Y-52457811D01*
X82809547Y-52496867D01*
X82790307Y-52532862D01*
X82764414Y-52564414D01*
X82732862Y-52590307D01*
X82696867Y-52609547D01*
X82657811Y-52621395D01*
X82611051Y-52626000D01*
X81638949Y-52626000D01*
X81592189Y-52621395D01*
X81553133Y-52609547D01*
X81517138Y-52590307D01*
X81485586Y-52564414D01*
X81459693Y-52532862D01*
X81440453Y-52496867D01*
X81428605Y-52457811D01*
X81424000Y-52411051D01*
X81424000Y-51688949D01*
X81428605Y-51642189D01*
X81440453Y-51603133D01*
X81459693Y-51567138D01*
X81485586Y-51535586D01*
X81517138Y-51509693D01*
X81553133Y-51490453D01*
X81592189Y-51478605D01*
X81638949Y-51474000D01*
X82611051Y-51474000D01*
X82657811Y-51478605D01*
X82657811Y-51478605D01*
G37*
G36*
X80707811Y-51478605D02*
G01*
X80746867Y-51490453D01*
X80782862Y-51509693D01*
X80814414Y-51535586D01*
X80840307Y-51567138D01*
X80859547Y-51603133D01*
X80871395Y-51642189D01*
X80876000Y-51688949D01*
X80876000Y-52411051D01*
X80871395Y-52457811D01*
X80859547Y-52496867D01*
X80840307Y-52532862D01*
X80814414Y-52564414D01*
X80782862Y-52590307D01*
X80746867Y-52609547D01*
X80707811Y-52621395D01*
X80661051Y-52626000D01*
X79688949Y-52626000D01*
X79642189Y-52621395D01*
X79603133Y-52609547D01*
X79567138Y-52590307D01*
X79535586Y-52564414D01*
X79509693Y-52532862D01*
X79490453Y-52496867D01*
X79478605Y-52457811D01*
X79474000Y-52411051D01*
X79474000Y-51688949D01*
X79478605Y-51642189D01*
X79490453Y-51603133D01*
X79509693Y-51567138D01*
X79535586Y-51535586D01*
X79567138Y-51509693D01*
X79603133Y-51490453D01*
X79642189Y-51478605D01*
X79688949Y-51474000D01*
X80661051Y-51474000D01*
X80707811Y-51478605D01*
X80707811Y-51478605D01*
G37*
G36*
X52696000Y-52576000D02*
G01*
X50594000Y-52576000D01*
X50594000Y-51574000D01*
X52696000Y-51574000D01*
X52696000Y-52576000D01*
X52696000Y-52576000D01*
G37*
G36*
X37061000Y-52151000D02*
G01*
X35959000Y-52151000D01*
X35959000Y-51649000D01*
X37061000Y-51649000D01*
X37061000Y-52151000D01*
X37061000Y-52151000D01*
G37*
G36*
X52696000Y-51306000D02*
G01*
X50594000Y-51306000D01*
X50594000Y-50304000D01*
X52696000Y-50304000D01*
X52696000Y-51306000D01*
X52696000Y-51306000D01*
G37*
G36*
X37061000Y-51151000D02*
G01*
X35959000Y-51151000D01*
X35959000Y-50649000D01*
X37061000Y-50649000D01*
X37061000Y-51151000D01*
X37061000Y-51151000D01*
G37*
G36*
X64206000Y-50451000D02*
G01*
X59104000Y-50451000D01*
X59104000Y-45349000D01*
X64206000Y-45349000D01*
X64206000Y-50451000D01*
X64206000Y-50451000D01*
G37*
G36*
X87801000Y-50401000D02*
G01*
X85699000Y-50401000D01*
X85699000Y-48799000D01*
X87801000Y-48799000D01*
X87801000Y-50401000D01*
X87801000Y-50401000D01*
G37*
G36*
X37061000Y-50151000D02*
G01*
X35959000Y-50151000D01*
X35959000Y-49649000D01*
X37061000Y-49649000D01*
X37061000Y-50151000D01*
X37061000Y-50151000D01*
G37*
G36*
X52696000Y-50036000D02*
G01*
X50594000Y-50036000D01*
X50594000Y-49034000D01*
X52696000Y-49034000D01*
X52696000Y-50036000D01*
X52696000Y-50036000D01*
G37*
G36*
X94001000Y-50001000D02*
G01*
X92199000Y-50001000D01*
X92199000Y-48199000D01*
X94001000Y-48199000D01*
X94001000Y-50001000D01*
X94001000Y-50001000D01*
G37*
G36*
X98290443Y-48205519D02*
G01*
X98356627Y-48212037D01*
X98526466Y-48263557D01*
X98682991Y-48347222D01*
X98718729Y-48376552D01*
X98820186Y-48459814D01*
X98903448Y-48561271D01*
X98932778Y-48597009D01*
X99016443Y-48753534D01*
X99067963Y-48923373D01*
X99085359Y-49100000D01*
X99067963Y-49276627D01*
X99016443Y-49446466D01*
X98932778Y-49602991D01*
X98903448Y-49638729D01*
X98820186Y-49740186D01*
X98718729Y-49823448D01*
X98682991Y-49852778D01*
X98526466Y-49936443D01*
X98356627Y-49987963D01*
X98290442Y-49994482D01*
X98224260Y-50001000D01*
X98135740Y-50001000D01*
X98069557Y-49994481D01*
X98003373Y-49987963D01*
X97833534Y-49936443D01*
X97677009Y-49852778D01*
X97641271Y-49823448D01*
X97539814Y-49740186D01*
X97456552Y-49638729D01*
X97427222Y-49602991D01*
X97343557Y-49446466D01*
X97292037Y-49276627D01*
X97274641Y-49100000D01*
X97292037Y-48923373D01*
X97343557Y-48753534D01*
X97427222Y-48597009D01*
X97456552Y-48561271D01*
X97539814Y-48459814D01*
X97641271Y-48376552D01*
X97677009Y-48347222D01*
X97833534Y-48263557D01*
X98003373Y-48212037D01*
X98069558Y-48205518D01*
X98135740Y-48199000D01*
X98224260Y-48199000D01*
X98290443Y-48205519D01*
X98290443Y-48205519D01*
G37*
G36*
X95750443Y-48205519D02*
G01*
X95816627Y-48212037D01*
X95986466Y-48263557D01*
X96142991Y-48347222D01*
X96178729Y-48376552D01*
X96280186Y-48459814D01*
X96363448Y-48561271D01*
X96392778Y-48597009D01*
X96476443Y-48753534D01*
X96527963Y-48923373D01*
X96545359Y-49100000D01*
X96527963Y-49276627D01*
X96476443Y-49446466D01*
X96392778Y-49602991D01*
X96363448Y-49638729D01*
X96280186Y-49740186D01*
X96178729Y-49823448D01*
X96142991Y-49852778D01*
X95986466Y-49936443D01*
X95816627Y-49987963D01*
X95750442Y-49994482D01*
X95684260Y-50001000D01*
X95595740Y-50001000D01*
X95529557Y-49994481D01*
X95463373Y-49987963D01*
X95293534Y-49936443D01*
X95137009Y-49852778D01*
X95101271Y-49823448D01*
X94999814Y-49740186D01*
X94916552Y-49638729D01*
X94887222Y-49602991D01*
X94803557Y-49446466D01*
X94752037Y-49276627D01*
X94734641Y-49100000D01*
X94752037Y-48923373D01*
X94803557Y-48753534D01*
X94887222Y-48597009D01*
X94916552Y-48561271D01*
X94999814Y-48459814D01*
X95101271Y-48376552D01*
X95137009Y-48347222D01*
X95293534Y-48263557D01*
X95463373Y-48212037D01*
X95529558Y-48205518D01*
X95595740Y-48199000D01*
X95684260Y-48199000D01*
X95750443Y-48205519D01*
X95750443Y-48205519D01*
G37*
G36*
X47538674Y-47853465D02*
G01*
X47576367Y-47864899D01*
X47611103Y-47883466D01*
X47641548Y-47908452D01*
X47666534Y-47938897D01*
X47685101Y-47973633D01*
X47696535Y-48011326D01*
X47701000Y-48056661D01*
X47701000Y-49143339D01*
X47696535Y-49188674D01*
X47685101Y-49226367D01*
X47666534Y-49261103D01*
X47641548Y-49291548D01*
X47611103Y-49316534D01*
X47576367Y-49335101D01*
X47538674Y-49346535D01*
X47493339Y-49351000D01*
X46656661Y-49351000D01*
X46611326Y-49346535D01*
X46573633Y-49335101D01*
X46538897Y-49316534D01*
X46508452Y-49291548D01*
X46483466Y-49261103D01*
X46464899Y-49226367D01*
X46453465Y-49188674D01*
X46449000Y-49143339D01*
X46449000Y-48056661D01*
X46453465Y-48011326D01*
X46464899Y-47973633D01*
X46483466Y-47938897D01*
X46508452Y-47908452D01*
X46538897Y-47883466D01*
X46573633Y-47864899D01*
X46611326Y-47853465D01*
X46656661Y-47849000D01*
X47493339Y-47849000D01*
X47538674Y-47853465D01*
X47538674Y-47853465D01*
G37*
G36*
X49588674Y-47853465D02*
G01*
X49626367Y-47864899D01*
X49661103Y-47883466D01*
X49691548Y-47908452D01*
X49716534Y-47938897D01*
X49735101Y-47973633D01*
X49746535Y-48011326D01*
X49751000Y-48056661D01*
X49751000Y-49143339D01*
X49746535Y-49188674D01*
X49735101Y-49226367D01*
X49716534Y-49261103D01*
X49691548Y-49291548D01*
X49661103Y-49316534D01*
X49626367Y-49335101D01*
X49588674Y-49346535D01*
X49543339Y-49351000D01*
X48706661Y-49351000D01*
X48661326Y-49346535D01*
X48623633Y-49335101D01*
X48588897Y-49316534D01*
X48558452Y-49291548D01*
X48533466Y-49261103D01*
X48514899Y-49226367D01*
X48503465Y-49188674D01*
X48499000Y-49143339D01*
X48499000Y-48056661D01*
X48503465Y-48011326D01*
X48514899Y-47973633D01*
X48533466Y-47938897D01*
X48558452Y-47908452D01*
X48588897Y-47883466D01*
X48623633Y-47864899D01*
X48661326Y-47853465D01*
X48706661Y-47849000D01*
X49543339Y-47849000D01*
X49588674Y-47853465D01*
X49588674Y-47853465D01*
G37*
G36*
X81501000Y-49251000D02*
G01*
X79399000Y-49251000D01*
X79399000Y-45349000D01*
X81501000Y-45349000D01*
X81501000Y-49251000D01*
X81501000Y-49251000D01*
G37*
G36*
X37061000Y-49151000D02*
G01*
X35959000Y-49151000D01*
X35959000Y-48649000D01*
X37061000Y-48649000D01*
X37061000Y-49151000D01*
X37061000Y-49151000D01*
G37*
G36*
X52696000Y-48766000D02*
G01*
X50594000Y-48766000D01*
X50594000Y-47764000D01*
X52696000Y-47764000D01*
X52696000Y-48766000D01*
X52696000Y-48766000D01*
G37*
G36*
X37061000Y-48151000D02*
G01*
X35959000Y-48151000D01*
X35959000Y-47649000D01*
X37061000Y-47649000D01*
X37061000Y-48151000D01*
X37061000Y-48151000D01*
G37*
G36*
X87801000Y-48101000D02*
G01*
X85699000Y-48101000D01*
X85699000Y-46499000D01*
X87801000Y-46499000D01*
X87801000Y-48101000D01*
X87801000Y-48101000D01*
G37*
G36*
X52696000Y-47496000D02*
G01*
X50594000Y-47496000D01*
X50594000Y-46494000D01*
X52696000Y-46494000D01*
X52696000Y-47496000D01*
X52696000Y-47496000D01*
G37*
G36*
X37061000Y-47151000D02*
G01*
X35959000Y-47151000D01*
X35959000Y-46649000D01*
X37061000Y-46649000D01*
X37061000Y-47151000D01*
X37061000Y-47151000D01*
G37*
G36*
X47439499Y-45578445D02*
G01*
X47476995Y-45589820D01*
X47511554Y-45608292D01*
X47541847Y-45633153D01*
X47566708Y-45663446D01*
X47585180Y-45698005D01*
X47596555Y-45735501D01*
X47601000Y-45780638D01*
X47601000Y-46419362D01*
X47596555Y-46464499D01*
X47585180Y-46501995D01*
X47566708Y-46536554D01*
X47541847Y-46566847D01*
X47511554Y-46591708D01*
X47476995Y-46610180D01*
X47439499Y-46621555D01*
X47394362Y-46626000D01*
X46655638Y-46626000D01*
X46610501Y-46621555D01*
X46573005Y-46610180D01*
X46538446Y-46591708D01*
X46508153Y-46566847D01*
X46483292Y-46536554D01*
X46464820Y-46501995D01*
X46453445Y-46464499D01*
X46449000Y-46419362D01*
X46449000Y-45780638D01*
X46453445Y-45735501D01*
X46464820Y-45698005D01*
X46483292Y-45663446D01*
X46508153Y-45633153D01*
X46538446Y-45608292D01*
X46573005Y-45589820D01*
X46610501Y-45578445D01*
X46655638Y-45574000D01*
X47394362Y-45574000D01*
X47439499Y-45578445D01*
X47439499Y-45578445D01*
G37*
G36*
X49189499Y-45578445D02*
G01*
X49226995Y-45589820D01*
X49261554Y-45608292D01*
X49291847Y-45633153D01*
X49316708Y-45663446D01*
X49335180Y-45698005D01*
X49346555Y-45735501D01*
X49351000Y-45780638D01*
X49351000Y-46419362D01*
X49346555Y-46464499D01*
X49335180Y-46501995D01*
X49316708Y-46536554D01*
X49291847Y-46566847D01*
X49261554Y-46591708D01*
X49226995Y-46610180D01*
X49189499Y-46621555D01*
X49144362Y-46626000D01*
X48405638Y-46626000D01*
X48360501Y-46621555D01*
X48323005Y-46610180D01*
X48288446Y-46591708D01*
X48258153Y-46566847D01*
X48233292Y-46536554D01*
X48214820Y-46501995D01*
X48203445Y-46464499D01*
X48199000Y-46419362D01*
X48199000Y-45780638D01*
X48203445Y-45735501D01*
X48214820Y-45698005D01*
X48233292Y-45663446D01*
X48258153Y-45633153D01*
X48288446Y-45608292D01*
X48323005Y-45589820D01*
X48360501Y-45578445D01*
X48405638Y-45574000D01*
X49144362Y-45574000D01*
X49189499Y-45578445D01*
X49189499Y-45578445D01*
G37*
G36*
X95750442Y-44605518D02*
G01*
X95816627Y-44612037D01*
X95986466Y-44663557D01*
X96142991Y-44747222D01*
X96178729Y-44776552D01*
X96280186Y-44859814D01*
X96359123Y-44956000D01*
X96392778Y-44997009D01*
X96476443Y-45153534D01*
X96527963Y-45323373D01*
X96545359Y-45500000D01*
X96527963Y-45676627D01*
X96476443Y-45846466D01*
X96392778Y-46002991D01*
X96363448Y-46038729D01*
X96280186Y-46140186D01*
X96178729Y-46223448D01*
X96142991Y-46252778D01*
X95986466Y-46336443D01*
X95816627Y-46387963D01*
X95750442Y-46394482D01*
X95684260Y-46401000D01*
X95595740Y-46401000D01*
X95529558Y-46394482D01*
X95463373Y-46387963D01*
X95293534Y-46336443D01*
X95137009Y-46252778D01*
X95101271Y-46223448D01*
X94999814Y-46140186D01*
X94916552Y-46038729D01*
X94887222Y-46002991D01*
X94803557Y-45846466D01*
X94752037Y-45676627D01*
X94734641Y-45500000D01*
X94752037Y-45323373D01*
X94803557Y-45153534D01*
X94887222Y-44997009D01*
X94920877Y-44956000D01*
X94999814Y-44859814D01*
X95101271Y-44776552D01*
X95137009Y-44747222D01*
X95293534Y-44663557D01*
X95463373Y-44612037D01*
X95529558Y-44605518D01*
X95595740Y-44599000D01*
X95684260Y-44599000D01*
X95750442Y-44605518D01*
X95750442Y-44605518D01*
G37*
G36*
X94001000Y-46401000D02*
G01*
X92199000Y-46401000D01*
X92199000Y-44599000D01*
X94001000Y-44599000D01*
X94001000Y-46401000D01*
X94001000Y-46401000D01*
G37*
G36*
X98290442Y-44605518D02*
G01*
X98356627Y-44612037D01*
X98526466Y-44663557D01*
X98682991Y-44747222D01*
X98718729Y-44776552D01*
X98820186Y-44859814D01*
X98899123Y-44956000D01*
X98932778Y-44997009D01*
X99016443Y-45153534D01*
X99067963Y-45323373D01*
X99085359Y-45500000D01*
X99067963Y-45676627D01*
X99016443Y-45846466D01*
X98932778Y-46002991D01*
X98903448Y-46038729D01*
X98820186Y-46140186D01*
X98718729Y-46223448D01*
X98682991Y-46252778D01*
X98526466Y-46336443D01*
X98356627Y-46387963D01*
X98290442Y-46394482D01*
X98224260Y-46401000D01*
X98135740Y-46401000D01*
X98069558Y-46394482D01*
X98003373Y-46387963D01*
X97833534Y-46336443D01*
X97677009Y-46252778D01*
X97641271Y-46223448D01*
X97539814Y-46140186D01*
X97456552Y-46038729D01*
X97427222Y-46002991D01*
X97343557Y-45846466D01*
X97292037Y-45676627D01*
X97274641Y-45500000D01*
X97292037Y-45323373D01*
X97343557Y-45153534D01*
X97427222Y-44997009D01*
X97460877Y-44956000D01*
X97539814Y-44859814D01*
X97641271Y-44776552D01*
X97677009Y-44747222D01*
X97833534Y-44663557D01*
X98003373Y-44612037D01*
X98069558Y-44605518D01*
X98135740Y-44599000D01*
X98224260Y-44599000D01*
X98290442Y-44605518D01*
X98290442Y-44605518D01*
G37*
G36*
X52696000Y-46226000D02*
G01*
X50594000Y-46226000D01*
X50594000Y-45224000D01*
X52696000Y-45224000D01*
X52696000Y-46226000D01*
X52696000Y-46226000D01*
G37*
G36*
X37061000Y-46151000D02*
G01*
X35959000Y-46151000D01*
X35959000Y-45649000D01*
X37061000Y-45649000D01*
X37061000Y-46151000D01*
X37061000Y-46151000D01*
G37*
G36*
X87801000Y-45801000D02*
G01*
X85699000Y-45801000D01*
X85699000Y-44199000D01*
X87801000Y-44199000D01*
X87801000Y-45801000D01*
X87801000Y-45801000D01*
G37*
G36*
X37061000Y-45151000D02*
G01*
X35959000Y-45151000D01*
X35959000Y-44649000D01*
X37061000Y-44649000D01*
X37061000Y-45151000D01*
X37061000Y-45151000D01*
G37*
G36*
X52696000Y-44956000D02*
G01*
X50594000Y-44956000D01*
X50594000Y-43954000D01*
X52696000Y-43954000D01*
X52696000Y-44956000D01*
X52696000Y-44956000D01*
G37*
G36*
X37061000Y-44151000D02*
G01*
X35959000Y-44151000D01*
X35959000Y-43649000D01*
X37061000Y-43649000D01*
X37061000Y-44151000D01*
X37061000Y-44151000D01*
G37*
G36*
X52696000Y-43686000D02*
G01*
X50594000Y-43686000D01*
X50594000Y-42684000D01*
X52696000Y-42684000D01*
X52696000Y-43686000D01*
X52696000Y-43686000D01*
G37*
G36*
X43301000Y-43251000D02*
G01*
X42199000Y-43251000D01*
X42199000Y-41749000D01*
X43301000Y-41749000D01*
X43301000Y-43251000D01*
X43301000Y-43251000D01*
G37*
G36*
X41681000Y-43251000D02*
G01*
X40379000Y-43251000D01*
X40379000Y-41749000D01*
X41681000Y-41749000D01*
X41681000Y-43251000D01*
X41681000Y-43251000D01*
G37*
G36*
X37061000Y-43151000D02*
G01*
X35959000Y-43151000D01*
X35959000Y-42649000D01*
X37061000Y-42649000D01*
X37061000Y-43151000D01*
X37061000Y-43151000D01*
G37*
G36*
X87251000Y-43051000D02*
G01*
X83149000Y-43051000D01*
X83149000Y-40949000D01*
X87251000Y-40949000D01*
X87251000Y-43051000D01*
X87251000Y-43051000D01*
G37*
G36*
X93203848Y-40944869D02*
G01*
X93276627Y-40952037D01*
X93446466Y-41003557D01*
X93602991Y-41087222D01*
X93626677Y-41106661D01*
X93740186Y-41199814D01*
X93823448Y-41301271D01*
X93852778Y-41337009D01*
X93936443Y-41493534D01*
X93987963Y-41663373D01*
X94005359Y-41840000D01*
X93987963Y-42016627D01*
X93936443Y-42186466D01*
X93852778Y-42342991D01*
X93823448Y-42378729D01*
X93740186Y-42480186D01*
X93638729Y-42563448D01*
X93602991Y-42592778D01*
X93446466Y-42676443D01*
X93276627Y-42727963D01*
X93210443Y-42734481D01*
X93144260Y-42741000D01*
X93055740Y-42741000D01*
X92989557Y-42734481D01*
X92923373Y-42727963D01*
X92753534Y-42676443D01*
X92597009Y-42592778D01*
X92561271Y-42563448D01*
X92459814Y-42480186D01*
X92376552Y-42378729D01*
X92347222Y-42342991D01*
X92263557Y-42186466D01*
X92212037Y-42016627D01*
X92194641Y-41840000D01*
X92212037Y-41663373D01*
X92263557Y-41493534D01*
X92347222Y-41337009D01*
X92376552Y-41301271D01*
X92459814Y-41199814D01*
X92573323Y-41106661D01*
X92597009Y-41087222D01*
X92753534Y-41003557D01*
X92923373Y-40952037D01*
X92996152Y-40944869D01*
X93055740Y-40939000D01*
X93144260Y-40939000D01*
X93203848Y-40944869D01*
X93203848Y-40944869D01*
G37*
G36*
X98538674Y-40903465D02*
G01*
X98576367Y-40914899D01*
X98611103Y-40933466D01*
X98641548Y-40958452D01*
X98666534Y-40988897D01*
X98685101Y-41023633D01*
X98696535Y-41061326D01*
X98701000Y-41106661D01*
X98701000Y-42193339D01*
X98696535Y-42238674D01*
X98685101Y-42276367D01*
X98666534Y-42311103D01*
X98641548Y-42341548D01*
X98611103Y-42366534D01*
X98576367Y-42385101D01*
X98538674Y-42396535D01*
X98493339Y-42401000D01*
X97656661Y-42401000D01*
X97611326Y-42396535D01*
X97573633Y-42385101D01*
X97538897Y-42366534D01*
X97508452Y-42341548D01*
X97483466Y-42311103D01*
X97464899Y-42276367D01*
X97453465Y-42238674D01*
X97449000Y-42193339D01*
X97449000Y-41106661D01*
X97453465Y-41061326D01*
X97464899Y-41023633D01*
X97483466Y-40988897D01*
X97508452Y-40958452D01*
X97538897Y-40933466D01*
X97573633Y-40914899D01*
X97611326Y-40903465D01*
X97656661Y-40899000D01*
X98493339Y-40899000D01*
X98538674Y-40903465D01*
X98538674Y-40903465D01*
G37*
G36*
X96488674Y-40903465D02*
G01*
X96526367Y-40914899D01*
X96561103Y-40933466D01*
X96591548Y-40958452D01*
X96616534Y-40988897D01*
X96635101Y-41023633D01*
X96646535Y-41061326D01*
X96651000Y-41106661D01*
X96651000Y-42193339D01*
X96646535Y-42238674D01*
X96635101Y-42276367D01*
X96616534Y-42311103D01*
X96591548Y-42341548D01*
X96561103Y-42366534D01*
X96526367Y-42385101D01*
X96488674Y-42396535D01*
X96443339Y-42401000D01*
X95606661Y-42401000D01*
X95561326Y-42396535D01*
X95523633Y-42385101D01*
X95488897Y-42366534D01*
X95458452Y-42341548D01*
X95433466Y-42311103D01*
X95414899Y-42276367D01*
X95403465Y-42238674D01*
X95399000Y-42193339D01*
X95399000Y-41106661D01*
X95403465Y-41061326D01*
X95414899Y-41023633D01*
X95433466Y-40988897D01*
X95458452Y-40958452D01*
X95488897Y-40933466D01*
X95523633Y-40914899D01*
X95561326Y-40903465D01*
X95606661Y-40899000D01*
X96443339Y-40899000D01*
X96488674Y-40903465D01*
X96488674Y-40903465D01*
G37*
G36*
X37061000Y-42151000D02*
G01*
X35959000Y-42151000D01*
X35959000Y-41649000D01*
X37061000Y-41649000D01*
X37061000Y-42151000D01*
X37061000Y-42151000D01*
G37*
G36*
X53146000Y-41451000D02*
G01*
X52144000Y-41451000D01*
X52144000Y-39349000D01*
X53146000Y-39349000D01*
X53146000Y-41451000D01*
X53146000Y-41451000D01*
G37*
G36*
X69656000Y-41451000D02*
G01*
X68654000Y-41451000D01*
X68654000Y-39349000D01*
X69656000Y-39349000D01*
X69656000Y-41451000D01*
X69656000Y-41451000D01*
G37*
G36*
X56956000Y-41451000D02*
G01*
X55954000Y-41451000D01*
X55954000Y-39349000D01*
X56956000Y-39349000D01*
X56956000Y-41451000D01*
X56956000Y-41451000D01*
G37*
G36*
X68386000Y-41451000D02*
G01*
X67384000Y-41451000D01*
X67384000Y-39349000D01*
X68386000Y-39349000D01*
X68386000Y-41451000D01*
X68386000Y-41451000D01*
G37*
G36*
X67116000Y-41451000D02*
G01*
X66114000Y-41451000D01*
X66114000Y-39349000D01*
X67116000Y-39349000D01*
X67116000Y-41451000D01*
X67116000Y-41451000D01*
G37*
G36*
X65846000Y-41451000D02*
G01*
X64844000Y-41451000D01*
X64844000Y-39349000D01*
X65846000Y-39349000D01*
X65846000Y-41451000D01*
X65846000Y-41451000D01*
G37*
G36*
X64576000Y-41451000D02*
G01*
X63574000Y-41451000D01*
X63574000Y-39349000D01*
X64576000Y-39349000D01*
X64576000Y-41451000D01*
X64576000Y-41451000D01*
G37*
G36*
X62036000Y-41451000D02*
G01*
X61034000Y-41451000D01*
X61034000Y-39349000D01*
X62036000Y-39349000D01*
X62036000Y-41451000D01*
X62036000Y-41451000D01*
G37*
G36*
X60766000Y-41451000D02*
G01*
X59764000Y-41451000D01*
X59764000Y-39349000D01*
X60766000Y-39349000D01*
X60766000Y-41451000D01*
X60766000Y-41451000D01*
G37*
G36*
X59496000Y-41451000D02*
G01*
X58494000Y-41451000D01*
X58494000Y-39349000D01*
X59496000Y-39349000D01*
X59496000Y-41451000D01*
X59496000Y-41451000D01*
G37*
G36*
X58226000Y-41451000D02*
G01*
X57224000Y-41451000D01*
X57224000Y-39349000D01*
X58226000Y-39349000D01*
X58226000Y-41451000D01*
X58226000Y-41451000D01*
G37*
G36*
X54416000Y-41451000D02*
G01*
X53414000Y-41451000D01*
X53414000Y-39349000D01*
X54416000Y-39349000D01*
X54416000Y-41451000D01*
X54416000Y-41451000D01*
G37*
G36*
X55686000Y-41451000D02*
G01*
X54684000Y-41451000D01*
X54684000Y-39349000D01*
X55686000Y-39349000D01*
X55686000Y-41451000D01*
X55686000Y-41451000D01*
G37*
G36*
X63306000Y-41451000D02*
G01*
X62304000Y-41451000D01*
X62304000Y-39349000D01*
X63306000Y-39349000D01*
X63306000Y-41451000D01*
X63306000Y-41451000D01*
G37*
G36*
X43301000Y-41051000D02*
G01*
X42199000Y-41051000D01*
X42199000Y-39549000D01*
X43301000Y-39549000D01*
X43301000Y-41051000D01*
X43301000Y-41051000D01*
G37*
G36*
X41401000Y-41051000D02*
G01*
X40299000Y-41051000D01*
X40299000Y-39549000D01*
X41401000Y-39549000D01*
X41401000Y-41051000D01*
X41401000Y-41051000D01*
G37*
G36*
X94001000Y-40201000D02*
G01*
X92199000Y-40201000D01*
X92199000Y-38399000D01*
X94001000Y-38399000D01*
X94001000Y-40201000D01*
X94001000Y-40201000D01*
G37*
G36*
X96557811Y-39028605D02*
G01*
X96596867Y-39040453D01*
X96632862Y-39059693D01*
X96664414Y-39085586D01*
X96690307Y-39117138D01*
X96709547Y-39153133D01*
X96721395Y-39192189D01*
X96726000Y-39238949D01*
X96726000Y-39961051D01*
X96721395Y-40007811D01*
X96709547Y-40046867D01*
X96690307Y-40082862D01*
X96664414Y-40114414D01*
X96632862Y-40140307D01*
X96596867Y-40159547D01*
X96557811Y-40171395D01*
X96511051Y-40176000D01*
X95538949Y-40176000D01*
X95492189Y-40171395D01*
X95453133Y-40159547D01*
X95417138Y-40140307D01*
X95385586Y-40114414D01*
X95359693Y-40082862D01*
X95340453Y-40046867D01*
X95328605Y-40007811D01*
X95324000Y-39961051D01*
X95324000Y-39238949D01*
X95328605Y-39192189D01*
X95340453Y-39153133D01*
X95359693Y-39117138D01*
X95385586Y-39085586D01*
X95417138Y-39059693D01*
X95453133Y-39040453D01*
X95492189Y-39028605D01*
X95538949Y-39024000D01*
X96511051Y-39024000D01*
X96557811Y-39028605D01*
X96557811Y-39028605D01*
G37*
G36*
X98507811Y-39028605D02*
G01*
X98546867Y-39040453D01*
X98582862Y-39059693D01*
X98614414Y-39085586D01*
X98640307Y-39117138D01*
X98659547Y-39153133D01*
X98671395Y-39192189D01*
X98676000Y-39238949D01*
X98676000Y-39961051D01*
X98671395Y-40007811D01*
X98659547Y-40046867D01*
X98640307Y-40082862D01*
X98614414Y-40114414D01*
X98582862Y-40140307D01*
X98546867Y-40159547D01*
X98507811Y-40171395D01*
X98461051Y-40176000D01*
X97488949Y-40176000D01*
X97442189Y-40171395D01*
X97403133Y-40159547D01*
X97367138Y-40140307D01*
X97335586Y-40114414D01*
X97309693Y-40082862D01*
X97290453Y-40046867D01*
X97278605Y-40007811D01*
X97274000Y-39961051D01*
X97274000Y-39238949D01*
X97278605Y-39192189D01*
X97290453Y-39153133D01*
X97309693Y-39117138D01*
X97335586Y-39085586D01*
X97367138Y-39059693D01*
X97403133Y-39040453D01*
X97442189Y-39028605D01*
X97488949Y-39024000D01*
X98461051Y-39024000D01*
X98507811Y-39028605D01*
X98507811Y-39028605D01*
G37*
G36*
X34511000Y-40151000D02*
G01*
X33109000Y-40151000D01*
X33109000Y-38049000D01*
X34511000Y-38049000D01*
X34511000Y-40151000D01*
X34511000Y-40151000D01*
G37*
G36*
X70963683Y-35878456D02*
G01*
X71001376Y-35889890D01*
X71036112Y-35908457D01*
X71066557Y-35933443D01*
X71091543Y-35963888D01*
X71110110Y-35998624D01*
X71121544Y-36036317D01*
X71126009Y-36081652D01*
X71126009Y-37168330D01*
X71121544Y-37213665D01*
X71110110Y-37251358D01*
X71091543Y-37286094D01*
X71066557Y-37316539D01*
X71036112Y-37341525D01*
X71001376Y-37360092D01*
X70963683Y-37371526D01*
X70918348Y-37375991D01*
X70081670Y-37375991D01*
X70036335Y-37371526D01*
X69998642Y-37360092D01*
X69963906Y-37341525D01*
X69933461Y-37316539D01*
X69908475Y-37286094D01*
X69889908Y-37251358D01*
X69878474Y-37213665D01*
X69874009Y-37168330D01*
X69874009Y-36081652D01*
X69878474Y-36036317D01*
X69889908Y-35998624D01*
X69908475Y-35963888D01*
X69933461Y-35933443D01*
X69963906Y-35908457D01*
X69998642Y-35889890D01*
X70036335Y-35878456D01*
X70081670Y-35873991D01*
X70918348Y-35873991D01*
X70963683Y-35878456D01*
X70963683Y-35878456D01*
G37*
G36*
X73013683Y-35878456D02*
G01*
X73051376Y-35889890D01*
X73086112Y-35908457D01*
X73116557Y-35933443D01*
X73141543Y-35963888D01*
X73160110Y-35998624D01*
X73171544Y-36036317D01*
X73176009Y-36081652D01*
X73176009Y-37168330D01*
X73171544Y-37213665D01*
X73160110Y-37251358D01*
X73141543Y-37286094D01*
X73116557Y-37316539D01*
X73086112Y-37341525D01*
X73051376Y-37360092D01*
X73013683Y-37371526D01*
X72968348Y-37375991D01*
X72131670Y-37375991D01*
X72086335Y-37371526D01*
X72048642Y-37360092D01*
X72013906Y-37341525D01*
X71983461Y-37316539D01*
X71958475Y-37286094D01*
X71939908Y-37251358D01*
X71928474Y-37213665D01*
X71924009Y-37168330D01*
X71924009Y-36081652D01*
X71928474Y-36036317D01*
X71939908Y-35998624D01*
X71958475Y-35963888D01*
X71983461Y-35933443D01*
X72013906Y-35908457D01*
X72048642Y-35889890D01*
X72086335Y-35878456D01*
X72131670Y-35873991D01*
X72968348Y-35873991D01*
X73013683Y-35878456D01*
X73013683Y-35878456D01*
G37*
G36*
X77388674Y-35853465D02*
G01*
X77426367Y-35864899D01*
X77461103Y-35883466D01*
X77491548Y-35908452D01*
X77516534Y-35938897D01*
X77535101Y-35973633D01*
X77546535Y-36011326D01*
X77551000Y-36056661D01*
X77551000Y-37143339D01*
X77546535Y-37188674D01*
X77535101Y-37226367D01*
X77516534Y-37261103D01*
X77491548Y-37291548D01*
X77461103Y-37316534D01*
X77426367Y-37335101D01*
X77388674Y-37346535D01*
X77343339Y-37351000D01*
X76506661Y-37351000D01*
X76461326Y-37346535D01*
X76423633Y-37335101D01*
X76388897Y-37316534D01*
X76358452Y-37291548D01*
X76333466Y-37261103D01*
X76314899Y-37226367D01*
X76303465Y-37188674D01*
X76299000Y-37143339D01*
X76299000Y-36056661D01*
X76303465Y-36011326D01*
X76314899Y-35973633D01*
X76333466Y-35938897D01*
X76358452Y-35908452D01*
X76388897Y-35883466D01*
X76423633Y-35864899D01*
X76461326Y-35853465D01*
X76506661Y-35849000D01*
X77343339Y-35849000D01*
X77388674Y-35853465D01*
X77388674Y-35853465D01*
G37*
G36*
X75338674Y-35853465D02*
G01*
X75376367Y-35864899D01*
X75411103Y-35883466D01*
X75441548Y-35908452D01*
X75466534Y-35938897D01*
X75485101Y-35973633D01*
X75496535Y-36011326D01*
X75501000Y-36056661D01*
X75501000Y-37143339D01*
X75496535Y-37188674D01*
X75485101Y-37226367D01*
X75466534Y-37261103D01*
X75441548Y-37291548D01*
X75411103Y-37316534D01*
X75376367Y-37335101D01*
X75338674Y-37346535D01*
X75293339Y-37351000D01*
X74456661Y-37351000D01*
X74411326Y-37346535D01*
X74373633Y-37335101D01*
X74338897Y-37316534D01*
X74308452Y-37291548D01*
X74283466Y-37261103D01*
X74264899Y-37226367D01*
X74253465Y-37188674D01*
X74249000Y-37143339D01*
X74249000Y-36056661D01*
X74253465Y-36011326D01*
X74264899Y-35973633D01*
X74283466Y-35938897D01*
X74308452Y-35908452D01*
X74338897Y-35883466D01*
X74373633Y-35864899D01*
X74411326Y-35853465D01*
X74456661Y-35849000D01*
X75293339Y-35849000D01*
X75338674Y-35853465D01*
X75338674Y-35853465D01*
G37*
G36*
X95275880Y-32759776D02*
G01*
X95656593Y-32835504D01*
X96066249Y-33005189D01*
X96434929Y-33251534D01*
X96748466Y-33565071D01*
X96994811Y-33933751D01*
X97164496Y-34343407D01*
X97251000Y-34778296D01*
X97251000Y-35221704D01*
X97164496Y-35656593D01*
X96994811Y-36066249D01*
X96748466Y-36434929D01*
X96434929Y-36748466D01*
X96066249Y-36994811D01*
X95656593Y-37164496D01*
X95275880Y-37240224D01*
X95221705Y-37251000D01*
X94778295Y-37251000D01*
X94724120Y-37240224D01*
X94343407Y-37164496D01*
X93933751Y-36994811D01*
X93565071Y-36748466D01*
X93251534Y-36434929D01*
X93005189Y-36066249D01*
X92835504Y-35656593D01*
X92749000Y-35221704D01*
X92749000Y-34778296D01*
X92835504Y-34343407D01*
X93005189Y-33933751D01*
X93251534Y-33565071D01*
X93565071Y-33251534D01*
X93933751Y-33005189D01*
X94343407Y-32835504D01*
X94724120Y-32759776D01*
X94778295Y-32749000D01*
X95221705Y-32749000D01*
X95275880Y-32759776D01*
X95275880Y-32759776D01*
G37*
G36*
X35275880Y-32759776D02*
G01*
X35656593Y-32835504D01*
X36066249Y-33005189D01*
X36434929Y-33251534D01*
X36748466Y-33565071D01*
X36994811Y-33933751D01*
X37164496Y-34343407D01*
X37251000Y-34778296D01*
X37251000Y-35221704D01*
X37164496Y-35656593D01*
X36994811Y-36066249D01*
X36748466Y-36434929D01*
X36434929Y-36748466D01*
X36066249Y-36994811D01*
X35656593Y-37164496D01*
X35275880Y-37240224D01*
X35221705Y-37251000D01*
X34778295Y-37251000D01*
X34724120Y-37240224D01*
X34343407Y-37164496D01*
X33933751Y-36994811D01*
X33565071Y-36748466D01*
X33251534Y-36434929D01*
X33005189Y-36066249D01*
X32835504Y-35656593D01*
X32749000Y-35221704D01*
X32749000Y-34778296D01*
X32835504Y-34343407D01*
X33005189Y-33933751D01*
X33251534Y-33565071D01*
X33565071Y-33251534D01*
X33933751Y-33005189D01*
X34343407Y-32835504D01*
X34724120Y-32759776D01*
X34778295Y-32749000D01*
X35221705Y-32749000D01*
X35275880Y-32759776D01*
X35275880Y-32759776D01*
G37*
G36*
X68206000Y-37151000D02*
G01*
X66554000Y-37151000D01*
X66554000Y-35749000D01*
X68206000Y-35749000D01*
X68206000Y-37151000D01*
X68206000Y-37151000D01*
G37*
G36*
X47406000Y-37151000D02*
G01*
X45754000Y-37151000D01*
X45754000Y-35749000D01*
X47406000Y-35749000D01*
X47406000Y-37151000D01*
X47406000Y-37151000D01*
G37*
G36*
X60246000Y-37151000D02*
G01*
X58594000Y-37151000D01*
X58594000Y-35749000D01*
X60246000Y-35749000D01*
X60246000Y-37151000D01*
X60246000Y-37151000D01*
G37*
G36*
X39446000Y-37151000D02*
G01*
X37794000Y-37151000D01*
X37794000Y-35749000D01*
X39446000Y-35749000D01*
X39446000Y-37151000D01*
X39446000Y-37151000D01*
G37*
G36*
X85953097Y-34954069D02*
G01*
X86056032Y-34964207D01*
X86254146Y-35024305D01*
X86254149Y-35024306D01*
X86282565Y-35039495D01*
X86436729Y-35121897D01*
X86596765Y-35253235D01*
X86728103Y-35413271D01*
X86773939Y-35499025D01*
X86825694Y-35595851D01*
X86825695Y-35595854D01*
X86885793Y-35793968D01*
X86906085Y-36000000D01*
X86885793Y-36206032D01*
X86828658Y-36394378D01*
X86825694Y-36404149D01*
X86795811Y-36460055D01*
X86728103Y-36586729D01*
X86596765Y-36746765D01*
X86436729Y-36878103D01*
X86385244Y-36905622D01*
X86254149Y-36975694D01*
X86254146Y-36975695D01*
X86056032Y-37035793D01*
X85953097Y-37045931D01*
X85901631Y-37051000D01*
X84498369Y-37051000D01*
X84446903Y-37045931D01*
X84343968Y-37035793D01*
X84145854Y-36975695D01*
X84145851Y-36975694D01*
X84014756Y-36905622D01*
X83963271Y-36878103D01*
X83803235Y-36746765D01*
X83671897Y-36586729D01*
X83604189Y-36460055D01*
X83574306Y-36404149D01*
X83571342Y-36394378D01*
X83514207Y-36206032D01*
X83493915Y-36000000D01*
X83514207Y-35793968D01*
X83574305Y-35595854D01*
X83574306Y-35595851D01*
X83626061Y-35499025D01*
X83671897Y-35413271D01*
X83803235Y-35253235D01*
X83963271Y-35121897D01*
X84117435Y-35039495D01*
X84145851Y-35024306D01*
X84145854Y-35024305D01*
X84343968Y-34964207D01*
X84446903Y-34954069D01*
X84498369Y-34949000D01*
X85901631Y-34949000D01*
X85953097Y-34954069D01*
X85953097Y-34954069D01*
G37*
G36*
X80906032Y-33214207D02*
G01*
X81084637Y-33268387D01*
X81104149Y-33274306D01*
X81171872Y-33310505D01*
X81286729Y-33371897D01*
X81446765Y-33503235D01*
X81578103Y-33663271D01*
X81597200Y-33699000D01*
X81675694Y-33845851D01*
X81675695Y-33845854D01*
X81735793Y-34043968D01*
X81751000Y-34198370D01*
X81751000Y-35801630D01*
X81735793Y-35956032D01*
X81685697Y-36121173D01*
X81675694Y-36154149D01*
X81647963Y-36206030D01*
X81578103Y-36336729D01*
X81446765Y-36496765D01*
X81286729Y-36628103D01*
X81171871Y-36689495D01*
X81104148Y-36725694D01*
X81104145Y-36725695D01*
X80906031Y-36785793D01*
X80700000Y-36806085D01*
X80493968Y-36785793D01*
X80295854Y-36725695D01*
X80295851Y-36725694D01*
X80199025Y-36673939D01*
X80113271Y-36628103D01*
X79953235Y-36496765D01*
X79821897Y-36336729D01*
X79724307Y-36154149D01*
X79724306Y-36154148D01*
X79697641Y-36066246D01*
X79664207Y-35956031D01*
X79649000Y-35801629D01*
X79649000Y-34198370D01*
X79654281Y-34144751D01*
X79664207Y-34043967D01*
X79724305Y-33845854D01*
X79802801Y-33699000D01*
X79821898Y-33663271D01*
X79953236Y-33503235D01*
X80113272Y-33371897D01*
X80228129Y-33310505D01*
X80295852Y-33274306D01*
X80315364Y-33268387D01*
X80493969Y-33214207D01*
X80700000Y-33193915D01*
X80906032Y-33214207D01*
X80906032Y-33214207D01*
G37*
G36*
X89906032Y-33214207D02*
G01*
X90084637Y-33268387D01*
X90104149Y-33274306D01*
X90171872Y-33310505D01*
X90286729Y-33371897D01*
X90446765Y-33503235D01*
X90578103Y-33663271D01*
X90597200Y-33699000D01*
X90675694Y-33845851D01*
X90675695Y-33845854D01*
X90735793Y-34043968D01*
X90751000Y-34198370D01*
X90751000Y-35801630D01*
X90735793Y-35956032D01*
X90685697Y-36121173D01*
X90675694Y-36154149D01*
X90647963Y-36206030D01*
X90578103Y-36336729D01*
X90446765Y-36496765D01*
X90286729Y-36628103D01*
X90171871Y-36689495D01*
X90104148Y-36725694D01*
X90104145Y-36725695D01*
X89906031Y-36785793D01*
X89700000Y-36806085D01*
X89493968Y-36785793D01*
X89295854Y-36725695D01*
X89295851Y-36725694D01*
X89199025Y-36673939D01*
X89113271Y-36628103D01*
X88953235Y-36496765D01*
X88821897Y-36336729D01*
X88724307Y-36154149D01*
X88724306Y-36154148D01*
X88697641Y-36066246D01*
X88664207Y-35956031D01*
X88649000Y-35801629D01*
X88649000Y-34198370D01*
X88654281Y-34144751D01*
X88664207Y-34043967D01*
X88724305Y-33845854D01*
X88802801Y-33699000D01*
X88821898Y-33663271D01*
X88953236Y-33503235D01*
X89113272Y-33371897D01*
X89228129Y-33310505D01*
X89295852Y-33274306D01*
X89315364Y-33268387D01*
X89493969Y-33214207D01*
X89700000Y-33193915D01*
X89906032Y-33214207D01*
X89906032Y-33214207D01*
G37*
G36*
X52798500Y-32451000D02*
G01*
X51450999Y-32451000D01*
X51426613Y-32453402D01*
X51403164Y-32460515D01*
X51381553Y-32472066D01*
X51362611Y-32487611D01*
X51347066Y-32506553D01*
X51335515Y-32528164D01*
X51328402Y-32551613D01*
X51326000Y-32575999D01*
X51326000Y-33244001D01*
X51328402Y-33268387D01*
X51335515Y-33291836D01*
X51347066Y-33313447D01*
X51362611Y-33332389D01*
X51381553Y-33347934D01*
X51403164Y-33359485D01*
X51426613Y-33366598D01*
X51450999Y-33369000D01*
X54549001Y-33369000D01*
X54573387Y-33366598D01*
X54596836Y-33359485D01*
X54618447Y-33347934D01*
X54637389Y-33332389D01*
X54652934Y-33313447D01*
X54664485Y-33291836D01*
X54671598Y-33268387D01*
X54674000Y-33244001D01*
X54674000Y-32575999D01*
X54671598Y-32551613D01*
X54664485Y-32528164D01*
X54652934Y-32506553D01*
X54637389Y-32487611D01*
X54618447Y-32472066D01*
X54596836Y-32460515D01*
X54573387Y-32453402D01*
X54549001Y-32451000D01*
X53201500Y-32451000D01*
X53201500Y-30449000D01*
X57148500Y-30449000D01*
X57148500Y-32451000D01*
X56375999Y-32451000D01*
X56351613Y-32453402D01*
X56328164Y-32460515D01*
X56306553Y-32472066D01*
X56287611Y-32487611D01*
X56272066Y-32506553D01*
X56260515Y-32528164D01*
X56253402Y-32551613D01*
X56251000Y-32575999D01*
X56251000Y-34851000D01*
X49749000Y-34851000D01*
X49749000Y-32575999D01*
X49746598Y-32551613D01*
X49739485Y-32528164D01*
X49727934Y-32506553D01*
X49712389Y-32487611D01*
X49693447Y-32472066D01*
X49671836Y-32460515D01*
X49648387Y-32453402D01*
X49624001Y-32451000D01*
X48851500Y-32451000D01*
X48851500Y-30449000D01*
X52798500Y-30449000D01*
X52798500Y-32451000D01*
X52798500Y-32451000D01*
G37*
G36*
X72901000Y-34601000D02*
G01*
X71899000Y-34601000D01*
X71899000Y-33699000D01*
X72901000Y-33699000D01*
X72901000Y-34601000D01*
X72901000Y-34601000D01*
G37*
G36*
X75301000Y-34601000D02*
G01*
X74299000Y-34601000D01*
X74299000Y-33699000D01*
X75301000Y-33699000D01*
X75301000Y-34601000D01*
X75301000Y-34601000D01*
G37*
G36*
X85594072Y-31700918D02*
G01*
X85839939Y-31802759D01*
X85951328Y-31877187D01*
X86061211Y-31950609D01*
X86249391Y-32138789D01*
X86397242Y-32360063D01*
X86499082Y-32605928D01*
X86551000Y-32866937D01*
X86551000Y-33133063D01*
X86508259Y-33347934D01*
X86499082Y-33394072D01*
X86397241Y-33639939D01*
X86249390Y-33861212D01*
X86061212Y-34049390D01*
X85839939Y-34197241D01*
X85839938Y-34197242D01*
X85839937Y-34197242D01*
X85594072Y-34299082D01*
X85333063Y-34351000D01*
X85066937Y-34351000D01*
X84805928Y-34299082D01*
X84560063Y-34197242D01*
X84560062Y-34197242D01*
X84560061Y-34197241D01*
X84338788Y-34049390D01*
X84150610Y-33861212D01*
X84002759Y-33639939D01*
X83900918Y-33394072D01*
X83891741Y-33347934D01*
X83849000Y-33133063D01*
X83849000Y-32866937D01*
X83900918Y-32605928D01*
X84002758Y-32360063D01*
X84150609Y-32138789D01*
X84338789Y-31950609D01*
X84448672Y-31877187D01*
X84560061Y-31802759D01*
X84805928Y-31700918D01*
X85066937Y-31649000D01*
X85333063Y-31649000D01*
X85594072Y-31700918D01*
X85594072Y-31700918D01*
G37*
G36*
X70901000Y-33651000D02*
G01*
X69899000Y-33651000D01*
X69899000Y-32749000D01*
X70901000Y-32749000D01*
X70901000Y-33651000D01*
X70901000Y-33651000D01*
G37*
G36*
X77301000Y-33651000D02*
G01*
X76299000Y-33651000D01*
X76299000Y-32749000D01*
X77301000Y-32749000D01*
X77301000Y-33651000D01*
X77301000Y-33651000D01*
G37*
G36*
X72901000Y-32701000D02*
G01*
X71899000Y-32701000D01*
X71899000Y-31799000D01*
X72901000Y-31799000D01*
X72901000Y-32701000D01*
X72901000Y-32701000D01*
G37*
G36*
X75301000Y-32701000D02*
G01*
X74299000Y-32701000D01*
X74299000Y-31799000D01*
X75301000Y-31799000D01*
X75301000Y-32701000D01*
X75301000Y-32701000D01*
G37*
G36*
X39446000Y-32651000D02*
G01*
X37794000Y-32651000D01*
X37794000Y-31249000D01*
X39446000Y-31249000D01*
X39446000Y-32651000D01*
X39446000Y-32651000D01*
G37*
G36*
X47406000Y-32651000D02*
G01*
X45754000Y-32651000D01*
X45754000Y-31249000D01*
X47406000Y-31249000D01*
X47406000Y-32651000D01*
X47406000Y-32651000D01*
G37*
G36*
X60246000Y-32651000D02*
G01*
X58594000Y-32651000D01*
X58594000Y-31249000D01*
X60246000Y-31249000D01*
X60246000Y-32651000D01*
X60246000Y-32651000D01*
G37*
G36*
X68206000Y-32651000D02*
G01*
X66554000Y-32651000D01*
X66554000Y-31249000D01*
X68206000Y-31249000D01*
X68206000Y-32651000D01*
X68206000Y-32651000D01*
G37*
M02*
