G04 #@! TF.GenerationSoftware,KiCad,Pcbnew,(5.1.2)-2*
G04 #@! TF.CreationDate,2019-07-30T15:22:38+02:00*
G04 #@! TF.ProjectId,main_controller,6d61696e-5f63-46f6-9e74-726f6c6c6572,1*
G04 #@! TF.SameCoordinates,Original*
G04 #@! TF.FileFunction,Legend,Top*
G04 #@! TF.FilePolarity,Positive*
%FSLAX46Y46*%
G04 Gerber Fmt 4.6, Leading zero omitted, Abs format (unit mm)*
G04 Created by KiCad (PCBNEW (5.1.2)-2) date 2019-07-30 15:22:38*
%MOMM*%
%LPD*%
G04 APERTURE LIST*
%ADD10C,0.300000*%
%ADD11C,0.150000*%
%ADD12C,0.120000*%
%ADD13C,0.200000*%
%ADD14C,0.100000*%
%ADD15C,0.010000*%
G04 APERTURE END LIST*
D10*
X54771428Y-52178571D02*
X54771428Y-53250000D01*
X54700000Y-53464285D01*
X54557142Y-53607142D01*
X54342857Y-53678571D01*
X54200000Y-53678571D01*
X56200000Y-53678571D02*
X55485714Y-53678571D01*
X55485714Y-52178571D01*
X57557142Y-53535714D02*
X57485714Y-53607142D01*
X57271428Y-53678571D01*
X57128571Y-53678571D01*
X56914285Y-53607142D01*
X56771428Y-53464285D01*
X56700000Y-53321428D01*
X56628571Y-53035714D01*
X56628571Y-52821428D01*
X56700000Y-52535714D01*
X56771428Y-52392857D01*
X56914285Y-52250000D01*
X57128571Y-52178571D01*
X57271428Y-52178571D01*
X57485714Y-52250000D01*
X57557142Y-52321428D01*
X58628571Y-52178571D02*
X58628571Y-53250000D01*
X58557142Y-53464285D01*
X58414285Y-53607142D01*
X58200000Y-53678571D01*
X58057142Y-53678571D01*
X60057142Y-53678571D02*
X59342857Y-53678571D01*
X59342857Y-52178571D01*
X61414285Y-53535714D02*
X61342857Y-53607142D01*
X61128571Y-53678571D01*
X60985714Y-53678571D01*
X60771428Y-53607142D01*
X60628571Y-53464285D01*
X60557142Y-53321428D01*
X60485714Y-53035714D01*
X60485714Y-52821428D01*
X60557142Y-52535714D01*
X60628571Y-52392857D01*
X60771428Y-52250000D01*
X60985714Y-52178571D01*
X61128571Y-52178571D01*
X61342857Y-52250000D01*
X61414285Y-52321428D01*
X62485714Y-52178571D02*
X62485714Y-53250000D01*
X62414285Y-53464285D01*
X62271428Y-53607142D01*
X62057142Y-53678571D01*
X61914285Y-53678571D01*
X63914285Y-53678571D02*
X63200000Y-53678571D01*
X63200000Y-52178571D01*
X65271428Y-53535714D02*
X65200000Y-53607142D01*
X64985714Y-53678571D01*
X64842857Y-53678571D01*
X64628571Y-53607142D01*
X64485714Y-53464285D01*
X64414285Y-53321428D01*
X64342857Y-53035714D01*
X64342857Y-52821428D01*
X64414285Y-52535714D01*
X64485714Y-52392857D01*
X64628571Y-52250000D01*
X64842857Y-52178571D01*
X64985714Y-52178571D01*
X65200000Y-52250000D01*
X65271428Y-52321428D01*
X66342857Y-52178571D02*
X66342857Y-53250000D01*
X66271428Y-53464285D01*
X66128571Y-53607142D01*
X65914285Y-53678571D01*
X65771428Y-53678571D01*
X67771428Y-53678571D02*
X67057142Y-53678571D01*
X67057142Y-52178571D01*
X69128571Y-53535714D02*
X69057142Y-53607142D01*
X68842857Y-53678571D01*
X68700000Y-53678571D01*
X68485714Y-53607142D01*
X68342857Y-53464285D01*
X68271428Y-53321428D01*
X68200000Y-53035714D01*
X68200000Y-52821428D01*
X68271428Y-52535714D01*
X68342857Y-52392857D01*
X68485714Y-52250000D01*
X68700000Y-52178571D01*
X68842857Y-52178571D01*
X69057142Y-52250000D01*
X69128571Y-52321428D01*
D11*
X40814285Y-38852380D02*
X40814285Y-37852380D01*
X41195238Y-37852380D01*
X41290476Y-37900000D01*
X41338095Y-37947619D01*
X41385714Y-38042857D01*
X41385714Y-38185714D01*
X41338095Y-38280952D01*
X41290476Y-38328571D01*
X41195238Y-38376190D01*
X40814285Y-38376190D01*
X42385714Y-38852380D02*
X42052380Y-38376190D01*
X41814285Y-38852380D02*
X41814285Y-37852380D01*
X42195238Y-37852380D01*
X42290476Y-37900000D01*
X42338095Y-37947619D01*
X42385714Y-38042857D01*
X42385714Y-38185714D01*
X42338095Y-38280952D01*
X42290476Y-38328571D01*
X42195238Y-38376190D01*
X41814285Y-38376190D01*
X43004761Y-37852380D02*
X43195238Y-37852380D01*
X43290476Y-37900000D01*
X43385714Y-37995238D01*
X43433333Y-38185714D01*
X43433333Y-38519047D01*
X43385714Y-38709523D01*
X43290476Y-38804761D01*
X43195238Y-38852380D01*
X43004761Y-38852380D01*
X42909523Y-38804761D01*
X42814285Y-38709523D01*
X42766666Y-38519047D01*
X42766666Y-38185714D01*
X42814285Y-37995238D01*
X42909523Y-37900000D01*
X43004761Y-37852380D01*
X44385714Y-37900000D02*
X44290476Y-37852380D01*
X44147619Y-37852380D01*
X44004761Y-37900000D01*
X43909523Y-37995238D01*
X43861904Y-38090476D01*
X43814285Y-38280952D01*
X43814285Y-38423809D01*
X43861904Y-38614285D01*
X43909523Y-38709523D01*
X44004761Y-38804761D01*
X44147619Y-38852380D01*
X44242857Y-38852380D01*
X44385714Y-38804761D01*
X44433333Y-38757142D01*
X44433333Y-38423809D01*
X44242857Y-38423809D01*
X61947619Y-38852380D02*
X61614285Y-38376190D01*
X61376190Y-38852380D02*
X61376190Y-37852380D01*
X61757142Y-37852380D01*
X61852380Y-37900000D01*
X61900000Y-37947619D01*
X61947619Y-38042857D01*
X61947619Y-38185714D01*
X61900000Y-38280952D01*
X61852380Y-38328571D01*
X61757142Y-38376190D01*
X61376190Y-38376190D01*
X62376190Y-38328571D02*
X62709523Y-38328571D01*
X62852380Y-38852380D02*
X62376190Y-38852380D01*
X62376190Y-37852380D01*
X62852380Y-37852380D01*
X63233333Y-38804761D02*
X63376190Y-38852380D01*
X63614285Y-38852380D01*
X63709523Y-38804761D01*
X63757142Y-38757142D01*
X63804761Y-38661904D01*
X63804761Y-38566666D01*
X63757142Y-38471428D01*
X63709523Y-38423809D01*
X63614285Y-38376190D01*
X63423809Y-38328571D01*
X63328571Y-38280952D01*
X63280952Y-38233333D01*
X63233333Y-38138095D01*
X63233333Y-38042857D01*
X63280952Y-37947619D01*
X63328571Y-37900000D01*
X63423809Y-37852380D01*
X63661904Y-37852380D01*
X63804761Y-37900000D01*
X64233333Y-38328571D02*
X64566666Y-38328571D01*
X64709523Y-38852380D02*
X64233333Y-38852380D01*
X64233333Y-37852380D01*
X64709523Y-37852380D01*
X64995238Y-37852380D02*
X65566666Y-37852380D01*
X65280952Y-38852380D02*
X65280952Y-37852380D01*
X62121428Y-67802380D02*
X62692857Y-67802380D01*
X62407142Y-68802380D02*
X62407142Y-67802380D01*
X62930952Y-68135714D02*
X63169047Y-68802380D01*
X63407142Y-68135714D02*
X63169047Y-68802380D01*
X63073809Y-69040476D01*
X63026190Y-69088095D01*
X62930952Y-69135714D01*
X63788095Y-68135714D02*
X63788095Y-69135714D01*
X63788095Y-68183333D02*
X63883333Y-68135714D01*
X64073809Y-68135714D01*
X64169047Y-68183333D01*
X64216666Y-68230952D01*
X64264285Y-68326190D01*
X64264285Y-68611904D01*
X64216666Y-68707142D01*
X64169047Y-68754761D01*
X64073809Y-68802380D01*
X63883333Y-68802380D01*
X63788095Y-68754761D01*
X65073809Y-68754761D02*
X64978571Y-68802380D01*
X64788095Y-68802380D01*
X64692857Y-68754761D01*
X64645238Y-68659523D01*
X64645238Y-68278571D01*
X64692857Y-68183333D01*
X64788095Y-68135714D01*
X64978571Y-68135714D01*
X65073809Y-68183333D01*
X65121428Y-68278571D01*
X65121428Y-68373809D01*
X64645238Y-68469047D01*
X66645238Y-68278571D02*
X66788095Y-68326190D01*
X66835714Y-68373809D01*
X66883333Y-68469047D01*
X66883333Y-68611904D01*
X66835714Y-68707142D01*
X66788095Y-68754761D01*
X66692857Y-68802380D01*
X66311904Y-68802380D01*
X66311904Y-67802380D01*
X66645238Y-67802380D01*
X66740476Y-67850000D01*
X66788095Y-67897619D01*
X66835714Y-67992857D01*
X66835714Y-68088095D01*
X66788095Y-68183333D01*
X66740476Y-68230952D01*
X66645238Y-68278571D01*
X66311904Y-68278571D01*
X32297619Y-61892857D02*
X32297619Y-62464285D01*
X31297619Y-62178571D02*
X32297619Y-62178571D01*
X31964285Y-62702380D02*
X31297619Y-62940476D01*
X31964285Y-63178571D02*
X31297619Y-62940476D01*
X31059523Y-62845238D01*
X31011904Y-62797619D01*
X30964285Y-62702380D01*
X31964285Y-63559523D02*
X30964285Y-63559523D01*
X31916666Y-63559523D02*
X31964285Y-63654761D01*
X31964285Y-63845238D01*
X31916666Y-63940476D01*
X31869047Y-63988095D01*
X31773809Y-64035714D01*
X31488095Y-64035714D01*
X31392857Y-63988095D01*
X31345238Y-63940476D01*
X31297619Y-63845238D01*
X31297619Y-63654761D01*
X31345238Y-63559523D01*
X31345238Y-64845238D02*
X31297619Y-64750000D01*
X31297619Y-64559523D01*
X31345238Y-64464285D01*
X31440476Y-64416666D01*
X31821428Y-64416666D01*
X31916666Y-64464285D01*
X31964285Y-64559523D01*
X31964285Y-64750000D01*
X31916666Y-64845238D01*
X31821428Y-64892857D01*
X31726190Y-64892857D01*
X31630952Y-64416666D01*
X31583333Y-66035714D02*
X31583333Y-66511904D01*
X31297619Y-65940476D02*
X32297619Y-66273809D01*
X31297619Y-66607142D01*
D12*
X86200000Y-43300000D02*
X84200000Y-43300000D01*
X90310000Y-29890000D02*
X90310000Y-32950000D01*
X80090000Y-29890000D02*
X90310000Y-29890000D01*
X80090000Y-32950000D02*
X80090000Y-29890000D01*
X80090000Y-43110000D02*
X80090000Y-37050000D01*
X82900000Y-43110000D02*
X80090000Y-43110000D01*
X90310000Y-43110000D02*
X87500000Y-43110000D01*
X90310000Y-37050000D02*
X90310000Y-43110000D01*
X91100000Y-51850000D02*
G75*
G03X90400000Y-51150000I-700000J0D01*
G01*
X89800000Y-51150000D02*
G75*
G03X89100000Y-51850000I0J-700000D01*
G01*
X89100000Y-54550000D02*
G75*
G03X89800000Y-55250000I700000J0D01*
G01*
X90400000Y-55250000D02*
G75*
G03X91100000Y-54550000I0J700000D01*
G01*
X91100000Y-51800000D02*
X91100000Y-54600000D01*
X90400000Y-55250000D02*
X89800000Y-55250000D01*
X89100000Y-54600000D02*
X89100000Y-51800000D01*
X89800000Y-51150000D02*
X90400000Y-51150000D01*
X85150000Y-59900000D02*
X85150000Y-60500000D01*
X81700000Y-59200000D02*
X84500000Y-59200000D01*
X81050000Y-60500000D02*
X81050000Y-59900000D01*
X84500000Y-61200000D02*
X81700000Y-61200000D01*
X81050000Y-60500000D02*
G75*
G03X81750000Y-61200000I700000J0D01*
G01*
X81750000Y-59200000D02*
G75*
G03X81050000Y-59900000I0J-700000D01*
G01*
X85150000Y-59900000D02*
G75*
G03X84450000Y-59200000I-700000J0D01*
G01*
X84450000Y-61200000D02*
G75*
G03X85150000Y-60500000I0J700000D01*
G01*
D13*
X43400000Y-53500000D02*
X42400000Y-52500000D01*
X42400000Y-52500000D02*
X42600000Y-53200000D01*
X42400000Y-52500000D02*
X43100000Y-52700000D01*
X41100000Y-53000000D02*
X41800000Y-53200000D01*
X41100000Y-53000000D02*
X41300000Y-53700000D01*
X42100000Y-54000000D02*
X41100000Y-53000000D01*
X42600000Y-55150000D02*
X41400000Y-55150000D01*
D12*
X42600000Y-56150000D02*
X42600000Y-55150000D01*
D13*
X42600000Y-54150000D02*
X42600000Y-56150000D01*
X42600000Y-55150000D02*
X44600000Y-56150000D01*
X44600000Y-54150000D02*
X42600000Y-55150000D01*
X44600000Y-56150000D02*
X44600000Y-54150000D01*
X45800000Y-55150000D02*
X44600000Y-55150000D01*
D12*
X48900000Y-59300000D02*
X48400000Y-59800000D01*
X48150000Y-59300000D02*
X47650000Y-59800000D01*
X47400000Y-59300000D02*
X46900000Y-59800000D01*
X45150000Y-59300000D02*
X44650000Y-59800000D01*
X44400000Y-59300000D02*
X43900000Y-59800000D01*
X45900000Y-59300000D02*
X45400000Y-59800000D01*
X43650000Y-59300000D02*
X43150000Y-59800000D01*
X46650000Y-59300000D02*
X46150000Y-59800000D01*
X46900000Y-55300000D02*
G75*
G03X48150000Y-56550000I1250000J0D01*
G01*
X49400000Y-57800000D02*
G75*
G03X48150000Y-56550000I-1250000J0D01*
G01*
X46900000Y-55300000D02*
G75*
G03X39400000Y-55300000I-3750000J0D01*
G01*
X49400000Y-59800000D02*
X49400000Y-57800000D01*
X48900000Y-59800000D02*
X49400000Y-59800000D01*
X39400000Y-59800000D02*
X39400000Y-55300000D01*
X39900000Y-59800000D02*
X39400000Y-59800000D01*
D14*
G36*
X47650000Y-60800000D02*
G01*
X47650000Y-59800000D01*
X48150000Y-59800000D01*
X48150000Y-60800000D01*
X47650000Y-60800000D01*
G37*
X47650000Y-60800000D02*
X47650000Y-59800000D01*
X48150000Y-59800000D01*
X48150000Y-60800000D01*
X47650000Y-60800000D01*
G36*
X46650000Y-60800000D02*
G01*
X46650000Y-59800000D01*
X47150000Y-59800000D01*
X47150000Y-60800000D01*
X46650000Y-60800000D01*
G37*
X46650000Y-60800000D02*
X46650000Y-59800000D01*
X47150000Y-59800000D01*
X47150000Y-60800000D01*
X46650000Y-60800000D01*
G36*
X45150000Y-60800000D02*
G01*
X45150000Y-59800000D01*
X45650000Y-59800000D01*
X45650000Y-60800000D01*
X45150000Y-60800000D01*
G37*
X45150000Y-60800000D02*
X45150000Y-59800000D01*
X45650000Y-59800000D01*
X45650000Y-60800000D01*
X45150000Y-60800000D01*
G36*
X44150000Y-60800000D02*
G01*
X44150000Y-59800000D01*
X44650000Y-59800000D01*
X44650000Y-60800000D01*
X44150000Y-60800000D01*
G37*
X44150000Y-60800000D02*
X44150000Y-59800000D01*
X44650000Y-59800000D01*
X44650000Y-60800000D01*
X44150000Y-60800000D01*
G36*
X43150000Y-60800000D02*
G01*
X43150000Y-59800000D01*
X43650000Y-59800000D01*
X43650000Y-60800000D01*
X43150000Y-60800000D01*
G37*
X43150000Y-60800000D02*
X43150000Y-59800000D01*
X43650000Y-59800000D01*
X43650000Y-60800000D01*
X43150000Y-60800000D01*
G36*
X41650000Y-60800000D02*
G01*
X41650000Y-59800000D01*
X42150000Y-59800000D01*
X42150000Y-60800000D01*
X41650000Y-60800000D01*
G37*
X41650000Y-60800000D02*
X41650000Y-59800000D01*
X42150000Y-59800000D01*
X42150000Y-60800000D01*
X41650000Y-60800000D01*
G36*
X40650000Y-60800000D02*
G01*
X40650000Y-59800000D01*
X41150000Y-59800000D01*
X41150000Y-60800000D01*
X40650000Y-60800000D01*
G37*
X40650000Y-60800000D02*
X40650000Y-59800000D01*
X41150000Y-59800000D01*
X41150000Y-60800000D01*
X40650000Y-60800000D01*
D12*
X48900000Y-61300000D02*
X48900000Y-59800000D01*
X39900000Y-61300000D02*
X48900000Y-61300000D01*
X39900000Y-59800000D02*
X39900000Y-61300000D01*
X48900000Y-59800000D02*
X39900000Y-59800000D01*
X39900000Y-59300000D02*
X39400000Y-59800000D01*
X40650000Y-59300000D02*
X40150000Y-59800000D01*
X41400000Y-59300000D02*
X40900000Y-59800000D01*
X42150000Y-59300000D02*
X41650000Y-59800000D01*
X42900000Y-59300000D02*
X42400000Y-59800000D01*
X51800000Y-39780000D02*
X51180000Y-39780000D01*
X51180000Y-39780000D02*
X51180000Y-40780000D01*
X51800000Y-58020000D02*
X51180000Y-58020000D01*
X51180000Y-58020000D02*
X51180000Y-57020000D01*
X70620000Y-39780000D02*
X70620000Y-58020000D01*
X70620000Y-58020000D02*
X70200000Y-58020000D01*
X70620000Y-39780000D02*
X70200000Y-39780000D01*
X70200000Y-39780000D02*
X70200000Y-39400000D01*
D15*
G36*
X39168886Y-50084505D02*
G01*
X39243539Y-50121727D01*
X39309431Y-50190261D01*
X39327577Y-50215648D01*
X39347345Y-50248866D01*
X39360172Y-50284945D01*
X39367510Y-50333098D01*
X39370813Y-50402536D01*
X39371538Y-50494206D01*
X39368263Y-50619830D01*
X39356877Y-50714154D01*
X39335041Y-50784523D01*
X39300419Y-50838286D01*
X39250670Y-50882788D01*
X39247014Y-50885423D01*
X39197985Y-50912377D01*
X39138945Y-50925712D01*
X39063859Y-50929000D01*
X38941795Y-50929000D01*
X38941744Y-51047497D01*
X38940608Y-51113492D01*
X38933686Y-51152202D01*
X38915598Y-51175419D01*
X38880962Y-51194933D01*
X38872645Y-51198920D01*
X38833720Y-51217603D01*
X38803583Y-51229403D01*
X38781174Y-51230422D01*
X38765433Y-51216761D01*
X38755302Y-51184522D01*
X38749723Y-51129804D01*
X38747635Y-51048711D01*
X38747981Y-50937344D01*
X38749700Y-50791802D01*
X38750237Y-50748269D01*
X38752172Y-50598205D01*
X38753904Y-50500042D01*
X38941692Y-50500042D01*
X38942748Y-50583364D01*
X38947438Y-50637880D01*
X38958051Y-50673837D01*
X38976872Y-50701482D01*
X38989650Y-50714965D01*
X39041890Y-50754417D01*
X39088142Y-50757628D01*
X39135867Y-50725049D01*
X39137077Y-50723846D01*
X39156494Y-50698668D01*
X39168307Y-50664447D01*
X39174265Y-50611748D01*
X39176120Y-50531131D01*
X39176154Y-50513271D01*
X39171670Y-50402175D01*
X39157074Y-50325161D01*
X39130650Y-50278147D01*
X39090683Y-50257050D01*
X39067584Y-50254923D01*
X39012762Y-50264900D01*
X38975158Y-50297752D01*
X38952523Y-50357857D01*
X38942606Y-50449598D01*
X38941692Y-50500042D01*
X38753904Y-50500042D01*
X38754222Y-50482060D01*
X38756873Y-50394679D01*
X38760606Y-50330905D01*
X38765907Y-50285582D01*
X38773258Y-50253555D01*
X38783143Y-50229668D01*
X38796046Y-50208764D01*
X38801579Y-50200898D01*
X38874969Y-50126595D01*
X38967760Y-50084467D01*
X39075096Y-50072722D01*
X39168886Y-50084505D01*
X39168886Y-50084505D01*
G37*
X39168886Y-50084505D02*
X39243539Y-50121727D01*
X39309431Y-50190261D01*
X39327577Y-50215648D01*
X39347345Y-50248866D01*
X39360172Y-50284945D01*
X39367510Y-50333098D01*
X39370813Y-50402536D01*
X39371538Y-50494206D01*
X39368263Y-50619830D01*
X39356877Y-50714154D01*
X39335041Y-50784523D01*
X39300419Y-50838286D01*
X39250670Y-50882788D01*
X39247014Y-50885423D01*
X39197985Y-50912377D01*
X39138945Y-50925712D01*
X39063859Y-50929000D01*
X38941795Y-50929000D01*
X38941744Y-51047497D01*
X38940608Y-51113492D01*
X38933686Y-51152202D01*
X38915598Y-51175419D01*
X38880962Y-51194933D01*
X38872645Y-51198920D01*
X38833720Y-51217603D01*
X38803583Y-51229403D01*
X38781174Y-51230422D01*
X38765433Y-51216761D01*
X38755302Y-51184522D01*
X38749723Y-51129804D01*
X38747635Y-51048711D01*
X38747981Y-50937344D01*
X38749700Y-50791802D01*
X38750237Y-50748269D01*
X38752172Y-50598205D01*
X38753904Y-50500042D01*
X38941692Y-50500042D01*
X38942748Y-50583364D01*
X38947438Y-50637880D01*
X38958051Y-50673837D01*
X38976872Y-50701482D01*
X38989650Y-50714965D01*
X39041890Y-50754417D01*
X39088142Y-50757628D01*
X39135867Y-50725049D01*
X39137077Y-50723846D01*
X39156494Y-50698668D01*
X39168307Y-50664447D01*
X39174265Y-50611748D01*
X39176120Y-50531131D01*
X39176154Y-50513271D01*
X39171670Y-50402175D01*
X39157074Y-50325161D01*
X39130650Y-50278147D01*
X39090683Y-50257050D01*
X39067584Y-50254923D01*
X39012762Y-50264900D01*
X38975158Y-50297752D01*
X38952523Y-50357857D01*
X38942606Y-50449598D01*
X38941692Y-50500042D01*
X38753904Y-50500042D01*
X38754222Y-50482060D01*
X38756873Y-50394679D01*
X38760606Y-50330905D01*
X38765907Y-50285582D01*
X38773258Y-50253555D01*
X38783143Y-50229668D01*
X38796046Y-50208764D01*
X38801579Y-50200898D01*
X38874969Y-50126595D01*
X38967760Y-50084467D01*
X39075096Y-50072722D01*
X39168886Y-50084505D01*
G36*
X40671664Y-50095089D02*
G01*
X40734367Y-50131358D01*
X40777961Y-50167358D01*
X40809845Y-50205075D01*
X40831810Y-50251199D01*
X40845649Y-50312421D01*
X40853153Y-50395431D01*
X40856117Y-50506919D01*
X40856461Y-50587062D01*
X40856461Y-50882065D01*
X40690385Y-50956515D01*
X40680615Y-50633402D01*
X40676579Y-50512729D01*
X40672344Y-50425141D01*
X40667097Y-50364650D01*
X40660025Y-50325268D01*
X40650311Y-50301007D01*
X40637144Y-50285880D01*
X40632919Y-50282606D01*
X40568909Y-50257034D01*
X40504208Y-50267153D01*
X40465692Y-50294000D01*
X40450025Y-50313024D01*
X40439180Y-50337988D01*
X40432288Y-50375834D01*
X40428479Y-50433502D01*
X40426883Y-50517935D01*
X40426615Y-50605928D01*
X40426563Y-50716323D01*
X40424672Y-50794463D01*
X40418345Y-50847165D01*
X40404983Y-50881242D01*
X40381985Y-50903511D01*
X40346754Y-50920787D01*
X40299697Y-50938738D01*
X40248303Y-50958278D01*
X40254421Y-50611485D01*
X40256884Y-50486468D01*
X40259767Y-50394082D01*
X40263898Y-50327881D01*
X40270107Y-50281420D01*
X40279226Y-50248256D01*
X40292083Y-50221944D01*
X40307584Y-50198729D01*
X40382371Y-50124569D01*
X40473628Y-50081684D01*
X40572883Y-50071412D01*
X40671664Y-50095089D01*
X40671664Y-50095089D01*
G37*
X40671664Y-50095089D02*
X40734367Y-50131358D01*
X40777961Y-50167358D01*
X40809845Y-50205075D01*
X40831810Y-50251199D01*
X40845649Y-50312421D01*
X40853153Y-50395431D01*
X40856117Y-50506919D01*
X40856461Y-50587062D01*
X40856461Y-50882065D01*
X40690385Y-50956515D01*
X40680615Y-50633402D01*
X40676579Y-50512729D01*
X40672344Y-50425141D01*
X40667097Y-50364650D01*
X40660025Y-50325268D01*
X40650311Y-50301007D01*
X40637144Y-50285880D01*
X40632919Y-50282606D01*
X40568909Y-50257034D01*
X40504208Y-50267153D01*
X40465692Y-50294000D01*
X40450025Y-50313024D01*
X40439180Y-50337988D01*
X40432288Y-50375834D01*
X40428479Y-50433502D01*
X40426883Y-50517935D01*
X40426615Y-50605928D01*
X40426563Y-50716323D01*
X40424672Y-50794463D01*
X40418345Y-50847165D01*
X40404983Y-50881242D01*
X40381985Y-50903511D01*
X40346754Y-50920787D01*
X40299697Y-50938738D01*
X40248303Y-50958278D01*
X40254421Y-50611485D01*
X40256884Y-50486468D01*
X40259767Y-50394082D01*
X40263898Y-50327881D01*
X40270107Y-50281420D01*
X40279226Y-50248256D01*
X40292083Y-50221944D01*
X40307584Y-50198729D01*
X40382371Y-50124569D01*
X40473628Y-50081684D01*
X40572883Y-50071412D01*
X40671664Y-50095089D01*
G36*
X38416886Y-50087256D02*
G01*
X38508464Y-50135409D01*
X38576049Y-50212905D01*
X38600057Y-50262727D01*
X38618738Y-50337533D01*
X38628301Y-50432052D01*
X38629208Y-50535210D01*
X38621921Y-50635935D01*
X38606903Y-50723153D01*
X38584615Y-50785791D01*
X38577765Y-50796579D01*
X38496632Y-50877105D01*
X38400266Y-50925336D01*
X38295701Y-50939450D01*
X38189968Y-50917629D01*
X38160543Y-50904547D01*
X38103241Y-50864231D01*
X38052950Y-50810775D01*
X38048197Y-50803995D01*
X38028878Y-50771321D01*
X38016108Y-50736394D01*
X38008564Y-50690414D01*
X38004924Y-50624584D01*
X38003865Y-50530105D01*
X38003846Y-50508923D01*
X38003894Y-50502182D01*
X38199231Y-50502182D01*
X38200368Y-50591349D01*
X38204841Y-50650520D01*
X38214246Y-50688741D01*
X38230176Y-50715053D01*
X38238308Y-50723846D01*
X38285058Y-50757261D01*
X38330447Y-50755737D01*
X38376340Y-50726752D01*
X38403712Y-50695809D01*
X38419923Y-50650643D01*
X38429026Y-50579420D01*
X38429651Y-50571114D01*
X38431204Y-50442037D01*
X38414965Y-50346172D01*
X38381152Y-50284107D01*
X38329984Y-50256432D01*
X38311720Y-50254923D01*
X38263760Y-50262513D01*
X38230953Y-50288808D01*
X38210895Y-50339095D01*
X38201178Y-50418664D01*
X38199231Y-50502182D01*
X38003894Y-50502182D01*
X38004574Y-50408249D01*
X38007629Y-50337906D01*
X38014322Y-50289163D01*
X38025960Y-50253288D01*
X38043853Y-50221548D01*
X38047808Y-50215648D01*
X38114267Y-50136104D01*
X38186685Y-50089929D01*
X38274849Y-50071599D01*
X38304787Y-50070703D01*
X38416886Y-50087256D01*
X38416886Y-50087256D01*
G37*
X38416886Y-50087256D02*
X38508464Y-50135409D01*
X38576049Y-50212905D01*
X38600057Y-50262727D01*
X38618738Y-50337533D01*
X38628301Y-50432052D01*
X38629208Y-50535210D01*
X38621921Y-50635935D01*
X38606903Y-50723153D01*
X38584615Y-50785791D01*
X38577765Y-50796579D01*
X38496632Y-50877105D01*
X38400266Y-50925336D01*
X38295701Y-50939450D01*
X38189968Y-50917629D01*
X38160543Y-50904547D01*
X38103241Y-50864231D01*
X38052950Y-50810775D01*
X38048197Y-50803995D01*
X38028878Y-50771321D01*
X38016108Y-50736394D01*
X38008564Y-50690414D01*
X38004924Y-50624584D01*
X38003865Y-50530105D01*
X38003846Y-50508923D01*
X38003894Y-50502182D01*
X38199231Y-50502182D01*
X38200368Y-50591349D01*
X38204841Y-50650520D01*
X38214246Y-50688741D01*
X38230176Y-50715053D01*
X38238308Y-50723846D01*
X38285058Y-50757261D01*
X38330447Y-50755737D01*
X38376340Y-50726752D01*
X38403712Y-50695809D01*
X38419923Y-50650643D01*
X38429026Y-50579420D01*
X38429651Y-50571114D01*
X38431204Y-50442037D01*
X38414965Y-50346172D01*
X38381152Y-50284107D01*
X38329984Y-50256432D01*
X38311720Y-50254923D01*
X38263760Y-50262513D01*
X38230953Y-50288808D01*
X38210895Y-50339095D01*
X38201178Y-50418664D01*
X38199231Y-50502182D01*
X38003894Y-50502182D01*
X38004574Y-50408249D01*
X38007629Y-50337906D01*
X38014322Y-50289163D01*
X38025960Y-50253288D01*
X38043853Y-50221548D01*
X38047808Y-50215648D01*
X38114267Y-50136104D01*
X38186685Y-50089929D01*
X38274849Y-50071599D01*
X38304787Y-50070703D01*
X38416886Y-50087256D01*
G36*
X39934254Y-50099745D02*
G01*
X40011286Y-50151567D01*
X40070816Y-50226412D01*
X40106378Y-50321654D01*
X40113571Y-50391756D01*
X40112754Y-50421009D01*
X40105914Y-50443407D01*
X40087112Y-50463474D01*
X40050408Y-50485733D01*
X39989862Y-50514709D01*
X39899534Y-50554927D01*
X39899077Y-50555129D01*
X39815933Y-50593210D01*
X39747753Y-50627025D01*
X39701505Y-50652933D01*
X39684158Y-50667295D01*
X39684154Y-50667411D01*
X39699443Y-50698685D01*
X39735196Y-50733157D01*
X39776242Y-50757990D01*
X39797037Y-50762923D01*
X39853770Y-50745862D01*
X39902627Y-50703133D01*
X39926465Y-50656155D01*
X39949397Y-50621522D01*
X39994318Y-50582081D01*
X40047123Y-50548009D01*
X40093710Y-50529480D01*
X40103452Y-50528462D01*
X40114418Y-50545215D01*
X40115079Y-50588039D01*
X40107020Y-50645781D01*
X40091827Y-50707289D01*
X40071086Y-50761409D01*
X40070038Y-50763510D01*
X40007621Y-50850660D01*
X39926726Y-50909939D01*
X39834856Y-50939034D01*
X39739513Y-50935634D01*
X39648198Y-50897428D01*
X39644138Y-50894741D01*
X39572306Y-50829642D01*
X39525073Y-50744705D01*
X39498934Y-50633021D01*
X39495426Y-50601643D01*
X39489213Y-50453536D01*
X39496661Y-50384468D01*
X39684154Y-50384468D01*
X39686590Y-50427552D01*
X39699914Y-50440126D01*
X39733132Y-50430719D01*
X39785494Y-50408483D01*
X39844024Y-50380610D01*
X39845479Y-50379872D01*
X39895089Y-50353777D01*
X39915000Y-50336363D01*
X39910090Y-50318107D01*
X39889416Y-50294120D01*
X39836819Y-50259406D01*
X39780177Y-50256856D01*
X39729369Y-50282119D01*
X39694276Y-50330847D01*
X39684154Y-50384468D01*
X39496661Y-50384468D01*
X39501992Y-50335036D01*
X39534778Y-50241055D01*
X39580421Y-50175215D01*
X39662802Y-50108681D01*
X39753546Y-50075676D01*
X39846185Y-50073573D01*
X39934254Y-50099745D01*
X39934254Y-50099745D01*
G37*
X39934254Y-50099745D02*
X40011286Y-50151567D01*
X40070816Y-50226412D01*
X40106378Y-50321654D01*
X40113571Y-50391756D01*
X40112754Y-50421009D01*
X40105914Y-50443407D01*
X40087112Y-50463474D01*
X40050408Y-50485733D01*
X39989862Y-50514709D01*
X39899534Y-50554927D01*
X39899077Y-50555129D01*
X39815933Y-50593210D01*
X39747753Y-50627025D01*
X39701505Y-50652933D01*
X39684158Y-50667295D01*
X39684154Y-50667411D01*
X39699443Y-50698685D01*
X39735196Y-50733157D01*
X39776242Y-50757990D01*
X39797037Y-50762923D01*
X39853770Y-50745862D01*
X39902627Y-50703133D01*
X39926465Y-50656155D01*
X39949397Y-50621522D01*
X39994318Y-50582081D01*
X40047123Y-50548009D01*
X40093710Y-50529480D01*
X40103452Y-50528462D01*
X40114418Y-50545215D01*
X40115079Y-50588039D01*
X40107020Y-50645781D01*
X40091827Y-50707289D01*
X40071086Y-50761409D01*
X40070038Y-50763510D01*
X40007621Y-50850660D01*
X39926726Y-50909939D01*
X39834856Y-50939034D01*
X39739513Y-50935634D01*
X39648198Y-50897428D01*
X39644138Y-50894741D01*
X39572306Y-50829642D01*
X39525073Y-50744705D01*
X39498934Y-50633021D01*
X39495426Y-50601643D01*
X39489213Y-50453536D01*
X39496661Y-50384468D01*
X39684154Y-50384468D01*
X39686590Y-50427552D01*
X39699914Y-50440126D01*
X39733132Y-50430719D01*
X39785494Y-50408483D01*
X39844024Y-50380610D01*
X39845479Y-50379872D01*
X39895089Y-50353777D01*
X39915000Y-50336363D01*
X39910090Y-50318107D01*
X39889416Y-50294120D01*
X39836819Y-50259406D01*
X39780177Y-50256856D01*
X39729369Y-50282119D01*
X39694276Y-50330847D01*
X39684154Y-50384468D01*
X39496661Y-50384468D01*
X39501992Y-50335036D01*
X39534778Y-50241055D01*
X39580421Y-50175215D01*
X39662802Y-50108681D01*
X39753546Y-50075676D01*
X39846185Y-50073573D01*
X39934254Y-50099745D01*
G36*
X41559846Y-49992120D02*
G01*
X41565572Y-50071980D01*
X41572149Y-50119039D01*
X41581262Y-50139566D01*
X41594598Y-50139829D01*
X41598923Y-50137378D01*
X41656444Y-50119636D01*
X41731268Y-50120672D01*
X41807339Y-50138910D01*
X41854918Y-50162505D01*
X41903702Y-50200198D01*
X41939364Y-50242855D01*
X41963845Y-50297057D01*
X41979087Y-50369384D01*
X41987030Y-50466419D01*
X41989616Y-50594742D01*
X41989662Y-50619358D01*
X41989692Y-50895870D01*
X41928161Y-50917320D01*
X41884459Y-50931912D01*
X41860482Y-50938706D01*
X41859777Y-50938769D01*
X41857415Y-50920345D01*
X41855406Y-50869526D01*
X41853901Y-50792993D01*
X41853053Y-50697430D01*
X41852923Y-50639329D01*
X41852651Y-50524771D01*
X41851252Y-50442667D01*
X41847849Y-50386393D01*
X41841567Y-50349326D01*
X41831529Y-50324844D01*
X41816861Y-50306325D01*
X41807702Y-50297406D01*
X41744789Y-50261466D01*
X41676136Y-50258775D01*
X41613848Y-50289170D01*
X41602329Y-50300144D01*
X41585433Y-50320779D01*
X41573714Y-50345256D01*
X41566233Y-50380647D01*
X41562054Y-50434026D01*
X41560237Y-50512466D01*
X41559846Y-50620617D01*
X41559846Y-50895870D01*
X41498315Y-50917320D01*
X41454613Y-50931912D01*
X41430636Y-50938706D01*
X41429930Y-50938769D01*
X41428126Y-50920069D01*
X41426500Y-50867322D01*
X41425117Y-50785557D01*
X41424042Y-50679805D01*
X41423340Y-50555094D01*
X41423077Y-50416455D01*
X41423077Y-49881806D01*
X41550077Y-49828236D01*
X41559846Y-49992120D01*
X41559846Y-49992120D01*
G37*
X41559846Y-49992120D02*
X41565572Y-50071980D01*
X41572149Y-50119039D01*
X41581262Y-50139566D01*
X41594598Y-50139829D01*
X41598923Y-50137378D01*
X41656444Y-50119636D01*
X41731268Y-50120672D01*
X41807339Y-50138910D01*
X41854918Y-50162505D01*
X41903702Y-50200198D01*
X41939364Y-50242855D01*
X41963845Y-50297057D01*
X41979087Y-50369384D01*
X41987030Y-50466419D01*
X41989616Y-50594742D01*
X41989662Y-50619358D01*
X41989692Y-50895870D01*
X41928161Y-50917320D01*
X41884459Y-50931912D01*
X41860482Y-50938706D01*
X41859777Y-50938769D01*
X41857415Y-50920345D01*
X41855406Y-50869526D01*
X41853901Y-50792993D01*
X41853053Y-50697430D01*
X41852923Y-50639329D01*
X41852651Y-50524771D01*
X41851252Y-50442667D01*
X41847849Y-50386393D01*
X41841567Y-50349326D01*
X41831529Y-50324844D01*
X41816861Y-50306325D01*
X41807702Y-50297406D01*
X41744789Y-50261466D01*
X41676136Y-50258775D01*
X41613848Y-50289170D01*
X41602329Y-50300144D01*
X41585433Y-50320779D01*
X41573714Y-50345256D01*
X41566233Y-50380647D01*
X41562054Y-50434026D01*
X41560237Y-50512466D01*
X41559846Y-50620617D01*
X41559846Y-50895870D01*
X41498315Y-50917320D01*
X41454613Y-50931912D01*
X41430636Y-50938706D01*
X41429930Y-50938769D01*
X41428126Y-50920069D01*
X41426500Y-50867322D01*
X41425117Y-50785557D01*
X41424042Y-50679805D01*
X41423340Y-50555094D01*
X41423077Y-50416455D01*
X41423077Y-49881806D01*
X41550077Y-49828236D01*
X41559846Y-49992120D01*
G36*
X42453501Y-50126303D02*
G01*
X42530060Y-50154733D01*
X42530936Y-50155279D01*
X42578285Y-50190127D01*
X42613241Y-50230852D01*
X42637825Y-50283925D01*
X42654062Y-50355814D01*
X42663975Y-50452992D01*
X42669586Y-50581928D01*
X42670077Y-50600298D01*
X42677141Y-50877287D01*
X42617695Y-50908028D01*
X42574681Y-50928802D01*
X42548710Y-50938646D01*
X42547509Y-50938769D01*
X42543014Y-50920606D01*
X42539444Y-50871612D01*
X42537248Y-50800031D01*
X42536769Y-50742068D01*
X42536758Y-50648170D01*
X42532466Y-50589203D01*
X42517503Y-50561079D01*
X42485482Y-50559706D01*
X42430014Y-50580998D01*
X42346269Y-50620136D01*
X42284689Y-50652643D01*
X42253017Y-50680845D01*
X42243706Y-50711582D01*
X42243692Y-50713104D01*
X42259057Y-50766054D01*
X42304547Y-50794660D01*
X42374166Y-50798803D01*
X42424313Y-50798084D01*
X42450754Y-50812527D01*
X42467243Y-50847218D01*
X42476733Y-50891416D01*
X42463057Y-50916493D01*
X42457907Y-50920082D01*
X42409425Y-50934496D01*
X42341531Y-50936537D01*
X42271612Y-50926983D01*
X42222068Y-50909522D01*
X42153570Y-50851364D01*
X42114634Y-50770408D01*
X42106923Y-50707160D01*
X42112807Y-50650111D01*
X42134101Y-50603542D01*
X42176265Y-50562181D01*
X42244759Y-50520755D01*
X42345044Y-50473993D01*
X42351154Y-50471350D01*
X42441490Y-50429617D01*
X42497235Y-50395391D01*
X42521129Y-50364635D01*
X42515913Y-50333311D01*
X42484328Y-50297383D01*
X42474883Y-50289116D01*
X42411617Y-50257058D01*
X42346064Y-50258407D01*
X42288972Y-50289838D01*
X42251093Y-50348024D01*
X42247574Y-50359446D01*
X42213300Y-50414837D01*
X42169809Y-50441518D01*
X42106923Y-50467960D01*
X42106923Y-50399548D01*
X42126052Y-50300110D01*
X42182831Y-50208902D01*
X42212378Y-50178389D01*
X42279542Y-50139228D01*
X42364956Y-50121500D01*
X42453501Y-50126303D01*
X42453501Y-50126303D01*
G37*
X42453501Y-50126303D02*
X42530060Y-50154733D01*
X42530936Y-50155279D01*
X42578285Y-50190127D01*
X42613241Y-50230852D01*
X42637825Y-50283925D01*
X42654062Y-50355814D01*
X42663975Y-50452992D01*
X42669586Y-50581928D01*
X42670077Y-50600298D01*
X42677141Y-50877287D01*
X42617695Y-50908028D01*
X42574681Y-50928802D01*
X42548710Y-50938646D01*
X42547509Y-50938769D01*
X42543014Y-50920606D01*
X42539444Y-50871612D01*
X42537248Y-50800031D01*
X42536769Y-50742068D01*
X42536758Y-50648170D01*
X42532466Y-50589203D01*
X42517503Y-50561079D01*
X42485482Y-50559706D01*
X42430014Y-50580998D01*
X42346269Y-50620136D01*
X42284689Y-50652643D01*
X42253017Y-50680845D01*
X42243706Y-50711582D01*
X42243692Y-50713104D01*
X42259057Y-50766054D01*
X42304547Y-50794660D01*
X42374166Y-50798803D01*
X42424313Y-50798084D01*
X42450754Y-50812527D01*
X42467243Y-50847218D01*
X42476733Y-50891416D01*
X42463057Y-50916493D01*
X42457907Y-50920082D01*
X42409425Y-50934496D01*
X42341531Y-50936537D01*
X42271612Y-50926983D01*
X42222068Y-50909522D01*
X42153570Y-50851364D01*
X42114634Y-50770408D01*
X42106923Y-50707160D01*
X42112807Y-50650111D01*
X42134101Y-50603542D01*
X42176265Y-50562181D01*
X42244759Y-50520755D01*
X42345044Y-50473993D01*
X42351154Y-50471350D01*
X42441490Y-50429617D01*
X42497235Y-50395391D01*
X42521129Y-50364635D01*
X42515913Y-50333311D01*
X42484328Y-50297383D01*
X42474883Y-50289116D01*
X42411617Y-50257058D01*
X42346064Y-50258407D01*
X42288972Y-50289838D01*
X42251093Y-50348024D01*
X42247574Y-50359446D01*
X42213300Y-50414837D01*
X42169809Y-50441518D01*
X42106923Y-50467960D01*
X42106923Y-50399548D01*
X42126052Y-50300110D01*
X42182831Y-50208902D01*
X42212378Y-50178389D01*
X42279542Y-50139228D01*
X42364956Y-50121500D01*
X42453501Y-50126303D01*
G36*
X43113362Y-50124670D02*
G01*
X43202117Y-50157421D01*
X43274022Y-50215350D01*
X43302144Y-50256128D01*
X43332802Y-50330954D01*
X43332165Y-50385058D01*
X43299987Y-50421446D01*
X43288081Y-50427633D01*
X43236675Y-50446925D01*
X43210422Y-50441982D01*
X43201530Y-50409587D01*
X43201077Y-50391692D01*
X43184797Y-50325859D01*
X43142365Y-50279807D01*
X43083388Y-50257564D01*
X43017475Y-50263161D01*
X42963895Y-50292229D01*
X42945798Y-50308810D01*
X42932971Y-50328925D01*
X42924306Y-50359332D01*
X42918696Y-50406788D01*
X42915035Y-50478050D01*
X42912215Y-50579875D01*
X42911484Y-50612115D01*
X42908820Y-50722410D01*
X42905792Y-50800036D01*
X42901250Y-50851396D01*
X42894046Y-50882890D01*
X42883033Y-50900920D01*
X42867060Y-50911888D01*
X42856834Y-50916733D01*
X42813406Y-50933301D01*
X42787842Y-50938769D01*
X42779395Y-50920507D01*
X42774239Y-50865296D01*
X42772346Y-50772499D01*
X42773689Y-50641478D01*
X42774107Y-50621269D01*
X42777058Y-50501733D01*
X42780548Y-50414449D01*
X42785514Y-50352591D01*
X42792893Y-50309336D01*
X42803624Y-50277860D01*
X42818645Y-50251339D01*
X42826502Y-50239975D01*
X42871553Y-50189692D01*
X42921940Y-50150581D01*
X42928108Y-50147167D01*
X43018458Y-50120212D01*
X43113362Y-50124670D01*
X43113362Y-50124670D01*
G37*
X43113362Y-50124670D02*
X43202117Y-50157421D01*
X43274022Y-50215350D01*
X43302144Y-50256128D01*
X43332802Y-50330954D01*
X43332165Y-50385058D01*
X43299987Y-50421446D01*
X43288081Y-50427633D01*
X43236675Y-50446925D01*
X43210422Y-50441982D01*
X43201530Y-50409587D01*
X43201077Y-50391692D01*
X43184797Y-50325859D01*
X43142365Y-50279807D01*
X43083388Y-50257564D01*
X43017475Y-50263161D01*
X42963895Y-50292229D01*
X42945798Y-50308810D01*
X42932971Y-50328925D01*
X42924306Y-50359332D01*
X42918696Y-50406788D01*
X42915035Y-50478050D01*
X42912215Y-50579875D01*
X42911484Y-50612115D01*
X42908820Y-50722410D01*
X42905792Y-50800036D01*
X42901250Y-50851396D01*
X42894046Y-50882890D01*
X42883033Y-50900920D01*
X42867060Y-50911888D01*
X42856834Y-50916733D01*
X42813406Y-50933301D01*
X42787842Y-50938769D01*
X42779395Y-50920507D01*
X42774239Y-50865296D01*
X42772346Y-50772499D01*
X42773689Y-50641478D01*
X42774107Y-50621269D01*
X42777058Y-50501733D01*
X42780548Y-50414449D01*
X42785514Y-50352591D01*
X42792893Y-50309336D01*
X42803624Y-50277860D01*
X42818645Y-50251339D01*
X42826502Y-50239975D01*
X42871553Y-50189692D01*
X42921940Y-50150581D01*
X42928108Y-50147167D01*
X43018458Y-50120212D01*
X43113362Y-50124670D01*
G36*
X44002081Y-50280289D02*
G01*
X44001833Y-50426320D01*
X44000872Y-50538655D01*
X43998794Y-50622678D01*
X43995193Y-50683769D01*
X43989665Y-50727309D01*
X43981804Y-50758679D01*
X43971207Y-50783262D01*
X43963182Y-50797294D01*
X43896728Y-50873388D01*
X43812470Y-50921084D01*
X43719249Y-50938199D01*
X43625900Y-50922546D01*
X43570312Y-50894418D01*
X43511957Y-50845760D01*
X43472186Y-50786333D01*
X43448190Y-50708507D01*
X43437161Y-50604652D01*
X43435599Y-50528462D01*
X43435809Y-50522986D01*
X43572308Y-50522986D01*
X43573141Y-50610355D01*
X43576961Y-50668192D01*
X43585746Y-50706029D01*
X43601474Y-50733398D01*
X43620266Y-50754042D01*
X43683375Y-50793890D01*
X43751137Y-50797295D01*
X43815179Y-50764025D01*
X43820164Y-50759517D01*
X43841439Y-50736067D01*
X43854779Y-50708166D01*
X43862001Y-50666641D01*
X43864923Y-50602316D01*
X43865385Y-50531200D01*
X43864383Y-50441858D01*
X43860238Y-50382258D01*
X43851236Y-50343089D01*
X43835667Y-50315040D01*
X43822902Y-50300144D01*
X43763600Y-50262575D01*
X43695301Y-50258057D01*
X43630110Y-50286753D01*
X43617528Y-50297406D01*
X43596111Y-50321063D01*
X43582744Y-50349251D01*
X43575566Y-50391245D01*
X43572719Y-50456319D01*
X43572308Y-50522986D01*
X43435809Y-50522986D01*
X43440322Y-50405765D01*
X43456362Y-50313577D01*
X43486528Y-50244269D01*
X43533629Y-50190211D01*
X43570312Y-50162505D01*
X43636990Y-50132572D01*
X43714272Y-50118678D01*
X43786110Y-50122397D01*
X43826308Y-50137400D01*
X43842082Y-50141670D01*
X43852550Y-50125750D01*
X43859856Y-50083089D01*
X43865385Y-50018106D01*
X43871437Y-49945732D01*
X43879844Y-49902187D01*
X43895141Y-49877287D01*
X43921864Y-49860845D01*
X43938654Y-49853564D01*
X44002154Y-49826963D01*
X44002081Y-50280289D01*
X44002081Y-50280289D01*
G37*
X44002081Y-50280289D02*
X44001833Y-50426320D01*
X44000872Y-50538655D01*
X43998794Y-50622678D01*
X43995193Y-50683769D01*
X43989665Y-50727309D01*
X43981804Y-50758679D01*
X43971207Y-50783262D01*
X43963182Y-50797294D01*
X43896728Y-50873388D01*
X43812470Y-50921084D01*
X43719249Y-50938199D01*
X43625900Y-50922546D01*
X43570312Y-50894418D01*
X43511957Y-50845760D01*
X43472186Y-50786333D01*
X43448190Y-50708507D01*
X43437161Y-50604652D01*
X43435599Y-50528462D01*
X43435809Y-50522986D01*
X43572308Y-50522986D01*
X43573141Y-50610355D01*
X43576961Y-50668192D01*
X43585746Y-50706029D01*
X43601474Y-50733398D01*
X43620266Y-50754042D01*
X43683375Y-50793890D01*
X43751137Y-50797295D01*
X43815179Y-50764025D01*
X43820164Y-50759517D01*
X43841439Y-50736067D01*
X43854779Y-50708166D01*
X43862001Y-50666641D01*
X43864923Y-50602316D01*
X43865385Y-50531200D01*
X43864383Y-50441858D01*
X43860238Y-50382258D01*
X43851236Y-50343089D01*
X43835667Y-50315040D01*
X43822902Y-50300144D01*
X43763600Y-50262575D01*
X43695301Y-50258057D01*
X43630110Y-50286753D01*
X43617528Y-50297406D01*
X43596111Y-50321063D01*
X43582744Y-50349251D01*
X43575566Y-50391245D01*
X43572719Y-50456319D01*
X43572308Y-50522986D01*
X43435809Y-50522986D01*
X43440322Y-50405765D01*
X43456362Y-50313577D01*
X43486528Y-50244269D01*
X43533629Y-50190211D01*
X43570312Y-50162505D01*
X43636990Y-50132572D01*
X43714272Y-50118678D01*
X43786110Y-50122397D01*
X43826308Y-50137400D01*
X43842082Y-50141670D01*
X43852550Y-50125750D01*
X43859856Y-50083089D01*
X43865385Y-50018106D01*
X43871437Y-49945732D01*
X43879844Y-49902187D01*
X43895141Y-49877287D01*
X43921864Y-49860845D01*
X43938654Y-49853564D01*
X44002154Y-49826963D01*
X44002081Y-50280289D01*
G36*
X44795929Y-50136662D02*
G01*
X44798911Y-50188068D01*
X44801247Y-50266192D01*
X44802749Y-50364857D01*
X44803231Y-50468343D01*
X44803231Y-50818533D01*
X44741401Y-50880363D01*
X44698793Y-50918462D01*
X44661390Y-50933895D01*
X44610270Y-50932918D01*
X44589978Y-50930433D01*
X44526554Y-50923200D01*
X44474095Y-50919055D01*
X44461308Y-50918672D01*
X44418199Y-50921176D01*
X44356544Y-50927462D01*
X44332638Y-50930433D01*
X44273922Y-50935028D01*
X44234464Y-50925046D01*
X44195338Y-50894228D01*
X44181215Y-50880363D01*
X44119385Y-50818533D01*
X44119385Y-50163503D01*
X44169150Y-50140829D01*
X44212002Y-50124034D01*
X44237073Y-50118154D01*
X44243501Y-50136736D01*
X44249509Y-50188655D01*
X44254697Y-50268172D01*
X44258664Y-50369546D01*
X44260577Y-50455192D01*
X44265923Y-50792231D01*
X44312560Y-50798825D01*
X44354976Y-50794214D01*
X44375760Y-50779287D01*
X44381570Y-50751377D01*
X44386530Y-50691925D01*
X44390246Y-50608466D01*
X44392324Y-50508532D01*
X44392624Y-50457104D01*
X44392923Y-50161054D01*
X44454454Y-50139604D01*
X44498004Y-50125020D01*
X44521694Y-50118219D01*
X44522377Y-50118154D01*
X44524754Y-50136642D01*
X44527366Y-50187906D01*
X44529995Y-50265649D01*
X44532421Y-50363574D01*
X44534115Y-50455192D01*
X44539461Y-50792231D01*
X44656692Y-50792231D01*
X44662072Y-50484746D01*
X44667451Y-50177261D01*
X44724601Y-50147707D01*
X44766797Y-50127413D01*
X44791770Y-50118204D01*
X44792491Y-50118154D01*
X44795929Y-50136662D01*
X44795929Y-50136662D01*
G37*
X44795929Y-50136662D02*
X44798911Y-50188068D01*
X44801247Y-50266192D01*
X44802749Y-50364857D01*
X44803231Y-50468343D01*
X44803231Y-50818533D01*
X44741401Y-50880363D01*
X44698793Y-50918462D01*
X44661390Y-50933895D01*
X44610270Y-50932918D01*
X44589978Y-50930433D01*
X44526554Y-50923200D01*
X44474095Y-50919055D01*
X44461308Y-50918672D01*
X44418199Y-50921176D01*
X44356544Y-50927462D01*
X44332638Y-50930433D01*
X44273922Y-50935028D01*
X44234464Y-50925046D01*
X44195338Y-50894228D01*
X44181215Y-50880363D01*
X44119385Y-50818533D01*
X44119385Y-50163503D01*
X44169150Y-50140829D01*
X44212002Y-50124034D01*
X44237073Y-50118154D01*
X44243501Y-50136736D01*
X44249509Y-50188655D01*
X44254697Y-50268172D01*
X44258664Y-50369546D01*
X44260577Y-50455192D01*
X44265923Y-50792231D01*
X44312560Y-50798825D01*
X44354976Y-50794214D01*
X44375760Y-50779287D01*
X44381570Y-50751377D01*
X44386530Y-50691925D01*
X44390246Y-50608466D01*
X44392324Y-50508532D01*
X44392624Y-50457104D01*
X44392923Y-50161054D01*
X44454454Y-50139604D01*
X44498004Y-50125020D01*
X44521694Y-50118219D01*
X44522377Y-50118154D01*
X44524754Y-50136642D01*
X44527366Y-50187906D01*
X44529995Y-50265649D01*
X44532421Y-50363574D01*
X44534115Y-50455192D01*
X44539461Y-50792231D01*
X44656692Y-50792231D01*
X44662072Y-50484746D01*
X44667451Y-50177261D01*
X44724601Y-50147707D01*
X44766797Y-50127413D01*
X44791770Y-50118204D01*
X44792491Y-50118154D01*
X44795929Y-50136662D01*
G36*
X45287333Y-50133528D02*
G01*
X45343590Y-50159117D01*
X45387747Y-50190124D01*
X45420101Y-50224795D01*
X45442438Y-50269520D01*
X45456546Y-50330692D01*
X45464211Y-50414701D01*
X45467220Y-50527940D01*
X45467538Y-50602509D01*
X45467538Y-50893420D01*
X45417773Y-50916095D01*
X45378576Y-50932667D01*
X45359157Y-50938769D01*
X45355442Y-50920610D01*
X45352495Y-50871648D01*
X45350691Y-50800153D01*
X45350308Y-50743385D01*
X45348661Y-50661371D01*
X45344222Y-50596309D01*
X45337740Y-50556467D01*
X45332590Y-50548000D01*
X45297977Y-50556646D01*
X45243640Y-50578823D01*
X45180722Y-50608886D01*
X45120368Y-50641192D01*
X45073721Y-50670098D01*
X45051926Y-50689961D01*
X45051839Y-50690175D01*
X45053714Y-50726935D01*
X45070525Y-50762026D01*
X45100039Y-50790528D01*
X45143116Y-50800061D01*
X45179932Y-50798950D01*
X45232074Y-50798133D01*
X45259444Y-50810349D01*
X45275882Y-50842624D01*
X45277955Y-50848710D01*
X45285081Y-50894739D01*
X45266024Y-50922687D01*
X45216353Y-50936007D01*
X45162697Y-50938470D01*
X45066142Y-50920210D01*
X45016159Y-50894131D01*
X44954429Y-50832868D01*
X44921690Y-50757670D01*
X44918753Y-50678211D01*
X44946424Y-50604167D01*
X44988047Y-50557769D01*
X45029604Y-50531793D01*
X45094922Y-50498907D01*
X45171038Y-50465557D01*
X45183726Y-50460461D01*
X45267333Y-50423565D01*
X45315530Y-50391046D01*
X45331030Y-50358718D01*
X45316550Y-50322394D01*
X45291692Y-50294000D01*
X45232939Y-50259039D01*
X45168293Y-50256417D01*
X45109008Y-50283358D01*
X45066339Y-50337088D01*
X45060739Y-50350950D01*
X45028133Y-50401936D01*
X44980530Y-50439787D01*
X44920461Y-50470850D01*
X44920461Y-50382768D01*
X44923997Y-50328951D01*
X44939156Y-50286534D01*
X44972768Y-50241279D01*
X45005035Y-50206420D01*
X45055209Y-50157062D01*
X45094193Y-50130547D01*
X45136064Y-50119911D01*
X45183460Y-50118154D01*
X45287333Y-50133528D01*
X45287333Y-50133528D01*
G37*
X45287333Y-50133528D02*
X45343590Y-50159117D01*
X45387747Y-50190124D01*
X45420101Y-50224795D01*
X45442438Y-50269520D01*
X45456546Y-50330692D01*
X45464211Y-50414701D01*
X45467220Y-50527940D01*
X45467538Y-50602509D01*
X45467538Y-50893420D01*
X45417773Y-50916095D01*
X45378576Y-50932667D01*
X45359157Y-50938769D01*
X45355442Y-50920610D01*
X45352495Y-50871648D01*
X45350691Y-50800153D01*
X45350308Y-50743385D01*
X45348661Y-50661371D01*
X45344222Y-50596309D01*
X45337740Y-50556467D01*
X45332590Y-50548000D01*
X45297977Y-50556646D01*
X45243640Y-50578823D01*
X45180722Y-50608886D01*
X45120368Y-50641192D01*
X45073721Y-50670098D01*
X45051926Y-50689961D01*
X45051839Y-50690175D01*
X45053714Y-50726935D01*
X45070525Y-50762026D01*
X45100039Y-50790528D01*
X45143116Y-50800061D01*
X45179932Y-50798950D01*
X45232074Y-50798133D01*
X45259444Y-50810349D01*
X45275882Y-50842624D01*
X45277955Y-50848710D01*
X45285081Y-50894739D01*
X45266024Y-50922687D01*
X45216353Y-50936007D01*
X45162697Y-50938470D01*
X45066142Y-50920210D01*
X45016159Y-50894131D01*
X44954429Y-50832868D01*
X44921690Y-50757670D01*
X44918753Y-50678211D01*
X44946424Y-50604167D01*
X44988047Y-50557769D01*
X45029604Y-50531793D01*
X45094922Y-50498907D01*
X45171038Y-50465557D01*
X45183726Y-50460461D01*
X45267333Y-50423565D01*
X45315530Y-50391046D01*
X45331030Y-50358718D01*
X45316550Y-50322394D01*
X45291692Y-50294000D01*
X45232939Y-50259039D01*
X45168293Y-50256417D01*
X45109008Y-50283358D01*
X45066339Y-50337088D01*
X45060739Y-50350950D01*
X45028133Y-50401936D01*
X44980530Y-50439787D01*
X44920461Y-50470850D01*
X44920461Y-50382768D01*
X44923997Y-50328951D01*
X44939156Y-50286534D01*
X44972768Y-50241279D01*
X45005035Y-50206420D01*
X45055209Y-50157062D01*
X45094193Y-50130547D01*
X45136064Y-50119911D01*
X45183460Y-50118154D01*
X45287333Y-50133528D01*
G36*
X45970807Y-50136782D02*
G01*
X45994161Y-50146988D01*
X46049902Y-50191134D01*
X46097569Y-50254967D01*
X46127048Y-50323087D01*
X46131846Y-50356670D01*
X46115760Y-50403556D01*
X46080475Y-50428365D01*
X46042644Y-50443387D01*
X46025321Y-50446155D01*
X46016886Y-50426066D01*
X46000230Y-50382351D01*
X45992923Y-50362598D01*
X45951948Y-50294271D01*
X45892622Y-50260191D01*
X45816552Y-50261239D01*
X45810918Y-50262581D01*
X45770305Y-50281836D01*
X45740448Y-50319375D01*
X45720055Y-50379809D01*
X45707836Y-50467751D01*
X45702500Y-50587813D01*
X45702000Y-50651698D01*
X45701752Y-50752403D01*
X45700126Y-50821054D01*
X45695801Y-50864673D01*
X45687454Y-50890282D01*
X45673765Y-50904903D01*
X45653411Y-50915558D01*
X45652234Y-50916095D01*
X45613038Y-50932667D01*
X45593619Y-50938769D01*
X45590635Y-50920319D01*
X45588081Y-50869323D01*
X45586140Y-50792308D01*
X45584997Y-50695805D01*
X45584769Y-50625184D01*
X45585932Y-50488525D01*
X45590479Y-50384851D01*
X45599999Y-50308108D01*
X45616081Y-50252246D01*
X45640313Y-50211212D01*
X45674286Y-50178954D01*
X45707833Y-50156440D01*
X45788499Y-50126476D01*
X45882381Y-50119718D01*
X45970807Y-50136782D01*
X45970807Y-50136782D01*
G37*
X45970807Y-50136782D02*
X45994161Y-50146988D01*
X46049902Y-50191134D01*
X46097569Y-50254967D01*
X46127048Y-50323087D01*
X46131846Y-50356670D01*
X46115760Y-50403556D01*
X46080475Y-50428365D01*
X46042644Y-50443387D01*
X46025321Y-50446155D01*
X46016886Y-50426066D01*
X46000230Y-50382351D01*
X45992923Y-50362598D01*
X45951948Y-50294271D01*
X45892622Y-50260191D01*
X45816552Y-50261239D01*
X45810918Y-50262581D01*
X45770305Y-50281836D01*
X45740448Y-50319375D01*
X45720055Y-50379809D01*
X45707836Y-50467751D01*
X45702500Y-50587813D01*
X45702000Y-50651698D01*
X45701752Y-50752403D01*
X45700126Y-50821054D01*
X45695801Y-50864673D01*
X45687454Y-50890282D01*
X45673765Y-50904903D01*
X45653411Y-50915558D01*
X45652234Y-50916095D01*
X45613038Y-50932667D01*
X45593619Y-50938769D01*
X45590635Y-50920319D01*
X45588081Y-50869323D01*
X45586140Y-50792308D01*
X45584997Y-50695805D01*
X45584769Y-50625184D01*
X45585932Y-50488525D01*
X45590479Y-50384851D01*
X45599999Y-50308108D01*
X45616081Y-50252246D01*
X45640313Y-50211212D01*
X45674286Y-50178954D01*
X45707833Y-50156440D01*
X45788499Y-50126476D01*
X45882381Y-50119718D01*
X45970807Y-50136782D01*
G36*
X46645224Y-50147838D02*
G01*
X46722528Y-50198361D01*
X46759814Y-50243590D01*
X46789353Y-50325663D01*
X46791699Y-50390607D01*
X46786385Y-50477445D01*
X46586115Y-50565103D01*
X46488739Y-50609887D01*
X46425113Y-50645913D01*
X46392029Y-50677117D01*
X46386280Y-50707436D01*
X46404658Y-50740805D01*
X46424923Y-50762923D01*
X46483889Y-50798393D01*
X46548024Y-50800879D01*
X46606926Y-50773235D01*
X46650197Y-50718320D01*
X46657936Y-50698928D01*
X46695006Y-50638364D01*
X46737654Y-50612552D01*
X46796154Y-50590471D01*
X46796154Y-50674184D01*
X46790982Y-50731150D01*
X46770723Y-50779189D01*
X46728262Y-50834346D01*
X46721951Y-50841514D01*
X46674720Y-50890585D01*
X46634121Y-50916920D01*
X46583328Y-50929035D01*
X46541220Y-50933003D01*
X46465902Y-50933991D01*
X46412286Y-50921466D01*
X46378838Y-50902869D01*
X46326268Y-50861975D01*
X46289879Y-50817748D01*
X46266850Y-50762126D01*
X46254359Y-50687047D01*
X46249587Y-50584449D01*
X46249206Y-50532376D01*
X46250501Y-50469948D01*
X46368471Y-50469948D01*
X46369839Y-50503438D01*
X46373249Y-50508923D01*
X46395753Y-50501472D01*
X46444182Y-50481753D01*
X46508908Y-50453718D01*
X46522443Y-50447692D01*
X46604244Y-50406096D01*
X46649312Y-50369538D01*
X46659217Y-50335296D01*
X46635526Y-50300648D01*
X46615960Y-50285339D01*
X46545360Y-50254721D01*
X46479280Y-50259780D01*
X46423959Y-50297151D01*
X46385636Y-50363473D01*
X46373349Y-50416116D01*
X46368471Y-50469948D01*
X46250501Y-50469948D01*
X46251730Y-50410720D01*
X46261032Y-50320710D01*
X46279460Y-50255167D01*
X46309360Y-50206912D01*
X46353080Y-50168767D01*
X46372141Y-50156440D01*
X46458726Y-50124336D01*
X46553522Y-50122316D01*
X46645224Y-50147838D01*
X46645224Y-50147838D01*
G37*
X46645224Y-50147838D02*
X46722528Y-50198361D01*
X46759814Y-50243590D01*
X46789353Y-50325663D01*
X46791699Y-50390607D01*
X46786385Y-50477445D01*
X46586115Y-50565103D01*
X46488739Y-50609887D01*
X46425113Y-50645913D01*
X46392029Y-50677117D01*
X46386280Y-50707436D01*
X46404658Y-50740805D01*
X46424923Y-50762923D01*
X46483889Y-50798393D01*
X46548024Y-50800879D01*
X46606926Y-50773235D01*
X46650197Y-50718320D01*
X46657936Y-50698928D01*
X46695006Y-50638364D01*
X46737654Y-50612552D01*
X46796154Y-50590471D01*
X46796154Y-50674184D01*
X46790982Y-50731150D01*
X46770723Y-50779189D01*
X46728262Y-50834346D01*
X46721951Y-50841514D01*
X46674720Y-50890585D01*
X46634121Y-50916920D01*
X46583328Y-50929035D01*
X46541220Y-50933003D01*
X46465902Y-50933991D01*
X46412286Y-50921466D01*
X46378838Y-50902869D01*
X46326268Y-50861975D01*
X46289879Y-50817748D01*
X46266850Y-50762126D01*
X46254359Y-50687047D01*
X46249587Y-50584449D01*
X46249206Y-50532376D01*
X46250501Y-50469948D01*
X46368471Y-50469948D01*
X46369839Y-50503438D01*
X46373249Y-50508923D01*
X46395753Y-50501472D01*
X46444182Y-50481753D01*
X46508908Y-50453718D01*
X46522443Y-50447692D01*
X46604244Y-50406096D01*
X46649312Y-50369538D01*
X46659217Y-50335296D01*
X46635526Y-50300648D01*
X46615960Y-50285339D01*
X46545360Y-50254721D01*
X46479280Y-50259780D01*
X46423959Y-50297151D01*
X46385636Y-50363473D01*
X46373349Y-50416116D01*
X46368471Y-50469948D01*
X46250501Y-50469948D01*
X46251730Y-50410720D01*
X46261032Y-50320710D01*
X46279460Y-50255167D01*
X46309360Y-50206912D01*
X46353080Y-50168767D01*
X46372141Y-50156440D01*
X46458726Y-50124336D01*
X46553522Y-50122316D01*
X46645224Y-50147838D01*
G36*
X42539878Y-43787776D02*
G01*
X42645612Y-43788355D01*
X42722132Y-43789922D01*
X42774372Y-43792972D01*
X42807263Y-43797996D01*
X42825737Y-43805489D01*
X42834727Y-43815944D01*
X42839163Y-43829853D01*
X42839594Y-43831654D01*
X42846333Y-43864145D01*
X42858808Y-43928252D01*
X42875719Y-44017151D01*
X42895771Y-44124019D01*
X42917664Y-44242033D01*
X42918429Y-44246178D01*
X42940359Y-44361831D01*
X42960877Y-44464014D01*
X42978659Y-44546598D01*
X42992381Y-44603456D01*
X43000718Y-44628458D01*
X43001116Y-44628901D01*
X43025677Y-44641110D01*
X43076315Y-44661456D01*
X43142095Y-44685545D01*
X43142461Y-44685674D01*
X43225317Y-44716818D01*
X43323000Y-44756491D01*
X43415077Y-44796381D01*
X43419434Y-44798353D01*
X43569407Y-44866420D01*
X43901498Y-44639639D01*
X44003374Y-44570504D01*
X44095657Y-44508697D01*
X44173003Y-44457733D01*
X44230064Y-44421127D01*
X44261495Y-44402394D01*
X44264479Y-44401004D01*
X44287321Y-44407190D01*
X44329982Y-44437035D01*
X44394128Y-44491947D01*
X44481421Y-44573334D01*
X44570535Y-44659922D01*
X44656441Y-44745247D01*
X44733327Y-44823108D01*
X44796564Y-44888697D01*
X44841523Y-44937205D01*
X44863576Y-44963825D01*
X44864396Y-44965195D01*
X44866834Y-44983463D01*
X44857650Y-45013295D01*
X44834574Y-45058721D01*
X44795337Y-45123770D01*
X44737670Y-45212470D01*
X44660795Y-45326657D01*
X44592570Y-45427162D01*
X44531582Y-45517303D01*
X44481356Y-45591849D01*
X44445416Y-45645565D01*
X44427287Y-45673218D01*
X44426146Y-45675095D01*
X44428359Y-45701590D01*
X44445138Y-45753086D01*
X44473142Y-45819851D01*
X44483122Y-45841172D01*
X44526672Y-45936159D01*
X44573134Y-46043937D01*
X44610877Y-46137192D01*
X44638073Y-46206406D01*
X44659675Y-46259006D01*
X44672158Y-46286497D01*
X44673709Y-46288616D01*
X44696668Y-46292124D01*
X44750786Y-46301738D01*
X44828868Y-46316089D01*
X44923719Y-46333807D01*
X45028143Y-46353525D01*
X45134944Y-46373874D01*
X45236926Y-46393486D01*
X45326894Y-46410991D01*
X45397653Y-46425022D01*
X45442006Y-46434209D01*
X45452885Y-46436807D01*
X45464122Y-46443218D01*
X45472605Y-46457697D01*
X45478714Y-46485133D01*
X45482832Y-46530411D01*
X45485341Y-46598420D01*
X45486621Y-46694047D01*
X45487054Y-46822180D01*
X45487077Y-46874701D01*
X45487077Y-47301845D01*
X45384500Y-47322091D01*
X45327431Y-47333070D01*
X45242269Y-47349095D01*
X45139372Y-47368233D01*
X45029096Y-47388551D01*
X44998615Y-47394132D01*
X44896855Y-47413917D01*
X44808205Y-47433373D01*
X44740108Y-47450697D01*
X44700004Y-47464088D01*
X44693323Y-47468079D01*
X44676919Y-47496342D01*
X44653399Y-47551109D01*
X44627316Y-47621588D01*
X44622142Y-47636769D01*
X44587956Y-47730896D01*
X44545523Y-47837101D01*
X44503997Y-47932473D01*
X44503792Y-47932916D01*
X44434640Y-48082525D01*
X44889512Y-48751617D01*
X44597500Y-49044116D01*
X44509180Y-49131170D01*
X44428625Y-49207909D01*
X44360360Y-49270237D01*
X44308908Y-49314056D01*
X44278794Y-49335270D01*
X44274474Y-49336616D01*
X44249111Y-49326016D01*
X44197358Y-49296547D01*
X44124868Y-49251705D01*
X44037294Y-49194984D01*
X43942612Y-49131462D01*
X43846516Y-49066668D01*
X43760837Y-49010287D01*
X43691016Y-48965788D01*
X43642494Y-48936639D01*
X43620782Y-48926308D01*
X43594293Y-48935050D01*
X43544062Y-48958087D01*
X43480451Y-48990631D01*
X43473708Y-48994249D01*
X43388046Y-49037210D01*
X43329306Y-49058279D01*
X43292772Y-49058503D01*
X43273731Y-49038928D01*
X43273620Y-49038654D01*
X43264102Y-49015472D01*
X43241403Y-48960441D01*
X43207282Y-48877822D01*
X43163500Y-48771872D01*
X43111816Y-48646852D01*
X43053992Y-48507020D01*
X42997991Y-48371637D01*
X42936447Y-48222234D01*
X42879939Y-48083832D01*
X42830161Y-47960673D01*
X42788806Y-47857002D01*
X42757568Y-47777059D01*
X42738141Y-47725088D01*
X42732154Y-47705692D01*
X42747168Y-47683443D01*
X42786439Y-47647982D01*
X42838807Y-47608887D01*
X42987941Y-47485245D01*
X43104511Y-47343522D01*
X43187118Y-47186704D01*
X43234366Y-47017775D01*
X43244857Y-46839722D01*
X43237231Y-46757539D01*
X43195682Y-46587031D01*
X43124123Y-46436459D01*
X43026995Y-46307309D01*
X42908734Y-46201064D01*
X42773780Y-46119210D01*
X42626571Y-46063232D01*
X42471544Y-46034615D01*
X42313139Y-46034844D01*
X42155794Y-46065405D01*
X42003946Y-46127782D01*
X41862035Y-46223460D01*
X41802803Y-46277572D01*
X41689203Y-46416520D01*
X41610106Y-46568361D01*
X41564986Y-46728667D01*
X41553316Y-46893012D01*
X41574569Y-47056971D01*
X41628220Y-47216118D01*
X41713740Y-47366025D01*
X41830605Y-47502267D01*
X41961193Y-47608887D01*
X42015588Y-47649642D01*
X42054014Y-47684718D01*
X42067846Y-47705726D01*
X42060603Y-47728635D01*
X42040005Y-47783365D01*
X42007746Y-47865672D01*
X41965521Y-47971315D01*
X41915023Y-48096050D01*
X41857948Y-48235636D01*
X41801854Y-48371670D01*
X41739967Y-48521201D01*
X41682644Y-48659767D01*
X41631644Y-48783107D01*
X41588727Y-48886964D01*
X41555653Y-48967080D01*
X41534181Y-49019195D01*
X41526225Y-49038654D01*
X41507429Y-49058423D01*
X41471074Y-49058365D01*
X41412479Y-49037441D01*
X41326968Y-48994613D01*
X41326292Y-48994249D01*
X41261907Y-48961012D01*
X41209861Y-48936802D01*
X41180512Y-48926404D01*
X41179217Y-48926308D01*
X41157124Y-48936855D01*
X41108348Y-48966184D01*
X41038331Y-49010827D01*
X40952514Y-49067314D01*
X40857388Y-49131462D01*
X40760540Y-49196411D01*
X40673253Y-49252896D01*
X40601181Y-49297421D01*
X40549977Y-49326490D01*
X40525526Y-49336616D01*
X40503010Y-49323307D01*
X40457742Y-49286112D01*
X40394244Y-49229128D01*
X40317039Y-49156449D01*
X40230651Y-49072171D01*
X40202399Y-49044016D01*
X39910287Y-48751416D01*
X40132631Y-48425104D01*
X40200202Y-48324897D01*
X40259507Y-48234963D01*
X40307217Y-48160510D01*
X40340007Y-48106751D01*
X40354548Y-48078894D01*
X40354974Y-48076912D01*
X40347308Y-48050655D01*
X40326689Y-47997837D01*
X40296685Y-47927310D01*
X40275625Y-47880093D01*
X40236248Y-47789694D01*
X40199165Y-47698366D01*
X40170415Y-47621200D01*
X40162605Y-47597692D01*
X40140417Y-47534916D01*
X40118727Y-47486411D01*
X40106813Y-47468079D01*
X40080523Y-47456859D01*
X40023142Y-47440954D01*
X39942118Y-47422167D01*
X39844895Y-47402299D01*
X39801385Y-47394132D01*
X39690896Y-47373829D01*
X39584916Y-47354170D01*
X39493801Y-47337088D01*
X39427908Y-47324518D01*
X39415500Y-47322091D01*
X39312923Y-47301845D01*
X39312923Y-46874701D01*
X39313153Y-46734246D01*
X39314099Y-46627979D01*
X39316141Y-46551013D01*
X39319662Y-46498460D01*
X39325043Y-46465433D01*
X39332666Y-46447045D01*
X39342912Y-46438408D01*
X39347115Y-46436807D01*
X39372470Y-46431127D01*
X39428484Y-46419795D01*
X39507964Y-46404179D01*
X39603712Y-46385647D01*
X39708533Y-46365569D01*
X39815232Y-46345312D01*
X39916613Y-46326246D01*
X40005479Y-46309739D01*
X40074637Y-46297159D01*
X40116889Y-46289875D01*
X40126290Y-46288616D01*
X40134807Y-46271763D01*
X40153660Y-46226870D01*
X40179324Y-46162430D01*
X40189123Y-46137192D01*
X40228648Y-46039686D01*
X40275192Y-45931959D01*
X40316877Y-45841172D01*
X40347550Y-45771753D01*
X40367956Y-45714710D01*
X40374768Y-45679777D01*
X40373682Y-45675095D01*
X40359285Y-45652991D01*
X40326412Y-45603831D01*
X40278590Y-45532848D01*
X40219348Y-45445278D01*
X40152215Y-45346357D01*
X40138941Y-45326830D01*
X40061046Y-45211140D01*
X40003787Y-45123044D01*
X39964881Y-45058486D01*
X39942044Y-45013411D01*
X39932994Y-44983763D01*
X39935448Y-44965485D01*
X39935511Y-44965369D01*
X39954827Y-44941361D01*
X39997551Y-44894947D01*
X40059051Y-44830937D01*
X40134698Y-44754145D01*
X40219861Y-44669382D01*
X40229465Y-44659922D01*
X40336790Y-44555989D01*
X40419615Y-44479675D01*
X40479605Y-44429571D01*
X40518423Y-44404270D01*
X40535520Y-44401004D01*
X40560473Y-44415250D01*
X40612255Y-44448156D01*
X40685520Y-44496208D01*
X40774920Y-44555890D01*
X40875111Y-44623688D01*
X40898501Y-44639639D01*
X41230593Y-44866420D01*
X41380565Y-44798353D01*
X41471770Y-44758685D01*
X41569669Y-44718791D01*
X41653831Y-44686983D01*
X41657538Y-44685674D01*
X41723369Y-44661576D01*
X41774116Y-44641200D01*
X41798842Y-44628936D01*
X41798884Y-44628901D01*
X41806729Y-44606734D01*
X41820066Y-44552217D01*
X41837570Y-44471480D01*
X41857917Y-44370650D01*
X41879782Y-44255856D01*
X41881571Y-44246178D01*
X41903504Y-44127904D01*
X41923640Y-44020542D01*
X41940680Y-43930917D01*
X41953328Y-43865851D01*
X41960284Y-43832168D01*
X41960406Y-43831654D01*
X41964639Y-43817325D01*
X41972871Y-43806507D01*
X41990033Y-43798706D01*
X42021058Y-43793429D01*
X42070878Y-43790182D01*
X42144424Y-43788472D01*
X42246629Y-43787807D01*
X42382425Y-43787693D01*
X42400000Y-43787692D01*
X42539878Y-43787776D01*
X42539878Y-43787776D01*
G37*
X42539878Y-43787776D02*
X42645612Y-43788355D01*
X42722132Y-43789922D01*
X42774372Y-43792972D01*
X42807263Y-43797996D01*
X42825737Y-43805489D01*
X42834727Y-43815944D01*
X42839163Y-43829853D01*
X42839594Y-43831654D01*
X42846333Y-43864145D01*
X42858808Y-43928252D01*
X42875719Y-44017151D01*
X42895771Y-44124019D01*
X42917664Y-44242033D01*
X42918429Y-44246178D01*
X42940359Y-44361831D01*
X42960877Y-44464014D01*
X42978659Y-44546598D01*
X42992381Y-44603456D01*
X43000718Y-44628458D01*
X43001116Y-44628901D01*
X43025677Y-44641110D01*
X43076315Y-44661456D01*
X43142095Y-44685545D01*
X43142461Y-44685674D01*
X43225317Y-44716818D01*
X43323000Y-44756491D01*
X43415077Y-44796381D01*
X43419434Y-44798353D01*
X43569407Y-44866420D01*
X43901498Y-44639639D01*
X44003374Y-44570504D01*
X44095657Y-44508697D01*
X44173003Y-44457733D01*
X44230064Y-44421127D01*
X44261495Y-44402394D01*
X44264479Y-44401004D01*
X44287321Y-44407190D01*
X44329982Y-44437035D01*
X44394128Y-44491947D01*
X44481421Y-44573334D01*
X44570535Y-44659922D01*
X44656441Y-44745247D01*
X44733327Y-44823108D01*
X44796564Y-44888697D01*
X44841523Y-44937205D01*
X44863576Y-44963825D01*
X44864396Y-44965195D01*
X44866834Y-44983463D01*
X44857650Y-45013295D01*
X44834574Y-45058721D01*
X44795337Y-45123770D01*
X44737670Y-45212470D01*
X44660795Y-45326657D01*
X44592570Y-45427162D01*
X44531582Y-45517303D01*
X44481356Y-45591849D01*
X44445416Y-45645565D01*
X44427287Y-45673218D01*
X44426146Y-45675095D01*
X44428359Y-45701590D01*
X44445138Y-45753086D01*
X44473142Y-45819851D01*
X44483122Y-45841172D01*
X44526672Y-45936159D01*
X44573134Y-46043937D01*
X44610877Y-46137192D01*
X44638073Y-46206406D01*
X44659675Y-46259006D01*
X44672158Y-46286497D01*
X44673709Y-46288616D01*
X44696668Y-46292124D01*
X44750786Y-46301738D01*
X44828868Y-46316089D01*
X44923719Y-46333807D01*
X45028143Y-46353525D01*
X45134944Y-46373874D01*
X45236926Y-46393486D01*
X45326894Y-46410991D01*
X45397653Y-46425022D01*
X45442006Y-46434209D01*
X45452885Y-46436807D01*
X45464122Y-46443218D01*
X45472605Y-46457697D01*
X45478714Y-46485133D01*
X45482832Y-46530411D01*
X45485341Y-46598420D01*
X45486621Y-46694047D01*
X45487054Y-46822180D01*
X45487077Y-46874701D01*
X45487077Y-47301845D01*
X45384500Y-47322091D01*
X45327431Y-47333070D01*
X45242269Y-47349095D01*
X45139372Y-47368233D01*
X45029096Y-47388551D01*
X44998615Y-47394132D01*
X44896855Y-47413917D01*
X44808205Y-47433373D01*
X44740108Y-47450697D01*
X44700004Y-47464088D01*
X44693323Y-47468079D01*
X44676919Y-47496342D01*
X44653399Y-47551109D01*
X44627316Y-47621588D01*
X44622142Y-47636769D01*
X44587956Y-47730896D01*
X44545523Y-47837101D01*
X44503997Y-47932473D01*
X44503792Y-47932916D01*
X44434640Y-48082525D01*
X44889512Y-48751617D01*
X44597500Y-49044116D01*
X44509180Y-49131170D01*
X44428625Y-49207909D01*
X44360360Y-49270237D01*
X44308908Y-49314056D01*
X44278794Y-49335270D01*
X44274474Y-49336616D01*
X44249111Y-49326016D01*
X44197358Y-49296547D01*
X44124868Y-49251705D01*
X44037294Y-49194984D01*
X43942612Y-49131462D01*
X43846516Y-49066668D01*
X43760837Y-49010287D01*
X43691016Y-48965788D01*
X43642494Y-48936639D01*
X43620782Y-48926308D01*
X43594293Y-48935050D01*
X43544062Y-48958087D01*
X43480451Y-48990631D01*
X43473708Y-48994249D01*
X43388046Y-49037210D01*
X43329306Y-49058279D01*
X43292772Y-49058503D01*
X43273731Y-49038928D01*
X43273620Y-49038654D01*
X43264102Y-49015472D01*
X43241403Y-48960441D01*
X43207282Y-48877822D01*
X43163500Y-48771872D01*
X43111816Y-48646852D01*
X43053992Y-48507020D01*
X42997991Y-48371637D01*
X42936447Y-48222234D01*
X42879939Y-48083832D01*
X42830161Y-47960673D01*
X42788806Y-47857002D01*
X42757568Y-47777059D01*
X42738141Y-47725088D01*
X42732154Y-47705692D01*
X42747168Y-47683443D01*
X42786439Y-47647982D01*
X42838807Y-47608887D01*
X42987941Y-47485245D01*
X43104511Y-47343522D01*
X43187118Y-47186704D01*
X43234366Y-47017775D01*
X43244857Y-46839722D01*
X43237231Y-46757539D01*
X43195682Y-46587031D01*
X43124123Y-46436459D01*
X43026995Y-46307309D01*
X42908734Y-46201064D01*
X42773780Y-46119210D01*
X42626571Y-46063232D01*
X42471544Y-46034615D01*
X42313139Y-46034844D01*
X42155794Y-46065405D01*
X42003946Y-46127782D01*
X41862035Y-46223460D01*
X41802803Y-46277572D01*
X41689203Y-46416520D01*
X41610106Y-46568361D01*
X41564986Y-46728667D01*
X41553316Y-46893012D01*
X41574569Y-47056971D01*
X41628220Y-47216118D01*
X41713740Y-47366025D01*
X41830605Y-47502267D01*
X41961193Y-47608887D01*
X42015588Y-47649642D01*
X42054014Y-47684718D01*
X42067846Y-47705726D01*
X42060603Y-47728635D01*
X42040005Y-47783365D01*
X42007746Y-47865672D01*
X41965521Y-47971315D01*
X41915023Y-48096050D01*
X41857948Y-48235636D01*
X41801854Y-48371670D01*
X41739967Y-48521201D01*
X41682644Y-48659767D01*
X41631644Y-48783107D01*
X41588727Y-48886964D01*
X41555653Y-48967080D01*
X41534181Y-49019195D01*
X41526225Y-49038654D01*
X41507429Y-49058423D01*
X41471074Y-49058365D01*
X41412479Y-49037441D01*
X41326968Y-48994613D01*
X41326292Y-48994249D01*
X41261907Y-48961012D01*
X41209861Y-48936802D01*
X41180512Y-48926404D01*
X41179217Y-48926308D01*
X41157124Y-48936855D01*
X41108348Y-48966184D01*
X41038331Y-49010827D01*
X40952514Y-49067314D01*
X40857388Y-49131462D01*
X40760540Y-49196411D01*
X40673253Y-49252896D01*
X40601181Y-49297421D01*
X40549977Y-49326490D01*
X40525526Y-49336616D01*
X40503010Y-49323307D01*
X40457742Y-49286112D01*
X40394244Y-49229128D01*
X40317039Y-49156449D01*
X40230651Y-49072171D01*
X40202399Y-49044016D01*
X39910287Y-48751416D01*
X40132631Y-48425104D01*
X40200202Y-48324897D01*
X40259507Y-48234963D01*
X40307217Y-48160510D01*
X40340007Y-48106751D01*
X40354548Y-48078894D01*
X40354974Y-48076912D01*
X40347308Y-48050655D01*
X40326689Y-47997837D01*
X40296685Y-47927310D01*
X40275625Y-47880093D01*
X40236248Y-47789694D01*
X40199165Y-47698366D01*
X40170415Y-47621200D01*
X40162605Y-47597692D01*
X40140417Y-47534916D01*
X40118727Y-47486411D01*
X40106813Y-47468079D01*
X40080523Y-47456859D01*
X40023142Y-47440954D01*
X39942118Y-47422167D01*
X39844895Y-47402299D01*
X39801385Y-47394132D01*
X39690896Y-47373829D01*
X39584916Y-47354170D01*
X39493801Y-47337088D01*
X39427908Y-47324518D01*
X39415500Y-47322091D01*
X39312923Y-47301845D01*
X39312923Y-46874701D01*
X39313153Y-46734246D01*
X39314099Y-46627979D01*
X39316141Y-46551013D01*
X39319662Y-46498460D01*
X39325043Y-46465433D01*
X39332666Y-46447045D01*
X39342912Y-46438408D01*
X39347115Y-46436807D01*
X39372470Y-46431127D01*
X39428484Y-46419795D01*
X39507964Y-46404179D01*
X39603712Y-46385647D01*
X39708533Y-46365569D01*
X39815232Y-46345312D01*
X39916613Y-46326246D01*
X40005479Y-46309739D01*
X40074637Y-46297159D01*
X40116889Y-46289875D01*
X40126290Y-46288616D01*
X40134807Y-46271763D01*
X40153660Y-46226870D01*
X40179324Y-46162430D01*
X40189123Y-46137192D01*
X40228648Y-46039686D01*
X40275192Y-45931959D01*
X40316877Y-45841172D01*
X40347550Y-45771753D01*
X40367956Y-45714710D01*
X40374768Y-45679777D01*
X40373682Y-45675095D01*
X40359285Y-45652991D01*
X40326412Y-45603831D01*
X40278590Y-45532848D01*
X40219348Y-45445278D01*
X40152215Y-45346357D01*
X40138941Y-45326830D01*
X40061046Y-45211140D01*
X40003787Y-45123044D01*
X39964881Y-45058486D01*
X39942044Y-45013411D01*
X39932994Y-44983763D01*
X39935448Y-44965485D01*
X39935511Y-44965369D01*
X39954827Y-44941361D01*
X39997551Y-44894947D01*
X40059051Y-44830937D01*
X40134698Y-44754145D01*
X40219861Y-44669382D01*
X40229465Y-44659922D01*
X40336790Y-44555989D01*
X40419615Y-44479675D01*
X40479605Y-44429571D01*
X40518423Y-44404270D01*
X40535520Y-44401004D01*
X40560473Y-44415250D01*
X40612255Y-44448156D01*
X40685520Y-44496208D01*
X40774920Y-44555890D01*
X40875111Y-44623688D01*
X40898501Y-44639639D01*
X41230593Y-44866420D01*
X41380565Y-44798353D01*
X41471770Y-44758685D01*
X41569669Y-44718791D01*
X41653831Y-44686983D01*
X41657538Y-44685674D01*
X41723369Y-44661576D01*
X41774116Y-44641200D01*
X41798842Y-44628936D01*
X41798884Y-44628901D01*
X41806729Y-44606734D01*
X41820066Y-44552217D01*
X41837570Y-44471480D01*
X41857917Y-44370650D01*
X41879782Y-44255856D01*
X41881571Y-44246178D01*
X41903504Y-44127904D01*
X41923640Y-44020542D01*
X41940680Y-43930917D01*
X41953328Y-43865851D01*
X41960284Y-43832168D01*
X41960406Y-43831654D01*
X41964639Y-43817325D01*
X41972871Y-43806507D01*
X41990033Y-43798706D01*
X42021058Y-43793429D01*
X42070878Y-43790182D01*
X42144424Y-43788472D01*
X42246629Y-43787807D01*
X42382425Y-43787693D01*
X42400000Y-43787692D01*
X42539878Y-43787776D01*
D12*
X71310000Y-60761252D02*
X71310000Y-60238748D01*
X69890000Y-60761252D02*
X69890000Y-60238748D01*
X79265000Y-52835000D02*
X82150000Y-52835000D01*
X79265000Y-51265000D02*
X79265000Y-52835000D01*
X82150000Y-51265000D02*
X79265000Y-51265000D01*
X82415000Y-55900000D02*
X82415000Y-58785000D01*
X82415000Y-58785000D02*
X83985000Y-58785000D01*
X83985000Y-58785000D02*
X83985000Y-55900000D01*
X71263757Y-35914991D02*
X71786261Y-35914991D01*
X71263757Y-37334991D02*
X71786261Y-37334991D01*
X73715000Y-59100000D02*
X73715000Y-61985000D01*
X73715000Y-61985000D02*
X75285000Y-61985000D01*
X75285000Y-61985000D02*
X75285000Y-59100000D01*
X75865011Y-59863757D02*
X75865011Y-60386261D01*
X77285011Y-59863757D02*
X77285011Y-60386261D01*
X95115000Y-40385000D02*
X98000000Y-40385000D01*
X95115000Y-38815000D02*
X95115000Y-40385000D01*
X98000000Y-38815000D02*
X95115000Y-38815000D01*
X97311252Y-42360000D02*
X96788748Y-42360000D01*
X97311252Y-40940000D02*
X96788748Y-40940000D01*
X40250000Y-40200000D02*
X40250000Y-43150000D01*
X43350000Y-42600000D02*
X43350000Y-40200000D01*
X49560000Y-45365000D02*
X47100000Y-45365000D01*
X49560000Y-46835000D02*
X49560000Y-45365000D01*
X47100000Y-46835000D02*
X49560000Y-46835000D01*
X36420000Y-60340000D02*
X36420000Y-58360000D01*
X36770000Y-60340000D02*
X36420000Y-60340000D01*
X36770000Y-61110000D02*
X36770000Y-60340000D01*
X34720000Y-61110000D02*
X36770000Y-61110000D01*
X32600000Y-61110000D02*
X32900000Y-61110000D01*
X32600000Y-60310000D02*
X32600000Y-61110000D01*
X31300000Y-60310000D02*
X32600000Y-60310000D01*
X31300000Y-39490000D02*
X31300000Y-60310000D01*
X32600000Y-39490000D02*
X31300000Y-39490000D01*
X32600000Y-38690000D02*
X32600000Y-39490000D01*
X32900000Y-38690000D02*
X32600000Y-38690000D01*
X36770000Y-38690000D02*
X34720000Y-38690000D01*
X36770000Y-39460000D02*
X36770000Y-38690000D01*
X36420000Y-39460000D02*
X36770000Y-39460000D01*
X36420000Y-41440000D02*
X36420000Y-39460000D01*
X37010000Y-41440000D02*
X36420000Y-41440000D01*
X41640000Y-63090000D02*
X41640000Y-63680000D01*
X41640000Y-63680000D02*
X39660000Y-63680000D01*
X39660000Y-63680000D02*
X39660000Y-63330000D01*
X39660000Y-63330000D02*
X38890000Y-63330000D01*
X38890000Y-63330000D02*
X38890000Y-65380000D01*
X38890000Y-67200000D02*
X38890000Y-67500000D01*
X38890000Y-67500000D02*
X39690000Y-67500000D01*
X39690000Y-67500000D02*
X39690000Y-68800000D01*
X39690000Y-68800000D02*
X60510000Y-68800000D01*
X60510000Y-68800000D02*
X60510000Y-67500000D01*
X60510000Y-67500000D02*
X61310000Y-67500000D01*
X61310000Y-67500000D02*
X61310000Y-67200000D01*
X61310000Y-65380000D02*
X61310000Y-63330000D01*
X61310000Y-63330000D02*
X60540000Y-63330000D01*
X60540000Y-63330000D02*
X60540000Y-63680000D01*
X60540000Y-63680000D02*
X58560000Y-63680000D01*
X90540000Y-63680000D02*
X88560000Y-63680000D01*
X90540000Y-63330000D02*
X90540000Y-63680000D01*
X91310000Y-63330000D02*
X90540000Y-63330000D01*
X91310000Y-65380000D02*
X91310000Y-63330000D01*
X91310000Y-67500000D02*
X91310000Y-67200000D01*
X90510000Y-67500000D02*
X91310000Y-67500000D01*
X90510000Y-68800000D02*
X90510000Y-67500000D01*
X82690000Y-68800000D02*
X90510000Y-68800000D01*
X82690000Y-67500000D02*
X82690000Y-68800000D01*
X81890000Y-67500000D02*
X82690000Y-67500000D01*
X81890000Y-67200000D02*
X81890000Y-67500000D01*
X81890000Y-63330000D02*
X81890000Y-65380000D01*
X82660000Y-63330000D02*
X81890000Y-63330000D01*
X82660000Y-63680000D02*
X82660000Y-63330000D01*
X84640000Y-63680000D02*
X82660000Y-63680000D01*
X84640000Y-63090000D02*
X84640000Y-63680000D01*
X92990000Y-58660000D02*
X93580000Y-58660000D01*
X93580000Y-58660000D02*
X93580000Y-60640000D01*
X93580000Y-60640000D02*
X93230000Y-60640000D01*
X93230000Y-60640000D02*
X93230000Y-61410000D01*
X93230000Y-61410000D02*
X95280000Y-61410000D01*
X97100000Y-61410000D02*
X97400000Y-61410000D01*
X97400000Y-61410000D02*
X97400000Y-60610000D01*
X97400000Y-60610000D02*
X98700000Y-60610000D01*
X98700000Y-60610000D02*
X98700000Y-52790000D01*
X98700000Y-52790000D02*
X97400000Y-52790000D01*
X97400000Y-52790000D02*
X97400000Y-51990000D01*
X97400000Y-51990000D02*
X97100000Y-51990000D01*
X95280000Y-51990000D02*
X93230000Y-51990000D01*
X93230000Y-51990000D02*
X93230000Y-52760000D01*
X93230000Y-52760000D02*
X93580000Y-52760000D01*
X93580000Y-52760000D02*
X93580000Y-54740000D01*
X91770000Y-46830000D02*
X91770000Y-45500000D01*
X93100000Y-46830000D02*
X91770000Y-46830000D01*
X94370000Y-46830000D02*
X94370000Y-44170000D01*
X94370000Y-44170000D02*
X99510000Y-44170000D01*
X94370000Y-46830000D02*
X99510000Y-46830000D01*
X99510000Y-46830000D02*
X99510000Y-44170000D01*
X99510000Y-50430000D02*
X99510000Y-47770000D01*
X94370000Y-50430000D02*
X99510000Y-50430000D01*
X94370000Y-47770000D02*
X99510000Y-47770000D01*
X94370000Y-50430000D02*
X94370000Y-47770000D01*
X93100000Y-50430000D02*
X91770000Y-50430000D01*
X91770000Y-50430000D02*
X91770000Y-49100000D01*
X70640000Y-31620000D02*
X70640000Y-32550000D01*
X70640000Y-34780000D02*
X70640000Y-33850000D01*
X70640000Y-34780000D02*
X72800000Y-34780000D01*
X70640000Y-31620000D02*
X72100000Y-31620000D01*
X76560000Y-34780000D02*
X75100000Y-34780000D01*
X76560000Y-31620000D02*
X74400000Y-31620000D01*
X76560000Y-31620000D02*
X76560000Y-32550000D01*
X76560000Y-34780000D02*
X76560000Y-33850000D01*
X67188748Y-63060000D02*
X67711252Y-63060000D01*
X67188748Y-61640000D02*
X67711252Y-61640000D01*
X67188748Y-65060000D02*
X67711252Y-65060000D01*
X67188748Y-63640000D02*
X67711252Y-63640000D01*
X67711252Y-67060000D02*
X67188748Y-67060000D01*
X67711252Y-65640000D02*
X67188748Y-65640000D01*
X75638748Y-35890000D02*
X76161252Y-35890000D01*
X75638748Y-37310000D02*
X76161252Y-37310000D01*
X47838748Y-49310000D02*
X48361252Y-49310000D01*
X47838748Y-47890000D02*
X48361252Y-47890000D01*
X60170000Y-37430000D02*
X66630000Y-37430000D01*
X60170000Y-32900000D02*
X60170000Y-35500000D01*
X60170000Y-30970000D02*
X66630000Y-30970000D01*
X66630000Y-32900000D02*
X66630000Y-35500000D01*
X60170000Y-31000000D02*
X60170000Y-30970000D01*
X60170000Y-37430000D02*
X60170000Y-37400000D01*
X66630000Y-37430000D02*
X66630000Y-37400000D01*
X66630000Y-30970000D02*
X66630000Y-31000000D01*
X45830000Y-30970000D02*
X45830000Y-31000000D01*
X45830000Y-37430000D02*
X45830000Y-37400000D01*
X39370000Y-37430000D02*
X39370000Y-37400000D01*
X39370000Y-31000000D02*
X39370000Y-30970000D01*
X45830000Y-32900000D02*
X45830000Y-35500000D01*
X39370000Y-30970000D02*
X45830000Y-30970000D01*
X39370000Y-32900000D02*
X39370000Y-35500000D01*
X39370000Y-37430000D02*
X45830000Y-37430000D01*
X75010000Y-66835000D02*
X75010000Y-67310000D01*
X75010000Y-67310000D02*
X74535000Y-67310000D01*
X70790000Y-63565000D02*
X70790000Y-63090000D01*
X70790000Y-63090000D02*
X71265000Y-63090000D01*
X70790000Y-66835000D02*
X70790000Y-67310000D01*
X70790000Y-67310000D02*
X71265000Y-67310000D01*
X75010000Y-63565000D02*
X75010000Y-63090000D01*
X87700000Y-50710000D02*
X81690000Y-50710000D01*
X85450000Y-43890000D02*
X81690000Y-43890000D01*
X81690000Y-50710000D02*
X81690000Y-49450000D01*
X81690000Y-43890000D02*
X81690000Y-45150000D01*
X91770000Y-43170000D02*
X94430000Y-43170000D01*
X91770000Y-40570000D02*
X91770000Y-43170000D01*
X94430000Y-40570000D02*
X94430000Y-43170000D01*
X91770000Y-40570000D02*
X94430000Y-40570000D01*
X91770000Y-39300000D02*
X91770000Y-37970000D01*
X91770000Y-37970000D02*
X93100000Y-37970000D01*
X49190000Y-34360000D02*
X49570000Y-34360000D01*
X49190000Y-30310000D02*
X49190000Y-30050000D01*
X49190000Y-34360000D02*
X49190000Y-32590000D01*
X56810000Y-34360000D02*
X56430000Y-34360000D01*
X56810000Y-32590000D02*
X56810000Y-34360000D01*
X56810000Y-30050000D02*
X56810000Y-30310000D01*
D11*
X78566666Y-40452380D02*
X78566666Y-41166666D01*
X78519047Y-41309523D01*
X78423809Y-41404761D01*
X78280952Y-41452380D01*
X78185714Y-41452380D01*
X78947619Y-40452380D02*
X79566666Y-40452380D01*
X79233333Y-40833333D01*
X79376190Y-40833333D01*
X79471428Y-40880952D01*
X79519047Y-40928571D01*
X79566666Y-41023809D01*
X79566666Y-41261904D01*
X79519047Y-41357142D01*
X79471428Y-41404761D01*
X79376190Y-41452380D01*
X79090476Y-41452380D01*
X78995238Y-41404761D01*
X78947619Y-41357142D01*
X89909523Y-49752380D02*
X89433333Y-49752380D01*
X89385714Y-50228571D01*
X89433333Y-50180952D01*
X89528571Y-50133333D01*
X89766666Y-50133333D01*
X89861904Y-50180952D01*
X89909523Y-50228571D01*
X89957142Y-50323809D01*
X89957142Y-50561904D01*
X89909523Y-50657142D01*
X89861904Y-50704761D01*
X89766666Y-50752380D01*
X89528571Y-50752380D01*
X89433333Y-50704761D01*
X89385714Y-50657142D01*
X90242857Y-49752380D02*
X90576190Y-50752380D01*
X90909523Y-49752380D01*
X88861904Y-55652380D02*
X89480952Y-55652380D01*
X89147619Y-56033333D01*
X89290476Y-56033333D01*
X89385714Y-56080952D01*
X89433333Y-56128571D01*
X89480952Y-56223809D01*
X89480952Y-56461904D01*
X89433333Y-56557142D01*
X89385714Y-56604761D01*
X89290476Y-56652380D01*
X89004761Y-56652380D01*
X88909523Y-56604761D01*
X88861904Y-56557142D01*
X89766666Y-55652380D02*
X90100000Y-56652380D01*
X90433333Y-55652380D01*
X90671428Y-55652380D02*
X91290476Y-55652380D01*
X90957142Y-56033333D01*
X91100000Y-56033333D01*
X91195238Y-56080952D01*
X91242857Y-56128571D01*
X91290476Y-56223809D01*
X91290476Y-56461904D01*
X91242857Y-56557142D01*
X91195238Y-56604761D01*
X91100000Y-56652380D01*
X90814285Y-56652380D01*
X90719047Y-56604761D01*
X90671428Y-56557142D01*
X79961904Y-61552380D02*
X80580952Y-61552380D01*
X80247619Y-61933333D01*
X80390476Y-61933333D01*
X80485714Y-61980952D01*
X80533333Y-62028571D01*
X80580952Y-62123809D01*
X80580952Y-62361904D01*
X80533333Y-62457142D01*
X80485714Y-62504761D01*
X80390476Y-62552380D01*
X80104761Y-62552380D01*
X80009523Y-62504761D01*
X79961904Y-62457142D01*
X80866666Y-61552380D02*
X81200000Y-62552380D01*
X81533333Y-61552380D01*
X81771428Y-61552380D02*
X82390476Y-61552380D01*
X82057142Y-61933333D01*
X82200000Y-61933333D01*
X82295238Y-61980952D01*
X82342857Y-62028571D01*
X82390476Y-62123809D01*
X82390476Y-62361904D01*
X82342857Y-62457142D01*
X82295238Y-62504761D01*
X82200000Y-62552380D01*
X81914285Y-62552380D01*
X81819047Y-62504761D01*
X81771428Y-62457142D01*
X84509523Y-61552380D02*
X84033333Y-61552380D01*
X83985714Y-62028571D01*
X84033333Y-61980952D01*
X84128571Y-61933333D01*
X84366666Y-61933333D01*
X84461904Y-61980952D01*
X84509523Y-62028571D01*
X84557142Y-62123809D01*
X84557142Y-62361904D01*
X84509523Y-62457142D01*
X84461904Y-62504761D01*
X84366666Y-62552380D01*
X84128571Y-62552380D01*
X84033333Y-62504761D01*
X83985714Y-62457142D01*
X84842857Y-61552380D02*
X85176190Y-62552380D01*
X85509523Y-61552380D01*
D10*
X41435714Y-57278571D02*
X41721428Y-57278571D01*
X41864285Y-57350000D01*
X42007142Y-57492857D01*
X42078571Y-57778571D01*
X42078571Y-58278571D01*
X42007142Y-58564285D01*
X41864285Y-58707142D01*
X41721428Y-58778571D01*
X41435714Y-58778571D01*
X41292857Y-58707142D01*
X41150000Y-58564285D01*
X41078571Y-58278571D01*
X41078571Y-57778571D01*
X41150000Y-57492857D01*
X41292857Y-57350000D01*
X41435714Y-57278571D01*
X42721428Y-58778571D02*
X42721428Y-57278571D01*
X43292857Y-57278571D01*
X43435714Y-57350000D01*
X43507142Y-57421428D01*
X43578571Y-57564285D01*
X43578571Y-57778571D01*
X43507142Y-57921428D01*
X43435714Y-57992857D01*
X43292857Y-58064285D01*
X42721428Y-58064285D01*
X44221428Y-58778571D02*
X44221428Y-57278571D01*
X45078571Y-58778571D02*
X44435714Y-57921428D01*
X45078571Y-57278571D02*
X44221428Y-58135714D01*
X45721428Y-57992857D02*
X46221428Y-57992857D01*
X46435714Y-58778571D02*
X45721428Y-58778571D01*
X45721428Y-57278571D01*
X46435714Y-57278571D01*
X47364285Y-58064285D02*
X47364285Y-58778571D01*
X46864285Y-57278571D02*
X47364285Y-58064285D01*
X47864285Y-57278571D01*
D11*
X50188095Y-38452380D02*
X50188095Y-39261904D01*
X50235714Y-39357142D01*
X50283333Y-39404761D01*
X50378571Y-39452380D01*
X50569047Y-39452380D01*
X50664285Y-39404761D01*
X50711904Y-39357142D01*
X50759523Y-39261904D01*
X50759523Y-38452380D01*
X51759523Y-39452380D02*
X51188095Y-39452380D01*
X51473809Y-39452380D02*
X51473809Y-38452380D01*
X51378571Y-38595238D01*
X51283333Y-38690476D01*
X51188095Y-38738095D01*
X72283333Y-60457142D02*
X72235714Y-60504761D01*
X72092857Y-60552380D01*
X71997619Y-60552380D01*
X71854761Y-60504761D01*
X71759523Y-60409523D01*
X71711904Y-60314285D01*
X71664285Y-60123809D01*
X71664285Y-59980952D01*
X71711904Y-59790476D01*
X71759523Y-59695238D01*
X71854761Y-59600000D01*
X71997619Y-59552380D01*
X72092857Y-59552380D01*
X72235714Y-59600000D01*
X72283333Y-59647619D01*
X73235714Y-60552380D02*
X72664285Y-60552380D01*
X72950000Y-60552380D02*
X72950000Y-59552380D01*
X72854761Y-59695238D01*
X72759523Y-59790476D01*
X72664285Y-59838095D01*
X80983333Y-54007142D02*
X80935714Y-54054761D01*
X80792857Y-54102380D01*
X80697619Y-54102380D01*
X80554761Y-54054761D01*
X80459523Y-53959523D01*
X80411904Y-53864285D01*
X80364285Y-53673809D01*
X80364285Y-53530952D01*
X80411904Y-53340476D01*
X80459523Y-53245238D01*
X80554761Y-53150000D01*
X80697619Y-53102380D01*
X80792857Y-53102380D01*
X80935714Y-53150000D01*
X80983333Y-53197619D01*
X81364285Y-53197619D02*
X81411904Y-53150000D01*
X81507142Y-53102380D01*
X81745238Y-53102380D01*
X81840476Y-53150000D01*
X81888095Y-53197619D01*
X81935714Y-53292857D01*
X81935714Y-53388095D01*
X81888095Y-53530952D01*
X81316666Y-54102380D01*
X81935714Y-54102380D01*
X81133333Y-57257142D02*
X81085714Y-57304761D01*
X80942857Y-57352380D01*
X80847619Y-57352380D01*
X80704761Y-57304761D01*
X80609523Y-57209523D01*
X80561904Y-57114285D01*
X80514285Y-56923809D01*
X80514285Y-56780952D01*
X80561904Y-56590476D01*
X80609523Y-56495238D01*
X80704761Y-56400000D01*
X80847619Y-56352380D01*
X80942857Y-56352380D01*
X81085714Y-56400000D01*
X81133333Y-56447619D01*
X81466666Y-56352380D02*
X82085714Y-56352380D01*
X81752380Y-56733333D01*
X81895238Y-56733333D01*
X81990476Y-56780952D01*
X82038095Y-56828571D01*
X82085714Y-56923809D01*
X82085714Y-57161904D01*
X82038095Y-57257142D01*
X81990476Y-57304761D01*
X81895238Y-57352380D01*
X81609523Y-57352380D01*
X81514285Y-57304761D01*
X81466666Y-57257142D01*
X71358342Y-38607142D02*
X71310723Y-38654761D01*
X71167866Y-38702380D01*
X71072628Y-38702380D01*
X70929770Y-38654761D01*
X70834532Y-38559523D01*
X70786913Y-38464285D01*
X70739294Y-38273809D01*
X70739294Y-38130952D01*
X70786913Y-37940476D01*
X70834532Y-37845238D01*
X70929770Y-37750000D01*
X71072628Y-37702380D01*
X71167866Y-37702380D01*
X71310723Y-37750000D01*
X71358342Y-37797619D01*
X72215485Y-38035714D02*
X72215485Y-38702380D01*
X71977389Y-37654761D02*
X71739294Y-38369047D01*
X72358342Y-38369047D01*
X74333333Y-57907142D02*
X74285714Y-57954761D01*
X74142857Y-58002380D01*
X74047619Y-58002380D01*
X73904761Y-57954761D01*
X73809523Y-57859523D01*
X73761904Y-57764285D01*
X73714285Y-57573809D01*
X73714285Y-57430952D01*
X73761904Y-57240476D01*
X73809523Y-57145238D01*
X73904761Y-57050000D01*
X74047619Y-57002380D01*
X74142857Y-57002380D01*
X74285714Y-57050000D01*
X74333333Y-57097619D01*
X75238095Y-57002380D02*
X74761904Y-57002380D01*
X74714285Y-57478571D01*
X74761904Y-57430952D01*
X74857142Y-57383333D01*
X75095238Y-57383333D01*
X75190476Y-57430952D01*
X75238095Y-57478571D01*
X75285714Y-57573809D01*
X75285714Y-57811904D01*
X75238095Y-57907142D01*
X75190476Y-57954761D01*
X75095238Y-58002380D01*
X74857142Y-58002380D01*
X74761904Y-57954761D01*
X74714285Y-57907142D01*
X76383333Y-57907142D02*
X76335714Y-57954761D01*
X76192857Y-58002380D01*
X76097619Y-58002380D01*
X75954761Y-57954761D01*
X75859523Y-57859523D01*
X75811904Y-57764285D01*
X75764285Y-57573809D01*
X75764285Y-57430952D01*
X75811904Y-57240476D01*
X75859523Y-57145238D01*
X75954761Y-57050000D01*
X76097619Y-57002380D01*
X76192857Y-57002380D01*
X76335714Y-57050000D01*
X76383333Y-57097619D01*
X77240476Y-57002380D02*
X77050000Y-57002380D01*
X76954761Y-57050000D01*
X76907142Y-57097619D01*
X76811904Y-57240476D01*
X76764285Y-57430952D01*
X76764285Y-57811904D01*
X76811904Y-57907142D01*
X76859523Y-57954761D01*
X76954761Y-58002380D01*
X77145238Y-58002380D01*
X77240476Y-57954761D01*
X77288095Y-57907142D01*
X77335714Y-57811904D01*
X77335714Y-57573809D01*
X77288095Y-57478571D01*
X77240476Y-57430952D01*
X77145238Y-57383333D01*
X76954761Y-57383333D01*
X76859523Y-57430952D01*
X76811904Y-57478571D01*
X76764285Y-57573809D01*
X96833333Y-38377142D02*
X96785714Y-38424761D01*
X96642857Y-38472380D01*
X96547619Y-38472380D01*
X96404761Y-38424761D01*
X96309523Y-38329523D01*
X96261904Y-38234285D01*
X96214285Y-38043809D01*
X96214285Y-37900952D01*
X96261904Y-37710476D01*
X96309523Y-37615238D01*
X96404761Y-37520000D01*
X96547619Y-37472380D01*
X96642857Y-37472380D01*
X96785714Y-37520000D01*
X96833333Y-37567619D01*
X97166666Y-37472380D02*
X97833333Y-37472380D01*
X97404761Y-38472380D01*
X96883333Y-43657142D02*
X96835714Y-43704761D01*
X96692857Y-43752380D01*
X96597619Y-43752380D01*
X96454761Y-43704761D01*
X96359523Y-43609523D01*
X96311904Y-43514285D01*
X96264285Y-43323809D01*
X96264285Y-43180952D01*
X96311904Y-42990476D01*
X96359523Y-42895238D01*
X96454761Y-42800000D01*
X96597619Y-42752380D01*
X96692857Y-42752380D01*
X96835714Y-42800000D01*
X96883333Y-42847619D01*
X97454761Y-43180952D02*
X97359523Y-43133333D01*
X97311904Y-43085714D01*
X97264285Y-42990476D01*
X97264285Y-42942857D01*
X97311904Y-42847619D01*
X97359523Y-42800000D01*
X97454761Y-42752380D01*
X97645238Y-42752380D01*
X97740476Y-42800000D01*
X97788095Y-42847619D01*
X97835714Y-42942857D01*
X97835714Y-42990476D01*
X97788095Y-43085714D01*
X97740476Y-43133333D01*
X97645238Y-43180952D01*
X97454761Y-43180952D01*
X97359523Y-43228571D01*
X97311904Y-43276190D01*
X97264285Y-43371428D01*
X97264285Y-43561904D01*
X97311904Y-43657142D01*
X97359523Y-43704761D01*
X97454761Y-43752380D01*
X97645238Y-43752380D01*
X97740476Y-43704761D01*
X97788095Y-43657142D01*
X97835714Y-43561904D01*
X97835714Y-43371428D01*
X97788095Y-43276190D01*
X97740476Y-43228571D01*
X97645238Y-43180952D01*
X38361904Y-41832380D02*
X38361904Y-40832380D01*
X38600000Y-40832380D01*
X38742857Y-40880000D01*
X38838095Y-40975238D01*
X38885714Y-41070476D01*
X38933333Y-41260952D01*
X38933333Y-41403809D01*
X38885714Y-41594285D01*
X38838095Y-41689523D01*
X38742857Y-41784761D01*
X38600000Y-41832380D01*
X38361904Y-41832380D01*
X39885714Y-41832380D02*
X39314285Y-41832380D01*
X39600000Y-41832380D02*
X39600000Y-40832380D01*
X39504761Y-40975238D01*
X39409523Y-41070476D01*
X39314285Y-41118095D01*
X47161904Y-45152380D02*
X47161904Y-44152380D01*
X47400000Y-44152380D01*
X47542857Y-44200000D01*
X47638095Y-44295238D01*
X47685714Y-44390476D01*
X47733333Y-44580952D01*
X47733333Y-44723809D01*
X47685714Y-44914285D01*
X47638095Y-45009523D01*
X47542857Y-45104761D01*
X47400000Y-45152380D01*
X47161904Y-45152380D01*
X48114285Y-44247619D02*
X48161904Y-44200000D01*
X48257142Y-44152380D01*
X48495238Y-44152380D01*
X48590476Y-44200000D01*
X48638095Y-44247619D01*
X48685714Y-44342857D01*
X48685714Y-44438095D01*
X48638095Y-44580952D01*
X48066666Y-45152380D01*
X48685714Y-45152380D01*
X34238095Y-32252380D02*
X34238095Y-31252380D01*
X34238095Y-31728571D02*
X34809523Y-31728571D01*
X34809523Y-32252380D02*
X34809523Y-31252380D01*
X35809523Y-32252380D02*
X35238095Y-32252380D01*
X35523809Y-32252380D02*
X35523809Y-31252380D01*
X35428571Y-31395238D01*
X35333333Y-31490476D01*
X35238095Y-31538095D01*
X34238095Y-68652380D02*
X34238095Y-67652380D01*
X34238095Y-68128571D02*
X34809523Y-68128571D01*
X34809523Y-68652380D02*
X34809523Y-67652380D01*
X35238095Y-67747619D02*
X35285714Y-67700000D01*
X35380952Y-67652380D01*
X35619047Y-67652380D01*
X35714285Y-67700000D01*
X35761904Y-67747619D01*
X35809523Y-67842857D01*
X35809523Y-67938095D01*
X35761904Y-68080952D01*
X35190476Y-68652380D01*
X35809523Y-68652380D01*
X94238095Y-32252380D02*
X94238095Y-31252380D01*
X94238095Y-31728571D02*
X94809523Y-31728571D01*
X94809523Y-32252380D02*
X94809523Y-31252380D01*
X95190476Y-31252380D02*
X95809523Y-31252380D01*
X95476190Y-31633333D01*
X95619047Y-31633333D01*
X95714285Y-31680952D01*
X95761904Y-31728571D01*
X95809523Y-31823809D01*
X95809523Y-32061904D01*
X95761904Y-32157142D01*
X95714285Y-32204761D01*
X95619047Y-32252380D01*
X95333333Y-32252380D01*
X95238095Y-32204761D01*
X95190476Y-32157142D01*
X94238095Y-68652380D02*
X94238095Y-67652380D01*
X94238095Y-68128571D02*
X94809523Y-68128571D01*
X94809523Y-68652380D02*
X94809523Y-67652380D01*
X95714285Y-67985714D02*
X95714285Y-68652380D01*
X95476190Y-67604761D02*
X95238095Y-68319047D01*
X95857142Y-68319047D01*
X37166666Y-58802380D02*
X37166666Y-59516666D01*
X37119047Y-59659523D01*
X37023809Y-59754761D01*
X36880952Y-59802380D01*
X36785714Y-59802380D01*
X38166666Y-59802380D02*
X37595238Y-59802380D01*
X37880952Y-59802380D02*
X37880952Y-58802380D01*
X37785714Y-58945238D01*
X37690476Y-59040476D01*
X37595238Y-59088095D01*
X49766666Y-61342380D02*
X49766666Y-62056666D01*
X49719047Y-62199523D01*
X49623809Y-62294761D01*
X49480952Y-62342380D01*
X49385714Y-62342380D01*
X50195238Y-61437619D02*
X50242857Y-61390000D01*
X50338095Y-61342380D01*
X50576190Y-61342380D01*
X50671428Y-61390000D01*
X50719047Y-61437619D01*
X50766666Y-61532857D01*
X50766666Y-61628095D01*
X50719047Y-61770952D01*
X50147619Y-62342380D01*
X50766666Y-62342380D01*
X89166666Y-62352380D02*
X89166666Y-63066666D01*
X89119047Y-63209523D01*
X89023809Y-63304761D01*
X88880952Y-63352380D01*
X88785714Y-63352380D01*
X90119047Y-62352380D02*
X89642857Y-62352380D01*
X89595238Y-62828571D01*
X89642857Y-62780952D01*
X89738095Y-62733333D01*
X89976190Y-62733333D01*
X90071428Y-62780952D01*
X90119047Y-62828571D01*
X90166666Y-62923809D01*
X90166666Y-63161904D01*
X90119047Y-63257142D01*
X90071428Y-63304761D01*
X89976190Y-63352380D01*
X89738095Y-63352380D01*
X89642857Y-63304761D01*
X89595238Y-63257142D01*
X92266666Y-59152380D02*
X92266666Y-59866666D01*
X92219047Y-60009523D01*
X92123809Y-60104761D01*
X91980952Y-60152380D01*
X91885714Y-60152380D01*
X93171428Y-59152380D02*
X92980952Y-59152380D01*
X92885714Y-59200000D01*
X92838095Y-59247619D01*
X92742857Y-59390476D01*
X92695238Y-59580952D01*
X92695238Y-59961904D01*
X92742857Y-60057142D01*
X92790476Y-60104761D01*
X92885714Y-60152380D01*
X93076190Y-60152380D01*
X93171428Y-60104761D01*
X93219047Y-60057142D01*
X93266666Y-59961904D01*
X93266666Y-59723809D01*
X93219047Y-59628571D01*
X93171428Y-59580952D01*
X93076190Y-59533333D01*
X92885714Y-59533333D01*
X92790476Y-59580952D01*
X92742857Y-59628571D01*
X92695238Y-59723809D01*
X90166666Y-44452380D02*
X90166666Y-45166666D01*
X90119047Y-45309523D01*
X90023809Y-45404761D01*
X89880952Y-45452380D01*
X89785714Y-45452380D01*
X90785714Y-44880952D02*
X90690476Y-44833333D01*
X90642857Y-44785714D01*
X90595238Y-44690476D01*
X90595238Y-44642857D01*
X90642857Y-44547619D01*
X90690476Y-44500000D01*
X90785714Y-44452380D01*
X90976190Y-44452380D01*
X91071428Y-44500000D01*
X91119047Y-44547619D01*
X91166666Y-44642857D01*
X91166666Y-44690476D01*
X91119047Y-44785714D01*
X91071428Y-44833333D01*
X90976190Y-44880952D01*
X90785714Y-44880952D01*
X90690476Y-44928571D01*
X90642857Y-44976190D01*
X90595238Y-45071428D01*
X90595238Y-45261904D01*
X90642857Y-45357142D01*
X90690476Y-45404761D01*
X90785714Y-45452380D01*
X90976190Y-45452380D01*
X91071428Y-45404761D01*
X91119047Y-45357142D01*
X91166666Y-45261904D01*
X91166666Y-45071428D01*
X91119047Y-44976190D01*
X91071428Y-44928571D01*
X90976190Y-44880952D01*
X90166666Y-48052380D02*
X90166666Y-48766666D01*
X90119047Y-48909523D01*
X90023809Y-49004761D01*
X89880952Y-49052380D01*
X89785714Y-49052380D01*
X90690476Y-49052380D02*
X90880952Y-49052380D01*
X90976190Y-49004761D01*
X91023809Y-48957142D01*
X91119047Y-48814285D01*
X91166666Y-48623809D01*
X91166666Y-48242857D01*
X91119047Y-48147619D01*
X91071428Y-48100000D01*
X90976190Y-48052380D01*
X90785714Y-48052380D01*
X90690476Y-48100000D01*
X90642857Y-48147619D01*
X90595238Y-48242857D01*
X90595238Y-48480952D01*
X90642857Y-48576190D01*
X90690476Y-48623809D01*
X90785714Y-48671428D01*
X90976190Y-48671428D01*
X91071428Y-48623809D01*
X91119047Y-48576190D01*
X91166666Y-48480952D01*
X69654761Y-35147619D02*
X69559523Y-35100000D01*
X69464285Y-35004761D01*
X69321428Y-34861904D01*
X69226190Y-34814285D01*
X69130952Y-34814285D01*
X69178571Y-35052380D02*
X69083333Y-35004761D01*
X68988095Y-34909523D01*
X68940476Y-34719047D01*
X68940476Y-34385714D01*
X68988095Y-34195238D01*
X69083333Y-34100000D01*
X69178571Y-34052380D01*
X69369047Y-34052380D01*
X69464285Y-34100000D01*
X69559523Y-34195238D01*
X69607142Y-34385714D01*
X69607142Y-34719047D01*
X69559523Y-34909523D01*
X69464285Y-35004761D01*
X69369047Y-35052380D01*
X69178571Y-35052380D01*
X70559523Y-35052380D02*
X69988095Y-35052380D01*
X70273809Y-35052380D02*
X70273809Y-34052380D01*
X70178571Y-34195238D01*
X70083333Y-34290476D01*
X69988095Y-34338095D01*
X77504761Y-32397619D02*
X77409523Y-32350000D01*
X77314285Y-32254761D01*
X77171428Y-32111904D01*
X77076190Y-32064285D01*
X76980952Y-32064285D01*
X77028571Y-32302380D02*
X76933333Y-32254761D01*
X76838095Y-32159523D01*
X76790476Y-31969047D01*
X76790476Y-31635714D01*
X76838095Y-31445238D01*
X76933333Y-31350000D01*
X77028571Y-31302380D01*
X77219047Y-31302380D01*
X77314285Y-31350000D01*
X77409523Y-31445238D01*
X77457142Y-31635714D01*
X77457142Y-31969047D01*
X77409523Y-32159523D01*
X77314285Y-32254761D01*
X77219047Y-32302380D01*
X77028571Y-32302380D01*
X77838095Y-31397619D02*
X77885714Y-31350000D01*
X77980952Y-31302380D01*
X78219047Y-31302380D01*
X78314285Y-31350000D01*
X78361904Y-31397619D01*
X78409523Y-31492857D01*
X78409523Y-31588095D01*
X78361904Y-31730952D01*
X77790476Y-32302380D01*
X78409523Y-32302380D01*
X64483333Y-62802380D02*
X64150000Y-62326190D01*
X63911904Y-62802380D02*
X63911904Y-61802380D01*
X64292857Y-61802380D01*
X64388095Y-61850000D01*
X64435714Y-61897619D01*
X64483333Y-61992857D01*
X64483333Y-62135714D01*
X64435714Y-62230952D01*
X64388095Y-62278571D01*
X64292857Y-62326190D01*
X63911904Y-62326190D01*
X65435714Y-62802380D02*
X64864285Y-62802380D01*
X65150000Y-62802380D02*
X65150000Y-61802380D01*
X65054761Y-61945238D01*
X64959523Y-62040476D01*
X64864285Y-62088095D01*
X64483333Y-64802380D02*
X64150000Y-64326190D01*
X63911904Y-64802380D02*
X63911904Y-63802380D01*
X64292857Y-63802380D01*
X64388095Y-63850000D01*
X64435714Y-63897619D01*
X64483333Y-63992857D01*
X64483333Y-64135714D01*
X64435714Y-64230952D01*
X64388095Y-64278571D01*
X64292857Y-64326190D01*
X63911904Y-64326190D01*
X64864285Y-63897619D02*
X64911904Y-63850000D01*
X65007142Y-63802380D01*
X65245238Y-63802380D01*
X65340476Y-63850000D01*
X65388095Y-63897619D01*
X65435714Y-63992857D01*
X65435714Y-64088095D01*
X65388095Y-64230952D01*
X64816666Y-64802380D01*
X65435714Y-64802380D01*
X64483333Y-66802380D02*
X64150000Y-66326190D01*
X63911904Y-66802380D02*
X63911904Y-65802380D01*
X64292857Y-65802380D01*
X64388095Y-65850000D01*
X64435714Y-65897619D01*
X64483333Y-65992857D01*
X64483333Y-66135714D01*
X64435714Y-66230952D01*
X64388095Y-66278571D01*
X64292857Y-66326190D01*
X63911904Y-66326190D01*
X64816666Y-65802380D02*
X65435714Y-65802380D01*
X65102380Y-66183333D01*
X65245238Y-66183333D01*
X65340476Y-66230952D01*
X65388095Y-66278571D01*
X65435714Y-66373809D01*
X65435714Y-66611904D01*
X65388095Y-66707142D01*
X65340476Y-66754761D01*
X65245238Y-66802380D01*
X64959523Y-66802380D01*
X64864285Y-66754761D01*
X64816666Y-66707142D01*
X75733333Y-38702380D02*
X75400000Y-38226190D01*
X75161904Y-38702380D02*
X75161904Y-37702380D01*
X75542857Y-37702380D01*
X75638095Y-37750000D01*
X75685714Y-37797619D01*
X75733333Y-37892857D01*
X75733333Y-38035714D01*
X75685714Y-38130952D01*
X75638095Y-38178571D01*
X75542857Y-38226190D01*
X75161904Y-38226190D01*
X76590476Y-38035714D02*
X76590476Y-38702380D01*
X76352380Y-37654761D02*
X76114285Y-38369047D01*
X76733333Y-38369047D01*
X47933333Y-50752380D02*
X47600000Y-50276190D01*
X47361904Y-50752380D02*
X47361904Y-49752380D01*
X47742857Y-49752380D01*
X47838095Y-49800000D01*
X47885714Y-49847619D01*
X47933333Y-49942857D01*
X47933333Y-50085714D01*
X47885714Y-50180952D01*
X47838095Y-50228571D01*
X47742857Y-50276190D01*
X47361904Y-50276190D01*
X48838095Y-49752380D02*
X48361904Y-49752380D01*
X48314285Y-50228571D01*
X48361904Y-50180952D01*
X48457142Y-50133333D01*
X48695238Y-50133333D01*
X48790476Y-50180952D01*
X48838095Y-50228571D01*
X48885714Y-50323809D01*
X48885714Y-50561904D01*
X48838095Y-50657142D01*
X48790476Y-50704761D01*
X48695238Y-50752380D01*
X48457142Y-50752380D01*
X48361904Y-50704761D01*
X48314285Y-50657142D01*
X57266666Y-34654761D02*
X57409523Y-34702380D01*
X57647619Y-34702380D01*
X57742857Y-34654761D01*
X57790476Y-34607142D01*
X57838095Y-34511904D01*
X57838095Y-34416666D01*
X57790476Y-34321428D01*
X57742857Y-34273809D01*
X57647619Y-34226190D01*
X57457142Y-34178571D01*
X57361904Y-34130952D01*
X57314285Y-34083333D01*
X57266666Y-33988095D01*
X57266666Y-33892857D01*
X57314285Y-33797619D01*
X57361904Y-33750000D01*
X57457142Y-33702380D01*
X57695238Y-33702380D01*
X57838095Y-33750000D01*
X58171428Y-33702380D02*
X58409523Y-34702380D01*
X58600000Y-33988095D01*
X58790476Y-34702380D01*
X59028571Y-33702380D01*
X59933333Y-34702380D02*
X59361904Y-34702380D01*
X59647619Y-34702380D02*
X59647619Y-33702380D01*
X59552380Y-33845238D01*
X59457142Y-33940476D01*
X59361904Y-33988095D01*
X46066666Y-34604761D02*
X46209523Y-34652380D01*
X46447619Y-34652380D01*
X46542857Y-34604761D01*
X46590476Y-34557142D01*
X46638095Y-34461904D01*
X46638095Y-34366666D01*
X46590476Y-34271428D01*
X46542857Y-34223809D01*
X46447619Y-34176190D01*
X46257142Y-34128571D01*
X46161904Y-34080952D01*
X46114285Y-34033333D01*
X46066666Y-33938095D01*
X46066666Y-33842857D01*
X46114285Y-33747619D01*
X46161904Y-33700000D01*
X46257142Y-33652380D01*
X46495238Y-33652380D01*
X46638095Y-33700000D01*
X46971428Y-33652380D02*
X47209523Y-34652380D01*
X47400000Y-33938095D01*
X47590476Y-34652380D01*
X47828571Y-33652380D01*
X48161904Y-33747619D02*
X48209523Y-33700000D01*
X48304761Y-33652380D01*
X48542857Y-33652380D01*
X48638095Y-33700000D01*
X48685714Y-33747619D01*
X48733333Y-33842857D01*
X48733333Y-33938095D01*
X48685714Y-34080952D01*
X48114285Y-34652380D01*
X48733333Y-34652380D01*
X72138095Y-68002380D02*
X72138095Y-68811904D01*
X72185714Y-68907142D01*
X72233333Y-68954761D01*
X72328571Y-69002380D01*
X72519047Y-69002380D01*
X72614285Y-68954761D01*
X72661904Y-68907142D01*
X72709523Y-68811904D01*
X72709523Y-68002380D01*
X73138095Y-68097619D02*
X73185714Y-68050000D01*
X73280952Y-68002380D01*
X73519047Y-68002380D01*
X73614285Y-68050000D01*
X73661904Y-68097619D01*
X73709523Y-68192857D01*
X73709523Y-68288095D01*
X73661904Y-68430952D01*
X73090476Y-69002380D01*
X73709523Y-69002380D01*
X79638095Y-49652380D02*
X79638095Y-50461904D01*
X79685714Y-50557142D01*
X79733333Y-50604761D01*
X79828571Y-50652380D01*
X80019047Y-50652380D01*
X80114285Y-50604761D01*
X80161904Y-50557142D01*
X80209523Y-50461904D01*
X80209523Y-49652380D01*
X80590476Y-49652380D02*
X81209523Y-49652380D01*
X80876190Y-50033333D01*
X81019047Y-50033333D01*
X81114285Y-50080952D01*
X81161904Y-50128571D01*
X81209523Y-50223809D01*
X81209523Y-50461904D01*
X81161904Y-50557142D01*
X81114285Y-50604761D01*
X81019047Y-50652380D01*
X80733333Y-50652380D01*
X80638095Y-50604761D01*
X80590476Y-50557142D01*
X91766666Y-36252380D02*
X91766666Y-36966666D01*
X91719047Y-37109523D01*
X91623809Y-37204761D01*
X91480952Y-37252380D01*
X91385714Y-37252380D01*
X92671428Y-36585714D02*
X92671428Y-37252380D01*
X92433333Y-36204761D02*
X92195238Y-36919047D01*
X92814285Y-36919047D01*
X52666666Y-35402380D02*
X52666666Y-36116666D01*
X52619047Y-36259523D01*
X52523809Y-36354761D01*
X52380952Y-36402380D01*
X52285714Y-36402380D01*
X53047619Y-35402380D02*
X53714285Y-35402380D01*
X53285714Y-36402380D01*
M02*
