M48
; DRILL file {KiCad (5.1.2)-2} date 29/07/2019 19:51:40
; FORMAT={-:-/ absolute / metric / decimal}
; #@! TF.CreationDate,2019-07-29T19:51:40+02:00
; #@! TF.GenerationSoftware,Kicad,Pcbnew,(5.1.2)-2
; #@! TF.FileFunction,Plated,1,2,PTH
FMAT,2
METRIC
T1C0.400
T2C1.000
T3C2.200
%
G90
G05
T1
X33.7Y-41.2
X35.4Y-46.9
X35.4Y-47.9
X35.4Y-48.9
X35.4Y-50.9
X35.4Y-51.9
X36.5Y-40.6
X38.5Y-38.5
X38.9Y-59.7
X41.5Y-44.2
X43.3Y-44.3
X44.05Y-45.15
X44.1Y-65.0
X45.0Y-38.3
X45.0Y-39.3
X45.0Y-40.3
X45.1Y-65.0
X45.7Y-47.0
X46.1Y-65.0
X47.0Y-42.3
X47.9Y-65.0
X48.6Y-36.3
X48.7Y-40.3
X48.9Y-54.7
X49.5Y-41.2
X49.7Y-51.5
X49.7Y-54.0
X49.83Y-50.43
X52.3Y-35.6
X53.4Y-35.6
X53.4Y-44.4
X53.401Y-45.501
X53.7Y-65.3
X54.0Y-42.8
X54.1Y-52.5
X54.6Y-35.6
X54.6Y-54.5
X55.05Y-60.85
X55.1Y-65.0
X55.8Y-60.1
X55.9Y-66.5
X56.455Y-55.455
X57.6Y-38.5
X57.7Y-59.25
X58.1Y-66.0
X58.8Y-61.3
X59.0Y-38.3
X59.1Y-62.4
X59.5Y-63.7
X63.1Y-61.8
X64.7Y-61.8
X64.9Y-63.6
X67.7Y-59.7
X67.7Y-44.1
X67.7Y-45.4
X67.9Y-42.5
X67.9Y-55.3
X68.7Y-68.1
X69.03Y-60.03
X70.4Y-62.6
X71.7Y-39.9
X72.5Y-58.9
X73.1Y-61.2
X73.5Y-56.3
X74.752Y-62.437
X74.9Y-56.0
X75.775Y-31.559
X75.9Y-47.8
X75.9Y-63.1
X76.425Y-65.48
X77.0Y-39.3
X77.1Y-49.9
X77.1Y-53.1
X77.1Y-64.6
X78.2Y-48.9
X78.5Y-57.9
X78.7Y-64.7
X78.85Y-62.212
X79.302Y-56.898
X79.75Y-63.2
X80.9Y-64.5
X83.2Y-53.1
X85.5Y-58.0
X33.35Y-65.0
X33.833Y-63.833
X33.833Y-66.167
X35.0Y-63.35
X35.0Y-66.65
X36.167Y-63.833
X36.167Y-66.167
X36.65Y-65.0
X93.35Y-35.0
X93.833Y-33.833
X93.833Y-36.167
X95.0Y-33.35
X95.0Y-36.65
X96.167Y-33.833
X96.167Y-36.167
X96.65Y-35.0
X33.35Y-35.0
X33.833Y-33.833
X33.833Y-36.167
X35.0Y-33.35
X35.0Y-36.65
X36.167Y-33.833
X36.167Y-36.167
X36.65Y-35.0
X93.35Y-65.0
X93.833Y-63.833
X93.833Y-66.167
X95.0Y-63.35
X95.0Y-66.65
X96.167Y-63.833
X96.167Y-66.167
X96.65Y-65.0
T2
X93.1Y-49.1
X95.64Y-49.1
X98.18Y-49.1
X93.1Y-45.5
X95.64Y-45.5
X98.18Y-45.5
X93.1Y-39.3
X93.1Y-41.84
T3
X35.0Y-65.0
X95.0Y-35.0
X35.0Y-35.0
X95.0Y-65.0
T2
G00X80.7Y-35.75
M15
G01X80.7Y-34.25
M16
G05
G00X85.85Y-36.0
M15
G01X84.55Y-36.0
M16
G05
G00X86.2Y-42.0
M15
G01X84.2Y-42.0
M16
G05
G00X89.7Y-35.75
M15
G01X89.7Y-34.25
M16
G05
T0
M30
