G04 #@! TF.GenerationSoftware,KiCad,Pcbnew,(5.1.2)-2*
G04 #@! TF.CreationDate,2019-07-30T15:22:38+02:00*
G04 #@! TF.ProjectId,main_controller,6d61696e-5f63-46f6-9e74-726f6c6c6572,1*
G04 #@! TF.SameCoordinates,Original*
G04 #@! TF.FileFunction,Soldermask,Bot*
G04 #@! TF.FilePolarity,Negative*
%FSLAX46Y46*%
G04 Gerber Fmt 4.6, Leading zero omitted, Abs format (unit mm)*
G04 Created by KiCad (PCBNEW (5.1.2)-2) date 2019-07-30 15:22:38*
%MOMM*%
%LPD*%
G04 APERTURE LIST*
%ADD10C,0.100000*%
G04 APERTURE END LIST*
D10*
G36*
X95275880Y-62759776D02*
G01*
X95656593Y-62835504D01*
X96066249Y-63005189D01*
X96434929Y-63251534D01*
X96748466Y-63565071D01*
X96994811Y-63933751D01*
X97164496Y-64343407D01*
X97251000Y-64778296D01*
X97251000Y-65221704D01*
X97164496Y-65656593D01*
X96994811Y-66066249D01*
X96748466Y-66434929D01*
X96434929Y-66748466D01*
X96066249Y-66994811D01*
X95656593Y-67164496D01*
X95275880Y-67240224D01*
X95221705Y-67251000D01*
X94778295Y-67251000D01*
X94724120Y-67240224D01*
X94343407Y-67164496D01*
X93933751Y-66994811D01*
X93565071Y-66748466D01*
X93251534Y-66434929D01*
X93005189Y-66066249D01*
X92835504Y-65656593D01*
X92749000Y-65221704D01*
X92749000Y-64778296D01*
X92835504Y-64343407D01*
X93005189Y-63933751D01*
X93251534Y-63565071D01*
X93565071Y-63251534D01*
X93933751Y-63005189D01*
X94343407Y-62835504D01*
X94724120Y-62759776D01*
X94778295Y-62749000D01*
X95221705Y-62749000D01*
X95275880Y-62759776D01*
X95275880Y-62759776D01*
G37*
G36*
X35275880Y-62759776D02*
G01*
X35656593Y-62835504D01*
X36066249Y-63005189D01*
X36434929Y-63251534D01*
X36748466Y-63565071D01*
X36994811Y-63933751D01*
X37164496Y-64343407D01*
X37251000Y-64778296D01*
X37251000Y-65221704D01*
X37164496Y-65656593D01*
X36994811Y-66066249D01*
X36748466Y-66434929D01*
X36434929Y-66748466D01*
X36066249Y-66994811D01*
X35656593Y-67164496D01*
X35275880Y-67240224D01*
X35221705Y-67251000D01*
X34778295Y-67251000D01*
X34724120Y-67240224D01*
X34343407Y-67164496D01*
X33933751Y-66994811D01*
X33565071Y-66748466D01*
X33251534Y-66434929D01*
X33005189Y-66066249D01*
X32835504Y-65656593D01*
X32749000Y-65221704D01*
X32749000Y-64778296D01*
X32835504Y-64343407D01*
X33005189Y-63933751D01*
X33251534Y-63565071D01*
X33565071Y-63251534D01*
X33933751Y-63005189D01*
X34343407Y-62835504D01*
X34724120Y-62759776D01*
X34778295Y-62749000D01*
X35221705Y-62749000D01*
X35275880Y-62759776D01*
X35275880Y-62759776D01*
G37*
G36*
X94001000Y-50001000D02*
G01*
X92199000Y-50001000D01*
X92199000Y-48199000D01*
X94001000Y-48199000D01*
X94001000Y-50001000D01*
X94001000Y-50001000D01*
G37*
G36*
X95750443Y-48205519D02*
G01*
X95816627Y-48212037D01*
X95986466Y-48263557D01*
X96142991Y-48347222D01*
X96178729Y-48376552D01*
X96280186Y-48459814D01*
X96363448Y-48561271D01*
X96392778Y-48597009D01*
X96476443Y-48753534D01*
X96527963Y-48923373D01*
X96545359Y-49100000D01*
X96527963Y-49276627D01*
X96476443Y-49446466D01*
X96392778Y-49602991D01*
X96363448Y-49638729D01*
X96280186Y-49740186D01*
X96178729Y-49823448D01*
X96142991Y-49852778D01*
X95986466Y-49936443D01*
X95816627Y-49987963D01*
X95750442Y-49994482D01*
X95684260Y-50001000D01*
X95595740Y-50001000D01*
X95529557Y-49994481D01*
X95463373Y-49987963D01*
X95293534Y-49936443D01*
X95137009Y-49852778D01*
X95101271Y-49823448D01*
X94999814Y-49740186D01*
X94916552Y-49638729D01*
X94887222Y-49602991D01*
X94803557Y-49446466D01*
X94752037Y-49276627D01*
X94734641Y-49100000D01*
X94752037Y-48923373D01*
X94803557Y-48753534D01*
X94887222Y-48597009D01*
X94916552Y-48561271D01*
X94999814Y-48459814D01*
X95101271Y-48376552D01*
X95137009Y-48347222D01*
X95293534Y-48263557D01*
X95463373Y-48212037D01*
X95529558Y-48205518D01*
X95595740Y-48199000D01*
X95684260Y-48199000D01*
X95750443Y-48205519D01*
X95750443Y-48205519D01*
G37*
G36*
X98290443Y-48205519D02*
G01*
X98356627Y-48212037D01*
X98526466Y-48263557D01*
X98682991Y-48347222D01*
X98718729Y-48376552D01*
X98820186Y-48459814D01*
X98903448Y-48561271D01*
X98932778Y-48597009D01*
X99016443Y-48753534D01*
X99067963Y-48923373D01*
X99085359Y-49100000D01*
X99067963Y-49276627D01*
X99016443Y-49446466D01*
X98932778Y-49602991D01*
X98903448Y-49638729D01*
X98820186Y-49740186D01*
X98718729Y-49823448D01*
X98682991Y-49852778D01*
X98526466Y-49936443D01*
X98356627Y-49987963D01*
X98290442Y-49994482D01*
X98224260Y-50001000D01*
X98135740Y-50001000D01*
X98069557Y-49994481D01*
X98003373Y-49987963D01*
X97833534Y-49936443D01*
X97677009Y-49852778D01*
X97641271Y-49823448D01*
X97539814Y-49740186D01*
X97456552Y-49638729D01*
X97427222Y-49602991D01*
X97343557Y-49446466D01*
X97292037Y-49276627D01*
X97274641Y-49100000D01*
X97292037Y-48923373D01*
X97343557Y-48753534D01*
X97427222Y-48597009D01*
X97456552Y-48561271D01*
X97539814Y-48459814D01*
X97641271Y-48376552D01*
X97677009Y-48347222D01*
X97833534Y-48263557D01*
X98003373Y-48212037D01*
X98069558Y-48205518D01*
X98135740Y-48199000D01*
X98224260Y-48199000D01*
X98290443Y-48205519D01*
X98290443Y-48205519D01*
G37*
G36*
X98290442Y-44605518D02*
G01*
X98356627Y-44612037D01*
X98526466Y-44663557D01*
X98682991Y-44747222D01*
X98718729Y-44776552D01*
X98820186Y-44859814D01*
X98903448Y-44961271D01*
X98932778Y-44997009D01*
X99016443Y-45153534D01*
X99067963Y-45323373D01*
X99085359Y-45500000D01*
X99067963Y-45676627D01*
X99016443Y-45846466D01*
X98932778Y-46002991D01*
X98903448Y-46038729D01*
X98820186Y-46140186D01*
X98718729Y-46223448D01*
X98682991Y-46252778D01*
X98526466Y-46336443D01*
X98356627Y-46387963D01*
X98290442Y-46394482D01*
X98224260Y-46401000D01*
X98135740Y-46401000D01*
X98069558Y-46394482D01*
X98003373Y-46387963D01*
X97833534Y-46336443D01*
X97677009Y-46252778D01*
X97641271Y-46223448D01*
X97539814Y-46140186D01*
X97456552Y-46038729D01*
X97427222Y-46002991D01*
X97343557Y-45846466D01*
X97292037Y-45676627D01*
X97274641Y-45500000D01*
X97292037Y-45323373D01*
X97343557Y-45153534D01*
X97427222Y-44997009D01*
X97456552Y-44961271D01*
X97539814Y-44859814D01*
X97641271Y-44776552D01*
X97677009Y-44747222D01*
X97833534Y-44663557D01*
X98003373Y-44612037D01*
X98069558Y-44605518D01*
X98135740Y-44599000D01*
X98224260Y-44599000D01*
X98290442Y-44605518D01*
X98290442Y-44605518D01*
G37*
G36*
X94001000Y-46401000D02*
G01*
X92199000Y-46401000D01*
X92199000Y-44599000D01*
X94001000Y-44599000D01*
X94001000Y-46401000D01*
X94001000Y-46401000D01*
G37*
G36*
X95750442Y-44605518D02*
G01*
X95816627Y-44612037D01*
X95986466Y-44663557D01*
X96142991Y-44747222D01*
X96178729Y-44776552D01*
X96280186Y-44859814D01*
X96363448Y-44961271D01*
X96392778Y-44997009D01*
X96476443Y-45153534D01*
X96527963Y-45323373D01*
X96545359Y-45500000D01*
X96527963Y-45676627D01*
X96476443Y-45846466D01*
X96392778Y-46002991D01*
X96363448Y-46038729D01*
X96280186Y-46140186D01*
X96178729Y-46223448D01*
X96142991Y-46252778D01*
X95986466Y-46336443D01*
X95816627Y-46387963D01*
X95750442Y-46394482D01*
X95684260Y-46401000D01*
X95595740Y-46401000D01*
X95529558Y-46394482D01*
X95463373Y-46387963D01*
X95293534Y-46336443D01*
X95137009Y-46252778D01*
X95101271Y-46223448D01*
X94999814Y-46140186D01*
X94916552Y-46038729D01*
X94887222Y-46002991D01*
X94803557Y-45846466D01*
X94752037Y-45676627D01*
X94734641Y-45500000D01*
X94752037Y-45323373D01*
X94803557Y-45153534D01*
X94887222Y-44997009D01*
X94916552Y-44961271D01*
X94999814Y-44859814D01*
X95101271Y-44776552D01*
X95137009Y-44747222D01*
X95293534Y-44663557D01*
X95463373Y-44612037D01*
X95529558Y-44605518D01*
X95595740Y-44599000D01*
X95684260Y-44599000D01*
X95750442Y-44605518D01*
X95750442Y-44605518D01*
G37*
G36*
X87251000Y-43051000D02*
G01*
X83149000Y-43051000D01*
X83149000Y-40949000D01*
X87251000Y-40949000D01*
X87251000Y-43051000D01*
X87251000Y-43051000D01*
G37*
G36*
X93210443Y-40945519D02*
G01*
X93276627Y-40952037D01*
X93446466Y-41003557D01*
X93602991Y-41087222D01*
X93638729Y-41116552D01*
X93740186Y-41199814D01*
X93823448Y-41301271D01*
X93852778Y-41337009D01*
X93936443Y-41493534D01*
X93987963Y-41663373D01*
X94005359Y-41840000D01*
X93987963Y-42016627D01*
X93936443Y-42186466D01*
X93852778Y-42342991D01*
X93823448Y-42378729D01*
X93740186Y-42480186D01*
X93638729Y-42563448D01*
X93602991Y-42592778D01*
X93446466Y-42676443D01*
X93276627Y-42727963D01*
X93210443Y-42734481D01*
X93144260Y-42741000D01*
X93055740Y-42741000D01*
X92989557Y-42734481D01*
X92923373Y-42727963D01*
X92753534Y-42676443D01*
X92597009Y-42592778D01*
X92561271Y-42563448D01*
X92459814Y-42480186D01*
X92376552Y-42378729D01*
X92347222Y-42342991D01*
X92263557Y-42186466D01*
X92212037Y-42016627D01*
X92194641Y-41840000D01*
X92212037Y-41663373D01*
X92263557Y-41493534D01*
X92347222Y-41337009D01*
X92376552Y-41301271D01*
X92459814Y-41199814D01*
X92561271Y-41116552D01*
X92597009Y-41087222D01*
X92753534Y-41003557D01*
X92923373Y-40952037D01*
X92989557Y-40945519D01*
X93055740Y-40939000D01*
X93144260Y-40939000D01*
X93210443Y-40945519D01*
X93210443Y-40945519D01*
G37*
G36*
X94001000Y-40201000D02*
G01*
X92199000Y-40201000D01*
X92199000Y-38399000D01*
X94001000Y-38399000D01*
X94001000Y-40201000D01*
X94001000Y-40201000D01*
G37*
G36*
X35275880Y-32759776D02*
G01*
X35656593Y-32835504D01*
X36066249Y-33005189D01*
X36434929Y-33251534D01*
X36748466Y-33565071D01*
X36994811Y-33933751D01*
X37164496Y-34343407D01*
X37251000Y-34778296D01*
X37251000Y-35221704D01*
X37164496Y-35656593D01*
X36994811Y-36066249D01*
X36748466Y-36434929D01*
X36434929Y-36748466D01*
X36066249Y-36994811D01*
X35656593Y-37164496D01*
X35275880Y-37240224D01*
X35221705Y-37251000D01*
X34778295Y-37251000D01*
X34724120Y-37240224D01*
X34343407Y-37164496D01*
X33933751Y-36994811D01*
X33565071Y-36748466D01*
X33251534Y-36434929D01*
X33005189Y-36066249D01*
X32835504Y-35656593D01*
X32749000Y-35221704D01*
X32749000Y-34778296D01*
X32835504Y-34343407D01*
X33005189Y-33933751D01*
X33251534Y-33565071D01*
X33565071Y-33251534D01*
X33933751Y-33005189D01*
X34343407Y-32835504D01*
X34724120Y-32759776D01*
X34778295Y-32749000D01*
X35221705Y-32749000D01*
X35275880Y-32759776D01*
X35275880Y-32759776D01*
G37*
G36*
X95275880Y-32759776D02*
G01*
X95656593Y-32835504D01*
X96066249Y-33005189D01*
X96434929Y-33251534D01*
X96748466Y-33565071D01*
X96994811Y-33933751D01*
X97164496Y-34343407D01*
X97251000Y-34778296D01*
X97251000Y-35221704D01*
X97164496Y-35656593D01*
X96994811Y-36066249D01*
X96748466Y-36434929D01*
X96434929Y-36748466D01*
X96066249Y-36994811D01*
X95656593Y-37164496D01*
X95275880Y-37240224D01*
X95221705Y-37251000D01*
X94778295Y-37251000D01*
X94724120Y-37240224D01*
X94343407Y-37164496D01*
X93933751Y-36994811D01*
X93565071Y-36748466D01*
X93251534Y-36434929D01*
X93005189Y-36066249D01*
X92835504Y-35656593D01*
X92749000Y-35221704D01*
X92749000Y-34778296D01*
X92835504Y-34343407D01*
X93005189Y-33933751D01*
X93251534Y-33565071D01*
X93565071Y-33251534D01*
X93933751Y-33005189D01*
X94343407Y-32835504D01*
X94724120Y-32759776D01*
X94778295Y-32749000D01*
X95221705Y-32749000D01*
X95275880Y-32759776D01*
X95275880Y-32759776D01*
G37*
G36*
X85953097Y-34954069D02*
G01*
X86056032Y-34964207D01*
X86254146Y-35024305D01*
X86254149Y-35024306D01*
X86282565Y-35039495D01*
X86436729Y-35121897D01*
X86596765Y-35253235D01*
X86728103Y-35413271D01*
X86773939Y-35499025D01*
X86825694Y-35595851D01*
X86825695Y-35595854D01*
X86885793Y-35793968D01*
X86906085Y-36000000D01*
X86885793Y-36206032D01*
X86828658Y-36394378D01*
X86825694Y-36404149D01*
X86795811Y-36460055D01*
X86728103Y-36586729D01*
X86596765Y-36746765D01*
X86436729Y-36878103D01*
X86385244Y-36905622D01*
X86254149Y-36975694D01*
X86254146Y-36975695D01*
X86056032Y-37035793D01*
X85953097Y-37045931D01*
X85901631Y-37051000D01*
X84498369Y-37051000D01*
X84446903Y-37045931D01*
X84343968Y-37035793D01*
X84145854Y-36975695D01*
X84145851Y-36975694D01*
X84014756Y-36905622D01*
X83963271Y-36878103D01*
X83803235Y-36746765D01*
X83671897Y-36586729D01*
X83604189Y-36460055D01*
X83574306Y-36404149D01*
X83571342Y-36394378D01*
X83514207Y-36206032D01*
X83493915Y-36000000D01*
X83514207Y-35793968D01*
X83574305Y-35595854D01*
X83574306Y-35595851D01*
X83626061Y-35499025D01*
X83671897Y-35413271D01*
X83803235Y-35253235D01*
X83963271Y-35121897D01*
X84117435Y-35039495D01*
X84145851Y-35024306D01*
X84145854Y-35024305D01*
X84343968Y-34964207D01*
X84446903Y-34954069D01*
X84498369Y-34949000D01*
X85901631Y-34949000D01*
X85953097Y-34954069D01*
X85953097Y-34954069D01*
G37*
G36*
X89906032Y-33214207D02*
G01*
X90104146Y-33274305D01*
X90104149Y-33274306D01*
X90171872Y-33310505D01*
X90286729Y-33371897D01*
X90446765Y-33503235D01*
X90578103Y-33663271D01*
X90600600Y-33705361D01*
X90675694Y-33845851D01*
X90675695Y-33845854D01*
X90735793Y-34043968D01*
X90751000Y-34198370D01*
X90751000Y-35801630D01*
X90735793Y-35956032D01*
X90683860Y-36127231D01*
X90675694Y-36154149D01*
X90647963Y-36206030D01*
X90578103Y-36336729D01*
X90446765Y-36496765D01*
X90286729Y-36628103D01*
X90171871Y-36689495D01*
X90104148Y-36725694D01*
X90104145Y-36725695D01*
X89906031Y-36785793D01*
X89700000Y-36806085D01*
X89493968Y-36785793D01*
X89295854Y-36725695D01*
X89295851Y-36725694D01*
X89199025Y-36673939D01*
X89113271Y-36628103D01*
X88953235Y-36496765D01*
X88821897Y-36336729D01*
X88724307Y-36154149D01*
X88724306Y-36154148D01*
X88697641Y-36066246D01*
X88664207Y-35956031D01*
X88649000Y-35801629D01*
X88649000Y-34198370D01*
X88654281Y-34144751D01*
X88664207Y-34043967D01*
X88724305Y-33845854D01*
X88799401Y-33705361D01*
X88821898Y-33663271D01*
X88953236Y-33503235D01*
X89113272Y-33371897D01*
X89228129Y-33310505D01*
X89295852Y-33274306D01*
X89295855Y-33274305D01*
X89493969Y-33214207D01*
X89700000Y-33193915D01*
X89906032Y-33214207D01*
X89906032Y-33214207D01*
G37*
G36*
X80906032Y-33214207D02*
G01*
X81104146Y-33274305D01*
X81104149Y-33274306D01*
X81171872Y-33310505D01*
X81286729Y-33371897D01*
X81446765Y-33503235D01*
X81578103Y-33663271D01*
X81600600Y-33705361D01*
X81675694Y-33845851D01*
X81675695Y-33845854D01*
X81735793Y-34043968D01*
X81751000Y-34198370D01*
X81751000Y-35801630D01*
X81735793Y-35956032D01*
X81683860Y-36127231D01*
X81675694Y-36154149D01*
X81647963Y-36206030D01*
X81578103Y-36336729D01*
X81446765Y-36496765D01*
X81286729Y-36628103D01*
X81171871Y-36689495D01*
X81104148Y-36725694D01*
X81104145Y-36725695D01*
X80906031Y-36785793D01*
X80700000Y-36806085D01*
X80493968Y-36785793D01*
X80295854Y-36725695D01*
X80295851Y-36725694D01*
X80199025Y-36673939D01*
X80113271Y-36628103D01*
X79953235Y-36496765D01*
X79821897Y-36336729D01*
X79724307Y-36154149D01*
X79724306Y-36154148D01*
X79697641Y-36066246D01*
X79664207Y-35956031D01*
X79649000Y-35801629D01*
X79649000Y-34198370D01*
X79654281Y-34144751D01*
X79664207Y-34043967D01*
X79724305Y-33845854D01*
X79799401Y-33705361D01*
X79821898Y-33663271D01*
X79953236Y-33503235D01*
X80113272Y-33371897D01*
X80228129Y-33310505D01*
X80295852Y-33274306D01*
X80295855Y-33274305D01*
X80493969Y-33214207D01*
X80700000Y-33193915D01*
X80906032Y-33214207D01*
X80906032Y-33214207D01*
G37*
G36*
X85594072Y-31700918D02*
G01*
X85839939Y-31802759D01*
X85951328Y-31877187D01*
X86061211Y-31950609D01*
X86249391Y-32138789D01*
X86397242Y-32360063D01*
X86499082Y-32605928D01*
X86551000Y-32866937D01*
X86551000Y-33133063D01*
X86503493Y-33371897D01*
X86499082Y-33394072D01*
X86397241Y-33639939D01*
X86249390Y-33861212D01*
X86061212Y-34049390D01*
X85839939Y-34197241D01*
X85839938Y-34197242D01*
X85839937Y-34197242D01*
X85594072Y-34299082D01*
X85333063Y-34351000D01*
X85066937Y-34351000D01*
X84805928Y-34299082D01*
X84560063Y-34197242D01*
X84560062Y-34197242D01*
X84560061Y-34197241D01*
X84338788Y-34049390D01*
X84150610Y-33861212D01*
X84002759Y-33639939D01*
X83900918Y-33394072D01*
X83896507Y-33371897D01*
X83849000Y-33133063D01*
X83849000Y-32866937D01*
X83900918Y-32605928D01*
X84002758Y-32360063D01*
X84150609Y-32138789D01*
X84338789Y-31950609D01*
X84448672Y-31877187D01*
X84560061Y-31802759D01*
X84805928Y-31700918D01*
X85066937Y-31649000D01*
X85333063Y-31649000D01*
X85594072Y-31700918D01*
X85594072Y-31700918D01*
G37*
M02*
