M48
; DRILL file {KiCad (5.1.2)-2} date 30/07/2019 15:23:30
; FORMAT={-:-/ absolute / metric / decimal}
; #@! TF.CreationDate,2019-07-30T15:23:30+02:00
; #@! TF.GenerationSoftware,Kicad,Pcbnew,(5.1.2)-2
; #@! TF.FileFunction,Plated,1,2,PTH
FMAT,2
METRIC
T1C0.400
T2C1.000
T3C2.200
%
G90
G05
T1
X38.392Y-51.2
X38.392Y-56.2
X38.4Y-58.0
X42.4Y-58.0
X46.5Y-51.2
X52.238Y-51.2
X52.238Y-56.2
X56.207Y-58.0
X61.0Y-51.2
X66.085Y-51.2
X66.085Y-56.2
X66.1Y-58.0
X70.043Y-58.0
X79.931Y-51.2
X79.931Y-56.2
X83.879Y-58.0
X91.8Y-51.2
X93.777Y-51.2
X93.777Y-56.2
X93.8Y-58.0
X97.714Y-58.0
X99.9Y-50.0
X99.9Y-51.175
X100.6Y-43.7
X102.1Y-42.2
X104.2Y-41.3
X105.4Y-42.3
X106.5Y-46.0
X106.5Y-49.0
X106.5Y-53.0
X107.5Y-46.0
X107.623Y-56.2
X107.7Y-43.5
X108.5Y-49.0
X108.5Y-53.0
X108.65Y-44.35
X109.5Y-43.5
X110.5Y-43.05
X111.55Y-58.0
X117.6Y-50.65
X121.469Y-51.2
X121.469Y-56.2
X125.386Y-58.0
X131.8Y-47.35
X133.3Y-51.2
X135.3Y-58.0
X135.315Y-51.2
X135.315Y-56.2
X139.221Y-58.0
X144.2Y-42.0
X145.6Y-41.6
X148.8Y-41.6
X149.162Y-51.2
X149.162Y-56.2
X151.2Y-37.6
X152.0Y-41.6
X153.057Y-58.0
X154.4Y-37.6
X156.4Y-36.4
X157.3Y-35.9
X158.167Y-35.401
X159.043Y-34.92
X159.938Y-34.45
X160.2Y-41.6
X162.6Y-37.6
X163.008Y-51.2
X163.008Y-56.2
X163.45Y-41.6
X165.0Y-51.2
X165.8Y-37.6
X166.65Y-41.6
X166.893Y-58.0
X170.9Y-38.1
X171.0Y-33.9
X172.0Y-33.4
X173.0Y-32.9
X173.5Y-50.9
X174.208Y-31.937
X175.1Y-31.4
X176.0Y-30.9
X176.854Y-51.2
X176.854Y-56.2
X176.9Y-58.0
X180.729Y-58.0
X185.6Y-49.1
X190.7Y-51.2
X190.7Y-56.2
X194.564Y-58.0
X208.0Y-57.0
X203.35Y-35.0
X203.833Y-33.833
X203.833Y-36.167
X205.0Y-33.35
X205.0Y-36.65
X206.167Y-33.833
X206.167Y-36.167
X206.65Y-35.0
X33.35Y-35.0
X33.833Y-33.833
X33.833Y-36.167
X35.0Y-33.35
X35.0Y-36.65
X36.167Y-33.833
X36.167Y-36.167
X36.65Y-35.0
X33.35Y-50.0
X33.833Y-48.833
X33.833Y-51.167
X35.0Y-48.35
X35.0Y-51.65
X36.167Y-48.833
X36.167Y-51.167
X36.65Y-50.0
X203.35Y-50.0
X203.833Y-48.833
X203.833Y-51.167
X205.0Y-48.35
X205.0Y-51.65
X206.167Y-48.833
X206.167Y-51.167
X206.65Y-50.0
X178.35Y-40.0
X178.833Y-38.833
X178.833Y-41.167
X180.0Y-38.35
X180.0Y-41.65
X181.167Y-38.833
X181.167Y-41.167
X181.65Y-40.0
X58.35Y-40.0
X58.833Y-38.833
X58.833Y-41.167
X60.0Y-38.35
X60.0Y-41.65
X61.167Y-38.833
X61.167Y-41.167
X61.65Y-40.0
T2
X116.5Y-41.3
X119.04Y-41.3
X121.58Y-41.3
X124.12Y-41.3
X184.3Y-41.3
X186.84Y-41.3
X189.38Y-41.3
T3
X205.0Y-35.0
X35.0Y-35.0
X35.0Y-50.0
X205.0Y-50.0
X180.0Y-40.0
X60.0Y-40.0
T0
M30
