G04 #@! TF.GenerationSoftware,KiCad,Pcbnew,(5.1.2)-2*
G04 #@! TF.CreationDate,2019-07-29T19:51:11+02:00*
G04 #@! TF.ProjectId,sensor_array_13_sensors,73656e73-6f72-45f6-9172-7261795f3133,1*
G04 #@! TF.SameCoordinates,Original*
G04 #@! TF.FileFunction,Legend,Top*
G04 #@! TF.FilePolarity,Positive*
%FSLAX46Y46*%
G04 Gerber Fmt 4.6, Leading zero omitted, Abs format (unit mm)*
G04 Created by KiCad (PCBNEW (5.1.2)-2) date 2019-07-29 19:51:11*
%MOMM*%
%LPD*%
G04 APERTURE LIST*
%ADD10C,0.120000*%
%ADD11C,0.150000*%
%ADD12C,0.300000*%
%ADD13C,0.200000*%
%ADD14C,0.100000*%
%ADD15C,0.010000*%
G04 APERTURE END LIST*
D10*
X157800000Y-45200000D02*
X157800000Y-37200000D01*
D11*
X158252380Y-39247619D02*
X158252380Y-39152380D01*
X158300000Y-39057142D01*
X158347619Y-39009523D01*
X158442857Y-38961904D01*
X158633333Y-38914285D01*
X158871428Y-38914285D01*
X159061904Y-38961904D01*
X159157142Y-39009523D01*
X159204761Y-39057142D01*
X159252380Y-39152380D01*
X159252380Y-39247619D01*
X159204761Y-39342857D01*
X159157142Y-39390476D01*
X159061904Y-39438095D01*
X158871428Y-39485714D01*
X158633333Y-39485714D01*
X158442857Y-39438095D01*
X158347619Y-39390476D01*
X158300000Y-39342857D01*
X158252380Y-39247619D01*
X157204761Y-43985714D02*
X157252380Y-43842857D01*
X157252380Y-43604761D01*
X157204761Y-43509523D01*
X157157142Y-43461904D01*
X157061904Y-43414285D01*
X156966666Y-43414285D01*
X156871428Y-43461904D01*
X156823809Y-43509523D01*
X156776190Y-43604761D01*
X156728571Y-43795238D01*
X156680952Y-43890476D01*
X156633333Y-43938095D01*
X156538095Y-43985714D01*
X156442857Y-43985714D01*
X156347619Y-43938095D01*
X156300000Y-43890476D01*
X156252380Y-43795238D01*
X156252380Y-43557142D01*
X156300000Y-43414285D01*
X157252380Y-42985714D02*
X156252380Y-42985714D01*
X156252380Y-42604761D01*
X156300000Y-42509523D01*
X156347619Y-42461904D01*
X156442857Y-42414285D01*
X156585714Y-42414285D01*
X156680952Y-42461904D01*
X156728571Y-42509523D01*
X156776190Y-42604761D01*
X156776190Y-42985714D01*
X157252380Y-41985714D02*
X156252380Y-41985714D01*
X157252380Y-40604761D02*
X157204761Y-40700000D01*
X157109523Y-40747619D01*
X156252380Y-40747619D01*
X157252380Y-40223809D02*
X156585714Y-40223809D01*
X156252380Y-40223809D02*
X156300000Y-40271428D01*
X156347619Y-40223809D01*
X156300000Y-40176190D01*
X156252380Y-40223809D01*
X156347619Y-40223809D01*
X156585714Y-39747619D02*
X157252380Y-39747619D01*
X156680952Y-39747619D02*
X156633333Y-39700000D01*
X156585714Y-39604761D01*
X156585714Y-39461904D01*
X156633333Y-39366666D01*
X156728571Y-39319047D01*
X157252380Y-39319047D01*
X157204761Y-38461904D02*
X157252380Y-38557142D01*
X157252380Y-38747619D01*
X157204761Y-38842857D01*
X157109523Y-38890476D01*
X156728571Y-38890476D01*
X156633333Y-38842857D01*
X156585714Y-38747619D01*
X156585714Y-38557142D01*
X156633333Y-38461904D01*
X156728571Y-38414285D01*
X156823809Y-38414285D01*
X156919047Y-38890476D01*
D10*
X155800000Y-37200000D02*
X169400000Y-37200000D01*
X155800000Y-35200000D02*
X169400000Y-35200000D01*
X155800000Y-45200000D02*
X155800000Y-35200000D01*
D11*
X159861904Y-36604761D02*
X160004761Y-36652380D01*
X160242857Y-36652380D01*
X160338095Y-36604761D01*
X160385714Y-36557142D01*
X160433333Y-36461904D01*
X160433333Y-36366666D01*
X160385714Y-36271428D01*
X160338095Y-36223809D01*
X160242857Y-36176190D01*
X160052380Y-36128571D01*
X159957142Y-36080952D01*
X159909523Y-36033333D01*
X159861904Y-35938095D01*
X159861904Y-35842857D01*
X159909523Y-35747619D01*
X159957142Y-35700000D01*
X160052380Y-35652380D01*
X160290476Y-35652380D01*
X160433333Y-35700000D01*
X160861904Y-36652380D02*
X160861904Y-35652380D01*
X161242857Y-35652380D01*
X161338095Y-35700000D01*
X161385714Y-35747619D01*
X161433333Y-35842857D01*
X161433333Y-35985714D01*
X161385714Y-36080952D01*
X161338095Y-36128571D01*
X161242857Y-36176190D01*
X160861904Y-36176190D01*
X161861904Y-36652380D02*
X161861904Y-35652380D01*
X163052380Y-36604761D02*
X163195238Y-36652380D01*
X163433333Y-36652380D01*
X163528571Y-36604761D01*
X163576190Y-36557142D01*
X163623809Y-36461904D01*
X163623809Y-36366666D01*
X163576190Y-36271428D01*
X163528571Y-36223809D01*
X163433333Y-36176190D01*
X163242857Y-36128571D01*
X163147619Y-36080952D01*
X163100000Y-36033333D01*
X163052380Y-35938095D01*
X163052380Y-35842857D01*
X163100000Y-35747619D01*
X163147619Y-35700000D01*
X163242857Y-35652380D01*
X163480952Y-35652380D01*
X163623809Y-35700000D01*
X164052380Y-36128571D02*
X164385714Y-36128571D01*
X164528571Y-36652380D02*
X164052380Y-36652380D01*
X164052380Y-35652380D01*
X164528571Y-35652380D01*
X165433333Y-36652380D02*
X164957142Y-36652380D01*
X164957142Y-35652380D01*
X143033333Y-34732142D02*
X142985714Y-34779761D01*
X142842857Y-34827380D01*
X142747619Y-34827380D01*
X142604761Y-34779761D01*
X142509523Y-34684523D01*
X142461904Y-34589285D01*
X142414285Y-34398809D01*
X142414285Y-34255952D01*
X142461904Y-34065476D01*
X142509523Y-33970238D01*
X142604761Y-33875000D01*
X142747619Y-33827380D01*
X142842857Y-33827380D01*
X142985714Y-33875000D01*
X143033333Y-33922619D01*
X143414285Y-34779761D02*
X143557142Y-34827380D01*
X143795238Y-34827380D01*
X143890476Y-34779761D01*
X143938095Y-34732142D01*
X143985714Y-34636904D01*
X143985714Y-34541666D01*
X143938095Y-34446428D01*
X143890476Y-34398809D01*
X143795238Y-34351190D01*
X143604761Y-34303571D01*
X143509523Y-34255952D01*
X143461904Y-34208333D01*
X143414285Y-34113095D01*
X143414285Y-34017857D01*
X143461904Y-33922619D01*
X143509523Y-33875000D01*
X143604761Y-33827380D01*
X143842857Y-33827380D01*
X143985714Y-33875000D01*
X142057142Y-36429761D02*
X142200000Y-36477380D01*
X142438095Y-36477380D01*
X142533333Y-36429761D01*
X142580952Y-36382142D01*
X142628571Y-36286904D01*
X142628571Y-36191666D01*
X142580952Y-36096428D01*
X142533333Y-36048809D01*
X142438095Y-36001190D01*
X142247619Y-35953571D01*
X142152380Y-35905952D01*
X142104761Y-35858333D01*
X142057142Y-35763095D01*
X142057142Y-35667857D01*
X142104761Y-35572619D01*
X142152380Y-35525000D01*
X142247619Y-35477380D01*
X142485714Y-35477380D01*
X142628571Y-35525000D01*
X143057142Y-35953571D02*
X143390476Y-35953571D01*
X143533333Y-36477380D02*
X143057142Y-36477380D01*
X143057142Y-35477380D01*
X143533333Y-35477380D01*
X144438095Y-36477380D02*
X143961904Y-36477380D01*
X143961904Y-35477380D01*
D10*
X141200000Y-45200000D02*
X141200000Y-33200000D01*
D11*
X142604761Y-43985714D02*
X142652380Y-43842857D01*
X142652380Y-43604761D01*
X142604761Y-43509523D01*
X142557142Y-43461904D01*
X142461904Y-43414285D01*
X142366666Y-43414285D01*
X142271428Y-43461904D01*
X142223809Y-43509523D01*
X142176190Y-43604761D01*
X142128571Y-43795238D01*
X142080952Y-43890476D01*
X142033333Y-43938095D01*
X141938095Y-43985714D01*
X141842857Y-43985714D01*
X141747619Y-43938095D01*
X141700000Y-43890476D01*
X141652380Y-43795238D01*
X141652380Y-43557142D01*
X141700000Y-43414285D01*
X142652380Y-42985714D02*
X141652380Y-42985714D01*
X141652380Y-42604761D01*
X141700000Y-42509523D01*
X141747619Y-42461904D01*
X141842857Y-42414285D01*
X141985714Y-42414285D01*
X142080952Y-42461904D01*
X142128571Y-42509523D01*
X142176190Y-42604761D01*
X142176190Y-42985714D01*
X142652380Y-41985714D02*
X141652380Y-41985714D01*
X142652380Y-40604761D02*
X142604761Y-40700000D01*
X142509523Y-40747619D01*
X141652380Y-40747619D01*
X142652380Y-40223809D02*
X141985714Y-40223809D01*
X141652380Y-40223809D02*
X141700000Y-40271428D01*
X141747619Y-40223809D01*
X141700000Y-40176190D01*
X141652380Y-40223809D01*
X141747619Y-40223809D01*
X141985714Y-39747619D02*
X142652380Y-39747619D01*
X142080952Y-39747619D02*
X142033333Y-39700000D01*
X141985714Y-39604761D01*
X141985714Y-39461904D01*
X142033333Y-39366666D01*
X142128571Y-39319047D01*
X142652380Y-39319047D01*
X142604761Y-38461904D02*
X142652380Y-38557142D01*
X142652380Y-38747619D01*
X142604761Y-38842857D01*
X142509523Y-38890476D01*
X142128571Y-38890476D01*
X142033333Y-38842857D01*
X141985714Y-38747619D01*
X141985714Y-38557142D01*
X142033333Y-38461904D01*
X142128571Y-38414285D01*
X142223809Y-38414285D01*
X142319047Y-38890476D01*
D10*
X141200000Y-33200000D02*
X154800000Y-33200000D01*
X151600000Y-45200000D02*
X151600000Y-35200000D01*
X148400000Y-45200000D02*
X148400000Y-35200000D01*
D11*
X143652380Y-39247619D02*
X143652380Y-39152380D01*
X143700000Y-39057142D01*
X143747619Y-39009523D01*
X143842857Y-38961904D01*
X144033333Y-38914285D01*
X144271428Y-38914285D01*
X144461904Y-38961904D01*
X144557142Y-39009523D01*
X144604761Y-39057142D01*
X144652380Y-39152380D01*
X144652380Y-39247619D01*
X144604761Y-39342857D01*
X144557142Y-39390476D01*
X144461904Y-39438095D01*
X144271428Y-39485714D01*
X144033333Y-39485714D01*
X143842857Y-39438095D01*
X143747619Y-39390476D01*
X143700000Y-39342857D01*
X143652380Y-39247619D01*
X144652380Y-42914285D02*
X144652380Y-43485714D01*
X144652380Y-43200000D02*
X143652380Y-43200000D01*
X143795238Y-43295238D01*
X143890476Y-43390476D01*
X143938095Y-43485714D01*
D10*
X143200000Y-45200000D02*
X143200000Y-37200000D01*
X145200000Y-33200000D02*
X145200000Y-45200000D01*
X154800000Y-33200000D02*
X154800000Y-45200000D01*
X145200000Y-35200000D02*
X154800000Y-35200000D01*
X141200000Y-37200000D02*
X154800000Y-37200000D01*
D11*
X153114285Y-35747619D02*
X153161904Y-35700000D01*
X153257142Y-35652380D01*
X153495238Y-35652380D01*
X153590476Y-35700000D01*
X153638095Y-35747619D01*
X153685714Y-35842857D01*
X153685714Y-35938095D01*
X153638095Y-36080952D01*
X153066666Y-36652380D01*
X153685714Y-36652380D01*
X148071428Y-34557142D02*
X148023809Y-34604761D01*
X147880952Y-34652380D01*
X147785714Y-34652380D01*
X147642857Y-34604761D01*
X147547619Y-34509523D01*
X147500000Y-34414285D01*
X147452380Y-34223809D01*
X147452380Y-34080952D01*
X147500000Y-33890476D01*
X147547619Y-33795238D01*
X147642857Y-33700000D01*
X147785714Y-33652380D01*
X147880952Y-33652380D01*
X148023809Y-33700000D01*
X148071428Y-33747619D01*
X148452380Y-34604761D02*
X148595238Y-34652380D01*
X148833333Y-34652380D01*
X148928571Y-34604761D01*
X148976190Y-34557142D01*
X149023809Y-34461904D01*
X149023809Y-34366666D01*
X148976190Y-34271428D01*
X148928571Y-34223809D01*
X148833333Y-34176190D01*
X148642857Y-34128571D01*
X148547619Y-34080952D01*
X148500000Y-34033333D01*
X148452380Y-33938095D01*
X148452380Y-33842857D01*
X148500000Y-33747619D01*
X148547619Y-33700000D01*
X148642857Y-33652380D01*
X148880952Y-33652380D01*
X149023809Y-33700000D01*
X150357142Y-34652380D02*
X150261904Y-34604761D01*
X150214285Y-34509523D01*
X150214285Y-33652380D01*
X150738095Y-34652380D02*
X150738095Y-33985714D01*
X150738095Y-33652380D02*
X150690476Y-33700000D01*
X150738095Y-33747619D01*
X150785714Y-33700000D01*
X150738095Y-33652380D01*
X150738095Y-33747619D01*
X151214285Y-33985714D02*
X151214285Y-34652380D01*
X151214285Y-34080952D02*
X151261904Y-34033333D01*
X151357142Y-33985714D01*
X151500000Y-33985714D01*
X151595238Y-34033333D01*
X151642857Y-34128571D01*
X151642857Y-34652380D01*
X152500000Y-34604761D02*
X152404761Y-34652380D01*
X152214285Y-34652380D01*
X152119047Y-34604761D01*
X152071428Y-34509523D01*
X152071428Y-34128571D01*
X152119047Y-34033333D01*
X152214285Y-33985714D01*
X152404761Y-33985714D01*
X152500000Y-34033333D01*
X152547619Y-34128571D01*
X152547619Y-34223809D01*
X152071428Y-34319047D01*
X146552380Y-35652380D02*
X146647619Y-35652380D01*
X146742857Y-35700000D01*
X146790476Y-35747619D01*
X146838095Y-35842857D01*
X146885714Y-36033333D01*
X146885714Y-36271428D01*
X146838095Y-36461904D01*
X146790476Y-36557142D01*
X146742857Y-36604761D01*
X146647619Y-36652380D01*
X146552380Y-36652380D01*
X146457142Y-36604761D01*
X146409523Y-36557142D01*
X146361904Y-36461904D01*
X146314285Y-36271428D01*
X146314285Y-36033333D01*
X146361904Y-35842857D01*
X146409523Y-35747619D01*
X146457142Y-35700000D01*
X146552380Y-35652380D01*
X150285714Y-36652380D02*
X149714285Y-36652380D01*
X150000000Y-36652380D02*
X150000000Y-35652380D01*
X149904761Y-35795238D01*
X149809523Y-35890476D01*
X149714285Y-35938095D01*
D10*
X143200000Y-41200000D02*
X154800000Y-41200000D01*
X154800000Y-45200000D02*
X141200000Y-45200000D01*
X169400000Y-45200000D02*
X155800000Y-45200000D01*
X157800000Y-41200000D02*
X169400000Y-41200000D01*
X169400000Y-35200000D02*
X169400000Y-45200000D01*
D11*
X159252380Y-42914285D02*
X159252380Y-43485714D01*
X159252380Y-43200000D02*
X158252380Y-43200000D01*
X158395238Y-43295238D01*
X158490476Y-43390476D01*
X158538095Y-43485714D01*
D10*
X159800000Y-45200000D02*
X159800000Y-37200000D01*
D11*
X81385714Y-35252380D02*
X81385714Y-34252380D01*
X81766666Y-34252380D01*
X81861904Y-34300000D01*
X81909523Y-34347619D01*
X81957142Y-34442857D01*
X81957142Y-34585714D01*
X81909523Y-34680952D01*
X81861904Y-34728571D01*
X81766666Y-34776190D01*
X81385714Y-34776190D01*
X82766666Y-35204761D02*
X82671428Y-35252380D01*
X82480952Y-35252380D01*
X82385714Y-35204761D01*
X82338095Y-35109523D01*
X82338095Y-34728571D01*
X82385714Y-34633333D01*
X82480952Y-34585714D01*
X82671428Y-34585714D01*
X82766666Y-34633333D01*
X82814285Y-34728571D01*
X82814285Y-34823809D01*
X82338095Y-34919047D01*
X83671428Y-35252380D02*
X83671428Y-34252380D01*
X83671428Y-35204761D02*
X83576190Y-35252380D01*
X83385714Y-35252380D01*
X83290476Y-35204761D01*
X83242857Y-35157142D01*
X83195238Y-35061904D01*
X83195238Y-34776190D01*
X83242857Y-34680952D01*
X83290476Y-34633333D01*
X83385714Y-34585714D01*
X83576190Y-34585714D01*
X83671428Y-34633333D01*
X84576190Y-35252380D02*
X84576190Y-34728571D01*
X84528571Y-34633333D01*
X84433333Y-34585714D01*
X84242857Y-34585714D01*
X84147619Y-34633333D01*
X84576190Y-35204761D02*
X84480952Y-35252380D01*
X84242857Y-35252380D01*
X84147619Y-35204761D01*
X84100000Y-35109523D01*
X84100000Y-35014285D01*
X84147619Y-34919047D01*
X84242857Y-34871428D01*
X84480952Y-34871428D01*
X84576190Y-34823809D01*
X85195238Y-35252380D02*
X85100000Y-35204761D01*
X85052380Y-35109523D01*
X85052380Y-34252380D01*
X86290476Y-34347619D02*
X86338095Y-34300000D01*
X86433333Y-34252380D01*
X86671428Y-34252380D01*
X86766666Y-34300000D01*
X86814285Y-34347619D01*
X86861904Y-34442857D01*
X86861904Y-34538095D01*
X86814285Y-34680952D01*
X86242857Y-35252380D01*
X86861904Y-35252380D01*
X69385714Y-35252380D02*
X69385714Y-34252380D01*
X69766666Y-34252380D01*
X69861904Y-34300000D01*
X69909523Y-34347619D01*
X69957142Y-34442857D01*
X69957142Y-34585714D01*
X69909523Y-34680952D01*
X69861904Y-34728571D01*
X69766666Y-34776190D01*
X69385714Y-34776190D01*
X70766666Y-35204761D02*
X70671428Y-35252380D01*
X70480952Y-35252380D01*
X70385714Y-35204761D01*
X70338095Y-35109523D01*
X70338095Y-34728571D01*
X70385714Y-34633333D01*
X70480952Y-34585714D01*
X70671428Y-34585714D01*
X70766666Y-34633333D01*
X70814285Y-34728571D01*
X70814285Y-34823809D01*
X70338095Y-34919047D01*
X71671428Y-35252380D02*
X71671428Y-34252380D01*
X71671428Y-35204761D02*
X71576190Y-35252380D01*
X71385714Y-35252380D01*
X71290476Y-35204761D01*
X71242857Y-35157142D01*
X71195238Y-35061904D01*
X71195238Y-34776190D01*
X71242857Y-34680952D01*
X71290476Y-34633333D01*
X71385714Y-34585714D01*
X71576190Y-34585714D01*
X71671428Y-34633333D01*
X72576190Y-35252380D02*
X72576190Y-34728571D01*
X72528571Y-34633333D01*
X72433333Y-34585714D01*
X72242857Y-34585714D01*
X72147619Y-34633333D01*
X72576190Y-35204761D02*
X72480952Y-35252380D01*
X72242857Y-35252380D01*
X72147619Y-35204761D01*
X72100000Y-35109523D01*
X72100000Y-35014285D01*
X72147619Y-34919047D01*
X72242857Y-34871428D01*
X72480952Y-34871428D01*
X72576190Y-34823809D01*
X73195238Y-35252380D02*
X73100000Y-35204761D01*
X73052380Y-35109523D01*
X73052380Y-34252380D01*
X74861904Y-35252380D02*
X74290476Y-35252380D01*
X74576190Y-35252380D02*
X74576190Y-34252380D01*
X74480952Y-34395238D01*
X74385714Y-34490476D01*
X74290476Y-34538095D01*
D12*
X92037857Y-31878571D02*
X92323571Y-31878571D01*
X92466428Y-31950000D01*
X92609285Y-32092857D01*
X92680714Y-32378571D01*
X92680714Y-32878571D01*
X92609285Y-33164285D01*
X92466428Y-33307142D01*
X92323571Y-33378571D01*
X92037857Y-33378571D01*
X91895000Y-33307142D01*
X91752142Y-33164285D01*
X91680714Y-32878571D01*
X91680714Y-32378571D01*
X91752142Y-32092857D01*
X91895000Y-31950000D01*
X92037857Y-31878571D01*
X93323571Y-33378571D02*
X93323571Y-31878571D01*
X93895000Y-31878571D01*
X94037857Y-31950000D01*
X94109285Y-32021428D01*
X94180714Y-32164285D01*
X94180714Y-32378571D01*
X94109285Y-32521428D01*
X94037857Y-32592857D01*
X93895000Y-32664285D01*
X93323571Y-32664285D01*
X94823571Y-33378571D02*
X94823571Y-31878571D01*
X95680714Y-33378571D02*
X95037857Y-32521428D01*
X95680714Y-31878571D02*
X94823571Y-32735714D01*
X96323571Y-32592857D02*
X96823571Y-32592857D01*
X97037857Y-33378571D02*
X96323571Y-33378571D01*
X96323571Y-31878571D01*
X97037857Y-31878571D01*
X97966428Y-32664285D02*
X97966428Y-33378571D01*
X97466428Y-31878571D02*
X97966428Y-32664285D01*
X98466428Y-31878571D01*
D13*
X91958571Y-34352380D02*
X92149047Y-34352380D01*
X92244285Y-34400000D01*
X92339523Y-34495238D01*
X92387142Y-34685714D01*
X92387142Y-35019047D01*
X92339523Y-35209523D01*
X92244285Y-35304761D01*
X92149047Y-35352380D01*
X91958571Y-35352380D01*
X91863333Y-35304761D01*
X91768095Y-35209523D01*
X91720476Y-35019047D01*
X91720476Y-34685714D01*
X91768095Y-34495238D01*
X91863333Y-34400000D01*
X91958571Y-34352380D01*
X92815714Y-34685714D02*
X92815714Y-35685714D01*
X92815714Y-34733333D02*
X92910952Y-34685714D01*
X93101428Y-34685714D01*
X93196666Y-34733333D01*
X93244285Y-34780952D01*
X93291904Y-34876190D01*
X93291904Y-35161904D01*
X93244285Y-35257142D01*
X93196666Y-35304761D01*
X93101428Y-35352380D01*
X92910952Y-35352380D01*
X92815714Y-35304761D01*
X93577619Y-34685714D02*
X93958571Y-34685714D01*
X93720476Y-34352380D02*
X93720476Y-35209523D01*
X93768095Y-35304761D01*
X93863333Y-35352380D01*
X93958571Y-35352380D01*
X94291904Y-35352380D02*
X94291904Y-34685714D01*
X94291904Y-34352380D02*
X94244285Y-34400000D01*
X94291904Y-34447619D01*
X94339523Y-34400000D01*
X94291904Y-34352380D01*
X94291904Y-34447619D01*
X95196666Y-35304761D02*
X95101428Y-35352380D01*
X94910952Y-35352380D01*
X94815714Y-35304761D01*
X94768095Y-35257142D01*
X94720476Y-35161904D01*
X94720476Y-34876190D01*
X94768095Y-34780952D01*
X94815714Y-34733333D01*
X94910952Y-34685714D01*
X95101428Y-34685714D01*
X95196666Y-34733333D01*
X96053809Y-35352380D02*
X96053809Y-34828571D01*
X96006190Y-34733333D01*
X95910952Y-34685714D01*
X95720476Y-34685714D01*
X95625238Y-34733333D01*
X96053809Y-35304761D02*
X95958571Y-35352380D01*
X95720476Y-35352380D01*
X95625238Y-35304761D01*
X95577619Y-35209523D01*
X95577619Y-35114285D01*
X95625238Y-35019047D01*
X95720476Y-34971428D01*
X95958571Y-34971428D01*
X96053809Y-34923809D01*
X96672857Y-35352380D02*
X96577619Y-35304761D01*
X96530000Y-35209523D01*
X96530000Y-34352380D01*
X97768095Y-35304761D02*
X97910952Y-35352380D01*
X98149047Y-35352380D01*
X98244285Y-35304761D01*
X98291904Y-35257142D01*
X98339523Y-35161904D01*
X98339523Y-35066666D01*
X98291904Y-34971428D01*
X98244285Y-34923809D01*
X98149047Y-34876190D01*
X97958571Y-34828571D01*
X97863333Y-34780952D01*
X97815714Y-34733333D01*
X97768095Y-34638095D01*
X97768095Y-34542857D01*
X97815714Y-34447619D01*
X97863333Y-34400000D01*
X97958571Y-34352380D01*
X98196666Y-34352380D01*
X98339523Y-34400000D01*
X99149047Y-35304761D02*
X99053809Y-35352380D01*
X98863333Y-35352380D01*
X98768095Y-35304761D01*
X98720476Y-35209523D01*
X98720476Y-34828571D01*
X98768095Y-34733333D01*
X98863333Y-34685714D01*
X99053809Y-34685714D01*
X99149047Y-34733333D01*
X99196666Y-34828571D01*
X99196666Y-34923809D01*
X98720476Y-35019047D01*
X99625238Y-34685714D02*
X99625238Y-35352380D01*
X99625238Y-34780952D02*
X99672857Y-34733333D01*
X99768095Y-34685714D01*
X99910952Y-34685714D01*
X100006190Y-34733333D01*
X100053809Y-34828571D01*
X100053809Y-35352380D01*
X100482380Y-35304761D02*
X100577619Y-35352380D01*
X100768095Y-35352380D01*
X100863333Y-35304761D01*
X100910952Y-35209523D01*
X100910952Y-35161904D01*
X100863333Y-35066666D01*
X100768095Y-35019047D01*
X100625238Y-35019047D01*
X100530000Y-34971428D01*
X100482380Y-34876190D01*
X100482380Y-34828571D01*
X100530000Y-34733333D01*
X100625238Y-34685714D01*
X100768095Y-34685714D01*
X100863333Y-34733333D01*
X101482380Y-35352380D02*
X101387142Y-35304761D01*
X101339523Y-35257142D01*
X101291904Y-35161904D01*
X101291904Y-34876190D01*
X101339523Y-34780952D01*
X101387142Y-34733333D01*
X101482380Y-34685714D01*
X101625238Y-34685714D01*
X101720476Y-34733333D01*
X101768095Y-34780952D01*
X101815714Y-34876190D01*
X101815714Y-35161904D01*
X101768095Y-35257142D01*
X101720476Y-35304761D01*
X101625238Y-35352380D01*
X101482380Y-35352380D01*
X102244285Y-35352380D02*
X102244285Y-34685714D01*
X102244285Y-34876190D02*
X102291904Y-34780952D01*
X102339523Y-34733333D01*
X102434761Y-34685714D01*
X102530000Y-34685714D01*
X103577619Y-35066666D02*
X104053809Y-35066666D01*
X103482380Y-35352380D02*
X103815714Y-34352380D01*
X104149047Y-35352380D01*
X104482380Y-35352380D02*
X104482380Y-34685714D01*
X104482380Y-34876190D02*
X104530000Y-34780952D01*
X104577619Y-34733333D01*
X104672857Y-34685714D01*
X104768095Y-34685714D01*
X105101428Y-35352380D02*
X105101428Y-34685714D01*
X105101428Y-34876190D02*
X105149047Y-34780952D01*
X105196666Y-34733333D01*
X105291904Y-34685714D01*
X105387142Y-34685714D01*
X106149047Y-35352380D02*
X106149047Y-34828571D01*
X106101428Y-34733333D01*
X106006190Y-34685714D01*
X105815714Y-34685714D01*
X105720476Y-34733333D01*
X106149047Y-35304761D02*
X106053809Y-35352380D01*
X105815714Y-35352380D01*
X105720476Y-35304761D01*
X105672857Y-35209523D01*
X105672857Y-35114285D01*
X105720476Y-35019047D01*
X105815714Y-34971428D01*
X106053809Y-34971428D01*
X106149047Y-34923809D01*
X106530000Y-34685714D02*
X106768095Y-35352380D01*
X107006190Y-34685714D02*
X106768095Y-35352380D01*
X106672857Y-35590476D01*
X106625238Y-35638095D01*
X106530000Y-35685714D01*
X51000000Y-33200000D02*
X50000000Y-32200000D01*
X50000000Y-32200000D02*
X50200000Y-32900000D01*
X50000000Y-32200000D02*
X50700000Y-32400000D01*
X48700000Y-32700000D02*
X49400000Y-32900000D01*
X48700000Y-32700000D02*
X48900000Y-33400000D01*
X49700000Y-33700000D02*
X48700000Y-32700000D01*
X50200000Y-34850000D02*
X49000000Y-34850000D01*
D10*
X50200000Y-35850000D02*
X50200000Y-34850000D01*
D13*
X50200000Y-33850000D02*
X50200000Y-35850000D01*
X50200000Y-34850000D02*
X52200000Y-35850000D01*
X52200000Y-33850000D02*
X50200000Y-34850000D01*
X52200000Y-35850000D02*
X52200000Y-33850000D01*
X53400000Y-34850000D02*
X52200000Y-34850000D01*
D10*
X56500000Y-39000000D02*
X56000000Y-39500000D01*
X55750000Y-39000000D02*
X55250000Y-39500000D01*
X55000000Y-39000000D02*
X54500000Y-39500000D01*
X52750000Y-39000000D02*
X52250000Y-39500000D01*
X52000000Y-39000000D02*
X51500000Y-39500000D01*
X53500000Y-39000000D02*
X53000000Y-39500000D01*
X51250000Y-39000000D02*
X50750000Y-39500000D01*
X54250000Y-39000000D02*
X53750000Y-39500000D01*
X54500000Y-35000000D02*
G75*
G03X55750000Y-36250000I1250000J0D01*
G01*
X57000000Y-37500000D02*
G75*
G03X55750000Y-36250000I-1250000J0D01*
G01*
X54500000Y-35000000D02*
G75*
G03X47000000Y-35000000I-3750000J0D01*
G01*
X57000000Y-39500000D02*
X57000000Y-37500000D01*
X56500000Y-39500000D02*
X57000000Y-39500000D01*
X47000000Y-39500000D02*
X47000000Y-35000000D01*
X47500000Y-39500000D02*
X47000000Y-39500000D01*
D14*
G36*
X55250000Y-40500000D02*
G01*
X55250000Y-39500000D01*
X55750000Y-39500000D01*
X55750000Y-40500000D01*
X55250000Y-40500000D01*
G37*
X55250000Y-40500000D02*
X55250000Y-39500000D01*
X55750000Y-39500000D01*
X55750000Y-40500000D01*
X55250000Y-40500000D01*
G36*
X54250000Y-40500000D02*
G01*
X54250000Y-39500000D01*
X54750000Y-39500000D01*
X54750000Y-40500000D01*
X54250000Y-40500000D01*
G37*
X54250000Y-40500000D02*
X54250000Y-39500000D01*
X54750000Y-39500000D01*
X54750000Y-40500000D01*
X54250000Y-40500000D01*
G36*
X52750000Y-40500000D02*
G01*
X52750000Y-39500000D01*
X53250000Y-39500000D01*
X53250000Y-40500000D01*
X52750000Y-40500000D01*
G37*
X52750000Y-40500000D02*
X52750000Y-39500000D01*
X53250000Y-39500000D01*
X53250000Y-40500000D01*
X52750000Y-40500000D01*
G36*
X51750000Y-40500000D02*
G01*
X51750000Y-39500000D01*
X52250000Y-39500000D01*
X52250000Y-40500000D01*
X51750000Y-40500000D01*
G37*
X51750000Y-40500000D02*
X51750000Y-39500000D01*
X52250000Y-39500000D01*
X52250000Y-40500000D01*
X51750000Y-40500000D01*
G36*
X50750000Y-40500000D02*
G01*
X50750000Y-39500000D01*
X51250000Y-39500000D01*
X51250000Y-40500000D01*
X50750000Y-40500000D01*
G37*
X50750000Y-40500000D02*
X50750000Y-39500000D01*
X51250000Y-39500000D01*
X51250000Y-40500000D01*
X50750000Y-40500000D01*
G36*
X49250000Y-40500000D02*
G01*
X49250000Y-39500000D01*
X49750000Y-39500000D01*
X49750000Y-40500000D01*
X49250000Y-40500000D01*
G37*
X49250000Y-40500000D02*
X49250000Y-39500000D01*
X49750000Y-39500000D01*
X49750000Y-40500000D01*
X49250000Y-40500000D01*
G36*
X48250000Y-40500000D02*
G01*
X48250000Y-39500000D01*
X48750000Y-39500000D01*
X48750000Y-40500000D01*
X48250000Y-40500000D01*
G37*
X48250000Y-40500000D02*
X48250000Y-39500000D01*
X48750000Y-39500000D01*
X48750000Y-40500000D01*
X48250000Y-40500000D01*
D10*
X56500000Y-41000000D02*
X56500000Y-39500000D01*
X47500000Y-41000000D02*
X56500000Y-41000000D01*
X47500000Y-39500000D02*
X47500000Y-41000000D01*
X56500000Y-39500000D02*
X47500000Y-39500000D01*
X47500000Y-39000000D02*
X47000000Y-39500000D01*
X48250000Y-39000000D02*
X47750000Y-39500000D01*
X49000000Y-39000000D02*
X48500000Y-39500000D01*
X49750000Y-39000000D02*
X49250000Y-39500000D01*
X50500000Y-39000000D02*
X50000000Y-39500000D01*
D15*
G36*
X121639878Y-45687776D02*
G01*
X121745612Y-45688355D01*
X121822132Y-45689922D01*
X121874372Y-45692972D01*
X121907263Y-45697996D01*
X121925737Y-45705489D01*
X121934727Y-45715944D01*
X121939163Y-45729853D01*
X121939594Y-45731654D01*
X121946333Y-45764145D01*
X121958808Y-45828252D01*
X121975719Y-45917151D01*
X121995771Y-46024019D01*
X122017664Y-46142033D01*
X122018429Y-46146178D01*
X122040359Y-46261831D01*
X122060877Y-46364014D01*
X122078659Y-46446598D01*
X122092381Y-46503456D01*
X122100718Y-46528458D01*
X122101116Y-46528901D01*
X122125677Y-46541110D01*
X122176315Y-46561456D01*
X122242095Y-46585545D01*
X122242461Y-46585674D01*
X122325317Y-46616818D01*
X122423000Y-46656491D01*
X122515077Y-46696381D01*
X122519434Y-46698353D01*
X122669407Y-46766420D01*
X123001498Y-46539639D01*
X123103374Y-46470504D01*
X123195657Y-46408697D01*
X123273003Y-46357733D01*
X123330064Y-46321127D01*
X123361495Y-46302394D01*
X123364479Y-46301004D01*
X123387321Y-46307190D01*
X123429982Y-46337035D01*
X123494128Y-46391947D01*
X123581421Y-46473334D01*
X123670535Y-46559922D01*
X123756441Y-46645247D01*
X123833327Y-46723108D01*
X123896564Y-46788697D01*
X123941523Y-46837205D01*
X123963576Y-46863825D01*
X123964396Y-46865195D01*
X123966834Y-46883463D01*
X123957650Y-46913295D01*
X123934574Y-46958721D01*
X123895337Y-47023770D01*
X123837670Y-47112470D01*
X123760795Y-47226657D01*
X123692570Y-47327162D01*
X123631582Y-47417303D01*
X123581356Y-47491849D01*
X123545416Y-47545565D01*
X123527287Y-47573218D01*
X123526146Y-47575095D01*
X123528359Y-47601590D01*
X123545138Y-47653086D01*
X123573142Y-47719851D01*
X123583122Y-47741172D01*
X123626672Y-47836159D01*
X123673134Y-47943937D01*
X123710877Y-48037192D01*
X123738073Y-48106406D01*
X123759675Y-48159006D01*
X123772158Y-48186497D01*
X123773709Y-48188616D01*
X123796668Y-48192124D01*
X123850786Y-48201738D01*
X123928868Y-48216089D01*
X124023719Y-48233807D01*
X124128143Y-48253525D01*
X124234944Y-48273874D01*
X124336926Y-48293486D01*
X124426894Y-48310991D01*
X124497653Y-48325022D01*
X124542006Y-48334209D01*
X124552885Y-48336807D01*
X124564122Y-48343218D01*
X124572605Y-48357697D01*
X124578714Y-48385133D01*
X124582832Y-48430411D01*
X124585341Y-48498420D01*
X124586621Y-48594047D01*
X124587054Y-48722180D01*
X124587077Y-48774701D01*
X124587077Y-49201845D01*
X124484500Y-49222091D01*
X124427431Y-49233070D01*
X124342269Y-49249095D01*
X124239372Y-49268233D01*
X124129096Y-49288551D01*
X124098615Y-49294132D01*
X123996855Y-49313917D01*
X123908205Y-49333373D01*
X123840108Y-49350697D01*
X123800004Y-49364088D01*
X123793323Y-49368079D01*
X123776919Y-49396342D01*
X123753399Y-49451109D01*
X123727316Y-49521588D01*
X123722142Y-49536769D01*
X123687956Y-49630896D01*
X123645523Y-49737101D01*
X123603997Y-49832473D01*
X123603792Y-49832916D01*
X123534640Y-49982525D01*
X123989512Y-50651617D01*
X123697500Y-50944116D01*
X123609180Y-51031170D01*
X123528625Y-51107909D01*
X123460360Y-51170237D01*
X123408908Y-51214056D01*
X123378794Y-51235270D01*
X123374474Y-51236616D01*
X123349111Y-51226016D01*
X123297358Y-51196547D01*
X123224868Y-51151705D01*
X123137294Y-51094984D01*
X123042612Y-51031462D01*
X122946516Y-50966668D01*
X122860837Y-50910287D01*
X122791016Y-50865788D01*
X122742494Y-50836639D01*
X122720782Y-50826308D01*
X122694293Y-50835050D01*
X122644062Y-50858087D01*
X122580451Y-50890631D01*
X122573708Y-50894249D01*
X122488046Y-50937210D01*
X122429306Y-50958279D01*
X122392772Y-50958503D01*
X122373731Y-50938928D01*
X122373620Y-50938654D01*
X122364102Y-50915472D01*
X122341403Y-50860441D01*
X122307282Y-50777822D01*
X122263500Y-50671872D01*
X122211816Y-50546852D01*
X122153992Y-50407020D01*
X122097991Y-50271637D01*
X122036447Y-50122234D01*
X121979939Y-49983832D01*
X121930161Y-49860673D01*
X121888806Y-49757002D01*
X121857568Y-49677059D01*
X121838141Y-49625088D01*
X121832154Y-49605692D01*
X121847168Y-49583443D01*
X121886439Y-49547982D01*
X121938807Y-49508887D01*
X122087941Y-49385245D01*
X122204511Y-49243522D01*
X122287118Y-49086704D01*
X122334366Y-48917775D01*
X122344857Y-48739722D01*
X122337231Y-48657539D01*
X122295682Y-48487031D01*
X122224123Y-48336459D01*
X122126995Y-48207309D01*
X122008734Y-48101064D01*
X121873780Y-48019210D01*
X121726571Y-47963232D01*
X121571544Y-47934615D01*
X121413139Y-47934844D01*
X121255794Y-47965405D01*
X121103946Y-48027782D01*
X120962035Y-48123460D01*
X120902803Y-48177572D01*
X120789203Y-48316520D01*
X120710106Y-48468361D01*
X120664986Y-48628667D01*
X120653316Y-48793012D01*
X120674569Y-48956971D01*
X120728220Y-49116118D01*
X120813740Y-49266025D01*
X120930605Y-49402267D01*
X121061193Y-49508887D01*
X121115588Y-49549642D01*
X121154014Y-49584718D01*
X121167846Y-49605726D01*
X121160603Y-49628635D01*
X121140005Y-49683365D01*
X121107746Y-49765672D01*
X121065521Y-49871315D01*
X121015023Y-49996050D01*
X120957948Y-50135636D01*
X120901854Y-50271670D01*
X120839967Y-50421201D01*
X120782644Y-50559767D01*
X120731644Y-50683107D01*
X120688727Y-50786964D01*
X120655653Y-50867080D01*
X120634181Y-50919195D01*
X120626225Y-50938654D01*
X120607429Y-50958423D01*
X120571074Y-50958365D01*
X120512479Y-50937441D01*
X120426968Y-50894613D01*
X120426292Y-50894249D01*
X120361907Y-50861012D01*
X120309861Y-50836802D01*
X120280512Y-50826404D01*
X120279217Y-50826308D01*
X120257124Y-50836855D01*
X120208348Y-50866184D01*
X120138331Y-50910827D01*
X120052514Y-50967314D01*
X119957388Y-51031462D01*
X119860540Y-51096411D01*
X119773253Y-51152896D01*
X119701181Y-51197421D01*
X119649977Y-51226490D01*
X119625526Y-51236616D01*
X119603010Y-51223307D01*
X119557742Y-51186112D01*
X119494244Y-51129128D01*
X119417039Y-51056449D01*
X119330651Y-50972171D01*
X119302399Y-50944016D01*
X119010287Y-50651416D01*
X119232631Y-50325104D01*
X119300202Y-50224897D01*
X119359507Y-50134963D01*
X119407217Y-50060510D01*
X119440007Y-50006751D01*
X119454548Y-49978894D01*
X119454974Y-49976912D01*
X119447308Y-49950655D01*
X119426689Y-49897837D01*
X119396685Y-49827310D01*
X119375625Y-49780093D01*
X119336248Y-49689694D01*
X119299165Y-49598366D01*
X119270415Y-49521200D01*
X119262605Y-49497692D01*
X119240417Y-49434916D01*
X119218727Y-49386411D01*
X119206813Y-49368079D01*
X119180523Y-49356859D01*
X119123142Y-49340954D01*
X119042118Y-49322167D01*
X118944895Y-49302299D01*
X118901385Y-49294132D01*
X118790896Y-49273829D01*
X118684916Y-49254170D01*
X118593801Y-49237088D01*
X118527908Y-49224518D01*
X118515500Y-49222091D01*
X118412923Y-49201845D01*
X118412923Y-48774701D01*
X118413153Y-48634246D01*
X118414099Y-48527979D01*
X118416141Y-48451013D01*
X118419662Y-48398460D01*
X118425043Y-48365433D01*
X118432666Y-48347045D01*
X118442912Y-48338408D01*
X118447115Y-48336807D01*
X118472470Y-48331127D01*
X118528484Y-48319795D01*
X118607964Y-48304179D01*
X118703712Y-48285647D01*
X118808533Y-48265569D01*
X118915232Y-48245312D01*
X119016613Y-48226246D01*
X119105479Y-48209739D01*
X119174637Y-48197159D01*
X119216889Y-48189875D01*
X119226290Y-48188616D01*
X119234807Y-48171763D01*
X119253660Y-48126870D01*
X119279324Y-48062430D01*
X119289123Y-48037192D01*
X119328648Y-47939686D01*
X119375192Y-47831959D01*
X119416877Y-47741172D01*
X119447550Y-47671753D01*
X119467956Y-47614710D01*
X119474768Y-47579777D01*
X119473682Y-47575095D01*
X119459285Y-47552991D01*
X119426412Y-47503831D01*
X119378590Y-47432848D01*
X119319348Y-47345278D01*
X119252215Y-47246357D01*
X119238941Y-47226830D01*
X119161046Y-47111140D01*
X119103787Y-47023044D01*
X119064881Y-46958486D01*
X119042044Y-46913411D01*
X119032994Y-46883763D01*
X119035448Y-46865485D01*
X119035511Y-46865369D01*
X119054827Y-46841361D01*
X119097551Y-46794947D01*
X119159051Y-46730937D01*
X119234698Y-46654145D01*
X119319861Y-46569382D01*
X119329465Y-46559922D01*
X119436790Y-46455989D01*
X119519615Y-46379675D01*
X119579605Y-46329571D01*
X119618423Y-46304270D01*
X119635520Y-46301004D01*
X119660473Y-46315250D01*
X119712255Y-46348156D01*
X119785520Y-46396208D01*
X119874920Y-46455890D01*
X119975111Y-46523688D01*
X119998501Y-46539639D01*
X120330593Y-46766420D01*
X120480565Y-46698353D01*
X120571770Y-46658685D01*
X120669669Y-46618791D01*
X120753831Y-46586983D01*
X120757538Y-46585674D01*
X120823369Y-46561576D01*
X120874116Y-46541200D01*
X120898842Y-46528936D01*
X120898884Y-46528901D01*
X120906729Y-46506734D01*
X120920066Y-46452217D01*
X120937570Y-46371480D01*
X120957917Y-46270650D01*
X120979782Y-46155856D01*
X120981571Y-46146178D01*
X121003504Y-46027904D01*
X121023640Y-45920542D01*
X121040680Y-45830917D01*
X121053328Y-45765851D01*
X121060284Y-45732168D01*
X121060406Y-45731654D01*
X121064639Y-45717325D01*
X121072871Y-45706507D01*
X121090033Y-45698706D01*
X121121058Y-45693429D01*
X121170878Y-45690182D01*
X121244424Y-45688472D01*
X121346629Y-45687807D01*
X121482425Y-45687693D01*
X121500000Y-45687692D01*
X121639878Y-45687776D01*
X121639878Y-45687776D01*
G37*
X121639878Y-45687776D02*
X121745612Y-45688355D01*
X121822132Y-45689922D01*
X121874372Y-45692972D01*
X121907263Y-45697996D01*
X121925737Y-45705489D01*
X121934727Y-45715944D01*
X121939163Y-45729853D01*
X121939594Y-45731654D01*
X121946333Y-45764145D01*
X121958808Y-45828252D01*
X121975719Y-45917151D01*
X121995771Y-46024019D01*
X122017664Y-46142033D01*
X122018429Y-46146178D01*
X122040359Y-46261831D01*
X122060877Y-46364014D01*
X122078659Y-46446598D01*
X122092381Y-46503456D01*
X122100718Y-46528458D01*
X122101116Y-46528901D01*
X122125677Y-46541110D01*
X122176315Y-46561456D01*
X122242095Y-46585545D01*
X122242461Y-46585674D01*
X122325317Y-46616818D01*
X122423000Y-46656491D01*
X122515077Y-46696381D01*
X122519434Y-46698353D01*
X122669407Y-46766420D01*
X123001498Y-46539639D01*
X123103374Y-46470504D01*
X123195657Y-46408697D01*
X123273003Y-46357733D01*
X123330064Y-46321127D01*
X123361495Y-46302394D01*
X123364479Y-46301004D01*
X123387321Y-46307190D01*
X123429982Y-46337035D01*
X123494128Y-46391947D01*
X123581421Y-46473334D01*
X123670535Y-46559922D01*
X123756441Y-46645247D01*
X123833327Y-46723108D01*
X123896564Y-46788697D01*
X123941523Y-46837205D01*
X123963576Y-46863825D01*
X123964396Y-46865195D01*
X123966834Y-46883463D01*
X123957650Y-46913295D01*
X123934574Y-46958721D01*
X123895337Y-47023770D01*
X123837670Y-47112470D01*
X123760795Y-47226657D01*
X123692570Y-47327162D01*
X123631582Y-47417303D01*
X123581356Y-47491849D01*
X123545416Y-47545565D01*
X123527287Y-47573218D01*
X123526146Y-47575095D01*
X123528359Y-47601590D01*
X123545138Y-47653086D01*
X123573142Y-47719851D01*
X123583122Y-47741172D01*
X123626672Y-47836159D01*
X123673134Y-47943937D01*
X123710877Y-48037192D01*
X123738073Y-48106406D01*
X123759675Y-48159006D01*
X123772158Y-48186497D01*
X123773709Y-48188616D01*
X123796668Y-48192124D01*
X123850786Y-48201738D01*
X123928868Y-48216089D01*
X124023719Y-48233807D01*
X124128143Y-48253525D01*
X124234944Y-48273874D01*
X124336926Y-48293486D01*
X124426894Y-48310991D01*
X124497653Y-48325022D01*
X124542006Y-48334209D01*
X124552885Y-48336807D01*
X124564122Y-48343218D01*
X124572605Y-48357697D01*
X124578714Y-48385133D01*
X124582832Y-48430411D01*
X124585341Y-48498420D01*
X124586621Y-48594047D01*
X124587054Y-48722180D01*
X124587077Y-48774701D01*
X124587077Y-49201845D01*
X124484500Y-49222091D01*
X124427431Y-49233070D01*
X124342269Y-49249095D01*
X124239372Y-49268233D01*
X124129096Y-49288551D01*
X124098615Y-49294132D01*
X123996855Y-49313917D01*
X123908205Y-49333373D01*
X123840108Y-49350697D01*
X123800004Y-49364088D01*
X123793323Y-49368079D01*
X123776919Y-49396342D01*
X123753399Y-49451109D01*
X123727316Y-49521588D01*
X123722142Y-49536769D01*
X123687956Y-49630896D01*
X123645523Y-49737101D01*
X123603997Y-49832473D01*
X123603792Y-49832916D01*
X123534640Y-49982525D01*
X123989512Y-50651617D01*
X123697500Y-50944116D01*
X123609180Y-51031170D01*
X123528625Y-51107909D01*
X123460360Y-51170237D01*
X123408908Y-51214056D01*
X123378794Y-51235270D01*
X123374474Y-51236616D01*
X123349111Y-51226016D01*
X123297358Y-51196547D01*
X123224868Y-51151705D01*
X123137294Y-51094984D01*
X123042612Y-51031462D01*
X122946516Y-50966668D01*
X122860837Y-50910287D01*
X122791016Y-50865788D01*
X122742494Y-50836639D01*
X122720782Y-50826308D01*
X122694293Y-50835050D01*
X122644062Y-50858087D01*
X122580451Y-50890631D01*
X122573708Y-50894249D01*
X122488046Y-50937210D01*
X122429306Y-50958279D01*
X122392772Y-50958503D01*
X122373731Y-50938928D01*
X122373620Y-50938654D01*
X122364102Y-50915472D01*
X122341403Y-50860441D01*
X122307282Y-50777822D01*
X122263500Y-50671872D01*
X122211816Y-50546852D01*
X122153992Y-50407020D01*
X122097991Y-50271637D01*
X122036447Y-50122234D01*
X121979939Y-49983832D01*
X121930161Y-49860673D01*
X121888806Y-49757002D01*
X121857568Y-49677059D01*
X121838141Y-49625088D01*
X121832154Y-49605692D01*
X121847168Y-49583443D01*
X121886439Y-49547982D01*
X121938807Y-49508887D01*
X122087941Y-49385245D01*
X122204511Y-49243522D01*
X122287118Y-49086704D01*
X122334366Y-48917775D01*
X122344857Y-48739722D01*
X122337231Y-48657539D01*
X122295682Y-48487031D01*
X122224123Y-48336459D01*
X122126995Y-48207309D01*
X122008734Y-48101064D01*
X121873780Y-48019210D01*
X121726571Y-47963232D01*
X121571544Y-47934615D01*
X121413139Y-47934844D01*
X121255794Y-47965405D01*
X121103946Y-48027782D01*
X120962035Y-48123460D01*
X120902803Y-48177572D01*
X120789203Y-48316520D01*
X120710106Y-48468361D01*
X120664986Y-48628667D01*
X120653316Y-48793012D01*
X120674569Y-48956971D01*
X120728220Y-49116118D01*
X120813740Y-49266025D01*
X120930605Y-49402267D01*
X121061193Y-49508887D01*
X121115588Y-49549642D01*
X121154014Y-49584718D01*
X121167846Y-49605726D01*
X121160603Y-49628635D01*
X121140005Y-49683365D01*
X121107746Y-49765672D01*
X121065521Y-49871315D01*
X121015023Y-49996050D01*
X120957948Y-50135636D01*
X120901854Y-50271670D01*
X120839967Y-50421201D01*
X120782644Y-50559767D01*
X120731644Y-50683107D01*
X120688727Y-50786964D01*
X120655653Y-50867080D01*
X120634181Y-50919195D01*
X120626225Y-50938654D01*
X120607429Y-50958423D01*
X120571074Y-50958365D01*
X120512479Y-50937441D01*
X120426968Y-50894613D01*
X120426292Y-50894249D01*
X120361907Y-50861012D01*
X120309861Y-50836802D01*
X120280512Y-50826404D01*
X120279217Y-50826308D01*
X120257124Y-50836855D01*
X120208348Y-50866184D01*
X120138331Y-50910827D01*
X120052514Y-50967314D01*
X119957388Y-51031462D01*
X119860540Y-51096411D01*
X119773253Y-51152896D01*
X119701181Y-51197421D01*
X119649977Y-51226490D01*
X119625526Y-51236616D01*
X119603010Y-51223307D01*
X119557742Y-51186112D01*
X119494244Y-51129128D01*
X119417039Y-51056449D01*
X119330651Y-50972171D01*
X119302399Y-50944016D01*
X119010287Y-50651416D01*
X119232631Y-50325104D01*
X119300202Y-50224897D01*
X119359507Y-50134963D01*
X119407217Y-50060510D01*
X119440007Y-50006751D01*
X119454548Y-49978894D01*
X119454974Y-49976912D01*
X119447308Y-49950655D01*
X119426689Y-49897837D01*
X119396685Y-49827310D01*
X119375625Y-49780093D01*
X119336248Y-49689694D01*
X119299165Y-49598366D01*
X119270415Y-49521200D01*
X119262605Y-49497692D01*
X119240417Y-49434916D01*
X119218727Y-49386411D01*
X119206813Y-49368079D01*
X119180523Y-49356859D01*
X119123142Y-49340954D01*
X119042118Y-49322167D01*
X118944895Y-49302299D01*
X118901385Y-49294132D01*
X118790896Y-49273829D01*
X118684916Y-49254170D01*
X118593801Y-49237088D01*
X118527908Y-49224518D01*
X118515500Y-49222091D01*
X118412923Y-49201845D01*
X118412923Y-48774701D01*
X118413153Y-48634246D01*
X118414099Y-48527979D01*
X118416141Y-48451013D01*
X118419662Y-48398460D01*
X118425043Y-48365433D01*
X118432666Y-48347045D01*
X118442912Y-48338408D01*
X118447115Y-48336807D01*
X118472470Y-48331127D01*
X118528484Y-48319795D01*
X118607964Y-48304179D01*
X118703712Y-48285647D01*
X118808533Y-48265569D01*
X118915232Y-48245312D01*
X119016613Y-48226246D01*
X119105479Y-48209739D01*
X119174637Y-48197159D01*
X119216889Y-48189875D01*
X119226290Y-48188616D01*
X119234807Y-48171763D01*
X119253660Y-48126870D01*
X119279324Y-48062430D01*
X119289123Y-48037192D01*
X119328648Y-47939686D01*
X119375192Y-47831959D01*
X119416877Y-47741172D01*
X119447550Y-47671753D01*
X119467956Y-47614710D01*
X119474768Y-47579777D01*
X119473682Y-47575095D01*
X119459285Y-47552991D01*
X119426412Y-47503831D01*
X119378590Y-47432848D01*
X119319348Y-47345278D01*
X119252215Y-47246357D01*
X119238941Y-47226830D01*
X119161046Y-47111140D01*
X119103787Y-47023044D01*
X119064881Y-46958486D01*
X119042044Y-46913411D01*
X119032994Y-46883763D01*
X119035448Y-46865485D01*
X119035511Y-46865369D01*
X119054827Y-46841361D01*
X119097551Y-46794947D01*
X119159051Y-46730937D01*
X119234698Y-46654145D01*
X119319861Y-46569382D01*
X119329465Y-46559922D01*
X119436790Y-46455989D01*
X119519615Y-46379675D01*
X119579605Y-46329571D01*
X119618423Y-46304270D01*
X119635520Y-46301004D01*
X119660473Y-46315250D01*
X119712255Y-46348156D01*
X119785520Y-46396208D01*
X119874920Y-46455890D01*
X119975111Y-46523688D01*
X119998501Y-46539639D01*
X120330593Y-46766420D01*
X120480565Y-46698353D01*
X120571770Y-46658685D01*
X120669669Y-46618791D01*
X120753831Y-46586983D01*
X120757538Y-46585674D01*
X120823369Y-46561576D01*
X120874116Y-46541200D01*
X120898842Y-46528936D01*
X120898884Y-46528901D01*
X120906729Y-46506734D01*
X120920066Y-46452217D01*
X120937570Y-46371480D01*
X120957917Y-46270650D01*
X120979782Y-46155856D01*
X120981571Y-46146178D01*
X121003504Y-46027904D01*
X121023640Y-45920542D01*
X121040680Y-45830917D01*
X121053328Y-45765851D01*
X121060284Y-45732168D01*
X121060406Y-45731654D01*
X121064639Y-45717325D01*
X121072871Y-45706507D01*
X121090033Y-45698706D01*
X121121058Y-45693429D01*
X121170878Y-45690182D01*
X121244424Y-45688472D01*
X121346629Y-45687807D01*
X121482425Y-45687693D01*
X121500000Y-45687692D01*
X121639878Y-45687776D01*
G36*
X125745224Y-52047838D02*
G01*
X125822528Y-52098361D01*
X125859814Y-52143590D01*
X125889353Y-52225663D01*
X125891699Y-52290607D01*
X125886385Y-52377445D01*
X125686115Y-52465103D01*
X125588739Y-52509887D01*
X125525113Y-52545913D01*
X125492029Y-52577117D01*
X125486280Y-52607436D01*
X125504658Y-52640805D01*
X125524923Y-52662923D01*
X125583889Y-52698393D01*
X125648024Y-52700879D01*
X125706926Y-52673235D01*
X125750197Y-52618320D01*
X125757936Y-52598928D01*
X125795006Y-52538364D01*
X125837654Y-52512552D01*
X125896154Y-52490471D01*
X125896154Y-52574184D01*
X125890982Y-52631150D01*
X125870723Y-52679189D01*
X125828262Y-52734346D01*
X125821951Y-52741514D01*
X125774720Y-52790585D01*
X125734121Y-52816920D01*
X125683328Y-52829035D01*
X125641220Y-52833003D01*
X125565902Y-52833991D01*
X125512286Y-52821466D01*
X125478838Y-52802869D01*
X125426268Y-52761975D01*
X125389879Y-52717748D01*
X125366850Y-52662126D01*
X125354359Y-52587047D01*
X125349587Y-52484449D01*
X125349206Y-52432376D01*
X125350501Y-52369948D01*
X125468471Y-52369948D01*
X125469839Y-52403438D01*
X125473249Y-52408923D01*
X125495753Y-52401472D01*
X125544182Y-52381753D01*
X125608908Y-52353718D01*
X125622443Y-52347692D01*
X125704244Y-52306096D01*
X125749312Y-52269538D01*
X125759217Y-52235296D01*
X125735526Y-52200648D01*
X125715960Y-52185339D01*
X125645360Y-52154721D01*
X125579280Y-52159780D01*
X125523959Y-52197151D01*
X125485636Y-52263473D01*
X125473349Y-52316116D01*
X125468471Y-52369948D01*
X125350501Y-52369948D01*
X125351730Y-52310720D01*
X125361032Y-52220710D01*
X125379460Y-52155167D01*
X125409360Y-52106912D01*
X125453080Y-52068767D01*
X125472141Y-52056440D01*
X125558726Y-52024336D01*
X125653522Y-52022316D01*
X125745224Y-52047838D01*
X125745224Y-52047838D01*
G37*
X125745224Y-52047838D02*
X125822528Y-52098361D01*
X125859814Y-52143590D01*
X125889353Y-52225663D01*
X125891699Y-52290607D01*
X125886385Y-52377445D01*
X125686115Y-52465103D01*
X125588739Y-52509887D01*
X125525113Y-52545913D01*
X125492029Y-52577117D01*
X125486280Y-52607436D01*
X125504658Y-52640805D01*
X125524923Y-52662923D01*
X125583889Y-52698393D01*
X125648024Y-52700879D01*
X125706926Y-52673235D01*
X125750197Y-52618320D01*
X125757936Y-52598928D01*
X125795006Y-52538364D01*
X125837654Y-52512552D01*
X125896154Y-52490471D01*
X125896154Y-52574184D01*
X125890982Y-52631150D01*
X125870723Y-52679189D01*
X125828262Y-52734346D01*
X125821951Y-52741514D01*
X125774720Y-52790585D01*
X125734121Y-52816920D01*
X125683328Y-52829035D01*
X125641220Y-52833003D01*
X125565902Y-52833991D01*
X125512286Y-52821466D01*
X125478838Y-52802869D01*
X125426268Y-52761975D01*
X125389879Y-52717748D01*
X125366850Y-52662126D01*
X125354359Y-52587047D01*
X125349587Y-52484449D01*
X125349206Y-52432376D01*
X125350501Y-52369948D01*
X125468471Y-52369948D01*
X125469839Y-52403438D01*
X125473249Y-52408923D01*
X125495753Y-52401472D01*
X125544182Y-52381753D01*
X125608908Y-52353718D01*
X125622443Y-52347692D01*
X125704244Y-52306096D01*
X125749312Y-52269538D01*
X125759217Y-52235296D01*
X125735526Y-52200648D01*
X125715960Y-52185339D01*
X125645360Y-52154721D01*
X125579280Y-52159780D01*
X125523959Y-52197151D01*
X125485636Y-52263473D01*
X125473349Y-52316116D01*
X125468471Y-52369948D01*
X125350501Y-52369948D01*
X125351730Y-52310720D01*
X125361032Y-52220710D01*
X125379460Y-52155167D01*
X125409360Y-52106912D01*
X125453080Y-52068767D01*
X125472141Y-52056440D01*
X125558726Y-52024336D01*
X125653522Y-52022316D01*
X125745224Y-52047838D01*
G36*
X125070807Y-52036782D02*
G01*
X125094161Y-52046988D01*
X125149902Y-52091134D01*
X125197569Y-52154967D01*
X125227048Y-52223087D01*
X125231846Y-52256670D01*
X125215760Y-52303556D01*
X125180475Y-52328365D01*
X125142644Y-52343387D01*
X125125321Y-52346155D01*
X125116886Y-52326066D01*
X125100230Y-52282351D01*
X125092923Y-52262598D01*
X125051948Y-52194271D01*
X124992622Y-52160191D01*
X124916552Y-52161239D01*
X124910918Y-52162581D01*
X124870305Y-52181836D01*
X124840448Y-52219375D01*
X124820055Y-52279809D01*
X124807836Y-52367751D01*
X124802500Y-52487813D01*
X124802000Y-52551698D01*
X124801752Y-52652403D01*
X124800126Y-52721054D01*
X124795801Y-52764673D01*
X124787454Y-52790282D01*
X124773765Y-52804903D01*
X124753411Y-52815558D01*
X124752234Y-52816095D01*
X124713038Y-52832667D01*
X124693619Y-52838769D01*
X124690635Y-52820319D01*
X124688081Y-52769323D01*
X124686140Y-52692308D01*
X124684997Y-52595805D01*
X124684769Y-52525184D01*
X124685932Y-52388525D01*
X124690479Y-52284851D01*
X124699999Y-52208108D01*
X124716081Y-52152246D01*
X124740313Y-52111212D01*
X124774286Y-52078954D01*
X124807833Y-52056440D01*
X124888499Y-52026476D01*
X124982381Y-52019718D01*
X125070807Y-52036782D01*
X125070807Y-52036782D01*
G37*
X125070807Y-52036782D02*
X125094161Y-52046988D01*
X125149902Y-52091134D01*
X125197569Y-52154967D01*
X125227048Y-52223087D01*
X125231846Y-52256670D01*
X125215760Y-52303556D01*
X125180475Y-52328365D01*
X125142644Y-52343387D01*
X125125321Y-52346155D01*
X125116886Y-52326066D01*
X125100230Y-52282351D01*
X125092923Y-52262598D01*
X125051948Y-52194271D01*
X124992622Y-52160191D01*
X124916552Y-52161239D01*
X124910918Y-52162581D01*
X124870305Y-52181836D01*
X124840448Y-52219375D01*
X124820055Y-52279809D01*
X124807836Y-52367751D01*
X124802500Y-52487813D01*
X124802000Y-52551698D01*
X124801752Y-52652403D01*
X124800126Y-52721054D01*
X124795801Y-52764673D01*
X124787454Y-52790282D01*
X124773765Y-52804903D01*
X124753411Y-52815558D01*
X124752234Y-52816095D01*
X124713038Y-52832667D01*
X124693619Y-52838769D01*
X124690635Y-52820319D01*
X124688081Y-52769323D01*
X124686140Y-52692308D01*
X124684997Y-52595805D01*
X124684769Y-52525184D01*
X124685932Y-52388525D01*
X124690479Y-52284851D01*
X124699999Y-52208108D01*
X124716081Y-52152246D01*
X124740313Y-52111212D01*
X124774286Y-52078954D01*
X124807833Y-52056440D01*
X124888499Y-52026476D01*
X124982381Y-52019718D01*
X125070807Y-52036782D01*
G36*
X124387333Y-52033528D02*
G01*
X124443590Y-52059117D01*
X124487747Y-52090124D01*
X124520101Y-52124795D01*
X124542438Y-52169520D01*
X124556546Y-52230692D01*
X124564211Y-52314701D01*
X124567220Y-52427940D01*
X124567538Y-52502509D01*
X124567538Y-52793420D01*
X124517773Y-52816095D01*
X124478576Y-52832667D01*
X124459157Y-52838769D01*
X124455442Y-52820610D01*
X124452495Y-52771648D01*
X124450691Y-52700153D01*
X124450308Y-52643385D01*
X124448661Y-52561371D01*
X124444222Y-52496309D01*
X124437740Y-52456467D01*
X124432590Y-52448000D01*
X124397977Y-52456646D01*
X124343640Y-52478823D01*
X124280722Y-52508886D01*
X124220368Y-52541192D01*
X124173721Y-52570098D01*
X124151926Y-52589961D01*
X124151839Y-52590175D01*
X124153714Y-52626935D01*
X124170525Y-52662026D01*
X124200039Y-52690528D01*
X124243116Y-52700061D01*
X124279932Y-52698950D01*
X124332074Y-52698133D01*
X124359444Y-52710349D01*
X124375882Y-52742624D01*
X124377955Y-52748710D01*
X124385081Y-52794739D01*
X124366024Y-52822687D01*
X124316353Y-52836007D01*
X124262697Y-52838470D01*
X124166142Y-52820210D01*
X124116159Y-52794131D01*
X124054429Y-52732868D01*
X124021690Y-52657670D01*
X124018753Y-52578211D01*
X124046424Y-52504167D01*
X124088047Y-52457769D01*
X124129604Y-52431793D01*
X124194922Y-52398907D01*
X124271038Y-52365557D01*
X124283726Y-52360461D01*
X124367333Y-52323565D01*
X124415530Y-52291046D01*
X124431030Y-52258718D01*
X124416550Y-52222394D01*
X124391692Y-52194000D01*
X124332939Y-52159039D01*
X124268293Y-52156417D01*
X124209008Y-52183358D01*
X124166339Y-52237088D01*
X124160739Y-52250950D01*
X124128133Y-52301936D01*
X124080530Y-52339787D01*
X124020461Y-52370850D01*
X124020461Y-52282768D01*
X124023997Y-52228951D01*
X124039156Y-52186534D01*
X124072768Y-52141279D01*
X124105035Y-52106420D01*
X124155209Y-52057062D01*
X124194193Y-52030547D01*
X124236064Y-52019911D01*
X124283460Y-52018154D01*
X124387333Y-52033528D01*
X124387333Y-52033528D01*
G37*
X124387333Y-52033528D02*
X124443590Y-52059117D01*
X124487747Y-52090124D01*
X124520101Y-52124795D01*
X124542438Y-52169520D01*
X124556546Y-52230692D01*
X124564211Y-52314701D01*
X124567220Y-52427940D01*
X124567538Y-52502509D01*
X124567538Y-52793420D01*
X124517773Y-52816095D01*
X124478576Y-52832667D01*
X124459157Y-52838769D01*
X124455442Y-52820610D01*
X124452495Y-52771648D01*
X124450691Y-52700153D01*
X124450308Y-52643385D01*
X124448661Y-52561371D01*
X124444222Y-52496309D01*
X124437740Y-52456467D01*
X124432590Y-52448000D01*
X124397977Y-52456646D01*
X124343640Y-52478823D01*
X124280722Y-52508886D01*
X124220368Y-52541192D01*
X124173721Y-52570098D01*
X124151926Y-52589961D01*
X124151839Y-52590175D01*
X124153714Y-52626935D01*
X124170525Y-52662026D01*
X124200039Y-52690528D01*
X124243116Y-52700061D01*
X124279932Y-52698950D01*
X124332074Y-52698133D01*
X124359444Y-52710349D01*
X124375882Y-52742624D01*
X124377955Y-52748710D01*
X124385081Y-52794739D01*
X124366024Y-52822687D01*
X124316353Y-52836007D01*
X124262697Y-52838470D01*
X124166142Y-52820210D01*
X124116159Y-52794131D01*
X124054429Y-52732868D01*
X124021690Y-52657670D01*
X124018753Y-52578211D01*
X124046424Y-52504167D01*
X124088047Y-52457769D01*
X124129604Y-52431793D01*
X124194922Y-52398907D01*
X124271038Y-52365557D01*
X124283726Y-52360461D01*
X124367333Y-52323565D01*
X124415530Y-52291046D01*
X124431030Y-52258718D01*
X124416550Y-52222394D01*
X124391692Y-52194000D01*
X124332939Y-52159039D01*
X124268293Y-52156417D01*
X124209008Y-52183358D01*
X124166339Y-52237088D01*
X124160739Y-52250950D01*
X124128133Y-52301936D01*
X124080530Y-52339787D01*
X124020461Y-52370850D01*
X124020461Y-52282768D01*
X124023997Y-52228951D01*
X124039156Y-52186534D01*
X124072768Y-52141279D01*
X124105035Y-52106420D01*
X124155209Y-52057062D01*
X124194193Y-52030547D01*
X124236064Y-52019911D01*
X124283460Y-52018154D01*
X124387333Y-52033528D01*
G36*
X123895929Y-52036662D02*
G01*
X123898911Y-52088068D01*
X123901247Y-52166192D01*
X123902749Y-52264857D01*
X123903231Y-52368343D01*
X123903231Y-52718533D01*
X123841401Y-52780363D01*
X123798793Y-52818462D01*
X123761390Y-52833895D01*
X123710270Y-52832918D01*
X123689978Y-52830433D01*
X123626554Y-52823200D01*
X123574095Y-52819055D01*
X123561308Y-52818672D01*
X123518199Y-52821176D01*
X123456544Y-52827462D01*
X123432638Y-52830433D01*
X123373922Y-52835028D01*
X123334464Y-52825046D01*
X123295338Y-52794228D01*
X123281215Y-52780363D01*
X123219385Y-52718533D01*
X123219385Y-52063503D01*
X123269150Y-52040829D01*
X123312002Y-52024034D01*
X123337073Y-52018154D01*
X123343501Y-52036736D01*
X123349509Y-52088655D01*
X123354697Y-52168172D01*
X123358664Y-52269546D01*
X123360577Y-52355192D01*
X123365923Y-52692231D01*
X123412560Y-52698825D01*
X123454976Y-52694214D01*
X123475760Y-52679287D01*
X123481570Y-52651377D01*
X123486530Y-52591925D01*
X123490246Y-52508466D01*
X123492324Y-52408532D01*
X123492624Y-52357104D01*
X123492923Y-52061054D01*
X123554454Y-52039604D01*
X123598004Y-52025020D01*
X123621694Y-52018219D01*
X123622377Y-52018154D01*
X123624754Y-52036642D01*
X123627366Y-52087906D01*
X123629995Y-52165649D01*
X123632421Y-52263574D01*
X123634115Y-52355192D01*
X123639461Y-52692231D01*
X123756692Y-52692231D01*
X123762072Y-52384746D01*
X123767451Y-52077261D01*
X123824601Y-52047707D01*
X123866797Y-52027413D01*
X123891770Y-52018204D01*
X123892491Y-52018154D01*
X123895929Y-52036662D01*
X123895929Y-52036662D01*
G37*
X123895929Y-52036662D02*
X123898911Y-52088068D01*
X123901247Y-52166192D01*
X123902749Y-52264857D01*
X123903231Y-52368343D01*
X123903231Y-52718533D01*
X123841401Y-52780363D01*
X123798793Y-52818462D01*
X123761390Y-52833895D01*
X123710270Y-52832918D01*
X123689978Y-52830433D01*
X123626554Y-52823200D01*
X123574095Y-52819055D01*
X123561308Y-52818672D01*
X123518199Y-52821176D01*
X123456544Y-52827462D01*
X123432638Y-52830433D01*
X123373922Y-52835028D01*
X123334464Y-52825046D01*
X123295338Y-52794228D01*
X123281215Y-52780363D01*
X123219385Y-52718533D01*
X123219385Y-52063503D01*
X123269150Y-52040829D01*
X123312002Y-52024034D01*
X123337073Y-52018154D01*
X123343501Y-52036736D01*
X123349509Y-52088655D01*
X123354697Y-52168172D01*
X123358664Y-52269546D01*
X123360577Y-52355192D01*
X123365923Y-52692231D01*
X123412560Y-52698825D01*
X123454976Y-52694214D01*
X123475760Y-52679287D01*
X123481570Y-52651377D01*
X123486530Y-52591925D01*
X123490246Y-52508466D01*
X123492324Y-52408532D01*
X123492624Y-52357104D01*
X123492923Y-52061054D01*
X123554454Y-52039604D01*
X123598004Y-52025020D01*
X123621694Y-52018219D01*
X123622377Y-52018154D01*
X123624754Y-52036642D01*
X123627366Y-52087906D01*
X123629995Y-52165649D01*
X123632421Y-52263574D01*
X123634115Y-52355192D01*
X123639461Y-52692231D01*
X123756692Y-52692231D01*
X123762072Y-52384746D01*
X123767451Y-52077261D01*
X123824601Y-52047707D01*
X123866797Y-52027413D01*
X123891770Y-52018204D01*
X123892491Y-52018154D01*
X123895929Y-52036662D01*
G36*
X123102081Y-52180289D02*
G01*
X123101833Y-52326320D01*
X123100872Y-52438655D01*
X123098794Y-52522678D01*
X123095193Y-52583769D01*
X123089665Y-52627309D01*
X123081804Y-52658679D01*
X123071207Y-52683262D01*
X123063182Y-52697294D01*
X122996728Y-52773388D01*
X122912470Y-52821084D01*
X122819249Y-52838199D01*
X122725900Y-52822546D01*
X122670312Y-52794418D01*
X122611957Y-52745760D01*
X122572186Y-52686333D01*
X122548190Y-52608507D01*
X122537161Y-52504652D01*
X122535599Y-52428462D01*
X122535809Y-52422986D01*
X122672308Y-52422986D01*
X122673141Y-52510355D01*
X122676961Y-52568192D01*
X122685746Y-52606029D01*
X122701474Y-52633398D01*
X122720266Y-52654042D01*
X122783375Y-52693890D01*
X122851137Y-52697295D01*
X122915179Y-52664025D01*
X122920164Y-52659517D01*
X122941439Y-52636067D01*
X122954779Y-52608166D01*
X122962001Y-52566641D01*
X122964923Y-52502316D01*
X122965385Y-52431200D01*
X122964383Y-52341858D01*
X122960238Y-52282258D01*
X122951236Y-52243089D01*
X122935667Y-52215040D01*
X122922902Y-52200144D01*
X122863600Y-52162575D01*
X122795301Y-52158057D01*
X122730110Y-52186753D01*
X122717528Y-52197406D01*
X122696111Y-52221063D01*
X122682744Y-52249251D01*
X122675566Y-52291245D01*
X122672719Y-52356319D01*
X122672308Y-52422986D01*
X122535809Y-52422986D01*
X122540322Y-52305765D01*
X122556362Y-52213577D01*
X122586528Y-52144269D01*
X122633629Y-52090211D01*
X122670312Y-52062505D01*
X122736990Y-52032572D01*
X122814272Y-52018678D01*
X122886110Y-52022397D01*
X122926308Y-52037400D01*
X122942082Y-52041670D01*
X122952550Y-52025750D01*
X122959856Y-51983089D01*
X122965385Y-51918106D01*
X122971437Y-51845732D01*
X122979844Y-51802187D01*
X122995141Y-51777287D01*
X123021864Y-51760845D01*
X123038654Y-51753564D01*
X123102154Y-51726963D01*
X123102081Y-52180289D01*
X123102081Y-52180289D01*
G37*
X123102081Y-52180289D02*
X123101833Y-52326320D01*
X123100872Y-52438655D01*
X123098794Y-52522678D01*
X123095193Y-52583769D01*
X123089665Y-52627309D01*
X123081804Y-52658679D01*
X123071207Y-52683262D01*
X123063182Y-52697294D01*
X122996728Y-52773388D01*
X122912470Y-52821084D01*
X122819249Y-52838199D01*
X122725900Y-52822546D01*
X122670312Y-52794418D01*
X122611957Y-52745760D01*
X122572186Y-52686333D01*
X122548190Y-52608507D01*
X122537161Y-52504652D01*
X122535599Y-52428462D01*
X122535809Y-52422986D01*
X122672308Y-52422986D01*
X122673141Y-52510355D01*
X122676961Y-52568192D01*
X122685746Y-52606029D01*
X122701474Y-52633398D01*
X122720266Y-52654042D01*
X122783375Y-52693890D01*
X122851137Y-52697295D01*
X122915179Y-52664025D01*
X122920164Y-52659517D01*
X122941439Y-52636067D01*
X122954779Y-52608166D01*
X122962001Y-52566641D01*
X122964923Y-52502316D01*
X122965385Y-52431200D01*
X122964383Y-52341858D01*
X122960238Y-52282258D01*
X122951236Y-52243089D01*
X122935667Y-52215040D01*
X122922902Y-52200144D01*
X122863600Y-52162575D01*
X122795301Y-52158057D01*
X122730110Y-52186753D01*
X122717528Y-52197406D01*
X122696111Y-52221063D01*
X122682744Y-52249251D01*
X122675566Y-52291245D01*
X122672719Y-52356319D01*
X122672308Y-52422986D01*
X122535809Y-52422986D01*
X122540322Y-52305765D01*
X122556362Y-52213577D01*
X122586528Y-52144269D01*
X122633629Y-52090211D01*
X122670312Y-52062505D01*
X122736990Y-52032572D01*
X122814272Y-52018678D01*
X122886110Y-52022397D01*
X122926308Y-52037400D01*
X122942082Y-52041670D01*
X122952550Y-52025750D01*
X122959856Y-51983089D01*
X122965385Y-51918106D01*
X122971437Y-51845732D01*
X122979844Y-51802187D01*
X122995141Y-51777287D01*
X123021864Y-51760845D01*
X123038654Y-51753564D01*
X123102154Y-51726963D01*
X123102081Y-52180289D01*
G36*
X122213362Y-52024670D02*
G01*
X122302117Y-52057421D01*
X122374022Y-52115350D01*
X122402144Y-52156128D01*
X122432802Y-52230954D01*
X122432165Y-52285058D01*
X122399987Y-52321446D01*
X122388081Y-52327633D01*
X122336675Y-52346925D01*
X122310422Y-52341982D01*
X122301530Y-52309587D01*
X122301077Y-52291692D01*
X122284797Y-52225859D01*
X122242365Y-52179807D01*
X122183388Y-52157564D01*
X122117475Y-52163161D01*
X122063895Y-52192229D01*
X122045798Y-52208810D01*
X122032971Y-52228925D01*
X122024306Y-52259332D01*
X122018696Y-52306788D01*
X122015035Y-52378050D01*
X122012215Y-52479875D01*
X122011484Y-52512115D01*
X122008820Y-52622410D01*
X122005792Y-52700036D01*
X122001250Y-52751396D01*
X121994046Y-52782890D01*
X121983033Y-52800920D01*
X121967060Y-52811888D01*
X121956834Y-52816733D01*
X121913406Y-52833301D01*
X121887842Y-52838769D01*
X121879395Y-52820507D01*
X121874239Y-52765296D01*
X121872346Y-52672499D01*
X121873689Y-52541478D01*
X121874107Y-52521269D01*
X121877058Y-52401733D01*
X121880548Y-52314449D01*
X121885514Y-52252591D01*
X121892893Y-52209336D01*
X121903624Y-52177860D01*
X121918645Y-52151339D01*
X121926502Y-52139975D01*
X121971553Y-52089692D01*
X122021940Y-52050581D01*
X122028108Y-52047167D01*
X122118458Y-52020212D01*
X122213362Y-52024670D01*
X122213362Y-52024670D01*
G37*
X122213362Y-52024670D02*
X122302117Y-52057421D01*
X122374022Y-52115350D01*
X122402144Y-52156128D01*
X122432802Y-52230954D01*
X122432165Y-52285058D01*
X122399987Y-52321446D01*
X122388081Y-52327633D01*
X122336675Y-52346925D01*
X122310422Y-52341982D01*
X122301530Y-52309587D01*
X122301077Y-52291692D01*
X122284797Y-52225859D01*
X122242365Y-52179807D01*
X122183388Y-52157564D01*
X122117475Y-52163161D01*
X122063895Y-52192229D01*
X122045798Y-52208810D01*
X122032971Y-52228925D01*
X122024306Y-52259332D01*
X122018696Y-52306788D01*
X122015035Y-52378050D01*
X122012215Y-52479875D01*
X122011484Y-52512115D01*
X122008820Y-52622410D01*
X122005792Y-52700036D01*
X122001250Y-52751396D01*
X121994046Y-52782890D01*
X121983033Y-52800920D01*
X121967060Y-52811888D01*
X121956834Y-52816733D01*
X121913406Y-52833301D01*
X121887842Y-52838769D01*
X121879395Y-52820507D01*
X121874239Y-52765296D01*
X121872346Y-52672499D01*
X121873689Y-52541478D01*
X121874107Y-52521269D01*
X121877058Y-52401733D01*
X121880548Y-52314449D01*
X121885514Y-52252591D01*
X121892893Y-52209336D01*
X121903624Y-52177860D01*
X121918645Y-52151339D01*
X121926502Y-52139975D01*
X121971553Y-52089692D01*
X122021940Y-52050581D01*
X122028108Y-52047167D01*
X122118458Y-52020212D01*
X122213362Y-52024670D01*
G36*
X121553501Y-52026303D02*
G01*
X121630060Y-52054733D01*
X121630936Y-52055279D01*
X121678285Y-52090127D01*
X121713241Y-52130852D01*
X121737825Y-52183925D01*
X121754062Y-52255814D01*
X121763975Y-52352992D01*
X121769586Y-52481928D01*
X121770077Y-52500298D01*
X121777141Y-52777287D01*
X121717695Y-52808028D01*
X121674681Y-52828802D01*
X121648710Y-52838646D01*
X121647509Y-52838769D01*
X121643014Y-52820606D01*
X121639444Y-52771612D01*
X121637248Y-52700031D01*
X121636769Y-52642068D01*
X121636758Y-52548170D01*
X121632466Y-52489203D01*
X121617503Y-52461079D01*
X121585482Y-52459706D01*
X121530014Y-52480998D01*
X121446269Y-52520136D01*
X121384689Y-52552643D01*
X121353017Y-52580845D01*
X121343706Y-52611582D01*
X121343692Y-52613104D01*
X121359057Y-52666054D01*
X121404547Y-52694660D01*
X121474166Y-52698803D01*
X121524313Y-52698084D01*
X121550754Y-52712527D01*
X121567243Y-52747218D01*
X121576733Y-52791416D01*
X121563057Y-52816493D01*
X121557907Y-52820082D01*
X121509425Y-52834496D01*
X121441531Y-52836537D01*
X121371612Y-52826983D01*
X121322068Y-52809522D01*
X121253570Y-52751364D01*
X121214634Y-52670408D01*
X121206923Y-52607160D01*
X121212807Y-52550111D01*
X121234101Y-52503542D01*
X121276265Y-52462181D01*
X121344759Y-52420755D01*
X121445044Y-52373993D01*
X121451154Y-52371350D01*
X121541490Y-52329617D01*
X121597235Y-52295391D01*
X121621129Y-52264635D01*
X121615913Y-52233311D01*
X121584328Y-52197383D01*
X121574883Y-52189116D01*
X121511617Y-52157058D01*
X121446064Y-52158407D01*
X121388972Y-52189838D01*
X121351093Y-52248024D01*
X121347574Y-52259446D01*
X121313300Y-52314837D01*
X121269809Y-52341518D01*
X121206923Y-52367960D01*
X121206923Y-52299548D01*
X121226052Y-52200110D01*
X121282831Y-52108902D01*
X121312378Y-52078389D01*
X121379542Y-52039228D01*
X121464956Y-52021500D01*
X121553501Y-52026303D01*
X121553501Y-52026303D01*
G37*
X121553501Y-52026303D02*
X121630060Y-52054733D01*
X121630936Y-52055279D01*
X121678285Y-52090127D01*
X121713241Y-52130852D01*
X121737825Y-52183925D01*
X121754062Y-52255814D01*
X121763975Y-52352992D01*
X121769586Y-52481928D01*
X121770077Y-52500298D01*
X121777141Y-52777287D01*
X121717695Y-52808028D01*
X121674681Y-52828802D01*
X121648710Y-52838646D01*
X121647509Y-52838769D01*
X121643014Y-52820606D01*
X121639444Y-52771612D01*
X121637248Y-52700031D01*
X121636769Y-52642068D01*
X121636758Y-52548170D01*
X121632466Y-52489203D01*
X121617503Y-52461079D01*
X121585482Y-52459706D01*
X121530014Y-52480998D01*
X121446269Y-52520136D01*
X121384689Y-52552643D01*
X121353017Y-52580845D01*
X121343706Y-52611582D01*
X121343692Y-52613104D01*
X121359057Y-52666054D01*
X121404547Y-52694660D01*
X121474166Y-52698803D01*
X121524313Y-52698084D01*
X121550754Y-52712527D01*
X121567243Y-52747218D01*
X121576733Y-52791416D01*
X121563057Y-52816493D01*
X121557907Y-52820082D01*
X121509425Y-52834496D01*
X121441531Y-52836537D01*
X121371612Y-52826983D01*
X121322068Y-52809522D01*
X121253570Y-52751364D01*
X121214634Y-52670408D01*
X121206923Y-52607160D01*
X121212807Y-52550111D01*
X121234101Y-52503542D01*
X121276265Y-52462181D01*
X121344759Y-52420755D01*
X121445044Y-52373993D01*
X121451154Y-52371350D01*
X121541490Y-52329617D01*
X121597235Y-52295391D01*
X121621129Y-52264635D01*
X121615913Y-52233311D01*
X121584328Y-52197383D01*
X121574883Y-52189116D01*
X121511617Y-52157058D01*
X121446064Y-52158407D01*
X121388972Y-52189838D01*
X121351093Y-52248024D01*
X121347574Y-52259446D01*
X121313300Y-52314837D01*
X121269809Y-52341518D01*
X121206923Y-52367960D01*
X121206923Y-52299548D01*
X121226052Y-52200110D01*
X121282831Y-52108902D01*
X121312378Y-52078389D01*
X121379542Y-52039228D01*
X121464956Y-52021500D01*
X121553501Y-52026303D01*
G36*
X120659846Y-51892120D02*
G01*
X120665572Y-51971980D01*
X120672149Y-52019039D01*
X120681262Y-52039566D01*
X120694598Y-52039829D01*
X120698923Y-52037378D01*
X120756444Y-52019636D01*
X120831268Y-52020672D01*
X120907339Y-52038910D01*
X120954918Y-52062505D01*
X121003702Y-52100198D01*
X121039364Y-52142855D01*
X121063845Y-52197057D01*
X121079087Y-52269384D01*
X121087030Y-52366419D01*
X121089616Y-52494742D01*
X121089662Y-52519358D01*
X121089692Y-52795870D01*
X121028161Y-52817320D01*
X120984459Y-52831912D01*
X120960482Y-52838706D01*
X120959777Y-52838769D01*
X120957415Y-52820345D01*
X120955406Y-52769526D01*
X120953901Y-52692993D01*
X120953053Y-52597430D01*
X120952923Y-52539329D01*
X120952651Y-52424771D01*
X120951252Y-52342667D01*
X120947849Y-52286393D01*
X120941567Y-52249326D01*
X120931529Y-52224844D01*
X120916861Y-52206325D01*
X120907702Y-52197406D01*
X120844789Y-52161466D01*
X120776136Y-52158775D01*
X120713848Y-52189170D01*
X120702329Y-52200144D01*
X120685433Y-52220779D01*
X120673714Y-52245256D01*
X120666233Y-52280647D01*
X120662054Y-52334026D01*
X120660237Y-52412466D01*
X120659846Y-52520617D01*
X120659846Y-52795870D01*
X120598315Y-52817320D01*
X120554613Y-52831912D01*
X120530636Y-52838706D01*
X120529930Y-52838769D01*
X120528126Y-52820069D01*
X120526500Y-52767322D01*
X120525117Y-52685557D01*
X120524042Y-52579805D01*
X120523340Y-52455094D01*
X120523077Y-52316455D01*
X120523077Y-51781806D01*
X120650077Y-51728236D01*
X120659846Y-51892120D01*
X120659846Y-51892120D01*
G37*
X120659846Y-51892120D02*
X120665572Y-51971980D01*
X120672149Y-52019039D01*
X120681262Y-52039566D01*
X120694598Y-52039829D01*
X120698923Y-52037378D01*
X120756444Y-52019636D01*
X120831268Y-52020672D01*
X120907339Y-52038910D01*
X120954918Y-52062505D01*
X121003702Y-52100198D01*
X121039364Y-52142855D01*
X121063845Y-52197057D01*
X121079087Y-52269384D01*
X121087030Y-52366419D01*
X121089616Y-52494742D01*
X121089662Y-52519358D01*
X121089692Y-52795870D01*
X121028161Y-52817320D01*
X120984459Y-52831912D01*
X120960482Y-52838706D01*
X120959777Y-52838769D01*
X120957415Y-52820345D01*
X120955406Y-52769526D01*
X120953901Y-52692993D01*
X120953053Y-52597430D01*
X120952923Y-52539329D01*
X120952651Y-52424771D01*
X120951252Y-52342667D01*
X120947849Y-52286393D01*
X120941567Y-52249326D01*
X120931529Y-52224844D01*
X120916861Y-52206325D01*
X120907702Y-52197406D01*
X120844789Y-52161466D01*
X120776136Y-52158775D01*
X120713848Y-52189170D01*
X120702329Y-52200144D01*
X120685433Y-52220779D01*
X120673714Y-52245256D01*
X120666233Y-52280647D01*
X120662054Y-52334026D01*
X120660237Y-52412466D01*
X120659846Y-52520617D01*
X120659846Y-52795870D01*
X120598315Y-52817320D01*
X120554613Y-52831912D01*
X120530636Y-52838706D01*
X120529930Y-52838769D01*
X120528126Y-52820069D01*
X120526500Y-52767322D01*
X120525117Y-52685557D01*
X120524042Y-52579805D01*
X120523340Y-52455094D01*
X120523077Y-52316455D01*
X120523077Y-51781806D01*
X120650077Y-51728236D01*
X120659846Y-51892120D01*
G36*
X119034254Y-51999745D02*
G01*
X119111286Y-52051567D01*
X119170816Y-52126412D01*
X119206378Y-52221654D01*
X119213571Y-52291756D01*
X119212754Y-52321009D01*
X119205914Y-52343407D01*
X119187112Y-52363474D01*
X119150408Y-52385733D01*
X119089862Y-52414709D01*
X118999534Y-52454927D01*
X118999077Y-52455129D01*
X118915933Y-52493210D01*
X118847753Y-52527025D01*
X118801505Y-52552933D01*
X118784158Y-52567295D01*
X118784154Y-52567411D01*
X118799443Y-52598685D01*
X118835196Y-52633157D01*
X118876242Y-52657990D01*
X118897037Y-52662923D01*
X118953770Y-52645862D01*
X119002627Y-52603133D01*
X119026465Y-52556155D01*
X119049397Y-52521522D01*
X119094318Y-52482081D01*
X119147123Y-52448009D01*
X119193710Y-52429480D01*
X119203452Y-52428462D01*
X119214418Y-52445215D01*
X119215079Y-52488039D01*
X119207020Y-52545781D01*
X119191827Y-52607289D01*
X119171086Y-52661409D01*
X119170038Y-52663510D01*
X119107621Y-52750660D01*
X119026726Y-52809939D01*
X118934856Y-52839034D01*
X118839513Y-52835634D01*
X118748198Y-52797428D01*
X118744138Y-52794741D01*
X118672306Y-52729642D01*
X118625073Y-52644705D01*
X118598934Y-52533021D01*
X118595426Y-52501643D01*
X118589213Y-52353536D01*
X118596661Y-52284468D01*
X118784154Y-52284468D01*
X118786590Y-52327552D01*
X118799914Y-52340126D01*
X118833132Y-52330719D01*
X118885494Y-52308483D01*
X118944024Y-52280610D01*
X118945479Y-52279872D01*
X118995089Y-52253777D01*
X119015000Y-52236363D01*
X119010090Y-52218107D01*
X118989416Y-52194120D01*
X118936819Y-52159406D01*
X118880177Y-52156856D01*
X118829369Y-52182119D01*
X118794276Y-52230847D01*
X118784154Y-52284468D01*
X118596661Y-52284468D01*
X118601992Y-52235036D01*
X118634778Y-52141055D01*
X118680421Y-52075215D01*
X118762802Y-52008681D01*
X118853546Y-51975676D01*
X118946185Y-51973573D01*
X119034254Y-51999745D01*
X119034254Y-51999745D01*
G37*
X119034254Y-51999745D02*
X119111286Y-52051567D01*
X119170816Y-52126412D01*
X119206378Y-52221654D01*
X119213571Y-52291756D01*
X119212754Y-52321009D01*
X119205914Y-52343407D01*
X119187112Y-52363474D01*
X119150408Y-52385733D01*
X119089862Y-52414709D01*
X118999534Y-52454927D01*
X118999077Y-52455129D01*
X118915933Y-52493210D01*
X118847753Y-52527025D01*
X118801505Y-52552933D01*
X118784158Y-52567295D01*
X118784154Y-52567411D01*
X118799443Y-52598685D01*
X118835196Y-52633157D01*
X118876242Y-52657990D01*
X118897037Y-52662923D01*
X118953770Y-52645862D01*
X119002627Y-52603133D01*
X119026465Y-52556155D01*
X119049397Y-52521522D01*
X119094318Y-52482081D01*
X119147123Y-52448009D01*
X119193710Y-52429480D01*
X119203452Y-52428462D01*
X119214418Y-52445215D01*
X119215079Y-52488039D01*
X119207020Y-52545781D01*
X119191827Y-52607289D01*
X119171086Y-52661409D01*
X119170038Y-52663510D01*
X119107621Y-52750660D01*
X119026726Y-52809939D01*
X118934856Y-52839034D01*
X118839513Y-52835634D01*
X118748198Y-52797428D01*
X118744138Y-52794741D01*
X118672306Y-52729642D01*
X118625073Y-52644705D01*
X118598934Y-52533021D01*
X118595426Y-52501643D01*
X118589213Y-52353536D01*
X118596661Y-52284468D01*
X118784154Y-52284468D01*
X118786590Y-52327552D01*
X118799914Y-52340126D01*
X118833132Y-52330719D01*
X118885494Y-52308483D01*
X118944024Y-52280610D01*
X118945479Y-52279872D01*
X118995089Y-52253777D01*
X119015000Y-52236363D01*
X119010090Y-52218107D01*
X118989416Y-52194120D01*
X118936819Y-52159406D01*
X118880177Y-52156856D01*
X118829369Y-52182119D01*
X118794276Y-52230847D01*
X118784154Y-52284468D01*
X118596661Y-52284468D01*
X118601992Y-52235036D01*
X118634778Y-52141055D01*
X118680421Y-52075215D01*
X118762802Y-52008681D01*
X118853546Y-51975676D01*
X118946185Y-51973573D01*
X119034254Y-51999745D01*
G36*
X117516886Y-51987256D02*
G01*
X117608464Y-52035409D01*
X117676049Y-52112905D01*
X117700057Y-52162727D01*
X117718738Y-52237533D01*
X117728301Y-52332052D01*
X117729208Y-52435210D01*
X117721921Y-52535935D01*
X117706903Y-52623153D01*
X117684615Y-52685791D01*
X117677765Y-52696579D01*
X117596632Y-52777105D01*
X117500266Y-52825336D01*
X117395701Y-52839450D01*
X117289968Y-52817629D01*
X117260543Y-52804547D01*
X117203241Y-52764231D01*
X117152950Y-52710775D01*
X117148197Y-52703995D01*
X117128878Y-52671321D01*
X117116108Y-52636394D01*
X117108564Y-52590414D01*
X117104924Y-52524584D01*
X117103865Y-52430105D01*
X117103846Y-52408923D01*
X117103894Y-52402182D01*
X117299231Y-52402182D01*
X117300368Y-52491349D01*
X117304841Y-52550520D01*
X117314246Y-52588741D01*
X117330176Y-52615053D01*
X117338308Y-52623846D01*
X117385058Y-52657261D01*
X117430447Y-52655737D01*
X117476340Y-52626752D01*
X117503712Y-52595809D01*
X117519923Y-52550643D01*
X117529026Y-52479420D01*
X117529651Y-52471114D01*
X117531204Y-52342037D01*
X117514965Y-52246172D01*
X117481152Y-52184107D01*
X117429984Y-52156432D01*
X117411720Y-52154923D01*
X117363760Y-52162513D01*
X117330953Y-52188808D01*
X117310895Y-52239095D01*
X117301178Y-52318664D01*
X117299231Y-52402182D01*
X117103894Y-52402182D01*
X117104574Y-52308249D01*
X117107629Y-52237906D01*
X117114322Y-52189163D01*
X117125960Y-52153288D01*
X117143853Y-52121548D01*
X117147808Y-52115648D01*
X117214267Y-52036104D01*
X117286685Y-51989929D01*
X117374849Y-51971599D01*
X117404787Y-51970703D01*
X117516886Y-51987256D01*
X117516886Y-51987256D01*
G37*
X117516886Y-51987256D02*
X117608464Y-52035409D01*
X117676049Y-52112905D01*
X117700057Y-52162727D01*
X117718738Y-52237533D01*
X117728301Y-52332052D01*
X117729208Y-52435210D01*
X117721921Y-52535935D01*
X117706903Y-52623153D01*
X117684615Y-52685791D01*
X117677765Y-52696579D01*
X117596632Y-52777105D01*
X117500266Y-52825336D01*
X117395701Y-52839450D01*
X117289968Y-52817629D01*
X117260543Y-52804547D01*
X117203241Y-52764231D01*
X117152950Y-52710775D01*
X117148197Y-52703995D01*
X117128878Y-52671321D01*
X117116108Y-52636394D01*
X117108564Y-52590414D01*
X117104924Y-52524584D01*
X117103865Y-52430105D01*
X117103846Y-52408923D01*
X117103894Y-52402182D01*
X117299231Y-52402182D01*
X117300368Y-52491349D01*
X117304841Y-52550520D01*
X117314246Y-52588741D01*
X117330176Y-52615053D01*
X117338308Y-52623846D01*
X117385058Y-52657261D01*
X117430447Y-52655737D01*
X117476340Y-52626752D01*
X117503712Y-52595809D01*
X117519923Y-52550643D01*
X117529026Y-52479420D01*
X117529651Y-52471114D01*
X117531204Y-52342037D01*
X117514965Y-52246172D01*
X117481152Y-52184107D01*
X117429984Y-52156432D01*
X117411720Y-52154923D01*
X117363760Y-52162513D01*
X117330953Y-52188808D01*
X117310895Y-52239095D01*
X117301178Y-52318664D01*
X117299231Y-52402182D01*
X117103894Y-52402182D01*
X117104574Y-52308249D01*
X117107629Y-52237906D01*
X117114322Y-52189163D01*
X117125960Y-52153288D01*
X117143853Y-52121548D01*
X117147808Y-52115648D01*
X117214267Y-52036104D01*
X117286685Y-51989929D01*
X117374849Y-51971599D01*
X117404787Y-51970703D01*
X117516886Y-51987256D01*
G36*
X119771664Y-51995089D02*
G01*
X119834367Y-52031358D01*
X119877961Y-52067358D01*
X119909845Y-52105075D01*
X119931810Y-52151199D01*
X119945649Y-52212421D01*
X119953153Y-52295431D01*
X119956117Y-52406919D01*
X119956461Y-52487062D01*
X119956461Y-52782065D01*
X119790385Y-52856515D01*
X119780615Y-52533402D01*
X119776579Y-52412729D01*
X119772344Y-52325141D01*
X119767097Y-52264650D01*
X119760025Y-52225268D01*
X119750311Y-52201007D01*
X119737144Y-52185880D01*
X119732919Y-52182606D01*
X119668909Y-52157034D01*
X119604208Y-52167153D01*
X119565692Y-52194000D01*
X119550025Y-52213024D01*
X119539180Y-52237988D01*
X119532288Y-52275834D01*
X119528479Y-52333502D01*
X119526883Y-52417935D01*
X119526615Y-52505928D01*
X119526563Y-52616323D01*
X119524672Y-52694463D01*
X119518345Y-52747165D01*
X119504983Y-52781242D01*
X119481985Y-52803511D01*
X119446754Y-52820787D01*
X119399697Y-52838738D01*
X119348303Y-52858278D01*
X119354421Y-52511485D01*
X119356884Y-52386468D01*
X119359767Y-52294082D01*
X119363898Y-52227881D01*
X119370107Y-52181420D01*
X119379226Y-52148256D01*
X119392083Y-52121944D01*
X119407584Y-52098729D01*
X119482371Y-52024569D01*
X119573628Y-51981684D01*
X119672883Y-51971412D01*
X119771664Y-51995089D01*
X119771664Y-51995089D01*
G37*
X119771664Y-51995089D02*
X119834367Y-52031358D01*
X119877961Y-52067358D01*
X119909845Y-52105075D01*
X119931810Y-52151199D01*
X119945649Y-52212421D01*
X119953153Y-52295431D01*
X119956117Y-52406919D01*
X119956461Y-52487062D01*
X119956461Y-52782065D01*
X119790385Y-52856515D01*
X119780615Y-52533402D01*
X119776579Y-52412729D01*
X119772344Y-52325141D01*
X119767097Y-52264650D01*
X119760025Y-52225268D01*
X119750311Y-52201007D01*
X119737144Y-52185880D01*
X119732919Y-52182606D01*
X119668909Y-52157034D01*
X119604208Y-52167153D01*
X119565692Y-52194000D01*
X119550025Y-52213024D01*
X119539180Y-52237988D01*
X119532288Y-52275834D01*
X119528479Y-52333502D01*
X119526883Y-52417935D01*
X119526615Y-52505928D01*
X119526563Y-52616323D01*
X119524672Y-52694463D01*
X119518345Y-52747165D01*
X119504983Y-52781242D01*
X119481985Y-52803511D01*
X119446754Y-52820787D01*
X119399697Y-52838738D01*
X119348303Y-52858278D01*
X119354421Y-52511485D01*
X119356884Y-52386468D01*
X119359767Y-52294082D01*
X119363898Y-52227881D01*
X119370107Y-52181420D01*
X119379226Y-52148256D01*
X119392083Y-52121944D01*
X119407584Y-52098729D01*
X119482371Y-52024569D01*
X119573628Y-51981684D01*
X119672883Y-51971412D01*
X119771664Y-51995089D01*
G36*
X118268886Y-51984505D02*
G01*
X118343539Y-52021727D01*
X118409431Y-52090261D01*
X118427577Y-52115648D01*
X118447345Y-52148866D01*
X118460172Y-52184945D01*
X118467510Y-52233098D01*
X118470813Y-52302536D01*
X118471538Y-52394206D01*
X118468263Y-52519830D01*
X118456877Y-52614154D01*
X118435041Y-52684523D01*
X118400419Y-52738286D01*
X118350670Y-52782788D01*
X118347014Y-52785423D01*
X118297985Y-52812377D01*
X118238945Y-52825712D01*
X118163859Y-52829000D01*
X118041795Y-52829000D01*
X118041744Y-52947497D01*
X118040608Y-53013492D01*
X118033686Y-53052202D01*
X118015598Y-53075419D01*
X117980962Y-53094933D01*
X117972645Y-53098920D01*
X117933720Y-53117603D01*
X117903583Y-53129403D01*
X117881174Y-53130422D01*
X117865433Y-53116761D01*
X117855302Y-53084522D01*
X117849723Y-53029804D01*
X117847635Y-52948711D01*
X117847981Y-52837344D01*
X117849700Y-52691802D01*
X117850237Y-52648269D01*
X117852172Y-52498205D01*
X117853904Y-52400042D01*
X118041692Y-52400042D01*
X118042748Y-52483364D01*
X118047438Y-52537880D01*
X118058051Y-52573837D01*
X118076872Y-52601482D01*
X118089650Y-52614965D01*
X118141890Y-52654417D01*
X118188142Y-52657628D01*
X118235867Y-52625049D01*
X118237077Y-52623846D01*
X118256494Y-52598668D01*
X118268307Y-52564447D01*
X118274265Y-52511748D01*
X118276120Y-52431131D01*
X118276154Y-52413271D01*
X118271670Y-52302175D01*
X118257074Y-52225161D01*
X118230650Y-52178147D01*
X118190683Y-52157050D01*
X118167584Y-52154923D01*
X118112762Y-52164900D01*
X118075158Y-52197752D01*
X118052523Y-52257857D01*
X118042606Y-52349598D01*
X118041692Y-52400042D01*
X117853904Y-52400042D01*
X117854222Y-52382060D01*
X117856873Y-52294679D01*
X117860606Y-52230905D01*
X117865907Y-52185582D01*
X117873258Y-52153555D01*
X117883143Y-52129668D01*
X117896046Y-52108764D01*
X117901579Y-52100898D01*
X117974969Y-52026595D01*
X118067760Y-51984467D01*
X118175096Y-51972722D01*
X118268886Y-51984505D01*
X118268886Y-51984505D01*
G37*
X118268886Y-51984505D02*
X118343539Y-52021727D01*
X118409431Y-52090261D01*
X118427577Y-52115648D01*
X118447345Y-52148866D01*
X118460172Y-52184945D01*
X118467510Y-52233098D01*
X118470813Y-52302536D01*
X118471538Y-52394206D01*
X118468263Y-52519830D01*
X118456877Y-52614154D01*
X118435041Y-52684523D01*
X118400419Y-52738286D01*
X118350670Y-52782788D01*
X118347014Y-52785423D01*
X118297985Y-52812377D01*
X118238945Y-52825712D01*
X118163859Y-52829000D01*
X118041795Y-52829000D01*
X118041744Y-52947497D01*
X118040608Y-53013492D01*
X118033686Y-53052202D01*
X118015598Y-53075419D01*
X117980962Y-53094933D01*
X117972645Y-53098920D01*
X117933720Y-53117603D01*
X117903583Y-53129403D01*
X117881174Y-53130422D01*
X117865433Y-53116761D01*
X117855302Y-53084522D01*
X117849723Y-53029804D01*
X117847635Y-52948711D01*
X117847981Y-52837344D01*
X117849700Y-52691802D01*
X117850237Y-52648269D01*
X117852172Y-52498205D01*
X117853904Y-52400042D01*
X118041692Y-52400042D01*
X118042748Y-52483364D01*
X118047438Y-52537880D01*
X118058051Y-52573837D01*
X118076872Y-52601482D01*
X118089650Y-52614965D01*
X118141890Y-52654417D01*
X118188142Y-52657628D01*
X118235867Y-52625049D01*
X118237077Y-52623846D01*
X118256494Y-52598668D01*
X118268307Y-52564447D01*
X118274265Y-52511748D01*
X118276120Y-52431131D01*
X118276154Y-52413271D01*
X118271670Y-52302175D01*
X118257074Y-52225161D01*
X118230650Y-52178147D01*
X118190683Y-52157050D01*
X118167584Y-52154923D01*
X118112762Y-52164900D01*
X118075158Y-52197752D01*
X118052523Y-52257857D01*
X118042606Y-52349598D01*
X118041692Y-52400042D01*
X117853904Y-52400042D01*
X117854222Y-52382060D01*
X117856873Y-52294679D01*
X117860606Y-52230905D01*
X117865907Y-52185582D01*
X117873258Y-52153555D01*
X117883143Y-52129668D01*
X117896046Y-52108764D01*
X117901579Y-52100898D01*
X117974969Y-52026595D01*
X118067760Y-51984467D01*
X118175096Y-51972722D01*
X118268886Y-51984505D01*
D10*
X44820000Y-53240000D02*
X44820000Y-51260000D01*
X45170000Y-53240000D02*
X44820000Y-53240000D01*
X45170000Y-54010000D02*
X45170000Y-53240000D01*
X43120000Y-54010000D02*
X45170000Y-54010000D01*
X41000000Y-54010000D02*
X41300000Y-54010000D01*
X41000000Y-53210000D02*
X41000000Y-54010000D01*
X39700000Y-53210000D02*
X41000000Y-53210000D01*
X39700000Y-32390000D02*
X39700000Y-53210000D01*
X41000000Y-32390000D02*
X39700000Y-32390000D01*
X41000000Y-31590000D02*
X41000000Y-32390000D01*
X41300000Y-31590000D02*
X41000000Y-31590000D01*
X45170000Y-31590000D02*
X43120000Y-31590000D01*
X45170000Y-32360000D02*
X45170000Y-31590000D01*
X44820000Y-32360000D02*
X45170000Y-32360000D01*
X44820000Y-34340000D02*
X44820000Y-32360000D01*
X45410000Y-34340000D02*
X44820000Y-34340000D01*
X133760000Y-42610000D02*
X133760000Y-42020000D01*
X133760000Y-42020000D02*
X135740000Y-42020000D01*
X135740000Y-42020000D02*
X135740000Y-42370000D01*
X135740000Y-42370000D02*
X136510000Y-42370000D01*
X136510000Y-42370000D02*
X136510000Y-40320000D01*
X136510000Y-38500000D02*
X136510000Y-38200000D01*
X136510000Y-38200000D02*
X135710000Y-38200000D01*
X135710000Y-38200000D02*
X135710000Y-36900000D01*
X135710000Y-36900000D02*
X127890000Y-36900000D01*
X127890000Y-36900000D02*
X127890000Y-38200000D01*
X127890000Y-38200000D02*
X127090000Y-38200000D01*
X127090000Y-38200000D02*
X127090000Y-38500000D01*
X127090000Y-40320000D02*
X127090000Y-42370000D01*
X127090000Y-42370000D02*
X127860000Y-42370000D01*
X127860000Y-42370000D02*
X127860000Y-42020000D01*
X127860000Y-42020000D02*
X129840000Y-42020000D01*
X147800000Y-38500000D02*
X147800000Y-39900000D01*
X147100000Y-40600000D02*
X146500000Y-40600000D01*
X145800000Y-39900000D02*
X145800000Y-38500000D01*
X146500000Y-37800000D02*
X147100000Y-37800000D01*
X147100000Y-37800000D02*
G75*
G02X147800000Y-38500000I0J-700000D01*
G01*
X145800000Y-38500000D02*
G75*
G02X146500000Y-37800000I700000J0D01*
G01*
X146500000Y-40600000D02*
G75*
G02X145800000Y-39900000I0J700000D01*
G01*
X147800000Y-39900000D02*
G75*
G02X147100000Y-40600000I-700000J0D01*
G01*
X151000000Y-39900000D02*
G75*
G02X150300000Y-40600000I-700000J0D01*
G01*
X149700000Y-40600000D02*
G75*
G02X149000000Y-39900000I0J700000D01*
G01*
X149000000Y-38500000D02*
G75*
G02X149700000Y-37800000I700000J0D01*
G01*
X150300000Y-37800000D02*
G75*
G02X151000000Y-38500000I0J-700000D01*
G01*
X149700000Y-37800000D02*
X150300000Y-37800000D01*
X149000000Y-39900000D02*
X149000000Y-38500000D01*
X150300000Y-40600000D02*
X149700000Y-40600000D01*
X151000000Y-38500000D02*
X151000000Y-39900000D01*
X154200000Y-38500000D02*
X154200000Y-39900000D01*
X153500000Y-40600000D02*
X152900000Y-40600000D01*
X152200000Y-39900000D02*
X152200000Y-38500000D01*
X152900000Y-37800000D02*
X153500000Y-37800000D01*
X153500000Y-37800000D02*
G75*
G02X154200000Y-38500000I0J-700000D01*
G01*
X152200000Y-38500000D02*
G75*
G02X152900000Y-37800000I700000J0D01*
G01*
X152900000Y-40600000D02*
G75*
G02X152200000Y-39900000I0J700000D01*
G01*
X154200000Y-39900000D02*
G75*
G02X153500000Y-40600000I-700000J0D01*
G01*
X147800000Y-42500000D02*
X147800000Y-43900000D01*
X147100000Y-44600000D02*
X146500000Y-44600000D01*
X145800000Y-43900000D02*
X145800000Y-42500000D01*
X146500000Y-41800000D02*
X147100000Y-41800000D01*
X147100000Y-41800000D02*
G75*
G02X147800000Y-42500000I0J-700000D01*
G01*
X145800000Y-42500000D02*
G75*
G02X146500000Y-41800000I700000J0D01*
G01*
X146500000Y-44600000D02*
G75*
G02X145800000Y-43900000I0J700000D01*
G01*
X147800000Y-43900000D02*
G75*
G02X147100000Y-44600000I-700000J0D01*
G01*
X151000000Y-43900000D02*
G75*
G02X150300000Y-44600000I-700000J0D01*
G01*
X149700000Y-44600000D02*
G75*
G02X149000000Y-43900000I0J700000D01*
G01*
X149000000Y-42500000D02*
G75*
G02X149700000Y-41800000I700000J0D01*
G01*
X150300000Y-41800000D02*
G75*
G02X151000000Y-42500000I0J-700000D01*
G01*
X149700000Y-41800000D02*
X150300000Y-41800000D01*
X149000000Y-43900000D02*
X149000000Y-42500000D01*
X150300000Y-44600000D02*
X149700000Y-44600000D01*
X151000000Y-42500000D02*
X151000000Y-43900000D01*
X154200000Y-42500000D02*
X154200000Y-43900000D01*
X153500000Y-44600000D02*
X152900000Y-44600000D01*
X152200000Y-43900000D02*
X152200000Y-42500000D01*
X152900000Y-41800000D02*
X153500000Y-41800000D01*
X153500000Y-41800000D02*
G75*
G02X154200000Y-42500000I0J-700000D01*
G01*
X152200000Y-42500000D02*
G75*
G02X152900000Y-41800000I700000J0D01*
G01*
X152900000Y-44600000D02*
G75*
G02X152200000Y-43900000I0J700000D01*
G01*
X154200000Y-43900000D02*
G75*
G02X153500000Y-44600000I-700000J0D01*
G01*
X58310000Y-47961252D02*
X58310000Y-47438748D01*
X56890000Y-47961252D02*
X56890000Y-47438748D01*
X74779231Y-51061252D02*
X74779231Y-50538748D01*
X73359231Y-51061252D02*
X73359231Y-50538748D01*
X43551538Y-56838748D02*
X43551538Y-57361252D01*
X44971538Y-56838748D02*
X44971538Y-57361252D01*
X58802307Y-56838748D02*
X58802307Y-57361252D01*
X57382307Y-56838748D02*
X57382307Y-57361252D01*
X72633076Y-56838748D02*
X72633076Y-57361252D01*
X71213076Y-56838748D02*
X71213076Y-57361252D01*
X86463845Y-56838748D02*
X86463845Y-57361252D01*
X85043845Y-56838748D02*
X85043845Y-57361252D01*
X98874614Y-56838748D02*
X98874614Y-57361252D01*
X100294614Y-56838748D02*
X100294614Y-57361252D01*
X114125383Y-56838748D02*
X114125383Y-57361252D01*
X112705383Y-56838748D02*
X112705383Y-57361252D01*
X126536152Y-56838748D02*
X126536152Y-57361252D01*
X127956152Y-56838748D02*
X127956152Y-57361252D01*
X141786921Y-56838748D02*
X141786921Y-57361252D01*
X140366921Y-56838748D02*
X140366921Y-57361252D01*
X154197690Y-56838748D02*
X154197690Y-57361252D01*
X155617690Y-56838748D02*
X155617690Y-57361252D01*
X169448459Y-56838748D02*
X169448459Y-57361252D01*
X168028459Y-56838748D02*
X168028459Y-57361252D01*
X181859228Y-56838748D02*
X181859228Y-57361252D01*
X183279228Y-56838748D02*
X183279228Y-57361252D01*
X197110000Y-56838748D02*
X197110000Y-57361252D01*
X195690000Y-56838748D02*
X195690000Y-57361252D01*
X100115000Y-40385000D02*
X103000000Y-40385000D01*
X100115000Y-38815000D02*
X100115000Y-40385000D01*
X103000000Y-38815000D02*
X100115000Y-38815000D01*
X106038748Y-38890000D02*
X106561252Y-38890000D01*
X106038748Y-40310000D02*
X106561252Y-40310000D01*
X91900000Y-40385000D02*
X94785000Y-40385000D01*
X94785000Y-40385000D02*
X94785000Y-38815000D01*
X94785000Y-38815000D02*
X91900000Y-38815000D01*
X97461252Y-38890000D02*
X96938748Y-38890000D01*
X97461252Y-40310000D02*
X96938748Y-40310000D01*
X194690000Y-51260000D02*
X195280000Y-51260000D01*
X195280000Y-51260000D02*
X195280000Y-53240000D01*
X195280000Y-53240000D02*
X194930000Y-53240000D01*
X194930000Y-53240000D02*
X194930000Y-54010000D01*
X194930000Y-54010000D02*
X196980000Y-54010000D01*
X198800000Y-54010000D02*
X199100000Y-54010000D01*
X199100000Y-54010000D02*
X199100000Y-53210000D01*
X199100000Y-53210000D02*
X200400000Y-53210000D01*
X200400000Y-53210000D02*
X200400000Y-32390000D01*
X200400000Y-32390000D02*
X199100000Y-32390000D01*
X199100000Y-32390000D02*
X199100000Y-31590000D01*
X199100000Y-31590000D02*
X198800000Y-31590000D01*
X196980000Y-31590000D02*
X194930000Y-31590000D01*
X194930000Y-31590000D02*
X194930000Y-32360000D01*
X194930000Y-32360000D02*
X195280000Y-32360000D01*
X195280000Y-32360000D02*
X195280000Y-34340000D01*
X115170000Y-39860000D02*
X125450000Y-39860000D01*
X125450000Y-39860000D02*
X125450000Y-37200000D01*
X125450000Y-37200000D02*
X115170000Y-37200000D01*
X115170000Y-37200000D02*
X115170000Y-39860000D01*
X116120000Y-37200000D02*
X116120000Y-31200000D01*
X116120000Y-31200000D02*
X116880000Y-31200000D01*
X116880000Y-31200000D02*
X116880000Y-37200000D01*
X116180000Y-37200000D02*
X116180000Y-31200000D01*
X116300000Y-37200000D02*
X116300000Y-31200000D01*
X116420000Y-37200000D02*
X116420000Y-31200000D01*
X116540000Y-37200000D02*
X116540000Y-31200000D01*
X116660000Y-37200000D02*
X116660000Y-31200000D01*
X116780000Y-37200000D02*
X116780000Y-31200000D01*
X116120000Y-40190000D02*
X116120000Y-39860000D01*
X116880000Y-40190000D02*
X116880000Y-39860000D01*
X117770000Y-39860000D02*
X117770000Y-37200000D01*
X118660000Y-37200000D02*
X118660000Y-31200000D01*
X118660000Y-31200000D02*
X119420000Y-31200000D01*
X119420000Y-31200000D02*
X119420000Y-37200000D01*
X118660000Y-40257071D02*
X118660000Y-39860000D01*
X119420000Y-40257071D02*
X119420000Y-39860000D01*
X120310000Y-39860000D02*
X120310000Y-37200000D01*
X121200000Y-37200000D02*
X121200000Y-31200000D01*
X121200000Y-31200000D02*
X121960000Y-31200000D01*
X121960000Y-31200000D02*
X121960000Y-37200000D01*
X121200000Y-40257071D02*
X121200000Y-39860000D01*
X121960000Y-40257071D02*
X121960000Y-39860000D01*
X122850000Y-39860000D02*
X122850000Y-37200000D01*
X123740000Y-37200000D02*
X123740000Y-31200000D01*
X123740000Y-31200000D02*
X124500000Y-31200000D01*
X124500000Y-31200000D02*
X124500000Y-37200000D01*
X123740000Y-40257071D02*
X123740000Y-39860000D01*
X124500000Y-40257071D02*
X124500000Y-39860000D01*
X116500000Y-42570000D02*
X115230000Y-42570000D01*
X115230000Y-42570000D02*
X115230000Y-41300000D01*
X69010000Y-47911252D02*
X69010000Y-47388748D01*
X67590000Y-47911252D02*
X67590000Y-47388748D01*
X99190000Y-47911252D02*
X99190000Y-47388748D01*
X100610000Y-47911252D02*
X100610000Y-47388748D01*
X71879231Y-50538748D02*
X71879231Y-51061252D01*
X70459231Y-50538748D02*
X70459231Y-51061252D01*
X46451538Y-57361252D02*
X46451538Y-56838748D01*
X47871538Y-57361252D02*
X47871538Y-56838748D01*
X61702307Y-57361252D02*
X61702307Y-56838748D01*
X60282307Y-57361252D02*
X60282307Y-56838748D01*
X74113076Y-57361252D02*
X74113076Y-56838748D01*
X75533076Y-57361252D02*
X75533076Y-56838748D01*
X89363845Y-57361252D02*
X89363845Y-56838748D01*
X87943845Y-57361252D02*
X87943845Y-56838748D01*
X103194614Y-57361252D02*
X103194614Y-56838748D01*
X101774614Y-57361252D02*
X101774614Y-56838748D01*
X115605383Y-57361252D02*
X115605383Y-56838748D01*
X117025383Y-57361252D02*
X117025383Y-56838748D01*
X142010000Y-47911252D02*
X142010000Y-47388748D01*
X140590000Y-47911252D02*
X140590000Y-47388748D01*
X168290000Y-47961252D02*
X168290000Y-47438748D01*
X169710000Y-47961252D02*
X169710000Y-47438748D01*
X129436152Y-57361252D02*
X129436152Y-56838748D01*
X130856152Y-57361252D02*
X130856152Y-56838748D01*
X143266921Y-57361252D02*
X143266921Y-56838748D01*
X144686921Y-57361252D02*
X144686921Y-56838748D01*
X158517690Y-57361252D02*
X158517690Y-56838748D01*
X157097690Y-57361252D02*
X157097690Y-56838748D01*
X172348459Y-57361252D02*
X172348459Y-56838748D01*
X170928459Y-57361252D02*
X170928459Y-56838748D01*
X186179228Y-57361252D02*
X186179228Y-56838748D01*
X184759228Y-57361252D02*
X184759228Y-56838748D01*
X198590000Y-57361252D02*
X198590000Y-56838748D01*
X200010000Y-57361252D02*
X200010000Y-56838748D01*
X92261252Y-42490000D02*
X91738748Y-42490000D01*
X92261252Y-43910000D02*
X91738748Y-43910000D01*
X50036667Y-47500000D02*
X50036667Y-47900000D01*
X51136667Y-46100000D02*
X54036667Y-46100000D01*
X54036667Y-46100000D02*
X54036667Y-46700000D01*
X51136667Y-49300000D02*
X54036667Y-49300000D01*
X54036667Y-49300000D02*
X54036667Y-48700000D01*
X50236667Y-45900000D02*
X49536667Y-45900000D01*
X49536667Y-45900000D02*
X49536667Y-46600000D01*
X60203333Y-45900000D02*
X60203333Y-46600000D01*
X60903333Y-45900000D02*
X60203333Y-45900000D01*
X64703333Y-49300000D02*
X64703333Y-48700000D01*
X61803333Y-49300000D02*
X64703333Y-49300000D01*
X64703333Y-46100000D02*
X64703333Y-46700000D01*
X61803333Y-46100000D02*
X64703333Y-46100000D01*
X60703333Y-47500000D02*
X60703333Y-47900000D01*
X92303333Y-47500000D02*
X92303333Y-47900000D01*
X93403333Y-46100000D02*
X96303333Y-46100000D01*
X96303333Y-46100000D02*
X96303333Y-46700000D01*
X93403333Y-49300000D02*
X96303333Y-49300000D01*
X96303333Y-49300000D02*
X96303333Y-48700000D01*
X92503333Y-45900000D02*
X91803333Y-45900000D01*
X91803333Y-45900000D02*
X91803333Y-46600000D01*
X133203333Y-45900000D02*
X133203333Y-46600000D01*
X133903333Y-45900000D02*
X133203333Y-45900000D01*
X137703333Y-49300000D02*
X137703333Y-48700000D01*
X134803333Y-49300000D02*
X137703333Y-49300000D01*
X137703333Y-46100000D02*
X137703333Y-46700000D01*
X134803333Y-46100000D02*
X137703333Y-46100000D01*
X133703333Y-47500000D02*
X133703333Y-47900000D01*
X161370000Y-47500000D02*
X161370000Y-47900000D01*
X162470000Y-46100000D02*
X165370000Y-46100000D01*
X165370000Y-46100000D02*
X165370000Y-46700000D01*
X162470000Y-49300000D02*
X165370000Y-49300000D01*
X165370000Y-49300000D02*
X165370000Y-48700000D01*
X161570000Y-45900000D02*
X160870000Y-45900000D01*
X160870000Y-45900000D02*
X160870000Y-46600000D01*
X39766667Y-58800000D02*
X35566667Y-58800000D01*
X39766667Y-55400000D02*
X36966667Y-55400000D01*
X53600000Y-55400000D02*
X50800000Y-55400000D01*
X53600000Y-58800000D02*
X49400000Y-58800000D01*
X67433333Y-58800000D02*
X63233333Y-58800000D01*
X67433333Y-55400000D02*
X64633333Y-55400000D01*
X81266667Y-55400000D02*
X78466667Y-55400000D01*
X81266667Y-58800000D02*
X77066667Y-58800000D01*
X95100000Y-58800000D02*
X90900000Y-58800000D01*
X95100000Y-55400000D02*
X92300000Y-55400000D01*
X108933333Y-55400000D02*
X106133333Y-55400000D01*
X108933333Y-58800000D02*
X104733333Y-58800000D01*
X122766667Y-58800000D02*
X118566667Y-58800000D01*
X122766667Y-55400000D02*
X119966667Y-55400000D01*
X136600000Y-58800000D02*
X132400000Y-58800000D01*
X136600000Y-55400000D02*
X133800000Y-55400000D01*
X150433333Y-55400000D02*
X147633333Y-55400000D01*
X150433333Y-58800000D02*
X146233333Y-58800000D01*
X164266667Y-58800000D02*
X160066667Y-58800000D01*
X164266667Y-55400000D02*
X161466667Y-55400000D01*
X178100000Y-55400000D02*
X175300000Y-55400000D01*
X178100000Y-58800000D02*
X173900000Y-58800000D01*
X191933333Y-58800000D02*
X187733333Y-58800000D01*
X191933333Y-55400000D02*
X189133333Y-55400000D01*
X205766667Y-55400000D02*
X202966667Y-55400000D01*
X205766667Y-58800000D02*
X201566667Y-58800000D01*
X96340000Y-40820000D02*
X96340000Y-41750000D01*
X96340000Y-43980000D02*
X96340000Y-43050000D01*
X96340000Y-43980000D02*
X98500000Y-43980000D01*
X96340000Y-40820000D02*
X97800000Y-40820000D01*
X107603733Y-42810000D02*
X107946267Y-42810000D01*
X107603733Y-41790000D02*
X107946267Y-41790000D01*
X102610000Y-47728733D02*
X102610000Y-48071267D01*
X101590000Y-47728733D02*
X101590000Y-48071267D01*
X114028733Y-48090000D02*
X114371267Y-48090000D01*
X114028733Y-49110000D02*
X114371267Y-49110000D01*
X101590000Y-44771267D02*
X101590000Y-44428733D01*
X102610000Y-44771267D02*
X102610000Y-44428733D01*
D11*
X109825000Y-44225000D02*
X109825000Y-44332500D01*
X109825000Y-54175000D02*
X109825000Y-54067500D01*
X105175000Y-54175000D02*
X105175000Y-54067500D01*
X104100000Y-44175000D02*
X109825000Y-44175000D01*
X105175000Y-54175000D02*
X109825000Y-54175000D01*
D10*
X182970000Y-39860000D02*
X190710000Y-39860000D01*
X190710000Y-39860000D02*
X190710000Y-37200000D01*
X190710000Y-37200000D02*
X182970000Y-37200000D01*
X182970000Y-37200000D02*
X182970000Y-39860000D01*
X183920000Y-37200000D02*
X183920000Y-31200000D01*
X183920000Y-31200000D02*
X184680000Y-31200000D01*
X184680000Y-31200000D02*
X184680000Y-37200000D01*
X183980000Y-37200000D02*
X183980000Y-31200000D01*
X184100000Y-37200000D02*
X184100000Y-31200000D01*
X184220000Y-37200000D02*
X184220000Y-31200000D01*
X184340000Y-37200000D02*
X184340000Y-31200000D01*
X184460000Y-37200000D02*
X184460000Y-31200000D01*
X184580000Y-37200000D02*
X184580000Y-31200000D01*
X183920000Y-40190000D02*
X183920000Y-39860000D01*
X184680000Y-40190000D02*
X184680000Y-39860000D01*
X185570000Y-39860000D02*
X185570000Y-37200000D01*
X186460000Y-37200000D02*
X186460000Y-31200000D01*
X186460000Y-31200000D02*
X187220000Y-31200000D01*
X187220000Y-31200000D02*
X187220000Y-37200000D01*
X186460000Y-40257071D02*
X186460000Y-39860000D01*
X187220000Y-40257071D02*
X187220000Y-39860000D01*
X188110000Y-39860000D02*
X188110000Y-37200000D01*
X189000000Y-37200000D02*
X189000000Y-31200000D01*
X189000000Y-31200000D02*
X189760000Y-31200000D01*
X189760000Y-31200000D02*
X189760000Y-37200000D01*
X189000000Y-40257071D02*
X189000000Y-39860000D01*
X189760000Y-40257071D02*
X189760000Y-39860000D01*
X184300000Y-42570000D02*
X183030000Y-42570000D01*
X183030000Y-42570000D02*
X183030000Y-41300000D01*
X74060000Y-42610000D02*
X74060000Y-42020000D01*
X74060000Y-42020000D02*
X76040000Y-42020000D01*
X76040000Y-42020000D02*
X76040000Y-42370000D01*
X76040000Y-42370000D02*
X76810000Y-42370000D01*
X76810000Y-42370000D02*
X76810000Y-40320000D01*
X76810000Y-38500000D02*
X76810000Y-38200000D01*
X76810000Y-38200000D02*
X76010000Y-38200000D01*
X76010000Y-38200000D02*
X76010000Y-36900000D01*
X76010000Y-36900000D02*
X68190000Y-36900000D01*
X68190000Y-36900000D02*
X68190000Y-38200000D01*
X68190000Y-38200000D02*
X67390000Y-38200000D01*
X67390000Y-38200000D02*
X67390000Y-38500000D01*
X67390000Y-40320000D02*
X67390000Y-42370000D01*
X67390000Y-42370000D02*
X68160000Y-42370000D01*
X68160000Y-42370000D02*
X68160000Y-42020000D01*
X68160000Y-42020000D02*
X70140000Y-42020000D01*
X80160000Y-42020000D02*
X82140000Y-42020000D01*
X80160000Y-42370000D02*
X80160000Y-42020000D01*
X79390000Y-42370000D02*
X80160000Y-42370000D01*
X79390000Y-40320000D02*
X79390000Y-42370000D01*
X79390000Y-38200000D02*
X79390000Y-38500000D01*
X80190000Y-38200000D02*
X79390000Y-38200000D01*
X80190000Y-36900000D02*
X80190000Y-38200000D01*
X88010000Y-36900000D02*
X80190000Y-36900000D01*
X88010000Y-38200000D02*
X88010000Y-36900000D01*
X88810000Y-38200000D02*
X88010000Y-38200000D01*
X88810000Y-38500000D02*
X88810000Y-38200000D01*
X88810000Y-42370000D02*
X88810000Y-40320000D01*
X88040000Y-42370000D02*
X88810000Y-42370000D01*
X88040000Y-42020000D02*
X88040000Y-42370000D01*
X86060000Y-42020000D02*
X88040000Y-42020000D01*
X86060000Y-42610000D02*
X86060000Y-42020000D01*
X162400000Y-38500000D02*
X162400000Y-39900000D01*
X161700000Y-40600000D02*
X161100000Y-40600000D01*
X160400000Y-39900000D02*
X160400000Y-38500000D01*
X161100000Y-37800000D02*
X161700000Y-37800000D01*
X161700000Y-37800000D02*
G75*
G02X162400000Y-38500000I0J-700000D01*
G01*
X160400000Y-38500000D02*
G75*
G02X161100000Y-37800000I700000J0D01*
G01*
X161100000Y-40600000D02*
G75*
G02X160400000Y-39900000I0J700000D01*
G01*
X162400000Y-39900000D02*
G75*
G02X161700000Y-40600000I-700000J0D01*
G01*
X162400000Y-42500000D02*
X162400000Y-43900000D01*
X161700000Y-44600000D02*
X161100000Y-44600000D01*
X160400000Y-43900000D02*
X160400000Y-42500000D01*
X161100000Y-41800000D02*
X161700000Y-41800000D01*
X161700000Y-41800000D02*
G75*
G02X162400000Y-42500000I0J-700000D01*
G01*
X160400000Y-42500000D02*
G75*
G02X161100000Y-41800000I700000J0D01*
G01*
X161100000Y-44600000D02*
G75*
G02X160400000Y-43900000I0J700000D01*
G01*
X162400000Y-43900000D02*
G75*
G02X161700000Y-44600000I-700000J0D01*
G01*
X165600000Y-39900000D02*
G75*
G02X164900000Y-40600000I-700000J0D01*
G01*
X164300000Y-40600000D02*
G75*
G02X163600000Y-39900000I0J700000D01*
G01*
X163600000Y-38500000D02*
G75*
G02X164300000Y-37800000I700000J0D01*
G01*
X164900000Y-37800000D02*
G75*
G02X165600000Y-38500000I0J-700000D01*
G01*
X164300000Y-37800000D02*
X164900000Y-37800000D01*
X163600000Y-39900000D02*
X163600000Y-38500000D01*
X164900000Y-40600000D02*
X164300000Y-40600000D01*
X165600000Y-38500000D02*
X165600000Y-39900000D01*
X165600000Y-42500000D02*
X165600000Y-43900000D01*
X164900000Y-44600000D02*
X164300000Y-44600000D01*
X163600000Y-43900000D02*
X163600000Y-42500000D01*
X164300000Y-41800000D02*
X164900000Y-41800000D01*
X164900000Y-41800000D02*
G75*
G02X165600000Y-42500000I0J-700000D01*
G01*
X163600000Y-42500000D02*
G75*
G02X164300000Y-41800000I700000J0D01*
G01*
X164300000Y-44600000D02*
G75*
G02X163600000Y-43900000I0J700000D01*
G01*
X165600000Y-43900000D02*
G75*
G02X164900000Y-44600000I-700000J0D01*
G01*
X168800000Y-39900000D02*
G75*
G02X168100000Y-40600000I-700000J0D01*
G01*
X167500000Y-40600000D02*
G75*
G02X166800000Y-39900000I0J700000D01*
G01*
X166800000Y-38500000D02*
G75*
G02X167500000Y-37800000I700000J0D01*
G01*
X168100000Y-37800000D02*
G75*
G02X168800000Y-38500000I0J-700000D01*
G01*
X167500000Y-37800000D02*
X168100000Y-37800000D01*
X166800000Y-39900000D02*
X166800000Y-38500000D01*
X168100000Y-40600000D02*
X167500000Y-40600000D01*
X168800000Y-38500000D02*
X168800000Y-39900000D01*
X168800000Y-43900000D02*
G75*
G02X168100000Y-44600000I-700000J0D01*
G01*
X167500000Y-44600000D02*
G75*
G02X166800000Y-43900000I0J700000D01*
G01*
X166800000Y-42500000D02*
G75*
G02X167500000Y-41800000I700000J0D01*
G01*
X168100000Y-41800000D02*
G75*
G02X168800000Y-42500000I0J-700000D01*
G01*
X167500000Y-41800000D02*
X168100000Y-41800000D01*
X166800000Y-43900000D02*
X166800000Y-42500000D01*
X168100000Y-44600000D02*
X167500000Y-44600000D01*
X168800000Y-42500000D02*
X168800000Y-43900000D01*
D12*
X49035714Y-36978571D02*
X49321428Y-36978571D01*
X49464285Y-37050000D01*
X49607142Y-37192857D01*
X49678571Y-37478571D01*
X49678571Y-37978571D01*
X49607142Y-38264285D01*
X49464285Y-38407142D01*
X49321428Y-38478571D01*
X49035714Y-38478571D01*
X48892857Y-38407142D01*
X48750000Y-38264285D01*
X48678571Y-37978571D01*
X48678571Y-37478571D01*
X48750000Y-37192857D01*
X48892857Y-37050000D01*
X49035714Y-36978571D01*
X50321428Y-38478571D02*
X50321428Y-36978571D01*
X50892857Y-36978571D01*
X51035714Y-37050000D01*
X51107142Y-37121428D01*
X51178571Y-37264285D01*
X51178571Y-37478571D01*
X51107142Y-37621428D01*
X51035714Y-37692857D01*
X50892857Y-37764285D01*
X50321428Y-37764285D01*
X51821428Y-38478571D02*
X51821428Y-36978571D01*
X52678571Y-38478571D02*
X52035714Y-37621428D01*
X52678571Y-36978571D02*
X51821428Y-37835714D01*
X53321428Y-37692857D02*
X53821428Y-37692857D01*
X54035714Y-38478571D02*
X53321428Y-38478571D01*
X53321428Y-36978571D01*
X54035714Y-36978571D01*
X54964285Y-37764285D02*
X54964285Y-38478571D01*
X54464285Y-36978571D02*
X54964285Y-37764285D01*
X55464285Y-36978571D01*
D11*
X46062380Y-43133333D02*
X46776666Y-43133333D01*
X46919523Y-43180952D01*
X47014761Y-43276190D01*
X47062380Y-43419047D01*
X47062380Y-43514285D01*
X47062380Y-42133333D02*
X47062380Y-42704761D01*
X47062380Y-42419047D02*
X46062380Y-42419047D01*
X46205238Y-42514285D01*
X46300476Y-42609523D01*
X46348095Y-42704761D01*
X134302380Y-43333333D02*
X135016666Y-43333333D01*
X135159523Y-43380952D01*
X135254761Y-43476190D01*
X135302380Y-43619047D01*
X135302380Y-43714285D01*
X134635714Y-42428571D02*
X135302380Y-42428571D01*
X134254761Y-42666666D02*
X134969047Y-42904761D01*
X134969047Y-42285714D01*
X57433333Y-45702380D02*
X57100000Y-45226190D01*
X56861904Y-45702380D02*
X56861904Y-44702380D01*
X57242857Y-44702380D01*
X57338095Y-44750000D01*
X57385714Y-44797619D01*
X57433333Y-44892857D01*
X57433333Y-45035714D01*
X57385714Y-45130952D01*
X57338095Y-45178571D01*
X57242857Y-45226190D01*
X56861904Y-45226190D01*
X58385714Y-45702380D02*
X57814285Y-45702380D01*
X58100000Y-45702380D02*
X58100000Y-44702380D01*
X58004761Y-44845238D01*
X57909523Y-44940476D01*
X57814285Y-44988095D01*
X73908333Y-48707142D02*
X73860714Y-48754761D01*
X73717857Y-48802380D01*
X73622619Y-48802380D01*
X73479761Y-48754761D01*
X73384523Y-48659523D01*
X73336904Y-48564285D01*
X73289285Y-48373809D01*
X73289285Y-48230952D01*
X73336904Y-48040476D01*
X73384523Y-47945238D01*
X73479761Y-47850000D01*
X73622619Y-47802380D01*
X73717857Y-47802380D01*
X73860714Y-47850000D01*
X73908333Y-47897619D01*
X74241666Y-47802380D02*
X74860714Y-47802380D01*
X74527380Y-48183333D01*
X74670238Y-48183333D01*
X74765476Y-48230952D01*
X74813095Y-48278571D01*
X74860714Y-48373809D01*
X74860714Y-48611904D01*
X74813095Y-48707142D01*
X74765476Y-48754761D01*
X74670238Y-48802380D01*
X74384523Y-48802380D01*
X74289285Y-48754761D01*
X74241666Y-48707142D01*
X44119871Y-55007142D02*
X44072252Y-55054761D01*
X43929395Y-55102380D01*
X43834157Y-55102380D01*
X43691299Y-55054761D01*
X43596061Y-54959523D01*
X43548442Y-54864285D01*
X43500823Y-54673809D01*
X43500823Y-54530952D01*
X43548442Y-54340476D01*
X43596061Y-54245238D01*
X43691299Y-54150000D01*
X43834157Y-54102380D01*
X43929395Y-54102380D01*
X44072252Y-54150000D01*
X44119871Y-54197619D01*
X44977014Y-54435714D02*
X44977014Y-55102380D01*
X44738918Y-54054761D02*
X44500823Y-54769047D01*
X45119871Y-54769047D01*
X57950640Y-55007142D02*
X57903021Y-55054761D01*
X57760164Y-55102380D01*
X57664926Y-55102380D01*
X57522068Y-55054761D01*
X57426830Y-54959523D01*
X57379211Y-54864285D01*
X57331592Y-54673809D01*
X57331592Y-54530952D01*
X57379211Y-54340476D01*
X57426830Y-54245238D01*
X57522068Y-54150000D01*
X57664926Y-54102380D01*
X57760164Y-54102380D01*
X57903021Y-54150000D01*
X57950640Y-54197619D01*
X58855402Y-54102380D02*
X58379211Y-54102380D01*
X58331592Y-54578571D01*
X58379211Y-54530952D01*
X58474449Y-54483333D01*
X58712545Y-54483333D01*
X58807783Y-54530952D01*
X58855402Y-54578571D01*
X58903021Y-54673809D01*
X58903021Y-54911904D01*
X58855402Y-55007142D01*
X58807783Y-55054761D01*
X58712545Y-55102380D01*
X58474449Y-55102380D01*
X58379211Y-55054761D01*
X58331592Y-55007142D01*
X71781409Y-55007142D02*
X71733790Y-55054761D01*
X71590933Y-55102380D01*
X71495695Y-55102380D01*
X71352837Y-55054761D01*
X71257599Y-54959523D01*
X71209980Y-54864285D01*
X71162361Y-54673809D01*
X71162361Y-54530952D01*
X71209980Y-54340476D01*
X71257599Y-54245238D01*
X71352837Y-54150000D01*
X71495695Y-54102380D01*
X71590933Y-54102380D01*
X71733790Y-54150000D01*
X71781409Y-54197619D01*
X72638552Y-54102380D02*
X72448076Y-54102380D01*
X72352837Y-54150000D01*
X72305218Y-54197619D01*
X72209980Y-54340476D01*
X72162361Y-54530952D01*
X72162361Y-54911904D01*
X72209980Y-55007142D01*
X72257599Y-55054761D01*
X72352837Y-55102380D01*
X72543314Y-55102380D01*
X72638552Y-55054761D01*
X72686171Y-55007142D01*
X72733790Y-54911904D01*
X72733790Y-54673809D01*
X72686171Y-54578571D01*
X72638552Y-54530952D01*
X72543314Y-54483333D01*
X72352837Y-54483333D01*
X72257599Y-54530952D01*
X72209980Y-54578571D01*
X72162361Y-54673809D01*
X85612178Y-55007142D02*
X85564559Y-55054761D01*
X85421702Y-55102380D01*
X85326464Y-55102380D01*
X85183606Y-55054761D01*
X85088368Y-54959523D01*
X85040749Y-54864285D01*
X84993130Y-54673809D01*
X84993130Y-54530952D01*
X85040749Y-54340476D01*
X85088368Y-54245238D01*
X85183606Y-54150000D01*
X85326464Y-54102380D01*
X85421702Y-54102380D01*
X85564559Y-54150000D01*
X85612178Y-54197619D01*
X85945511Y-54102380D02*
X86612178Y-54102380D01*
X86183606Y-55102380D01*
X99442947Y-55007142D02*
X99395328Y-55054761D01*
X99252471Y-55102380D01*
X99157233Y-55102380D01*
X99014375Y-55054761D01*
X98919137Y-54959523D01*
X98871518Y-54864285D01*
X98823899Y-54673809D01*
X98823899Y-54530952D01*
X98871518Y-54340476D01*
X98919137Y-54245238D01*
X99014375Y-54150000D01*
X99157233Y-54102380D01*
X99252471Y-54102380D01*
X99395328Y-54150000D01*
X99442947Y-54197619D01*
X100014375Y-54530952D02*
X99919137Y-54483333D01*
X99871518Y-54435714D01*
X99823899Y-54340476D01*
X99823899Y-54292857D01*
X99871518Y-54197619D01*
X99919137Y-54150000D01*
X100014375Y-54102380D01*
X100204852Y-54102380D01*
X100300090Y-54150000D01*
X100347709Y-54197619D01*
X100395328Y-54292857D01*
X100395328Y-54340476D01*
X100347709Y-54435714D01*
X100300090Y-54483333D01*
X100204852Y-54530952D01*
X100014375Y-54530952D01*
X99919137Y-54578571D01*
X99871518Y-54626190D01*
X99823899Y-54721428D01*
X99823899Y-54911904D01*
X99871518Y-55007142D01*
X99919137Y-55054761D01*
X100014375Y-55102380D01*
X100204852Y-55102380D01*
X100300090Y-55054761D01*
X100347709Y-55007142D01*
X100395328Y-54911904D01*
X100395328Y-54721428D01*
X100347709Y-54626190D01*
X100300090Y-54578571D01*
X100204852Y-54530952D01*
X113273716Y-55007142D02*
X113226097Y-55054761D01*
X113083240Y-55102380D01*
X112988002Y-55102380D01*
X112845144Y-55054761D01*
X112749906Y-54959523D01*
X112702287Y-54864285D01*
X112654668Y-54673809D01*
X112654668Y-54530952D01*
X112702287Y-54340476D01*
X112749906Y-54245238D01*
X112845144Y-54150000D01*
X112988002Y-54102380D01*
X113083240Y-54102380D01*
X113226097Y-54150000D01*
X113273716Y-54197619D01*
X113749906Y-55102380D02*
X113940383Y-55102380D01*
X114035621Y-55054761D01*
X114083240Y-55007142D01*
X114178478Y-54864285D01*
X114226097Y-54673809D01*
X114226097Y-54292857D01*
X114178478Y-54197619D01*
X114130859Y-54150000D01*
X114035621Y-54102380D01*
X113845144Y-54102380D01*
X113749906Y-54150000D01*
X113702287Y-54197619D01*
X113654668Y-54292857D01*
X113654668Y-54530952D01*
X113702287Y-54626190D01*
X113749906Y-54673809D01*
X113845144Y-54721428D01*
X114035621Y-54721428D01*
X114130859Y-54673809D01*
X114178478Y-54626190D01*
X114226097Y-54530952D01*
X126628294Y-55007142D02*
X126580675Y-55054761D01*
X126437818Y-55102380D01*
X126342580Y-55102380D01*
X126199723Y-55054761D01*
X126104485Y-54959523D01*
X126056866Y-54864285D01*
X126009247Y-54673809D01*
X126009247Y-54530952D01*
X126056866Y-54340476D01*
X126104485Y-54245238D01*
X126199723Y-54150000D01*
X126342580Y-54102380D01*
X126437818Y-54102380D01*
X126580675Y-54150000D01*
X126628294Y-54197619D01*
X127580675Y-55102380D02*
X127009247Y-55102380D01*
X127294961Y-55102380D02*
X127294961Y-54102380D01*
X127199723Y-54245238D01*
X127104485Y-54340476D01*
X127009247Y-54388095D01*
X128199723Y-54102380D02*
X128294961Y-54102380D01*
X128390199Y-54150000D01*
X128437818Y-54197619D01*
X128485437Y-54292857D01*
X128533056Y-54483333D01*
X128533056Y-54721428D01*
X128485437Y-54911904D01*
X128437818Y-55007142D01*
X128390199Y-55054761D01*
X128294961Y-55102380D01*
X128199723Y-55102380D01*
X128104485Y-55054761D01*
X128056866Y-55007142D01*
X128009247Y-54911904D01*
X127961628Y-54721428D01*
X127961628Y-54483333D01*
X128009247Y-54292857D01*
X128056866Y-54197619D01*
X128104485Y-54150000D01*
X128199723Y-54102380D01*
X140459063Y-55007142D02*
X140411444Y-55054761D01*
X140268587Y-55102380D01*
X140173349Y-55102380D01*
X140030492Y-55054761D01*
X139935254Y-54959523D01*
X139887635Y-54864285D01*
X139840016Y-54673809D01*
X139840016Y-54530952D01*
X139887635Y-54340476D01*
X139935254Y-54245238D01*
X140030492Y-54150000D01*
X140173349Y-54102380D01*
X140268587Y-54102380D01*
X140411444Y-54150000D01*
X140459063Y-54197619D01*
X141411444Y-55102380D02*
X140840016Y-55102380D01*
X141125730Y-55102380D02*
X141125730Y-54102380D01*
X141030492Y-54245238D01*
X140935254Y-54340476D01*
X140840016Y-54388095D01*
X142363825Y-55102380D02*
X141792397Y-55102380D01*
X142078111Y-55102380D02*
X142078111Y-54102380D01*
X141982873Y-54245238D01*
X141887635Y-54340476D01*
X141792397Y-54388095D01*
X154289832Y-55007142D02*
X154242213Y-55054761D01*
X154099356Y-55102380D01*
X154004118Y-55102380D01*
X153861261Y-55054761D01*
X153766023Y-54959523D01*
X153718404Y-54864285D01*
X153670785Y-54673809D01*
X153670785Y-54530952D01*
X153718404Y-54340476D01*
X153766023Y-54245238D01*
X153861261Y-54150000D01*
X154004118Y-54102380D01*
X154099356Y-54102380D01*
X154242213Y-54150000D01*
X154289832Y-54197619D01*
X155242213Y-55102380D02*
X154670785Y-55102380D01*
X154956499Y-55102380D02*
X154956499Y-54102380D01*
X154861261Y-54245238D01*
X154766023Y-54340476D01*
X154670785Y-54388095D01*
X155623166Y-54197619D02*
X155670785Y-54150000D01*
X155766023Y-54102380D01*
X156004118Y-54102380D01*
X156099356Y-54150000D01*
X156146975Y-54197619D01*
X156194594Y-54292857D01*
X156194594Y-54388095D01*
X156146975Y-54530952D01*
X155575547Y-55102380D01*
X156194594Y-55102380D01*
X168120601Y-55007142D02*
X168072982Y-55054761D01*
X167930125Y-55102380D01*
X167834887Y-55102380D01*
X167692030Y-55054761D01*
X167596792Y-54959523D01*
X167549173Y-54864285D01*
X167501554Y-54673809D01*
X167501554Y-54530952D01*
X167549173Y-54340476D01*
X167596792Y-54245238D01*
X167692030Y-54150000D01*
X167834887Y-54102380D01*
X167930125Y-54102380D01*
X168072982Y-54150000D01*
X168120601Y-54197619D01*
X169072982Y-55102380D02*
X168501554Y-55102380D01*
X168787268Y-55102380D02*
X168787268Y-54102380D01*
X168692030Y-54245238D01*
X168596792Y-54340476D01*
X168501554Y-54388095D01*
X169406316Y-54102380D02*
X170025363Y-54102380D01*
X169692030Y-54483333D01*
X169834887Y-54483333D01*
X169930125Y-54530952D01*
X169977744Y-54578571D01*
X170025363Y-54673809D01*
X170025363Y-54911904D01*
X169977744Y-55007142D01*
X169930125Y-55054761D01*
X169834887Y-55102380D01*
X169549173Y-55102380D01*
X169453935Y-55054761D01*
X169406316Y-55007142D01*
X181951370Y-55007142D02*
X181903751Y-55054761D01*
X181760894Y-55102380D01*
X181665656Y-55102380D01*
X181522799Y-55054761D01*
X181427561Y-54959523D01*
X181379942Y-54864285D01*
X181332323Y-54673809D01*
X181332323Y-54530952D01*
X181379942Y-54340476D01*
X181427561Y-54245238D01*
X181522799Y-54150000D01*
X181665656Y-54102380D01*
X181760894Y-54102380D01*
X181903751Y-54150000D01*
X181951370Y-54197619D01*
X182903751Y-55102380D02*
X182332323Y-55102380D01*
X182618037Y-55102380D02*
X182618037Y-54102380D01*
X182522799Y-54245238D01*
X182427561Y-54340476D01*
X182332323Y-54388095D01*
X183760894Y-54435714D02*
X183760894Y-55102380D01*
X183522799Y-54054761D02*
X183284704Y-54769047D01*
X183903751Y-54769047D01*
X195157142Y-56667857D02*
X195204761Y-56715476D01*
X195252380Y-56858333D01*
X195252380Y-56953571D01*
X195204761Y-57096428D01*
X195109523Y-57191666D01*
X195014285Y-57239285D01*
X194823809Y-57286904D01*
X194680952Y-57286904D01*
X194490476Y-57239285D01*
X194395238Y-57191666D01*
X194300000Y-57096428D01*
X194252380Y-56953571D01*
X194252380Y-56858333D01*
X194300000Y-56715476D01*
X194347619Y-56667857D01*
X195252380Y-55715476D02*
X195252380Y-56286904D01*
X195252380Y-56001190D02*
X194252380Y-56001190D01*
X194395238Y-56096428D01*
X194490476Y-56191666D01*
X194538095Y-56286904D01*
X194252380Y-54810714D02*
X194252380Y-55286904D01*
X194728571Y-55334523D01*
X194680952Y-55286904D01*
X194633333Y-55191666D01*
X194633333Y-54953571D01*
X194680952Y-54858333D01*
X194728571Y-54810714D01*
X194823809Y-54763095D01*
X195061904Y-54763095D01*
X195157142Y-54810714D01*
X195204761Y-54858333D01*
X195252380Y-54953571D01*
X195252380Y-55191666D01*
X195204761Y-55286904D01*
X195157142Y-55334523D01*
X101357142Y-38457142D02*
X101309523Y-38504761D01*
X101166666Y-38552380D01*
X101071428Y-38552380D01*
X100928571Y-38504761D01*
X100833333Y-38409523D01*
X100785714Y-38314285D01*
X100738095Y-38123809D01*
X100738095Y-37980952D01*
X100785714Y-37790476D01*
X100833333Y-37695238D01*
X100928571Y-37600000D01*
X101071428Y-37552380D01*
X101166666Y-37552380D01*
X101309523Y-37600000D01*
X101357142Y-37647619D01*
X101738095Y-37647619D02*
X101785714Y-37600000D01*
X101880952Y-37552380D01*
X102119047Y-37552380D01*
X102214285Y-37600000D01*
X102261904Y-37647619D01*
X102309523Y-37742857D01*
X102309523Y-37838095D01*
X102261904Y-37980952D01*
X101690476Y-38552380D01*
X102309523Y-38552380D01*
X102928571Y-37552380D02*
X103023809Y-37552380D01*
X103119047Y-37600000D01*
X103166666Y-37647619D01*
X103214285Y-37742857D01*
X103261904Y-37933333D01*
X103261904Y-38171428D01*
X103214285Y-38361904D01*
X103166666Y-38457142D01*
X103119047Y-38504761D01*
X103023809Y-38552380D01*
X102928571Y-38552380D01*
X102833333Y-38504761D01*
X102785714Y-38457142D01*
X102738095Y-38361904D01*
X102690476Y-38171428D01*
X102690476Y-37933333D01*
X102738095Y-37742857D01*
X102785714Y-37647619D01*
X102833333Y-37600000D01*
X102928571Y-37552380D01*
X105657142Y-38357142D02*
X105609523Y-38404761D01*
X105466666Y-38452380D01*
X105371428Y-38452380D01*
X105228571Y-38404761D01*
X105133333Y-38309523D01*
X105085714Y-38214285D01*
X105038095Y-38023809D01*
X105038095Y-37880952D01*
X105085714Y-37690476D01*
X105133333Y-37595238D01*
X105228571Y-37500000D01*
X105371428Y-37452380D01*
X105466666Y-37452380D01*
X105609523Y-37500000D01*
X105657142Y-37547619D01*
X106038095Y-37547619D02*
X106085714Y-37500000D01*
X106180952Y-37452380D01*
X106419047Y-37452380D01*
X106514285Y-37500000D01*
X106561904Y-37547619D01*
X106609523Y-37642857D01*
X106609523Y-37738095D01*
X106561904Y-37880952D01*
X105990476Y-38452380D01*
X106609523Y-38452380D01*
X107561904Y-38452380D02*
X106990476Y-38452380D01*
X107276190Y-38452380D02*
X107276190Y-37452380D01*
X107180952Y-37595238D01*
X107085714Y-37690476D01*
X106990476Y-37738095D01*
X92257142Y-38457142D02*
X92209523Y-38504761D01*
X92066666Y-38552380D01*
X91971428Y-38552380D01*
X91828571Y-38504761D01*
X91733333Y-38409523D01*
X91685714Y-38314285D01*
X91638095Y-38123809D01*
X91638095Y-37980952D01*
X91685714Y-37790476D01*
X91733333Y-37695238D01*
X91828571Y-37600000D01*
X91971428Y-37552380D01*
X92066666Y-37552380D01*
X92209523Y-37600000D01*
X92257142Y-37647619D01*
X92638095Y-37647619D02*
X92685714Y-37600000D01*
X92780952Y-37552380D01*
X93019047Y-37552380D01*
X93114285Y-37600000D01*
X93161904Y-37647619D01*
X93209523Y-37742857D01*
X93209523Y-37838095D01*
X93161904Y-37980952D01*
X92590476Y-38552380D01*
X93209523Y-38552380D01*
X93590476Y-37647619D02*
X93638095Y-37600000D01*
X93733333Y-37552380D01*
X93971428Y-37552380D01*
X94066666Y-37600000D01*
X94114285Y-37647619D01*
X94161904Y-37742857D01*
X94161904Y-37838095D01*
X94114285Y-37980952D01*
X93542857Y-38552380D01*
X94161904Y-38552380D01*
X96557142Y-38357142D02*
X96509523Y-38404761D01*
X96366666Y-38452380D01*
X96271428Y-38452380D01*
X96128571Y-38404761D01*
X96033333Y-38309523D01*
X95985714Y-38214285D01*
X95938095Y-38023809D01*
X95938095Y-37880952D01*
X95985714Y-37690476D01*
X96033333Y-37595238D01*
X96128571Y-37500000D01*
X96271428Y-37452380D01*
X96366666Y-37452380D01*
X96509523Y-37500000D01*
X96557142Y-37547619D01*
X96938095Y-37547619D02*
X96985714Y-37500000D01*
X97080952Y-37452380D01*
X97319047Y-37452380D01*
X97414285Y-37500000D01*
X97461904Y-37547619D01*
X97509523Y-37642857D01*
X97509523Y-37738095D01*
X97461904Y-37880952D01*
X96890476Y-38452380D01*
X97509523Y-38452380D01*
X97842857Y-37452380D02*
X98461904Y-37452380D01*
X98128571Y-37833333D01*
X98271428Y-37833333D01*
X98366666Y-37880952D01*
X98414285Y-37928571D01*
X98461904Y-38023809D01*
X98461904Y-38261904D01*
X98414285Y-38357142D01*
X98366666Y-38404761D01*
X98271428Y-38452380D01*
X97985714Y-38452380D01*
X97890476Y-38404761D01*
X97842857Y-38357142D01*
X192942380Y-43133333D02*
X193656666Y-43133333D01*
X193799523Y-43180952D01*
X193894761Y-43276190D01*
X193942380Y-43419047D01*
X193942380Y-43514285D01*
X193037619Y-42704761D02*
X192990000Y-42657142D01*
X192942380Y-42561904D01*
X192942380Y-42323809D01*
X192990000Y-42228571D01*
X193037619Y-42180952D01*
X193132857Y-42133333D01*
X193228095Y-42133333D01*
X193370952Y-42180952D01*
X193942380Y-42752380D01*
X193942380Y-42133333D01*
X113682380Y-37248333D02*
X114396666Y-37248333D01*
X114539523Y-37295952D01*
X114634761Y-37391190D01*
X114682380Y-37534047D01*
X114682380Y-37629285D01*
X113682380Y-36867380D02*
X113682380Y-36248333D01*
X114063333Y-36581666D01*
X114063333Y-36438809D01*
X114110952Y-36343571D01*
X114158571Y-36295952D01*
X114253809Y-36248333D01*
X114491904Y-36248333D01*
X114587142Y-36295952D01*
X114634761Y-36343571D01*
X114682380Y-36438809D01*
X114682380Y-36724523D01*
X114634761Y-36819761D01*
X114587142Y-36867380D01*
X68133333Y-45652380D02*
X67800000Y-45176190D01*
X67561904Y-45652380D02*
X67561904Y-44652380D01*
X67942857Y-44652380D01*
X68038095Y-44700000D01*
X68085714Y-44747619D01*
X68133333Y-44842857D01*
X68133333Y-44985714D01*
X68085714Y-45080952D01*
X68038095Y-45128571D01*
X67942857Y-45176190D01*
X67561904Y-45176190D01*
X68514285Y-44747619D02*
X68561904Y-44700000D01*
X68657142Y-44652380D01*
X68895238Y-44652380D01*
X68990476Y-44700000D01*
X69038095Y-44747619D01*
X69085714Y-44842857D01*
X69085714Y-44938095D01*
X69038095Y-45080952D01*
X68466666Y-45652380D01*
X69085714Y-45652380D01*
X99733333Y-45602380D02*
X99400000Y-45126190D01*
X99161904Y-45602380D02*
X99161904Y-44602380D01*
X99542857Y-44602380D01*
X99638095Y-44650000D01*
X99685714Y-44697619D01*
X99733333Y-44792857D01*
X99733333Y-44935714D01*
X99685714Y-45030952D01*
X99638095Y-45078571D01*
X99542857Y-45126190D01*
X99161904Y-45126190D01*
X100066666Y-44602380D02*
X100685714Y-44602380D01*
X100352380Y-44983333D01*
X100495238Y-44983333D01*
X100590476Y-45030952D01*
X100638095Y-45078571D01*
X100685714Y-45173809D01*
X100685714Y-45411904D01*
X100638095Y-45507142D01*
X100590476Y-45554761D01*
X100495238Y-45602380D01*
X100209523Y-45602380D01*
X100114285Y-45554761D01*
X100066666Y-45507142D01*
X71052564Y-48802380D02*
X70719231Y-48326190D01*
X70481135Y-48802380D02*
X70481135Y-47802380D01*
X70862088Y-47802380D01*
X70957326Y-47850000D01*
X71004945Y-47897619D01*
X71052564Y-47992857D01*
X71052564Y-48135714D01*
X71004945Y-48230952D01*
X70957326Y-48278571D01*
X70862088Y-48326190D01*
X70481135Y-48326190D01*
X71909707Y-47802380D02*
X71719231Y-47802380D01*
X71623992Y-47850000D01*
X71576373Y-47897619D01*
X71481135Y-48040476D01*
X71433516Y-48230952D01*
X71433516Y-48611904D01*
X71481135Y-48707142D01*
X71528754Y-48754761D01*
X71623992Y-48802380D01*
X71814469Y-48802380D01*
X71909707Y-48754761D01*
X71957326Y-48707142D01*
X72004945Y-48611904D01*
X72004945Y-48373809D01*
X71957326Y-48278571D01*
X71909707Y-48230952D01*
X71814469Y-48183333D01*
X71623992Y-48183333D01*
X71528754Y-48230952D01*
X71481135Y-48278571D01*
X71433516Y-48373809D01*
X46944871Y-55102380D02*
X46611538Y-54626190D01*
X46373442Y-55102380D02*
X46373442Y-54102380D01*
X46754395Y-54102380D01*
X46849633Y-54150000D01*
X46897252Y-54197619D01*
X46944871Y-54292857D01*
X46944871Y-54435714D01*
X46897252Y-54530952D01*
X46849633Y-54578571D01*
X46754395Y-54626190D01*
X46373442Y-54626190D01*
X47278204Y-54102380D02*
X47944871Y-54102380D01*
X47516299Y-55102380D01*
X60775640Y-55102380D02*
X60442307Y-54626190D01*
X60204211Y-55102380D02*
X60204211Y-54102380D01*
X60585164Y-54102380D01*
X60680402Y-54150000D01*
X60728021Y-54197619D01*
X60775640Y-54292857D01*
X60775640Y-54435714D01*
X60728021Y-54530952D01*
X60680402Y-54578571D01*
X60585164Y-54626190D01*
X60204211Y-54626190D01*
X61347068Y-54530952D02*
X61251830Y-54483333D01*
X61204211Y-54435714D01*
X61156592Y-54340476D01*
X61156592Y-54292857D01*
X61204211Y-54197619D01*
X61251830Y-54150000D01*
X61347068Y-54102380D01*
X61537545Y-54102380D01*
X61632783Y-54150000D01*
X61680402Y-54197619D01*
X61728021Y-54292857D01*
X61728021Y-54340476D01*
X61680402Y-54435714D01*
X61632783Y-54483333D01*
X61537545Y-54530952D01*
X61347068Y-54530952D01*
X61251830Y-54578571D01*
X61204211Y-54626190D01*
X61156592Y-54721428D01*
X61156592Y-54911904D01*
X61204211Y-55007142D01*
X61251830Y-55054761D01*
X61347068Y-55102380D01*
X61537545Y-55102380D01*
X61632783Y-55054761D01*
X61680402Y-55007142D01*
X61728021Y-54911904D01*
X61728021Y-54721428D01*
X61680402Y-54626190D01*
X61632783Y-54578571D01*
X61537545Y-54530952D01*
X74606409Y-55102380D02*
X74273076Y-54626190D01*
X74034980Y-55102380D02*
X74034980Y-54102380D01*
X74415933Y-54102380D01*
X74511171Y-54150000D01*
X74558790Y-54197619D01*
X74606409Y-54292857D01*
X74606409Y-54435714D01*
X74558790Y-54530952D01*
X74511171Y-54578571D01*
X74415933Y-54626190D01*
X74034980Y-54626190D01*
X75082599Y-55102380D02*
X75273076Y-55102380D01*
X75368314Y-55054761D01*
X75415933Y-55007142D01*
X75511171Y-54864285D01*
X75558790Y-54673809D01*
X75558790Y-54292857D01*
X75511171Y-54197619D01*
X75463552Y-54150000D01*
X75368314Y-54102380D01*
X75177837Y-54102380D01*
X75082599Y-54150000D01*
X75034980Y-54197619D01*
X74987361Y-54292857D01*
X74987361Y-54530952D01*
X75034980Y-54626190D01*
X75082599Y-54673809D01*
X75177837Y-54721428D01*
X75368314Y-54721428D01*
X75463552Y-54673809D01*
X75511171Y-54626190D01*
X75558790Y-54530952D01*
X88360987Y-55102380D02*
X88027654Y-54626190D01*
X87789559Y-55102380D02*
X87789559Y-54102380D01*
X88170511Y-54102380D01*
X88265749Y-54150000D01*
X88313368Y-54197619D01*
X88360987Y-54292857D01*
X88360987Y-54435714D01*
X88313368Y-54530952D01*
X88265749Y-54578571D01*
X88170511Y-54626190D01*
X87789559Y-54626190D01*
X89313368Y-55102380D02*
X88741940Y-55102380D01*
X89027654Y-55102380D02*
X89027654Y-54102380D01*
X88932416Y-54245238D01*
X88837178Y-54340476D01*
X88741940Y-54388095D01*
X89932416Y-54102380D02*
X90027654Y-54102380D01*
X90122892Y-54150000D01*
X90170511Y-54197619D01*
X90218130Y-54292857D01*
X90265749Y-54483333D01*
X90265749Y-54721428D01*
X90218130Y-54911904D01*
X90170511Y-55007142D01*
X90122892Y-55054761D01*
X90027654Y-55102380D01*
X89932416Y-55102380D01*
X89837178Y-55054761D01*
X89789559Y-55007142D01*
X89741940Y-54911904D01*
X89694321Y-54721428D01*
X89694321Y-54483333D01*
X89741940Y-54292857D01*
X89789559Y-54197619D01*
X89837178Y-54150000D01*
X89932416Y-54102380D01*
X102191756Y-55102380D02*
X101858423Y-54626190D01*
X101620328Y-55102380D02*
X101620328Y-54102380D01*
X102001280Y-54102380D01*
X102096518Y-54150000D01*
X102144137Y-54197619D01*
X102191756Y-54292857D01*
X102191756Y-54435714D01*
X102144137Y-54530952D01*
X102096518Y-54578571D01*
X102001280Y-54626190D01*
X101620328Y-54626190D01*
X103144137Y-55102380D02*
X102572709Y-55102380D01*
X102858423Y-55102380D02*
X102858423Y-54102380D01*
X102763185Y-54245238D01*
X102667947Y-54340476D01*
X102572709Y-54388095D01*
X104096518Y-55102380D02*
X103525090Y-55102380D01*
X103810804Y-55102380D02*
X103810804Y-54102380D01*
X103715566Y-54245238D01*
X103620328Y-54340476D01*
X103525090Y-54388095D01*
X116022525Y-55102380D02*
X115689192Y-54626190D01*
X115451097Y-55102380D02*
X115451097Y-54102380D01*
X115832049Y-54102380D01*
X115927287Y-54150000D01*
X115974906Y-54197619D01*
X116022525Y-54292857D01*
X116022525Y-54435714D01*
X115974906Y-54530952D01*
X115927287Y-54578571D01*
X115832049Y-54626190D01*
X115451097Y-54626190D01*
X116974906Y-55102380D02*
X116403478Y-55102380D01*
X116689192Y-55102380D02*
X116689192Y-54102380D01*
X116593954Y-54245238D01*
X116498716Y-54340476D01*
X116403478Y-54388095D01*
X117355859Y-54197619D02*
X117403478Y-54150000D01*
X117498716Y-54102380D01*
X117736811Y-54102380D01*
X117832049Y-54150000D01*
X117879668Y-54197619D01*
X117927287Y-54292857D01*
X117927287Y-54388095D01*
X117879668Y-54530952D01*
X117308240Y-55102380D01*
X117927287Y-55102380D01*
X140657142Y-50752380D02*
X140323809Y-50276190D01*
X140085714Y-50752380D02*
X140085714Y-49752380D01*
X140466666Y-49752380D01*
X140561904Y-49800000D01*
X140609523Y-49847619D01*
X140657142Y-49942857D01*
X140657142Y-50085714D01*
X140609523Y-50180952D01*
X140561904Y-50228571D01*
X140466666Y-50276190D01*
X140085714Y-50276190D01*
X141609523Y-50752380D02*
X141038095Y-50752380D01*
X141323809Y-50752380D02*
X141323809Y-49752380D01*
X141228571Y-49895238D01*
X141133333Y-49990476D01*
X141038095Y-50038095D01*
X141942857Y-49752380D02*
X142561904Y-49752380D01*
X142228571Y-50133333D01*
X142371428Y-50133333D01*
X142466666Y-50180952D01*
X142514285Y-50228571D01*
X142561904Y-50323809D01*
X142561904Y-50561904D01*
X142514285Y-50657142D01*
X142466666Y-50704761D01*
X142371428Y-50752380D01*
X142085714Y-50752380D01*
X141990476Y-50704761D01*
X141942857Y-50657142D01*
X168357142Y-50802380D02*
X168023809Y-50326190D01*
X167785714Y-50802380D02*
X167785714Y-49802380D01*
X168166666Y-49802380D01*
X168261904Y-49850000D01*
X168309523Y-49897619D01*
X168357142Y-49992857D01*
X168357142Y-50135714D01*
X168309523Y-50230952D01*
X168261904Y-50278571D01*
X168166666Y-50326190D01*
X167785714Y-50326190D01*
X169309523Y-50802380D02*
X168738095Y-50802380D01*
X169023809Y-50802380D02*
X169023809Y-49802380D01*
X168928571Y-49945238D01*
X168833333Y-50040476D01*
X168738095Y-50088095D01*
X170166666Y-50135714D02*
X170166666Y-50802380D01*
X169928571Y-49754761D02*
X169690476Y-50469047D01*
X170309523Y-50469047D01*
X129853294Y-55102380D02*
X129519961Y-54626190D01*
X129281866Y-55102380D02*
X129281866Y-54102380D01*
X129662818Y-54102380D01*
X129758056Y-54150000D01*
X129805675Y-54197619D01*
X129853294Y-54292857D01*
X129853294Y-54435714D01*
X129805675Y-54530952D01*
X129758056Y-54578571D01*
X129662818Y-54626190D01*
X129281866Y-54626190D01*
X130805675Y-55102380D02*
X130234247Y-55102380D01*
X130519961Y-55102380D02*
X130519961Y-54102380D01*
X130424723Y-54245238D01*
X130329485Y-54340476D01*
X130234247Y-54388095D01*
X131710437Y-54102380D02*
X131234247Y-54102380D01*
X131186628Y-54578571D01*
X131234247Y-54530952D01*
X131329485Y-54483333D01*
X131567580Y-54483333D01*
X131662818Y-54530952D01*
X131710437Y-54578571D01*
X131758056Y-54673809D01*
X131758056Y-54911904D01*
X131710437Y-55007142D01*
X131662818Y-55054761D01*
X131567580Y-55102380D01*
X131329485Y-55102380D01*
X131234247Y-55054761D01*
X131186628Y-55007142D01*
X143684063Y-55102380D02*
X143350730Y-54626190D01*
X143112635Y-55102380D02*
X143112635Y-54102380D01*
X143493587Y-54102380D01*
X143588825Y-54150000D01*
X143636444Y-54197619D01*
X143684063Y-54292857D01*
X143684063Y-54435714D01*
X143636444Y-54530952D01*
X143588825Y-54578571D01*
X143493587Y-54626190D01*
X143112635Y-54626190D01*
X144636444Y-55102380D02*
X144065016Y-55102380D01*
X144350730Y-55102380D02*
X144350730Y-54102380D01*
X144255492Y-54245238D01*
X144160254Y-54340476D01*
X144065016Y-54388095D01*
X145493587Y-54102380D02*
X145303111Y-54102380D01*
X145207873Y-54150000D01*
X145160254Y-54197619D01*
X145065016Y-54340476D01*
X145017397Y-54530952D01*
X145017397Y-54911904D01*
X145065016Y-55007142D01*
X145112635Y-55054761D01*
X145207873Y-55102380D01*
X145398349Y-55102380D01*
X145493587Y-55054761D01*
X145541206Y-55007142D01*
X145588825Y-54911904D01*
X145588825Y-54673809D01*
X145541206Y-54578571D01*
X145493587Y-54530952D01*
X145398349Y-54483333D01*
X145207873Y-54483333D01*
X145112635Y-54530952D01*
X145065016Y-54578571D01*
X145017397Y-54673809D01*
X157514832Y-55102380D02*
X157181499Y-54626190D01*
X156943404Y-55102380D02*
X156943404Y-54102380D01*
X157324356Y-54102380D01*
X157419594Y-54150000D01*
X157467213Y-54197619D01*
X157514832Y-54292857D01*
X157514832Y-54435714D01*
X157467213Y-54530952D01*
X157419594Y-54578571D01*
X157324356Y-54626190D01*
X156943404Y-54626190D01*
X158467213Y-55102380D02*
X157895785Y-55102380D01*
X158181499Y-55102380D02*
X158181499Y-54102380D01*
X158086261Y-54245238D01*
X157991023Y-54340476D01*
X157895785Y-54388095D01*
X158800547Y-54102380D02*
X159467213Y-54102380D01*
X159038642Y-55102380D01*
X171345601Y-55102380D02*
X171012268Y-54626190D01*
X170774173Y-55102380D02*
X170774173Y-54102380D01*
X171155125Y-54102380D01*
X171250363Y-54150000D01*
X171297982Y-54197619D01*
X171345601Y-54292857D01*
X171345601Y-54435714D01*
X171297982Y-54530952D01*
X171250363Y-54578571D01*
X171155125Y-54626190D01*
X170774173Y-54626190D01*
X172297982Y-55102380D02*
X171726554Y-55102380D01*
X172012268Y-55102380D02*
X172012268Y-54102380D01*
X171917030Y-54245238D01*
X171821792Y-54340476D01*
X171726554Y-54388095D01*
X172869411Y-54530952D02*
X172774173Y-54483333D01*
X172726554Y-54435714D01*
X172678935Y-54340476D01*
X172678935Y-54292857D01*
X172726554Y-54197619D01*
X172774173Y-54150000D01*
X172869411Y-54102380D01*
X173059887Y-54102380D01*
X173155125Y-54150000D01*
X173202744Y-54197619D01*
X173250363Y-54292857D01*
X173250363Y-54340476D01*
X173202744Y-54435714D01*
X173155125Y-54483333D01*
X173059887Y-54530952D01*
X172869411Y-54530952D01*
X172774173Y-54578571D01*
X172726554Y-54626190D01*
X172678935Y-54721428D01*
X172678935Y-54911904D01*
X172726554Y-55007142D01*
X172774173Y-55054761D01*
X172869411Y-55102380D01*
X173059887Y-55102380D01*
X173155125Y-55054761D01*
X173202744Y-55007142D01*
X173250363Y-54911904D01*
X173250363Y-54721428D01*
X173202744Y-54626190D01*
X173155125Y-54578571D01*
X173059887Y-54530952D01*
X185176370Y-55102380D02*
X184843037Y-54626190D01*
X184604942Y-55102380D02*
X184604942Y-54102380D01*
X184985894Y-54102380D01*
X185081132Y-54150000D01*
X185128751Y-54197619D01*
X185176370Y-54292857D01*
X185176370Y-54435714D01*
X185128751Y-54530952D01*
X185081132Y-54578571D01*
X184985894Y-54626190D01*
X184604942Y-54626190D01*
X186128751Y-55102380D02*
X185557323Y-55102380D01*
X185843037Y-55102380D02*
X185843037Y-54102380D01*
X185747799Y-54245238D01*
X185652561Y-54340476D01*
X185557323Y-54388095D01*
X186604942Y-55102380D02*
X186795418Y-55102380D01*
X186890656Y-55054761D01*
X186938275Y-55007142D01*
X187033513Y-54864285D01*
X187081132Y-54673809D01*
X187081132Y-54292857D01*
X187033513Y-54197619D01*
X186985894Y-54150000D01*
X186890656Y-54102380D01*
X186700180Y-54102380D01*
X186604942Y-54150000D01*
X186557323Y-54197619D01*
X186509704Y-54292857D01*
X186509704Y-54530952D01*
X186557323Y-54626190D01*
X186604942Y-54673809D01*
X186700180Y-54721428D01*
X186890656Y-54721428D01*
X186985894Y-54673809D01*
X187033513Y-54626190D01*
X187081132Y-54530952D01*
X199407142Y-55302380D02*
X199073809Y-54826190D01*
X198835714Y-55302380D02*
X198835714Y-54302380D01*
X199216666Y-54302380D01*
X199311904Y-54350000D01*
X199359523Y-54397619D01*
X199407142Y-54492857D01*
X199407142Y-54635714D01*
X199359523Y-54730952D01*
X199311904Y-54778571D01*
X199216666Y-54826190D01*
X198835714Y-54826190D01*
X199788095Y-54397619D02*
X199835714Y-54350000D01*
X199930952Y-54302380D01*
X200169047Y-54302380D01*
X200264285Y-54350000D01*
X200311904Y-54397619D01*
X200359523Y-54492857D01*
X200359523Y-54588095D01*
X200311904Y-54730952D01*
X199740476Y-55302380D01*
X200359523Y-55302380D01*
X200978571Y-54302380D02*
X201073809Y-54302380D01*
X201169047Y-54350000D01*
X201216666Y-54397619D01*
X201264285Y-54492857D01*
X201311904Y-54683333D01*
X201311904Y-54921428D01*
X201264285Y-55111904D01*
X201216666Y-55207142D01*
X201169047Y-55254761D01*
X201073809Y-55302380D01*
X200978571Y-55302380D01*
X200883333Y-55254761D01*
X200835714Y-55207142D01*
X200788095Y-55111904D01*
X200740476Y-54921428D01*
X200740476Y-54683333D01*
X200788095Y-54492857D01*
X200835714Y-54397619D01*
X200883333Y-54350000D01*
X200978571Y-54302380D01*
X91357142Y-42052380D02*
X91023809Y-41576190D01*
X90785714Y-42052380D02*
X90785714Y-41052380D01*
X91166666Y-41052380D01*
X91261904Y-41100000D01*
X91309523Y-41147619D01*
X91357142Y-41242857D01*
X91357142Y-41385714D01*
X91309523Y-41480952D01*
X91261904Y-41528571D01*
X91166666Y-41576190D01*
X90785714Y-41576190D01*
X91738095Y-41147619D02*
X91785714Y-41100000D01*
X91880952Y-41052380D01*
X92119047Y-41052380D01*
X92214285Y-41100000D01*
X92261904Y-41147619D01*
X92309523Y-41242857D01*
X92309523Y-41338095D01*
X92261904Y-41480952D01*
X91690476Y-42052380D01*
X92309523Y-42052380D01*
X93261904Y-42052380D02*
X92690476Y-42052380D01*
X92976190Y-42052380D02*
X92976190Y-41052380D01*
X92880952Y-41195238D01*
X92785714Y-41290476D01*
X92690476Y-41338095D01*
X51541428Y-45652380D02*
X51208095Y-45176190D01*
X50970000Y-45652380D02*
X50970000Y-44652380D01*
X51350952Y-44652380D01*
X51446190Y-44700000D01*
X51493809Y-44747619D01*
X51541428Y-44842857D01*
X51541428Y-44985714D01*
X51493809Y-45080952D01*
X51446190Y-45128571D01*
X51350952Y-45176190D01*
X50970000Y-45176190D01*
X51827143Y-44652380D02*
X52160476Y-45652380D01*
X52493809Y-44652380D01*
X53350952Y-45652380D02*
X52779524Y-45652380D01*
X53065238Y-45652380D02*
X53065238Y-44652380D01*
X52970000Y-44795238D01*
X52874762Y-44890476D01*
X52779524Y-44938095D01*
X62208094Y-45652380D02*
X61874761Y-45176190D01*
X61636666Y-45652380D02*
X61636666Y-44652380D01*
X62017618Y-44652380D01*
X62112856Y-44700000D01*
X62160475Y-44747619D01*
X62208094Y-44842857D01*
X62208094Y-44985714D01*
X62160475Y-45080952D01*
X62112856Y-45128571D01*
X62017618Y-45176190D01*
X61636666Y-45176190D01*
X62493809Y-44652380D02*
X62827142Y-45652380D01*
X63160475Y-44652380D01*
X63446190Y-44747619D02*
X63493809Y-44700000D01*
X63589047Y-44652380D01*
X63827142Y-44652380D01*
X63922380Y-44700000D01*
X63969999Y-44747619D01*
X64017618Y-44842857D01*
X64017618Y-44938095D01*
X63969999Y-45080952D01*
X63398571Y-45652380D01*
X64017618Y-45652380D01*
X93804761Y-50752380D02*
X93471428Y-50276190D01*
X93233333Y-50752380D02*
X93233333Y-49752380D01*
X93614285Y-49752380D01*
X93709523Y-49800000D01*
X93757142Y-49847619D01*
X93804761Y-49942857D01*
X93804761Y-50085714D01*
X93757142Y-50180952D01*
X93709523Y-50228571D01*
X93614285Y-50276190D01*
X93233333Y-50276190D01*
X94090476Y-49752380D02*
X94423809Y-50752380D01*
X94757142Y-49752380D01*
X94995238Y-49752380D02*
X95614285Y-49752380D01*
X95280952Y-50133333D01*
X95423809Y-50133333D01*
X95519047Y-50180952D01*
X95566666Y-50228571D01*
X95614285Y-50323809D01*
X95614285Y-50561904D01*
X95566666Y-50657142D01*
X95519047Y-50704761D01*
X95423809Y-50752380D01*
X95138095Y-50752380D01*
X95042857Y-50704761D01*
X94995238Y-50657142D01*
X135208094Y-50752380D02*
X134874761Y-50276190D01*
X134636666Y-50752380D02*
X134636666Y-49752380D01*
X135017618Y-49752380D01*
X135112856Y-49800000D01*
X135160475Y-49847619D01*
X135208094Y-49942857D01*
X135208094Y-50085714D01*
X135160475Y-50180952D01*
X135112856Y-50228571D01*
X135017618Y-50276190D01*
X134636666Y-50276190D01*
X135493809Y-49752380D02*
X135827142Y-50752380D01*
X136160475Y-49752380D01*
X136922380Y-50085714D02*
X136922380Y-50752380D01*
X136684285Y-49704761D02*
X136446190Y-50419047D01*
X137065237Y-50419047D01*
X162874761Y-50752380D02*
X162541428Y-50276190D01*
X162303333Y-50752380D02*
X162303333Y-49752380D01*
X162684285Y-49752380D01*
X162779523Y-49800000D01*
X162827142Y-49847619D01*
X162874761Y-49942857D01*
X162874761Y-50085714D01*
X162827142Y-50180952D01*
X162779523Y-50228571D01*
X162684285Y-50276190D01*
X162303333Y-50276190D01*
X163160476Y-49752380D02*
X163493809Y-50752380D01*
X163827142Y-49752380D01*
X164636666Y-49752380D02*
X164160476Y-49752380D01*
X164112857Y-50228571D01*
X164160476Y-50180952D01*
X164255714Y-50133333D01*
X164493809Y-50133333D01*
X164589047Y-50180952D01*
X164636666Y-50228571D01*
X164684285Y-50323809D01*
X164684285Y-50561904D01*
X164636666Y-50657142D01*
X164589047Y-50704761D01*
X164493809Y-50752380D01*
X164255714Y-50752380D01*
X164160476Y-50704761D01*
X164112857Y-50657142D01*
X37604762Y-54052380D02*
X37604762Y-54861904D01*
X37652381Y-54957142D01*
X37700000Y-55004761D01*
X37795238Y-55052380D01*
X37985714Y-55052380D01*
X38080952Y-55004761D01*
X38128571Y-54957142D01*
X38176190Y-54861904D01*
X38176190Y-54052380D01*
X38557143Y-54052380D02*
X39176190Y-54052380D01*
X38842857Y-54433333D01*
X38985714Y-54433333D01*
X39080952Y-54480952D01*
X39128571Y-54528571D01*
X39176190Y-54623809D01*
X39176190Y-54861904D01*
X39128571Y-54957142D01*
X39080952Y-55004761D01*
X38985714Y-55052380D01*
X38700000Y-55052380D01*
X38604762Y-55004761D01*
X38557143Y-54957142D01*
X51438095Y-54052380D02*
X51438095Y-54861904D01*
X51485714Y-54957142D01*
X51533333Y-55004761D01*
X51628571Y-55052380D01*
X51819047Y-55052380D01*
X51914285Y-55004761D01*
X51961904Y-54957142D01*
X52009523Y-54861904D01*
X52009523Y-54052380D01*
X52914285Y-54385714D02*
X52914285Y-55052380D01*
X52676190Y-54004761D02*
X52438095Y-54719047D01*
X53057142Y-54719047D01*
X65271428Y-54052380D02*
X65271428Y-54861904D01*
X65319047Y-54957142D01*
X65366666Y-55004761D01*
X65461904Y-55052380D01*
X65652380Y-55052380D01*
X65747618Y-55004761D01*
X65795237Y-54957142D01*
X65842856Y-54861904D01*
X65842856Y-54052380D01*
X66795237Y-54052380D02*
X66319047Y-54052380D01*
X66271428Y-54528571D01*
X66319047Y-54480952D01*
X66414285Y-54433333D01*
X66652380Y-54433333D01*
X66747618Y-54480952D01*
X66795237Y-54528571D01*
X66842856Y-54623809D01*
X66842856Y-54861904D01*
X66795237Y-54957142D01*
X66747618Y-55004761D01*
X66652380Y-55052380D01*
X66414285Y-55052380D01*
X66319047Y-55004761D01*
X66271428Y-54957142D01*
X79104762Y-54052380D02*
X79104762Y-54861904D01*
X79152381Y-54957142D01*
X79200000Y-55004761D01*
X79295238Y-55052380D01*
X79485714Y-55052380D01*
X79580952Y-55004761D01*
X79628571Y-54957142D01*
X79676190Y-54861904D01*
X79676190Y-54052380D01*
X80580952Y-54052380D02*
X80390476Y-54052380D01*
X80295238Y-54100000D01*
X80247619Y-54147619D01*
X80152381Y-54290476D01*
X80104762Y-54480952D01*
X80104762Y-54861904D01*
X80152381Y-54957142D01*
X80200000Y-55004761D01*
X80295238Y-55052380D01*
X80485714Y-55052380D01*
X80580952Y-55004761D01*
X80628571Y-54957142D01*
X80676190Y-54861904D01*
X80676190Y-54623809D01*
X80628571Y-54528571D01*
X80580952Y-54480952D01*
X80485714Y-54433333D01*
X80295238Y-54433333D01*
X80200000Y-54480952D01*
X80152381Y-54528571D01*
X80104762Y-54623809D01*
X92938095Y-54052380D02*
X92938095Y-54861904D01*
X92985714Y-54957142D01*
X93033333Y-55004761D01*
X93128571Y-55052380D01*
X93319047Y-55052380D01*
X93414285Y-55004761D01*
X93461904Y-54957142D01*
X93509523Y-54861904D01*
X93509523Y-54052380D01*
X93890476Y-54052380D02*
X94557142Y-54052380D01*
X94128571Y-55052380D01*
X104288095Y-54502380D02*
X104288095Y-55311904D01*
X104335714Y-55407142D01*
X104383333Y-55454761D01*
X104478571Y-55502380D01*
X104669047Y-55502380D01*
X104764285Y-55454761D01*
X104811904Y-55407142D01*
X104859523Y-55311904D01*
X104859523Y-54502380D01*
X105478571Y-54930952D02*
X105383333Y-54883333D01*
X105335714Y-54835714D01*
X105288095Y-54740476D01*
X105288095Y-54692857D01*
X105335714Y-54597619D01*
X105383333Y-54550000D01*
X105478571Y-54502380D01*
X105669047Y-54502380D01*
X105764285Y-54550000D01*
X105811904Y-54597619D01*
X105859523Y-54692857D01*
X105859523Y-54740476D01*
X105811904Y-54835714D01*
X105764285Y-54883333D01*
X105669047Y-54930952D01*
X105478571Y-54930952D01*
X105383333Y-54978571D01*
X105335714Y-55026190D01*
X105288095Y-55121428D01*
X105288095Y-55311904D01*
X105335714Y-55407142D01*
X105383333Y-55454761D01*
X105478571Y-55502380D01*
X105669047Y-55502380D01*
X105764285Y-55454761D01*
X105811904Y-55407142D01*
X105859523Y-55311904D01*
X105859523Y-55121428D01*
X105811904Y-55026190D01*
X105764285Y-54978571D01*
X105669047Y-54930952D01*
X120604762Y-54052380D02*
X120604762Y-54861904D01*
X120652381Y-54957142D01*
X120700000Y-55004761D01*
X120795238Y-55052380D01*
X120985714Y-55052380D01*
X121080952Y-55004761D01*
X121128571Y-54957142D01*
X121176190Y-54861904D01*
X121176190Y-54052380D01*
X121700000Y-55052380D02*
X121890476Y-55052380D01*
X121985714Y-55004761D01*
X122033333Y-54957142D01*
X122128571Y-54814285D01*
X122176190Y-54623809D01*
X122176190Y-54242857D01*
X122128571Y-54147619D01*
X122080952Y-54100000D01*
X121985714Y-54052380D01*
X121795238Y-54052380D01*
X121700000Y-54100000D01*
X121652381Y-54147619D01*
X121604762Y-54242857D01*
X121604762Y-54480952D01*
X121652381Y-54576190D01*
X121700000Y-54623809D01*
X121795238Y-54671428D01*
X121985714Y-54671428D01*
X122080952Y-54623809D01*
X122128571Y-54576190D01*
X122176190Y-54480952D01*
X133961904Y-54052380D02*
X133961904Y-54861904D01*
X134009523Y-54957142D01*
X134057142Y-55004761D01*
X134152380Y-55052380D01*
X134342857Y-55052380D01*
X134438095Y-55004761D01*
X134485714Y-54957142D01*
X134533333Y-54861904D01*
X134533333Y-54052380D01*
X135533333Y-55052380D02*
X134961904Y-55052380D01*
X135247619Y-55052380D02*
X135247619Y-54052380D01*
X135152380Y-54195238D01*
X135057142Y-54290476D01*
X134961904Y-54338095D01*
X136152380Y-54052380D02*
X136247619Y-54052380D01*
X136342857Y-54100000D01*
X136390476Y-54147619D01*
X136438095Y-54242857D01*
X136485714Y-54433333D01*
X136485714Y-54671428D01*
X136438095Y-54861904D01*
X136390476Y-54957142D01*
X136342857Y-55004761D01*
X136247619Y-55052380D01*
X136152380Y-55052380D01*
X136057142Y-55004761D01*
X136009523Y-54957142D01*
X135961904Y-54861904D01*
X135914285Y-54671428D01*
X135914285Y-54433333D01*
X135961904Y-54242857D01*
X136009523Y-54147619D01*
X136057142Y-54100000D01*
X136152380Y-54052380D01*
X147795237Y-54052380D02*
X147795237Y-54861904D01*
X147842856Y-54957142D01*
X147890475Y-55004761D01*
X147985713Y-55052380D01*
X148176190Y-55052380D01*
X148271428Y-55004761D01*
X148319047Y-54957142D01*
X148366666Y-54861904D01*
X148366666Y-54052380D01*
X149366666Y-55052380D02*
X148795237Y-55052380D01*
X149080952Y-55052380D02*
X149080952Y-54052380D01*
X148985713Y-54195238D01*
X148890475Y-54290476D01*
X148795237Y-54338095D01*
X150319047Y-55052380D02*
X149747618Y-55052380D01*
X150033333Y-55052380D02*
X150033333Y-54052380D01*
X149938094Y-54195238D01*
X149842856Y-54290476D01*
X149747618Y-54338095D01*
X161628571Y-54052380D02*
X161628571Y-54861904D01*
X161676190Y-54957142D01*
X161723809Y-55004761D01*
X161819047Y-55052380D01*
X162009524Y-55052380D01*
X162104762Y-55004761D01*
X162152381Y-54957142D01*
X162200000Y-54861904D01*
X162200000Y-54052380D01*
X163200000Y-55052380D02*
X162628571Y-55052380D01*
X162914286Y-55052380D02*
X162914286Y-54052380D01*
X162819047Y-54195238D01*
X162723809Y-54290476D01*
X162628571Y-54338095D01*
X163580952Y-54147619D02*
X163628571Y-54100000D01*
X163723809Y-54052380D01*
X163961905Y-54052380D01*
X164057143Y-54100000D01*
X164104762Y-54147619D01*
X164152381Y-54242857D01*
X164152381Y-54338095D01*
X164104762Y-54480952D01*
X163533333Y-55052380D01*
X164152381Y-55052380D01*
X175461904Y-54052380D02*
X175461904Y-54861904D01*
X175509523Y-54957142D01*
X175557142Y-55004761D01*
X175652380Y-55052380D01*
X175842857Y-55052380D01*
X175938095Y-55004761D01*
X175985714Y-54957142D01*
X176033333Y-54861904D01*
X176033333Y-54052380D01*
X177033333Y-55052380D02*
X176461904Y-55052380D01*
X176747619Y-55052380D02*
X176747619Y-54052380D01*
X176652380Y-54195238D01*
X176557142Y-54290476D01*
X176461904Y-54338095D01*
X177366666Y-54052380D02*
X177985714Y-54052380D01*
X177652380Y-54433333D01*
X177795238Y-54433333D01*
X177890476Y-54480952D01*
X177938095Y-54528571D01*
X177985714Y-54623809D01*
X177985714Y-54861904D01*
X177938095Y-54957142D01*
X177890476Y-55004761D01*
X177795238Y-55052380D01*
X177509523Y-55052380D01*
X177414285Y-55004761D01*
X177366666Y-54957142D01*
X189295237Y-54052380D02*
X189295237Y-54861904D01*
X189342856Y-54957142D01*
X189390475Y-55004761D01*
X189485713Y-55052380D01*
X189676190Y-55052380D01*
X189771428Y-55004761D01*
X189819047Y-54957142D01*
X189866666Y-54861904D01*
X189866666Y-54052380D01*
X190866666Y-55052380D02*
X190295237Y-55052380D01*
X190580952Y-55052380D02*
X190580952Y-54052380D01*
X190485713Y-54195238D01*
X190390475Y-54290476D01*
X190295237Y-54338095D01*
X191723809Y-54385714D02*
X191723809Y-55052380D01*
X191485713Y-54004761D02*
X191247618Y-54719047D01*
X191866666Y-54719047D01*
X203128571Y-54052380D02*
X203128571Y-54861904D01*
X203176190Y-54957142D01*
X203223809Y-55004761D01*
X203319047Y-55052380D01*
X203509524Y-55052380D01*
X203604762Y-55004761D01*
X203652381Y-54957142D01*
X203700000Y-54861904D01*
X203700000Y-54052380D01*
X204700000Y-55052380D02*
X204128571Y-55052380D01*
X204414286Y-55052380D02*
X204414286Y-54052380D01*
X204319047Y-54195238D01*
X204223809Y-54290476D01*
X204128571Y-54338095D01*
X205604762Y-54052380D02*
X205128571Y-54052380D01*
X205080952Y-54528571D01*
X205128571Y-54480952D01*
X205223809Y-54433333D01*
X205461905Y-54433333D01*
X205557143Y-54480952D01*
X205604762Y-54528571D01*
X205652381Y-54623809D01*
X205652381Y-54861904D01*
X205604762Y-54957142D01*
X205557143Y-55004761D01*
X205461905Y-55052380D01*
X205223809Y-55052380D01*
X205128571Y-55004761D01*
X205080952Y-54957142D01*
X94861904Y-44352380D02*
X94861904Y-45161904D01*
X94909523Y-45257142D01*
X94957142Y-45304761D01*
X95052380Y-45352380D01*
X95242857Y-45352380D01*
X95338095Y-45304761D01*
X95385714Y-45257142D01*
X95433333Y-45161904D01*
X95433333Y-44352380D01*
X96433333Y-45352380D02*
X95861904Y-45352380D01*
X96147619Y-45352380D02*
X96147619Y-44352380D01*
X96052380Y-44495238D01*
X95957142Y-44590476D01*
X95861904Y-44638095D01*
X96766666Y-44352380D02*
X97433333Y-44352380D01*
X97004761Y-45352380D01*
X110257142Y-42657142D02*
X110209523Y-42704761D01*
X110066666Y-42752380D01*
X109971428Y-42752380D01*
X109828571Y-42704761D01*
X109733333Y-42609523D01*
X109685714Y-42514285D01*
X109638095Y-42323809D01*
X109638095Y-42180952D01*
X109685714Y-41990476D01*
X109733333Y-41895238D01*
X109828571Y-41800000D01*
X109971428Y-41752380D01*
X110066666Y-41752380D01*
X110209523Y-41800000D01*
X110257142Y-41847619D01*
X111209523Y-42752380D02*
X110638095Y-42752380D01*
X110923809Y-42752380D02*
X110923809Y-41752380D01*
X110828571Y-41895238D01*
X110733333Y-41990476D01*
X110638095Y-42038095D01*
X112066666Y-41752380D02*
X111876190Y-41752380D01*
X111780952Y-41800000D01*
X111733333Y-41847619D01*
X111638095Y-41990476D01*
X111590476Y-42180952D01*
X111590476Y-42561904D01*
X111638095Y-42657142D01*
X111685714Y-42704761D01*
X111780952Y-42752380D01*
X111971428Y-42752380D01*
X112066666Y-42704761D01*
X112114285Y-42657142D01*
X112161904Y-42561904D01*
X112161904Y-42323809D01*
X112114285Y-42228571D01*
X112066666Y-42180952D01*
X111971428Y-42133333D01*
X111780952Y-42133333D01*
X111685714Y-42180952D01*
X111638095Y-42228571D01*
X111590476Y-42323809D01*
X101457142Y-50657142D02*
X101409523Y-50704761D01*
X101266666Y-50752380D01*
X101171428Y-50752380D01*
X101028571Y-50704761D01*
X100933333Y-50609523D01*
X100885714Y-50514285D01*
X100838095Y-50323809D01*
X100838095Y-50180952D01*
X100885714Y-49990476D01*
X100933333Y-49895238D01*
X101028571Y-49800000D01*
X101171428Y-49752380D01*
X101266666Y-49752380D01*
X101409523Y-49800000D01*
X101457142Y-49847619D01*
X102409523Y-50752380D02*
X101838095Y-50752380D01*
X102123809Y-50752380D02*
X102123809Y-49752380D01*
X102028571Y-49895238D01*
X101933333Y-49990476D01*
X101838095Y-50038095D01*
X102742857Y-49752380D02*
X103409523Y-49752380D01*
X102980952Y-50752380D01*
X113557142Y-50457142D02*
X113509523Y-50504761D01*
X113366666Y-50552380D01*
X113271428Y-50552380D01*
X113128571Y-50504761D01*
X113033333Y-50409523D01*
X112985714Y-50314285D01*
X112938095Y-50123809D01*
X112938095Y-49980952D01*
X112985714Y-49790476D01*
X113033333Y-49695238D01*
X113128571Y-49600000D01*
X113271428Y-49552380D01*
X113366666Y-49552380D01*
X113509523Y-49600000D01*
X113557142Y-49647619D01*
X114509523Y-50552380D02*
X113938095Y-50552380D01*
X114223809Y-50552380D02*
X114223809Y-49552380D01*
X114128571Y-49695238D01*
X114033333Y-49790476D01*
X113938095Y-49838095D01*
X115080952Y-49980952D02*
X114985714Y-49933333D01*
X114938095Y-49885714D01*
X114890476Y-49790476D01*
X114890476Y-49742857D01*
X114938095Y-49647619D01*
X114985714Y-49600000D01*
X115080952Y-49552380D01*
X115271428Y-49552380D01*
X115366666Y-49600000D01*
X115414285Y-49647619D01*
X115461904Y-49742857D01*
X115461904Y-49790476D01*
X115414285Y-49885714D01*
X115366666Y-49933333D01*
X115271428Y-49980952D01*
X115080952Y-49980952D01*
X114985714Y-50028571D01*
X114938095Y-50076190D01*
X114890476Y-50171428D01*
X114890476Y-50361904D01*
X114938095Y-50457142D01*
X114985714Y-50504761D01*
X115080952Y-50552380D01*
X115271428Y-50552380D01*
X115366666Y-50504761D01*
X115414285Y-50457142D01*
X115461904Y-50361904D01*
X115461904Y-50171428D01*
X115414285Y-50076190D01*
X115366666Y-50028571D01*
X115271428Y-49980952D01*
X101057142Y-42657142D02*
X101009523Y-42704761D01*
X100866666Y-42752380D01*
X100771428Y-42752380D01*
X100628571Y-42704761D01*
X100533333Y-42609523D01*
X100485714Y-42514285D01*
X100438095Y-42323809D01*
X100438095Y-42180952D01*
X100485714Y-41990476D01*
X100533333Y-41895238D01*
X100628571Y-41800000D01*
X100771428Y-41752380D01*
X100866666Y-41752380D01*
X101009523Y-41800000D01*
X101057142Y-41847619D01*
X102009523Y-42752380D02*
X101438095Y-42752380D01*
X101723809Y-42752380D02*
X101723809Y-41752380D01*
X101628571Y-41895238D01*
X101533333Y-41990476D01*
X101438095Y-42038095D01*
X102485714Y-42752380D02*
X102676190Y-42752380D01*
X102771428Y-42704761D01*
X102819047Y-42657142D01*
X102914285Y-42514285D01*
X102961904Y-42323809D01*
X102961904Y-41942857D01*
X102914285Y-41847619D01*
X102866666Y-41800000D01*
X102771428Y-41752380D01*
X102580952Y-41752380D01*
X102485714Y-41800000D01*
X102438095Y-41847619D01*
X102390476Y-41942857D01*
X102390476Y-42180952D01*
X102438095Y-42276190D01*
X102485714Y-42323809D01*
X102580952Y-42371428D01*
X102771428Y-42371428D01*
X102866666Y-42323809D01*
X102914285Y-42276190D01*
X102961904Y-42180952D01*
X104061904Y-42952380D02*
X104061904Y-43761904D01*
X104109523Y-43857142D01*
X104157142Y-43904761D01*
X104252380Y-43952380D01*
X104442857Y-43952380D01*
X104538095Y-43904761D01*
X104585714Y-43857142D01*
X104633333Y-43761904D01*
X104633333Y-42952380D01*
X105633333Y-43952380D02*
X105061904Y-43952380D01*
X105347619Y-43952380D02*
X105347619Y-42952380D01*
X105252380Y-43095238D01*
X105157142Y-43190476D01*
X105061904Y-43238095D01*
X106490476Y-42952380D02*
X106300000Y-42952380D01*
X106204761Y-43000000D01*
X106157142Y-43047619D01*
X106061904Y-43190476D01*
X106014285Y-43380952D01*
X106014285Y-43761904D01*
X106061904Y-43857142D01*
X106109523Y-43904761D01*
X106204761Y-43952380D01*
X106395238Y-43952380D01*
X106490476Y-43904761D01*
X106538095Y-43857142D01*
X106585714Y-43761904D01*
X106585714Y-43523809D01*
X106538095Y-43428571D01*
X106490476Y-43380952D01*
X106395238Y-43333333D01*
X106204761Y-43333333D01*
X106109523Y-43380952D01*
X106061904Y-43428571D01*
X106014285Y-43523809D01*
X34238095Y-32252380D02*
X34238095Y-31252380D01*
X34238095Y-31728571D02*
X34809523Y-31728571D01*
X34809523Y-32252380D02*
X34809523Y-31252380D01*
X35809523Y-32252380D02*
X35238095Y-32252380D01*
X35523809Y-32252380D02*
X35523809Y-31252380D01*
X35428571Y-31395238D01*
X35333333Y-31490476D01*
X35238095Y-31538095D01*
X34238095Y-47252380D02*
X34238095Y-46252380D01*
X34238095Y-46728571D02*
X34809523Y-46728571D01*
X34809523Y-47252380D02*
X34809523Y-46252380D01*
X35238095Y-46347619D02*
X35285714Y-46300000D01*
X35380952Y-46252380D01*
X35619047Y-46252380D01*
X35714285Y-46300000D01*
X35761904Y-46347619D01*
X35809523Y-46442857D01*
X35809523Y-46538095D01*
X35761904Y-46680952D01*
X35190476Y-47252380D01*
X35809523Y-47252380D01*
X179238095Y-37252380D02*
X179238095Y-36252380D01*
X179238095Y-36728571D02*
X179809523Y-36728571D01*
X179809523Y-37252380D02*
X179809523Y-36252380D01*
X180714285Y-36252380D02*
X180523809Y-36252380D01*
X180428571Y-36300000D01*
X180380952Y-36347619D01*
X180285714Y-36490476D01*
X180238095Y-36680952D01*
X180238095Y-37061904D01*
X180285714Y-37157142D01*
X180333333Y-37204761D01*
X180428571Y-37252380D01*
X180619047Y-37252380D01*
X180714285Y-37204761D01*
X180761904Y-37157142D01*
X180809523Y-37061904D01*
X180809523Y-36823809D01*
X180761904Y-36728571D01*
X180714285Y-36680952D01*
X180619047Y-36633333D01*
X180428571Y-36633333D01*
X180333333Y-36680952D01*
X180285714Y-36728571D01*
X180238095Y-36823809D01*
X59238095Y-37252380D02*
X59238095Y-36252380D01*
X59238095Y-36728571D02*
X59809523Y-36728571D01*
X59809523Y-37252380D02*
X59809523Y-36252380D01*
X60761904Y-36252380D02*
X60285714Y-36252380D01*
X60238095Y-36728571D01*
X60285714Y-36680952D01*
X60380952Y-36633333D01*
X60619047Y-36633333D01*
X60714285Y-36680952D01*
X60761904Y-36728571D01*
X60809523Y-36823809D01*
X60809523Y-37061904D01*
X60761904Y-37157142D01*
X60714285Y-37204761D01*
X60619047Y-37252380D01*
X60380952Y-37252380D01*
X60285714Y-37204761D01*
X60238095Y-37157142D01*
X204238095Y-32252380D02*
X204238095Y-31252380D01*
X204238095Y-31728571D02*
X204809523Y-31728571D01*
X204809523Y-32252380D02*
X204809523Y-31252380D01*
X205190476Y-31252380D02*
X205809523Y-31252380D01*
X205476190Y-31633333D01*
X205619047Y-31633333D01*
X205714285Y-31680952D01*
X205761904Y-31728571D01*
X205809523Y-31823809D01*
X205809523Y-32061904D01*
X205761904Y-32157142D01*
X205714285Y-32204761D01*
X205619047Y-32252380D01*
X205333333Y-32252380D01*
X205238095Y-32204761D01*
X205190476Y-32157142D01*
X204238095Y-47252380D02*
X204238095Y-46252380D01*
X204238095Y-46728571D02*
X204809523Y-46728571D01*
X204809523Y-47252380D02*
X204809523Y-46252380D01*
X205714285Y-46585714D02*
X205714285Y-47252380D01*
X205476190Y-46204761D02*
X205238095Y-46919047D01*
X205857142Y-46919047D01*
X190666666Y-35552380D02*
X190666666Y-36266666D01*
X190619047Y-36409523D01*
X190523809Y-36504761D01*
X190380952Y-36552380D01*
X190285714Y-36552380D01*
X191619047Y-35552380D02*
X191142857Y-35552380D01*
X191095238Y-36028571D01*
X191142857Y-35980952D01*
X191238095Y-35933333D01*
X191476190Y-35933333D01*
X191571428Y-35980952D01*
X191619047Y-36028571D01*
X191666666Y-36123809D01*
X191666666Y-36361904D01*
X191619047Y-36457142D01*
X191571428Y-36504761D01*
X191476190Y-36552380D01*
X191238095Y-36552380D01*
X191142857Y-36504761D01*
X191095238Y-36457142D01*
X71766666Y-43262380D02*
X71766666Y-43976666D01*
X71719047Y-44119523D01*
X71623809Y-44214761D01*
X71480952Y-44262380D01*
X71385714Y-44262380D01*
X72671428Y-43262380D02*
X72480952Y-43262380D01*
X72385714Y-43310000D01*
X72338095Y-43357619D01*
X72242857Y-43500476D01*
X72195238Y-43690952D01*
X72195238Y-44071904D01*
X72242857Y-44167142D01*
X72290476Y-44214761D01*
X72385714Y-44262380D01*
X72576190Y-44262380D01*
X72671428Y-44214761D01*
X72719047Y-44167142D01*
X72766666Y-44071904D01*
X72766666Y-43833809D01*
X72719047Y-43738571D01*
X72671428Y-43690952D01*
X72576190Y-43643333D01*
X72385714Y-43643333D01*
X72290476Y-43690952D01*
X72242857Y-43738571D01*
X72195238Y-43833809D01*
X83766666Y-43262380D02*
X83766666Y-43976666D01*
X83719047Y-44119523D01*
X83623809Y-44214761D01*
X83480952Y-44262380D01*
X83385714Y-44262380D01*
X84147619Y-43262380D02*
X84814285Y-43262380D01*
X84385714Y-44262380D01*
M02*
