G04 #@! TF.GenerationSoftware,KiCad,Pcbnew,(5.1.2)-2*
G04 #@! TF.CreationDate,2019-07-30T15:23:27+02:00*
G04 #@! TF.ProjectId,sensor_array_13_sensors,73656e73-6f72-45f6-9172-7261795f3133,1*
G04 #@! TF.SameCoordinates,Original*
G04 #@! TF.FileFunction,Soldermask,Bot*
G04 #@! TF.FilePolarity,Negative*
%FSLAX46Y46*%
G04 Gerber Fmt 4.6, Leading zero omitted, Abs format (unit mm)*
G04 Created by KiCad (PCBNEW (5.1.2)-2) date 2019-07-30 15:23:27*
%MOMM*%
%LPD*%
G04 APERTURE LIST*
%ADD10C,0.100000*%
G04 APERTURE END LIST*
D10*
G36*
X35275880Y-47759776D02*
G01*
X35656593Y-47835504D01*
X36066249Y-48005189D01*
X36434929Y-48251534D01*
X36748466Y-48565071D01*
X36994811Y-48933751D01*
X37164496Y-49343407D01*
X37251000Y-49778296D01*
X37251000Y-50221704D01*
X37164496Y-50656593D01*
X36994811Y-51066249D01*
X36748466Y-51434929D01*
X36434929Y-51748466D01*
X36066249Y-51994811D01*
X35656593Y-52164496D01*
X35275880Y-52240224D01*
X35221705Y-52251000D01*
X34778295Y-52251000D01*
X34724120Y-52240224D01*
X34343407Y-52164496D01*
X33933751Y-51994811D01*
X33565071Y-51748466D01*
X33251534Y-51434929D01*
X33005189Y-51066249D01*
X32835504Y-50656593D01*
X32749000Y-50221704D01*
X32749000Y-49778296D01*
X32835504Y-49343407D01*
X33005189Y-48933751D01*
X33251534Y-48565071D01*
X33565071Y-48251534D01*
X33933751Y-48005189D01*
X34343407Y-47835504D01*
X34724120Y-47759776D01*
X34778295Y-47749000D01*
X35221705Y-47749000D01*
X35275880Y-47759776D01*
X35275880Y-47759776D01*
G37*
G36*
X205275880Y-47759776D02*
G01*
X205656593Y-47835504D01*
X206066249Y-48005189D01*
X206434929Y-48251534D01*
X206748466Y-48565071D01*
X206994811Y-48933751D01*
X207164496Y-49343407D01*
X207251000Y-49778296D01*
X207251000Y-50221704D01*
X207164496Y-50656593D01*
X206994811Y-51066249D01*
X206748466Y-51434929D01*
X206434929Y-51748466D01*
X206066249Y-51994811D01*
X205656593Y-52164496D01*
X205275880Y-52240224D01*
X205221705Y-52251000D01*
X204778295Y-52251000D01*
X204724120Y-52240224D01*
X204343407Y-52164496D01*
X203933751Y-51994811D01*
X203565071Y-51748466D01*
X203251534Y-51434929D01*
X203005189Y-51066249D01*
X202835504Y-50656593D01*
X202749000Y-50221704D01*
X202749000Y-49778296D01*
X202835504Y-49343407D01*
X203005189Y-48933751D01*
X203251534Y-48565071D01*
X203565071Y-48251534D01*
X203933751Y-48005189D01*
X204343407Y-47835504D01*
X204724120Y-47759776D01*
X204778295Y-47749000D01*
X205221705Y-47749000D01*
X205275880Y-47759776D01*
X205275880Y-47759776D01*
G37*
G36*
X180275880Y-37759776D02*
G01*
X180656593Y-37835504D01*
X181066249Y-38005189D01*
X181434929Y-38251534D01*
X181748466Y-38565071D01*
X181994811Y-38933751D01*
X182164496Y-39343407D01*
X182251000Y-39778296D01*
X182251000Y-40221704D01*
X182164496Y-40656593D01*
X181994811Y-41066249D01*
X181748466Y-41434929D01*
X181434929Y-41748466D01*
X181066249Y-41994811D01*
X180656593Y-42164496D01*
X180275880Y-42240224D01*
X180221705Y-42251000D01*
X179778295Y-42251000D01*
X179724120Y-42240224D01*
X179343407Y-42164496D01*
X178933751Y-41994811D01*
X178565071Y-41748466D01*
X178251534Y-41434929D01*
X178005189Y-41066249D01*
X177835504Y-40656593D01*
X177749000Y-40221704D01*
X177749000Y-39778296D01*
X177835504Y-39343407D01*
X178005189Y-38933751D01*
X178251534Y-38565071D01*
X178565071Y-38251534D01*
X178933751Y-38005189D01*
X179343407Y-37835504D01*
X179724120Y-37759776D01*
X179778295Y-37749000D01*
X180221705Y-37749000D01*
X180275880Y-37759776D01*
X180275880Y-37759776D01*
G37*
G36*
X60275880Y-37759776D02*
G01*
X60656593Y-37835504D01*
X61066249Y-38005189D01*
X61434929Y-38251534D01*
X61748466Y-38565071D01*
X61994811Y-38933751D01*
X62164496Y-39343407D01*
X62251000Y-39778296D01*
X62251000Y-40221704D01*
X62164496Y-40656593D01*
X61994811Y-41066249D01*
X61748466Y-41434929D01*
X61434929Y-41748466D01*
X61066249Y-41994811D01*
X60656593Y-42164496D01*
X60275880Y-42240224D01*
X60221705Y-42251000D01*
X59778295Y-42251000D01*
X59724120Y-42240224D01*
X59343407Y-42164496D01*
X58933751Y-41994811D01*
X58565071Y-41748466D01*
X58251534Y-41434929D01*
X58005189Y-41066249D01*
X57835504Y-40656593D01*
X57749000Y-40221704D01*
X57749000Y-39778296D01*
X57835504Y-39343407D01*
X58005189Y-38933751D01*
X58251534Y-38565071D01*
X58565071Y-38251534D01*
X58933751Y-38005189D01*
X59343407Y-37835504D01*
X59724120Y-37759776D01*
X59778295Y-37749000D01*
X60221705Y-37749000D01*
X60275880Y-37759776D01*
X60275880Y-37759776D01*
G37*
G36*
X189490442Y-40405518D02*
G01*
X189556627Y-40412037D01*
X189726466Y-40463557D01*
X189882991Y-40547222D01*
X189918729Y-40576552D01*
X190020186Y-40659814D01*
X190103448Y-40761271D01*
X190132778Y-40797009D01*
X190216443Y-40953534D01*
X190267963Y-41123373D01*
X190285359Y-41300000D01*
X190267963Y-41476627D01*
X190216443Y-41646466D01*
X190132778Y-41802991D01*
X190103448Y-41838729D01*
X190020186Y-41940186D01*
X189918729Y-42023448D01*
X189882991Y-42052778D01*
X189726466Y-42136443D01*
X189556627Y-42187963D01*
X189490442Y-42194482D01*
X189424260Y-42201000D01*
X189335740Y-42201000D01*
X189269557Y-42194481D01*
X189203373Y-42187963D01*
X189033534Y-42136443D01*
X188877009Y-42052778D01*
X188841271Y-42023448D01*
X188739814Y-41940186D01*
X188656552Y-41838729D01*
X188627222Y-41802991D01*
X188543557Y-41646466D01*
X188492037Y-41476627D01*
X188474641Y-41300000D01*
X188492037Y-41123373D01*
X188543557Y-40953534D01*
X188627222Y-40797009D01*
X188656552Y-40761271D01*
X188739814Y-40659814D01*
X188841271Y-40576552D01*
X188877009Y-40547222D01*
X189033534Y-40463557D01*
X189203373Y-40412037D01*
X189269558Y-40405518D01*
X189335740Y-40399000D01*
X189424260Y-40399000D01*
X189490442Y-40405518D01*
X189490442Y-40405518D01*
G37*
G36*
X185201000Y-42201000D02*
G01*
X183399000Y-42201000D01*
X183399000Y-40399000D01*
X185201000Y-40399000D01*
X185201000Y-42201000D01*
X185201000Y-42201000D01*
G37*
G36*
X186950442Y-40405518D02*
G01*
X187016627Y-40412037D01*
X187186466Y-40463557D01*
X187342991Y-40547222D01*
X187378729Y-40576552D01*
X187480186Y-40659814D01*
X187563448Y-40761271D01*
X187592778Y-40797009D01*
X187676443Y-40953534D01*
X187727963Y-41123373D01*
X187745359Y-41300000D01*
X187727963Y-41476627D01*
X187676443Y-41646466D01*
X187592778Y-41802991D01*
X187563448Y-41838729D01*
X187480186Y-41940186D01*
X187378729Y-42023448D01*
X187342991Y-42052778D01*
X187186466Y-42136443D01*
X187016627Y-42187963D01*
X186950442Y-42194482D01*
X186884260Y-42201000D01*
X186795740Y-42201000D01*
X186729557Y-42194481D01*
X186663373Y-42187963D01*
X186493534Y-42136443D01*
X186337009Y-42052778D01*
X186301271Y-42023448D01*
X186199814Y-41940186D01*
X186116552Y-41838729D01*
X186087222Y-41802991D01*
X186003557Y-41646466D01*
X185952037Y-41476627D01*
X185934641Y-41300000D01*
X185952037Y-41123373D01*
X186003557Y-40953534D01*
X186087222Y-40797009D01*
X186116552Y-40761271D01*
X186199814Y-40659814D01*
X186301271Y-40576552D01*
X186337009Y-40547222D01*
X186493534Y-40463557D01*
X186663373Y-40412037D01*
X186729558Y-40405518D01*
X186795740Y-40399000D01*
X186884260Y-40399000D01*
X186950442Y-40405518D01*
X186950442Y-40405518D01*
G37*
G36*
X119150442Y-40405518D02*
G01*
X119216627Y-40412037D01*
X119386466Y-40463557D01*
X119542991Y-40547222D01*
X119578729Y-40576552D01*
X119680186Y-40659814D01*
X119763448Y-40761271D01*
X119792778Y-40797009D01*
X119876443Y-40953534D01*
X119927963Y-41123373D01*
X119945359Y-41300000D01*
X119927963Y-41476627D01*
X119876443Y-41646466D01*
X119792778Y-41802991D01*
X119763448Y-41838729D01*
X119680186Y-41940186D01*
X119578729Y-42023448D01*
X119542991Y-42052778D01*
X119386466Y-42136443D01*
X119216627Y-42187963D01*
X119150442Y-42194482D01*
X119084260Y-42201000D01*
X118995740Y-42201000D01*
X118929557Y-42194481D01*
X118863373Y-42187963D01*
X118693534Y-42136443D01*
X118537009Y-42052778D01*
X118501271Y-42023448D01*
X118399814Y-41940186D01*
X118316552Y-41838729D01*
X118287222Y-41802991D01*
X118203557Y-41646466D01*
X118152037Y-41476627D01*
X118134641Y-41300000D01*
X118152037Y-41123373D01*
X118203557Y-40953534D01*
X118287222Y-40797009D01*
X118316552Y-40761271D01*
X118399814Y-40659814D01*
X118501271Y-40576552D01*
X118537009Y-40547222D01*
X118693534Y-40463557D01*
X118863373Y-40412037D01*
X118929558Y-40405518D01*
X118995740Y-40399000D01*
X119084260Y-40399000D01*
X119150442Y-40405518D01*
X119150442Y-40405518D01*
G37*
G36*
X124230442Y-40405518D02*
G01*
X124296627Y-40412037D01*
X124466466Y-40463557D01*
X124622991Y-40547222D01*
X124658729Y-40576552D01*
X124760186Y-40659814D01*
X124843448Y-40761271D01*
X124872778Y-40797009D01*
X124956443Y-40953534D01*
X125007963Y-41123373D01*
X125025359Y-41300000D01*
X125007963Y-41476627D01*
X124956443Y-41646466D01*
X124872778Y-41802991D01*
X124843448Y-41838729D01*
X124760186Y-41940186D01*
X124658729Y-42023448D01*
X124622991Y-42052778D01*
X124466466Y-42136443D01*
X124296627Y-42187963D01*
X124230442Y-42194482D01*
X124164260Y-42201000D01*
X124075740Y-42201000D01*
X124009557Y-42194481D01*
X123943373Y-42187963D01*
X123773534Y-42136443D01*
X123617009Y-42052778D01*
X123581271Y-42023448D01*
X123479814Y-41940186D01*
X123396552Y-41838729D01*
X123367222Y-41802991D01*
X123283557Y-41646466D01*
X123232037Y-41476627D01*
X123214641Y-41300000D01*
X123232037Y-41123373D01*
X123283557Y-40953534D01*
X123367222Y-40797009D01*
X123396552Y-40761271D01*
X123479814Y-40659814D01*
X123581271Y-40576552D01*
X123617009Y-40547222D01*
X123773534Y-40463557D01*
X123943373Y-40412037D01*
X124009558Y-40405518D01*
X124075740Y-40399000D01*
X124164260Y-40399000D01*
X124230442Y-40405518D01*
X124230442Y-40405518D01*
G37*
G36*
X121690442Y-40405518D02*
G01*
X121756627Y-40412037D01*
X121926466Y-40463557D01*
X122082991Y-40547222D01*
X122118729Y-40576552D01*
X122220186Y-40659814D01*
X122303448Y-40761271D01*
X122332778Y-40797009D01*
X122416443Y-40953534D01*
X122467963Y-41123373D01*
X122485359Y-41300000D01*
X122467963Y-41476627D01*
X122416443Y-41646466D01*
X122332778Y-41802991D01*
X122303448Y-41838729D01*
X122220186Y-41940186D01*
X122118729Y-42023448D01*
X122082991Y-42052778D01*
X121926466Y-42136443D01*
X121756627Y-42187963D01*
X121690442Y-42194482D01*
X121624260Y-42201000D01*
X121535740Y-42201000D01*
X121469557Y-42194481D01*
X121403373Y-42187963D01*
X121233534Y-42136443D01*
X121077009Y-42052778D01*
X121041271Y-42023448D01*
X120939814Y-41940186D01*
X120856552Y-41838729D01*
X120827222Y-41802991D01*
X120743557Y-41646466D01*
X120692037Y-41476627D01*
X120674641Y-41300000D01*
X120692037Y-41123373D01*
X120743557Y-40953534D01*
X120827222Y-40797009D01*
X120856552Y-40761271D01*
X120939814Y-40659814D01*
X121041271Y-40576552D01*
X121077009Y-40547222D01*
X121233534Y-40463557D01*
X121403373Y-40412037D01*
X121469558Y-40405518D01*
X121535740Y-40399000D01*
X121624260Y-40399000D01*
X121690442Y-40405518D01*
X121690442Y-40405518D01*
G37*
G36*
X117401000Y-42201000D02*
G01*
X115599000Y-42201000D01*
X115599000Y-40399000D01*
X117401000Y-40399000D01*
X117401000Y-42201000D01*
X117401000Y-42201000D01*
G37*
G36*
X205275880Y-32759776D02*
G01*
X205656593Y-32835504D01*
X206066249Y-33005189D01*
X206434929Y-33251534D01*
X206748466Y-33565071D01*
X206994811Y-33933751D01*
X207164496Y-34343407D01*
X207251000Y-34778296D01*
X207251000Y-35221704D01*
X207164496Y-35656593D01*
X206994811Y-36066249D01*
X206748466Y-36434929D01*
X206434929Y-36748466D01*
X206066249Y-36994811D01*
X205656593Y-37164496D01*
X205275880Y-37240224D01*
X205221705Y-37251000D01*
X204778295Y-37251000D01*
X204724120Y-37240224D01*
X204343407Y-37164496D01*
X203933751Y-36994811D01*
X203565071Y-36748466D01*
X203251534Y-36434929D01*
X203005189Y-36066249D01*
X202835504Y-35656593D01*
X202749000Y-35221704D01*
X202749000Y-34778296D01*
X202835504Y-34343407D01*
X203005189Y-33933751D01*
X203251534Y-33565071D01*
X203565071Y-33251534D01*
X203933751Y-33005189D01*
X204343407Y-32835504D01*
X204724120Y-32759776D01*
X204778295Y-32749000D01*
X205221705Y-32749000D01*
X205275880Y-32759776D01*
X205275880Y-32759776D01*
G37*
G36*
X35275880Y-32759776D02*
G01*
X35656593Y-32835504D01*
X36066249Y-33005189D01*
X36434929Y-33251534D01*
X36748466Y-33565071D01*
X36994811Y-33933751D01*
X37164496Y-34343407D01*
X37251000Y-34778296D01*
X37251000Y-35221704D01*
X37164496Y-35656593D01*
X36994811Y-36066249D01*
X36748466Y-36434929D01*
X36434929Y-36748466D01*
X36066249Y-36994811D01*
X35656593Y-37164496D01*
X35275880Y-37240224D01*
X35221705Y-37251000D01*
X34778295Y-37251000D01*
X34724120Y-37240224D01*
X34343407Y-37164496D01*
X33933751Y-36994811D01*
X33565071Y-36748466D01*
X33251534Y-36434929D01*
X33005189Y-36066249D01*
X32835504Y-35656593D01*
X32749000Y-35221704D01*
X32749000Y-34778296D01*
X32835504Y-34343407D01*
X33005189Y-33933751D01*
X33251534Y-33565071D01*
X33565071Y-33251534D01*
X33933751Y-33005189D01*
X34343407Y-32835504D01*
X34724120Y-32759776D01*
X34778295Y-32749000D01*
X35221705Y-32749000D01*
X35275880Y-32759776D01*
X35275880Y-32759776D01*
G37*
M02*
