G04 #@! TF.GenerationSoftware,KiCad,Pcbnew,(5.1.2)-2*
G04 #@! TF.CreationDate,2019-07-29T19:51:13+02:00*
G04 #@! TF.ProjectId,sensor_auxiliary,73656e73-6f72-45f6-9175-78696c696172,1*
G04 #@! TF.SameCoordinates,Original*
G04 #@! TF.FileFunction,Copper,L1,Top*
G04 #@! TF.FilePolarity,Positive*
%FSLAX46Y46*%
G04 Gerber Fmt 4.6, Leading zero omitted, Abs format (unit mm)*
G04 Created by KiCad (PCBNEW (5.1.2)-2) date 2019-07-29 19:51:13*
%MOMM*%
%LPD*%
G04 APERTURE LIST*
%ADD10R,1.200000X1.200000*%
%ADD11R,1.500000X1.600000*%
%ADD12C,0.100000*%
%ADD13C,0.790000*%
%ADD14C,1.150000*%
%ADD15C,1.050000*%
%ADD16C,4.400000*%
%ADD17C,0.700000*%
%ADD18R,1.300000X2.000000*%
%ADD19R,1.000000X0.400000*%
%ADD20C,0.500000*%
%ADD21C,0.200000*%
G04 APERTURE END LIST*
D10*
X44300000Y-51000000D03*
X44300000Y-49000000D03*
D11*
X41050000Y-50000000D03*
D12*
G36*
X49316858Y-39670951D02*
G01*
X49336030Y-39673795D01*
X49354831Y-39678504D01*
X49373080Y-39685034D01*
X49390601Y-39693321D01*
X49407225Y-39703285D01*
X49422793Y-39714830D01*
X49437154Y-39727846D01*
X49450170Y-39742207D01*
X49461715Y-39757775D01*
X49471679Y-39774399D01*
X49479966Y-39791920D01*
X49486496Y-39810169D01*
X49491205Y-39828970D01*
X49494049Y-39848142D01*
X49495000Y-39867500D01*
X49495000Y-41132500D01*
X49494049Y-41151858D01*
X49491205Y-41171030D01*
X49486496Y-41189831D01*
X49479966Y-41208080D01*
X49471679Y-41225601D01*
X49461715Y-41242225D01*
X49450170Y-41257793D01*
X49437154Y-41272154D01*
X49422793Y-41285170D01*
X49407225Y-41296715D01*
X49390601Y-41306679D01*
X49373080Y-41314966D01*
X49354831Y-41321496D01*
X49336030Y-41326205D01*
X49316858Y-41329049D01*
X49297500Y-41330000D01*
X48902500Y-41330000D01*
X48883142Y-41329049D01*
X48863970Y-41326205D01*
X48845169Y-41321496D01*
X48826920Y-41314966D01*
X48809399Y-41306679D01*
X48792775Y-41296715D01*
X48777207Y-41285170D01*
X48762846Y-41272154D01*
X48749830Y-41257793D01*
X48738285Y-41242225D01*
X48728321Y-41225601D01*
X48720034Y-41208080D01*
X48713504Y-41189831D01*
X48708795Y-41171030D01*
X48705951Y-41151858D01*
X48705000Y-41132500D01*
X48705000Y-39867500D01*
X48705951Y-39848142D01*
X48708795Y-39828970D01*
X48713504Y-39810169D01*
X48720034Y-39791920D01*
X48728321Y-39774399D01*
X48738285Y-39757775D01*
X48749830Y-39742207D01*
X48762846Y-39727846D01*
X48777207Y-39714830D01*
X48792775Y-39703285D01*
X48809399Y-39693321D01*
X48826920Y-39685034D01*
X48845169Y-39678504D01*
X48863970Y-39673795D01*
X48883142Y-39670951D01*
X48902500Y-39670000D01*
X49297500Y-39670000D01*
X49316858Y-39670951D01*
X49316858Y-39670951D01*
G37*
D13*
X49100000Y-40500000D03*
D12*
G36*
X51116858Y-39670951D02*
G01*
X51136030Y-39673795D01*
X51154831Y-39678504D01*
X51173080Y-39685034D01*
X51190601Y-39693321D01*
X51207225Y-39703285D01*
X51222793Y-39714830D01*
X51237154Y-39727846D01*
X51250170Y-39742207D01*
X51261715Y-39757775D01*
X51271679Y-39774399D01*
X51279966Y-39791920D01*
X51286496Y-39810169D01*
X51291205Y-39828970D01*
X51294049Y-39848142D01*
X51295000Y-39867500D01*
X51295000Y-41132500D01*
X51294049Y-41151858D01*
X51291205Y-41171030D01*
X51286496Y-41189831D01*
X51279966Y-41208080D01*
X51271679Y-41225601D01*
X51261715Y-41242225D01*
X51250170Y-41257793D01*
X51237154Y-41272154D01*
X51222793Y-41285170D01*
X51207225Y-41296715D01*
X51190601Y-41306679D01*
X51173080Y-41314966D01*
X51154831Y-41321496D01*
X51136030Y-41326205D01*
X51116858Y-41329049D01*
X51097500Y-41330000D01*
X50702500Y-41330000D01*
X50683142Y-41329049D01*
X50663970Y-41326205D01*
X50645169Y-41321496D01*
X50626920Y-41314966D01*
X50609399Y-41306679D01*
X50592775Y-41296715D01*
X50577207Y-41285170D01*
X50562846Y-41272154D01*
X50549830Y-41257793D01*
X50538285Y-41242225D01*
X50528321Y-41225601D01*
X50520034Y-41208080D01*
X50513504Y-41189831D01*
X50508795Y-41171030D01*
X50505951Y-41151858D01*
X50505000Y-41132500D01*
X50505000Y-39867500D01*
X50505951Y-39848142D01*
X50508795Y-39828970D01*
X50513504Y-39810169D01*
X50520034Y-39791920D01*
X50528321Y-39774399D01*
X50538285Y-39757775D01*
X50549830Y-39742207D01*
X50562846Y-39727846D01*
X50577207Y-39714830D01*
X50592775Y-39703285D01*
X50609399Y-39693321D01*
X50626920Y-39685034D01*
X50645169Y-39678504D01*
X50663970Y-39673795D01*
X50683142Y-39670951D01*
X50702500Y-39670000D01*
X51097500Y-39670000D01*
X51116858Y-39670951D01*
X51116858Y-39670951D01*
G37*
D13*
X50900000Y-40500000D03*
D12*
G36*
X51116858Y-43670951D02*
G01*
X51136030Y-43673795D01*
X51154831Y-43678504D01*
X51173080Y-43685034D01*
X51190601Y-43693321D01*
X51207225Y-43703285D01*
X51222793Y-43714830D01*
X51237154Y-43727846D01*
X51250170Y-43742207D01*
X51261715Y-43757775D01*
X51271679Y-43774399D01*
X51279966Y-43791920D01*
X51286496Y-43810169D01*
X51291205Y-43828970D01*
X51294049Y-43848142D01*
X51295000Y-43867500D01*
X51295000Y-45132500D01*
X51294049Y-45151858D01*
X51291205Y-45171030D01*
X51286496Y-45189831D01*
X51279966Y-45208080D01*
X51271679Y-45225601D01*
X51261715Y-45242225D01*
X51250170Y-45257793D01*
X51237154Y-45272154D01*
X51222793Y-45285170D01*
X51207225Y-45296715D01*
X51190601Y-45306679D01*
X51173080Y-45314966D01*
X51154831Y-45321496D01*
X51136030Y-45326205D01*
X51116858Y-45329049D01*
X51097500Y-45330000D01*
X50702500Y-45330000D01*
X50683142Y-45329049D01*
X50663970Y-45326205D01*
X50645169Y-45321496D01*
X50626920Y-45314966D01*
X50609399Y-45306679D01*
X50592775Y-45296715D01*
X50577207Y-45285170D01*
X50562846Y-45272154D01*
X50549830Y-45257793D01*
X50538285Y-45242225D01*
X50528321Y-45225601D01*
X50520034Y-45208080D01*
X50513504Y-45189831D01*
X50508795Y-45171030D01*
X50505951Y-45151858D01*
X50505000Y-45132500D01*
X50505000Y-43867500D01*
X50505951Y-43848142D01*
X50508795Y-43828970D01*
X50513504Y-43810169D01*
X50520034Y-43791920D01*
X50528321Y-43774399D01*
X50538285Y-43757775D01*
X50549830Y-43742207D01*
X50562846Y-43727846D01*
X50577207Y-43714830D01*
X50592775Y-43703285D01*
X50609399Y-43693321D01*
X50626920Y-43685034D01*
X50645169Y-43678504D01*
X50663970Y-43673795D01*
X50683142Y-43670951D01*
X50702500Y-43670000D01*
X51097500Y-43670000D01*
X51116858Y-43670951D01*
X51116858Y-43670951D01*
G37*
D13*
X50900000Y-44500000D03*
D12*
G36*
X49316858Y-43670951D02*
G01*
X49336030Y-43673795D01*
X49354831Y-43678504D01*
X49373080Y-43685034D01*
X49390601Y-43693321D01*
X49407225Y-43703285D01*
X49422793Y-43714830D01*
X49437154Y-43727846D01*
X49450170Y-43742207D01*
X49461715Y-43757775D01*
X49471679Y-43774399D01*
X49479966Y-43791920D01*
X49486496Y-43810169D01*
X49491205Y-43828970D01*
X49494049Y-43848142D01*
X49495000Y-43867500D01*
X49495000Y-45132500D01*
X49494049Y-45151858D01*
X49491205Y-45171030D01*
X49486496Y-45189831D01*
X49479966Y-45208080D01*
X49471679Y-45225601D01*
X49461715Y-45242225D01*
X49450170Y-45257793D01*
X49437154Y-45272154D01*
X49422793Y-45285170D01*
X49407225Y-45296715D01*
X49390601Y-45306679D01*
X49373080Y-45314966D01*
X49354831Y-45321496D01*
X49336030Y-45326205D01*
X49316858Y-45329049D01*
X49297500Y-45330000D01*
X48902500Y-45330000D01*
X48883142Y-45329049D01*
X48863970Y-45326205D01*
X48845169Y-45321496D01*
X48826920Y-45314966D01*
X48809399Y-45306679D01*
X48792775Y-45296715D01*
X48777207Y-45285170D01*
X48762846Y-45272154D01*
X48749830Y-45257793D01*
X48738285Y-45242225D01*
X48728321Y-45225601D01*
X48720034Y-45208080D01*
X48713504Y-45189831D01*
X48708795Y-45171030D01*
X48705951Y-45151858D01*
X48705000Y-45132500D01*
X48705000Y-43867500D01*
X48705951Y-43848142D01*
X48708795Y-43828970D01*
X48713504Y-43810169D01*
X48720034Y-43791920D01*
X48728321Y-43774399D01*
X48738285Y-43757775D01*
X48749830Y-43742207D01*
X48762846Y-43727846D01*
X48777207Y-43714830D01*
X48792775Y-43703285D01*
X48809399Y-43693321D01*
X48826920Y-43685034D01*
X48845169Y-43678504D01*
X48863970Y-43673795D01*
X48883142Y-43670951D01*
X48902500Y-43670000D01*
X49297500Y-43670000D01*
X49316858Y-43670951D01*
X49316858Y-43670951D01*
G37*
D13*
X49100000Y-44500000D03*
D12*
G36*
X44074505Y-40751204D02*
G01*
X44098773Y-40754804D01*
X44122572Y-40760765D01*
X44145671Y-40769030D01*
X44167850Y-40779520D01*
X44188893Y-40792132D01*
X44208599Y-40806747D01*
X44226777Y-40823223D01*
X44243253Y-40841401D01*
X44257868Y-40861107D01*
X44270480Y-40882150D01*
X44280970Y-40904329D01*
X44289235Y-40927428D01*
X44295196Y-40951227D01*
X44298796Y-40975495D01*
X44300000Y-40999999D01*
X44300000Y-41650001D01*
X44298796Y-41674505D01*
X44295196Y-41698773D01*
X44289235Y-41722572D01*
X44280970Y-41745671D01*
X44270480Y-41767850D01*
X44257868Y-41788893D01*
X44243253Y-41808599D01*
X44226777Y-41826777D01*
X44208599Y-41843253D01*
X44188893Y-41857868D01*
X44167850Y-41870480D01*
X44145671Y-41880970D01*
X44122572Y-41889235D01*
X44098773Y-41895196D01*
X44074505Y-41898796D01*
X44050001Y-41900000D01*
X43149999Y-41900000D01*
X43125495Y-41898796D01*
X43101227Y-41895196D01*
X43077428Y-41889235D01*
X43054329Y-41880970D01*
X43032150Y-41870480D01*
X43011107Y-41857868D01*
X42991401Y-41843253D01*
X42973223Y-41826777D01*
X42956747Y-41808599D01*
X42942132Y-41788893D01*
X42929520Y-41767850D01*
X42919030Y-41745671D01*
X42910765Y-41722572D01*
X42904804Y-41698773D01*
X42901204Y-41674505D01*
X42900000Y-41650001D01*
X42900000Y-40999999D01*
X42901204Y-40975495D01*
X42904804Y-40951227D01*
X42910765Y-40927428D01*
X42919030Y-40904329D01*
X42929520Y-40882150D01*
X42942132Y-40861107D01*
X42956747Y-40841401D01*
X42973223Y-40823223D01*
X42991401Y-40806747D01*
X43011107Y-40792132D01*
X43032150Y-40779520D01*
X43054329Y-40769030D01*
X43077428Y-40760765D01*
X43101227Y-40754804D01*
X43125495Y-40751204D01*
X43149999Y-40750000D01*
X44050001Y-40750000D01*
X44074505Y-40751204D01*
X44074505Y-40751204D01*
G37*
D14*
X43600000Y-41325000D03*
D12*
G36*
X44074505Y-38701204D02*
G01*
X44098773Y-38704804D01*
X44122572Y-38710765D01*
X44145671Y-38719030D01*
X44167850Y-38729520D01*
X44188893Y-38742132D01*
X44208599Y-38756747D01*
X44226777Y-38773223D01*
X44243253Y-38791401D01*
X44257868Y-38811107D01*
X44270480Y-38832150D01*
X44280970Y-38854329D01*
X44289235Y-38877428D01*
X44295196Y-38901227D01*
X44298796Y-38925495D01*
X44300000Y-38949999D01*
X44300000Y-39600001D01*
X44298796Y-39624505D01*
X44295196Y-39648773D01*
X44289235Y-39672572D01*
X44280970Y-39695671D01*
X44270480Y-39717850D01*
X44257868Y-39738893D01*
X44243253Y-39758599D01*
X44226777Y-39776777D01*
X44208599Y-39793253D01*
X44188893Y-39807868D01*
X44167850Y-39820480D01*
X44145671Y-39830970D01*
X44122572Y-39839235D01*
X44098773Y-39845196D01*
X44074505Y-39848796D01*
X44050001Y-39850000D01*
X43149999Y-39850000D01*
X43125495Y-39848796D01*
X43101227Y-39845196D01*
X43077428Y-39839235D01*
X43054329Y-39830970D01*
X43032150Y-39820480D01*
X43011107Y-39807868D01*
X42991401Y-39793253D01*
X42973223Y-39776777D01*
X42956747Y-39758599D01*
X42942132Y-39738893D01*
X42929520Y-39717850D01*
X42919030Y-39695671D01*
X42910765Y-39672572D01*
X42904804Y-39648773D01*
X42901204Y-39624505D01*
X42900000Y-39600001D01*
X42900000Y-38949999D01*
X42901204Y-38925495D01*
X42904804Y-38901227D01*
X42910765Y-38877428D01*
X42919030Y-38854329D01*
X42929520Y-38832150D01*
X42942132Y-38811107D01*
X42956747Y-38791401D01*
X42973223Y-38773223D01*
X42991401Y-38756747D01*
X43011107Y-38742132D01*
X43032150Y-38729520D01*
X43054329Y-38719030D01*
X43077428Y-38710765D01*
X43101227Y-38704804D01*
X43125495Y-38701204D01*
X43149999Y-38700000D01*
X44050001Y-38700000D01*
X44074505Y-38701204D01*
X44074505Y-38701204D01*
G37*
D14*
X43600000Y-39275000D03*
D12*
G36*
X41399505Y-34476204D02*
G01*
X41423773Y-34479804D01*
X41447572Y-34485765D01*
X41470671Y-34494030D01*
X41492850Y-34504520D01*
X41513893Y-34517132D01*
X41533599Y-34531747D01*
X41551777Y-34548223D01*
X41568253Y-34566401D01*
X41582868Y-34586107D01*
X41595480Y-34607150D01*
X41605970Y-34629329D01*
X41614235Y-34652428D01*
X41620196Y-34676227D01*
X41623796Y-34700495D01*
X41625000Y-34724999D01*
X41625000Y-35275001D01*
X41623796Y-35299505D01*
X41620196Y-35323773D01*
X41614235Y-35347572D01*
X41605970Y-35370671D01*
X41595480Y-35392850D01*
X41582868Y-35413893D01*
X41568253Y-35433599D01*
X41551777Y-35451777D01*
X41533599Y-35468253D01*
X41513893Y-35482868D01*
X41492850Y-35495480D01*
X41470671Y-35505970D01*
X41447572Y-35514235D01*
X41423773Y-35520196D01*
X41399505Y-35523796D01*
X41375001Y-35525000D01*
X40574999Y-35525000D01*
X40550495Y-35523796D01*
X40526227Y-35520196D01*
X40502428Y-35514235D01*
X40479329Y-35505970D01*
X40457150Y-35495480D01*
X40436107Y-35482868D01*
X40416401Y-35468253D01*
X40398223Y-35451777D01*
X40381747Y-35433599D01*
X40367132Y-35413893D01*
X40354520Y-35392850D01*
X40344030Y-35370671D01*
X40335765Y-35347572D01*
X40329804Y-35323773D01*
X40326204Y-35299505D01*
X40325000Y-35275001D01*
X40325000Y-34724999D01*
X40326204Y-34700495D01*
X40329804Y-34676227D01*
X40335765Y-34652428D01*
X40344030Y-34629329D01*
X40354520Y-34607150D01*
X40367132Y-34586107D01*
X40381747Y-34566401D01*
X40398223Y-34548223D01*
X40416401Y-34531747D01*
X40436107Y-34517132D01*
X40457150Y-34504520D01*
X40479329Y-34494030D01*
X40502428Y-34485765D01*
X40526227Y-34479804D01*
X40550495Y-34476204D01*
X40574999Y-34475000D01*
X41375001Y-34475000D01*
X41399505Y-34476204D01*
X41399505Y-34476204D01*
G37*
D15*
X40975000Y-35000000D03*
D12*
G36*
X39449505Y-34476204D02*
G01*
X39473773Y-34479804D01*
X39497572Y-34485765D01*
X39520671Y-34494030D01*
X39542850Y-34504520D01*
X39563893Y-34517132D01*
X39583599Y-34531747D01*
X39601777Y-34548223D01*
X39618253Y-34566401D01*
X39632868Y-34586107D01*
X39645480Y-34607150D01*
X39655970Y-34629329D01*
X39664235Y-34652428D01*
X39670196Y-34676227D01*
X39673796Y-34700495D01*
X39675000Y-34724999D01*
X39675000Y-35275001D01*
X39673796Y-35299505D01*
X39670196Y-35323773D01*
X39664235Y-35347572D01*
X39655970Y-35370671D01*
X39645480Y-35392850D01*
X39632868Y-35413893D01*
X39618253Y-35433599D01*
X39601777Y-35451777D01*
X39583599Y-35468253D01*
X39563893Y-35482868D01*
X39542850Y-35495480D01*
X39520671Y-35505970D01*
X39497572Y-35514235D01*
X39473773Y-35520196D01*
X39449505Y-35523796D01*
X39425001Y-35525000D01*
X38624999Y-35525000D01*
X38600495Y-35523796D01*
X38576227Y-35520196D01*
X38552428Y-35514235D01*
X38529329Y-35505970D01*
X38507150Y-35495480D01*
X38486107Y-35482868D01*
X38466401Y-35468253D01*
X38448223Y-35451777D01*
X38431747Y-35433599D01*
X38417132Y-35413893D01*
X38404520Y-35392850D01*
X38394030Y-35370671D01*
X38385765Y-35347572D01*
X38379804Y-35323773D01*
X38376204Y-35299505D01*
X38375000Y-35275001D01*
X38375000Y-34724999D01*
X38376204Y-34700495D01*
X38379804Y-34676227D01*
X38385765Y-34652428D01*
X38394030Y-34629329D01*
X38404520Y-34607150D01*
X38417132Y-34586107D01*
X38431747Y-34566401D01*
X38448223Y-34548223D01*
X38466401Y-34531747D01*
X38486107Y-34517132D01*
X38507150Y-34504520D01*
X38529329Y-34494030D01*
X38552428Y-34485765D01*
X38576227Y-34479804D01*
X38600495Y-34476204D01*
X38624999Y-34475000D01*
X39425001Y-34475000D01*
X39449505Y-34476204D01*
X39449505Y-34476204D01*
G37*
D15*
X39025000Y-35000000D03*
D12*
G36*
X44324505Y-34301204D02*
G01*
X44348773Y-34304804D01*
X44372572Y-34310765D01*
X44395671Y-34319030D01*
X44417850Y-34329520D01*
X44438893Y-34342132D01*
X44458599Y-34356747D01*
X44476777Y-34373223D01*
X44493253Y-34391401D01*
X44507868Y-34411107D01*
X44520480Y-34432150D01*
X44530970Y-34454329D01*
X44539235Y-34477428D01*
X44545196Y-34501227D01*
X44548796Y-34525495D01*
X44550000Y-34549999D01*
X44550000Y-35450001D01*
X44548796Y-35474505D01*
X44545196Y-35498773D01*
X44539235Y-35522572D01*
X44530970Y-35545671D01*
X44520480Y-35567850D01*
X44507868Y-35588893D01*
X44493253Y-35608599D01*
X44476777Y-35626777D01*
X44458599Y-35643253D01*
X44438893Y-35657868D01*
X44417850Y-35670480D01*
X44395671Y-35680970D01*
X44372572Y-35689235D01*
X44348773Y-35695196D01*
X44324505Y-35698796D01*
X44300001Y-35700000D01*
X43649999Y-35700000D01*
X43625495Y-35698796D01*
X43601227Y-35695196D01*
X43577428Y-35689235D01*
X43554329Y-35680970D01*
X43532150Y-35670480D01*
X43511107Y-35657868D01*
X43491401Y-35643253D01*
X43473223Y-35626777D01*
X43456747Y-35608599D01*
X43442132Y-35588893D01*
X43429520Y-35567850D01*
X43419030Y-35545671D01*
X43410765Y-35522572D01*
X43404804Y-35498773D01*
X43401204Y-35474505D01*
X43400000Y-35450001D01*
X43400000Y-34549999D01*
X43401204Y-34525495D01*
X43404804Y-34501227D01*
X43410765Y-34477428D01*
X43419030Y-34454329D01*
X43429520Y-34432150D01*
X43442132Y-34411107D01*
X43456747Y-34391401D01*
X43473223Y-34373223D01*
X43491401Y-34356747D01*
X43511107Y-34342132D01*
X43532150Y-34329520D01*
X43554329Y-34319030D01*
X43577428Y-34310765D01*
X43601227Y-34304804D01*
X43625495Y-34301204D01*
X43649999Y-34300000D01*
X44300001Y-34300000D01*
X44324505Y-34301204D01*
X44324505Y-34301204D01*
G37*
D14*
X43975000Y-35000000D03*
D12*
G36*
X46374505Y-34301204D02*
G01*
X46398773Y-34304804D01*
X46422572Y-34310765D01*
X46445671Y-34319030D01*
X46467850Y-34329520D01*
X46488893Y-34342132D01*
X46508599Y-34356747D01*
X46526777Y-34373223D01*
X46543253Y-34391401D01*
X46557868Y-34411107D01*
X46570480Y-34432150D01*
X46580970Y-34454329D01*
X46589235Y-34477428D01*
X46595196Y-34501227D01*
X46598796Y-34525495D01*
X46600000Y-34549999D01*
X46600000Y-35450001D01*
X46598796Y-35474505D01*
X46595196Y-35498773D01*
X46589235Y-35522572D01*
X46580970Y-35545671D01*
X46570480Y-35567850D01*
X46557868Y-35588893D01*
X46543253Y-35608599D01*
X46526777Y-35626777D01*
X46508599Y-35643253D01*
X46488893Y-35657868D01*
X46467850Y-35670480D01*
X46445671Y-35680970D01*
X46422572Y-35689235D01*
X46398773Y-35695196D01*
X46374505Y-35698796D01*
X46350001Y-35700000D01*
X45699999Y-35700000D01*
X45675495Y-35698796D01*
X45651227Y-35695196D01*
X45627428Y-35689235D01*
X45604329Y-35680970D01*
X45582150Y-35670480D01*
X45561107Y-35657868D01*
X45541401Y-35643253D01*
X45523223Y-35626777D01*
X45506747Y-35608599D01*
X45492132Y-35588893D01*
X45479520Y-35567850D01*
X45469030Y-35545671D01*
X45460765Y-35522572D01*
X45454804Y-35498773D01*
X45451204Y-35474505D01*
X45450000Y-35450001D01*
X45450000Y-34549999D01*
X45451204Y-34525495D01*
X45454804Y-34501227D01*
X45460765Y-34477428D01*
X45469030Y-34454329D01*
X45479520Y-34432150D01*
X45492132Y-34411107D01*
X45506747Y-34391401D01*
X45523223Y-34373223D01*
X45541401Y-34356747D01*
X45561107Y-34342132D01*
X45582150Y-34329520D01*
X45604329Y-34319030D01*
X45627428Y-34310765D01*
X45651227Y-34304804D01*
X45675495Y-34301204D01*
X45699999Y-34300000D01*
X46350001Y-34300000D01*
X46374505Y-34301204D01*
X46374505Y-34301204D01*
G37*
D14*
X46025000Y-35000000D03*
D16*
X35000000Y-35000000D03*
D17*
X36650000Y-35000000D03*
X36166726Y-36166726D03*
X35000000Y-36650000D03*
X33833274Y-36166726D03*
X33350000Y-35000000D03*
X33833274Y-33833274D03*
X35000000Y-33350000D03*
X36166726Y-33833274D03*
X36166726Y-48833274D03*
X35000000Y-48350000D03*
X33833274Y-48833274D03*
X33350000Y-50000000D03*
X33833274Y-51166726D03*
X35000000Y-51650000D03*
X36166726Y-51166726D03*
X36650000Y-50000000D03*
D16*
X35000000Y-50000000D03*
X50000000Y-35000000D03*
D17*
X51650000Y-35000000D03*
X51166726Y-36166726D03*
X50000000Y-36650000D03*
X48833274Y-36166726D03*
X48350000Y-35000000D03*
X48833274Y-33833274D03*
X50000000Y-33350000D03*
X51166726Y-33833274D03*
X51166726Y-48833274D03*
X50000000Y-48350000D03*
X48833274Y-48833274D03*
X48350000Y-50000000D03*
X48833274Y-51166726D03*
X50000000Y-51650000D03*
X51166726Y-51166726D03*
X51650000Y-50000000D03*
D16*
X50000000Y-50000000D03*
D18*
X38210000Y-38200000D03*
X38210000Y-46800000D03*
D19*
X40910000Y-41000000D03*
X40910000Y-42000000D03*
X40910000Y-43000000D03*
X40910000Y-44000000D03*
D12*
G36*
X44674505Y-45751204D02*
G01*
X44698773Y-45754804D01*
X44722572Y-45760765D01*
X44745671Y-45769030D01*
X44767850Y-45779520D01*
X44788893Y-45792132D01*
X44808599Y-45806747D01*
X44826777Y-45823223D01*
X44843253Y-45841401D01*
X44857868Y-45861107D01*
X44870480Y-45882150D01*
X44880970Y-45904329D01*
X44889235Y-45927428D01*
X44895196Y-45951227D01*
X44898796Y-45975495D01*
X44900000Y-45999999D01*
X44900000Y-46650001D01*
X44898796Y-46674505D01*
X44895196Y-46698773D01*
X44889235Y-46722572D01*
X44880970Y-46745671D01*
X44870480Y-46767850D01*
X44857868Y-46788893D01*
X44843253Y-46808599D01*
X44826777Y-46826777D01*
X44808599Y-46843253D01*
X44788893Y-46857868D01*
X44767850Y-46870480D01*
X44745671Y-46880970D01*
X44722572Y-46889235D01*
X44698773Y-46895196D01*
X44674505Y-46898796D01*
X44650001Y-46900000D01*
X43749999Y-46900000D01*
X43725495Y-46898796D01*
X43701227Y-46895196D01*
X43677428Y-46889235D01*
X43654329Y-46880970D01*
X43632150Y-46870480D01*
X43611107Y-46857868D01*
X43591401Y-46843253D01*
X43573223Y-46826777D01*
X43556747Y-46808599D01*
X43542132Y-46788893D01*
X43529520Y-46767850D01*
X43519030Y-46745671D01*
X43510765Y-46722572D01*
X43504804Y-46698773D01*
X43501204Y-46674505D01*
X43500000Y-46650001D01*
X43500000Y-45999999D01*
X43501204Y-45975495D01*
X43504804Y-45951227D01*
X43510765Y-45927428D01*
X43519030Y-45904329D01*
X43529520Y-45882150D01*
X43542132Y-45861107D01*
X43556747Y-45841401D01*
X43573223Y-45823223D01*
X43591401Y-45806747D01*
X43611107Y-45792132D01*
X43632150Y-45779520D01*
X43654329Y-45769030D01*
X43677428Y-45760765D01*
X43701227Y-45754804D01*
X43725495Y-45751204D01*
X43749999Y-45750000D01*
X44650001Y-45750000D01*
X44674505Y-45751204D01*
X44674505Y-45751204D01*
G37*
D14*
X44200000Y-46325000D03*
D12*
G36*
X44674505Y-43701204D02*
G01*
X44698773Y-43704804D01*
X44722572Y-43710765D01*
X44745671Y-43719030D01*
X44767850Y-43729520D01*
X44788893Y-43742132D01*
X44808599Y-43756747D01*
X44826777Y-43773223D01*
X44843253Y-43791401D01*
X44857868Y-43811107D01*
X44870480Y-43832150D01*
X44880970Y-43854329D01*
X44889235Y-43877428D01*
X44895196Y-43901227D01*
X44898796Y-43925495D01*
X44900000Y-43949999D01*
X44900000Y-44600001D01*
X44898796Y-44624505D01*
X44895196Y-44648773D01*
X44889235Y-44672572D01*
X44880970Y-44695671D01*
X44870480Y-44717850D01*
X44857868Y-44738893D01*
X44843253Y-44758599D01*
X44826777Y-44776777D01*
X44808599Y-44793253D01*
X44788893Y-44807868D01*
X44767850Y-44820480D01*
X44745671Y-44830970D01*
X44722572Y-44839235D01*
X44698773Y-44845196D01*
X44674505Y-44848796D01*
X44650001Y-44850000D01*
X43749999Y-44850000D01*
X43725495Y-44848796D01*
X43701227Y-44845196D01*
X43677428Y-44839235D01*
X43654329Y-44830970D01*
X43632150Y-44820480D01*
X43611107Y-44807868D01*
X43591401Y-44793253D01*
X43573223Y-44776777D01*
X43556747Y-44758599D01*
X43542132Y-44738893D01*
X43529520Y-44717850D01*
X43519030Y-44695671D01*
X43510765Y-44672572D01*
X43504804Y-44648773D01*
X43501204Y-44624505D01*
X43500000Y-44600001D01*
X43500000Y-43949999D01*
X43501204Y-43925495D01*
X43504804Y-43901227D01*
X43510765Y-43877428D01*
X43519030Y-43854329D01*
X43529520Y-43832150D01*
X43542132Y-43811107D01*
X43556747Y-43791401D01*
X43573223Y-43773223D01*
X43591401Y-43756747D01*
X43611107Y-43742132D01*
X43632150Y-43729520D01*
X43654329Y-43719030D01*
X43677428Y-43710765D01*
X43701227Y-43704804D01*
X43725495Y-43701204D01*
X43749999Y-43700000D01*
X44650001Y-43700000D01*
X44674505Y-43701204D01*
X44674505Y-43701204D01*
G37*
D14*
X44200000Y-44275000D03*
D12*
G36*
X46974505Y-38701204D02*
G01*
X46998773Y-38704804D01*
X47022572Y-38710765D01*
X47045671Y-38719030D01*
X47067850Y-38729520D01*
X47088893Y-38742132D01*
X47108599Y-38756747D01*
X47126777Y-38773223D01*
X47143253Y-38791401D01*
X47157868Y-38811107D01*
X47170480Y-38832150D01*
X47180970Y-38854329D01*
X47189235Y-38877428D01*
X47195196Y-38901227D01*
X47198796Y-38925495D01*
X47200000Y-38949999D01*
X47200000Y-39600001D01*
X47198796Y-39624505D01*
X47195196Y-39648773D01*
X47189235Y-39672572D01*
X47180970Y-39695671D01*
X47170480Y-39717850D01*
X47157868Y-39738893D01*
X47143253Y-39758599D01*
X47126777Y-39776777D01*
X47108599Y-39793253D01*
X47088893Y-39807868D01*
X47067850Y-39820480D01*
X47045671Y-39830970D01*
X47022572Y-39839235D01*
X46998773Y-39845196D01*
X46974505Y-39848796D01*
X46950001Y-39850000D01*
X46049999Y-39850000D01*
X46025495Y-39848796D01*
X46001227Y-39845196D01*
X45977428Y-39839235D01*
X45954329Y-39830970D01*
X45932150Y-39820480D01*
X45911107Y-39807868D01*
X45891401Y-39793253D01*
X45873223Y-39776777D01*
X45856747Y-39758599D01*
X45842132Y-39738893D01*
X45829520Y-39717850D01*
X45819030Y-39695671D01*
X45810765Y-39672572D01*
X45804804Y-39648773D01*
X45801204Y-39624505D01*
X45800000Y-39600001D01*
X45800000Y-38949999D01*
X45801204Y-38925495D01*
X45804804Y-38901227D01*
X45810765Y-38877428D01*
X45819030Y-38854329D01*
X45829520Y-38832150D01*
X45842132Y-38811107D01*
X45856747Y-38791401D01*
X45873223Y-38773223D01*
X45891401Y-38756747D01*
X45911107Y-38742132D01*
X45932150Y-38729520D01*
X45954329Y-38719030D01*
X45977428Y-38710765D01*
X46001227Y-38704804D01*
X46025495Y-38701204D01*
X46049999Y-38700000D01*
X46950001Y-38700000D01*
X46974505Y-38701204D01*
X46974505Y-38701204D01*
G37*
D14*
X46500000Y-39275000D03*
D12*
G36*
X46974505Y-40751204D02*
G01*
X46998773Y-40754804D01*
X47022572Y-40760765D01*
X47045671Y-40769030D01*
X47067850Y-40779520D01*
X47088893Y-40792132D01*
X47108599Y-40806747D01*
X47126777Y-40823223D01*
X47143253Y-40841401D01*
X47157868Y-40861107D01*
X47170480Y-40882150D01*
X47180970Y-40904329D01*
X47189235Y-40927428D01*
X47195196Y-40951227D01*
X47198796Y-40975495D01*
X47200000Y-40999999D01*
X47200000Y-41650001D01*
X47198796Y-41674505D01*
X47195196Y-41698773D01*
X47189235Y-41722572D01*
X47180970Y-41745671D01*
X47170480Y-41767850D01*
X47157868Y-41788893D01*
X47143253Y-41808599D01*
X47126777Y-41826777D01*
X47108599Y-41843253D01*
X47088893Y-41857868D01*
X47067850Y-41870480D01*
X47045671Y-41880970D01*
X47022572Y-41889235D01*
X46998773Y-41895196D01*
X46974505Y-41898796D01*
X46950001Y-41900000D01*
X46049999Y-41900000D01*
X46025495Y-41898796D01*
X46001227Y-41895196D01*
X45977428Y-41889235D01*
X45954329Y-41880970D01*
X45932150Y-41870480D01*
X45911107Y-41857868D01*
X45891401Y-41843253D01*
X45873223Y-41826777D01*
X45856747Y-41808599D01*
X45842132Y-41788893D01*
X45829520Y-41767850D01*
X45819030Y-41745671D01*
X45810765Y-41722572D01*
X45804804Y-41698773D01*
X45801204Y-41674505D01*
X45800000Y-41650001D01*
X45800000Y-40999999D01*
X45801204Y-40975495D01*
X45804804Y-40951227D01*
X45810765Y-40927428D01*
X45819030Y-40904329D01*
X45829520Y-40882150D01*
X45842132Y-40861107D01*
X45856747Y-40841401D01*
X45873223Y-40823223D01*
X45891401Y-40806747D01*
X45911107Y-40792132D01*
X45932150Y-40779520D01*
X45954329Y-40769030D01*
X45977428Y-40760765D01*
X46001227Y-40754804D01*
X46025495Y-40751204D01*
X46049999Y-40750000D01*
X46950001Y-40750000D01*
X46974505Y-40751204D01*
X46974505Y-40751204D01*
G37*
D14*
X46500000Y-41325000D03*
D20*
X35000000Y-38111269D02*
X35000000Y-35000000D01*
X38888731Y-42000000D02*
X35000000Y-38111269D01*
X40910000Y-42000000D02*
X38888731Y-42000000D01*
X35000000Y-46888731D02*
X35000000Y-50000000D01*
X37888731Y-44000000D02*
X35000000Y-46888731D01*
X40910000Y-44000000D02*
X37888731Y-44000000D01*
X35000000Y-35000000D02*
X39025000Y-35000000D01*
X50000000Y-35000000D02*
X46025000Y-35000000D01*
X43600000Y-39275000D02*
X46500000Y-39275000D01*
X46500000Y-38500000D02*
X50000000Y-35000000D01*
X46500000Y-39275000D02*
X46500000Y-38500000D01*
X51365710Y-40965710D02*
X50900000Y-40500000D01*
X52199999Y-41799999D02*
X51365710Y-40965710D01*
X52199999Y-47800001D02*
X52199999Y-41799999D01*
X50000000Y-50000000D02*
X52199999Y-47800001D01*
X42050000Y-49000000D02*
X41050000Y-50000000D01*
X44300000Y-49000000D02*
X42050000Y-49000000D01*
X44300000Y-46425000D02*
X44200000Y-46325000D01*
X44300000Y-49000000D02*
X44300000Y-46425000D01*
X44400000Y-51000000D02*
X44300000Y-51000000D01*
X50900000Y-44500000D02*
X44400000Y-51000000D01*
X49100000Y-43925000D02*
X46500000Y-41325000D01*
X49100000Y-44500000D02*
X49100000Y-43925000D01*
X46500000Y-41325000D02*
X43600000Y-41325000D01*
X40910000Y-41000000D02*
X43275000Y-41000000D01*
X43275000Y-41000000D02*
X43600000Y-41325000D01*
D21*
G36*
X54500000Y-30841422D02*
G01*
X54500000Y-54158578D01*
X54158578Y-54500000D01*
X30841422Y-54500000D01*
X30500000Y-54158578D01*
X30500000Y-49743922D01*
X32400000Y-49743922D01*
X32400000Y-50256078D01*
X32499917Y-50758392D01*
X32695910Y-51231562D01*
X32980448Y-51657403D01*
X33342597Y-52019552D01*
X33768438Y-52304090D01*
X34241608Y-52500083D01*
X34743922Y-52600000D01*
X35256078Y-52600000D01*
X35758392Y-52500083D01*
X36231562Y-52304090D01*
X36657403Y-52019552D01*
X37019552Y-51657403D01*
X37304090Y-51231562D01*
X37500083Y-50758392D01*
X37600000Y-50256078D01*
X37600000Y-49743922D01*
X37500083Y-49241608D01*
X37304090Y-48768438D01*
X37019552Y-48342597D01*
X36657403Y-47980448D01*
X36231562Y-47695910D01*
X35758392Y-47499917D01*
X35650000Y-47478356D01*
X35650000Y-47157969D01*
X37219522Y-45588447D01*
X37188660Y-45646186D01*
X37165788Y-45721586D01*
X37158065Y-45800000D01*
X37158065Y-47800000D01*
X37165788Y-47878414D01*
X37188660Y-47953814D01*
X37225803Y-48023303D01*
X37275789Y-48084211D01*
X37336697Y-48134197D01*
X37406186Y-48171340D01*
X37481586Y-48194212D01*
X37560000Y-48201935D01*
X38860000Y-48201935D01*
X38938414Y-48194212D01*
X39013814Y-48171340D01*
X39083303Y-48134197D01*
X39144211Y-48084211D01*
X39194197Y-48023303D01*
X39231340Y-47953814D01*
X39254212Y-47878414D01*
X39261935Y-47800000D01*
X39261935Y-45800000D01*
X39254212Y-45721586D01*
X39231340Y-45646186D01*
X39194197Y-45576697D01*
X39144211Y-45515789D01*
X39083303Y-45465803D01*
X39013814Y-45428660D01*
X38938414Y-45405788D01*
X38860000Y-45398065D01*
X37560000Y-45398065D01*
X37481586Y-45405788D01*
X37406186Y-45428660D01*
X37348447Y-45459522D01*
X38157970Y-44650000D01*
X40941932Y-44650000D01*
X41037422Y-44640595D01*
X41159948Y-44603427D01*
X41162739Y-44601935D01*
X41410000Y-44601935D01*
X41488414Y-44594212D01*
X41563814Y-44571340D01*
X41633303Y-44534197D01*
X41694211Y-44484211D01*
X41744197Y-44423303D01*
X41781340Y-44353814D01*
X41804212Y-44278414D01*
X41811935Y-44200000D01*
X41811935Y-43800000D01*
X41804212Y-43721586D01*
X41781340Y-43646186D01*
X41744197Y-43576697D01*
X41694211Y-43515789D01*
X41633303Y-43465803D01*
X41563814Y-43428660D01*
X41488414Y-43405788D01*
X41410000Y-43398065D01*
X41162739Y-43398065D01*
X41159948Y-43396573D01*
X41037422Y-43359405D01*
X40941932Y-43350000D01*
X37920655Y-43350000D01*
X37888731Y-43346856D01*
X37856807Y-43350000D01*
X37856799Y-43350000D01*
X37761309Y-43359405D01*
X37638783Y-43396573D01*
X37525863Y-43456930D01*
X37451691Y-43517801D01*
X37451688Y-43517804D01*
X37426888Y-43538157D01*
X37406535Y-43562957D01*
X34562962Y-46406531D01*
X34538157Y-46426888D01*
X34517802Y-46451691D01*
X34456930Y-46525863D01*
X34396574Y-46638783D01*
X34396573Y-46638784D01*
X34359405Y-46761310D01*
X34350000Y-46856800D01*
X34350000Y-46856810D01*
X34346856Y-46888731D01*
X34350000Y-46920653D01*
X34350000Y-47478356D01*
X34241608Y-47499917D01*
X33768438Y-47695910D01*
X33342597Y-47980448D01*
X32980448Y-48342597D01*
X32695910Y-48768438D01*
X32499917Y-49241608D01*
X32400000Y-49743922D01*
X30500000Y-49743922D01*
X30500000Y-34743922D01*
X32400000Y-34743922D01*
X32400000Y-35256078D01*
X32499917Y-35758392D01*
X32695910Y-36231562D01*
X32980448Y-36657403D01*
X33342597Y-37019552D01*
X33768438Y-37304090D01*
X34241608Y-37500083D01*
X34350000Y-37521644D01*
X34350000Y-38079347D01*
X34346856Y-38111269D01*
X34350000Y-38143190D01*
X34350000Y-38143200D01*
X34359405Y-38238690D01*
X34392470Y-38347691D01*
X34396573Y-38361216D01*
X34456930Y-38474137D01*
X34507369Y-38535597D01*
X34538157Y-38573112D01*
X34562962Y-38593469D01*
X38406535Y-42437043D01*
X38426888Y-42461843D01*
X38451688Y-42482196D01*
X38451690Y-42482198D01*
X38454143Y-42484211D01*
X38525863Y-42543070D01*
X38638783Y-42603427D01*
X38761309Y-42640595D01*
X38856799Y-42650000D01*
X38856809Y-42650000D01*
X38888730Y-42653144D01*
X38920651Y-42650000D01*
X40941932Y-42650000D01*
X41037422Y-42640595D01*
X41159948Y-42603427D01*
X41162739Y-42601935D01*
X41410000Y-42601935D01*
X41488414Y-42594212D01*
X41563814Y-42571340D01*
X41633303Y-42534197D01*
X41694211Y-42484211D01*
X41744197Y-42423303D01*
X41781340Y-42353814D01*
X41804212Y-42278414D01*
X41811935Y-42200000D01*
X41811935Y-41800000D01*
X41804212Y-41721586D01*
X41782497Y-41650000D01*
X42498065Y-41650000D01*
X42498065Y-41650001D01*
X42510592Y-41777187D01*
X42547691Y-41899485D01*
X42607936Y-42012196D01*
X42689012Y-42110988D01*
X42787804Y-42192064D01*
X42900515Y-42252309D01*
X43022813Y-42289408D01*
X43149999Y-42301935D01*
X44050001Y-42301935D01*
X44177187Y-42289408D01*
X44299485Y-42252309D01*
X44412196Y-42192064D01*
X44510988Y-42110988D01*
X44592064Y-42012196D01*
X44611946Y-41975000D01*
X45488054Y-41975000D01*
X45507936Y-42012196D01*
X45589012Y-42110988D01*
X45687804Y-42192064D01*
X45800515Y-42252309D01*
X45922813Y-42289408D01*
X46049999Y-42301935D01*
X46557697Y-42301935D01*
X48303065Y-44047304D01*
X48303065Y-45132500D01*
X48314583Y-45249444D01*
X48348694Y-45361894D01*
X48404088Y-45465528D01*
X48478635Y-45556365D01*
X48569472Y-45630912D01*
X48673106Y-45686306D01*
X48766212Y-45714549D01*
X45301935Y-49178827D01*
X45301935Y-48400000D01*
X45294212Y-48321586D01*
X45271340Y-48246186D01*
X45234197Y-48176697D01*
X45184211Y-48115789D01*
X45123303Y-48065803D01*
X45053814Y-48028660D01*
X44978414Y-48005788D01*
X44950000Y-48002990D01*
X44950000Y-47225308D01*
X45012196Y-47192064D01*
X45110988Y-47110988D01*
X45192064Y-47012196D01*
X45252309Y-46899485D01*
X45289408Y-46777187D01*
X45301935Y-46650001D01*
X45301935Y-45999999D01*
X45289408Y-45872813D01*
X45252309Y-45750515D01*
X45192064Y-45637804D01*
X45110988Y-45539012D01*
X45012196Y-45457936D01*
X44899485Y-45397691D01*
X44777187Y-45360592D01*
X44650001Y-45348065D01*
X43749999Y-45348065D01*
X43622813Y-45360592D01*
X43500515Y-45397691D01*
X43387804Y-45457936D01*
X43289012Y-45539012D01*
X43207936Y-45637804D01*
X43147691Y-45750515D01*
X43110592Y-45872813D01*
X43098065Y-45999999D01*
X43098065Y-46650001D01*
X43110592Y-46777187D01*
X43147691Y-46899485D01*
X43207936Y-47012196D01*
X43289012Y-47110988D01*
X43387804Y-47192064D01*
X43500515Y-47252309D01*
X43622813Y-47289408D01*
X43650001Y-47292086D01*
X43650000Y-48002989D01*
X43621586Y-48005788D01*
X43546186Y-48028660D01*
X43476697Y-48065803D01*
X43415789Y-48115789D01*
X43365803Y-48176697D01*
X43328660Y-48246186D01*
X43305788Y-48321586D01*
X43302990Y-48350000D01*
X42081924Y-48350000D01*
X42050000Y-48346856D01*
X42018076Y-48350000D01*
X42018068Y-48350000D01*
X41922578Y-48359405D01*
X41800052Y-48396573D01*
X41687132Y-48456930D01*
X41612960Y-48517801D01*
X41612957Y-48517804D01*
X41588157Y-48538157D01*
X41567804Y-48562957D01*
X41332696Y-48798065D01*
X40300000Y-48798065D01*
X40221586Y-48805788D01*
X40146186Y-48828660D01*
X40076697Y-48865803D01*
X40015789Y-48915789D01*
X39965803Y-48976697D01*
X39928660Y-49046186D01*
X39905788Y-49121586D01*
X39898065Y-49200000D01*
X39898065Y-50800000D01*
X39905788Y-50878414D01*
X39928660Y-50953814D01*
X39965803Y-51023303D01*
X40015789Y-51084211D01*
X40076697Y-51134197D01*
X40146186Y-51171340D01*
X40221586Y-51194212D01*
X40300000Y-51201935D01*
X41800000Y-51201935D01*
X41878414Y-51194212D01*
X41953814Y-51171340D01*
X42023303Y-51134197D01*
X42084211Y-51084211D01*
X42134197Y-51023303D01*
X42171340Y-50953814D01*
X42194212Y-50878414D01*
X42201935Y-50800000D01*
X42201935Y-49767304D01*
X42319239Y-49650000D01*
X43302990Y-49650000D01*
X43305788Y-49678414D01*
X43328660Y-49753814D01*
X43365803Y-49823303D01*
X43415789Y-49884211D01*
X43476697Y-49934197D01*
X43546186Y-49971340D01*
X43621586Y-49994212D01*
X43680353Y-50000000D01*
X43621586Y-50005788D01*
X43546186Y-50028660D01*
X43476697Y-50065803D01*
X43415789Y-50115789D01*
X43365803Y-50176697D01*
X43328660Y-50246186D01*
X43305788Y-50321586D01*
X43298065Y-50400000D01*
X43298065Y-51600000D01*
X43305788Y-51678414D01*
X43328660Y-51753814D01*
X43365803Y-51823303D01*
X43415789Y-51884211D01*
X43476697Y-51934197D01*
X43546186Y-51971340D01*
X43621586Y-51994212D01*
X43700000Y-52001935D01*
X44900000Y-52001935D01*
X44978414Y-51994212D01*
X45053814Y-51971340D01*
X45123303Y-51934197D01*
X45184211Y-51884211D01*
X45234197Y-51823303D01*
X45271340Y-51753814D01*
X45294212Y-51678414D01*
X45301935Y-51600000D01*
X45301935Y-51017303D01*
X50597632Y-45721606D01*
X50702500Y-45731935D01*
X51097500Y-45731935D01*
X51214444Y-45720417D01*
X51326894Y-45686306D01*
X51430528Y-45630912D01*
X51521365Y-45556365D01*
X51549999Y-45521473D01*
X51549999Y-47530762D01*
X51323452Y-47757309D01*
X51231562Y-47695910D01*
X50758392Y-47499917D01*
X50256078Y-47400000D01*
X49743922Y-47400000D01*
X49241608Y-47499917D01*
X48768438Y-47695910D01*
X48342597Y-47980448D01*
X47980448Y-48342597D01*
X47695910Y-48768438D01*
X47499917Y-49241608D01*
X47400000Y-49743922D01*
X47400000Y-50256078D01*
X47499917Y-50758392D01*
X47695910Y-51231562D01*
X47980448Y-51657403D01*
X48342597Y-52019552D01*
X48768438Y-52304090D01*
X49241608Y-52500083D01*
X49743922Y-52600000D01*
X50256078Y-52600000D01*
X50758392Y-52500083D01*
X51231562Y-52304090D01*
X51657403Y-52019552D01*
X52019552Y-51657403D01*
X52304090Y-51231562D01*
X52500083Y-50758392D01*
X52600000Y-50256078D01*
X52600000Y-49743922D01*
X52500083Y-49241608D01*
X52304090Y-48768438D01*
X52242691Y-48676548D01*
X52637044Y-48282195D01*
X52661842Y-48261844D01*
X52743069Y-48162869D01*
X52803426Y-48049949D01*
X52840594Y-47927423D01*
X52849999Y-47831933D01*
X52849999Y-47831923D01*
X52853143Y-47800002D01*
X52849999Y-47768081D01*
X52849999Y-41831923D01*
X52853143Y-41799999D01*
X52849999Y-41768075D01*
X52849999Y-41768067D01*
X52840594Y-41672577D01*
X52803426Y-41550051D01*
X52743069Y-41437131D01*
X52661842Y-41338156D01*
X52637037Y-41317799D01*
X51847913Y-40528675D01*
X51847908Y-40528669D01*
X51696935Y-40377696D01*
X51696935Y-39867500D01*
X51685417Y-39750556D01*
X51651306Y-39638106D01*
X51595912Y-39534472D01*
X51521365Y-39443635D01*
X51430528Y-39369088D01*
X51326894Y-39313694D01*
X51214444Y-39279583D01*
X51097500Y-39268065D01*
X50702500Y-39268065D01*
X50585556Y-39279583D01*
X50473106Y-39313694D01*
X50369472Y-39369088D01*
X50278635Y-39443635D01*
X50204088Y-39534472D01*
X50148694Y-39638106D01*
X50114583Y-39750556D01*
X50103065Y-39867500D01*
X50103065Y-41132500D01*
X50114583Y-41249444D01*
X50148694Y-41361894D01*
X50204088Y-41465528D01*
X50278635Y-41556365D01*
X50369472Y-41630912D01*
X50473106Y-41686306D01*
X50585556Y-41720417D01*
X50702500Y-41731935D01*
X51097500Y-41731935D01*
X51202368Y-41721606D01*
X51550000Y-42069238D01*
X51550000Y-43478527D01*
X51521365Y-43443635D01*
X51430528Y-43369088D01*
X51326894Y-43313694D01*
X51214444Y-43279583D01*
X51097500Y-43268065D01*
X50702500Y-43268065D01*
X50585556Y-43279583D01*
X50473106Y-43313694D01*
X50369472Y-43369088D01*
X50278635Y-43443635D01*
X50204088Y-43534472D01*
X50148694Y-43638106D01*
X50114583Y-43750556D01*
X50103065Y-43867500D01*
X50103065Y-44377696D01*
X49896935Y-44583826D01*
X49896935Y-43867500D01*
X49885417Y-43750556D01*
X49851306Y-43638106D01*
X49795912Y-43534472D01*
X49721365Y-43443635D01*
X49630528Y-43369088D01*
X49526894Y-43313694D01*
X49414444Y-43279583D01*
X49369384Y-43275145D01*
X47601935Y-41507697D01*
X47601935Y-40999999D01*
X47589408Y-40872813D01*
X47552309Y-40750515D01*
X47492064Y-40637804D01*
X47410988Y-40539012D01*
X47312196Y-40457936D01*
X47199485Y-40397691D01*
X47077187Y-40360592D01*
X46950001Y-40348065D01*
X46049999Y-40348065D01*
X45922813Y-40360592D01*
X45800515Y-40397691D01*
X45687804Y-40457936D01*
X45589012Y-40539012D01*
X45507936Y-40637804D01*
X45488054Y-40675000D01*
X44611946Y-40675000D01*
X44592064Y-40637804D01*
X44510988Y-40539012D01*
X44412196Y-40457936D01*
X44299485Y-40397691D01*
X44177187Y-40360592D01*
X44050001Y-40348065D01*
X43287275Y-40348065D01*
X43275000Y-40346856D01*
X43262725Y-40348065D01*
X43149999Y-40348065D01*
X43130353Y-40350000D01*
X40878068Y-40350000D01*
X40782578Y-40359405D01*
X40660052Y-40396573D01*
X40657261Y-40398065D01*
X40410000Y-40398065D01*
X40331586Y-40405788D01*
X40256186Y-40428660D01*
X40186697Y-40465803D01*
X40125789Y-40515789D01*
X40075803Y-40576697D01*
X40038660Y-40646186D01*
X40015788Y-40721586D01*
X40008065Y-40800000D01*
X40008065Y-41200000D01*
X40015788Y-41278414D01*
X40037503Y-41350000D01*
X39157970Y-41350000D01*
X37348447Y-39540478D01*
X37406186Y-39571340D01*
X37481586Y-39594212D01*
X37560000Y-39601935D01*
X38860000Y-39601935D01*
X38938414Y-39594212D01*
X39013814Y-39571340D01*
X39083303Y-39534197D01*
X39144211Y-39484211D01*
X39194197Y-39423303D01*
X39231340Y-39353814D01*
X39254212Y-39278414D01*
X39261935Y-39200000D01*
X39261935Y-38949999D01*
X42498065Y-38949999D01*
X42498065Y-39600001D01*
X42510592Y-39727187D01*
X42547691Y-39849485D01*
X42607936Y-39962196D01*
X42689012Y-40060988D01*
X42787804Y-40142064D01*
X42900515Y-40202309D01*
X43022813Y-40239408D01*
X43149999Y-40251935D01*
X44050001Y-40251935D01*
X44177187Y-40239408D01*
X44299485Y-40202309D01*
X44412196Y-40142064D01*
X44510988Y-40060988D01*
X44592064Y-39962196D01*
X44611946Y-39925000D01*
X45488054Y-39925000D01*
X45507936Y-39962196D01*
X45589012Y-40060988D01*
X45687804Y-40142064D01*
X45800515Y-40202309D01*
X45922813Y-40239408D01*
X46049999Y-40251935D01*
X46950001Y-40251935D01*
X47077187Y-40239408D01*
X47199485Y-40202309D01*
X47312196Y-40142064D01*
X47410988Y-40060988D01*
X47492064Y-39962196D01*
X47552309Y-39849485D01*
X47589408Y-39727187D01*
X47601935Y-39600001D01*
X47601935Y-38949999D01*
X47589408Y-38822813D01*
X47552309Y-38700515D01*
X47492064Y-38587804D01*
X47419660Y-38499578D01*
X48676548Y-37242691D01*
X48768438Y-37304090D01*
X49241608Y-37500083D01*
X49743922Y-37600000D01*
X50256078Y-37600000D01*
X50758392Y-37500083D01*
X51231562Y-37304090D01*
X51657403Y-37019552D01*
X52019552Y-36657403D01*
X52304090Y-36231562D01*
X52500083Y-35758392D01*
X52600000Y-35256078D01*
X52600000Y-34743922D01*
X52500083Y-34241608D01*
X52304090Y-33768438D01*
X52019552Y-33342597D01*
X51657403Y-32980448D01*
X51231562Y-32695910D01*
X50758392Y-32499917D01*
X50256078Y-32400000D01*
X49743922Y-32400000D01*
X49241608Y-32499917D01*
X48768438Y-32695910D01*
X48342597Y-32980448D01*
X47980448Y-33342597D01*
X47695910Y-33768438D01*
X47499917Y-34241608D01*
X47478356Y-34350000D01*
X46967320Y-34350000D01*
X46952309Y-34300515D01*
X46892064Y-34187804D01*
X46810988Y-34089012D01*
X46712196Y-34007936D01*
X46599485Y-33947691D01*
X46477187Y-33910592D01*
X46350001Y-33898065D01*
X45699999Y-33898065D01*
X45572813Y-33910592D01*
X45450515Y-33947691D01*
X45337804Y-34007936D01*
X45239012Y-34089012D01*
X45157936Y-34187804D01*
X45097691Y-34300515D01*
X45060592Y-34422813D01*
X45048065Y-34549999D01*
X45048065Y-35450001D01*
X45060592Y-35577187D01*
X45097691Y-35699485D01*
X45157936Y-35812196D01*
X45239012Y-35910988D01*
X45337804Y-35992064D01*
X45450515Y-36052309D01*
X45572813Y-36089408D01*
X45699999Y-36101935D01*
X46350001Y-36101935D01*
X46477187Y-36089408D01*
X46599485Y-36052309D01*
X46712196Y-35992064D01*
X46810988Y-35910988D01*
X46892064Y-35812196D01*
X46952309Y-35699485D01*
X46967320Y-35650000D01*
X47478356Y-35650000D01*
X47499917Y-35758392D01*
X47695910Y-36231562D01*
X47757309Y-36323452D01*
X46062957Y-38017805D01*
X46038158Y-38038157D01*
X46017805Y-38062957D01*
X46017802Y-38062960D01*
X45956930Y-38137132D01*
X45896573Y-38250053D01*
X45882009Y-38298065D01*
X45873688Y-38325494D01*
X45800515Y-38347691D01*
X45687804Y-38407936D01*
X45589012Y-38489012D01*
X45507936Y-38587804D01*
X45488054Y-38625000D01*
X44611946Y-38625000D01*
X44592064Y-38587804D01*
X44510988Y-38489012D01*
X44412196Y-38407936D01*
X44299485Y-38347691D01*
X44177187Y-38310592D01*
X44050001Y-38298065D01*
X43149999Y-38298065D01*
X43022813Y-38310592D01*
X42900515Y-38347691D01*
X42787804Y-38407936D01*
X42689012Y-38489012D01*
X42607936Y-38587804D01*
X42547691Y-38700515D01*
X42510592Y-38822813D01*
X42498065Y-38949999D01*
X39261935Y-38949999D01*
X39261935Y-37200000D01*
X39254212Y-37121586D01*
X39231340Y-37046186D01*
X39194197Y-36976697D01*
X39144211Y-36915789D01*
X39083303Y-36865803D01*
X39013814Y-36828660D01*
X38938414Y-36805788D01*
X38860000Y-36798065D01*
X37560000Y-36798065D01*
X37481586Y-36805788D01*
X37406186Y-36828660D01*
X37336697Y-36865803D01*
X37275789Y-36915789D01*
X37225803Y-36976697D01*
X37188660Y-37046186D01*
X37165788Y-37121586D01*
X37158065Y-37200000D01*
X37158065Y-39200000D01*
X37165788Y-39278414D01*
X37188660Y-39353814D01*
X37219522Y-39411553D01*
X35650000Y-37842031D01*
X35650000Y-37521644D01*
X35758392Y-37500083D01*
X36231562Y-37304090D01*
X36657403Y-37019552D01*
X37019552Y-36657403D01*
X37304090Y-36231562D01*
X37500083Y-35758392D01*
X37521644Y-35650000D01*
X38093444Y-35650000D01*
X38164012Y-35735988D01*
X38262804Y-35817064D01*
X38375515Y-35877309D01*
X38497813Y-35914408D01*
X38624999Y-35926935D01*
X39425001Y-35926935D01*
X39552187Y-35914408D01*
X39674485Y-35877309D01*
X39787196Y-35817064D01*
X39885988Y-35735988D01*
X39967064Y-35637196D01*
X40027309Y-35524485D01*
X40064408Y-35402187D01*
X40076935Y-35275001D01*
X40076935Y-34724999D01*
X40064408Y-34597813D01*
X40027309Y-34475515D01*
X39967064Y-34362804D01*
X39885988Y-34264012D01*
X39787196Y-34182936D01*
X39674485Y-34122691D01*
X39552187Y-34085592D01*
X39425001Y-34073065D01*
X38624999Y-34073065D01*
X38497813Y-34085592D01*
X38375515Y-34122691D01*
X38262804Y-34182936D01*
X38164012Y-34264012D01*
X38093444Y-34350000D01*
X37521644Y-34350000D01*
X37500083Y-34241608D01*
X37304090Y-33768438D01*
X37019552Y-33342597D01*
X36657403Y-32980448D01*
X36231562Y-32695910D01*
X35758392Y-32499917D01*
X35256078Y-32400000D01*
X34743922Y-32400000D01*
X34241608Y-32499917D01*
X33768438Y-32695910D01*
X33342597Y-32980448D01*
X32980448Y-33342597D01*
X32695910Y-33768438D01*
X32499917Y-34241608D01*
X32400000Y-34743922D01*
X30500000Y-34743922D01*
X30500000Y-30841422D01*
X30841422Y-30500000D01*
X54158578Y-30500000D01*
X54500000Y-30841422D01*
X54500000Y-30841422D01*
G37*
X54500000Y-30841422D02*
X54500000Y-54158578D01*
X54158578Y-54500000D01*
X30841422Y-54500000D01*
X30500000Y-54158578D01*
X30500000Y-49743922D01*
X32400000Y-49743922D01*
X32400000Y-50256078D01*
X32499917Y-50758392D01*
X32695910Y-51231562D01*
X32980448Y-51657403D01*
X33342597Y-52019552D01*
X33768438Y-52304090D01*
X34241608Y-52500083D01*
X34743922Y-52600000D01*
X35256078Y-52600000D01*
X35758392Y-52500083D01*
X36231562Y-52304090D01*
X36657403Y-52019552D01*
X37019552Y-51657403D01*
X37304090Y-51231562D01*
X37500083Y-50758392D01*
X37600000Y-50256078D01*
X37600000Y-49743922D01*
X37500083Y-49241608D01*
X37304090Y-48768438D01*
X37019552Y-48342597D01*
X36657403Y-47980448D01*
X36231562Y-47695910D01*
X35758392Y-47499917D01*
X35650000Y-47478356D01*
X35650000Y-47157969D01*
X37219522Y-45588447D01*
X37188660Y-45646186D01*
X37165788Y-45721586D01*
X37158065Y-45800000D01*
X37158065Y-47800000D01*
X37165788Y-47878414D01*
X37188660Y-47953814D01*
X37225803Y-48023303D01*
X37275789Y-48084211D01*
X37336697Y-48134197D01*
X37406186Y-48171340D01*
X37481586Y-48194212D01*
X37560000Y-48201935D01*
X38860000Y-48201935D01*
X38938414Y-48194212D01*
X39013814Y-48171340D01*
X39083303Y-48134197D01*
X39144211Y-48084211D01*
X39194197Y-48023303D01*
X39231340Y-47953814D01*
X39254212Y-47878414D01*
X39261935Y-47800000D01*
X39261935Y-45800000D01*
X39254212Y-45721586D01*
X39231340Y-45646186D01*
X39194197Y-45576697D01*
X39144211Y-45515789D01*
X39083303Y-45465803D01*
X39013814Y-45428660D01*
X38938414Y-45405788D01*
X38860000Y-45398065D01*
X37560000Y-45398065D01*
X37481586Y-45405788D01*
X37406186Y-45428660D01*
X37348447Y-45459522D01*
X38157970Y-44650000D01*
X40941932Y-44650000D01*
X41037422Y-44640595D01*
X41159948Y-44603427D01*
X41162739Y-44601935D01*
X41410000Y-44601935D01*
X41488414Y-44594212D01*
X41563814Y-44571340D01*
X41633303Y-44534197D01*
X41694211Y-44484211D01*
X41744197Y-44423303D01*
X41781340Y-44353814D01*
X41804212Y-44278414D01*
X41811935Y-44200000D01*
X41811935Y-43800000D01*
X41804212Y-43721586D01*
X41781340Y-43646186D01*
X41744197Y-43576697D01*
X41694211Y-43515789D01*
X41633303Y-43465803D01*
X41563814Y-43428660D01*
X41488414Y-43405788D01*
X41410000Y-43398065D01*
X41162739Y-43398065D01*
X41159948Y-43396573D01*
X41037422Y-43359405D01*
X40941932Y-43350000D01*
X37920655Y-43350000D01*
X37888731Y-43346856D01*
X37856807Y-43350000D01*
X37856799Y-43350000D01*
X37761309Y-43359405D01*
X37638783Y-43396573D01*
X37525863Y-43456930D01*
X37451691Y-43517801D01*
X37451688Y-43517804D01*
X37426888Y-43538157D01*
X37406535Y-43562957D01*
X34562962Y-46406531D01*
X34538157Y-46426888D01*
X34517802Y-46451691D01*
X34456930Y-46525863D01*
X34396574Y-46638783D01*
X34396573Y-46638784D01*
X34359405Y-46761310D01*
X34350000Y-46856800D01*
X34350000Y-46856810D01*
X34346856Y-46888731D01*
X34350000Y-46920653D01*
X34350000Y-47478356D01*
X34241608Y-47499917D01*
X33768438Y-47695910D01*
X33342597Y-47980448D01*
X32980448Y-48342597D01*
X32695910Y-48768438D01*
X32499917Y-49241608D01*
X32400000Y-49743922D01*
X30500000Y-49743922D01*
X30500000Y-34743922D01*
X32400000Y-34743922D01*
X32400000Y-35256078D01*
X32499917Y-35758392D01*
X32695910Y-36231562D01*
X32980448Y-36657403D01*
X33342597Y-37019552D01*
X33768438Y-37304090D01*
X34241608Y-37500083D01*
X34350000Y-37521644D01*
X34350000Y-38079347D01*
X34346856Y-38111269D01*
X34350000Y-38143190D01*
X34350000Y-38143200D01*
X34359405Y-38238690D01*
X34392470Y-38347691D01*
X34396573Y-38361216D01*
X34456930Y-38474137D01*
X34507369Y-38535597D01*
X34538157Y-38573112D01*
X34562962Y-38593469D01*
X38406535Y-42437043D01*
X38426888Y-42461843D01*
X38451688Y-42482196D01*
X38451690Y-42482198D01*
X38454143Y-42484211D01*
X38525863Y-42543070D01*
X38638783Y-42603427D01*
X38761309Y-42640595D01*
X38856799Y-42650000D01*
X38856809Y-42650000D01*
X38888730Y-42653144D01*
X38920651Y-42650000D01*
X40941932Y-42650000D01*
X41037422Y-42640595D01*
X41159948Y-42603427D01*
X41162739Y-42601935D01*
X41410000Y-42601935D01*
X41488414Y-42594212D01*
X41563814Y-42571340D01*
X41633303Y-42534197D01*
X41694211Y-42484211D01*
X41744197Y-42423303D01*
X41781340Y-42353814D01*
X41804212Y-42278414D01*
X41811935Y-42200000D01*
X41811935Y-41800000D01*
X41804212Y-41721586D01*
X41782497Y-41650000D01*
X42498065Y-41650000D01*
X42498065Y-41650001D01*
X42510592Y-41777187D01*
X42547691Y-41899485D01*
X42607936Y-42012196D01*
X42689012Y-42110988D01*
X42787804Y-42192064D01*
X42900515Y-42252309D01*
X43022813Y-42289408D01*
X43149999Y-42301935D01*
X44050001Y-42301935D01*
X44177187Y-42289408D01*
X44299485Y-42252309D01*
X44412196Y-42192064D01*
X44510988Y-42110988D01*
X44592064Y-42012196D01*
X44611946Y-41975000D01*
X45488054Y-41975000D01*
X45507936Y-42012196D01*
X45589012Y-42110988D01*
X45687804Y-42192064D01*
X45800515Y-42252309D01*
X45922813Y-42289408D01*
X46049999Y-42301935D01*
X46557697Y-42301935D01*
X48303065Y-44047304D01*
X48303065Y-45132500D01*
X48314583Y-45249444D01*
X48348694Y-45361894D01*
X48404088Y-45465528D01*
X48478635Y-45556365D01*
X48569472Y-45630912D01*
X48673106Y-45686306D01*
X48766212Y-45714549D01*
X45301935Y-49178827D01*
X45301935Y-48400000D01*
X45294212Y-48321586D01*
X45271340Y-48246186D01*
X45234197Y-48176697D01*
X45184211Y-48115789D01*
X45123303Y-48065803D01*
X45053814Y-48028660D01*
X44978414Y-48005788D01*
X44950000Y-48002990D01*
X44950000Y-47225308D01*
X45012196Y-47192064D01*
X45110988Y-47110988D01*
X45192064Y-47012196D01*
X45252309Y-46899485D01*
X45289408Y-46777187D01*
X45301935Y-46650001D01*
X45301935Y-45999999D01*
X45289408Y-45872813D01*
X45252309Y-45750515D01*
X45192064Y-45637804D01*
X45110988Y-45539012D01*
X45012196Y-45457936D01*
X44899485Y-45397691D01*
X44777187Y-45360592D01*
X44650001Y-45348065D01*
X43749999Y-45348065D01*
X43622813Y-45360592D01*
X43500515Y-45397691D01*
X43387804Y-45457936D01*
X43289012Y-45539012D01*
X43207936Y-45637804D01*
X43147691Y-45750515D01*
X43110592Y-45872813D01*
X43098065Y-45999999D01*
X43098065Y-46650001D01*
X43110592Y-46777187D01*
X43147691Y-46899485D01*
X43207936Y-47012196D01*
X43289012Y-47110988D01*
X43387804Y-47192064D01*
X43500515Y-47252309D01*
X43622813Y-47289408D01*
X43650001Y-47292086D01*
X43650000Y-48002989D01*
X43621586Y-48005788D01*
X43546186Y-48028660D01*
X43476697Y-48065803D01*
X43415789Y-48115789D01*
X43365803Y-48176697D01*
X43328660Y-48246186D01*
X43305788Y-48321586D01*
X43302990Y-48350000D01*
X42081924Y-48350000D01*
X42050000Y-48346856D01*
X42018076Y-48350000D01*
X42018068Y-48350000D01*
X41922578Y-48359405D01*
X41800052Y-48396573D01*
X41687132Y-48456930D01*
X41612960Y-48517801D01*
X41612957Y-48517804D01*
X41588157Y-48538157D01*
X41567804Y-48562957D01*
X41332696Y-48798065D01*
X40300000Y-48798065D01*
X40221586Y-48805788D01*
X40146186Y-48828660D01*
X40076697Y-48865803D01*
X40015789Y-48915789D01*
X39965803Y-48976697D01*
X39928660Y-49046186D01*
X39905788Y-49121586D01*
X39898065Y-49200000D01*
X39898065Y-50800000D01*
X39905788Y-50878414D01*
X39928660Y-50953814D01*
X39965803Y-51023303D01*
X40015789Y-51084211D01*
X40076697Y-51134197D01*
X40146186Y-51171340D01*
X40221586Y-51194212D01*
X40300000Y-51201935D01*
X41800000Y-51201935D01*
X41878414Y-51194212D01*
X41953814Y-51171340D01*
X42023303Y-51134197D01*
X42084211Y-51084211D01*
X42134197Y-51023303D01*
X42171340Y-50953814D01*
X42194212Y-50878414D01*
X42201935Y-50800000D01*
X42201935Y-49767304D01*
X42319239Y-49650000D01*
X43302990Y-49650000D01*
X43305788Y-49678414D01*
X43328660Y-49753814D01*
X43365803Y-49823303D01*
X43415789Y-49884211D01*
X43476697Y-49934197D01*
X43546186Y-49971340D01*
X43621586Y-49994212D01*
X43680353Y-50000000D01*
X43621586Y-50005788D01*
X43546186Y-50028660D01*
X43476697Y-50065803D01*
X43415789Y-50115789D01*
X43365803Y-50176697D01*
X43328660Y-50246186D01*
X43305788Y-50321586D01*
X43298065Y-50400000D01*
X43298065Y-51600000D01*
X43305788Y-51678414D01*
X43328660Y-51753814D01*
X43365803Y-51823303D01*
X43415789Y-51884211D01*
X43476697Y-51934197D01*
X43546186Y-51971340D01*
X43621586Y-51994212D01*
X43700000Y-52001935D01*
X44900000Y-52001935D01*
X44978414Y-51994212D01*
X45053814Y-51971340D01*
X45123303Y-51934197D01*
X45184211Y-51884211D01*
X45234197Y-51823303D01*
X45271340Y-51753814D01*
X45294212Y-51678414D01*
X45301935Y-51600000D01*
X45301935Y-51017303D01*
X50597632Y-45721606D01*
X50702500Y-45731935D01*
X51097500Y-45731935D01*
X51214444Y-45720417D01*
X51326894Y-45686306D01*
X51430528Y-45630912D01*
X51521365Y-45556365D01*
X51549999Y-45521473D01*
X51549999Y-47530762D01*
X51323452Y-47757309D01*
X51231562Y-47695910D01*
X50758392Y-47499917D01*
X50256078Y-47400000D01*
X49743922Y-47400000D01*
X49241608Y-47499917D01*
X48768438Y-47695910D01*
X48342597Y-47980448D01*
X47980448Y-48342597D01*
X47695910Y-48768438D01*
X47499917Y-49241608D01*
X47400000Y-49743922D01*
X47400000Y-50256078D01*
X47499917Y-50758392D01*
X47695910Y-51231562D01*
X47980448Y-51657403D01*
X48342597Y-52019552D01*
X48768438Y-52304090D01*
X49241608Y-52500083D01*
X49743922Y-52600000D01*
X50256078Y-52600000D01*
X50758392Y-52500083D01*
X51231562Y-52304090D01*
X51657403Y-52019552D01*
X52019552Y-51657403D01*
X52304090Y-51231562D01*
X52500083Y-50758392D01*
X52600000Y-50256078D01*
X52600000Y-49743922D01*
X52500083Y-49241608D01*
X52304090Y-48768438D01*
X52242691Y-48676548D01*
X52637044Y-48282195D01*
X52661842Y-48261844D01*
X52743069Y-48162869D01*
X52803426Y-48049949D01*
X52840594Y-47927423D01*
X52849999Y-47831933D01*
X52849999Y-47831923D01*
X52853143Y-47800002D01*
X52849999Y-47768081D01*
X52849999Y-41831923D01*
X52853143Y-41799999D01*
X52849999Y-41768075D01*
X52849999Y-41768067D01*
X52840594Y-41672577D01*
X52803426Y-41550051D01*
X52743069Y-41437131D01*
X52661842Y-41338156D01*
X52637037Y-41317799D01*
X51847913Y-40528675D01*
X51847908Y-40528669D01*
X51696935Y-40377696D01*
X51696935Y-39867500D01*
X51685417Y-39750556D01*
X51651306Y-39638106D01*
X51595912Y-39534472D01*
X51521365Y-39443635D01*
X51430528Y-39369088D01*
X51326894Y-39313694D01*
X51214444Y-39279583D01*
X51097500Y-39268065D01*
X50702500Y-39268065D01*
X50585556Y-39279583D01*
X50473106Y-39313694D01*
X50369472Y-39369088D01*
X50278635Y-39443635D01*
X50204088Y-39534472D01*
X50148694Y-39638106D01*
X50114583Y-39750556D01*
X50103065Y-39867500D01*
X50103065Y-41132500D01*
X50114583Y-41249444D01*
X50148694Y-41361894D01*
X50204088Y-41465528D01*
X50278635Y-41556365D01*
X50369472Y-41630912D01*
X50473106Y-41686306D01*
X50585556Y-41720417D01*
X50702500Y-41731935D01*
X51097500Y-41731935D01*
X51202368Y-41721606D01*
X51550000Y-42069238D01*
X51550000Y-43478527D01*
X51521365Y-43443635D01*
X51430528Y-43369088D01*
X51326894Y-43313694D01*
X51214444Y-43279583D01*
X51097500Y-43268065D01*
X50702500Y-43268065D01*
X50585556Y-43279583D01*
X50473106Y-43313694D01*
X50369472Y-43369088D01*
X50278635Y-43443635D01*
X50204088Y-43534472D01*
X50148694Y-43638106D01*
X50114583Y-43750556D01*
X50103065Y-43867500D01*
X50103065Y-44377696D01*
X49896935Y-44583826D01*
X49896935Y-43867500D01*
X49885417Y-43750556D01*
X49851306Y-43638106D01*
X49795912Y-43534472D01*
X49721365Y-43443635D01*
X49630528Y-43369088D01*
X49526894Y-43313694D01*
X49414444Y-43279583D01*
X49369384Y-43275145D01*
X47601935Y-41507697D01*
X47601935Y-40999999D01*
X47589408Y-40872813D01*
X47552309Y-40750515D01*
X47492064Y-40637804D01*
X47410988Y-40539012D01*
X47312196Y-40457936D01*
X47199485Y-40397691D01*
X47077187Y-40360592D01*
X46950001Y-40348065D01*
X46049999Y-40348065D01*
X45922813Y-40360592D01*
X45800515Y-40397691D01*
X45687804Y-40457936D01*
X45589012Y-40539012D01*
X45507936Y-40637804D01*
X45488054Y-40675000D01*
X44611946Y-40675000D01*
X44592064Y-40637804D01*
X44510988Y-40539012D01*
X44412196Y-40457936D01*
X44299485Y-40397691D01*
X44177187Y-40360592D01*
X44050001Y-40348065D01*
X43287275Y-40348065D01*
X43275000Y-40346856D01*
X43262725Y-40348065D01*
X43149999Y-40348065D01*
X43130353Y-40350000D01*
X40878068Y-40350000D01*
X40782578Y-40359405D01*
X40660052Y-40396573D01*
X40657261Y-40398065D01*
X40410000Y-40398065D01*
X40331586Y-40405788D01*
X40256186Y-40428660D01*
X40186697Y-40465803D01*
X40125789Y-40515789D01*
X40075803Y-40576697D01*
X40038660Y-40646186D01*
X40015788Y-40721586D01*
X40008065Y-40800000D01*
X40008065Y-41200000D01*
X40015788Y-41278414D01*
X40037503Y-41350000D01*
X39157970Y-41350000D01*
X37348447Y-39540478D01*
X37406186Y-39571340D01*
X37481586Y-39594212D01*
X37560000Y-39601935D01*
X38860000Y-39601935D01*
X38938414Y-39594212D01*
X39013814Y-39571340D01*
X39083303Y-39534197D01*
X39144211Y-39484211D01*
X39194197Y-39423303D01*
X39231340Y-39353814D01*
X39254212Y-39278414D01*
X39261935Y-39200000D01*
X39261935Y-38949999D01*
X42498065Y-38949999D01*
X42498065Y-39600001D01*
X42510592Y-39727187D01*
X42547691Y-39849485D01*
X42607936Y-39962196D01*
X42689012Y-40060988D01*
X42787804Y-40142064D01*
X42900515Y-40202309D01*
X43022813Y-40239408D01*
X43149999Y-40251935D01*
X44050001Y-40251935D01*
X44177187Y-40239408D01*
X44299485Y-40202309D01*
X44412196Y-40142064D01*
X44510988Y-40060988D01*
X44592064Y-39962196D01*
X44611946Y-39925000D01*
X45488054Y-39925000D01*
X45507936Y-39962196D01*
X45589012Y-40060988D01*
X45687804Y-40142064D01*
X45800515Y-40202309D01*
X45922813Y-40239408D01*
X46049999Y-40251935D01*
X46950001Y-40251935D01*
X47077187Y-40239408D01*
X47199485Y-40202309D01*
X47312196Y-40142064D01*
X47410988Y-40060988D01*
X47492064Y-39962196D01*
X47552309Y-39849485D01*
X47589408Y-39727187D01*
X47601935Y-39600001D01*
X47601935Y-38949999D01*
X47589408Y-38822813D01*
X47552309Y-38700515D01*
X47492064Y-38587804D01*
X47419660Y-38499578D01*
X48676548Y-37242691D01*
X48768438Y-37304090D01*
X49241608Y-37500083D01*
X49743922Y-37600000D01*
X50256078Y-37600000D01*
X50758392Y-37500083D01*
X51231562Y-37304090D01*
X51657403Y-37019552D01*
X52019552Y-36657403D01*
X52304090Y-36231562D01*
X52500083Y-35758392D01*
X52600000Y-35256078D01*
X52600000Y-34743922D01*
X52500083Y-34241608D01*
X52304090Y-33768438D01*
X52019552Y-33342597D01*
X51657403Y-32980448D01*
X51231562Y-32695910D01*
X50758392Y-32499917D01*
X50256078Y-32400000D01*
X49743922Y-32400000D01*
X49241608Y-32499917D01*
X48768438Y-32695910D01*
X48342597Y-32980448D01*
X47980448Y-33342597D01*
X47695910Y-33768438D01*
X47499917Y-34241608D01*
X47478356Y-34350000D01*
X46967320Y-34350000D01*
X46952309Y-34300515D01*
X46892064Y-34187804D01*
X46810988Y-34089012D01*
X46712196Y-34007936D01*
X46599485Y-33947691D01*
X46477187Y-33910592D01*
X46350001Y-33898065D01*
X45699999Y-33898065D01*
X45572813Y-33910592D01*
X45450515Y-33947691D01*
X45337804Y-34007936D01*
X45239012Y-34089012D01*
X45157936Y-34187804D01*
X45097691Y-34300515D01*
X45060592Y-34422813D01*
X45048065Y-34549999D01*
X45048065Y-35450001D01*
X45060592Y-35577187D01*
X45097691Y-35699485D01*
X45157936Y-35812196D01*
X45239012Y-35910988D01*
X45337804Y-35992064D01*
X45450515Y-36052309D01*
X45572813Y-36089408D01*
X45699999Y-36101935D01*
X46350001Y-36101935D01*
X46477187Y-36089408D01*
X46599485Y-36052309D01*
X46712196Y-35992064D01*
X46810988Y-35910988D01*
X46892064Y-35812196D01*
X46952309Y-35699485D01*
X46967320Y-35650000D01*
X47478356Y-35650000D01*
X47499917Y-35758392D01*
X47695910Y-36231562D01*
X47757309Y-36323452D01*
X46062957Y-38017805D01*
X46038158Y-38038157D01*
X46017805Y-38062957D01*
X46017802Y-38062960D01*
X45956930Y-38137132D01*
X45896573Y-38250053D01*
X45882009Y-38298065D01*
X45873688Y-38325494D01*
X45800515Y-38347691D01*
X45687804Y-38407936D01*
X45589012Y-38489012D01*
X45507936Y-38587804D01*
X45488054Y-38625000D01*
X44611946Y-38625000D01*
X44592064Y-38587804D01*
X44510988Y-38489012D01*
X44412196Y-38407936D01*
X44299485Y-38347691D01*
X44177187Y-38310592D01*
X44050001Y-38298065D01*
X43149999Y-38298065D01*
X43022813Y-38310592D01*
X42900515Y-38347691D01*
X42787804Y-38407936D01*
X42689012Y-38489012D01*
X42607936Y-38587804D01*
X42547691Y-38700515D01*
X42510592Y-38822813D01*
X42498065Y-38949999D01*
X39261935Y-38949999D01*
X39261935Y-37200000D01*
X39254212Y-37121586D01*
X39231340Y-37046186D01*
X39194197Y-36976697D01*
X39144211Y-36915789D01*
X39083303Y-36865803D01*
X39013814Y-36828660D01*
X38938414Y-36805788D01*
X38860000Y-36798065D01*
X37560000Y-36798065D01*
X37481586Y-36805788D01*
X37406186Y-36828660D01*
X37336697Y-36865803D01*
X37275789Y-36915789D01*
X37225803Y-36976697D01*
X37188660Y-37046186D01*
X37165788Y-37121586D01*
X37158065Y-37200000D01*
X37158065Y-39200000D01*
X37165788Y-39278414D01*
X37188660Y-39353814D01*
X37219522Y-39411553D01*
X35650000Y-37842031D01*
X35650000Y-37521644D01*
X35758392Y-37500083D01*
X36231562Y-37304090D01*
X36657403Y-37019552D01*
X37019552Y-36657403D01*
X37304090Y-36231562D01*
X37500083Y-35758392D01*
X37521644Y-35650000D01*
X38093444Y-35650000D01*
X38164012Y-35735988D01*
X38262804Y-35817064D01*
X38375515Y-35877309D01*
X38497813Y-35914408D01*
X38624999Y-35926935D01*
X39425001Y-35926935D01*
X39552187Y-35914408D01*
X39674485Y-35877309D01*
X39787196Y-35817064D01*
X39885988Y-35735988D01*
X39967064Y-35637196D01*
X40027309Y-35524485D01*
X40064408Y-35402187D01*
X40076935Y-35275001D01*
X40076935Y-34724999D01*
X40064408Y-34597813D01*
X40027309Y-34475515D01*
X39967064Y-34362804D01*
X39885988Y-34264012D01*
X39787196Y-34182936D01*
X39674485Y-34122691D01*
X39552187Y-34085592D01*
X39425001Y-34073065D01*
X38624999Y-34073065D01*
X38497813Y-34085592D01*
X38375515Y-34122691D01*
X38262804Y-34182936D01*
X38164012Y-34264012D01*
X38093444Y-34350000D01*
X37521644Y-34350000D01*
X37500083Y-34241608D01*
X37304090Y-33768438D01*
X37019552Y-33342597D01*
X36657403Y-32980448D01*
X36231562Y-32695910D01*
X35758392Y-32499917D01*
X35256078Y-32400000D01*
X34743922Y-32400000D01*
X34241608Y-32499917D01*
X33768438Y-32695910D01*
X33342597Y-32980448D01*
X32980448Y-33342597D01*
X32695910Y-33768438D01*
X32499917Y-34241608D01*
X32400000Y-34743922D01*
X30500000Y-34743922D01*
X30500000Y-30841422D01*
X30841422Y-30500000D01*
X54158578Y-30500000D01*
X54500000Y-30841422D01*
M02*
