G04 #@! TF.GenerationSoftware,KiCad,Pcbnew,(5.1.2)-2*
G04 #@! TF.CreationDate,2019-07-30T15:23:34+02:00*
G04 #@! TF.ProjectId,sensor_auxiliary,73656e73-6f72-45f6-9175-78696c696172,1*
G04 #@! TF.SameCoordinates,Original*
G04 #@! TF.FileFunction,Soldermask,Bot*
G04 #@! TF.FilePolarity,Negative*
%FSLAX46Y46*%
G04 Gerber Fmt 4.6, Leading zero omitted, Abs format (unit mm)*
G04 Created by KiCad (PCBNEW (5.1.2)-2) date 2019-07-30 15:23:34*
%MOMM*%
%LPD*%
G04 APERTURE LIST*
%ADD10C,0.100000*%
G04 APERTURE END LIST*
D10*
G36*
X35275880Y-47759776D02*
G01*
X35656593Y-47835504D01*
X36066249Y-48005189D01*
X36434929Y-48251534D01*
X36748466Y-48565071D01*
X36994811Y-48933751D01*
X37164496Y-49343407D01*
X37251000Y-49778296D01*
X37251000Y-50221704D01*
X37164496Y-50656593D01*
X36994811Y-51066249D01*
X36748466Y-51434929D01*
X36434929Y-51748466D01*
X36066249Y-51994811D01*
X35656593Y-52164496D01*
X35275880Y-52240224D01*
X35221705Y-52251000D01*
X34778295Y-52251000D01*
X34724120Y-52240224D01*
X34343407Y-52164496D01*
X33933751Y-51994811D01*
X33565071Y-51748466D01*
X33251534Y-51434929D01*
X33005189Y-51066249D01*
X32835504Y-50656593D01*
X32749000Y-50221704D01*
X32749000Y-49778296D01*
X32835504Y-49343407D01*
X33005189Y-48933751D01*
X33251534Y-48565071D01*
X33565071Y-48251534D01*
X33933751Y-48005189D01*
X34343407Y-47835504D01*
X34724120Y-47759776D01*
X34778295Y-47749000D01*
X35221705Y-47749000D01*
X35275880Y-47759776D01*
X35275880Y-47759776D01*
G37*
G36*
X50275880Y-47759776D02*
G01*
X50656593Y-47835504D01*
X51066249Y-48005189D01*
X51434929Y-48251534D01*
X51748466Y-48565071D01*
X51994811Y-48933751D01*
X52164496Y-49343407D01*
X52251000Y-49778296D01*
X52251000Y-50221704D01*
X52164496Y-50656593D01*
X51994811Y-51066249D01*
X51748466Y-51434929D01*
X51434929Y-51748466D01*
X51066249Y-51994811D01*
X50656593Y-52164496D01*
X50275880Y-52240224D01*
X50221705Y-52251000D01*
X49778295Y-52251000D01*
X49724120Y-52240224D01*
X49343407Y-52164496D01*
X48933751Y-51994811D01*
X48565071Y-51748466D01*
X48251534Y-51434929D01*
X48005189Y-51066249D01*
X47835504Y-50656593D01*
X47749000Y-50221704D01*
X47749000Y-49778296D01*
X47835504Y-49343407D01*
X48005189Y-48933751D01*
X48251534Y-48565071D01*
X48565071Y-48251534D01*
X48933751Y-48005189D01*
X49343407Y-47835504D01*
X49724120Y-47759776D01*
X49778295Y-47749000D01*
X50221705Y-47749000D01*
X50275880Y-47759776D01*
X50275880Y-47759776D01*
G37*
G36*
X50275880Y-32759776D02*
G01*
X50656593Y-32835504D01*
X51066249Y-33005189D01*
X51434929Y-33251534D01*
X51748466Y-33565071D01*
X51994811Y-33933751D01*
X52164496Y-34343407D01*
X52251000Y-34778296D01*
X52251000Y-35221704D01*
X52164496Y-35656593D01*
X51994811Y-36066249D01*
X51748466Y-36434929D01*
X51434929Y-36748466D01*
X51066249Y-36994811D01*
X50656593Y-37164496D01*
X50275880Y-37240224D01*
X50221705Y-37251000D01*
X49778295Y-37251000D01*
X49724120Y-37240224D01*
X49343407Y-37164496D01*
X48933751Y-36994811D01*
X48565071Y-36748466D01*
X48251534Y-36434929D01*
X48005189Y-36066249D01*
X47835504Y-35656593D01*
X47749000Y-35221704D01*
X47749000Y-34778296D01*
X47835504Y-34343407D01*
X48005189Y-33933751D01*
X48251534Y-33565071D01*
X48565071Y-33251534D01*
X48933751Y-33005189D01*
X49343407Y-32835504D01*
X49724120Y-32759776D01*
X49778295Y-32749000D01*
X50221705Y-32749000D01*
X50275880Y-32759776D01*
X50275880Y-32759776D01*
G37*
G36*
X35275880Y-32759776D02*
G01*
X35656593Y-32835504D01*
X36066249Y-33005189D01*
X36434929Y-33251534D01*
X36748466Y-33565071D01*
X36994811Y-33933751D01*
X37164496Y-34343407D01*
X37251000Y-34778296D01*
X37251000Y-35221704D01*
X37164496Y-35656593D01*
X36994811Y-36066249D01*
X36748466Y-36434929D01*
X36434929Y-36748466D01*
X36066249Y-36994811D01*
X35656593Y-37164496D01*
X35275880Y-37240224D01*
X35221705Y-37251000D01*
X34778295Y-37251000D01*
X34724120Y-37240224D01*
X34343407Y-37164496D01*
X33933751Y-36994811D01*
X33565071Y-36748466D01*
X33251534Y-36434929D01*
X33005189Y-36066249D01*
X32835504Y-35656593D01*
X32749000Y-35221704D01*
X32749000Y-34778296D01*
X32835504Y-34343407D01*
X33005189Y-33933751D01*
X33251534Y-33565071D01*
X33565071Y-33251534D01*
X33933751Y-33005189D01*
X34343407Y-32835504D01*
X34724120Y-32759776D01*
X34778295Y-32749000D01*
X35221705Y-32749000D01*
X35275880Y-32759776D01*
X35275880Y-32759776D01*
G37*
M02*
