G04 #@! TF.GenerationSoftware,KiCad,Pcbnew,(5.1.2)-2*
G04 #@! TF.CreationDate,2019-07-29T19:51:13+02:00*
G04 #@! TF.ProjectId,sensor_auxiliary,73656e73-6f72-45f6-9175-78696c696172,1*
G04 #@! TF.SameCoordinates,Original*
G04 #@! TF.FileFunction,Legend,Bot*
G04 #@! TF.FilePolarity,Positive*
%FSLAX46Y46*%
G04 Gerber Fmt 4.6, Leading zero omitted, Abs format (unit mm)*
G04 Created by KiCad (PCBNEW (5.1.2)-2) date 2019-07-29 19:51:13*
%MOMM*%
%LPD*%
G04 APERTURE LIST*
%ADD10C,0.200000*%
%ADD11C,0.120000*%
%ADD12C,0.100000*%
%ADD13C,0.010000*%
%ADD14C,0.300000*%
G04 APERTURE END LIST*
D10*
X45900000Y-38800000D02*
X46900000Y-39800000D01*
X46900000Y-39800000D02*
X46200000Y-39600000D01*
X46900000Y-39800000D02*
X46700000Y-39100000D01*
X46400000Y-41100000D02*
X46200000Y-40400000D01*
X46400000Y-41100000D02*
X45700000Y-40900000D01*
X45400000Y-40100000D02*
X46400000Y-41100000D01*
X44250000Y-39600000D02*
X44250000Y-40800000D01*
D11*
X43250000Y-39600000D02*
X44250000Y-39600000D01*
D10*
X45250000Y-39600000D02*
X43250000Y-39600000D01*
X44250000Y-39600000D02*
X43250000Y-37600000D01*
X45250000Y-37600000D02*
X44250000Y-39600000D01*
X43250000Y-37600000D02*
X45250000Y-37600000D01*
X44250000Y-36400000D02*
X44250000Y-37600000D01*
D11*
X40100000Y-33300000D02*
X39600000Y-33800000D01*
X40100000Y-34050000D02*
X39600000Y-34550000D01*
X40100000Y-34800000D02*
X39600000Y-35300000D01*
X40100000Y-37050000D02*
X39600000Y-37550000D01*
X40100000Y-37800000D02*
X39600000Y-38300000D01*
X40100000Y-36300000D02*
X39600000Y-36800000D01*
X40100000Y-38550000D02*
X39600000Y-39050000D01*
X40100000Y-35550000D02*
X39600000Y-36050000D01*
X44100000Y-35300000D02*
G75*
G02X42850000Y-34050000I0J1250000D01*
G01*
X41600000Y-32800000D02*
G75*
G02X42850000Y-34050000I0J-1250000D01*
G01*
X44100000Y-35300000D02*
G75*
G02X44100000Y-42800000I0J-3750000D01*
G01*
X39600000Y-32800000D02*
X41600000Y-32800000D01*
X39600000Y-33300000D02*
X39600000Y-32800000D01*
X39600000Y-42800000D02*
X44100000Y-42800000D01*
X39600000Y-42300000D02*
X39600000Y-42800000D01*
D12*
G36*
X38600000Y-34550000D02*
G01*
X39600000Y-34550000D01*
X39600000Y-34050000D01*
X38600000Y-34050000D01*
X38600000Y-34550000D01*
G37*
X38600000Y-34550000D02*
X39600000Y-34550000D01*
X39600000Y-34050000D01*
X38600000Y-34050000D01*
X38600000Y-34550000D01*
G36*
X38600000Y-35550000D02*
G01*
X39600000Y-35550000D01*
X39600000Y-35050000D01*
X38600000Y-35050000D01*
X38600000Y-35550000D01*
G37*
X38600000Y-35550000D02*
X39600000Y-35550000D01*
X39600000Y-35050000D01*
X38600000Y-35050000D01*
X38600000Y-35550000D01*
G36*
X38600000Y-37050000D02*
G01*
X39600000Y-37050000D01*
X39600000Y-36550000D01*
X38600000Y-36550000D01*
X38600000Y-37050000D01*
G37*
X38600000Y-37050000D02*
X39600000Y-37050000D01*
X39600000Y-36550000D01*
X38600000Y-36550000D01*
X38600000Y-37050000D01*
G36*
X38600000Y-38050000D02*
G01*
X39600000Y-38050000D01*
X39600000Y-37550000D01*
X38600000Y-37550000D01*
X38600000Y-38050000D01*
G37*
X38600000Y-38050000D02*
X39600000Y-38050000D01*
X39600000Y-37550000D01*
X38600000Y-37550000D01*
X38600000Y-38050000D01*
G36*
X38600000Y-39050000D02*
G01*
X39600000Y-39050000D01*
X39600000Y-38550000D01*
X38600000Y-38550000D01*
X38600000Y-39050000D01*
G37*
X38600000Y-39050000D02*
X39600000Y-39050000D01*
X39600000Y-38550000D01*
X38600000Y-38550000D01*
X38600000Y-39050000D01*
G36*
X38600000Y-40550000D02*
G01*
X39600000Y-40550000D01*
X39600000Y-40050000D01*
X38600000Y-40050000D01*
X38600000Y-40550000D01*
G37*
X38600000Y-40550000D02*
X39600000Y-40550000D01*
X39600000Y-40050000D01*
X38600000Y-40050000D01*
X38600000Y-40550000D01*
G36*
X38600000Y-41550000D02*
G01*
X39600000Y-41550000D01*
X39600000Y-41050000D01*
X38600000Y-41050000D01*
X38600000Y-41550000D01*
G37*
X38600000Y-41550000D02*
X39600000Y-41550000D01*
X39600000Y-41050000D01*
X38600000Y-41050000D01*
X38600000Y-41550000D01*
D11*
X38100000Y-33300000D02*
X39600000Y-33300000D01*
X38100000Y-42300000D02*
X38100000Y-33300000D01*
X39600000Y-42300000D02*
X38100000Y-42300000D01*
X39600000Y-33300000D02*
X39600000Y-42300000D01*
X40100000Y-42300000D02*
X39600000Y-42800000D01*
X40100000Y-41550000D02*
X39600000Y-42050000D01*
X40100000Y-40800000D02*
X39600000Y-41300000D01*
X40100000Y-40050000D02*
X39600000Y-40550000D01*
X40100000Y-39300000D02*
X39600000Y-39800000D01*
D13*
G36*
X39715495Y-52031114D02*
G01*
X39678273Y-51956461D01*
X39609739Y-51890569D01*
X39584352Y-51872423D01*
X39551134Y-51852655D01*
X39515055Y-51839828D01*
X39466902Y-51832490D01*
X39397464Y-51829187D01*
X39305794Y-51828462D01*
X39180170Y-51831737D01*
X39085846Y-51843123D01*
X39015477Y-51864959D01*
X38961714Y-51899581D01*
X38917212Y-51949330D01*
X38914577Y-51952986D01*
X38887623Y-52002015D01*
X38874288Y-52061055D01*
X38871000Y-52136141D01*
X38871000Y-52258205D01*
X38752503Y-52258256D01*
X38686508Y-52259392D01*
X38647798Y-52266314D01*
X38624581Y-52284402D01*
X38605067Y-52319038D01*
X38601080Y-52327355D01*
X38582397Y-52366280D01*
X38570597Y-52396417D01*
X38569578Y-52418826D01*
X38583239Y-52434567D01*
X38615478Y-52444698D01*
X38670196Y-52450277D01*
X38751289Y-52452365D01*
X38862656Y-52452019D01*
X39008198Y-52450300D01*
X39051731Y-52449763D01*
X39201795Y-52447828D01*
X39299958Y-52446096D01*
X39299958Y-52258308D01*
X39216636Y-52257252D01*
X39162120Y-52252562D01*
X39126163Y-52241949D01*
X39098518Y-52223128D01*
X39085035Y-52210350D01*
X39045583Y-52158110D01*
X39042372Y-52111858D01*
X39074951Y-52064133D01*
X39076154Y-52062923D01*
X39101332Y-52043506D01*
X39135553Y-52031693D01*
X39188252Y-52025735D01*
X39268869Y-52023880D01*
X39286729Y-52023846D01*
X39397825Y-52028330D01*
X39474839Y-52042926D01*
X39521853Y-52069350D01*
X39542950Y-52109317D01*
X39545077Y-52132416D01*
X39535100Y-52187238D01*
X39502248Y-52224842D01*
X39442143Y-52247477D01*
X39350402Y-52257394D01*
X39299958Y-52258308D01*
X39299958Y-52446096D01*
X39317940Y-52445778D01*
X39405321Y-52443127D01*
X39469095Y-52439394D01*
X39514418Y-52434093D01*
X39546445Y-52426742D01*
X39570332Y-52416857D01*
X39591236Y-52403954D01*
X39599102Y-52398421D01*
X39673405Y-52325031D01*
X39715533Y-52232240D01*
X39727278Y-52124904D01*
X39715495Y-52031114D01*
X39715495Y-52031114D01*
G37*
X39715495Y-52031114D02*
X39678273Y-51956461D01*
X39609739Y-51890569D01*
X39584352Y-51872423D01*
X39551134Y-51852655D01*
X39515055Y-51839828D01*
X39466902Y-51832490D01*
X39397464Y-51829187D01*
X39305794Y-51828462D01*
X39180170Y-51831737D01*
X39085846Y-51843123D01*
X39015477Y-51864959D01*
X38961714Y-51899581D01*
X38917212Y-51949330D01*
X38914577Y-51952986D01*
X38887623Y-52002015D01*
X38874288Y-52061055D01*
X38871000Y-52136141D01*
X38871000Y-52258205D01*
X38752503Y-52258256D01*
X38686508Y-52259392D01*
X38647798Y-52266314D01*
X38624581Y-52284402D01*
X38605067Y-52319038D01*
X38601080Y-52327355D01*
X38582397Y-52366280D01*
X38570597Y-52396417D01*
X38569578Y-52418826D01*
X38583239Y-52434567D01*
X38615478Y-52444698D01*
X38670196Y-52450277D01*
X38751289Y-52452365D01*
X38862656Y-52452019D01*
X39008198Y-52450300D01*
X39051731Y-52449763D01*
X39201795Y-52447828D01*
X39299958Y-52446096D01*
X39299958Y-52258308D01*
X39216636Y-52257252D01*
X39162120Y-52252562D01*
X39126163Y-52241949D01*
X39098518Y-52223128D01*
X39085035Y-52210350D01*
X39045583Y-52158110D01*
X39042372Y-52111858D01*
X39074951Y-52064133D01*
X39076154Y-52062923D01*
X39101332Y-52043506D01*
X39135553Y-52031693D01*
X39188252Y-52025735D01*
X39268869Y-52023880D01*
X39286729Y-52023846D01*
X39397825Y-52028330D01*
X39474839Y-52042926D01*
X39521853Y-52069350D01*
X39542950Y-52109317D01*
X39545077Y-52132416D01*
X39535100Y-52187238D01*
X39502248Y-52224842D01*
X39442143Y-52247477D01*
X39350402Y-52257394D01*
X39299958Y-52258308D01*
X39299958Y-52446096D01*
X39317940Y-52445778D01*
X39405321Y-52443127D01*
X39469095Y-52439394D01*
X39514418Y-52434093D01*
X39546445Y-52426742D01*
X39570332Y-52416857D01*
X39591236Y-52403954D01*
X39599102Y-52398421D01*
X39673405Y-52325031D01*
X39715533Y-52232240D01*
X39727278Y-52124904D01*
X39715495Y-52031114D01*
G36*
X39704911Y-50528336D02*
G01*
X39668642Y-50465633D01*
X39632642Y-50422039D01*
X39594925Y-50390155D01*
X39548801Y-50368190D01*
X39487579Y-50354351D01*
X39404569Y-50346847D01*
X39293081Y-50343883D01*
X39212938Y-50343539D01*
X38917935Y-50343539D01*
X38843485Y-50509615D01*
X39166598Y-50519385D01*
X39287271Y-50523421D01*
X39374859Y-50527656D01*
X39435350Y-50532903D01*
X39474732Y-50539975D01*
X39498993Y-50549689D01*
X39514120Y-50562856D01*
X39517394Y-50567081D01*
X39542966Y-50631091D01*
X39532847Y-50695792D01*
X39506000Y-50734308D01*
X39486976Y-50749975D01*
X39462012Y-50760820D01*
X39424166Y-50767712D01*
X39366498Y-50771521D01*
X39282065Y-50773117D01*
X39194072Y-50773385D01*
X39083677Y-50773437D01*
X39005537Y-50775328D01*
X38952835Y-50781655D01*
X38918758Y-50795017D01*
X38896489Y-50818015D01*
X38879213Y-50853246D01*
X38861262Y-50900303D01*
X38841722Y-50951697D01*
X39188515Y-50945579D01*
X39313532Y-50943116D01*
X39405918Y-50940233D01*
X39472119Y-50936102D01*
X39518580Y-50929893D01*
X39551744Y-50920774D01*
X39578056Y-50907917D01*
X39601271Y-50892416D01*
X39675431Y-50817629D01*
X39718316Y-50726372D01*
X39728588Y-50627117D01*
X39704911Y-50528336D01*
X39704911Y-50528336D01*
G37*
X39704911Y-50528336D02*
X39668642Y-50465633D01*
X39632642Y-50422039D01*
X39594925Y-50390155D01*
X39548801Y-50368190D01*
X39487579Y-50354351D01*
X39404569Y-50346847D01*
X39293081Y-50343883D01*
X39212938Y-50343539D01*
X38917935Y-50343539D01*
X38843485Y-50509615D01*
X39166598Y-50519385D01*
X39287271Y-50523421D01*
X39374859Y-50527656D01*
X39435350Y-50532903D01*
X39474732Y-50539975D01*
X39498993Y-50549689D01*
X39514120Y-50562856D01*
X39517394Y-50567081D01*
X39542966Y-50631091D01*
X39532847Y-50695792D01*
X39506000Y-50734308D01*
X39486976Y-50749975D01*
X39462012Y-50760820D01*
X39424166Y-50767712D01*
X39366498Y-50771521D01*
X39282065Y-50773117D01*
X39194072Y-50773385D01*
X39083677Y-50773437D01*
X39005537Y-50775328D01*
X38952835Y-50781655D01*
X38918758Y-50795017D01*
X38896489Y-50818015D01*
X38879213Y-50853246D01*
X38861262Y-50900303D01*
X38841722Y-50951697D01*
X39188515Y-50945579D01*
X39313532Y-50943116D01*
X39405918Y-50940233D01*
X39472119Y-50936102D01*
X39518580Y-50929893D01*
X39551744Y-50920774D01*
X39578056Y-50907917D01*
X39601271Y-50892416D01*
X39675431Y-50817629D01*
X39718316Y-50726372D01*
X39728588Y-50627117D01*
X39704911Y-50528336D01*
G36*
X39712744Y-52783114D02*
G01*
X39664591Y-52691536D01*
X39587095Y-52623951D01*
X39537273Y-52599943D01*
X39462467Y-52581262D01*
X39367948Y-52571699D01*
X39264790Y-52570792D01*
X39164065Y-52578079D01*
X39076847Y-52593097D01*
X39014209Y-52615385D01*
X39003421Y-52622235D01*
X38922895Y-52703368D01*
X38874664Y-52799734D01*
X38860550Y-52904299D01*
X38882371Y-53010032D01*
X38895453Y-53039457D01*
X38935769Y-53096759D01*
X38989225Y-53147050D01*
X38996005Y-53151803D01*
X39028679Y-53171122D01*
X39063606Y-53183892D01*
X39109586Y-53191436D01*
X39175416Y-53195076D01*
X39269895Y-53196135D01*
X39291077Y-53196154D01*
X39297818Y-53196106D01*
X39297818Y-53000769D01*
X39208651Y-52999632D01*
X39149480Y-52995159D01*
X39111259Y-52985754D01*
X39084947Y-52969824D01*
X39076154Y-52961692D01*
X39042739Y-52914942D01*
X39044263Y-52869553D01*
X39073248Y-52823660D01*
X39104191Y-52796288D01*
X39149357Y-52780077D01*
X39220580Y-52770974D01*
X39228886Y-52770349D01*
X39357963Y-52768796D01*
X39453828Y-52785035D01*
X39515893Y-52818848D01*
X39543568Y-52870016D01*
X39545077Y-52888280D01*
X39537487Y-52936240D01*
X39511192Y-52969047D01*
X39460905Y-52989105D01*
X39381336Y-52998822D01*
X39297818Y-53000769D01*
X39297818Y-53196106D01*
X39391751Y-53195426D01*
X39462094Y-53192371D01*
X39510837Y-53185678D01*
X39546712Y-53174040D01*
X39578452Y-53156147D01*
X39584352Y-53152192D01*
X39663896Y-53085733D01*
X39710071Y-53013315D01*
X39728401Y-52925151D01*
X39729297Y-52895213D01*
X39712744Y-52783114D01*
X39712744Y-52783114D01*
G37*
X39712744Y-52783114D02*
X39664591Y-52691536D01*
X39587095Y-52623951D01*
X39537273Y-52599943D01*
X39462467Y-52581262D01*
X39367948Y-52571699D01*
X39264790Y-52570792D01*
X39164065Y-52578079D01*
X39076847Y-52593097D01*
X39014209Y-52615385D01*
X39003421Y-52622235D01*
X38922895Y-52703368D01*
X38874664Y-52799734D01*
X38860550Y-52904299D01*
X38882371Y-53010032D01*
X38895453Y-53039457D01*
X38935769Y-53096759D01*
X38989225Y-53147050D01*
X38996005Y-53151803D01*
X39028679Y-53171122D01*
X39063606Y-53183892D01*
X39109586Y-53191436D01*
X39175416Y-53195076D01*
X39269895Y-53196135D01*
X39291077Y-53196154D01*
X39297818Y-53196106D01*
X39297818Y-53000769D01*
X39208651Y-52999632D01*
X39149480Y-52995159D01*
X39111259Y-52985754D01*
X39084947Y-52969824D01*
X39076154Y-52961692D01*
X39042739Y-52914942D01*
X39044263Y-52869553D01*
X39073248Y-52823660D01*
X39104191Y-52796288D01*
X39149357Y-52780077D01*
X39220580Y-52770974D01*
X39228886Y-52770349D01*
X39357963Y-52768796D01*
X39453828Y-52785035D01*
X39515893Y-52818848D01*
X39543568Y-52870016D01*
X39545077Y-52888280D01*
X39537487Y-52936240D01*
X39511192Y-52969047D01*
X39460905Y-52989105D01*
X39381336Y-52998822D01*
X39297818Y-53000769D01*
X39297818Y-53196106D01*
X39391751Y-53195426D01*
X39462094Y-53192371D01*
X39510837Y-53185678D01*
X39546712Y-53174040D01*
X39578452Y-53156147D01*
X39584352Y-53152192D01*
X39663896Y-53085733D01*
X39710071Y-53013315D01*
X39728401Y-52925151D01*
X39729297Y-52895213D01*
X39712744Y-52783114D01*
G36*
X39700255Y-51265746D02*
G01*
X39648433Y-51188714D01*
X39573588Y-51129184D01*
X39478346Y-51093622D01*
X39408244Y-51086429D01*
X39378991Y-51087246D01*
X39356593Y-51094086D01*
X39336526Y-51112888D01*
X39314267Y-51149592D01*
X39285291Y-51210138D01*
X39245073Y-51300466D01*
X39244871Y-51300923D01*
X39206790Y-51384067D01*
X39172975Y-51452247D01*
X39147067Y-51498495D01*
X39132705Y-51515842D01*
X39132589Y-51515846D01*
X39101315Y-51500557D01*
X39066843Y-51464804D01*
X39042010Y-51423758D01*
X39037077Y-51402963D01*
X39054138Y-51346230D01*
X39096867Y-51297373D01*
X39143845Y-51273535D01*
X39178478Y-51250603D01*
X39217919Y-51205682D01*
X39251991Y-51152877D01*
X39270520Y-51106290D01*
X39271538Y-51096548D01*
X39254785Y-51085582D01*
X39211961Y-51084921D01*
X39154219Y-51092980D01*
X39092711Y-51108173D01*
X39038591Y-51128914D01*
X39036490Y-51129962D01*
X38949340Y-51192379D01*
X38890061Y-51273274D01*
X38860966Y-51365144D01*
X38864366Y-51460487D01*
X38902572Y-51551802D01*
X38905259Y-51555862D01*
X38970358Y-51627694D01*
X39055295Y-51674927D01*
X39166979Y-51701066D01*
X39198357Y-51704574D01*
X39346464Y-51710787D01*
X39415532Y-51703339D01*
X39415532Y-51515846D01*
X39372448Y-51513410D01*
X39359874Y-51500086D01*
X39369281Y-51466868D01*
X39391517Y-51414506D01*
X39419390Y-51355976D01*
X39420128Y-51354521D01*
X39446223Y-51304911D01*
X39463637Y-51285000D01*
X39481893Y-51289910D01*
X39505880Y-51310584D01*
X39540594Y-51363181D01*
X39543144Y-51419823D01*
X39517881Y-51470631D01*
X39469153Y-51505724D01*
X39415532Y-51515846D01*
X39415532Y-51703339D01*
X39464964Y-51698008D01*
X39558945Y-51665222D01*
X39624785Y-51619579D01*
X39691319Y-51537198D01*
X39724324Y-51446454D01*
X39726427Y-51353815D01*
X39700255Y-51265746D01*
X39700255Y-51265746D01*
G37*
X39700255Y-51265746D02*
X39648433Y-51188714D01*
X39573588Y-51129184D01*
X39478346Y-51093622D01*
X39408244Y-51086429D01*
X39378991Y-51087246D01*
X39356593Y-51094086D01*
X39336526Y-51112888D01*
X39314267Y-51149592D01*
X39285291Y-51210138D01*
X39245073Y-51300466D01*
X39244871Y-51300923D01*
X39206790Y-51384067D01*
X39172975Y-51452247D01*
X39147067Y-51498495D01*
X39132705Y-51515842D01*
X39132589Y-51515846D01*
X39101315Y-51500557D01*
X39066843Y-51464804D01*
X39042010Y-51423758D01*
X39037077Y-51402963D01*
X39054138Y-51346230D01*
X39096867Y-51297373D01*
X39143845Y-51273535D01*
X39178478Y-51250603D01*
X39217919Y-51205682D01*
X39251991Y-51152877D01*
X39270520Y-51106290D01*
X39271538Y-51096548D01*
X39254785Y-51085582D01*
X39211961Y-51084921D01*
X39154219Y-51092980D01*
X39092711Y-51108173D01*
X39038591Y-51128914D01*
X39036490Y-51129962D01*
X38949340Y-51192379D01*
X38890061Y-51273274D01*
X38860966Y-51365144D01*
X38864366Y-51460487D01*
X38902572Y-51551802D01*
X38905259Y-51555862D01*
X38970358Y-51627694D01*
X39055295Y-51674927D01*
X39166979Y-51701066D01*
X39198357Y-51704574D01*
X39346464Y-51710787D01*
X39415532Y-51703339D01*
X39415532Y-51515846D01*
X39372448Y-51513410D01*
X39359874Y-51500086D01*
X39369281Y-51466868D01*
X39391517Y-51414506D01*
X39419390Y-51355976D01*
X39420128Y-51354521D01*
X39446223Y-51304911D01*
X39463637Y-51285000D01*
X39481893Y-51289910D01*
X39505880Y-51310584D01*
X39540594Y-51363181D01*
X39543144Y-51419823D01*
X39517881Y-51470631D01*
X39469153Y-51505724D01*
X39415532Y-51515846D01*
X39415532Y-51703339D01*
X39464964Y-51698008D01*
X39558945Y-51665222D01*
X39624785Y-51619579D01*
X39691319Y-51537198D01*
X39724324Y-51446454D01*
X39726427Y-51353815D01*
X39700255Y-51265746D01*
G36*
X39807880Y-49640154D02*
G01*
X39728020Y-49634428D01*
X39680961Y-49627851D01*
X39660434Y-49618738D01*
X39660171Y-49605402D01*
X39662622Y-49601077D01*
X39680364Y-49543556D01*
X39679328Y-49468732D01*
X39661090Y-49392661D01*
X39637495Y-49345082D01*
X39599802Y-49296298D01*
X39557145Y-49260636D01*
X39502943Y-49236155D01*
X39430616Y-49220913D01*
X39333581Y-49212970D01*
X39205258Y-49210384D01*
X39180642Y-49210338D01*
X38904130Y-49210308D01*
X38882680Y-49271839D01*
X38868088Y-49315541D01*
X38861294Y-49339518D01*
X38861231Y-49340223D01*
X38879655Y-49342585D01*
X38930474Y-49344594D01*
X39007007Y-49346099D01*
X39102570Y-49346947D01*
X39160671Y-49347077D01*
X39275229Y-49347349D01*
X39357333Y-49348748D01*
X39413607Y-49352151D01*
X39450674Y-49358433D01*
X39475156Y-49368471D01*
X39493675Y-49383139D01*
X39502594Y-49392298D01*
X39538534Y-49455211D01*
X39541225Y-49523864D01*
X39510830Y-49586152D01*
X39499856Y-49597671D01*
X39479221Y-49614567D01*
X39454744Y-49626286D01*
X39419353Y-49633767D01*
X39365974Y-49637946D01*
X39287534Y-49639763D01*
X39179383Y-49640154D01*
X38904130Y-49640154D01*
X38882680Y-49701685D01*
X38868088Y-49745387D01*
X38861294Y-49769364D01*
X38861231Y-49770070D01*
X38879931Y-49771874D01*
X38932678Y-49773500D01*
X39014443Y-49774883D01*
X39120195Y-49775958D01*
X39244906Y-49776660D01*
X39383545Y-49776923D01*
X39918194Y-49776923D01*
X39971764Y-49649923D01*
X39807880Y-49640154D01*
X39807880Y-49640154D01*
G37*
X39807880Y-49640154D02*
X39728020Y-49634428D01*
X39680961Y-49627851D01*
X39660434Y-49618738D01*
X39660171Y-49605402D01*
X39662622Y-49601077D01*
X39680364Y-49543556D01*
X39679328Y-49468732D01*
X39661090Y-49392661D01*
X39637495Y-49345082D01*
X39599802Y-49296298D01*
X39557145Y-49260636D01*
X39502943Y-49236155D01*
X39430616Y-49220913D01*
X39333581Y-49212970D01*
X39205258Y-49210384D01*
X39180642Y-49210338D01*
X38904130Y-49210308D01*
X38882680Y-49271839D01*
X38868088Y-49315541D01*
X38861294Y-49339518D01*
X38861231Y-49340223D01*
X38879655Y-49342585D01*
X38930474Y-49344594D01*
X39007007Y-49346099D01*
X39102570Y-49346947D01*
X39160671Y-49347077D01*
X39275229Y-49347349D01*
X39357333Y-49348748D01*
X39413607Y-49352151D01*
X39450674Y-49358433D01*
X39475156Y-49368471D01*
X39493675Y-49383139D01*
X39502594Y-49392298D01*
X39538534Y-49455211D01*
X39541225Y-49523864D01*
X39510830Y-49586152D01*
X39499856Y-49597671D01*
X39479221Y-49614567D01*
X39454744Y-49626286D01*
X39419353Y-49633767D01*
X39365974Y-49637946D01*
X39287534Y-49639763D01*
X39179383Y-49640154D01*
X38904130Y-49640154D01*
X38882680Y-49701685D01*
X38868088Y-49745387D01*
X38861294Y-49769364D01*
X38861231Y-49770070D01*
X38879931Y-49771874D01*
X38932678Y-49773500D01*
X39014443Y-49774883D01*
X39120195Y-49775958D01*
X39244906Y-49776660D01*
X39383545Y-49776923D01*
X39918194Y-49776923D01*
X39971764Y-49649923D01*
X39807880Y-49640154D01*
G36*
X39673697Y-48746499D02*
G01*
X39645267Y-48669940D01*
X39644721Y-48669064D01*
X39609873Y-48621715D01*
X39569148Y-48586759D01*
X39516075Y-48562175D01*
X39444186Y-48545938D01*
X39347008Y-48536025D01*
X39218072Y-48530414D01*
X39199702Y-48529923D01*
X38922713Y-48522859D01*
X38891972Y-48582305D01*
X38871198Y-48625319D01*
X38861354Y-48651290D01*
X38861231Y-48652491D01*
X38879394Y-48656986D01*
X38928388Y-48660556D01*
X38999969Y-48662752D01*
X39057932Y-48663231D01*
X39151830Y-48663242D01*
X39210797Y-48667534D01*
X39238921Y-48682497D01*
X39240294Y-48714518D01*
X39219002Y-48769986D01*
X39179864Y-48853731D01*
X39147357Y-48915311D01*
X39119155Y-48946983D01*
X39088418Y-48956294D01*
X39086896Y-48956308D01*
X39033946Y-48940943D01*
X39005340Y-48895453D01*
X39001197Y-48825834D01*
X39001916Y-48775687D01*
X38987473Y-48749246D01*
X38952782Y-48732757D01*
X38908584Y-48723267D01*
X38883507Y-48736943D01*
X38879918Y-48742093D01*
X38865504Y-48790575D01*
X38863463Y-48858469D01*
X38873017Y-48928388D01*
X38890478Y-48977932D01*
X38948636Y-49046430D01*
X39029592Y-49085366D01*
X39092840Y-49093077D01*
X39149889Y-49087193D01*
X39196458Y-49065899D01*
X39237819Y-49023735D01*
X39279245Y-48955241D01*
X39326007Y-48854956D01*
X39328650Y-48848846D01*
X39370383Y-48758510D01*
X39404609Y-48702765D01*
X39435365Y-48678871D01*
X39466689Y-48684087D01*
X39502617Y-48715672D01*
X39510884Y-48725117D01*
X39542942Y-48788383D01*
X39541593Y-48853936D01*
X39510162Y-48911028D01*
X39451976Y-48948907D01*
X39440554Y-48952426D01*
X39385163Y-48986700D01*
X39358482Y-49030191D01*
X39332040Y-49093077D01*
X39400452Y-49093077D01*
X39499890Y-49073948D01*
X39591098Y-49017169D01*
X39621611Y-48987622D01*
X39660772Y-48920458D01*
X39678500Y-48835044D01*
X39673697Y-48746499D01*
X39673697Y-48746499D01*
G37*
X39673697Y-48746499D02*
X39645267Y-48669940D01*
X39644721Y-48669064D01*
X39609873Y-48621715D01*
X39569148Y-48586759D01*
X39516075Y-48562175D01*
X39444186Y-48545938D01*
X39347008Y-48536025D01*
X39218072Y-48530414D01*
X39199702Y-48529923D01*
X38922713Y-48522859D01*
X38891972Y-48582305D01*
X38871198Y-48625319D01*
X38861354Y-48651290D01*
X38861231Y-48652491D01*
X38879394Y-48656986D01*
X38928388Y-48660556D01*
X38999969Y-48662752D01*
X39057932Y-48663231D01*
X39151830Y-48663242D01*
X39210797Y-48667534D01*
X39238921Y-48682497D01*
X39240294Y-48714518D01*
X39219002Y-48769986D01*
X39179864Y-48853731D01*
X39147357Y-48915311D01*
X39119155Y-48946983D01*
X39088418Y-48956294D01*
X39086896Y-48956308D01*
X39033946Y-48940943D01*
X39005340Y-48895453D01*
X39001197Y-48825834D01*
X39001916Y-48775687D01*
X38987473Y-48749246D01*
X38952782Y-48732757D01*
X38908584Y-48723267D01*
X38883507Y-48736943D01*
X38879918Y-48742093D01*
X38865504Y-48790575D01*
X38863463Y-48858469D01*
X38873017Y-48928388D01*
X38890478Y-48977932D01*
X38948636Y-49046430D01*
X39029592Y-49085366D01*
X39092840Y-49093077D01*
X39149889Y-49087193D01*
X39196458Y-49065899D01*
X39237819Y-49023735D01*
X39279245Y-48955241D01*
X39326007Y-48854956D01*
X39328650Y-48848846D01*
X39370383Y-48758510D01*
X39404609Y-48702765D01*
X39435365Y-48678871D01*
X39466689Y-48684087D01*
X39502617Y-48715672D01*
X39510884Y-48725117D01*
X39542942Y-48788383D01*
X39541593Y-48853936D01*
X39510162Y-48911028D01*
X39451976Y-48948907D01*
X39440554Y-48952426D01*
X39385163Y-48986700D01*
X39358482Y-49030191D01*
X39332040Y-49093077D01*
X39400452Y-49093077D01*
X39499890Y-49073948D01*
X39591098Y-49017169D01*
X39621611Y-48987622D01*
X39660772Y-48920458D01*
X39678500Y-48835044D01*
X39673697Y-48746499D01*
G36*
X39675330Y-48086638D02*
G01*
X39642579Y-47997883D01*
X39584650Y-47925978D01*
X39543872Y-47897856D01*
X39469046Y-47867198D01*
X39414942Y-47867835D01*
X39378554Y-47900013D01*
X39372367Y-47911919D01*
X39353075Y-47963325D01*
X39358018Y-47989578D01*
X39390413Y-47998470D01*
X39408308Y-47998923D01*
X39474141Y-48015203D01*
X39520193Y-48057635D01*
X39542436Y-48116612D01*
X39536839Y-48182525D01*
X39507771Y-48236105D01*
X39491190Y-48254202D01*
X39471075Y-48267029D01*
X39440668Y-48275694D01*
X39393212Y-48281304D01*
X39321950Y-48284965D01*
X39220125Y-48287785D01*
X39187885Y-48288516D01*
X39077590Y-48291180D01*
X38999964Y-48294208D01*
X38948604Y-48298750D01*
X38917110Y-48305954D01*
X38899080Y-48316967D01*
X38888112Y-48332940D01*
X38883267Y-48343166D01*
X38866699Y-48386594D01*
X38861231Y-48412158D01*
X38879493Y-48420605D01*
X38934704Y-48425761D01*
X39027501Y-48427654D01*
X39158522Y-48426311D01*
X39178731Y-48425893D01*
X39298267Y-48422942D01*
X39385551Y-48419452D01*
X39447409Y-48414486D01*
X39490664Y-48407107D01*
X39522140Y-48396376D01*
X39548661Y-48381355D01*
X39560025Y-48373498D01*
X39610308Y-48328447D01*
X39649419Y-48278060D01*
X39652833Y-48271892D01*
X39679788Y-48181542D01*
X39675330Y-48086638D01*
X39675330Y-48086638D01*
G37*
X39675330Y-48086638D02*
X39642579Y-47997883D01*
X39584650Y-47925978D01*
X39543872Y-47897856D01*
X39469046Y-47867198D01*
X39414942Y-47867835D01*
X39378554Y-47900013D01*
X39372367Y-47911919D01*
X39353075Y-47963325D01*
X39358018Y-47989578D01*
X39390413Y-47998470D01*
X39408308Y-47998923D01*
X39474141Y-48015203D01*
X39520193Y-48057635D01*
X39542436Y-48116612D01*
X39536839Y-48182525D01*
X39507771Y-48236105D01*
X39491190Y-48254202D01*
X39471075Y-48267029D01*
X39440668Y-48275694D01*
X39393212Y-48281304D01*
X39321950Y-48284965D01*
X39220125Y-48287785D01*
X39187885Y-48288516D01*
X39077590Y-48291180D01*
X38999964Y-48294208D01*
X38948604Y-48298750D01*
X38917110Y-48305954D01*
X38899080Y-48316967D01*
X38888112Y-48332940D01*
X38883267Y-48343166D01*
X38866699Y-48386594D01*
X38861231Y-48412158D01*
X38879493Y-48420605D01*
X38934704Y-48425761D01*
X39027501Y-48427654D01*
X39158522Y-48426311D01*
X39178731Y-48425893D01*
X39298267Y-48422942D01*
X39385551Y-48419452D01*
X39447409Y-48414486D01*
X39490664Y-48407107D01*
X39522140Y-48396376D01*
X39548661Y-48381355D01*
X39560025Y-48373498D01*
X39610308Y-48328447D01*
X39649419Y-48278060D01*
X39652833Y-48271892D01*
X39679788Y-48181542D01*
X39675330Y-48086638D01*
G36*
X39519711Y-47197919D02*
G01*
X39373680Y-47198167D01*
X39261345Y-47199128D01*
X39177322Y-47201206D01*
X39116231Y-47204807D01*
X39072691Y-47210335D01*
X39041321Y-47218196D01*
X39016738Y-47228793D01*
X39002706Y-47236818D01*
X38926612Y-47303272D01*
X38878916Y-47387530D01*
X38861801Y-47480751D01*
X38877454Y-47574100D01*
X38905582Y-47629688D01*
X38954240Y-47688043D01*
X39013667Y-47727814D01*
X39091493Y-47751810D01*
X39195348Y-47762839D01*
X39271538Y-47764401D01*
X39277014Y-47764191D01*
X39277014Y-47627692D01*
X39189645Y-47626859D01*
X39131808Y-47623039D01*
X39093971Y-47614254D01*
X39066602Y-47598526D01*
X39045958Y-47579734D01*
X39006110Y-47516625D01*
X39002705Y-47448863D01*
X39035975Y-47384821D01*
X39040483Y-47379836D01*
X39063933Y-47358561D01*
X39091834Y-47345221D01*
X39133359Y-47337999D01*
X39197684Y-47335077D01*
X39268800Y-47334615D01*
X39358142Y-47335617D01*
X39417742Y-47339762D01*
X39456911Y-47348764D01*
X39484960Y-47364333D01*
X39499856Y-47377098D01*
X39537425Y-47436400D01*
X39541943Y-47504699D01*
X39513247Y-47569890D01*
X39502594Y-47582472D01*
X39478937Y-47603889D01*
X39450749Y-47617256D01*
X39408755Y-47624434D01*
X39343681Y-47627281D01*
X39277014Y-47627692D01*
X39277014Y-47764191D01*
X39394235Y-47759678D01*
X39486423Y-47743638D01*
X39555731Y-47713472D01*
X39609789Y-47666371D01*
X39637495Y-47629688D01*
X39667428Y-47563010D01*
X39681322Y-47485728D01*
X39677603Y-47413890D01*
X39662600Y-47373692D01*
X39658330Y-47357918D01*
X39674250Y-47347450D01*
X39716911Y-47340144D01*
X39781894Y-47334615D01*
X39854268Y-47328563D01*
X39897813Y-47320156D01*
X39922713Y-47304859D01*
X39939155Y-47278136D01*
X39946436Y-47261346D01*
X39973037Y-47197846D01*
X39519711Y-47197919D01*
X39519711Y-47197919D01*
G37*
X39519711Y-47197919D02*
X39373680Y-47198167D01*
X39261345Y-47199128D01*
X39177322Y-47201206D01*
X39116231Y-47204807D01*
X39072691Y-47210335D01*
X39041321Y-47218196D01*
X39016738Y-47228793D01*
X39002706Y-47236818D01*
X38926612Y-47303272D01*
X38878916Y-47387530D01*
X38861801Y-47480751D01*
X38877454Y-47574100D01*
X38905582Y-47629688D01*
X38954240Y-47688043D01*
X39013667Y-47727814D01*
X39091493Y-47751810D01*
X39195348Y-47762839D01*
X39271538Y-47764401D01*
X39277014Y-47764191D01*
X39277014Y-47627692D01*
X39189645Y-47626859D01*
X39131808Y-47623039D01*
X39093971Y-47614254D01*
X39066602Y-47598526D01*
X39045958Y-47579734D01*
X39006110Y-47516625D01*
X39002705Y-47448863D01*
X39035975Y-47384821D01*
X39040483Y-47379836D01*
X39063933Y-47358561D01*
X39091834Y-47345221D01*
X39133359Y-47337999D01*
X39197684Y-47335077D01*
X39268800Y-47334615D01*
X39358142Y-47335617D01*
X39417742Y-47339762D01*
X39456911Y-47348764D01*
X39484960Y-47364333D01*
X39499856Y-47377098D01*
X39537425Y-47436400D01*
X39541943Y-47504699D01*
X39513247Y-47569890D01*
X39502594Y-47582472D01*
X39478937Y-47603889D01*
X39450749Y-47617256D01*
X39408755Y-47624434D01*
X39343681Y-47627281D01*
X39277014Y-47627692D01*
X39277014Y-47764191D01*
X39394235Y-47759678D01*
X39486423Y-47743638D01*
X39555731Y-47713472D01*
X39609789Y-47666371D01*
X39637495Y-47629688D01*
X39667428Y-47563010D01*
X39681322Y-47485728D01*
X39677603Y-47413890D01*
X39662600Y-47373692D01*
X39658330Y-47357918D01*
X39674250Y-47347450D01*
X39716911Y-47340144D01*
X39781894Y-47334615D01*
X39854268Y-47328563D01*
X39897813Y-47320156D01*
X39922713Y-47304859D01*
X39939155Y-47278136D01*
X39946436Y-47261346D01*
X39973037Y-47197846D01*
X39519711Y-47197919D01*
G36*
X39663338Y-46404071D02*
G01*
X39611932Y-46401089D01*
X39533808Y-46398753D01*
X39435143Y-46397251D01*
X39331657Y-46396769D01*
X38981467Y-46396769D01*
X38919637Y-46458599D01*
X38881538Y-46501207D01*
X38866105Y-46538610D01*
X38867082Y-46589730D01*
X38869567Y-46610022D01*
X38876800Y-46673446D01*
X38880945Y-46725905D01*
X38881328Y-46738692D01*
X38878824Y-46781801D01*
X38872538Y-46843456D01*
X38869567Y-46867362D01*
X38864972Y-46926078D01*
X38874954Y-46965536D01*
X38905772Y-47004662D01*
X38919637Y-47018785D01*
X38981467Y-47080615D01*
X39636497Y-47080615D01*
X39659171Y-47030850D01*
X39675966Y-46987998D01*
X39681846Y-46962927D01*
X39663264Y-46956499D01*
X39611345Y-46950491D01*
X39531828Y-46945303D01*
X39430454Y-46941336D01*
X39344808Y-46939423D01*
X39007769Y-46934077D01*
X39001175Y-46887440D01*
X39005786Y-46845024D01*
X39020713Y-46824240D01*
X39048623Y-46818430D01*
X39108075Y-46813470D01*
X39191534Y-46809754D01*
X39291468Y-46807676D01*
X39342896Y-46807376D01*
X39638946Y-46807077D01*
X39660396Y-46745546D01*
X39674980Y-46701996D01*
X39681781Y-46678306D01*
X39681846Y-46677623D01*
X39663358Y-46675246D01*
X39612094Y-46672634D01*
X39534351Y-46670005D01*
X39436426Y-46667579D01*
X39344808Y-46665885D01*
X39007769Y-46660539D01*
X39007769Y-46543308D01*
X39315254Y-46537928D01*
X39622739Y-46532549D01*
X39652293Y-46475399D01*
X39672587Y-46433203D01*
X39681796Y-46408230D01*
X39681846Y-46407509D01*
X39663338Y-46404071D01*
X39663338Y-46404071D01*
G37*
X39663338Y-46404071D02*
X39611932Y-46401089D01*
X39533808Y-46398753D01*
X39435143Y-46397251D01*
X39331657Y-46396769D01*
X38981467Y-46396769D01*
X38919637Y-46458599D01*
X38881538Y-46501207D01*
X38866105Y-46538610D01*
X38867082Y-46589730D01*
X38869567Y-46610022D01*
X38876800Y-46673446D01*
X38880945Y-46725905D01*
X38881328Y-46738692D01*
X38878824Y-46781801D01*
X38872538Y-46843456D01*
X38869567Y-46867362D01*
X38864972Y-46926078D01*
X38874954Y-46965536D01*
X38905772Y-47004662D01*
X38919637Y-47018785D01*
X38981467Y-47080615D01*
X39636497Y-47080615D01*
X39659171Y-47030850D01*
X39675966Y-46987998D01*
X39681846Y-46962927D01*
X39663264Y-46956499D01*
X39611345Y-46950491D01*
X39531828Y-46945303D01*
X39430454Y-46941336D01*
X39344808Y-46939423D01*
X39007769Y-46934077D01*
X39001175Y-46887440D01*
X39005786Y-46845024D01*
X39020713Y-46824240D01*
X39048623Y-46818430D01*
X39108075Y-46813470D01*
X39191534Y-46809754D01*
X39291468Y-46807676D01*
X39342896Y-46807376D01*
X39638946Y-46807077D01*
X39660396Y-46745546D01*
X39674980Y-46701996D01*
X39681781Y-46678306D01*
X39681846Y-46677623D01*
X39663358Y-46675246D01*
X39612094Y-46672634D01*
X39534351Y-46670005D01*
X39436426Y-46667579D01*
X39344808Y-46665885D01*
X39007769Y-46660539D01*
X39007769Y-46543308D01*
X39315254Y-46537928D01*
X39622739Y-46532549D01*
X39652293Y-46475399D01*
X39672587Y-46433203D01*
X39681796Y-46408230D01*
X39681846Y-46407509D01*
X39663338Y-46404071D01*
G36*
X39666472Y-45912667D02*
G01*
X39640883Y-45856410D01*
X39609876Y-45812253D01*
X39575205Y-45779899D01*
X39530480Y-45757562D01*
X39469308Y-45743454D01*
X39385299Y-45735789D01*
X39272060Y-45732780D01*
X39197491Y-45732462D01*
X38906580Y-45732462D01*
X38883905Y-45782227D01*
X38867333Y-45821424D01*
X38861231Y-45840843D01*
X38879390Y-45844558D01*
X38928352Y-45847505D01*
X38999847Y-45849309D01*
X39056615Y-45849692D01*
X39138629Y-45851339D01*
X39203691Y-45855778D01*
X39243533Y-45862260D01*
X39252000Y-45867410D01*
X39243354Y-45902023D01*
X39221177Y-45956360D01*
X39191114Y-46019278D01*
X39158808Y-46079632D01*
X39129902Y-46126279D01*
X39110039Y-46148074D01*
X39109825Y-46148161D01*
X39073065Y-46146286D01*
X39037974Y-46129475D01*
X39009472Y-46099961D01*
X38999939Y-46056884D01*
X39001050Y-46020068D01*
X39001867Y-45967926D01*
X38989651Y-45940556D01*
X38957376Y-45924118D01*
X38951290Y-45922045D01*
X38905261Y-45914919D01*
X38877313Y-45933976D01*
X38863993Y-45983647D01*
X38861530Y-46037303D01*
X38879790Y-46133858D01*
X38905869Y-46183841D01*
X38967132Y-46245571D01*
X39042330Y-46278310D01*
X39121789Y-46281247D01*
X39195833Y-46253576D01*
X39242231Y-46211953D01*
X39268207Y-46170396D01*
X39301093Y-46105078D01*
X39334443Y-46028962D01*
X39339539Y-46016274D01*
X39376435Y-45932667D01*
X39408954Y-45884470D01*
X39441282Y-45868970D01*
X39477606Y-45883450D01*
X39506000Y-45908308D01*
X39540961Y-45967061D01*
X39543583Y-46031707D01*
X39516642Y-46090992D01*
X39462912Y-46133661D01*
X39449050Y-46139261D01*
X39398064Y-46171867D01*
X39360213Y-46219470D01*
X39329150Y-46279539D01*
X39417232Y-46279539D01*
X39471049Y-46276003D01*
X39513466Y-46260844D01*
X39558721Y-46227232D01*
X39593580Y-46194965D01*
X39642938Y-46144791D01*
X39669453Y-46105807D01*
X39680089Y-46063936D01*
X39681846Y-46016540D01*
X39666472Y-45912667D01*
X39666472Y-45912667D01*
G37*
X39666472Y-45912667D02*
X39640883Y-45856410D01*
X39609876Y-45812253D01*
X39575205Y-45779899D01*
X39530480Y-45757562D01*
X39469308Y-45743454D01*
X39385299Y-45735789D01*
X39272060Y-45732780D01*
X39197491Y-45732462D01*
X38906580Y-45732462D01*
X38883905Y-45782227D01*
X38867333Y-45821424D01*
X38861231Y-45840843D01*
X38879390Y-45844558D01*
X38928352Y-45847505D01*
X38999847Y-45849309D01*
X39056615Y-45849692D01*
X39138629Y-45851339D01*
X39203691Y-45855778D01*
X39243533Y-45862260D01*
X39252000Y-45867410D01*
X39243354Y-45902023D01*
X39221177Y-45956360D01*
X39191114Y-46019278D01*
X39158808Y-46079632D01*
X39129902Y-46126279D01*
X39110039Y-46148074D01*
X39109825Y-46148161D01*
X39073065Y-46146286D01*
X39037974Y-46129475D01*
X39009472Y-46099961D01*
X38999939Y-46056884D01*
X39001050Y-46020068D01*
X39001867Y-45967926D01*
X38989651Y-45940556D01*
X38957376Y-45924118D01*
X38951290Y-45922045D01*
X38905261Y-45914919D01*
X38877313Y-45933976D01*
X38863993Y-45983647D01*
X38861530Y-46037303D01*
X38879790Y-46133858D01*
X38905869Y-46183841D01*
X38967132Y-46245571D01*
X39042330Y-46278310D01*
X39121789Y-46281247D01*
X39195833Y-46253576D01*
X39242231Y-46211953D01*
X39268207Y-46170396D01*
X39301093Y-46105078D01*
X39334443Y-46028962D01*
X39339539Y-46016274D01*
X39376435Y-45932667D01*
X39408954Y-45884470D01*
X39441282Y-45868970D01*
X39477606Y-45883450D01*
X39506000Y-45908308D01*
X39540961Y-45967061D01*
X39543583Y-46031707D01*
X39516642Y-46090992D01*
X39462912Y-46133661D01*
X39449050Y-46139261D01*
X39398064Y-46171867D01*
X39360213Y-46219470D01*
X39329150Y-46279539D01*
X39417232Y-46279539D01*
X39471049Y-46276003D01*
X39513466Y-46260844D01*
X39558721Y-46227232D01*
X39593580Y-46194965D01*
X39642938Y-46144791D01*
X39669453Y-46105807D01*
X39680089Y-46063936D01*
X39681846Y-46016540D01*
X39666472Y-45912667D01*
G36*
X39663218Y-45229193D02*
G01*
X39653012Y-45205839D01*
X39608866Y-45150098D01*
X39545033Y-45102431D01*
X39476913Y-45072952D01*
X39443330Y-45068154D01*
X39396444Y-45084240D01*
X39371635Y-45119525D01*
X39356613Y-45157356D01*
X39353845Y-45174679D01*
X39373934Y-45183114D01*
X39417649Y-45199770D01*
X39437402Y-45207077D01*
X39505729Y-45248052D01*
X39539809Y-45307378D01*
X39538761Y-45383448D01*
X39537419Y-45389082D01*
X39518164Y-45429695D01*
X39480625Y-45459552D01*
X39420191Y-45479945D01*
X39332249Y-45492164D01*
X39212187Y-45497500D01*
X39148302Y-45498000D01*
X39047597Y-45498248D01*
X38978946Y-45499874D01*
X38935327Y-45504199D01*
X38909718Y-45512546D01*
X38895097Y-45526235D01*
X38884442Y-45546589D01*
X38883905Y-45547766D01*
X38867333Y-45586962D01*
X38861231Y-45606381D01*
X38879681Y-45609365D01*
X38930677Y-45611919D01*
X39007692Y-45613860D01*
X39104195Y-45615003D01*
X39174816Y-45615231D01*
X39311475Y-45614068D01*
X39415149Y-45609521D01*
X39491892Y-45600001D01*
X39547754Y-45583919D01*
X39588788Y-45559687D01*
X39621046Y-45525714D01*
X39643560Y-45492167D01*
X39673524Y-45411501D01*
X39680282Y-45317619D01*
X39663218Y-45229193D01*
X39663218Y-45229193D01*
G37*
X39663218Y-45229193D02*
X39653012Y-45205839D01*
X39608866Y-45150098D01*
X39545033Y-45102431D01*
X39476913Y-45072952D01*
X39443330Y-45068154D01*
X39396444Y-45084240D01*
X39371635Y-45119525D01*
X39356613Y-45157356D01*
X39353845Y-45174679D01*
X39373934Y-45183114D01*
X39417649Y-45199770D01*
X39437402Y-45207077D01*
X39505729Y-45248052D01*
X39539809Y-45307378D01*
X39538761Y-45383448D01*
X39537419Y-45389082D01*
X39518164Y-45429695D01*
X39480625Y-45459552D01*
X39420191Y-45479945D01*
X39332249Y-45492164D01*
X39212187Y-45497500D01*
X39148302Y-45498000D01*
X39047597Y-45498248D01*
X38978946Y-45499874D01*
X38935327Y-45504199D01*
X38909718Y-45512546D01*
X38895097Y-45526235D01*
X38884442Y-45546589D01*
X38883905Y-45547766D01*
X38867333Y-45586962D01*
X38861231Y-45606381D01*
X38879681Y-45609365D01*
X38930677Y-45611919D01*
X39007692Y-45613860D01*
X39104195Y-45615003D01*
X39174816Y-45615231D01*
X39311475Y-45614068D01*
X39415149Y-45609521D01*
X39491892Y-45600001D01*
X39547754Y-45583919D01*
X39588788Y-45559687D01*
X39621046Y-45525714D01*
X39643560Y-45492167D01*
X39673524Y-45411501D01*
X39680282Y-45317619D01*
X39663218Y-45229193D01*
G36*
X39652162Y-44554776D02*
G01*
X39601639Y-44477472D01*
X39556410Y-44440186D01*
X39474337Y-44410647D01*
X39409393Y-44408301D01*
X39322555Y-44413615D01*
X39234897Y-44613885D01*
X39190113Y-44711261D01*
X39154087Y-44774887D01*
X39122883Y-44807971D01*
X39092564Y-44813720D01*
X39059195Y-44795342D01*
X39037077Y-44775077D01*
X39001607Y-44716111D01*
X38999121Y-44651976D01*
X39026765Y-44593074D01*
X39081680Y-44549803D01*
X39101072Y-44542064D01*
X39161636Y-44504994D01*
X39187448Y-44462346D01*
X39209529Y-44403846D01*
X39125816Y-44403846D01*
X39068850Y-44409018D01*
X39020811Y-44429277D01*
X38965654Y-44471738D01*
X38958486Y-44478049D01*
X38909415Y-44525280D01*
X38883080Y-44565879D01*
X38870965Y-44616672D01*
X38866997Y-44658780D01*
X38866009Y-44734098D01*
X38878534Y-44787714D01*
X38897131Y-44821162D01*
X38938025Y-44873732D01*
X38982252Y-44910121D01*
X39037874Y-44933150D01*
X39112953Y-44945641D01*
X39215551Y-44950413D01*
X39267624Y-44950794D01*
X39330052Y-44949499D01*
X39330052Y-44831529D01*
X39296562Y-44830161D01*
X39291077Y-44826751D01*
X39298528Y-44804247D01*
X39318247Y-44755818D01*
X39346282Y-44691092D01*
X39352308Y-44677557D01*
X39393904Y-44595756D01*
X39430462Y-44550688D01*
X39464704Y-44540783D01*
X39499352Y-44564474D01*
X39514661Y-44584040D01*
X39545279Y-44654640D01*
X39540220Y-44720720D01*
X39502849Y-44776041D01*
X39436527Y-44814364D01*
X39383884Y-44826651D01*
X39330052Y-44831529D01*
X39330052Y-44949499D01*
X39389280Y-44948270D01*
X39479290Y-44938968D01*
X39544833Y-44920540D01*
X39593088Y-44890640D01*
X39631233Y-44846920D01*
X39643560Y-44827859D01*
X39675664Y-44741274D01*
X39677684Y-44646478D01*
X39652162Y-44554776D01*
X39652162Y-44554776D01*
G37*
X39652162Y-44554776D02*
X39601639Y-44477472D01*
X39556410Y-44440186D01*
X39474337Y-44410647D01*
X39409393Y-44408301D01*
X39322555Y-44413615D01*
X39234897Y-44613885D01*
X39190113Y-44711261D01*
X39154087Y-44774887D01*
X39122883Y-44807971D01*
X39092564Y-44813720D01*
X39059195Y-44795342D01*
X39037077Y-44775077D01*
X39001607Y-44716111D01*
X38999121Y-44651976D01*
X39026765Y-44593074D01*
X39081680Y-44549803D01*
X39101072Y-44542064D01*
X39161636Y-44504994D01*
X39187448Y-44462346D01*
X39209529Y-44403846D01*
X39125816Y-44403846D01*
X39068850Y-44409018D01*
X39020811Y-44429277D01*
X38965654Y-44471738D01*
X38958486Y-44478049D01*
X38909415Y-44525280D01*
X38883080Y-44565879D01*
X38870965Y-44616672D01*
X38866997Y-44658780D01*
X38866009Y-44734098D01*
X38878534Y-44787714D01*
X38897131Y-44821162D01*
X38938025Y-44873732D01*
X38982252Y-44910121D01*
X39037874Y-44933150D01*
X39112953Y-44945641D01*
X39215551Y-44950413D01*
X39267624Y-44950794D01*
X39330052Y-44949499D01*
X39330052Y-44831529D01*
X39296562Y-44830161D01*
X39291077Y-44826751D01*
X39298528Y-44804247D01*
X39318247Y-44755818D01*
X39346282Y-44691092D01*
X39352308Y-44677557D01*
X39393904Y-44595756D01*
X39430462Y-44550688D01*
X39464704Y-44540783D01*
X39499352Y-44564474D01*
X39514661Y-44584040D01*
X39545279Y-44654640D01*
X39540220Y-44720720D01*
X39502849Y-44776041D01*
X39436527Y-44814364D01*
X39383884Y-44826651D01*
X39330052Y-44831529D01*
X39330052Y-44949499D01*
X39389280Y-44948270D01*
X39479290Y-44938968D01*
X39544833Y-44920540D01*
X39593088Y-44890640D01*
X39631233Y-44846920D01*
X39643560Y-44827859D01*
X39675664Y-44741274D01*
X39677684Y-44646478D01*
X39652162Y-44554776D01*
G36*
X46012224Y-48660122D02*
G01*
X46011645Y-48554388D01*
X46010078Y-48477868D01*
X46007028Y-48425628D01*
X46002004Y-48392737D01*
X45994511Y-48374263D01*
X45984056Y-48365273D01*
X45970147Y-48360837D01*
X45968346Y-48360406D01*
X45935855Y-48353667D01*
X45871748Y-48341192D01*
X45782849Y-48324281D01*
X45675981Y-48304229D01*
X45557967Y-48282336D01*
X45553822Y-48281571D01*
X45438169Y-48259641D01*
X45335986Y-48239123D01*
X45253402Y-48221341D01*
X45196544Y-48207619D01*
X45171542Y-48199282D01*
X45171099Y-48198884D01*
X45158890Y-48174323D01*
X45138544Y-48123685D01*
X45114455Y-48057905D01*
X45114326Y-48057539D01*
X45083182Y-47974683D01*
X45043509Y-47877000D01*
X45003619Y-47784923D01*
X45001647Y-47780566D01*
X44933580Y-47630593D01*
X45160361Y-47298502D01*
X45229496Y-47196626D01*
X45291303Y-47104343D01*
X45342267Y-47026997D01*
X45378873Y-46969936D01*
X45397606Y-46938505D01*
X45398996Y-46935521D01*
X45392810Y-46912679D01*
X45362965Y-46870018D01*
X45308053Y-46805872D01*
X45226666Y-46718579D01*
X45140078Y-46629465D01*
X45054753Y-46543559D01*
X44976892Y-46466673D01*
X44911303Y-46403436D01*
X44862795Y-46358477D01*
X44836175Y-46336424D01*
X44834805Y-46335604D01*
X44816537Y-46333166D01*
X44786705Y-46342350D01*
X44741279Y-46365426D01*
X44676230Y-46404663D01*
X44587530Y-46462330D01*
X44473343Y-46539205D01*
X44372838Y-46607430D01*
X44282697Y-46668418D01*
X44208151Y-46718644D01*
X44154435Y-46754584D01*
X44126782Y-46772713D01*
X44124905Y-46773854D01*
X44098410Y-46771641D01*
X44046914Y-46754862D01*
X43980149Y-46726858D01*
X43958828Y-46716878D01*
X43863841Y-46673328D01*
X43756063Y-46626866D01*
X43662808Y-46589123D01*
X43593594Y-46561927D01*
X43540994Y-46540325D01*
X43513503Y-46527842D01*
X43511384Y-46526291D01*
X43507876Y-46503332D01*
X43498262Y-46449214D01*
X43483911Y-46371132D01*
X43466193Y-46276281D01*
X43446475Y-46171857D01*
X43426126Y-46065056D01*
X43406514Y-45963074D01*
X43389009Y-45873106D01*
X43374978Y-45802347D01*
X43365791Y-45757994D01*
X43363193Y-45747115D01*
X43356782Y-45735878D01*
X43342303Y-45727395D01*
X43314867Y-45721286D01*
X43269589Y-45717168D01*
X43201580Y-45714659D01*
X43105953Y-45713379D01*
X42977820Y-45712946D01*
X42925299Y-45712923D01*
X42498155Y-45712923D01*
X42477909Y-45815500D01*
X42466930Y-45872569D01*
X42450905Y-45957731D01*
X42431767Y-46060628D01*
X42411449Y-46170904D01*
X42405868Y-46201385D01*
X42386083Y-46303145D01*
X42366627Y-46391795D01*
X42349303Y-46459892D01*
X42335912Y-46499996D01*
X42331921Y-46506677D01*
X42303658Y-46523081D01*
X42248891Y-46546601D01*
X42178412Y-46572684D01*
X42163231Y-46577858D01*
X42069104Y-46612044D01*
X41962899Y-46654477D01*
X41867527Y-46696003D01*
X41867084Y-46696208D01*
X41717475Y-46765360D01*
X41048383Y-46310488D01*
X40755884Y-46602500D01*
X40668830Y-46690820D01*
X40592091Y-46771375D01*
X40529763Y-46839640D01*
X40485944Y-46891092D01*
X40464730Y-46921206D01*
X40463384Y-46925526D01*
X40473984Y-46950889D01*
X40503453Y-47002642D01*
X40548295Y-47075132D01*
X40605016Y-47162706D01*
X40668538Y-47257388D01*
X40733332Y-47353484D01*
X40789713Y-47439163D01*
X40834212Y-47508984D01*
X40863361Y-47557506D01*
X40873692Y-47579218D01*
X40864950Y-47605707D01*
X40841913Y-47655938D01*
X40809369Y-47719549D01*
X40805751Y-47726292D01*
X40762790Y-47811954D01*
X40741721Y-47870694D01*
X40741497Y-47907228D01*
X40761072Y-47926269D01*
X40761346Y-47926380D01*
X40784528Y-47935898D01*
X40839559Y-47958597D01*
X40922178Y-47992718D01*
X41028128Y-48036500D01*
X41153148Y-48088184D01*
X41292980Y-48146008D01*
X41428363Y-48202009D01*
X41577766Y-48263553D01*
X41716168Y-48320061D01*
X41839327Y-48369839D01*
X41942998Y-48411194D01*
X42022941Y-48442432D01*
X42074912Y-48461859D01*
X42094308Y-48467846D01*
X42116557Y-48452832D01*
X42152018Y-48413561D01*
X42191113Y-48361193D01*
X42314755Y-48212059D01*
X42456478Y-48095489D01*
X42613296Y-48012882D01*
X42782225Y-47965634D01*
X42960278Y-47955143D01*
X43042461Y-47962769D01*
X43212969Y-48004318D01*
X43363541Y-48075877D01*
X43492691Y-48173005D01*
X43598936Y-48291266D01*
X43680790Y-48426220D01*
X43736768Y-48573429D01*
X43765385Y-48728456D01*
X43765156Y-48886861D01*
X43734595Y-49044206D01*
X43672218Y-49196054D01*
X43576540Y-49337965D01*
X43522428Y-49397197D01*
X43383480Y-49510797D01*
X43231639Y-49589894D01*
X43071333Y-49635014D01*
X42906988Y-49646684D01*
X42743029Y-49625431D01*
X42583882Y-49571780D01*
X42433975Y-49486260D01*
X42297733Y-49369395D01*
X42191113Y-49238807D01*
X42150358Y-49184412D01*
X42115282Y-49145986D01*
X42094274Y-49132154D01*
X42071365Y-49139397D01*
X42016635Y-49159995D01*
X41934328Y-49192254D01*
X41828685Y-49234479D01*
X41703950Y-49284977D01*
X41564364Y-49342052D01*
X41428330Y-49398146D01*
X41278799Y-49460033D01*
X41140233Y-49517356D01*
X41016893Y-49568356D01*
X40913036Y-49611273D01*
X40832920Y-49644347D01*
X40780805Y-49665819D01*
X40761346Y-49673775D01*
X40741577Y-49692571D01*
X40741635Y-49728926D01*
X40762559Y-49787521D01*
X40805387Y-49873032D01*
X40805751Y-49873708D01*
X40838988Y-49938093D01*
X40863198Y-49990139D01*
X40873596Y-50019488D01*
X40873692Y-50020783D01*
X40863145Y-50042876D01*
X40833816Y-50091652D01*
X40789173Y-50161669D01*
X40732686Y-50247486D01*
X40668538Y-50342612D01*
X40603589Y-50439460D01*
X40547104Y-50526747D01*
X40502579Y-50598819D01*
X40473510Y-50650023D01*
X40463384Y-50674474D01*
X40476693Y-50696990D01*
X40513888Y-50742258D01*
X40570872Y-50805756D01*
X40643551Y-50882961D01*
X40727829Y-50969349D01*
X40755984Y-50997601D01*
X41048584Y-51289713D01*
X41374896Y-51067369D01*
X41475103Y-50999798D01*
X41565037Y-50940493D01*
X41639490Y-50892783D01*
X41693249Y-50859993D01*
X41721106Y-50845452D01*
X41723088Y-50845026D01*
X41749345Y-50852692D01*
X41802163Y-50873311D01*
X41872690Y-50903315D01*
X41919907Y-50924375D01*
X42010306Y-50963752D01*
X42101634Y-51000835D01*
X42178800Y-51029585D01*
X42202308Y-51037395D01*
X42265084Y-51059583D01*
X42313589Y-51081273D01*
X42331921Y-51093187D01*
X42343141Y-51119477D01*
X42359046Y-51176858D01*
X42377833Y-51257882D01*
X42397701Y-51355105D01*
X42405868Y-51398615D01*
X42426171Y-51509104D01*
X42445830Y-51615084D01*
X42462912Y-51706199D01*
X42475482Y-51772092D01*
X42477909Y-51784500D01*
X42498155Y-51887077D01*
X42925299Y-51887077D01*
X43065754Y-51886847D01*
X43172021Y-51885901D01*
X43248987Y-51883859D01*
X43301540Y-51880338D01*
X43334567Y-51874957D01*
X43352955Y-51867334D01*
X43361592Y-51857088D01*
X43363193Y-51852885D01*
X43368873Y-51827530D01*
X43380205Y-51771516D01*
X43395821Y-51692036D01*
X43414353Y-51596288D01*
X43434431Y-51491467D01*
X43454688Y-51384768D01*
X43473754Y-51283387D01*
X43490261Y-51194521D01*
X43502841Y-51125363D01*
X43510125Y-51083111D01*
X43511384Y-51073710D01*
X43528237Y-51065193D01*
X43573130Y-51046340D01*
X43637570Y-51020676D01*
X43662808Y-51010877D01*
X43760314Y-50971352D01*
X43868041Y-50924808D01*
X43958828Y-50883123D01*
X44028247Y-50852450D01*
X44085290Y-50832044D01*
X44120223Y-50825232D01*
X44124905Y-50826318D01*
X44147009Y-50840715D01*
X44196169Y-50873588D01*
X44267152Y-50921410D01*
X44354722Y-50980652D01*
X44453643Y-51047785D01*
X44473170Y-51061059D01*
X44588860Y-51138954D01*
X44676956Y-51196213D01*
X44741514Y-51235119D01*
X44786589Y-51257956D01*
X44816237Y-51267006D01*
X44834515Y-51264552D01*
X44834631Y-51264489D01*
X44858639Y-51245173D01*
X44905053Y-51202449D01*
X44969063Y-51140949D01*
X45045855Y-51065302D01*
X45130618Y-50980139D01*
X45140078Y-50970535D01*
X45244011Y-50863210D01*
X45320325Y-50780385D01*
X45370429Y-50720395D01*
X45395730Y-50681577D01*
X45398996Y-50664480D01*
X45384750Y-50639527D01*
X45351844Y-50587745D01*
X45303792Y-50514480D01*
X45244110Y-50425080D01*
X45176312Y-50324889D01*
X45160361Y-50301499D01*
X44933580Y-49969407D01*
X45001647Y-49819435D01*
X45041315Y-49728230D01*
X45081209Y-49630331D01*
X45113017Y-49546169D01*
X45114326Y-49542462D01*
X45138424Y-49476631D01*
X45158800Y-49425884D01*
X45171064Y-49401158D01*
X45171099Y-49401116D01*
X45193266Y-49393271D01*
X45247783Y-49379934D01*
X45328520Y-49362430D01*
X45429350Y-49342083D01*
X45544144Y-49320218D01*
X45553822Y-49318429D01*
X45672096Y-49296496D01*
X45779458Y-49276360D01*
X45869083Y-49259320D01*
X45934149Y-49246672D01*
X45967832Y-49239716D01*
X45968346Y-49239594D01*
X45982675Y-49235361D01*
X45993493Y-49227129D01*
X46001294Y-49209967D01*
X46006571Y-49178942D01*
X46009818Y-49129122D01*
X46011528Y-49055576D01*
X46012193Y-48953371D01*
X46012307Y-48817575D01*
X46012308Y-48800000D01*
X46012224Y-48660122D01*
X46012224Y-48660122D01*
G37*
X46012224Y-48660122D02*
X46011645Y-48554388D01*
X46010078Y-48477868D01*
X46007028Y-48425628D01*
X46002004Y-48392737D01*
X45994511Y-48374263D01*
X45984056Y-48365273D01*
X45970147Y-48360837D01*
X45968346Y-48360406D01*
X45935855Y-48353667D01*
X45871748Y-48341192D01*
X45782849Y-48324281D01*
X45675981Y-48304229D01*
X45557967Y-48282336D01*
X45553822Y-48281571D01*
X45438169Y-48259641D01*
X45335986Y-48239123D01*
X45253402Y-48221341D01*
X45196544Y-48207619D01*
X45171542Y-48199282D01*
X45171099Y-48198884D01*
X45158890Y-48174323D01*
X45138544Y-48123685D01*
X45114455Y-48057905D01*
X45114326Y-48057539D01*
X45083182Y-47974683D01*
X45043509Y-47877000D01*
X45003619Y-47784923D01*
X45001647Y-47780566D01*
X44933580Y-47630593D01*
X45160361Y-47298502D01*
X45229496Y-47196626D01*
X45291303Y-47104343D01*
X45342267Y-47026997D01*
X45378873Y-46969936D01*
X45397606Y-46938505D01*
X45398996Y-46935521D01*
X45392810Y-46912679D01*
X45362965Y-46870018D01*
X45308053Y-46805872D01*
X45226666Y-46718579D01*
X45140078Y-46629465D01*
X45054753Y-46543559D01*
X44976892Y-46466673D01*
X44911303Y-46403436D01*
X44862795Y-46358477D01*
X44836175Y-46336424D01*
X44834805Y-46335604D01*
X44816537Y-46333166D01*
X44786705Y-46342350D01*
X44741279Y-46365426D01*
X44676230Y-46404663D01*
X44587530Y-46462330D01*
X44473343Y-46539205D01*
X44372838Y-46607430D01*
X44282697Y-46668418D01*
X44208151Y-46718644D01*
X44154435Y-46754584D01*
X44126782Y-46772713D01*
X44124905Y-46773854D01*
X44098410Y-46771641D01*
X44046914Y-46754862D01*
X43980149Y-46726858D01*
X43958828Y-46716878D01*
X43863841Y-46673328D01*
X43756063Y-46626866D01*
X43662808Y-46589123D01*
X43593594Y-46561927D01*
X43540994Y-46540325D01*
X43513503Y-46527842D01*
X43511384Y-46526291D01*
X43507876Y-46503332D01*
X43498262Y-46449214D01*
X43483911Y-46371132D01*
X43466193Y-46276281D01*
X43446475Y-46171857D01*
X43426126Y-46065056D01*
X43406514Y-45963074D01*
X43389009Y-45873106D01*
X43374978Y-45802347D01*
X43365791Y-45757994D01*
X43363193Y-45747115D01*
X43356782Y-45735878D01*
X43342303Y-45727395D01*
X43314867Y-45721286D01*
X43269589Y-45717168D01*
X43201580Y-45714659D01*
X43105953Y-45713379D01*
X42977820Y-45712946D01*
X42925299Y-45712923D01*
X42498155Y-45712923D01*
X42477909Y-45815500D01*
X42466930Y-45872569D01*
X42450905Y-45957731D01*
X42431767Y-46060628D01*
X42411449Y-46170904D01*
X42405868Y-46201385D01*
X42386083Y-46303145D01*
X42366627Y-46391795D01*
X42349303Y-46459892D01*
X42335912Y-46499996D01*
X42331921Y-46506677D01*
X42303658Y-46523081D01*
X42248891Y-46546601D01*
X42178412Y-46572684D01*
X42163231Y-46577858D01*
X42069104Y-46612044D01*
X41962899Y-46654477D01*
X41867527Y-46696003D01*
X41867084Y-46696208D01*
X41717475Y-46765360D01*
X41048383Y-46310488D01*
X40755884Y-46602500D01*
X40668830Y-46690820D01*
X40592091Y-46771375D01*
X40529763Y-46839640D01*
X40485944Y-46891092D01*
X40464730Y-46921206D01*
X40463384Y-46925526D01*
X40473984Y-46950889D01*
X40503453Y-47002642D01*
X40548295Y-47075132D01*
X40605016Y-47162706D01*
X40668538Y-47257388D01*
X40733332Y-47353484D01*
X40789713Y-47439163D01*
X40834212Y-47508984D01*
X40863361Y-47557506D01*
X40873692Y-47579218D01*
X40864950Y-47605707D01*
X40841913Y-47655938D01*
X40809369Y-47719549D01*
X40805751Y-47726292D01*
X40762790Y-47811954D01*
X40741721Y-47870694D01*
X40741497Y-47907228D01*
X40761072Y-47926269D01*
X40761346Y-47926380D01*
X40784528Y-47935898D01*
X40839559Y-47958597D01*
X40922178Y-47992718D01*
X41028128Y-48036500D01*
X41153148Y-48088184D01*
X41292980Y-48146008D01*
X41428363Y-48202009D01*
X41577766Y-48263553D01*
X41716168Y-48320061D01*
X41839327Y-48369839D01*
X41942998Y-48411194D01*
X42022941Y-48442432D01*
X42074912Y-48461859D01*
X42094308Y-48467846D01*
X42116557Y-48452832D01*
X42152018Y-48413561D01*
X42191113Y-48361193D01*
X42314755Y-48212059D01*
X42456478Y-48095489D01*
X42613296Y-48012882D01*
X42782225Y-47965634D01*
X42960278Y-47955143D01*
X43042461Y-47962769D01*
X43212969Y-48004318D01*
X43363541Y-48075877D01*
X43492691Y-48173005D01*
X43598936Y-48291266D01*
X43680790Y-48426220D01*
X43736768Y-48573429D01*
X43765385Y-48728456D01*
X43765156Y-48886861D01*
X43734595Y-49044206D01*
X43672218Y-49196054D01*
X43576540Y-49337965D01*
X43522428Y-49397197D01*
X43383480Y-49510797D01*
X43231639Y-49589894D01*
X43071333Y-49635014D01*
X42906988Y-49646684D01*
X42743029Y-49625431D01*
X42583882Y-49571780D01*
X42433975Y-49486260D01*
X42297733Y-49369395D01*
X42191113Y-49238807D01*
X42150358Y-49184412D01*
X42115282Y-49145986D01*
X42094274Y-49132154D01*
X42071365Y-49139397D01*
X42016635Y-49159995D01*
X41934328Y-49192254D01*
X41828685Y-49234479D01*
X41703950Y-49284977D01*
X41564364Y-49342052D01*
X41428330Y-49398146D01*
X41278799Y-49460033D01*
X41140233Y-49517356D01*
X41016893Y-49568356D01*
X40913036Y-49611273D01*
X40832920Y-49644347D01*
X40780805Y-49665819D01*
X40761346Y-49673775D01*
X40741577Y-49692571D01*
X40741635Y-49728926D01*
X40762559Y-49787521D01*
X40805387Y-49873032D01*
X40805751Y-49873708D01*
X40838988Y-49938093D01*
X40863198Y-49990139D01*
X40873596Y-50019488D01*
X40873692Y-50020783D01*
X40863145Y-50042876D01*
X40833816Y-50091652D01*
X40789173Y-50161669D01*
X40732686Y-50247486D01*
X40668538Y-50342612D01*
X40603589Y-50439460D01*
X40547104Y-50526747D01*
X40502579Y-50598819D01*
X40473510Y-50650023D01*
X40463384Y-50674474D01*
X40476693Y-50696990D01*
X40513888Y-50742258D01*
X40570872Y-50805756D01*
X40643551Y-50882961D01*
X40727829Y-50969349D01*
X40755984Y-50997601D01*
X41048584Y-51289713D01*
X41374896Y-51067369D01*
X41475103Y-50999798D01*
X41565037Y-50940493D01*
X41639490Y-50892783D01*
X41693249Y-50859993D01*
X41721106Y-50845452D01*
X41723088Y-50845026D01*
X41749345Y-50852692D01*
X41802163Y-50873311D01*
X41872690Y-50903315D01*
X41919907Y-50924375D01*
X42010306Y-50963752D01*
X42101634Y-51000835D01*
X42178800Y-51029585D01*
X42202308Y-51037395D01*
X42265084Y-51059583D01*
X42313589Y-51081273D01*
X42331921Y-51093187D01*
X42343141Y-51119477D01*
X42359046Y-51176858D01*
X42377833Y-51257882D01*
X42397701Y-51355105D01*
X42405868Y-51398615D01*
X42426171Y-51509104D01*
X42445830Y-51615084D01*
X42462912Y-51706199D01*
X42475482Y-51772092D01*
X42477909Y-51784500D01*
X42498155Y-51887077D01*
X42925299Y-51887077D01*
X43065754Y-51886847D01*
X43172021Y-51885901D01*
X43248987Y-51883859D01*
X43301540Y-51880338D01*
X43334567Y-51874957D01*
X43352955Y-51867334D01*
X43361592Y-51857088D01*
X43363193Y-51852885D01*
X43368873Y-51827530D01*
X43380205Y-51771516D01*
X43395821Y-51692036D01*
X43414353Y-51596288D01*
X43434431Y-51491467D01*
X43454688Y-51384768D01*
X43473754Y-51283387D01*
X43490261Y-51194521D01*
X43502841Y-51125363D01*
X43510125Y-51083111D01*
X43511384Y-51073710D01*
X43528237Y-51065193D01*
X43573130Y-51046340D01*
X43637570Y-51020676D01*
X43662808Y-51010877D01*
X43760314Y-50971352D01*
X43868041Y-50924808D01*
X43958828Y-50883123D01*
X44028247Y-50852450D01*
X44085290Y-50832044D01*
X44120223Y-50825232D01*
X44124905Y-50826318D01*
X44147009Y-50840715D01*
X44196169Y-50873588D01*
X44267152Y-50921410D01*
X44354722Y-50980652D01*
X44453643Y-51047785D01*
X44473170Y-51061059D01*
X44588860Y-51138954D01*
X44676956Y-51196213D01*
X44741514Y-51235119D01*
X44786589Y-51257956D01*
X44816237Y-51267006D01*
X44834515Y-51264552D01*
X44834631Y-51264489D01*
X44858639Y-51245173D01*
X44905053Y-51202449D01*
X44969063Y-51140949D01*
X45045855Y-51065302D01*
X45130618Y-50980139D01*
X45140078Y-50970535D01*
X45244011Y-50863210D01*
X45320325Y-50780385D01*
X45370429Y-50720395D01*
X45395730Y-50681577D01*
X45398996Y-50664480D01*
X45384750Y-50639527D01*
X45351844Y-50587745D01*
X45303792Y-50514480D01*
X45244110Y-50425080D01*
X45176312Y-50324889D01*
X45160361Y-50301499D01*
X44933580Y-49969407D01*
X45001647Y-49819435D01*
X45041315Y-49728230D01*
X45081209Y-49630331D01*
X45113017Y-49546169D01*
X45114326Y-49542462D01*
X45138424Y-49476631D01*
X45158800Y-49425884D01*
X45171064Y-49401158D01*
X45171099Y-49401116D01*
X45193266Y-49393271D01*
X45247783Y-49379934D01*
X45328520Y-49362430D01*
X45429350Y-49342083D01*
X45544144Y-49320218D01*
X45553822Y-49318429D01*
X45672096Y-49296496D01*
X45779458Y-49276360D01*
X45869083Y-49259320D01*
X45934149Y-49246672D01*
X45967832Y-49239716D01*
X45968346Y-49239594D01*
X45982675Y-49235361D01*
X45993493Y-49227129D01*
X46001294Y-49209967D01*
X46006571Y-49178942D01*
X46009818Y-49129122D01*
X46011528Y-49055576D01*
X46012193Y-48953371D01*
X46012307Y-48817575D01*
X46012308Y-48800000D01*
X46012224Y-48660122D01*
D14*
X42121428Y-40764285D02*
X42121428Y-40478571D01*
X42050000Y-40335714D01*
X41907142Y-40192857D01*
X41621428Y-40121428D01*
X41121428Y-40121428D01*
X40835714Y-40192857D01*
X40692857Y-40335714D01*
X40621428Y-40478571D01*
X40621428Y-40764285D01*
X40692857Y-40907142D01*
X40835714Y-41050000D01*
X41121428Y-41121428D01*
X41621428Y-41121428D01*
X41907142Y-41050000D01*
X42050000Y-40907142D01*
X42121428Y-40764285D01*
X40621428Y-39478571D02*
X42121428Y-39478571D01*
X42121428Y-38907142D01*
X42050000Y-38764285D01*
X41978571Y-38692857D01*
X41835714Y-38621428D01*
X41621428Y-38621428D01*
X41478571Y-38692857D01*
X41407142Y-38764285D01*
X41335714Y-38907142D01*
X41335714Y-39478571D01*
X40621428Y-37978571D02*
X42121428Y-37978571D01*
X40621428Y-37121428D02*
X41478571Y-37764285D01*
X42121428Y-37121428D02*
X41264285Y-37978571D01*
X41407142Y-36478571D02*
X41407142Y-35978571D01*
X40621428Y-35764285D02*
X40621428Y-36478571D01*
X42121428Y-36478571D01*
X42121428Y-35764285D01*
X41335714Y-34835714D02*
X40621428Y-34835714D01*
X42121428Y-35335714D02*
X41335714Y-34835714D01*
X42121428Y-34335714D01*
M02*
