G04 #@! TF.GenerationSoftware,KiCad,Pcbnew,(5.1.2)-2*
G04 #@! TF.CreationDate,2019-07-30T15:23:33+02:00*
G04 #@! TF.ProjectId,sensor_auxiliary,73656e73-6f72-45f6-9175-78696c696172,1*
G04 #@! TF.SameCoordinates,Original*
G04 #@! TF.FileFunction,Paste,Top*
G04 #@! TF.FilePolarity,Positive*
%FSLAX46Y46*%
G04 Gerber Fmt 4.6, Leading zero omitted, Abs format (unit mm)*
G04 Created by KiCad (PCBNEW (5.1.2)-2) date 2019-07-30 15:23:33*
%MOMM*%
%LPD*%
G04 APERTURE LIST*
%ADD10R,1.200000X1.200000*%
%ADD11R,1.500000X1.600000*%
%ADD12C,0.100000*%
%ADD13C,0.790000*%
%ADD14C,1.150000*%
%ADD15C,1.050000*%
%ADD16R,1.300000X2.000000*%
%ADD17R,1.000000X0.400000*%
G04 APERTURE END LIST*
D10*
X44300000Y-51000000D03*
X44300000Y-49000000D03*
D11*
X41050000Y-50000000D03*
D12*
G36*
X49316858Y-39670951D02*
G01*
X49336030Y-39673795D01*
X49354831Y-39678504D01*
X49373080Y-39685034D01*
X49390601Y-39693321D01*
X49407225Y-39703285D01*
X49422793Y-39714830D01*
X49437154Y-39727846D01*
X49450170Y-39742207D01*
X49461715Y-39757775D01*
X49471679Y-39774399D01*
X49479966Y-39791920D01*
X49486496Y-39810169D01*
X49491205Y-39828970D01*
X49494049Y-39848142D01*
X49495000Y-39867500D01*
X49495000Y-41132500D01*
X49494049Y-41151858D01*
X49491205Y-41171030D01*
X49486496Y-41189831D01*
X49479966Y-41208080D01*
X49471679Y-41225601D01*
X49461715Y-41242225D01*
X49450170Y-41257793D01*
X49437154Y-41272154D01*
X49422793Y-41285170D01*
X49407225Y-41296715D01*
X49390601Y-41306679D01*
X49373080Y-41314966D01*
X49354831Y-41321496D01*
X49336030Y-41326205D01*
X49316858Y-41329049D01*
X49297500Y-41330000D01*
X48902500Y-41330000D01*
X48883142Y-41329049D01*
X48863970Y-41326205D01*
X48845169Y-41321496D01*
X48826920Y-41314966D01*
X48809399Y-41306679D01*
X48792775Y-41296715D01*
X48777207Y-41285170D01*
X48762846Y-41272154D01*
X48749830Y-41257793D01*
X48738285Y-41242225D01*
X48728321Y-41225601D01*
X48720034Y-41208080D01*
X48713504Y-41189831D01*
X48708795Y-41171030D01*
X48705951Y-41151858D01*
X48705000Y-41132500D01*
X48705000Y-39867500D01*
X48705951Y-39848142D01*
X48708795Y-39828970D01*
X48713504Y-39810169D01*
X48720034Y-39791920D01*
X48728321Y-39774399D01*
X48738285Y-39757775D01*
X48749830Y-39742207D01*
X48762846Y-39727846D01*
X48777207Y-39714830D01*
X48792775Y-39703285D01*
X48809399Y-39693321D01*
X48826920Y-39685034D01*
X48845169Y-39678504D01*
X48863970Y-39673795D01*
X48883142Y-39670951D01*
X48902500Y-39670000D01*
X49297500Y-39670000D01*
X49316858Y-39670951D01*
X49316858Y-39670951D01*
G37*
D13*
X49100000Y-40500000D03*
D12*
G36*
X51116858Y-39670951D02*
G01*
X51136030Y-39673795D01*
X51154831Y-39678504D01*
X51173080Y-39685034D01*
X51190601Y-39693321D01*
X51207225Y-39703285D01*
X51222793Y-39714830D01*
X51237154Y-39727846D01*
X51250170Y-39742207D01*
X51261715Y-39757775D01*
X51271679Y-39774399D01*
X51279966Y-39791920D01*
X51286496Y-39810169D01*
X51291205Y-39828970D01*
X51294049Y-39848142D01*
X51295000Y-39867500D01*
X51295000Y-41132500D01*
X51294049Y-41151858D01*
X51291205Y-41171030D01*
X51286496Y-41189831D01*
X51279966Y-41208080D01*
X51271679Y-41225601D01*
X51261715Y-41242225D01*
X51250170Y-41257793D01*
X51237154Y-41272154D01*
X51222793Y-41285170D01*
X51207225Y-41296715D01*
X51190601Y-41306679D01*
X51173080Y-41314966D01*
X51154831Y-41321496D01*
X51136030Y-41326205D01*
X51116858Y-41329049D01*
X51097500Y-41330000D01*
X50702500Y-41330000D01*
X50683142Y-41329049D01*
X50663970Y-41326205D01*
X50645169Y-41321496D01*
X50626920Y-41314966D01*
X50609399Y-41306679D01*
X50592775Y-41296715D01*
X50577207Y-41285170D01*
X50562846Y-41272154D01*
X50549830Y-41257793D01*
X50538285Y-41242225D01*
X50528321Y-41225601D01*
X50520034Y-41208080D01*
X50513504Y-41189831D01*
X50508795Y-41171030D01*
X50505951Y-41151858D01*
X50505000Y-41132500D01*
X50505000Y-39867500D01*
X50505951Y-39848142D01*
X50508795Y-39828970D01*
X50513504Y-39810169D01*
X50520034Y-39791920D01*
X50528321Y-39774399D01*
X50538285Y-39757775D01*
X50549830Y-39742207D01*
X50562846Y-39727846D01*
X50577207Y-39714830D01*
X50592775Y-39703285D01*
X50609399Y-39693321D01*
X50626920Y-39685034D01*
X50645169Y-39678504D01*
X50663970Y-39673795D01*
X50683142Y-39670951D01*
X50702500Y-39670000D01*
X51097500Y-39670000D01*
X51116858Y-39670951D01*
X51116858Y-39670951D01*
G37*
D13*
X50900000Y-40500000D03*
D12*
G36*
X51116858Y-43670951D02*
G01*
X51136030Y-43673795D01*
X51154831Y-43678504D01*
X51173080Y-43685034D01*
X51190601Y-43693321D01*
X51207225Y-43703285D01*
X51222793Y-43714830D01*
X51237154Y-43727846D01*
X51250170Y-43742207D01*
X51261715Y-43757775D01*
X51271679Y-43774399D01*
X51279966Y-43791920D01*
X51286496Y-43810169D01*
X51291205Y-43828970D01*
X51294049Y-43848142D01*
X51295000Y-43867500D01*
X51295000Y-45132500D01*
X51294049Y-45151858D01*
X51291205Y-45171030D01*
X51286496Y-45189831D01*
X51279966Y-45208080D01*
X51271679Y-45225601D01*
X51261715Y-45242225D01*
X51250170Y-45257793D01*
X51237154Y-45272154D01*
X51222793Y-45285170D01*
X51207225Y-45296715D01*
X51190601Y-45306679D01*
X51173080Y-45314966D01*
X51154831Y-45321496D01*
X51136030Y-45326205D01*
X51116858Y-45329049D01*
X51097500Y-45330000D01*
X50702500Y-45330000D01*
X50683142Y-45329049D01*
X50663970Y-45326205D01*
X50645169Y-45321496D01*
X50626920Y-45314966D01*
X50609399Y-45306679D01*
X50592775Y-45296715D01*
X50577207Y-45285170D01*
X50562846Y-45272154D01*
X50549830Y-45257793D01*
X50538285Y-45242225D01*
X50528321Y-45225601D01*
X50520034Y-45208080D01*
X50513504Y-45189831D01*
X50508795Y-45171030D01*
X50505951Y-45151858D01*
X50505000Y-45132500D01*
X50505000Y-43867500D01*
X50505951Y-43848142D01*
X50508795Y-43828970D01*
X50513504Y-43810169D01*
X50520034Y-43791920D01*
X50528321Y-43774399D01*
X50538285Y-43757775D01*
X50549830Y-43742207D01*
X50562846Y-43727846D01*
X50577207Y-43714830D01*
X50592775Y-43703285D01*
X50609399Y-43693321D01*
X50626920Y-43685034D01*
X50645169Y-43678504D01*
X50663970Y-43673795D01*
X50683142Y-43670951D01*
X50702500Y-43670000D01*
X51097500Y-43670000D01*
X51116858Y-43670951D01*
X51116858Y-43670951D01*
G37*
D13*
X50900000Y-44500000D03*
D12*
G36*
X49316858Y-43670951D02*
G01*
X49336030Y-43673795D01*
X49354831Y-43678504D01*
X49373080Y-43685034D01*
X49390601Y-43693321D01*
X49407225Y-43703285D01*
X49422793Y-43714830D01*
X49437154Y-43727846D01*
X49450170Y-43742207D01*
X49461715Y-43757775D01*
X49471679Y-43774399D01*
X49479966Y-43791920D01*
X49486496Y-43810169D01*
X49491205Y-43828970D01*
X49494049Y-43848142D01*
X49495000Y-43867500D01*
X49495000Y-45132500D01*
X49494049Y-45151858D01*
X49491205Y-45171030D01*
X49486496Y-45189831D01*
X49479966Y-45208080D01*
X49471679Y-45225601D01*
X49461715Y-45242225D01*
X49450170Y-45257793D01*
X49437154Y-45272154D01*
X49422793Y-45285170D01*
X49407225Y-45296715D01*
X49390601Y-45306679D01*
X49373080Y-45314966D01*
X49354831Y-45321496D01*
X49336030Y-45326205D01*
X49316858Y-45329049D01*
X49297500Y-45330000D01*
X48902500Y-45330000D01*
X48883142Y-45329049D01*
X48863970Y-45326205D01*
X48845169Y-45321496D01*
X48826920Y-45314966D01*
X48809399Y-45306679D01*
X48792775Y-45296715D01*
X48777207Y-45285170D01*
X48762846Y-45272154D01*
X48749830Y-45257793D01*
X48738285Y-45242225D01*
X48728321Y-45225601D01*
X48720034Y-45208080D01*
X48713504Y-45189831D01*
X48708795Y-45171030D01*
X48705951Y-45151858D01*
X48705000Y-45132500D01*
X48705000Y-43867500D01*
X48705951Y-43848142D01*
X48708795Y-43828970D01*
X48713504Y-43810169D01*
X48720034Y-43791920D01*
X48728321Y-43774399D01*
X48738285Y-43757775D01*
X48749830Y-43742207D01*
X48762846Y-43727846D01*
X48777207Y-43714830D01*
X48792775Y-43703285D01*
X48809399Y-43693321D01*
X48826920Y-43685034D01*
X48845169Y-43678504D01*
X48863970Y-43673795D01*
X48883142Y-43670951D01*
X48902500Y-43670000D01*
X49297500Y-43670000D01*
X49316858Y-43670951D01*
X49316858Y-43670951D01*
G37*
D13*
X49100000Y-44500000D03*
D12*
G36*
X44074505Y-40751204D02*
G01*
X44098773Y-40754804D01*
X44122572Y-40760765D01*
X44145671Y-40769030D01*
X44167850Y-40779520D01*
X44188893Y-40792132D01*
X44208599Y-40806747D01*
X44226777Y-40823223D01*
X44243253Y-40841401D01*
X44257868Y-40861107D01*
X44270480Y-40882150D01*
X44280970Y-40904329D01*
X44289235Y-40927428D01*
X44295196Y-40951227D01*
X44298796Y-40975495D01*
X44300000Y-40999999D01*
X44300000Y-41650001D01*
X44298796Y-41674505D01*
X44295196Y-41698773D01*
X44289235Y-41722572D01*
X44280970Y-41745671D01*
X44270480Y-41767850D01*
X44257868Y-41788893D01*
X44243253Y-41808599D01*
X44226777Y-41826777D01*
X44208599Y-41843253D01*
X44188893Y-41857868D01*
X44167850Y-41870480D01*
X44145671Y-41880970D01*
X44122572Y-41889235D01*
X44098773Y-41895196D01*
X44074505Y-41898796D01*
X44050001Y-41900000D01*
X43149999Y-41900000D01*
X43125495Y-41898796D01*
X43101227Y-41895196D01*
X43077428Y-41889235D01*
X43054329Y-41880970D01*
X43032150Y-41870480D01*
X43011107Y-41857868D01*
X42991401Y-41843253D01*
X42973223Y-41826777D01*
X42956747Y-41808599D01*
X42942132Y-41788893D01*
X42929520Y-41767850D01*
X42919030Y-41745671D01*
X42910765Y-41722572D01*
X42904804Y-41698773D01*
X42901204Y-41674505D01*
X42900000Y-41650001D01*
X42900000Y-40999999D01*
X42901204Y-40975495D01*
X42904804Y-40951227D01*
X42910765Y-40927428D01*
X42919030Y-40904329D01*
X42929520Y-40882150D01*
X42942132Y-40861107D01*
X42956747Y-40841401D01*
X42973223Y-40823223D01*
X42991401Y-40806747D01*
X43011107Y-40792132D01*
X43032150Y-40779520D01*
X43054329Y-40769030D01*
X43077428Y-40760765D01*
X43101227Y-40754804D01*
X43125495Y-40751204D01*
X43149999Y-40750000D01*
X44050001Y-40750000D01*
X44074505Y-40751204D01*
X44074505Y-40751204D01*
G37*
D14*
X43600000Y-41325000D03*
D12*
G36*
X44074505Y-38701204D02*
G01*
X44098773Y-38704804D01*
X44122572Y-38710765D01*
X44145671Y-38719030D01*
X44167850Y-38729520D01*
X44188893Y-38742132D01*
X44208599Y-38756747D01*
X44226777Y-38773223D01*
X44243253Y-38791401D01*
X44257868Y-38811107D01*
X44270480Y-38832150D01*
X44280970Y-38854329D01*
X44289235Y-38877428D01*
X44295196Y-38901227D01*
X44298796Y-38925495D01*
X44300000Y-38949999D01*
X44300000Y-39600001D01*
X44298796Y-39624505D01*
X44295196Y-39648773D01*
X44289235Y-39672572D01*
X44280970Y-39695671D01*
X44270480Y-39717850D01*
X44257868Y-39738893D01*
X44243253Y-39758599D01*
X44226777Y-39776777D01*
X44208599Y-39793253D01*
X44188893Y-39807868D01*
X44167850Y-39820480D01*
X44145671Y-39830970D01*
X44122572Y-39839235D01*
X44098773Y-39845196D01*
X44074505Y-39848796D01*
X44050001Y-39850000D01*
X43149999Y-39850000D01*
X43125495Y-39848796D01*
X43101227Y-39845196D01*
X43077428Y-39839235D01*
X43054329Y-39830970D01*
X43032150Y-39820480D01*
X43011107Y-39807868D01*
X42991401Y-39793253D01*
X42973223Y-39776777D01*
X42956747Y-39758599D01*
X42942132Y-39738893D01*
X42929520Y-39717850D01*
X42919030Y-39695671D01*
X42910765Y-39672572D01*
X42904804Y-39648773D01*
X42901204Y-39624505D01*
X42900000Y-39600001D01*
X42900000Y-38949999D01*
X42901204Y-38925495D01*
X42904804Y-38901227D01*
X42910765Y-38877428D01*
X42919030Y-38854329D01*
X42929520Y-38832150D01*
X42942132Y-38811107D01*
X42956747Y-38791401D01*
X42973223Y-38773223D01*
X42991401Y-38756747D01*
X43011107Y-38742132D01*
X43032150Y-38729520D01*
X43054329Y-38719030D01*
X43077428Y-38710765D01*
X43101227Y-38704804D01*
X43125495Y-38701204D01*
X43149999Y-38700000D01*
X44050001Y-38700000D01*
X44074505Y-38701204D01*
X44074505Y-38701204D01*
G37*
D14*
X43600000Y-39275000D03*
D12*
G36*
X41399505Y-34476204D02*
G01*
X41423773Y-34479804D01*
X41447572Y-34485765D01*
X41470671Y-34494030D01*
X41492850Y-34504520D01*
X41513893Y-34517132D01*
X41533599Y-34531747D01*
X41551777Y-34548223D01*
X41568253Y-34566401D01*
X41582868Y-34586107D01*
X41595480Y-34607150D01*
X41605970Y-34629329D01*
X41614235Y-34652428D01*
X41620196Y-34676227D01*
X41623796Y-34700495D01*
X41625000Y-34724999D01*
X41625000Y-35275001D01*
X41623796Y-35299505D01*
X41620196Y-35323773D01*
X41614235Y-35347572D01*
X41605970Y-35370671D01*
X41595480Y-35392850D01*
X41582868Y-35413893D01*
X41568253Y-35433599D01*
X41551777Y-35451777D01*
X41533599Y-35468253D01*
X41513893Y-35482868D01*
X41492850Y-35495480D01*
X41470671Y-35505970D01*
X41447572Y-35514235D01*
X41423773Y-35520196D01*
X41399505Y-35523796D01*
X41375001Y-35525000D01*
X40574999Y-35525000D01*
X40550495Y-35523796D01*
X40526227Y-35520196D01*
X40502428Y-35514235D01*
X40479329Y-35505970D01*
X40457150Y-35495480D01*
X40436107Y-35482868D01*
X40416401Y-35468253D01*
X40398223Y-35451777D01*
X40381747Y-35433599D01*
X40367132Y-35413893D01*
X40354520Y-35392850D01*
X40344030Y-35370671D01*
X40335765Y-35347572D01*
X40329804Y-35323773D01*
X40326204Y-35299505D01*
X40325000Y-35275001D01*
X40325000Y-34724999D01*
X40326204Y-34700495D01*
X40329804Y-34676227D01*
X40335765Y-34652428D01*
X40344030Y-34629329D01*
X40354520Y-34607150D01*
X40367132Y-34586107D01*
X40381747Y-34566401D01*
X40398223Y-34548223D01*
X40416401Y-34531747D01*
X40436107Y-34517132D01*
X40457150Y-34504520D01*
X40479329Y-34494030D01*
X40502428Y-34485765D01*
X40526227Y-34479804D01*
X40550495Y-34476204D01*
X40574999Y-34475000D01*
X41375001Y-34475000D01*
X41399505Y-34476204D01*
X41399505Y-34476204D01*
G37*
D15*
X40975000Y-35000000D03*
D12*
G36*
X39449505Y-34476204D02*
G01*
X39473773Y-34479804D01*
X39497572Y-34485765D01*
X39520671Y-34494030D01*
X39542850Y-34504520D01*
X39563893Y-34517132D01*
X39583599Y-34531747D01*
X39601777Y-34548223D01*
X39618253Y-34566401D01*
X39632868Y-34586107D01*
X39645480Y-34607150D01*
X39655970Y-34629329D01*
X39664235Y-34652428D01*
X39670196Y-34676227D01*
X39673796Y-34700495D01*
X39675000Y-34724999D01*
X39675000Y-35275001D01*
X39673796Y-35299505D01*
X39670196Y-35323773D01*
X39664235Y-35347572D01*
X39655970Y-35370671D01*
X39645480Y-35392850D01*
X39632868Y-35413893D01*
X39618253Y-35433599D01*
X39601777Y-35451777D01*
X39583599Y-35468253D01*
X39563893Y-35482868D01*
X39542850Y-35495480D01*
X39520671Y-35505970D01*
X39497572Y-35514235D01*
X39473773Y-35520196D01*
X39449505Y-35523796D01*
X39425001Y-35525000D01*
X38624999Y-35525000D01*
X38600495Y-35523796D01*
X38576227Y-35520196D01*
X38552428Y-35514235D01*
X38529329Y-35505970D01*
X38507150Y-35495480D01*
X38486107Y-35482868D01*
X38466401Y-35468253D01*
X38448223Y-35451777D01*
X38431747Y-35433599D01*
X38417132Y-35413893D01*
X38404520Y-35392850D01*
X38394030Y-35370671D01*
X38385765Y-35347572D01*
X38379804Y-35323773D01*
X38376204Y-35299505D01*
X38375000Y-35275001D01*
X38375000Y-34724999D01*
X38376204Y-34700495D01*
X38379804Y-34676227D01*
X38385765Y-34652428D01*
X38394030Y-34629329D01*
X38404520Y-34607150D01*
X38417132Y-34586107D01*
X38431747Y-34566401D01*
X38448223Y-34548223D01*
X38466401Y-34531747D01*
X38486107Y-34517132D01*
X38507150Y-34504520D01*
X38529329Y-34494030D01*
X38552428Y-34485765D01*
X38576227Y-34479804D01*
X38600495Y-34476204D01*
X38624999Y-34475000D01*
X39425001Y-34475000D01*
X39449505Y-34476204D01*
X39449505Y-34476204D01*
G37*
D15*
X39025000Y-35000000D03*
D12*
G36*
X44324505Y-34301204D02*
G01*
X44348773Y-34304804D01*
X44372572Y-34310765D01*
X44395671Y-34319030D01*
X44417850Y-34329520D01*
X44438893Y-34342132D01*
X44458599Y-34356747D01*
X44476777Y-34373223D01*
X44493253Y-34391401D01*
X44507868Y-34411107D01*
X44520480Y-34432150D01*
X44530970Y-34454329D01*
X44539235Y-34477428D01*
X44545196Y-34501227D01*
X44548796Y-34525495D01*
X44550000Y-34549999D01*
X44550000Y-35450001D01*
X44548796Y-35474505D01*
X44545196Y-35498773D01*
X44539235Y-35522572D01*
X44530970Y-35545671D01*
X44520480Y-35567850D01*
X44507868Y-35588893D01*
X44493253Y-35608599D01*
X44476777Y-35626777D01*
X44458599Y-35643253D01*
X44438893Y-35657868D01*
X44417850Y-35670480D01*
X44395671Y-35680970D01*
X44372572Y-35689235D01*
X44348773Y-35695196D01*
X44324505Y-35698796D01*
X44300001Y-35700000D01*
X43649999Y-35700000D01*
X43625495Y-35698796D01*
X43601227Y-35695196D01*
X43577428Y-35689235D01*
X43554329Y-35680970D01*
X43532150Y-35670480D01*
X43511107Y-35657868D01*
X43491401Y-35643253D01*
X43473223Y-35626777D01*
X43456747Y-35608599D01*
X43442132Y-35588893D01*
X43429520Y-35567850D01*
X43419030Y-35545671D01*
X43410765Y-35522572D01*
X43404804Y-35498773D01*
X43401204Y-35474505D01*
X43400000Y-35450001D01*
X43400000Y-34549999D01*
X43401204Y-34525495D01*
X43404804Y-34501227D01*
X43410765Y-34477428D01*
X43419030Y-34454329D01*
X43429520Y-34432150D01*
X43442132Y-34411107D01*
X43456747Y-34391401D01*
X43473223Y-34373223D01*
X43491401Y-34356747D01*
X43511107Y-34342132D01*
X43532150Y-34329520D01*
X43554329Y-34319030D01*
X43577428Y-34310765D01*
X43601227Y-34304804D01*
X43625495Y-34301204D01*
X43649999Y-34300000D01*
X44300001Y-34300000D01*
X44324505Y-34301204D01*
X44324505Y-34301204D01*
G37*
D14*
X43975000Y-35000000D03*
D12*
G36*
X46374505Y-34301204D02*
G01*
X46398773Y-34304804D01*
X46422572Y-34310765D01*
X46445671Y-34319030D01*
X46467850Y-34329520D01*
X46488893Y-34342132D01*
X46508599Y-34356747D01*
X46526777Y-34373223D01*
X46543253Y-34391401D01*
X46557868Y-34411107D01*
X46570480Y-34432150D01*
X46580970Y-34454329D01*
X46589235Y-34477428D01*
X46595196Y-34501227D01*
X46598796Y-34525495D01*
X46600000Y-34549999D01*
X46600000Y-35450001D01*
X46598796Y-35474505D01*
X46595196Y-35498773D01*
X46589235Y-35522572D01*
X46580970Y-35545671D01*
X46570480Y-35567850D01*
X46557868Y-35588893D01*
X46543253Y-35608599D01*
X46526777Y-35626777D01*
X46508599Y-35643253D01*
X46488893Y-35657868D01*
X46467850Y-35670480D01*
X46445671Y-35680970D01*
X46422572Y-35689235D01*
X46398773Y-35695196D01*
X46374505Y-35698796D01*
X46350001Y-35700000D01*
X45699999Y-35700000D01*
X45675495Y-35698796D01*
X45651227Y-35695196D01*
X45627428Y-35689235D01*
X45604329Y-35680970D01*
X45582150Y-35670480D01*
X45561107Y-35657868D01*
X45541401Y-35643253D01*
X45523223Y-35626777D01*
X45506747Y-35608599D01*
X45492132Y-35588893D01*
X45479520Y-35567850D01*
X45469030Y-35545671D01*
X45460765Y-35522572D01*
X45454804Y-35498773D01*
X45451204Y-35474505D01*
X45450000Y-35450001D01*
X45450000Y-34549999D01*
X45451204Y-34525495D01*
X45454804Y-34501227D01*
X45460765Y-34477428D01*
X45469030Y-34454329D01*
X45479520Y-34432150D01*
X45492132Y-34411107D01*
X45506747Y-34391401D01*
X45523223Y-34373223D01*
X45541401Y-34356747D01*
X45561107Y-34342132D01*
X45582150Y-34329520D01*
X45604329Y-34319030D01*
X45627428Y-34310765D01*
X45651227Y-34304804D01*
X45675495Y-34301204D01*
X45699999Y-34300000D01*
X46350001Y-34300000D01*
X46374505Y-34301204D01*
X46374505Y-34301204D01*
G37*
D14*
X46025000Y-35000000D03*
D16*
X38210000Y-38200000D03*
X38210000Y-46800000D03*
D17*
X40910000Y-41000000D03*
X40910000Y-42000000D03*
X40910000Y-43000000D03*
X40910000Y-44000000D03*
D12*
G36*
X44674505Y-45751204D02*
G01*
X44698773Y-45754804D01*
X44722572Y-45760765D01*
X44745671Y-45769030D01*
X44767850Y-45779520D01*
X44788893Y-45792132D01*
X44808599Y-45806747D01*
X44826777Y-45823223D01*
X44843253Y-45841401D01*
X44857868Y-45861107D01*
X44870480Y-45882150D01*
X44880970Y-45904329D01*
X44889235Y-45927428D01*
X44895196Y-45951227D01*
X44898796Y-45975495D01*
X44900000Y-45999999D01*
X44900000Y-46650001D01*
X44898796Y-46674505D01*
X44895196Y-46698773D01*
X44889235Y-46722572D01*
X44880970Y-46745671D01*
X44870480Y-46767850D01*
X44857868Y-46788893D01*
X44843253Y-46808599D01*
X44826777Y-46826777D01*
X44808599Y-46843253D01*
X44788893Y-46857868D01*
X44767850Y-46870480D01*
X44745671Y-46880970D01*
X44722572Y-46889235D01*
X44698773Y-46895196D01*
X44674505Y-46898796D01*
X44650001Y-46900000D01*
X43749999Y-46900000D01*
X43725495Y-46898796D01*
X43701227Y-46895196D01*
X43677428Y-46889235D01*
X43654329Y-46880970D01*
X43632150Y-46870480D01*
X43611107Y-46857868D01*
X43591401Y-46843253D01*
X43573223Y-46826777D01*
X43556747Y-46808599D01*
X43542132Y-46788893D01*
X43529520Y-46767850D01*
X43519030Y-46745671D01*
X43510765Y-46722572D01*
X43504804Y-46698773D01*
X43501204Y-46674505D01*
X43500000Y-46650001D01*
X43500000Y-45999999D01*
X43501204Y-45975495D01*
X43504804Y-45951227D01*
X43510765Y-45927428D01*
X43519030Y-45904329D01*
X43529520Y-45882150D01*
X43542132Y-45861107D01*
X43556747Y-45841401D01*
X43573223Y-45823223D01*
X43591401Y-45806747D01*
X43611107Y-45792132D01*
X43632150Y-45779520D01*
X43654329Y-45769030D01*
X43677428Y-45760765D01*
X43701227Y-45754804D01*
X43725495Y-45751204D01*
X43749999Y-45750000D01*
X44650001Y-45750000D01*
X44674505Y-45751204D01*
X44674505Y-45751204D01*
G37*
D14*
X44200000Y-46325000D03*
D12*
G36*
X44674505Y-43701204D02*
G01*
X44698773Y-43704804D01*
X44722572Y-43710765D01*
X44745671Y-43719030D01*
X44767850Y-43729520D01*
X44788893Y-43742132D01*
X44808599Y-43756747D01*
X44826777Y-43773223D01*
X44843253Y-43791401D01*
X44857868Y-43811107D01*
X44870480Y-43832150D01*
X44880970Y-43854329D01*
X44889235Y-43877428D01*
X44895196Y-43901227D01*
X44898796Y-43925495D01*
X44900000Y-43949999D01*
X44900000Y-44600001D01*
X44898796Y-44624505D01*
X44895196Y-44648773D01*
X44889235Y-44672572D01*
X44880970Y-44695671D01*
X44870480Y-44717850D01*
X44857868Y-44738893D01*
X44843253Y-44758599D01*
X44826777Y-44776777D01*
X44808599Y-44793253D01*
X44788893Y-44807868D01*
X44767850Y-44820480D01*
X44745671Y-44830970D01*
X44722572Y-44839235D01*
X44698773Y-44845196D01*
X44674505Y-44848796D01*
X44650001Y-44850000D01*
X43749999Y-44850000D01*
X43725495Y-44848796D01*
X43701227Y-44845196D01*
X43677428Y-44839235D01*
X43654329Y-44830970D01*
X43632150Y-44820480D01*
X43611107Y-44807868D01*
X43591401Y-44793253D01*
X43573223Y-44776777D01*
X43556747Y-44758599D01*
X43542132Y-44738893D01*
X43529520Y-44717850D01*
X43519030Y-44695671D01*
X43510765Y-44672572D01*
X43504804Y-44648773D01*
X43501204Y-44624505D01*
X43500000Y-44600001D01*
X43500000Y-43949999D01*
X43501204Y-43925495D01*
X43504804Y-43901227D01*
X43510765Y-43877428D01*
X43519030Y-43854329D01*
X43529520Y-43832150D01*
X43542132Y-43811107D01*
X43556747Y-43791401D01*
X43573223Y-43773223D01*
X43591401Y-43756747D01*
X43611107Y-43742132D01*
X43632150Y-43729520D01*
X43654329Y-43719030D01*
X43677428Y-43710765D01*
X43701227Y-43704804D01*
X43725495Y-43701204D01*
X43749999Y-43700000D01*
X44650001Y-43700000D01*
X44674505Y-43701204D01*
X44674505Y-43701204D01*
G37*
D14*
X44200000Y-44275000D03*
D12*
G36*
X46974505Y-38701204D02*
G01*
X46998773Y-38704804D01*
X47022572Y-38710765D01*
X47045671Y-38719030D01*
X47067850Y-38729520D01*
X47088893Y-38742132D01*
X47108599Y-38756747D01*
X47126777Y-38773223D01*
X47143253Y-38791401D01*
X47157868Y-38811107D01*
X47170480Y-38832150D01*
X47180970Y-38854329D01*
X47189235Y-38877428D01*
X47195196Y-38901227D01*
X47198796Y-38925495D01*
X47200000Y-38949999D01*
X47200000Y-39600001D01*
X47198796Y-39624505D01*
X47195196Y-39648773D01*
X47189235Y-39672572D01*
X47180970Y-39695671D01*
X47170480Y-39717850D01*
X47157868Y-39738893D01*
X47143253Y-39758599D01*
X47126777Y-39776777D01*
X47108599Y-39793253D01*
X47088893Y-39807868D01*
X47067850Y-39820480D01*
X47045671Y-39830970D01*
X47022572Y-39839235D01*
X46998773Y-39845196D01*
X46974505Y-39848796D01*
X46950001Y-39850000D01*
X46049999Y-39850000D01*
X46025495Y-39848796D01*
X46001227Y-39845196D01*
X45977428Y-39839235D01*
X45954329Y-39830970D01*
X45932150Y-39820480D01*
X45911107Y-39807868D01*
X45891401Y-39793253D01*
X45873223Y-39776777D01*
X45856747Y-39758599D01*
X45842132Y-39738893D01*
X45829520Y-39717850D01*
X45819030Y-39695671D01*
X45810765Y-39672572D01*
X45804804Y-39648773D01*
X45801204Y-39624505D01*
X45800000Y-39600001D01*
X45800000Y-38949999D01*
X45801204Y-38925495D01*
X45804804Y-38901227D01*
X45810765Y-38877428D01*
X45819030Y-38854329D01*
X45829520Y-38832150D01*
X45842132Y-38811107D01*
X45856747Y-38791401D01*
X45873223Y-38773223D01*
X45891401Y-38756747D01*
X45911107Y-38742132D01*
X45932150Y-38729520D01*
X45954329Y-38719030D01*
X45977428Y-38710765D01*
X46001227Y-38704804D01*
X46025495Y-38701204D01*
X46049999Y-38700000D01*
X46950001Y-38700000D01*
X46974505Y-38701204D01*
X46974505Y-38701204D01*
G37*
D14*
X46500000Y-39275000D03*
D12*
G36*
X46974505Y-40751204D02*
G01*
X46998773Y-40754804D01*
X47022572Y-40760765D01*
X47045671Y-40769030D01*
X47067850Y-40779520D01*
X47088893Y-40792132D01*
X47108599Y-40806747D01*
X47126777Y-40823223D01*
X47143253Y-40841401D01*
X47157868Y-40861107D01*
X47170480Y-40882150D01*
X47180970Y-40904329D01*
X47189235Y-40927428D01*
X47195196Y-40951227D01*
X47198796Y-40975495D01*
X47200000Y-40999999D01*
X47200000Y-41650001D01*
X47198796Y-41674505D01*
X47195196Y-41698773D01*
X47189235Y-41722572D01*
X47180970Y-41745671D01*
X47170480Y-41767850D01*
X47157868Y-41788893D01*
X47143253Y-41808599D01*
X47126777Y-41826777D01*
X47108599Y-41843253D01*
X47088893Y-41857868D01*
X47067850Y-41870480D01*
X47045671Y-41880970D01*
X47022572Y-41889235D01*
X46998773Y-41895196D01*
X46974505Y-41898796D01*
X46950001Y-41900000D01*
X46049999Y-41900000D01*
X46025495Y-41898796D01*
X46001227Y-41895196D01*
X45977428Y-41889235D01*
X45954329Y-41880970D01*
X45932150Y-41870480D01*
X45911107Y-41857868D01*
X45891401Y-41843253D01*
X45873223Y-41826777D01*
X45856747Y-41808599D01*
X45842132Y-41788893D01*
X45829520Y-41767850D01*
X45819030Y-41745671D01*
X45810765Y-41722572D01*
X45804804Y-41698773D01*
X45801204Y-41674505D01*
X45800000Y-41650001D01*
X45800000Y-40999999D01*
X45801204Y-40975495D01*
X45804804Y-40951227D01*
X45810765Y-40927428D01*
X45819030Y-40904329D01*
X45829520Y-40882150D01*
X45842132Y-40861107D01*
X45856747Y-40841401D01*
X45873223Y-40823223D01*
X45891401Y-40806747D01*
X45911107Y-40792132D01*
X45932150Y-40779520D01*
X45954329Y-40769030D01*
X45977428Y-40760765D01*
X46001227Y-40754804D01*
X46025495Y-40751204D01*
X46049999Y-40750000D01*
X46950001Y-40750000D01*
X46974505Y-40751204D01*
X46974505Y-40751204D01*
G37*
D14*
X46500000Y-41325000D03*
M02*
