G04 #@! TF.GenerationSoftware,KiCad,Pcbnew,(5.1.2)-2*
G04 #@! TF.CreationDate,2019-07-30T15:23:33+02:00*
G04 #@! TF.ProjectId,sensor_auxiliary,73656e73-6f72-45f6-9175-78696c696172,1*
G04 #@! TF.SameCoordinates,Original*
G04 #@! TF.FileFunction,Copper,L2,Bot*
G04 #@! TF.FilePolarity,Positive*
%FSLAX46Y46*%
G04 Gerber Fmt 4.6, Leading zero omitted, Abs format (unit mm)*
G04 Created by KiCad (PCBNEW (5.1.2)-2) date 2019-07-30 15:23:33*
%MOMM*%
%LPD*%
G04 APERTURE LIST*
%ADD10C,4.400000*%
%ADD11C,0.700000*%
%ADD12C,0.200000*%
G04 APERTURE END LIST*
D10*
X35000000Y-35000000D03*
D11*
X36650000Y-35000000D03*
X36166726Y-36166726D03*
X35000000Y-36650000D03*
X33833274Y-36166726D03*
X33350000Y-35000000D03*
X33833274Y-33833274D03*
X35000000Y-33350000D03*
X36166726Y-33833274D03*
X36166726Y-48833274D03*
X35000000Y-48350000D03*
X33833274Y-48833274D03*
X33350000Y-50000000D03*
X33833274Y-51166726D03*
X35000000Y-51650000D03*
X36166726Y-51166726D03*
X36650000Y-50000000D03*
D10*
X35000000Y-50000000D03*
X50000000Y-35000000D03*
D11*
X51650000Y-35000000D03*
X51166726Y-36166726D03*
X50000000Y-36650000D03*
X48833274Y-36166726D03*
X48350000Y-35000000D03*
X48833274Y-33833274D03*
X50000000Y-33350000D03*
X51166726Y-33833274D03*
X51166726Y-48833274D03*
X50000000Y-48350000D03*
X48833274Y-48833274D03*
X48350000Y-50000000D03*
X48833274Y-51166726D03*
X50000000Y-51650000D03*
X51166726Y-51166726D03*
X51650000Y-50000000D03*
D10*
X50000000Y-50000000D03*
D12*
G36*
X54500000Y-30841422D02*
G01*
X54500000Y-54158578D01*
X54158578Y-54500000D01*
X30841422Y-54500000D01*
X30500000Y-54158578D01*
X30500000Y-30841422D01*
X30841422Y-30500000D01*
X54158578Y-30500000D01*
X54500000Y-30841422D01*
X54500000Y-30841422D01*
G37*
X54500000Y-30841422D02*
X54500000Y-54158578D01*
X54158578Y-54500000D01*
X30841422Y-54500000D01*
X30500000Y-54158578D01*
X30500000Y-30841422D01*
X30841422Y-30500000D01*
X54158578Y-30500000D01*
X54500000Y-30841422D01*
M02*
