G04 #@! TF.GenerationSoftware,KiCad,Pcbnew,(5.1.2)-2*
G04 #@! TF.CreationDate,2019-07-30T15:23:33+02:00*
G04 #@! TF.ProjectId,sensor_auxiliary,73656e73-6f72-45f6-9175-78696c696172,1*
G04 #@! TF.SameCoordinates,Original*
G04 #@! TF.FileFunction,Soldermask,Top*
G04 #@! TF.FilePolarity,Negative*
%FSLAX46Y46*%
G04 Gerber Fmt 4.6, Leading zero omitted, Abs format (unit mm)*
G04 Created by KiCad (PCBNEW (5.1.2)-2) date 2019-07-30 15:23:33*
%MOMM*%
%LPD*%
G04 APERTURE LIST*
%ADD10C,0.100000*%
G04 APERTURE END LIST*
D10*
G36*
X50275880Y-47759776D02*
G01*
X50656593Y-47835504D01*
X51066249Y-48005189D01*
X51434929Y-48251534D01*
X51748466Y-48565071D01*
X51994811Y-48933751D01*
X52164496Y-49343407D01*
X52251000Y-49778296D01*
X52251000Y-50221704D01*
X52164496Y-50656593D01*
X51994811Y-51066249D01*
X51748466Y-51434929D01*
X51434929Y-51748466D01*
X51066249Y-51994811D01*
X50656593Y-52164496D01*
X50275880Y-52240224D01*
X50221705Y-52251000D01*
X49778295Y-52251000D01*
X49724120Y-52240224D01*
X49343407Y-52164496D01*
X48933751Y-51994811D01*
X48565071Y-51748466D01*
X48251534Y-51434929D01*
X48005189Y-51066249D01*
X47835504Y-50656593D01*
X47749000Y-50221704D01*
X47749000Y-49778296D01*
X47835504Y-49343407D01*
X48005189Y-48933751D01*
X48251534Y-48565071D01*
X48565071Y-48251534D01*
X48933751Y-48005189D01*
X49343407Y-47835504D01*
X49724120Y-47759776D01*
X49778295Y-47749000D01*
X50221705Y-47749000D01*
X50275880Y-47759776D01*
X50275880Y-47759776D01*
G37*
G36*
X35275880Y-47759776D02*
G01*
X35656593Y-47835504D01*
X36066249Y-48005189D01*
X36434929Y-48251534D01*
X36748466Y-48565071D01*
X36994811Y-48933751D01*
X37164496Y-49343407D01*
X37251000Y-49778296D01*
X37251000Y-50221704D01*
X37164496Y-50656593D01*
X36994811Y-51066249D01*
X36748466Y-51434929D01*
X36434929Y-51748466D01*
X36066249Y-51994811D01*
X35656593Y-52164496D01*
X35275880Y-52240224D01*
X35221705Y-52251000D01*
X34778295Y-52251000D01*
X34724120Y-52240224D01*
X34343407Y-52164496D01*
X33933751Y-51994811D01*
X33565071Y-51748466D01*
X33251534Y-51434929D01*
X33005189Y-51066249D01*
X32835504Y-50656593D01*
X32749000Y-50221704D01*
X32749000Y-49778296D01*
X32835504Y-49343407D01*
X33005189Y-48933751D01*
X33251534Y-48565071D01*
X33565071Y-48251534D01*
X33933751Y-48005189D01*
X34343407Y-47835504D01*
X34724120Y-47759776D01*
X34778295Y-47749000D01*
X35221705Y-47749000D01*
X35275880Y-47759776D01*
X35275880Y-47759776D01*
G37*
G36*
X44951000Y-51651000D02*
G01*
X43649000Y-51651000D01*
X43649000Y-50349000D01*
X44951000Y-50349000D01*
X44951000Y-51651000D01*
X44951000Y-51651000D01*
G37*
G36*
X41851000Y-50851000D02*
G01*
X40249000Y-50851000D01*
X40249000Y-49149000D01*
X41851000Y-49149000D01*
X41851000Y-50851000D01*
X41851000Y-50851000D01*
G37*
G36*
X44951000Y-49651000D02*
G01*
X43649000Y-49651000D01*
X43649000Y-48349000D01*
X44951000Y-48349000D01*
X44951000Y-49651000D01*
X44951000Y-49651000D01*
G37*
G36*
X38911000Y-47851000D02*
G01*
X37509000Y-47851000D01*
X37509000Y-45749000D01*
X38911000Y-45749000D01*
X38911000Y-47851000D01*
X38911000Y-47851000D01*
G37*
G36*
X44788674Y-45703465D02*
G01*
X44826367Y-45714899D01*
X44861103Y-45733466D01*
X44891548Y-45758452D01*
X44916534Y-45788897D01*
X44935101Y-45823633D01*
X44946535Y-45861326D01*
X44951000Y-45906661D01*
X44951000Y-46743339D01*
X44946535Y-46788674D01*
X44935101Y-46826367D01*
X44916534Y-46861103D01*
X44891548Y-46891548D01*
X44861103Y-46916534D01*
X44826367Y-46935101D01*
X44788674Y-46946535D01*
X44743339Y-46951000D01*
X43656661Y-46951000D01*
X43611326Y-46946535D01*
X43573633Y-46935101D01*
X43538897Y-46916534D01*
X43508452Y-46891548D01*
X43483466Y-46861103D01*
X43464899Y-46826367D01*
X43453465Y-46788674D01*
X43449000Y-46743339D01*
X43449000Y-45906661D01*
X43453465Y-45861326D01*
X43464899Y-45823633D01*
X43483466Y-45788897D01*
X43508452Y-45758452D01*
X43538897Y-45733466D01*
X43573633Y-45714899D01*
X43611326Y-45703465D01*
X43656661Y-45699000D01*
X44743339Y-45699000D01*
X44788674Y-45703465D01*
X44788674Y-45703465D01*
G37*
G36*
X51216694Y-43622677D02*
G01*
X51246692Y-43631777D01*
X51274332Y-43646551D01*
X51298563Y-43666437D01*
X51318449Y-43690668D01*
X51333223Y-43718308D01*
X51342323Y-43748306D01*
X51346000Y-43785641D01*
X51346000Y-45214359D01*
X51342323Y-45251694D01*
X51333223Y-45281692D01*
X51318449Y-45309332D01*
X51298563Y-45333563D01*
X51274332Y-45353449D01*
X51246692Y-45368223D01*
X51216694Y-45377323D01*
X51179359Y-45381000D01*
X50620641Y-45381000D01*
X50583306Y-45377323D01*
X50553308Y-45368223D01*
X50525668Y-45353449D01*
X50501437Y-45333563D01*
X50481551Y-45309332D01*
X50466777Y-45281692D01*
X50457677Y-45251694D01*
X50454000Y-45214359D01*
X50454000Y-43785641D01*
X50457677Y-43748306D01*
X50466777Y-43718308D01*
X50481551Y-43690668D01*
X50501437Y-43666437D01*
X50525668Y-43646551D01*
X50553308Y-43631777D01*
X50583306Y-43622677D01*
X50620641Y-43619000D01*
X51179359Y-43619000D01*
X51216694Y-43622677D01*
X51216694Y-43622677D01*
G37*
G36*
X49416694Y-43622677D02*
G01*
X49446692Y-43631777D01*
X49474332Y-43646551D01*
X49498563Y-43666437D01*
X49518449Y-43690668D01*
X49533223Y-43718308D01*
X49542323Y-43748306D01*
X49546000Y-43785641D01*
X49546000Y-45214359D01*
X49542323Y-45251694D01*
X49533223Y-45281692D01*
X49518449Y-45309332D01*
X49498563Y-45333563D01*
X49474332Y-45353449D01*
X49446692Y-45368223D01*
X49416694Y-45377323D01*
X49379359Y-45381000D01*
X48820641Y-45381000D01*
X48783306Y-45377323D01*
X48753308Y-45368223D01*
X48725668Y-45353449D01*
X48701437Y-45333563D01*
X48681551Y-45309332D01*
X48666777Y-45281692D01*
X48657677Y-45251694D01*
X48654000Y-45214359D01*
X48654000Y-43785641D01*
X48657677Y-43748306D01*
X48666777Y-43718308D01*
X48681551Y-43690668D01*
X48701437Y-43666437D01*
X48725668Y-43646551D01*
X48753308Y-43631777D01*
X48783306Y-43622677D01*
X48820641Y-43619000D01*
X49379359Y-43619000D01*
X49416694Y-43622677D01*
X49416694Y-43622677D01*
G37*
G36*
X44788674Y-43653465D02*
G01*
X44826367Y-43664899D01*
X44861103Y-43683466D01*
X44891548Y-43708452D01*
X44916534Y-43738897D01*
X44935101Y-43773633D01*
X44946535Y-43811326D01*
X44951000Y-43856661D01*
X44951000Y-44693339D01*
X44946535Y-44738674D01*
X44935101Y-44776367D01*
X44916534Y-44811103D01*
X44891548Y-44841548D01*
X44861103Y-44866534D01*
X44826367Y-44885101D01*
X44788674Y-44896535D01*
X44743339Y-44901000D01*
X43656661Y-44901000D01*
X43611326Y-44896535D01*
X43573633Y-44885101D01*
X43538897Y-44866534D01*
X43508452Y-44841548D01*
X43483466Y-44811103D01*
X43464899Y-44776367D01*
X43453465Y-44738674D01*
X43449000Y-44693339D01*
X43449000Y-43856661D01*
X43453465Y-43811326D01*
X43464899Y-43773633D01*
X43483466Y-43738897D01*
X43508452Y-43708452D01*
X43538897Y-43683466D01*
X43573633Y-43664899D01*
X43611326Y-43653465D01*
X43656661Y-43649000D01*
X44743339Y-43649000D01*
X44788674Y-43653465D01*
X44788674Y-43653465D01*
G37*
G36*
X41461000Y-44251000D02*
G01*
X40359000Y-44251000D01*
X40359000Y-43749000D01*
X41461000Y-43749000D01*
X41461000Y-44251000D01*
X41461000Y-44251000D01*
G37*
G36*
X41461000Y-43251000D02*
G01*
X40359000Y-43251000D01*
X40359000Y-42749000D01*
X41461000Y-42749000D01*
X41461000Y-43251000D01*
X41461000Y-43251000D01*
G37*
G36*
X41461000Y-42251000D02*
G01*
X40359000Y-42251000D01*
X40359000Y-41749000D01*
X41461000Y-41749000D01*
X41461000Y-42251000D01*
X41461000Y-42251000D01*
G37*
G36*
X47088674Y-40703465D02*
G01*
X47126367Y-40714899D01*
X47161103Y-40733466D01*
X47191548Y-40758452D01*
X47216534Y-40788897D01*
X47235101Y-40823633D01*
X47246535Y-40861326D01*
X47251000Y-40906661D01*
X47251000Y-41743339D01*
X47246535Y-41788674D01*
X47235101Y-41826367D01*
X47216534Y-41861103D01*
X47191548Y-41891548D01*
X47161103Y-41916534D01*
X47126367Y-41935101D01*
X47088674Y-41946535D01*
X47043339Y-41951000D01*
X45956661Y-41951000D01*
X45911326Y-41946535D01*
X45873633Y-41935101D01*
X45838897Y-41916534D01*
X45808452Y-41891548D01*
X45783466Y-41861103D01*
X45764899Y-41826367D01*
X45753465Y-41788674D01*
X45749000Y-41743339D01*
X45749000Y-40906661D01*
X45753465Y-40861326D01*
X45764899Y-40823633D01*
X45783466Y-40788897D01*
X45808452Y-40758452D01*
X45838897Y-40733466D01*
X45873633Y-40714899D01*
X45911326Y-40703465D01*
X45956661Y-40699000D01*
X47043339Y-40699000D01*
X47088674Y-40703465D01*
X47088674Y-40703465D01*
G37*
G36*
X44188674Y-40703465D02*
G01*
X44226367Y-40714899D01*
X44261103Y-40733466D01*
X44291548Y-40758452D01*
X44316534Y-40788897D01*
X44335101Y-40823633D01*
X44346535Y-40861326D01*
X44351000Y-40906661D01*
X44351000Y-41743339D01*
X44346535Y-41788674D01*
X44335101Y-41826367D01*
X44316534Y-41861103D01*
X44291548Y-41891548D01*
X44261103Y-41916534D01*
X44226367Y-41935101D01*
X44188674Y-41946535D01*
X44143339Y-41951000D01*
X43056661Y-41951000D01*
X43011326Y-41946535D01*
X42973633Y-41935101D01*
X42938897Y-41916534D01*
X42908452Y-41891548D01*
X42883466Y-41861103D01*
X42864899Y-41826367D01*
X42853465Y-41788674D01*
X42849000Y-41743339D01*
X42849000Y-40906661D01*
X42853465Y-40861326D01*
X42864899Y-40823633D01*
X42883466Y-40788897D01*
X42908452Y-40758452D01*
X42938897Y-40733466D01*
X42973633Y-40714899D01*
X43011326Y-40703465D01*
X43056661Y-40699000D01*
X44143339Y-40699000D01*
X44188674Y-40703465D01*
X44188674Y-40703465D01*
G37*
G36*
X51216694Y-39622677D02*
G01*
X51246692Y-39631777D01*
X51274332Y-39646551D01*
X51298563Y-39666437D01*
X51318449Y-39690668D01*
X51333223Y-39718308D01*
X51342323Y-39748306D01*
X51346000Y-39785641D01*
X51346000Y-41214359D01*
X51342323Y-41251694D01*
X51333223Y-41281692D01*
X51318449Y-41309332D01*
X51298563Y-41333563D01*
X51274332Y-41353449D01*
X51246692Y-41368223D01*
X51216694Y-41377323D01*
X51179359Y-41381000D01*
X50620641Y-41381000D01*
X50583306Y-41377323D01*
X50553308Y-41368223D01*
X50525668Y-41353449D01*
X50501437Y-41333563D01*
X50481551Y-41309332D01*
X50466777Y-41281692D01*
X50457677Y-41251694D01*
X50454000Y-41214359D01*
X50454000Y-39785641D01*
X50457677Y-39748306D01*
X50466777Y-39718308D01*
X50481551Y-39690668D01*
X50501437Y-39666437D01*
X50525668Y-39646551D01*
X50553308Y-39631777D01*
X50583306Y-39622677D01*
X50620641Y-39619000D01*
X51179359Y-39619000D01*
X51216694Y-39622677D01*
X51216694Y-39622677D01*
G37*
G36*
X49416694Y-39622677D02*
G01*
X49446692Y-39631777D01*
X49474332Y-39646551D01*
X49498563Y-39666437D01*
X49518449Y-39690668D01*
X49533223Y-39718308D01*
X49542323Y-39748306D01*
X49546000Y-39785641D01*
X49546000Y-41214359D01*
X49542323Y-41251694D01*
X49533223Y-41281692D01*
X49518449Y-41309332D01*
X49498563Y-41333563D01*
X49474332Y-41353449D01*
X49446692Y-41368223D01*
X49416694Y-41377323D01*
X49379359Y-41381000D01*
X48820641Y-41381000D01*
X48783306Y-41377323D01*
X48753308Y-41368223D01*
X48725668Y-41353449D01*
X48701437Y-41333563D01*
X48681551Y-41309332D01*
X48666777Y-41281692D01*
X48657677Y-41251694D01*
X48654000Y-41214359D01*
X48654000Y-39785641D01*
X48657677Y-39748306D01*
X48666777Y-39718308D01*
X48681551Y-39690668D01*
X48701437Y-39666437D01*
X48725668Y-39646551D01*
X48753308Y-39631777D01*
X48783306Y-39622677D01*
X48820641Y-39619000D01*
X49379359Y-39619000D01*
X49416694Y-39622677D01*
X49416694Y-39622677D01*
G37*
G36*
X41461000Y-41251000D02*
G01*
X40359000Y-41251000D01*
X40359000Y-40749000D01*
X41461000Y-40749000D01*
X41461000Y-41251000D01*
X41461000Y-41251000D01*
G37*
G36*
X44188674Y-38653465D02*
G01*
X44226367Y-38664899D01*
X44261103Y-38683466D01*
X44291548Y-38708452D01*
X44316534Y-38738897D01*
X44335101Y-38773633D01*
X44346535Y-38811326D01*
X44351000Y-38856661D01*
X44351000Y-39693339D01*
X44346535Y-39738674D01*
X44335101Y-39776367D01*
X44316534Y-39811103D01*
X44291548Y-39841548D01*
X44261103Y-39866534D01*
X44226367Y-39885101D01*
X44188674Y-39896535D01*
X44143339Y-39901000D01*
X43056661Y-39901000D01*
X43011326Y-39896535D01*
X42973633Y-39885101D01*
X42938897Y-39866534D01*
X42908452Y-39841548D01*
X42883466Y-39811103D01*
X42864899Y-39776367D01*
X42853465Y-39738674D01*
X42849000Y-39693339D01*
X42849000Y-38856661D01*
X42853465Y-38811326D01*
X42864899Y-38773633D01*
X42883466Y-38738897D01*
X42908452Y-38708452D01*
X42938897Y-38683466D01*
X42973633Y-38664899D01*
X43011326Y-38653465D01*
X43056661Y-38649000D01*
X44143339Y-38649000D01*
X44188674Y-38653465D01*
X44188674Y-38653465D01*
G37*
G36*
X47088674Y-38653465D02*
G01*
X47126367Y-38664899D01*
X47161103Y-38683466D01*
X47191548Y-38708452D01*
X47216534Y-38738897D01*
X47235101Y-38773633D01*
X47246535Y-38811326D01*
X47251000Y-38856661D01*
X47251000Y-39693339D01*
X47246535Y-39738674D01*
X47235101Y-39776367D01*
X47216534Y-39811103D01*
X47191548Y-39841548D01*
X47161103Y-39866534D01*
X47126367Y-39885101D01*
X47088674Y-39896535D01*
X47043339Y-39901000D01*
X45956661Y-39901000D01*
X45911326Y-39896535D01*
X45873633Y-39885101D01*
X45838897Y-39866534D01*
X45808452Y-39841548D01*
X45783466Y-39811103D01*
X45764899Y-39776367D01*
X45753465Y-39738674D01*
X45749000Y-39693339D01*
X45749000Y-38856661D01*
X45753465Y-38811326D01*
X45764899Y-38773633D01*
X45783466Y-38738897D01*
X45808452Y-38708452D01*
X45838897Y-38683466D01*
X45873633Y-38664899D01*
X45911326Y-38653465D01*
X45956661Y-38649000D01*
X47043339Y-38649000D01*
X47088674Y-38653465D01*
X47088674Y-38653465D01*
G37*
G36*
X38911000Y-39251000D02*
G01*
X37509000Y-39251000D01*
X37509000Y-37149000D01*
X38911000Y-37149000D01*
X38911000Y-39251000D01*
X38911000Y-39251000D01*
G37*
G36*
X35275880Y-32759776D02*
G01*
X35656593Y-32835504D01*
X36066249Y-33005189D01*
X36434929Y-33251534D01*
X36748466Y-33565071D01*
X36994811Y-33933751D01*
X37164496Y-34343407D01*
X37251000Y-34778296D01*
X37251000Y-35221704D01*
X37164496Y-35656593D01*
X36994811Y-36066249D01*
X36748466Y-36434929D01*
X36434929Y-36748466D01*
X36066249Y-36994811D01*
X35656593Y-37164496D01*
X35275880Y-37240224D01*
X35221705Y-37251000D01*
X34778295Y-37251000D01*
X34724120Y-37240224D01*
X34343407Y-37164496D01*
X33933751Y-36994811D01*
X33565071Y-36748466D01*
X33251534Y-36434929D01*
X33005189Y-36066249D01*
X32835504Y-35656593D01*
X32749000Y-35221704D01*
X32749000Y-34778296D01*
X32835504Y-34343407D01*
X33005189Y-33933751D01*
X33251534Y-33565071D01*
X33565071Y-33251534D01*
X33933751Y-33005189D01*
X34343407Y-32835504D01*
X34724120Y-32759776D01*
X34778295Y-32749000D01*
X35221705Y-32749000D01*
X35275880Y-32759776D01*
X35275880Y-32759776D01*
G37*
G36*
X50275880Y-32759776D02*
G01*
X50656593Y-32835504D01*
X51066249Y-33005189D01*
X51434929Y-33251534D01*
X51748466Y-33565071D01*
X51994811Y-33933751D01*
X52164496Y-34343407D01*
X52251000Y-34778296D01*
X52251000Y-35221704D01*
X52164496Y-35656593D01*
X51994811Y-36066249D01*
X51748466Y-36434929D01*
X51434929Y-36748466D01*
X51066249Y-36994811D01*
X50656593Y-37164496D01*
X50275880Y-37240224D01*
X50221705Y-37251000D01*
X49778295Y-37251000D01*
X49724120Y-37240224D01*
X49343407Y-37164496D01*
X48933751Y-36994811D01*
X48565071Y-36748466D01*
X48251534Y-36434929D01*
X48005189Y-36066249D01*
X47835504Y-35656593D01*
X47749000Y-35221704D01*
X47749000Y-34778296D01*
X47835504Y-34343407D01*
X48005189Y-33933751D01*
X48251534Y-33565071D01*
X48565071Y-33251534D01*
X48933751Y-33005189D01*
X49343407Y-32835504D01*
X49724120Y-32759776D01*
X49778295Y-32749000D01*
X50221705Y-32749000D01*
X50275880Y-32759776D01*
X50275880Y-32759776D01*
G37*
G36*
X44438674Y-34253465D02*
G01*
X44476367Y-34264899D01*
X44511103Y-34283466D01*
X44541548Y-34308452D01*
X44566534Y-34338897D01*
X44585101Y-34373633D01*
X44596535Y-34411326D01*
X44601000Y-34456661D01*
X44601000Y-35543339D01*
X44596535Y-35588674D01*
X44585101Y-35626367D01*
X44566534Y-35661103D01*
X44541548Y-35691548D01*
X44511103Y-35716534D01*
X44476367Y-35735101D01*
X44438674Y-35746535D01*
X44393339Y-35751000D01*
X43556661Y-35751000D01*
X43511326Y-35746535D01*
X43473633Y-35735101D01*
X43438897Y-35716534D01*
X43408452Y-35691548D01*
X43383466Y-35661103D01*
X43364899Y-35626367D01*
X43353465Y-35588674D01*
X43349000Y-35543339D01*
X43349000Y-34456661D01*
X43353465Y-34411326D01*
X43364899Y-34373633D01*
X43383466Y-34338897D01*
X43408452Y-34308452D01*
X43438897Y-34283466D01*
X43473633Y-34264899D01*
X43511326Y-34253465D01*
X43556661Y-34249000D01*
X44393339Y-34249000D01*
X44438674Y-34253465D01*
X44438674Y-34253465D01*
G37*
G36*
X46488674Y-34253465D02*
G01*
X46526367Y-34264899D01*
X46561103Y-34283466D01*
X46591548Y-34308452D01*
X46616534Y-34338897D01*
X46635101Y-34373633D01*
X46646535Y-34411326D01*
X46651000Y-34456661D01*
X46651000Y-35543339D01*
X46646535Y-35588674D01*
X46635101Y-35626367D01*
X46616534Y-35661103D01*
X46591548Y-35691548D01*
X46561103Y-35716534D01*
X46526367Y-35735101D01*
X46488674Y-35746535D01*
X46443339Y-35751000D01*
X45606661Y-35751000D01*
X45561326Y-35746535D01*
X45523633Y-35735101D01*
X45488897Y-35716534D01*
X45458452Y-35691548D01*
X45433466Y-35661103D01*
X45414899Y-35626367D01*
X45403465Y-35588674D01*
X45399000Y-35543339D01*
X45399000Y-34456661D01*
X45403465Y-34411326D01*
X45414899Y-34373633D01*
X45433466Y-34338897D01*
X45458452Y-34308452D01*
X45488897Y-34283466D01*
X45523633Y-34264899D01*
X45561326Y-34253465D01*
X45606661Y-34249000D01*
X46443339Y-34249000D01*
X46488674Y-34253465D01*
X46488674Y-34253465D01*
G37*
G36*
X39557811Y-34428605D02*
G01*
X39596867Y-34440453D01*
X39632862Y-34459693D01*
X39664414Y-34485586D01*
X39690307Y-34517138D01*
X39709547Y-34553133D01*
X39721395Y-34592189D01*
X39726000Y-34638949D01*
X39726000Y-35361051D01*
X39721395Y-35407811D01*
X39709547Y-35446867D01*
X39690307Y-35482862D01*
X39664414Y-35514414D01*
X39632862Y-35540307D01*
X39596867Y-35559547D01*
X39557811Y-35571395D01*
X39511051Y-35576000D01*
X38538949Y-35576000D01*
X38492189Y-35571395D01*
X38453133Y-35559547D01*
X38417138Y-35540307D01*
X38385586Y-35514414D01*
X38359693Y-35482862D01*
X38340453Y-35446867D01*
X38328605Y-35407811D01*
X38324000Y-35361051D01*
X38324000Y-34638949D01*
X38328605Y-34592189D01*
X38340453Y-34553133D01*
X38359693Y-34517138D01*
X38385586Y-34485586D01*
X38417138Y-34459693D01*
X38453133Y-34440453D01*
X38492189Y-34428605D01*
X38538949Y-34424000D01*
X39511051Y-34424000D01*
X39557811Y-34428605D01*
X39557811Y-34428605D01*
G37*
G36*
X41507811Y-34428605D02*
G01*
X41546867Y-34440453D01*
X41582862Y-34459693D01*
X41614414Y-34485586D01*
X41640307Y-34517138D01*
X41659547Y-34553133D01*
X41671395Y-34592189D01*
X41676000Y-34638949D01*
X41676000Y-35361051D01*
X41671395Y-35407811D01*
X41659547Y-35446867D01*
X41640307Y-35482862D01*
X41614414Y-35514414D01*
X41582862Y-35540307D01*
X41546867Y-35559547D01*
X41507811Y-35571395D01*
X41461051Y-35576000D01*
X40488949Y-35576000D01*
X40442189Y-35571395D01*
X40403133Y-35559547D01*
X40367138Y-35540307D01*
X40335586Y-35514414D01*
X40309693Y-35482862D01*
X40290453Y-35446867D01*
X40278605Y-35407811D01*
X40274000Y-35361051D01*
X40274000Y-34638949D01*
X40278605Y-34592189D01*
X40290453Y-34553133D01*
X40309693Y-34517138D01*
X40335586Y-34485586D01*
X40367138Y-34459693D01*
X40403133Y-34440453D01*
X40442189Y-34428605D01*
X40488949Y-34424000D01*
X41461051Y-34424000D01*
X41507811Y-34428605D01*
X41507811Y-34428605D01*
G37*
M02*
