M48
; DRILL file {KiCad (5.1.2)-2} date 29/07/2019 19:51:42
; FORMAT={-:-/ absolute / metric / decimal}
; #@! TF.CreationDate,2019-07-29T19:51:42+02:00
; #@! TF.GenerationSoftware,Kicad,Pcbnew,(5.1.2)-2
; #@! TF.FileFunction,Plated,1,2,PTH
FMAT,2
METRIC
T1C0.400
T2C2.200
%
G90
G05
T1
X48.35Y-35.0
X48.833Y-33.833
X48.833Y-36.167
X50.0Y-33.35
X50.0Y-36.65
X51.167Y-33.833
X51.167Y-36.167
X51.65Y-35.0
X48.35Y-50.0
X48.833Y-48.833
X48.833Y-51.167
X50.0Y-48.35
X50.0Y-51.65
X51.167Y-48.833
X51.167Y-51.167
X51.65Y-50.0
X33.35Y-35.0
X33.833Y-33.833
X33.833Y-36.167
X35.0Y-33.35
X35.0Y-36.65
X36.167Y-33.833
X36.167Y-36.167
X36.65Y-35.0
X33.35Y-50.0
X33.833Y-48.833
X33.833Y-51.167
X35.0Y-48.35
X35.0Y-51.65
X36.167Y-48.833
X36.167Y-51.167
X36.65Y-50.0
T2
X50.0Y-35.0
X50.0Y-50.0
X35.0Y-35.0
X35.0Y-50.0
T0
M30
