G04 #@! TF.GenerationSoftware,KiCad,Pcbnew,(5.1.2)-2*
G04 #@! TF.CreationDate,2019-07-29T19:51:06+02:00*
G04 #@! TF.ProjectId,sensor_array_15_sensors,73656e73-6f72-45f6-9172-7261795f3135,1*
G04 #@! TF.SameCoordinates,Original*
G04 #@! TF.FileFunction,Copper,L2,Bot*
G04 #@! TF.FilePolarity,Positive*
%FSLAX46Y46*%
G04 Gerber Fmt 4.6, Leading zero omitted, Abs format (unit mm)*
G04 Created by KiCad (PCBNEW (5.1.2)-2) date 2019-07-29 19:51:06*
%MOMM*%
%LPD*%
G04 APERTURE LIST*
%ADD10R,1.700000X1.700000*%
%ADD11O,1.700000X1.700000*%
%ADD12C,0.700000*%
%ADD13C,4.400000*%
%ADD14C,0.800000*%
%ADD15C,0.500000*%
%ADD16C,0.300000*%
%ADD17C,0.254000*%
G04 APERTURE END LIST*
D10*
X141500000Y-41300000D03*
D11*
X144040000Y-41300000D03*
X146580000Y-41300000D03*
X149120000Y-41300000D03*
D12*
X36166726Y-33833274D03*
X35000000Y-33350000D03*
X33833274Y-33833274D03*
X33350000Y-35000000D03*
X33833274Y-36166726D03*
X35000000Y-36650000D03*
X36166726Y-36166726D03*
X36650000Y-35000000D03*
D13*
X35000000Y-35000000D03*
X35000000Y-50000000D03*
D12*
X36650000Y-50000000D03*
X36166726Y-51166726D03*
X35000000Y-51650000D03*
X33833274Y-51166726D03*
X33350000Y-50000000D03*
X33833274Y-48833274D03*
X35000000Y-48350000D03*
X36166726Y-48833274D03*
X206166726Y-38833274D03*
X205000000Y-38350000D03*
X203833274Y-38833274D03*
X203350000Y-40000000D03*
X203833274Y-41166726D03*
X205000000Y-41650000D03*
X206166726Y-41166726D03*
X206650000Y-40000000D03*
D13*
X205000000Y-40000000D03*
X60000000Y-40000000D03*
D12*
X61650000Y-40000000D03*
X61166726Y-41166726D03*
X60000000Y-41650000D03*
X58833274Y-41166726D03*
X58350000Y-40000000D03*
X58833274Y-38833274D03*
X60000000Y-38350000D03*
X61166726Y-38833274D03*
X231166726Y-33833274D03*
X230000000Y-33350000D03*
X228833274Y-33833274D03*
X228350000Y-35000000D03*
X228833274Y-36166726D03*
X230000000Y-36650000D03*
X231166726Y-36166726D03*
X231650000Y-35000000D03*
D13*
X230000000Y-35000000D03*
X230000000Y-50000000D03*
D12*
X231650000Y-50000000D03*
X231166726Y-51166726D03*
X230000000Y-51650000D03*
X228833274Y-51166726D03*
X228350000Y-50000000D03*
X228833274Y-48833274D03*
X230000000Y-48350000D03*
X231166726Y-48833274D03*
D10*
X209300000Y-41300000D03*
D11*
X211840000Y-41300000D03*
X214380000Y-41300000D03*
D14*
X53535714Y-58000000D03*
X67371428Y-58000000D03*
X81207142Y-58000000D03*
X39700000Y-58000000D03*
X95042856Y-58000000D03*
X108878570Y-58000000D03*
X122714284Y-58000000D03*
X136549998Y-58000000D03*
X150385712Y-58000000D03*
X164221426Y-58000000D03*
X178057140Y-58000000D03*
X191892854Y-58000000D03*
X205728568Y-58000000D03*
X219564282Y-58000000D03*
X131500000Y-53000000D03*
X133500000Y-53000000D03*
X131500000Y-49000000D03*
X133500000Y-49000000D03*
X131500000Y-46000000D03*
X132500000Y-46000000D03*
X125600000Y-43700000D03*
X127100000Y-42200000D03*
X233000000Y-57000000D03*
X124900000Y-49999996D03*
X130400000Y-42300000D03*
X142600000Y-50650010D03*
X49546153Y-51200000D03*
X77238459Y-51200000D03*
X91084612Y-51200000D03*
X63392306Y-51200000D03*
X35700000Y-56200000D03*
X91084612Y-56200000D03*
X77238459Y-56200000D03*
X63392306Y-56200000D03*
X49546153Y-56200000D03*
X39100000Y-51200000D03*
X146469224Y-51200000D03*
X201853836Y-51200000D03*
X104930765Y-51200000D03*
X188007683Y-51200000D03*
X174161530Y-51200000D03*
X118776918Y-51200000D03*
X215700000Y-51200000D03*
X160315377Y-51200000D03*
X215700000Y-56200000D03*
X201853836Y-56200000D03*
X188007683Y-56200000D03*
X174161530Y-56200000D03*
X160315377Y-56200000D03*
X146469224Y-56200000D03*
X132623071Y-56200000D03*
X118776918Y-56200000D03*
X104930765Y-56200000D03*
X133650000Y-44350000D03*
X210600004Y-49100000D03*
X177000000Y-41600000D03*
X184938018Y-34449946D03*
X173800000Y-41600000D03*
X184043418Y-34920087D03*
X170600000Y-41600000D03*
X183166739Y-35401188D03*
X182300000Y-35900077D03*
X179400000Y-37600000D03*
X176200000Y-37600000D03*
X181400000Y-36400090D03*
X134500000Y-43500000D03*
X135500000Y-43050000D03*
X132700000Y-43500000D03*
X129200000Y-41300000D03*
X124900034Y-51175000D03*
X198500000Y-50900000D03*
X156800000Y-47349989D03*
X169199986Y-42000000D03*
X35700000Y-58000000D03*
X47699996Y-50600000D03*
X77200000Y-58000000D03*
X75300000Y-51200000D03*
X118800000Y-58000000D03*
X116800000Y-51200000D03*
X160300000Y-58000000D03*
X158300000Y-51200000D03*
X201900000Y-58000000D03*
X190000000Y-51200000D03*
X187600000Y-37600000D03*
X195999994Y-33900000D03*
X185200000Y-41600000D03*
X199207658Y-31936978D03*
X190800000Y-37600000D03*
X197000000Y-33400000D03*
X188450010Y-41600000D03*
X200100000Y-31400000D03*
X198000000Y-32900000D03*
X195900000Y-38099992D03*
X191650010Y-41600000D03*
X201000000Y-30900000D03*
D15*
X49546153Y-56200000D02*
X49546153Y-51200000D01*
X63392306Y-51200000D02*
X63392306Y-56200000D01*
X77238459Y-56200000D02*
X77238459Y-51200000D01*
X91084612Y-51200000D02*
X91084612Y-56200000D01*
X35700000Y-56200000D02*
X39100000Y-52800000D01*
X39100000Y-52800000D02*
X39100000Y-51200000D01*
X104930765Y-56200000D02*
X104930765Y-51200000D01*
X118776918Y-51200000D02*
X118776918Y-56200000D01*
X146469224Y-56200000D02*
X146469224Y-51200000D01*
X160315377Y-51200000D02*
X160315377Y-56200000D01*
X174161530Y-56200000D02*
X174161530Y-51200000D01*
X188007683Y-51200000D02*
X188007683Y-56200000D01*
X201853836Y-56200000D02*
X201853836Y-51200000D01*
X215700000Y-51200000D02*
X215700000Y-56200000D01*
X131723071Y-57100000D02*
X132623071Y-56200000D01*
X118776918Y-56200000D02*
X119676918Y-57100000D01*
X119676918Y-57100000D02*
X131723071Y-57100000D01*
X145569224Y-57100000D02*
X146469224Y-56200000D01*
X132623071Y-56200000D02*
X133523071Y-57100000D01*
X133523071Y-57100000D02*
X145569224Y-57100000D01*
X215700000Y-42620000D02*
X214380000Y-41300000D01*
X215700000Y-51200000D02*
X215700000Y-42620000D01*
X210499993Y-48999989D02*
X210600004Y-49100000D01*
X133650000Y-44350000D02*
X138299989Y-48999989D01*
X138299989Y-48999989D02*
X210499993Y-48999989D01*
D16*
X178800000Y-41600000D02*
X177000000Y-41600000D01*
X184938018Y-35461982D02*
X178800000Y-41600000D01*
X184938018Y-34449946D02*
X184938018Y-35461982D01*
X184043418Y-35649460D02*
X180592889Y-39099989D01*
X176300011Y-39099989D02*
X173800000Y-41600000D01*
X180592889Y-39099989D02*
X176300011Y-39099989D01*
X184043418Y-34920087D02*
X184043418Y-35649460D01*
X182915584Y-35150033D02*
X177049967Y-35150033D01*
X183166739Y-35401188D02*
X182915584Y-35150033D01*
X177049967Y-35150033D02*
X170600000Y-41600000D01*
X182300000Y-36685756D02*
X181385756Y-37600000D01*
X181385756Y-37600000D02*
X179400000Y-37600000D01*
X182300000Y-35900077D02*
X182300000Y-36685756D01*
X177600041Y-36199959D02*
X176200000Y-37600000D01*
X181400000Y-36400090D02*
X181199869Y-36199959D01*
X181199869Y-36199959D02*
X177600041Y-36199959D01*
X146620000Y-43800000D02*
X149120000Y-41300000D01*
X134500000Y-43500000D02*
X134800000Y-43800000D01*
X134800000Y-43800000D02*
X146620000Y-43800000D01*
X145730001Y-42149999D02*
X146580000Y-41300000D01*
X135500000Y-43050000D02*
X135749989Y-43299989D01*
X144580011Y-43299989D02*
X145730001Y-42149999D01*
X135749989Y-43299989D02*
X144580011Y-43299989D01*
X143190001Y-42149999D02*
X144040000Y-41300000D01*
X133900000Y-42300000D02*
X135900000Y-42300000D01*
X135900000Y-42300000D02*
X136399978Y-42799978D01*
X136399978Y-42799978D02*
X142540022Y-42799978D01*
X142540022Y-42799978D02*
X143190001Y-42149999D01*
X132700000Y-43500000D02*
X133900000Y-42300000D01*
X129200000Y-41300000D02*
X141500000Y-41300000D01*
X197200000Y-49600000D02*
X198500000Y-50900000D01*
X145300000Y-49600000D02*
X197200000Y-49600000D01*
X143325001Y-51574999D02*
X145300000Y-49600000D01*
X124900034Y-51175000D02*
X125300033Y-51574999D01*
X125300033Y-51574999D02*
X143325001Y-51574999D01*
X162149989Y-42000000D02*
X169199986Y-42000000D01*
X156800000Y-47349989D02*
X162149989Y-42000000D01*
D15*
X47699996Y-50600004D02*
X47699996Y-50600000D01*
X44800000Y-53500000D02*
X47699996Y-50600004D01*
X35700000Y-58000000D02*
X40200000Y-53500000D01*
X40200000Y-53500000D02*
X44800000Y-53500000D01*
X75300000Y-56100000D02*
X75300000Y-51200000D01*
X77200000Y-58000000D02*
X75300000Y-56100000D01*
X118800000Y-58000000D02*
X116800000Y-56000000D01*
X116800000Y-56000000D02*
X116800000Y-51200000D01*
X158300000Y-56000000D02*
X158300000Y-51200000D01*
X160300000Y-58000000D02*
X158300000Y-56000000D01*
X195900000Y-57100000D02*
X190000000Y-51200000D01*
X201900000Y-58000000D02*
X201000000Y-57100000D01*
X201000000Y-57100000D02*
X195900000Y-57100000D01*
D16*
X189100000Y-37600000D02*
X187600000Y-37600000D01*
X193049997Y-33650003D02*
X189100000Y-37600000D01*
X195999994Y-33900000D02*
X195749997Y-33650003D01*
X195749997Y-33650003D02*
X193049997Y-33650003D01*
X187600020Y-39199980D02*
X185200000Y-41600000D01*
X198000020Y-39199980D02*
X187600020Y-39199980D01*
X199207658Y-37992342D02*
X198000020Y-39199980D01*
X199207658Y-31936978D02*
X199207658Y-37992342D01*
X193365685Y-37600000D02*
X190800000Y-37600000D01*
X197000000Y-33965685D02*
X193365685Y-37600000D01*
X197000000Y-33400000D02*
X197000000Y-33965685D01*
X190350021Y-39699989D02*
X188450010Y-41600000D01*
X200100000Y-31400000D02*
X200100000Y-37807122D01*
X198207133Y-39699989D02*
X190350021Y-39699989D01*
X200100000Y-37807122D02*
X198207133Y-39699989D01*
X195900008Y-38100000D02*
X195900000Y-38099992D01*
X197400000Y-38100000D02*
X195900008Y-38100000D01*
X198000000Y-32900000D02*
X198000000Y-37500000D01*
X198000000Y-37500000D02*
X197400000Y-38100000D01*
X193050010Y-40200000D02*
X191650010Y-41600000D01*
X198414244Y-40200000D02*
X193050010Y-40200000D01*
X201000000Y-30900000D02*
X201000000Y-37614244D01*
X201000000Y-37614244D02*
X198414244Y-40200000D01*
D17*
G36*
X200235830Y-30583817D02*
G01*
X200181452Y-30573000D01*
X200018548Y-30573000D01*
X199858773Y-30604782D01*
X199708269Y-30667123D01*
X199572819Y-30757628D01*
X199457628Y-30872819D01*
X199367123Y-31008269D01*
X199322262Y-31116573D01*
X199289110Y-31109978D01*
X199126206Y-31109978D01*
X198966431Y-31141760D01*
X198815927Y-31204101D01*
X198680477Y-31294606D01*
X198565286Y-31409797D01*
X198474781Y-31545247D01*
X198412440Y-31695751D01*
X198380658Y-31855526D01*
X198380658Y-32018430D01*
X198412440Y-32178205D01*
X198414018Y-32182015D01*
X198391731Y-32167123D01*
X198241227Y-32104782D01*
X198081452Y-32073000D01*
X197918548Y-32073000D01*
X197758773Y-32104782D01*
X197608269Y-32167123D01*
X197472819Y-32257628D01*
X197357628Y-32372819D01*
X197267123Y-32508269D01*
X197228218Y-32602194D01*
X197081452Y-32573000D01*
X196918548Y-32573000D01*
X196758773Y-32604782D01*
X196608269Y-32667123D01*
X196472819Y-32757628D01*
X196357628Y-32872819D01*
X196267123Y-33008269D01*
X196228217Y-33102195D01*
X196081446Y-33073000D01*
X195918542Y-33073000D01*
X195868433Y-33082967D01*
X195863108Y-33081352D01*
X195808042Y-33075929D01*
X195778333Y-33073003D01*
X195778328Y-33073003D01*
X195749997Y-33070213D01*
X195721666Y-33073003D01*
X193078325Y-33073003D01*
X193049996Y-33070213D01*
X193021667Y-33073003D01*
X193021661Y-33073003D01*
X192936885Y-33081353D01*
X192828121Y-33114346D01*
X192727882Y-33167924D01*
X192640023Y-33240029D01*
X192621958Y-33262041D01*
X188860999Y-37023000D01*
X188192553Y-37023000D01*
X188127181Y-36957628D01*
X187991731Y-36867123D01*
X187841227Y-36804782D01*
X187681452Y-36773000D01*
X187518548Y-36773000D01*
X187358773Y-36804782D01*
X187208269Y-36867123D01*
X187072819Y-36957628D01*
X186957628Y-37072819D01*
X186867123Y-37208269D01*
X186804782Y-37358773D01*
X186773000Y-37518548D01*
X186773000Y-37681452D01*
X186804782Y-37841227D01*
X186867123Y-37991731D01*
X186957628Y-38127181D01*
X187072819Y-38242372D01*
X187208269Y-38332877D01*
X187358773Y-38395218D01*
X187518548Y-38427000D01*
X187681452Y-38427000D01*
X187841227Y-38395218D01*
X187991731Y-38332877D01*
X188127181Y-38242372D01*
X188192553Y-38177000D01*
X189071669Y-38177000D01*
X189100000Y-38179790D01*
X189128331Y-38177000D01*
X189128336Y-38177000D01*
X189158045Y-38174074D01*
X189213111Y-38168651D01*
X189257770Y-38155103D01*
X189321876Y-38135657D01*
X189422115Y-38082079D01*
X189509974Y-38009974D01*
X189528039Y-37987962D01*
X189973000Y-37543001D01*
X189973000Y-37681452D01*
X190004782Y-37841227D01*
X190067123Y-37991731D01*
X190157628Y-38127181D01*
X190272819Y-38242372D01*
X190408269Y-38332877D01*
X190558773Y-38395218D01*
X190718548Y-38427000D01*
X190881452Y-38427000D01*
X191041227Y-38395218D01*
X191191731Y-38332877D01*
X191327181Y-38242372D01*
X191392553Y-38177000D01*
X193337354Y-38177000D01*
X193365685Y-38179790D01*
X193394016Y-38177000D01*
X193394021Y-38177000D01*
X193423730Y-38174074D01*
X193478796Y-38168651D01*
X193523455Y-38155103D01*
X193587561Y-38135657D01*
X193687800Y-38082079D01*
X193775659Y-38009974D01*
X193793724Y-37987962D01*
X197387962Y-34393724D01*
X197409974Y-34375659D01*
X197423000Y-34359787D01*
X197423001Y-37260997D01*
X197160999Y-37523000D01*
X196492561Y-37523000D01*
X196427181Y-37457620D01*
X196291731Y-37367115D01*
X196141227Y-37304774D01*
X195981452Y-37272992D01*
X195818548Y-37272992D01*
X195658773Y-37304774D01*
X195508269Y-37367115D01*
X195372819Y-37457620D01*
X195257628Y-37572811D01*
X195167123Y-37708261D01*
X195104782Y-37858765D01*
X195073000Y-38018540D01*
X195073000Y-38181444D01*
X195104782Y-38341219D01*
X195167123Y-38491723D01*
X195254826Y-38622980D01*
X187628351Y-38622980D01*
X187600020Y-38620190D01*
X187571689Y-38622980D01*
X187571684Y-38622980D01*
X187544906Y-38625617D01*
X187486908Y-38631329D01*
X187422802Y-38650776D01*
X187378144Y-38664323D01*
X187277905Y-38717901D01*
X187190046Y-38790006D01*
X187171983Y-38812016D01*
X185210999Y-40773000D01*
X185118548Y-40773000D01*
X184958773Y-40804782D01*
X184808269Y-40867123D01*
X184672819Y-40957628D01*
X184557628Y-41072819D01*
X184467123Y-41208269D01*
X184404782Y-41358773D01*
X184373000Y-41518548D01*
X184373000Y-41681452D01*
X184404782Y-41841227D01*
X184467123Y-41991731D01*
X184557628Y-42127181D01*
X184672819Y-42242372D01*
X184808269Y-42332877D01*
X184958773Y-42395218D01*
X185118548Y-42427000D01*
X185281452Y-42427000D01*
X185441227Y-42395218D01*
X185591731Y-42332877D01*
X185727181Y-42242372D01*
X185842372Y-42127181D01*
X185932877Y-41991731D01*
X185995218Y-41841227D01*
X186027000Y-41681452D01*
X186027000Y-41589001D01*
X187839021Y-39776980D01*
X189457029Y-39776980D01*
X188461009Y-40773000D01*
X188368558Y-40773000D01*
X188208783Y-40804782D01*
X188058279Y-40867123D01*
X187922829Y-40957628D01*
X187807638Y-41072819D01*
X187717133Y-41208269D01*
X187654792Y-41358773D01*
X187623010Y-41518548D01*
X187623010Y-41681452D01*
X187654792Y-41841227D01*
X187717133Y-41991731D01*
X187807638Y-42127181D01*
X187922829Y-42242372D01*
X188058279Y-42332877D01*
X188208783Y-42395218D01*
X188368558Y-42427000D01*
X188531462Y-42427000D01*
X188691237Y-42395218D01*
X188841741Y-42332877D01*
X188977191Y-42242372D01*
X189092382Y-42127181D01*
X189182887Y-41991731D01*
X189245228Y-41841227D01*
X189277010Y-41681452D01*
X189277010Y-41589001D01*
X190589022Y-40276989D01*
X192157019Y-40276989D01*
X191661009Y-40773000D01*
X191568558Y-40773000D01*
X191408783Y-40804782D01*
X191258279Y-40867123D01*
X191122829Y-40957628D01*
X191007638Y-41072819D01*
X190917133Y-41208269D01*
X190854792Y-41358773D01*
X190823010Y-41518548D01*
X190823010Y-41681452D01*
X190854792Y-41841227D01*
X190917133Y-41991731D01*
X191007638Y-42127181D01*
X191122829Y-42242372D01*
X191258279Y-42332877D01*
X191408783Y-42395218D01*
X191568558Y-42427000D01*
X191731462Y-42427000D01*
X191891237Y-42395218D01*
X192041741Y-42332877D01*
X192177191Y-42242372D01*
X192292382Y-42127181D01*
X192382887Y-41991731D01*
X192445228Y-41841227D01*
X192477010Y-41681452D01*
X192477010Y-41589001D01*
X192766011Y-41300000D01*
X210556822Y-41300000D01*
X210581478Y-41550336D01*
X210654498Y-41791051D01*
X210773076Y-42012896D01*
X210932656Y-42207344D01*
X211127104Y-42366924D01*
X211348949Y-42485502D01*
X211589664Y-42558522D01*
X211777274Y-42577000D01*
X211902726Y-42577000D01*
X212090336Y-42558522D01*
X212331051Y-42485502D01*
X212552896Y-42366924D01*
X212747344Y-42207344D01*
X212906924Y-42012896D01*
X213025502Y-41791051D01*
X213098522Y-41550336D01*
X213110000Y-41433798D01*
X213121478Y-41550336D01*
X213194498Y-41791051D01*
X213313076Y-42012896D01*
X213472656Y-42207344D01*
X213667104Y-42366924D01*
X213888949Y-42485502D01*
X214129664Y-42558522D01*
X214317274Y-42577000D01*
X214442726Y-42577000D01*
X214630336Y-42558522D01*
X214669285Y-42546707D01*
X215023001Y-42900424D01*
X215023000Y-50724643D01*
X214967123Y-50808269D01*
X214904782Y-50958773D01*
X214873000Y-51118548D01*
X214873000Y-51281452D01*
X214904782Y-51441227D01*
X214967123Y-51591731D01*
X215023000Y-51675357D01*
X215023001Y-55724642D01*
X214967123Y-55808269D01*
X214904782Y-55958773D01*
X214873000Y-56118548D01*
X214873000Y-56281452D01*
X214904782Y-56441227D01*
X214967123Y-56591731D01*
X215057628Y-56727181D01*
X215172819Y-56842372D01*
X215308269Y-56932877D01*
X215458773Y-56995218D01*
X215618548Y-57027000D01*
X215781452Y-57027000D01*
X215941227Y-56995218D01*
X216091731Y-56932877D01*
X216227181Y-56842372D01*
X216342372Y-56727181D01*
X216432877Y-56591731D01*
X216495218Y-56441227D01*
X216527000Y-56281452D01*
X216527000Y-56118548D01*
X216495218Y-55958773D01*
X216432877Y-55808269D01*
X216377000Y-55724643D01*
X216377000Y-51675357D01*
X216432877Y-51591731D01*
X216495218Y-51441227D01*
X216527000Y-51281452D01*
X216527000Y-51118548D01*
X216495218Y-50958773D01*
X216432877Y-50808269D01*
X216377000Y-50724643D01*
X216377000Y-42653245D01*
X216380274Y-42620000D01*
X216377000Y-42586755D01*
X216377000Y-42586748D01*
X216367204Y-42487285D01*
X216328492Y-42359670D01*
X216265628Y-42242059D01*
X216212235Y-42177000D01*
X216202224Y-42164801D01*
X216202222Y-42164799D01*
X216181027Y-42138973D01*
X216155201Y-42117778D01*
X215626707Y-41589285D01*
X215638522Y-41550336D01*
X215663178Y-41300000D01*
X215638522Y-41049664D01*
X215565502Y-40808949D01*
X215446924Y-40587104D01*
X215287344Y-40392656D01*
X215092896Y-40233076D01*
X214871051Y-40114498D01*
X214630336Y-40041478D01*
X214442726Y-40023000D01*
X214317274Y-40023000D01*
X214129664Y-40041478D01*
X213888949Y-40114498D01*
X213667104Y-40233076D01*
X213472656Y-40392656D01*
X213313076Y-40587104D01*
X213194498Y-40808949D01*
X213121478Y-41049664D01*
X213110000Y-41166202D01*
X213098522Y-41049664D01*
X213025502Y-40808949D01*
X212906924Y-40587104D01*
X212747344Y-40392656D01*
X212552896Y-40233076D01*
X212331051Y-40114498D01*
X212090336Y-40041478D01*
X211902726Y-40023000D01*
X211777274Y-40023000D01*
X211589664Y-40041478D01*
X211348949Y-40114498D01*
X211127104Y-40233076D01*
X210932656Y-40392656D01*
X210773076Y-40587104D01*
X210654498Y-40808949D01*
X210581478Y-41049664D01*
X210556822Y-41300000D01*
X192766011Y-41300000D01*
X193289012Y-40777000D01*
X198385913Y-40777000D01*
X198414244Y-40779790D01*
X198442575Y-40777000D01*
X198442580Y-40777000D01*
X198472289Y-40774074D01*
X198527355Y-40768651D01*
X198572014Y-40755103D01*
X198636120Y-40735657D01*
X198736359Y-40682079D01*
X198824218Y-40609974D01*
X198842283Y-40587962D01*
X201387967Y-38042279D01*
X201409974Y-38024218D01*
X201436134Y-37992343D01*
X201444557Y-37982079D01*
X201482079Y-37936359D01*
X201535657Y-37836120D01*
X201568650Y-37727356D01*
X201577000Y-37642580D01*
X201577000Y-37642574D01*
X201579790Y-37614245D01*
X201577000Y-37585916D01*
X201577000Y-31492553D01*
X201642372Y-31427181D01*
X201732877Y-31291731D01*
X201795218Y-31141227D01*
X201827000Y-30981452D01*
X201827000Y-30818548D01*
X201795218Y-30658773D01*
X201740636Y-30527000D01*
X234147394Y-30527000D01*
X234473000Y-30852606D01*
X234473000Y-59147394D01*
X234147394Y-59473000D01*
X30852606Y-59473000D01*
X30527000Y-59147394D01*
X30527000Y-56118548D01*
X34873000Y-56118548D01*
X34873000Y-56281452D01*
X34904782Y-56441227D01*
X34967123Y-56591731D01*
X35057628Y-56727181D01*
X35172819Y-56842372D01*
X35308269Y-56932877D01*
X35458773Y-56995218D01*
X35618548Y-57027000D01*
X35715578Y-57027000D01*
X35557418Y-57185160D01*
X35458773Y-57204782D01*
X35308269Y-57267123D01*
X35172819Y-57357628D01*
X35057628Y-57472819D01*
X34967123Y-57608269D01*
X34904782Y-57758773D01*
X34873000Y-57918548D01*
X34873000Y-58081452D01*
X34904782Y-58241227D01*
X34967123Y-58391731D01*
X35057628Y-58527181D01*
X35172819Y-58642372D01*
X35308269Y-58732877D01*
X35458773Y-58795218D01*
X35618548Y-58827000D01*
X35781452Y-58827000D01*
X35941227Y-58795218D01*
X36091731Y-58732877D01*
X36227181Y-58642372D01*
X36342372Y-58527181D01*
X36432877Y-58391731D01*
X36495218Y-58241227D01*
X36514840Y-58142582D01*
X40480422Y-54177000D01*
X44766755Y-54177000D01*
X44800000Y-54180274D01*
X44833245Y-54177000D01*
X44833252Y-54177000D01*
X44932715Y-54167204D01*
X45060330Y-54128492D01*
X45177941Y-54065628D01*
X45281027Y-53981027D01*
X45302226Y-53955196D01*
X47842584Y-51414839D01*
X47941223Y-51395218D01*
X48091727Y-51332877D01*
X48227177Y-51242372D01*
X48342368Y-51127181D01*
X48348136Y-51118548D01*
X48719153Y-51118548D01*
X48719153Y-51281452D01*
X48750935Y-51441227D01*
X48813276Y-51591731D01*
X48869154Y-51675358D01*
X48869153Y-55724643D01*
X48813276Y-55808269D01*
X48750935Y-55958773D01*
X48719153Y-56118548D01*
X48719153Y-56281452D01*
X48750935Y-56441227D01*
X48813276Y-56591731D01*
X48903781Y-56727181D01*
X49018972Y-56842372D01*
X49154422Y-56932877D01*
X49304926Y-56995218D01*
X49464701Y-57027000D01*
X49627605Y-57027000D01*
X49787380Y-56995218D01*
X49937884Y-56932877D01*
X50073334Y-56842372D01*
X50188525Y-56727181D01*
X50279030Y-56591731D01*
X50341371Y-56441227D01*
X50373153Y-56281452D01*
X50373153Y-56118548D01*
X50341371Y-55958773D01*
X50279030Y-55808269D01*
X50223153Y-55724643D01*
X50223153Y-51675357D01*
X50279030Y-51591731D01*
X50341371Y-51441227D01*
X50373153Y-51281452D01*
X50373153Y-51118548D01*
X62565306Y-51118548D01*
X62565306Y-51281452D01*
X62597088Y-51441227D01*
X62659429Y-51591731D01*
X62715306Y-51675357D01*
X62715307Y-55724642D01*
X62659429Y-55808269D01*
X62597088Y-55958773D01*
X62565306Y-56118548D01*
X62565306Y-56281452D01*
X62597088Y-56441227D01*
X62659429Y-56591731D01*
X62749934Y-56727181D01*
X62865125Y-56842372D01*
X63000575Y-56932877D01*
X63151079Y-56995218D01*
X63310854Y-57027000D01*
X63473758Y-57027000D01*
X63633533Y-56995218D01*
X63784037Y-56932877D01*
X63919487Y-56842372D01*
X64034678Y-56727181D01*
X64125183Y-56591731D01*
X64187524Y-56441227D01*
X64219306Y-56281452D01*
X64219306Y-56118548D01*
X64187524Y-55958773D01*
X64125183Y-55808269D01*
X64069306Y-55724643D01*
X64069306Y-51675357D01*
X64125183Y-51591731D01*
X64187524Y-51441227D01*
X64219306Y-51281452D01*
X64219306Y-51118548D01*
X74473000Y-51118548D01*
X74473000Y-51281452D01*
X74504782Y-51441227D01*
X74567123Y-51591731D01*
X74623001Y-51675358D01*
X74623000Y-56066755D01*
X74619726Y-56100000D01*
X74623000Y-56133245D01*
X74623000Y-56133251D01*
X74632796Y-56232714D01*
X74671508Y-56360329D01*
X74734372Y-56477940D01*
X74818973Y-56581026D01*
X74844800Y-56602222D01*
X76385160Y-58142583D01*
X76404782Y-58241227D01*
X76467123Y-58391731D01*
X76557628Y-58527181D01*
X76672819Y-58642372D01*
X76808269Y-58732877D01*
X76958773Y-58795218D01*
X77118548Y-58827000D01*
X77281452Y-58827000D01*
X77441227Y-58795218D01*
X77591731Y-58732877D01*
X77727181Y-58642372D01*
X77842372Y-58527181D01*
X77932877Y-58391731D01*
X77995218Y-58241227D01*
X78027000Y-58081452D01*
X78027000Y-57918548D01*
X77995218Y-57758773D01*
X77932877Y-57608269D01*
X77842372Y-57472819D01*
X77727181Y-57357628D01*
X77591731Y-57267123D01*
X77441227Y-57204782D01*
X77342583Y-57185160D01*
X77184423Y-57027000D01*
X77319911Y-57027000D01*
X77479686Y-56995218D01*
X77630190Y-56932877D01*
X77765640Y-56842372D01*
X77880831Y-56727181D01*
X77971336Y-56591731D01*
X78033677Y-56441227D01*
X78065459Y-56281452D01*
X78065459Y-56118548D01*
X78033677Y-55958773D01*
X77971336Y-55808269D01*
X77915459Y-55724643D01*
X77915459Y-51675357D01*
X77971336Y-51591731D01*
X78033677Y-51441227D01*
X78065459Y-51281452D01*
X78065459Y-51118548D01*
X90257612Y-51118548D01*
X90257612Y-51281452D01*
X90289394Y-51441227D01*
X90351735Y-51591731D01*
X90407612Y-51675357D01*
X90407613Y-55724642D01*
X90351735Y-55808269D01*
X90289394Y-55958773D01*
X90257612Y-56118548D01*
X90257612Y-56281452D01*
X90289394Y-56441227D01*
X90351735Y-56591731D01*
X90442240Y-56727181D01*
X90557431Y-56842372D01*
X90692881Y-56932877D01*
X90843385Y-56995218D01*
X91003160Y-57027000D01*
X91166064Y-57027000D01*
X91325839Y-56995218D01*
X91476343Y-56932877D01*
X91611793Y-56842372D01*
X91726984Y-56727181D01*
X91817489Y-56591731D01*
X91879830Y-56441227D01*
X91911612Y-56281452D01*
X91911612Y-56118548D01*
X91879830Y-55958773D01*
X91817489Y-55808269D01*
X91761612Y-55724643D01*
X91761612Y-51675357D01*
X91817489Y-51591731D01*
X91879830Y-51441227D01*
X91911612Y-51281452D01*
X91911612Y-51118548D01*
X104103765Y-51118548D01*
X104103765Y-51281452D01*
X104135547Y-51441227D01*
X104197888Y-51591731D01*
X104253766Y-51675358D01*
X104253765Y-55724643D01*
X104197888Y-55808269D01*
X104135547Y-55958773D01*
X104103765Y-56118548D01*
X104103765Y-56281452D01*
X104135547Y-56441227D01*
X104197888Y-56591731D01*
X104288393Y-56727181D01*
X104403584Y-56842372D01*
X104539034Y-56932877D01*
X104689538Y-56995218D01*
X104849313Y-57027000D01*
X105012217Y-57027000D01*
X105171992Y-56995218D01*
X105322496Y-56932877D01*
X105457946Y-56842372D01*
X105573137Y-56727181D01*
X105663642Y-56591731D01*
X105725983Y-56441227D01*
X105757765Y-56281452D01*
X105757765Y-56118548D01*
X105725983Y-55958773D01*
X105663642Y-55808269D01*
X105607765Y-55724643D01*
X105607765Y-51675357D01*
X105663642Y-51591731D01*
X105725983Y-51441227D01*
X105757765Y-51281452D01*
X105757765Y-51118548D01*
X115973000Y-51118548D01*
X115973000Y-51281452D01*
X116004782Y-51441227D01*
X116067123Y-51591731D01*
X116123001Y-51675358D01*
X116123000Y-55966755D01*
X116119726Y-56000000D01*
X116123000Y-56033245D01*
X116123000Y-56033251D01*
X116126352Y-56067286D01*
X116132796Y-56132714D01*
X116171508Y-56260329D01*
X116234372Y-56377940D01*
X116286311Y-56441227D01*
X116318973Y-56481026D01*
X116344800Y-56502222D01*
X117985160Y-58142582D01*
X118004782Y-58241227D01*
X118067123Y-58391731D01*
X118157628Y-58527181D01*
X118272819Y-58642372D01*
X118408269Y-58732877D01*
X118558773Y-58795218D01*
X118718548Y-58827000D01*
X118881452Y-58827000D01*
X119041227Y-58795218D01*
X119191731Y-58732877D01*
X119327181Y-58642372D01*
X119442372Y-58527181D01*
X119532877Y-58391731D01*
X119595218Y-58241227D01*
X119627000Y-58081452D01*
X119627000Y-57918548D01*
X119597948Y-57772497D01*
X119643666Y-57777000D01*
X119643675Y-57777000D01*
X119676917Y-57780274D01*
X119710159Y-57777000D01*
X131689826Y-57777000D01*
X131723071Y-57780274D01*
X131756316Y-57777000D01*
X131756323Y-57777000D01*
X131855786Y-57767204D01*
X131983401Y-57728492D01*
X132101012Y-57665628D01*
X132204098Y-57581027D01*
X132225297Y-57555196D01*
X132623071Y-57157422D01*
X133020845Y-57555196D01*
X133042044Y-57581027D01*
X133145130Y-57665628D01*
X133262741Y-57728492D01*
X133390356Y-57767204D01*
X133489819Y-57777000D01*
X133489828Y-57777000D01*
X133523070Y-57780274D01*
X133556312Y-57777000D01*
X145535979Y-57777000D01*
X145569224Y-57780274D01*
X145602469Y-57777000D01*
X145602476Y-57777000D01*
X145701939Y-57767204D01*
X145829554Y-57728492D01*
X145947165Y-57665628D01*
X146050251Y-57581027D01*
X146071450Y-57555196D01*
X146611806Y-57014840D01*
X146710451Y-56995218D01*
X146860955Y-56932877D01*
X146996405Y-56842372D01*
X147111596Y-56727181D01*
X147202101Y-56591731D01*
X147264442Y-56441227D01*
X147296224Y-56281452D01*
X147296224Y-56118548D01*
X147264442Y-55958773D01*
X147202101Y-55808269D01*
X147146224Y-55724643D01*
X147146224Y-51675357D01*
X147202101Y-51591731D01*
X147264442Y-51441227D01*
X147296224Y-51281452D01*
X147296224Y-51118548D01*
X157473000Y-51118548D01*
X157473000Y-51281452D01*
X157504782Y-51441227D01*
X157567123Y-51591731D01*
X157623001Y-51675358D01*
X157623000Y-55966755D01*
X157619726Y-56000000D01*
X157623000Y-56033245D01*
X157623000Y-56033251D01*
X157626352Y-56067286D01*
X157632796Y-56132714D01*
X157671508Y-56260329D01*
X157734372Y-56377940D01*
X157786311Y-56441227D01*
X157818973Y-56481026D01*
X157844800Y-56502222D01*
X159485160Y-58142582D01*
X159504782Y-58241227D01*
X159567123Y-58391731D01*
X159657628Y-58527181D01*
X159772819Y-58642372D01*
X159908269Y-58732877D01*
X160058773Y-58795218D01*
X160218548Y-58827000D01*
X160381452Y-58827000D01*
X160541227Y-58795218D01*
X160691731Y-58732877D01*
X160827181Y-58642372D01*
X160942372Y-58527181D01*
X161032877Y-58391731D01*
X161095218Y-58241227D01*
X161127000Y-58081452D01*
X161127000Y-57918548D01*
X161095218Y-57758773D01*
X161032877Y-57608269D01*
X160942372Y-57472819D01*
X160827181Y-57357628D01*
X160691731Y-57267123D01*
X160541227Y-57204782D01*
X160442582Y-57185160D01*
X160284422Y-57027000D01*
X160396829Y-57027000D01*
X160556604Y-56995218D01*
X160707108Y-56932877D01*
X160842558Y-56842372D01*
X160957749Y-56727181D01*
X161048254Y-56591731D01*
X161110595Y-56441227D01*
X161142377Y-56281452D01*
X161142377Y-56118548D01*
X161110595Y-55958773D01*
X161048254Y-55808269D01*
X160992377Y-55724643D01*
X160992377Y-51675357D01*
X161048254Y-51591731D01*
X161110595Y-51441227D01*
X161142377Y-51281452D01*
X161142377Y-51118548D01*
X173334530Y-51118548D01*
X173334530Y-51281452D01*
X173366312Y-51441227D01*
X173428653Y-51591731D01*
X173484531Y-51675358D01*
X173484530Y-55724643D01*
X173428653Y-55808269D01*
X173366312Y-55958773D01*
X173334530Y-56118548D01*
X173334530Y-56281452D01*
X173366312Y-56441227D01*
X173428653Y-56591731D01*
X173519158Y-56727181D01*
X173634349Y-56842372D01*
X173769799Y-56932877D01*
X173920303Y-56995218D01*
X174080078Y-57027000D01*
X174242982Y-57027000D01*
X174402757Y-56995218D01*
X174553261Y-56932877D01*
X174688711Y-56842372D01*
X174803902Y-56727181D01*
X174894407Y-56591731D01*
X174956748Y-56441227D01*
X174988530Y-56281452D01*
X174988530Y-56118548D01*
X174956748Y-55958773D01*
X174894407Y-55808269D01*
X174838530Y-55724643D01*
X174838530Y-51675357D01*
X174894407Y-51591731D01*
X174956748Y-51441227D01*
X174988530Y-51281452D01*
X174988530Y-51118548D01*
X187180683Y-51118548D01*
X187180683Y-51281452D01*
X187212465Y-51441227D01*
X187274806Y-51591731D01*
X187330683Y-51675357D01*
X187330684Y-55724642D01*
X187274806Y-55808269D01*
X187212465Y-55958773D01*
X187180683Y-56118548D01*
X187180683Y-56281452D01*
X187212465Y-56441227D01*
X187274806Y-56591731D01*
X187365311Y-56727181D01*
X187480502Y-56842372D01*
X187615952Y-56932877D01*
X187766456Y-56995218D01*
X187926231Y-57027000D01*
X188089135Y-57027000D01*
X188248910Y-56995218D01*
X188399414Y-56932877D01*
X188534864Y-56842372D01*
X188650055Y-56727181D01*
X188740560Y-56591731D01*
X188802901Y-56441227D01*
X188834683Y-56281452D01*
X188834683Y-56118548D01*
X188802901Y-55958773D01*
X188740560Y-55808269D01*
X188684683Y-55724643D01*
X188684683Y-51675357D01*
X188740560Y-51591731D01*
X188802901Y-51441227D01*
X188834683Y-51281452D01*
X188834683Y-51118548D01*
X189173000Y-51118548D01*
X189173000Y-51281452D01*
X189204782Y-51441227D01*
X189267123Y-51591731D01*
X189357628Y-51727181D01*
X189472819Y-51842372D01*
X189608269Y-51932877D01*
X189758773Y-51995218D01*
X189857418Y-52014840D01*
X195397774Y-57555196D01*
X195418973Y-57581027D01*
X195522059Y-57665628D01*
X195639670Y-57728492D01*
X195767285Y-57767204D01*
X195866748Y-57777000D01*
X195866754Y-57777000D01*
X195899999Y-57780274D01*
X195933244Y-57777000D01*
X200719578Y-57777000D01*
X201085160Y-58142582D01*
X201104782Y-58241227D01*
X201167123Y-58391731D01*
X201257628Y-58527181D01*
X201372819Y-58642372D01*
X201508269Y-58732877D01*
X201658773Y-58795218D01*
X201818548Y-58827000D01*
X201981452Y-58827000D01*
X202141227Y-58795218D01*
X202291731Y-58732877D01*
X202427181Y-58642372D01*
X202542372Y-58527181D01*
X202632877Y-58391731D01*
X202695218Y-58241227D01*
X202727000Y-58081452D01*
X202727000Y-57918548D01*
X202695218Y-57758773D01*
X202632877Y-57608269D01*
X202542372Y-57472819D01*
X202427181Y-57357628D01*
X202291731Y-57267123D01*
X202141227Y-57204782D01*
X202042582Y-57185160D01*
X201884422Y-57027000D01*
X201935288Y-57027000D01*
X202095063Y-56995218D01*
X202245567Y-56932877D01*
X202381017Y-56842372D01*
X202496208Y-56727181D01*
X202586713Y-56591731D01*
X202649054Y-56441227D01*
X202680836Y-56281452D01*
X202680836Y-56118548D01*
X202649054Y-55958773D01*
X202586713Y-55808269D01*
X202530836Y-55724643D01*
X202530836Y-51675357D01*
X202586713Y-51591731D01*
X202649054Y-51441227D01*
X202680836Y-51281452D01*
X202680836Y-51118548D01*
X202649054Y-50958773D01*
X202586713Y-50808269D01*
X202496208Y-50672819D01*
X202381017Y-50557628D01*
X202245567Y-50467123D01*
X202095063Y-50404782D01*
X201935288Y-50373000D01*
X201772384Y-50373000D01*
X201612609Y-50404782D01*
X201462105Y-50467123D01*
X201326655Y-50557628D01*
X201211464Y-50672819D01*
X201120959Y-50808269D01*
X201058618Y-50958773D01*
X201026836Y-51118548D01*
X201026836Y-51281452D01*
X201058618Y-51441227D01*
X201120959Y-51591731D01*
X201176837Y-51675358D01*
X201176836Y-55724643D01*
X201120959Y-55808269D01*
X201058618Y-55958773D01*
X201026836Y-56118548D01*
X201026836Y-56281452D01*
X201055427Y-56425184D01*
X201033252Y-56423000D01*
X201033245Y-56423000D01*
X201000000Y-56419726D01*
X200966755Y-56423000D01*
X196180422Y-56423000D01*
X190814840Y-51057418D01*
X190795218Y-50958773D01*
X190732877Y-50808269D01*
X190642372Y-50672819D01*
X190527181Y-50557628D01*
X190391731Y-50467123D01*
X190241227Y-50404782D01*
X190081452Y-50373000D01*
X189918548Y-50373000D01*
X189758773Y-50404782D01*
X189608269Y-50467123D01*
X189472819Y-50557628D01*
X189357628Y-50672819D01*
X189267123Y-50808269D01*
X189204782Y-50958773D01*
X189173000Y-51118548D01*
X188834683Y-51118548D01*
X188802901Y-50958773D01*
X188740560Y-50808269D01*
X188650055Y-50672819D01*
X188534864Y-50557628D01*
X188399414Y-50467123D01*
X188248910Y-50404782D01*
X188089135Y-50373000D01*
X187926231Y-50373000D01*
X187766456Y-50404782D01*
X187615952Y-50467123D01*
X187480502Y-50557628D01*
X187365311Y-50672819D01*
X187274806Y-50808269D01*
X187212465Y-50958773D01*
X187180683Y-51118548D01*
X174988530Y-51118548D01*
X174956748Y-50958773D01*
X174894407Y-50808269D01*
X174803902Y-50672819D01*
X174688711Y-50557628D01*
X174553261Y-50467123D01*
X174402757Y-50404782D01*
X174242982Y-50373000D01*
X174080078Y-50373000D01*
X173920303Y-50404782D01*
X173769799Y-50467123D01*
X173634349Y-50557628D01*
X173519158Y-50672819D01*
X173428653Y-50808269D01*
X173366312Y-50958773D01*
X173334530Y-51118548D01*
X161142377Y-51118548D01*
X161110595Y-50958773D01*
X161048254Y-50808269D01*
X160957749Y-50672819D01*
X160842558Y-50557628D01*
X160707108Y-50467123D01*
X160556604Y-50404782D01*
X160396829Y-50373000D01*
X160233925Y-50373000D01*
X160074150Y-50404782D01*
X159923646Y-50467123D01*
X159788196Y-50557628D01*
X159673005Y-50672819D01*
X159582500Y-50808269D01*
X159520159Y-50958773D01*
X159488377Y-51118548D01*
X159488377Y-51281452D01*
X159520159Y-51441227D01*
X159582500Y-51591731D01*
X159638377Y-51675357D01*
X159638378Y-55724642D01*
X159582500Y-55808269D01*
X159520159Y-55958773D01*
X159488377Y-56118548D01*
X159488377Y-56230955D01*
X158977000Y-55719578D01*
X158977000Y-51675357D01*
X159032877Y-51591731D01*
X159095218Y-51441227D01*
X159127000Y-51281452D01*
X159127000Y-51118548D01*
X159095218Y-50958773D01*
X159032877Y-50808269D01*
X158942372Y-50672819D01*
X158827181Y-50557628D01*
X158691731Y-50467123D01*
X158541227Y-50404782D01*
X158381452Y-50373000D01*
X158218548Y-50373000D01*
X158058773Y-50404782D01*
X157908269Y-50467123D01*
X157772819Y-50557628D01*
X157657628Y-50672819D01*
X157567123Y-50808269D01*
X157504782Y-50958773D01*
X157473000Y-51118548D01*
X147296224Y-51118548D01*
X147264442Y-50958773D01*
X147202101Y-50808269D01*
X147111596Y-50672819D01*
X146996405Y-50557628D01*
X146860955Y-50467123D01*
X146710451Y-50404782D01*
X146550676Y-50373000D01*
X146387772Y-50373000D01*
X146227997Y-50404782D01*
X146077493Y-50467123D01*
X145942043Y-50557628D01*
X145826852Y-50672819D01*
X145736347Y-50808269D01*
X145674006Y-50958773D01*
X145642224Y-51118548D01*
X145642224Y-51281452D01*
X145674006Y-51441227D01*
X145736347Y-51591731D01*
X145792225Y-51675358D01*
X145792224Y-55724643D01*
X145736347Y-55808269D01*
X145674006Y-55958773D01*
X145654384Y-56057418D01*
X145288802Y-56423000D01*
X133803493Y-56423000D01*
X133437911Y-56057418D01*
X133418289Y-55958773D01*
X133355948Y-55808269D01*
X133265443Y-55672819D01*
X133150252Y-55557628D01*
X133014802Y-55467123D01*
X132864298Y-55404782D01*
X132704523Y-55373000D01*
X132541619Y-55373000D01*
X132381844Y-55404782D01*
X132231340Y-55467123D01*
X132095890Y-55557628D01*
X131980699Y-55672819D01*
X131890194Y-55808269D01*
X131827853Y-55958773D01*
X131808231Y-56057418D01*
X131442649Y-56423000D01*
X119957340Y-56423000D01*
X119591758Y-56057418D01*
X119572136Y-55958773D01*
X119509795Y-55808269D01*
X119453918Y-55724643D01*
X119453918Y-51675357D01*
X119509795Y-51591731D01*
X119572136Y-51441227D01*
X119603918Y-51281452D01*
X119603918Y-51118548D01*
X119598946Y-51093548D01*
X124073034Y-51093548D01*
X124073034Y-51256452D01*
X124104816Y-51416227D01*
X124167157Y-51566731D01*
X124257662Y-51702181D01*
X124372853Y-51817372D01*
X124508303Y-51907877D01*
X124658807Y-51970218D01*
X124818582Y-52002000D01*
X124910806Y-52002000D01*
X124912066Y-52003034D01*
X124912068Y-52003036D01*
X124932013Y-52019404D01*
X124977918Y-52057078D01*
X125078157Y-52110656D01*
X125122815Y-52124203D01*
X125186921Y-52143650D01*
X125248004Y-52149665D01*
X125271697Y-52151999D01*
X125271701Y-52151999D01*
X125300032Y-52154789D01*
X125328363Y-52151999D01*
X143296670Y-52151999D01*
X143325001Y-52154789D01*
X143353332Y-52151999D01*
X143353337Y-52151999D01*
X143383046Y-52149073D01*
X143438112Y-52143650D01*
X143482771Y-52130102D01*
X143546877Y-52110656D01*
X143647116Y-52057078D01*
X143734975Y-51984973D01*
X143753040Y-51962961D01*
X145539001Y-50177000D01*
X196960999Y-50177000D01*
X197673000Y-50889001D01*
X197673000Y-50981452D01*
X197704782Y-51141227D01*
X197767123Y-51291731D01*
X197857628Y-51427181D01*
X197972819Y-51542372D01*
X198108269Y-51632877D01*
X198258773Y-51695218D01*
X198418548Y-51727000D01*
X198581452Y-51727000D01*
X198741227Y-51695218D01*
X198891731Y-51632877D01*
X199027181Y-51542372D01*
X199142372Y-51427181D01*
X199232877Y-51291731D01*
X199295218Y-51141227D01*
X199327000Y-50981452D01*
X199327000Y-50818548D01*
X199295218Y-50658773D01*
X199232877Y-50508269D01*
X199142372Y-50372819D01*
X199027181Y-50257628D01*
X198891731Y-50167123D01*
X198741227Y-50104782D01*
X198581452Y-50073000D01*
X198489001Y-50073000D01*
X198092990Y-49676989D01*
X210007440Y-49676989D01*
X210072823Y-49742372D01*
X210208273Y-49832877D01*
X210358777Y-49895218D01*
X210518552Y-49927000D01*
X210681456Y-49927000D01*
X210841231Y-49895218D01*
X210991735Y-49832877D01*
X211127185Y-49742372D01*
X211242376Y-49627181D01*
X211332881Y-49491731D01*
X211395222Y-49341227D01*
X211427004Y-49181452D01*
X211427004Y-49018548D01*
X211395222Y-48858773D01*
X211332881Y-48708269D01*
X211242376Y-48572819D01*
X211127185Y-48457628D01*
X210991735Y-48367123D01*
X210841231Y-48304782D01*
X210681456Y-48273000D01*
X210518552Y-48273000D01*
X210358777Y-48304782D01*
X210314822Y-48322989D01*
X138580412Y-48322989D01*
X137525960Y-47268537D01*
X155973000Y-47268537D01*
X155973000Y-47431441D01*
X156004782Y-47591216D01*
X156067123Y-47741720D01*
X156157628Y-47877170D01*
X156272819Y-47992361D01*
X156408269Y-48082866D01*
X156558773Y-48145207D01*
X156718548Y-48176989D01*
X156881452Y-48176989D01*
X157041227Y-48145207D01*
X157191731Y-48082866D01*
X157327181Y-47992361D01*
X157442372Y-47877170D01*
X157532877Y-47741720D01*
X157595218Y-47591216D01*
X157627000Y-47431441D01*
X157627000Y-47338990D01*
X162388991Y-42577000D01*
X168607433Y-42577000D01*
X168672805Y-42642372D01*
X168808255Y-42732877D01*
X168958759Y-42795218D01*
X169118534Y-42827000D01*
X169281438Y-42827000D01*
X169441213Y-42795218D01*
X169591717Y-42732877D01*
X169727167Y-42642372D01*
X169842358Y-42527181D01*
X169932863Y-42391731D01*
X169995204Y-42241227D01*
X170007891Y-42177444D01*
X170072819Y-42242372D01*
X170208269Y-42332877D01*
X170358773Y-42395218D01*
X170518548Y-42427000D01*
X170681452Y-42427000D01*
X170841227Y-42395218D01*
X170991731Y-42332877D01*
X171127181Y-42242372D01*
X171242372Y-42127181D01*
X171332877Y-41991731D01*
X171395218Y-41841227D01*
X171427000Y-41681452D01*
X171427000Y-41589001D01*
X175373000Y-37643001D01*
X175373000Y-37681452D01*
X175404782Y-37841227D01*
X175467123Y-37991731D01*
X175557628Y-38127181D01*
X175672819Y-38242372D01*
X175808269Y-38332877D01*
X175958773Y-38395218D01*
X176118548Y-38427000D01*
X176281452Y-38427000D01*
X176441227Y-38395218D01*
X176591731Y-38332877D01*
X176727181Y-38242372D01*
X176842372Y-38127181D01*
X176932877Y-37991731D01*
X176995218Y-37841227D01*
X177027000Y-37681452D01*
X177027000Y-37589001D01*
X177839043Y-36776959D01*
X179298645Y-36776959D01*
X179158773Y-36804782D01*
X179008269Y-36867123D01*
X178872819Y-36957628D01*
X178757628Y-37072819D01*
X178667123Y-37208269D01*
X178604782Y-37358773D01*
X178573000Y-37518548D01*
X178573000Y-37681452D01*
X178604782Y-37841227D01*
X178667123Y-37991731D01*
X178757628Y-38127181D01*
X178872819Y-38242372D01*
X179008269Y-38332877D01*
X179158773Y-38395218D01*
X179318548Y-38427000D01*
X179481452Y-38427000D01*
X179641227Y-38395218D01*
X179791731Y-38332877D01*
X179927181Y-38242372D01*
X179992553Y-38177000D01*
X180699877Y-38177000D01*
X180353888Y-38522989D01*
X176328339Y-38522989D01*
X176300010Y-38520199D01*
X176271681Y-38522989D01*
X176271675Y-38522989D01*
X176186899Y-38531339D01*
X176078135Y-38564332D01*
X175977896Y-38617910D01*
X175890037Y-38690015D01*
X175871974Y-38712025D01*
X173810999Y-40773000D01*
X173718548Y-40773000D01*
X173558773Y-40804782D01*
X173408269Y-40867123D01*
X173272819Y-40957628D01*
X173157628Y-41072819D01*
X173067123Y-41208269D01*
X173004782Y-41358773D01*
X172973000Y-41518548D01*
X172973000Y-41681452D01*
X173004782Y-41841227D01*
X173067123Y-41991731D01*
X173157628Y-42127181D01*
X173272819Y-42242372D01*
X173408269Y-42332877D01*
X173558773Y-42395218D01*
X173718548Y-42427000D01*
X173881452Y-42427000D01*
X174041227Y-42395218D01*
X174191731Y-42332877D01*
X174327181Y-42242372D01*
X174442372Y-42127181D01*
X174532877Y-41991731D01*
X174595218Y-41841227D01*
X174627000Y-41681452D01*
X174627000Y-41589001D01*
X176539012Y-39676989D01*
X179907010Y-39676989D01*
X178560999Y-41023000D01*
X177592553Y-41023000D01*
X177527181Y-40957628D01*
X177391731Y-40867123D01*
X177241227Y-40804782D01*
X177081452Y-40773000D01*
X176918548Y-40773000D01*
X176758773Y-40804782D01*
X176608269Y-40867123D01*
X176472819Y-40957628D01*
X176357628Y-41072819D01*
X176267123Y-41208269D01*
X176204782Y-41358773D01*
X176173000Y-41518548D01*
X176173000Y-41681452D01*
X176204782Y-41841227D01*
X176267123Y-41991731D01*
X176357628Y-42127181D01*
X176472819Y-42242372D01*
X176608269Y-42332877D01*
X176758773Y-42395218D01*
X176918548Y-42427000D01*
X177081452Y-42427000D01*
X177241227Y-42395218D01*
X177391731Y-42332877D01*
X177527181Y-42242372D01*
X177592553Y-42177000D01*
X178771669Y-42177000D01*
X178800000Y-42179790D01*
X178828331Y-42177000D01*
X178828336Y-42177000D01*
X178858045Y-42174074D01*
X178913111Y-42168651D01*
X178957770Y-42155103D01*
X179021876Y-42135657D01*
X179122115Y-42082079D01*
X179209974Y-42009974D01*
X179228039Y-41987962D01*
X185325980Y-35890021D01*
X185347992Y-35871956D01*
X185420097Y-35784097D01*
X185473675Y-35683858D01*
X185506668Y-35575094D01*
X185515018Y-35490318D01*
X185515018Y-35490312D01*
X185517808Y-35461983D01*
X185515018Y-35433654D01*
X185515018Y-35042499D01*
X185580390Y-34977127D01*
X185670895Y-34841677D01*
X185733236Y-34691173D01*
X185765018Y-34531398D01*
X185765018Y-34368494D01*
X185733236Y-34208719D01*
X185670895Y-34058215D01*
X185580390Y-33922765D01*
X185465199Y-33807574D01*
X185329749Y-33717069D01*
X185179245Y-33654728D01*
X185019470Y-33622946D01*
X184856566Y-33622946D01*
X184696791Y-33654728D01*
X184546287Y-33717069D01*
X184410837Y-33807574D01*
X184295646Y-33922765D01*
X184205141Y-34058215D01*
X184185686Y-34105184D01*
X184124870Y-34093087D01*
X183961966Y-34093087D01*
X183802191Y-34124869D01*
X183651687Y-34187210D01*
X183516237Y-34277715D01*
X183401046Y-34392906D01*
X183310541Y-34528356D01*
X183288256Y-34582158D01*
X183248191Y-34574188D01*
X183085287Y-34574188D01*
X183036784Y-34583836D01*
X183028695Y-34581382D01*
X182973629Y-34575959D01*
X182943920Y-34573033D01*
X182943915Y-34573033D01*
X182915584Y-34570243D01*
X182887253Y-34573033D01*
X177078298Y-34573033D01*
X177049967Y-34570243D01*
X177021636Y-34573033D01*
X177021631Y-34573033D01*
X176994853Y-34575670D01*
X176936855Y-34581382D01*
X176872749Y-34600829D01*
X176828091Y-34614376D01*
X176727852Y-34667954D01*
X176639993Y-34740059D01*
X176621928Y-34762071D01*
X170610999Y-40773000D01*
X170518548Y-40773000D01*
X170358773Y-40804782D01*
X170208269Y-40867123D01*
X170072819Y-40957628D01*
X169957628Y-41072819D01*
X169867123Y-41208269D01*
X169804782Y-41358773D01*
X169792095Y-41422556D01*
X169727167Y-41357628D01*
X169591717Y-41267123D01*
X169441213Y-41204782D01*
X169281438Y-41173000D01*
X169118534Y-41173000D01*
X168958759Y-41204782D01*
X168808255Y-41267123D01*
X168672805Y-41357628D01*
X168607433Y-41423000D01*
X162178319Y-41423000D01*
X162149988Y-41420210D01*
X162121657Y-41423000D01*
X162121653Y-41423000D01*
X162097960Y-41425334D01*
X162036877Y-41431349D01*
X161972771Y-41450796D01*
X161928113Y-41464343D01*
X161827874Y-41517921D01*
X161799476Y-41541227D01*
X161762024Y-41571963D01*
X161762022Y-41571965D01*
X161740015Y-41590026D01*
X161721954Y-41612033D01*
X156810999Y-46522989D01*
X156718548Y-46522989D01*
X156558773Y-46554771D01*
X156408269Y-46617112D01*
X156272819Y-46707617D01*
X156157628Y-46822808D01*
X156067123Y-46958258D01*
X156004782Y-47108762D01*
X155973000Y-47268537D01*
X137525960Y-47268537D01*
X134599591Y-44342169D01*
X134686888Y-44368650D01*
X134771664Y-44377000D01*
X134771670Y-44377000D01*
X134799999Y-44379790D01*
X134828328Y-44377000D01*
X146591669Y-44377000D01*
X146620000Y-44379790D01*
X146648331Y-44377000D01*
X146648336Y-44377000D01*
X146678045Y-44374074D01*
X146733111Y-44368651D01*
X146777770Y-44355103D01*
X146841876Y-44335657D01*
X146942115Y-44282079D01*
X147029974Y-44209974D01*
X147048039Y-44187962D01*
X148722209Y-42513792D01*
X148869664Y-42558522D01*
X149057274Y-42577000D01*
X149182726Y-42577000D01*
X149370336Y-42558522D01*
X149611051Y-42485502D01*
X149832896Y-42366924D01*
X150027344Y-42207344D01*
X150186924Y-42012896D01*
X150305502Y-41791051D01*
X150378522Y-41550336D01*
X150403178Y-41300000D01*
X150378522Y-41049664D01*
X150305502Y-40808949D01*
X150186924Y-40587104D01*
X150027344Y-40392656D01*
X149832896Y-40233076D01*
X149611051Y-40114498D01*
X149370336Y-40041478D01*
X149182726Y-40023000D01*
X149057274Y-40023000D01*
X148869664Y-40041478D01*
X148628949Y-40114498D01*
X148407104Y-40233076D01*
X148212656Y-40392656D01*
X148053076Y-40587104D01*
X147934498Y-40808949D01*
X147861478Y-41049664D01*
X147850000Y-41166202D01*
X147838522Y-41049664D01*
X147765502Y-40808949D01*
X147646924Y-40587104D01*
X147487344Y-40392656D01*
X147292896Y-40233076D01*
X147071051Y-40114498D01*
X146830336Y-40041478D01*
X146642726Y-40023000D01*
X146517274Y-40023000D01*
X146329664Y-40041478D01*
X146088949Y-40114498D01*
X145867104Y-40233076D01*
X145672656Y-40392656D01*
X145513076Y-40587104D01*
X145394498Y-40808949D01*
X145321478Y-41049664D01*
X145310000Y-41166202D01*
X145298522Y-41049664D01*
X145225502Y-40808949D01*
X145106924Y-40587104D01*
X144947344Y-40392656D01*
X144752896Y-40233076D01*
X144531051Y-40114498D01*
X144290336Y-40041478D01*
X144102726Y-40023000D01*
X143977274Y-40023000D01*
X143789664Y-40041478D01*
X143548949Y-40114498D01*
X143327104Y-40233076D01*
X143132656Y-40392656D01*
X142973076Y-40587104D01*
X142854498Y-40808949D01*
X142781478Y-41049664D01*
X142779066Y-41074153D01*
X142779066Y-40450000D01*
X142770822Y-40366293D01*
X142746405Y-40285804D01*
X142706755Y-40211624D01*
X142653395Y-40146605D01*
X142588376Y-40093245D01*
X142514196Y-40053595D01*
X142433707Y-40029178D01*
X142350000Y-40020934D01*
X140650000Y-40020934D01*
X140566293Y-40029178D01*
X140485804Y-40053595D01*
X140411624Y-40093245D01*
X140346605Y-40146605D01*
X140293245Y-40211624D01*
X140253595Y-40285804D01*
X140229178Y-40366293D01*
X140220934Y-40450000D01*
X140220934Y-40723000D01*
X129792553Y-40723000D01*
X129727181Y-40657628D01*
X129591731Y-40567123D01*
X129441227Y-40504782D01*
X129281452Y-40473000D01*
X129118548Y-40473000D01*
X128958773Y-40504782D01*
X128808269Y-40567123D01*
X128672819Y-40657628D01*
X128557628Y-40772819D01*
X128467123Y-40908269D01*
X128404782Y-41058773D01*
X128373000Y-41218548D01*
X128373000Y-41381452D01*
X128404782Y-41541227D01*
X128467123Y-41691731D01*
X128557628Y-41827181D01*
X128672819Y-41942372D01*
X128808269Y-42032877D01*
X128958773Y-42095218D01*
X129118548Y-42127000D01*
X129281452Y-42127000D01*
X129441227Y-42095218D01*
X129591731Y-42032877D01*
X129727181Y-41942372D01*
X129792553Y-41877000D01*
X133505898Y-41877000D01*
X133490026Y-41890026D01*
X133471961Y-41912038D01*
X132710999Y-42673000D01*
X132618548Y-42673000D01*
X132458773Y-42704782D01*
X132308269Y-42767123D01*
X132172819Y-42857628D01*
X132057628Y-42972819D01*
X131967123Y-43108269D01*
X131904782Y-43258773D01*
X131873000Y-43418548D01*
X131873000Y-43581452D01*
X131904782Y-43741227D01*
X131967123Y-43891731D01*
X132057628Y-44027181D01*
X132172819Y-44142372D01*
X132308269Y-44232877D01*
X132458773Y-44295218D01*
X132618548Y-44327000D01*
X132781452Y-44327000D01*
X132823000Y-44318735D01*
X132823000Y-44431452D01*
X132854782Y-44591227D01*
X132917123Y-44741731D01*
X133007628Y-44877181D01*
X133122819Y-44992372D01*
X133258269Y-45082877D01*
X133408773Y-45145218D01*
X133507418Y-45164840D01*
X137797767Y-49455190D01*
X137818962Y-49481016D01*
X137844788Y-49502211D01*
X137844790Y-49502213D01*
X137922048Y-49565617D01*
X138039659Y-49628481D01*
X138167274Y-49667193D01*
X138299989Y-49680264D01*
X138333241Y-49676989D01*
X144407010Y-49676989D01*
X143086000Y-50997999D01*
X125708028Y-50997999D01*
X125695252Y-50933773D01*
X125632911Y-50783269D01*
X125542406Y-50647819D01*
X125427215Y-50532628D01*
X125291765Y-50442123D01*
X125141261Y-50379782D01*
X124981486Y-50348000D01*
X124818582Y-50348000D01*
X124658807Y-50379782D01*
X124508303Y-50442123D01*
X124372853Y-50532628D01*
X124257662Y-50647819D01*
X124167157Y-50783269D01*
X124104816Y-50933773D01*
X124073034Y-51093548D01*
X119598946Y-51093548D01*
X119572136Y-50958773D01*
X119509795Y-50808269D01*
X119419290Y-50672819D01*
X119304099Y-50557628D01*
X119168649Y-50467123D01*
X119018145Y-50404782D01*
X118858370Y-50373000D01*
X118695466Y-50373000D01*
X118535691Y-50404782D01*
X118385187Y-50467123D01*
X118249737Y-50557628D01*
X118134546Y-50672819D01*
X118044041Y-50808269D01*
X117981700Y-50958773D01*
X117949918Y-51118548D01*
X117949918Y-51281452D01*
X117981700Y-51441227D01*
X118044041Y-51591731D01*
X118099918Y-51675357D01*
X118099919Y-55724642D01*
X118044041Y-55808269D01*
X117981700Y-55958773D01*
X117949918Y-56118548D01*
X117949918Y-56192496D01*
X117477000Y-55719578D01*
X117477000Y-51675357D01*
X117532877Y-51591731D01*
X117595218Y-51441227D01*
X117627000Y-51281452D01*
X117627000Y-51118548D01*
X117595218Y-50958773D01*
X117532877Y-50808269D01*
X117442372Y-50672819D01*
X117327181Y-50557628D01*
X117191731Y-50467123D01*
X117041227Y-50404782D01*
X116881452Y-50373000D01*
X116718548Y-50373000D01*
X116558773Y-50404782D01*
X116408269Y-50467123D01*
X116272819Y-50557628D01*
X116157628Y-50672819D01*
X116067123Y-50808269D01*
X116004782Y-50958773D01*
X115973000Y-51118548D01*
X105757765Y-51118548D01*
X105725983Y-50958773D01*
X105663642Y-50808269D01*
X105573137Y-50672819D01*
X105457946Y-50557628D01*
X105322496Y-50467123D01*
X105171992Y-50404782D01*
X105012217Y-50373000D01*
X104849313Y-50373000D01*
X104689538Y-50404782D01*
X104539034Y-50467123D01*
X104403584Y-50557628D01*
X104288393Y-50672819D01*
X104197888Y-50808269D01*
X104135547Y-50958773D01*
X104103765Y-51118548D01*
X91911612Y-51118548D01*
X91879830Y-50958773D01*
X91817489Y-50808269D01*
X91726984Y-50672819D01*
X91611793Y-50557628D01*
X91476343Y-50467123D01*
X91325839Y-50404782D01*
X91166064Y-50373000D01*
X91003160Y-50373000D01*
X90843385Y-50404782D01*
X90692881Y-50467123D01*
X90557431Y-50557628D01*
X90442240Y-50672819D01*
X90351735Y-50808269D01*
X90289394Y-50958773D01*
X90257612Y-51118548D01*
X78065459Y-51118548D01*
X78033677Y-50958773D01*
X77971336Y-50808269D01*
X77880831Y-50672819D01*
X77765640Y-50557628D01*
X77630190Y-50467123D01*
X77479686Y-50404782D01*
X77319911Y-50373000D01*
X77157007Y-50373000D01*
X76997232Y-50404782D01*
X76846728Y-50467123D01*
X76711278Y-50557628D01*
X76596087Y-50672819D01*
X76505582Y-50808269D01*
X76443241Y-50958773D01*
X76411459Y-51118548D01*
X76411459Y-51281452D01*
X76443241Y-51441227D01*
X76505582Y-51591731D01*
X76561460Y-51675358D01*
X76561459Y-55724643D01*
X76505582Y-55808269D01*
X76443241Y-55958773D01*
X76411459Y-56118548D01*
X76411459Y-56254037D01*
X75977000Y-55819578D01*
X75977000Y-51675357D01*
X76032877Y-51591731D01*
X76095218Y-51441227D01*
X76127000Y-51281452D01*
X76127000Y-51118548D01*
X76095218Y-50958773D01*
X76032877Y-50808269D01*
X75942372Y-50672819D01*
X75827181Y-50557628D01*
X75691731Y-50467123D01*
X75541227Y-50404782D01*
X75381452Y-50373000D01*
X75218548Y-50373000D01*
X75058773Y-50404782D01*
X74908269Y-50467123D01*
X74772819Y-50557628D01*
X74657628Y-50672819D01*
X74567123Y-50808269D01*
X74504782Y-50958773D01*
X74473000Y-51118548D01*
X64219306Y-51118548D01*
X64187524Y-50958773D01*
X64125183Y-50808269D01*
X64034678Y-50672819D01*
X63919487Y-50557628D01*
X63784037Y-50467123D01*
X63633533Y-50404782D01*
X63473758Y-50373000D01*
X63310854Y-50373000D01*
X63151079Y-50404782D01*
X63000575Y-50467123D01*
X62865125Y-50557628D01*
X62749934Y-50672819D01*
X62659429Y-50808269D01*
X62597088Y-50958773D01*
X62565306Y-51118548D01*
X50373153Y-51118548D01*
X50341371Y-50958773D01*
X50279030Y-50808269D01*
X50188525Y-50672819D01*
X50073334Y-50557628D01*
X49937884Y-50467123D01*
X49787380Y-50404782D01*
X49627605Y-50373000D01*
X49464701Y-50373000D01*
X49304926Y-50404782D01*
X49154422Y-50467123D01*
X49018972Y-50557628D01*
X48903781Y-50672819D01*
X48813276Y-50808269D01*
X48750935Y-50958773D01*
X48719153Y-51118548D01*
X48348136Y-51118548D01*
X48432873Y-50991731D01*
X48495214Y-50841227D01*
X48526996Y-50681452D01*
X48526996Y-50518548D01*
X48495214Y-50358773D01*
X48432873Y-50208269D01*
X48342368Y-50072819D01*
X48227177Y-49957628D01*
X48091727Y-49867123D01*
X47941223Y-49804782D01*
X47781448Y-49773000D01*
X47618544Y-49773000D01*
X47458769Y-49804782D01*
X47308265Y-49867123D01*
X47172815Y-49957628D01*
X47057624Y-50072819D01*
X46967119Y-50208269D01*
X46904778Y-50358773D01*
X46885155Y-50457422D01*
X44519578Y-52823000D01*
X40233244Y-52823000D01*
X40199999Y-52819726D01*
X40166754Y-52823000D01*
X40166748Y-52823000D01*
X40067285Y-52832796D01*
X39939670Y-52871508D01*
X39822059Y-52934372D01*
X39748352Y-52994862D01*
X39767204Y-52932715D01*
X39777000Y-52833252D01*
X39777000Y-52833243D01*
X39780274Y-52800001D01*
X39777000Y-52766759D01*
X39777000Y-51675357D01*
X39832877Y-51591731D01*
X39895218Y-51441227D01*
X39927000Y-51281452D01*
X39927000Y-51118548D01*
X39895218Y-50958773D01*
X39832877Y-50808269D01*
X39742372Y-50672819D01*
X39627181Y-50557628D01*
X39491731Y-50467123D01*
X39341227Y-50404782D01*
X39181452Y-50373000D01*
X39018548Y-50373000D01*
X38858773Y-50404782D01*
X38708269Y-50467123D01*
X38572819Y-50557628D01*
X38457628Y-50672819D01*
X38367123Y-50808269D01*
X38304782Y-50958773D01*
X38273000Y-51118548D01*
X38273000Y-51281452D01*
X38304782Y-51441227D01*
X38367123Y-51591731D01*
X38423001Y-51675358D01*
X38423000Y-52519578D01*
X35557418Y-55385160D01*
X35458773Y-55404782D01*
X35308269Y-55467123D01*
X35172819Y-55557628D01*
X35057628Y-55672819D01*
X34967123Y-55808269D01*
X34904782Y-55958773D01*
X34873000Y-56118548D01*
X30527000Y-56118548D01*
X30527000Y-30852606D01*
X30852606Y-30527000D01*
X200259364Y-30527000D01*
X200235830Y-30583817D01*
X200235830Y-30583817D01*
G37*
X200235830Y-30583817D02*
X200181452Y-30573000D01*
X200018548Y-30573000D01*
X199858773Y-30604782D01*
X199708269Y-30667123D01*
X199572819Y-30757628D01*
X199457628Y-30872819D01*
X199367123Y-31008269D01*
X199322262Y-31116573D01*
X199289110Y-31109978D01*
X199126206Y-31109978D01*
X198966431Y-31141760D01*
X198815927Y-31204101D01*
X198680477Y-31294606D01*
X198565286Y-31409797D01*
X198474781Y-31545247D01*
X198412440Y-31695751D01*
X198380658Y-31855526D01*
X198380658Y-32018430D01*
X198412440Y-32178205D01*
X198414018Y-32182015D01*
X198391731Y-32167123D01*
X198241227Y-32104782D01*
X198081452Y-32073000D01*
X197918548Y-32073000D01*
X197758773Y-32104782D01*
X197608269Y-32167123D01*
X197472819Y-32257628D01*
X197357628Y-32372819D01*
X197267123Y-32508269D01*
X197228218Y-32602194D01*
X197081452Y-32573000D01*
X196918548Y-32573000D01*
X196758773Y-32604782D01*
X196608269Y-32667123D01*
X196472819Y-32757628D01*
X196357628Y-32872819D01*
X196267123Y-33008269D01*
X196228217Y-33102195D01*
X196081446Y-33073000D01*
X195918542Y-33073000D01*
X195868433Y-33082967D01*
X195863108Y-33081352D01*
X195808042Y-33075929D01*
X195778333Y-33073003D01*
X195778328Y-33073003D01*
X195749997Y-33070213D01*
X195721666Y-33073003D01*
X193078325Y-33073003D01*
X193049996Y-33070213D01*
X193021667Y-33073003D01*
X193021661Y-33073003D01*
X192936885Y-33081353D01*
X192828121Y-33114346D01*
X192727882Y-33167924D01*
X192640023Y-33240029D01*
X192621958Y-33262041D01*
X188860999Y-37023000D01*
X188192553Y-37023000D01*
X188127181Y-36957628D01*
X187991731Y-36867123D01*
X187841227Y-36804782D01*
X187681452Y-36773000D01*
X187518548Y-36773000D01*
X187358773Y-36804782D01*
X187208269Y-36867123D01*
X187072819Y-36957628D01*
X186957628Y-37072819D01*
X186867123Y-37208269D01*
X186804782Y-37358773D01*
X186773000Y-37518548D01*
X186773000Y-37681452D01*
X186804782Y-37841227D01*
X186867123Y-37991731D01*
X186957628Y-38127181D01*
X187072819Y-38242372D01*
X187208269Y-38332877D01*
X187358773Y-38395218D01*
X187518548Y-38427000D01*
X187681452Y-38427000D01*
X187841227Y-38395218D01*
X187991731Y-38332877D01*
X188127181Y-38242372D01*
X188192553Y-38177000D01*
X189071669Y-38177000D01*
X189100000Y-38179790D01*
X189128331Y-38177000D01*
X189128336Y-38177000D01*
X189158045Y-38174074D01*
X189213111Y-38168651D01*
X189257770Y-38155103D01*
X189321876Y-38135657D01*
X189422115Y-38082079D01*
X189509974Y-38009974D01*
X189528039Y-37987962D01*
X189973000Y-37543001D01*
X189973000Y-37681452D01*
X190004782Y-37841227D01*
X190067123Y-37991731D01*
X190157628Y-38127181D01*
X190272819Y-38242372D01*
X190408269Y-38332877D01*
X190558773Y-38395218D01*
X190718548Y-38427000D01*
X190881452Y-38427000D01*
X191041227Y-38395218D01*
X191191731Y-38332877D01*
X191327181Y-38242372D01*
X191392553Y-38177000D01*
X193337354Y-38177000D01*
X193365685Y-38179790D01*
X193394016Y-38177000D01*
X193394021Y-38177000D01*
X193423730Y-38174074D01*
X193478796Y-38168651D01*
X193523455Y-38155103D01*
X193587561Y-38135657D01*
X193687800Y-38082079D01*
X193775659Y-38009974D01*
X193793724Y-37987962D01*
X197387962Y-34393724D01*
X197409974Y-34375659D01*
X197423000Y-34359787D01*
X197423001Y-37260997D01*
X197160999Y-37523000D01*
X196492561Y-37523000D01*
X196427181Y-37457620D01*
X196291731Y-37367115D01*
X196141227Y-37304774D01*
X195981452Y-37272992D01*
X195818548Y-37272992D01*
X195658773Y-37304774D01*
X195508269Y-37367115D01*
X195372819Y-37457620D01*
X195257628Y-37572811D01*
X195167123Y-37708261D01*
X195104782Y-37858765D01*
X195073000Y-38018540D01*
X195073000Y-38181444D01*
X195104782Y-38341219D01*
X195167123Y-38491723D01*
X195254826Y-38622980D01*
X187628351Y-38622980D01*
X187600020Y-38620190D01*
X187571689Y-38622980D01*
X187571684Y-38622980D01*
X187544906Y-38625617D01*
X187486908Y-38631329D01*
X187422802Y-38650776D01*
X187378144Y-38664323D01*
X187277905Y-38717901D01*
X187190046Y-38790006D01*
X187171983Y-38812016D01*
X185210999Y-40773000D01*
X185118548Y-40773000D01*
X184958773Y-40804782D01*
X184808269Y-40867123D01*
X184672819Y-40957628D01*
X184557628Y-41072819D01*
X184467123Y-41208269D01*
X184404782Y-41358773D01*
X184373000Y-41518548D01*
X184373000Y-41681452D01*
X184404782Y-41841227D01*
X184467123Y-41991731D01*
X184557628Y-42127181D01*
X184672819Y-42242372D01*
X184808269Y-42332877D01*
X184958773Y-42395218D01*
X185118548Y-42427000D01*
X185281452Y-42427000D01*
X185441227Y-42395218D01*
X185591731Y-42332877D01*
X185727181Y-42242372D01*
X185842372Y-42127181D01*
X185932877Y-41991731D01*
X185995218Y-41841227D01*
X186027000Y-41681452D01*
X186027000Y-41589001D01*
X187839021Y-39776980D01*
X189457029Y-39776980D01*
X188461009Y-40773000D01*
X188368558Y-40773000D01*
X188208783Y-40804782D01*
X188058279Y-40867123D01*
X187922829Y-40957628D01*
X187807638Y-41072819D01*
X187717133Y-41208269D01*
X187654792Y-41358773D01*
X187623010Y-41518548D01*
X187623010Y-41681452D01*
X187654792Y-41841227D01*
X187717133Y-41991731D01*
X187807638Y-42127181D01*
X187922829Y-42242372D01*
X188058279Y-42332877D01*
X188208783Y-42395218D01*
X188368558Y-42427000D01*
X188531462Y-42427000D01*
X188691237Y-42395218D01*
X188841741Y-42332877D01*
X188977191Y-42242372D01*
X189092382Y-42127181D01*
X189182887Y-41991731D01*
X189245228Y-41841227D01*
X189277010Y-41681452D01*
X189277010Y-41589001D01*
X190589022Y-40276989D01*
X192157019Y-40276989D01*
X191661009Y-40773000D01*
X191568558Y-40773000D01*
X191408783Y-40804782D01*
X191258279Y-40867123D01*
X191122829Y-40957628D01*
X191007638Y-41072819D01*
X190917133Y-41208269D01*
X190854792Y-41358773D01*
X190823010Y-41518548D01*
X190823010Y-41681452D01*
X190854792Y-41841227D01*
X190917133Y-41991731D01*
X191007638Y-42127181D01*
X191122829Y-42242372D01*
X191258279Y-42332877D01*
X191408783Y-42395218D01*
X191568558Y-42427000D01*
X191731462Y-42427000D01*
X191891237Y-42395218D01*
X192041741Y-42332877D01*
X192177191Y-42242372D01*
X192292382Y-42127181D01*
X192382887Y-41991731D01*
X192445228Y-41841227D01*
X192477010Y-41681452D01*
X192477010Y-41589001D01*
X192766011Y-41300000D01*
X210556822Y-41300000D01*
X210581478Y-41550336D01*
X210654498Y-41791051D01*
X210773076Y-42012896D01*
X210932656Y-42207344D01*
X211127104Y-42366924D01*
X211348949Y-42485502D01*
X211589664Y-42558522D01*
X211777274Y-42577000D01*
X211902726Y-42577000D01*
X212090336Y-42558522D01*
X212331051Y-42485502D01*
X212552896Y-42366924D01*
X212747344Y-42207344D01*
X212906924Y-42012896D01*
X213025502Y-41791051D01*
X213098522Y-41550336D01*
X213110000Y-41433798D01*
X213121478Y-41550336D01*
X213194498Y-41791051D01*
X213313076Y-42012896D01*
X213472656Y-42207344D01*
X213667104Y-42366924D01*
X213888949Y-42485502D01*
X214129664Y-42558522D01*
X214317274Y-42577000D01*
X214442726Y-42577000D01*
X214630336Y-42558522D01*
X214669285Y-42546707D01*
X215023001Y-42900424D01*
X215023000Y-50724643D01*
X214967123Y-50808269D01*
X214904782Y-50958773D01*
X214873000Y-51118548D01*
X214873000Y-51281452D01*
X214904782Y-51441227D01*
X214967123Y-51591731D01*
X215023000Y-51675357D01*
X215023001Y-55724642D01*
X214967123Y-55808269D01*
X214904782Y-55958773D01*
X214873000Y-56118548D01*
X214873000Y-56281452D01*
X214904782Y-56441227D01*
X214967123Y-56591731D01*
X215057628Y-56727181D01*
X215172819Y-56842372D01*
X215308269Y-56932877D01*
X215458773Y-56995218D01*
X215618548Y-57027000D01*
X215781452Y-57027000D01*
X215941227Y-56995218D01*
X216091731Y-56932877D01*
X216227181Y-56842372D01*
X216342372Y-56727181D01*
X216432877Y-56591731D01*
X216495218Y-56441227D01*
X216527000Y-56281452D01*
X216527000Y-56118548D01*
X216495218Y-55958773D01*
X216432877Y-55808269D01*
X216377000Y-55724643D01*
X216377000Y-51675357D01*
X216432877Y-51591731D01*
X216495218Y-51441227D01*
X216527000Y-51281452D01*
X216527000Y-51118548D01*
X216495218Y-50958773D01*
X216432877Y-50808269D01*
X216377000Y-50724643D01*
X216377000Y-42653245D01*
X216380274Y-42620000D01*
X216377000Y-42586755D01*
X216377000Y-42586748D01*
X216367204Y-42487285D01*
X216328492Y-42359670D01*
X216265628Y-42242059D01*
X216212235Y-42177000D01*
X216202224Y-42164801D01*
X216202222Y-42164799D01*
X216181027Y-42138973D01*
X216155201Y-42117778D01*
X215626707Y-41589285D01*
X215638522Y-41550336D01*
X215663178Y-41300000D01*
X215638522Y-41049664D01*
X215565502Y-40808949D01*
X215446924Y-40587104D01*
X215287344Y-40392656D01*
X215092896Y-40233076D01*
X214871051Y-40114498D01*
X214630336Y-40041478D01*
X214442726Y-40023000D01*
X214317274Y-40023000D01*
X214129664Y-40041478D01*
X213888949Y-40114498D01*
X213667104Y-40233076D01*
X213472656Y-40392656D01*
X213313076Y-40587104D01*
X213194498Y-40808949D01*
X213121478Y-41049664D01*
X213110000Y-41166202D01*
X213098522Y-41049664D01*
X213025502Y-40808949D01*
X212906924Y-40587104D01*
X212747344Y-40392656D01*
X212552896Y-40233076D01*
X212331051Y-40114498D01*
X212090336Y-40041478D01*
X211902726Y-40023000D01*
X211777274Y-40023000D01*
X211589664Y-40041478D01*
X211348949Y-40114498D01*
X211127104Y-40233076D01*
X210932656Y-40392656D01*
X210773076Y-40587104D01*
X210654498Y-40808949D01*
X210581478Y-41049664D01*
X210556822Y-41300000D01*
X192766011Y-41300000D01*
X193289012Y-40777000D01*
X198385913Y-40777000D01*
X198414244Y-40779790D01*
X198442575Y-40777000D01*
X198442580Y-40777000D01*
X198472289Y-40774074D01*
X198527355Y-40768651D01*
X198572014Y-40755103D01*
X198636120Y-40735657D01*
X198736359Y-40682079D01*
X198824218Y-40609974D01*
X198842283Y-40587962D01*
X201387967Y-38042279D01*
X201409974Y-38024218D01*
X201436134Y-37992343D01*
X201444557Y-37982079D01*
X201482079Y-37936359D01*
X201535657Y-37836120D01*
X201568650Y-37727356D01*
X201577000Y-37642580D01*
X201577000Y-37642574D01*
X201579790Y-37614245D01*
X201577000Y-37585916D01*
X201577000Y-31492553D01*
X201642372Y-31427181D01*
X201732877Y-31291731D01*
X201795218Y-31141227D01*
X201827000Y-30981452D01*
X201827000Y-30818548D01*
X201795218Y-30658773D01*
X201740636Y-30527000D01*
X234147394Y-30527000D01*
X234473000Y-30852606D01*
X234473000Y-59147394D01*
X234147394Y-59473000D01*
X30852606Y-59473000D01*
X30527000Y-59147394D01*
X30527000Y-56118548D01*
X34873000Y-56118548D01*
X34873000Y-56281452D01*
X34904782Y-56441227D01*
X34967123Y-56591731D01*
X35057628Y-56727181D01*
X35172819Y-56842372D01*
X35308269Y-56932877D01*
X35458773Y-56995218D01*
X35618548Y-57027000D01*
X35715578Y-57027000D01*
X35557418Y-57185160D01*
X35458773Y-57204782D01*
X35308269Y-57267123D01*
X35172819Y-57357628D01*
X35057628Y-57472819D01*
X34967123Y-57608269D01*
X34904782Y-57758773D01*
X34873000Y-57918548D01*
X34873000Y-58081452D01*
X34904782Y-58241227D01*
X34967123Y-58391731D01*
X35057628Y-58527181D01*
X35172819Y-58642372D01*
X35308269Y-58732877D01*
X35458773Y-58795218D01*
X35618548Y-58827000D01*
X35781452Y-58827000D01*
X35941227Y-58795218D01*
X36091731Y-58732877D01*
X36227181Y-58642372D01*
X36342372Y-58527181D01*
X36432877Y-58391731D01*
X36495218Y-58241227D01*
X36514840Y-58142582D01*
X40480422Y-54177000D01*
X44766755Y-54177000D01*
X44800000Y-54180274D01*
X44833245Y-54177000D01*
X44833252Y-54177000D01*
X44932715Y-54167204D01*
X45060330Y-54128492D01*
X45177941Y-54065628D01*
X45281027Y-53981027D01*
X45302226Y-53955196D01*
X47842584Y-51414839D01*
X47941223Y-51395218D01*
X48091727Y-51332877D01*
X48227177Y-51242372D01*
X48342368Y-51127181D01*
X48348136Y-51118548D01*
X48719153Y-51118548D01*
X48719153Y-51281452D01*
X48750935Y-51441227D01*
X48813276Y-51591731D01*
X48869154Y-51675358D01*
X48869153Y-55724643D01*
X48813276Y-55808269D01*
X48750935Y-55958773D01*
X48719153Y-56118548D01*
X48719153Y-56281452D01*
X48750935Y-56441227D01*
X48813276Y-56591731D01*
X48903781Y-56727181D01*
X49018972Y-56842372D01*
X49154422Y-56932877D01*
X49304926Y-56995218D01*
X49464701Y-57027000D01*
X49627605Y-57027000D01*
X49787380Y-56995218D01*
X49937884Y-56932877D01*
X50073334Y-56842372D01*
X50188525Y-56727181D01*
X50279030Y-56591731D01*
X50341371Y-56441227D01*
X50373153Y-56281452D01*
X50373153Y-56118548D01*
X50341371Y-55958773D01*
X50279030Y-55808269D01*
X50223153Y-55724643D01*
X50223153Y-51675357D01*
X50279030Y-51591731D01*
X50341371Y-51441227D01*
X50373153Y-51281452D01*
X50373153Y-51118548D01*
X62565306Y-51118548D01*
X62565306Y-51281452D01*
X62597088Y-51441227D01*
X62659429Y-51591731D01*
X62715306Y-51675357D01*
X62715307Y-55724642D01*
X62659429Y-55808269D01*
X62597088Y-55958773D01*
X62565306Y-56118548D01*
X62565306Y-56281452D01*
X62597088Y-56441227D01*
X62659429Y-56591731D01*
X62749934Y-56727181D01*
X62865125Y-56842372D01*
X63000575Y-56932877D01*
X63151079Y-56995218D01*
X63310854Y-57027000D01*
X63473758Y-57027000D01*
X63633533Y-56995218D01*
X63784037Y-56932877D01*
X63919487Y-56842372D01*
X64034678Y-56727181D01*
X64125183Y-56591731D01*
X64187524Y-56441227D01*
X64219306Y-56281452D01*
X64219306Y-56118548D01*
X64187524Y-55958773D01*
X64125183Y-55808269D01*
X64069306Y-55724643D01*
X64069306Y-51675357D01*
X64125183Y-51591731D01*
X64187524Y-51441227D01*
X64219306Y-51281452D01*
X64219306Y-51118548D01*
X74473000Y-51118548D01*
X74473000Y-51281452D01*
X74504782Y-51441227D01*
X74567123Y-51591731D01*
X74623001Y-51675358D01*
X74623000Y-56066755D01*
X74619726Y-56100000D01*
X74623000Y-56133245D01*
X74623000Y-56133251D01*
X74632796Y-56232714D01*
X74671508Y-56360329D01*
X74734372Y-56477940D01*
X74818973Y-56581026D01*
X74844800Y-56602222D01*
X76385160Y-58142583D01*
X76404782Y-58241227D01*
X76467123Y-58391731D01*
X76557628Y-58527181D01*
X76672819Y-58642372D01*
X76808269Y-58732877D01*
X76958773Y-58795218D01*
X77118548Y-58827000D01*
X77281452Y-58827000D01*
X77441227Y-58795218D01*
X77591731Y-58732877D01*
X77727181Y-58642372D01*
X77842372Y-58527181D01*
X77932877Y-58391731D01*
X77995218Y-58241227D01*
X78027000Y-58081452D01*
X78027000Y-57918548D01*
X77995218Y-57758773D01*
X77932877Y-57608269D01*
X77842372Y-57472819D01*
X77727181Y-57357628D01*
X77591731Y-57267123D01*
X77441227Y-57204782D01*
X77342583Y-57185160D01*
X77184423Y-57027000D01*
X77319911Y-57027000D01*
X77479686Y-56995218D01*
X77630190Y-56932877D01*
X77765640Y-56842372D01*
X77880831Y-56727181D01*
X77971336Y-56591731D01*
X78033677Y-56441227D01*
X78065459Y-56281452D01*
X78065459Y-56118548D01*
X78033677Y-55958773D01*
X77971336Y-55808269D01*
X77915459Y-55724643D01*
X77915459Y-51675357D01*
X77971336Y-51591731D01*
X78033677Y-51441227D01*
X78065459Y-51281452D01*
X78065459Y-51118548D01*
X90257612Y-51118548D01*
X90257612Y-51281452D01*
X90289394Y-51441227D01*
X90351735Y-51591731D01*
X90407612Y-51675357D01*
X90407613Y-55724642D01*
X90351735Y-55808269D01*
X90289394Y-55958773D01*
X90257612Y-56118548D01*
X90257612Y-56281452D01*
X90289394Y-56441227D01*
X90351735Y-56591731D01*
X90442240Y-56727181D01*
X90557431Y-56842372D01*
X90692881Y-56932877D01*
X90843385Y-56995218D01*
X91003160Y-57027000D01*
X91166064Y-57027000D01*
X91325839Y-56995218D01*
X91476343Y-56932877D01*
X91611793Y-56842372D01*
X91726984Y-56727181D01*
X91817489Y-56591731D01*
X91879830Y-56441227D01*
X91911612Y-56281452D01*
X91911612Y-56118548D01*
X91879830Y-55958773D01*
X91817489Y-55808269D01*
X91761612Y-55724643D01*
X91761612Y-51675357D01*
X91817489Y-51591731D01*
X91879830Y-51441227D01*
X91911612Y-51281452D01*
X91911612Y-51118548D01*
X104103765Y-51118548D01*
X104103765Y-51281452D01*
X104135547Y-51441227D01*
X104197888Y-51591731D01*
X104253766Y-51675358D01*
X104253765Y-55724643D01*
X104197888Y-55808269D01*
X104135547Y-55958773D01*
X104103765Y-56118548D01*
X104103765Y-56281452D01*
X104135547Y-56441227D01*
X104197888Y-56591731D01*
X104288393Y-56727181D01*
X104403584Y-56842372D01*
X104539034Y-56932877D01*
X104689538Y-56995218D01*
X104849313Y-57027000D01*
X105012217Y-57027000D01*
X105171992Y-56995218D01*
X105322496Y-56932877D01*
X105457946Y-56842372D01*
X105573137Y-56727181D01*
X105663642Y-56591731D01*
X105725983Y-56441227D01*
X105757765Y-56281452D01*
X105757765Y-56118548D01*
X105725983Y-55958773D01*
X105663642Y-55808269D01*
X105607765Y-55724643D01*
X105607765Y-51675357D01*
X105663642Y-51591731D01*
X105725983Y-51441227D01*
X105757765Y-51281452D01*
X105757765Y-51118548D01*
X115973000Y-51118548D01*
X115973000Y-51281452D01*
X116004782Y-51441227D01*
X116067123Y-51591731D01*
X116123001Y-51675358D01*
X116123000Y-55966755D01*
X116119726Y-56000000D01*
X116123000Y-56033245D01*
X116123000Y-56033251D01*
X116126352Y-56067286D01*
X116132796Y-56132714D01*
X116171508Y-56260329D01*
X116234372Y-56377940D01*
X116286311Y-56441227D01*
X116318973Y-56481026D01*
X116344800Y-56502222D01*
X117985160Y-58142582D01*
X118004782Y-58241227D01*
X118067123Y-58391731D01*
X118157628Y-58527181D01*
X118272819Y-58642372D01*
X118408269Y-58732877D01*
X118558773Y-58795218D01*
X118718548Y-58827000D01*
X118881452Y-58827000D01*
X119041227Y-58795218D01*
X119191731Y-58732877D01*
X119327181Y-58642372D01*
X119442372Y-58527181D01*
X119532877Y-58391731D01*
X119595218Y-58241227D01*
X119627000Y-58081452D01*
X119627000Y-57918548D01*
X119597948Y-57772497D01*
X119643666Y-57777000D01*
X119643675Y-57777000D01*
X119676917Y-57780274D01*
X119710159Y-57777000D01*
X131689826Y-57777000D01*
X131723071Y-57780274D01*
X131756316Y-57777000D01*
X131756323Y-57777000D01*
X131855786Y-57767204D01*
X131983401Y-57728492D01*
X132101012Y-57665628D01*
X132204098Y-57581027D01*
X132225297Y-57555196D01*
X132623071Y-57157422D01*
X133020845Y-57555196D01*
X133042044Y-57581027D01*
X133145130Y-57665628D01*
X133262741Y-57728492D01*
X133390356Y-57767204D01*
X133489819Y-57777000D01*
X133489828Y-57777000D01*
X133523070Y-57780274D01*
X133556312Y-57777000D01*
X145535979Y-57777000D01*
X145569224Y-57780274D01*
X145602469Y-57777000D01*
X145602476Y-57777000D01*
X145701939Y-57767204D01*
X145829554Y-57728492D01*
X145947165Y-57665628D01*
X146050251Y-57581027D01*
X146071450Y-57555196D01*
X146611806Y-57014840D01*
X146710451Y-56995218D01*
X146860955Y-56932877D01*
X146996405Y-56842372D01*
X147111596Y-56727181D01*
X147202101Y-56591731D01*
X147264442Y-56441227D01*
X147296224Y-56281452D01*
X147296224Y-56118548D01*
X147264442Y-55958773D01*
X147202101Y-55808269D01*
X147146224Y-55724643D01*
X147146224Y-51675357D01*
X147202101Y-51591731D01*
X147264442Y-51441227D01*
X147296224Y-51281452D01*
X147296224Y-51118548D01*
X157473000Y-51118548D01*
X157473000Y-51281452D01*
X157504782Y-51441227D01*
X157567123Y-51591731D01*
X157623001Y-51675358D01*
X157623000Y-55966755D01*
X157619726Y-56000000D01*
X157623000Y-56033245D01*
X157623000Y-56033251D01*
X157626352Y-56067286D01*
X157632796Y-56132714D01*
X157671508Y-56260329D01*
X157734372Y-56377940D01*
X157786311Y-56441227D01*
X157818973Y-56481026D01*
X157844800Y-56502222D01*
X159485160Y-58142582D01*
X159504782Y-58241227D01*
X159567123Y-58391731D01*
X159657628Y-58527181D01*
X159772819Y-58642372D01*
X159908269Y-58732877D01*
X160058773Y-58795218D01*
X160218548Y-58827000D01*
X160381452Y-58827000D01*
X160541227Y-58795218D01*
X160691731Y-58732877D01*
X160827181Y-58642372D01*
X160942372Y-58527181D01*
X161032877Y-58391731D01*
X161095218Y-58241227D01*
X161127000Y-58081452D01*
X161127000Y-57918548D01*
X161095218Y-57758773D01*
X161032877Y-57608269D01*
X160942372Y-57472819D01*
X160827181Y-57357628D01*
X160691731Y-57267123D01*
X160541227Y-57204782D01*
X160442582Y-57185160D01*
X160284422Y-57027000D01*
X160396829Y-57027000D01*
X160556604Y-56995218D01*
X160707108Y-56932877D01*
X160842558Y-56842372D01*
X160957749Y-56727181D01*
X161048254Y-56591731D01*
X161110595Y-56441227D01*
X161142377Y-56281452D01*
X161142377Y-56118548D01*
X161110595Y-55958773D01*
X161048254Y-55808269D01*
X160992377Y-55724643D01*
X160992377Y-51675357D01*
X161048254Y-51591731D01*
X161110595Y-51441227D01*
X161142377Y-51281452D01*
X161142377Y-51118548D01*
X173334530Y-51118548D01*
X173334530Y-51281452D01*
X173366312Y-51441227D01*
X173428653Y-51591731D01*
X173484531Y-51675358D01*
X173484530Y-55724643D01*
X173428653Y-55808269D01*
X173366312Y-55958773D01*
X173334530Y-56118548D01*
X173334530Y-56281452D01*
X173366312Y-56441227D01*
X173428653Y-56591731D01*
X173519158Y-56727181D01*
X173634349Y-56842372D01*
X173769799Y-56932877D01*
X173920303Y-56995218D01*
X174080078Y-57027000D01*
X174242982Y-57027000D01*
X174402757Y-56995218D01*
X174553261Y-56932877D01*
X174688711Y-56842372D01*
X174803902Y-56727181D01*
X174894407Y-56591731D01*
X174956748Y-56441227D01*
X174988530Y-56281452D01*
X174988530Y-56118548D01*
X174956748Y-55958773D01*
X174894407Y-55808269D01*
X174838530Y-55724643D01*
X174838530Y-51675357D01*
X174894407Y-51591731D01*
X174956748Y-51441227D01*
X174988530Y-51281452D01*
X174988530Y-51118548D01*
X187180683Y-51118548D01*
X187180683Y-51281452D01*
X187212465Y-51441227D01*
X187274806Y-51591731D01*
X187330683Y-51675357D01*
X187330684Y-55724642D01*
X187274806Y-55808269D01*
X187212465Y-55958773D01*
X187180683Y-56118548D01*
X187180683Y-56281452D01*
X187212465Y-56441227D01*
X187274806Y-56591731D01*
X187365311Y-56727181D01*
X187480502Y-56842372D01*
X187615952Y-56932877D01*
X187766456Y-56995218D01*
X187926231Y-57027000D01*
X188089135Y-57027000D01*
X188248910Y-56995218D01*
X188399414Y-56932877D01*
X188534864Y-56842372D01*
X188650055Y-56727181D01*
X188740560Y-56591731D01*
X188802901Y-56441227D01*
X188834683Y-56281452D01*
X188834683Y-56118548D01*
X188802901Y-55958773D01*
X188740560Y-55808269D01*
X188684683Y-55724643D01*
X188684683Y-51675357D01*
X188740560Y-51591731D01*
X188802901Y-51441227D01*
X188834683Y-51281452D01*
X188834683Y-51118548D01*
X189173000Y-51118548D01*
X189173000Y-51281452D01*
X189204782Y-51441227D01*
X189267123Y-51591731D01*
X189357628Y-51727181D01*
X189472819Y-51842372D01*
X189608269Y-51932877D01*
X189758773Y-51995218D01*
X189857418Y-52014840D01*
X195397774Y-57555196D01*
X195418973Y-57581027D01*
X195522059Y-57665628D01*
X195639670Y-57728492D01*
X195767285Y-57767204D01*
X195866748Y-57777000D01*
X195866754Y-57777000D01*
X195899999Y-57780274D01*
X195933244Y-57777000D01*
X200719578Y-57777000D01*
X201085160Y-58142582D01*
X201104782Y-58241227D01*
X201167123Y-58391731D01*
X201257628Y-58527181D01*
X201372819Y-58642372D01*
X201508269Y-58732877D01*
X201658773Y-58795218D01*
X201818548Y-58827000D01*
X201981452Y-58827000D01*
X202141227Y-58795218D01*
X202291731Y-58732877D01*
X202427181Y-58642372D01*
X202542372Y-58527181D01*
X202632877Y-58391731D01*
X202695218Y-58241227D01*
X202727000Y-58081452D01*
X202727000Y-57918548D01*
X202695218Y-57758773D01*
X202632877Y-57608269D01*
X202542372Y-57472819D01*
X202427181Y-57357628D01*
X202291731Y-57267123D01*
X202141227Y-57204782D01*
X202042582Y-57185160D01*
X201884422Y-57027000D01*
X201935288Y-57027000D01*
X202095063Y-56995218D01*
X202245567Y-56932877D01*
X202381017Y-56842372D01*
X202496208Y-56727181D01*
X202586713Y-56591731D01*
X202649054Y-56441227D01*
X202680836Y-56281452D01*
X202680836Y-56118548D01*
X202649054Y-55958773D01*
X202586713Y-55808269D01*
X202530836Y-55724643D01*
X202530836Y-51675357D01*
X202586713Y-51591731D01*
X202649054Y-51441227D01*
X202680836Y-51281452D01*
X202680836Y-51118548D01*
X202649054Y-50958773D01*
X202586713Y-50808269D01*
X202496208Y-50672819D01*
X202381017Y-50557628D01*
X202245567Y-50467123D01*
X202095063Y-50404782D01*
X201935288Y-50373000D01*
X201772384Y-50373000D01*
X201612609Y-50404782D01*
X201462105Y-50467123D01*
X201326655Y-50557628D01*
X201211464Y-50672819D01*
X201120959Y-50808269D01*
X201058618Y-50958773D01*
X201026836Y-51118548D01*
X201026836Y-51281452D01*
X201058618Y-51441227D01*
X201120959Y-51591731D01*
X201176837Y-51675358D01*
X201176836Y-55724643D01*
X201120959Y-55808269D01*
X201058618Y-55958773D01*
X201026836Y-56118548D01*
X201026836Y-56281452D01*
X201055427Y-56425184D01*
X201033252Y-56423000D01*
X201033245Y-56423000D01*
X201000000Y-56419726D01*
X200966755Y-56423000D01*
X196180422Y-56423000D01*
X190814840Y-51057418D01*
X190795218Y-50958773D01*
X190732877Y-50808269D01*
X190642372Y-50672819D01*
X190527181Y-50557628D01*
X190391731Y-50467123D01*
X190241227Y-50404782D01*
X190081452Y-50373000D01*
X189918548Y-50373000D01*
X189758773Y-50404782D01*
X189608269Y-50467123D01*
X189472819Y-50557628D01*
X189357628Y-50672819D01*
X189267123Y-50808269D01*
X189204782Y-50958773D01*
X189173000Y-51118548D01*
X188834683Y-51118548D01*
X188802901Y-50958773D01*
X188740560Y-50808269D01*
X188650055Y-50672819D01*
X188534864Y-50557628D01*
X188399414Y-50467123D01*
X188248910Y-50404782D01*
X188089135Y-50373000D01*
X187926231Y-50373000D01*
X187766456Y-50404782D01*
X187615952Y-50467123D01*
X187480502Y-50557628D01*
X187365311Y-50672819D01*
X187274806Y-50808269D01*
X187212465Y-50958773D01*
X187180683Y-51118548D01*
X174988530Y-51118548D01*
X174956748Y-50958773D01*
X174894407Y-50808269D01*
X174803902Y-50672819D01*
X174688711Y-50557628D01*
X174553261Y-50467123D01*
X174402757Y-50404782D01*
X174242982Y-50373000D01*
X174080078Y-50373000D01*
X173920303Y-50404782D01*
X173769799Y-50467123D01*
X173634349Y-50557628D01*
X173519158Y-50672819D01*
X173428653Y-50808269D01*
X173366312Y-50958773D01*
X173334530Y-51118548D01*
X161142377Y-51118548D01*
X161110595Y-50958773D01*
X161048254Y-50808269D01*
X160957749Y-50672819D01*
X160842558Y-50557628D01*
X160707108Y-50467123D01*
X160556604Y-50404782D01*
X160396829Y-50373000D01*
X160233925Y-50373000D01*
X160074150Y-50404782D01*
X159923646Y-50467123D01*
X159788196Y-50557628D01*
X159673005Y-50672819D01*
X159582500Y-50808269D01*
X159520159Y-50958773D01*
X159488377Y-51118548D01*
X159488377Y-51281452D01*
X159520159Y-51441227D01*
X159582500Y-51591731D01*
X159638377Y-51675357D01*
X159638378Y-55724642D01*
X159582500Y-55808269D01*
X159520159Y-55958773D01*
X159488377Y-56118548D01*
X159488377Y-56230955D01*
X158977000Y-55719578D01*
X158977000Y-51675357D01*
X159032877Y-51591731D01*
X159095218Y-51441227D01*
X159127000Y-51281452D01*
X159127000Y-51118548D01*
X159095218Y-50958773D01*
X159032877Y-50808269D01*
X158942372Y-50672819D01*
X158827181Y-50557628D01*
X158691731Y-50467123D01*
X158541227Y-50404782D01*
X158381452Y-50373000D01*
X158218548Y-50373000D01*
X158058773Y-50404782D01*
X157908269Y-50467123D01*
X157772819Y-50557628D01*
X157657628Y-50672819D01*
X157567123Y-50808269D01*
X157504782Y-50958773D01*
X157473000Y-51118548D01*
X147296224Y-51118548D01*
X147264442Y-50958773D01*
X147202101Y-50808269D01*
X147111596Y-50672819D01*
X146996405Y-50557628D01*
X146860955Y-50467123D01*
X146710451Y-50404782D01*
X146550676Y-50373000D01*
X146387772Y-50373000D01*
X146227997Y-50404782D01*
X146077493Y-50467123D01*
X145942043Y-50557628D01*
X145826852Y-50672819D01*
X145736347Y-50808269D01*
X145674006Y-50958773D01*
X145642224Y-51118548D01*
X145642224Y-51281452D01*
X145674006Y-51441227D01*
X145736347Y-51591731D01*
X145792225Y-51675358D01*
X145792224Y-55724643D01*
X145736347Y-55808269D01*
X145674006Y-55958773D01*
X145654384Y-56057418D01*
X145288802Y-56423000D01*
X133803493Y-56423000D01*
X133437911Y-56057418D01*
X133418289Y-55958773D01*
X133355948Y-55808269D01*
X133265443Y-55672819D01*
X133150252Y-55557628D01*
X133014802Y-55467123D01*
X132864298Y-55404782D01*
X132704523Y-55373000D01*
X132541619Y-55373000D01*
X132381844Y-55404782D01*
X132231340Y-55467123D01*
X132095890Y-55557628D01*
X131980699Y-55672819D01*
X131890194Y-55808269D01*
X131827853Y-55958773D01*
X131808231Y-56057418D01*
X131442649Y-56423000D01*
X119957340Y-56423000D01*
X119591758Y-56057418D01*
X119572136Y-55958773D01*
X119509795Y-55808269D01*
X119453918Y-55724643D01*
X119453918Y-51675357D01*
X119509795Y-51591731D01*
X119572136Y-51441227D01*
X119603918Y-51281452D01*
X119603918Y-51118548D01*
X119598946Y-51093548D01*
X124073034Y-51093548D01*
X124073034Y-51256452D01*
X124104816Y-51416227D01*
X124167157Y-51566731D01*
X124257662Y-51702181D01*
X124372853Y-51817372D01*
X124508303Y-51907877D01*
X124658807Y-51970218D01*
X124818582Y-52002000D01*
X124910806Y-52002000D01*
X124912066Y-52003034D01*
X124912068Y-52003036D01*
X124932013Y-52019404D01*
X124977918Y-52057078D01*
X125078157Y-52110656D01*
X125122815Y-52124203D01*
X125186921Y-52143650D01*
X125248004Y-52149665D01*
X125271697Y-52151999D01*
X125271701Y-52151999D01*
X125300032Y-52154789D01*
X125328363Y-52151999D01*
X143296670Y-52151999D01*
X143325001Y-52154789D01*
X143353332Y-52151999D01*
X143353337Y-52151999D01*
X143383046Y-52149073D01*
X143438112Y-52143650D01*
X143482771Y-52130102D01*
X143546877Y-52110656D01*
X143647116Y-52057078D01*
X143734975Y-51984973D01*
X143753040Y-51962961D01*
X145539001Y-50177000D01*
X196960999Y-50177000D01*
X197673000Y-50889001D01*
X197673000Y-50981452D01*
X197704782Y-51141227D01*
X197767123Y-51291731D01*
X197857628Y-51427181D01*
X197972819Y-51542372D01*
X198108269Y-51632877D01*
X198258773Y-51695218D01*
X198418548Y-51727000D01*
X198581452Y-51727000D01*
X198741227Y-51695218D01*
X198891731Y-51632877D01*
X199027181Y-51542372D01*
X199142372Y-51427181D01*
X199232877Y-51291731D01*
X199295218Y-51141227D01*
X199327000Y-50981452D01*
X199327000Y-50818548D01*
X199295218Y-50658773D01*
X199232877Y-50508269D01*
X199142372Y-50372819D01*
X199027181Y-50257628D01*
X198891731Y-50167123D01*
X198741227Y-50104782D01*
X198581452Y-50073000D01*
X198489001Y-50073000D01*
X198092990Y-49676989D01*
X210007440Y-49676989D01*
X210072823Y-49742372D01*
X210208273Y-49832877D01*
X210358777Y-49895218D01*
X210518552Y-49927000D01*
X210681456Y-49927000D01*
X210841231Y-49895218D01*
X210991735Y-49832877D01*
X211127185Y-49742372D01*
X211242376Y-49627181D01*
X211332881Y-49491731D01*
X211395222Y-49341227D01*
X211427004Y-49181452D01*
X211427004Y-49018548D01*
X211395222Y-48858773D01*
X211332881Y-48708269D01*
X211242376Y-48572819D01*
X211127185Y-48457628D01*
X210991735Y-48367123D01*
X210841231Y-48304782D01*
X210681456Y-48273000D01*
X210518552Y-48273000D01*
X210358777Y-48304782D01*
X210314822Y-48322989D01*
X138580412Y-48322989D01*
X137525960Y-47268537D01*
X155973000Y-47268537D01*
X155973000Y-47431441D01*
X156004782Y-47591216D01*
X156067123Y-47741720D01*
X156157628Y-47877170D01*
X156272819Y-47992361D01*
X156408269Y-48082866D01*
X156558773Y-48145207D01*
X156718548Y-48176989D01*
X156881452Y-48176989D01*
X157041227Y-48145207D01*
X157191731Y-48082866D01*
X157327181Y-47992361D01*
X157442372Y-47877170D01*
X157532877Y-47741720D01*
X157595218Y-47591216D01*
X157627000Y-47431441D01*
X157627000Y-47338990D01*
X162388991Y-42577000D01*
X168607433Y-42577000D01*
X168672805Y-42642372D01*
X168808255Y-42732877D01*
X168958759Y-42795218D01*
X169118534Y-42827000D01*
X169281438Y-42827000D01*
X169441213Y-42795218D01*
X169591717Y-42732877D01*
X169727167Y-42642372D01*
X169842358Y-42527181D01*
X169932863Y-42391731D01*
X169995204Y-42241227D01*
X170007891Y-42177444D01*
X170072819Y-42242372D01*
X170208269Y-42332877D01*
X170358773Y-42395218D01*
X170518548Y-42427000D01*
X170681452Y-42427000D01*
X170841227Y-42395218D01*
X170991731Y-42332877D01*
X171127181Y-42242372D01*
X171242372Y-42127181D01*
X171332877Y-41991731D01*
X171395218Y-41841227D01*
X171427000Y-41681452D01*
X171427000Y-41589001D01*
X175373000Y-37643001D01*
X175373000Y-37681452D01*
X175404782Y-37841227D01*
X175467123Y-37991731D01*
X175557628Y-38127181D01*
X175672819Y-38242372D01*
X175808269Y-38332877D01*
X175958773Y-38395218D01*
X176118548Y-38427000D01*
X176281452Y-38427000D01*
X176441227Y-38395218D01*
X176591731Y-38332877D01*
X176727181Y-38242372D01*
X176842372Y-38127181D01*
X176932877Y-37991731D01*
X176995218Y-37841227D01*
X177027000Y-37681452D01*
X177027000Y-37589001D01*
X177839043Y-36776959D01*
X179298645Y-36776959D01*
X179158773Y-36804782D01*
X179008269Y-36867123D01*
X178872819Y-36957628D01*
X178757628Y-37072819D01*
X178667123Y-37208269D01*
X178604782Y-37358773D01*
X178573000Y-37518548D01*
X178573000Y-37681452D01*
X178604782Y-37841227D01*
X178667123Y-37991731D01*
X178757628Y-38127181D01*
X178872819Y-38242372D01*
X179008269Y-38332877D01*
X179158773Y-38395218D01*
X179318548Y-38427000D01*
X179481452Y-38427000D01*
X179641227Y-38395218D01*
X179791731Y-38332877D01*
X179927181Y-38242372D01*
X179992553Y-38177000D01*
X180699877Y-38177000D01*
X180353888Y-38522989D01*
X176328339Y-38522989D01*
X176300010Y-38520199D01*
X176271681Y-38522989D01*
X176271675Y-38522989D01*
X176186899Y-38531339D01*
X176078135Y-38564332D01*
X175977896Y-38617910D01*
X175890037Y-38690015D01*
X175871974Y-38712025D01*
X173810999Y-40773000D01*
X173718548Y-40773000D01*
X173558773Y-40804782D01*
X173408269Y-40867123D01*
X173272819Y-40957628D01*
X173157628Y-41072819D01*
X173067123Y-41208269D01*
X173004782Y-41358773D01*
X172973000Y-41518548D01*
X172973000Y-41681452D01*
X173004782Y-41841227D01*
X173067123Y-41991731D01*
X173157628Y-42127181D01*
X173272819Y-42242372D01*
X173408269Y-42332877D01*
X173558773Y-42395218D01*
X173718548Y-42427000D01*
X173881452Y-42427000D01*
X174041227Y-42395218D01*
X174191731Y-42332877D01*
X174327181Y-42242372D01*
X174442372Y-42127181D01*
X174532877Y-41991731D01*
X174595218Y-41841227D01*
X174627000Y-41681452D01*
X174627000Y-41589001D01*
X176539012Y-39676989D01*
X179907010Y-39676989D01*
X178560999Y-41023000D01*
X177592553Y-41023000D01*
X177527181Y-40957628D01*
X177391731Y-40867123D01*
X177241227Y-40804782D01*
X177081452Y-40773000D01*
X176918548Y-40773000D01*
X176758773Y-40804782D01*
X176608269Y-40867123D01*
X176472819Y-40957628D01*
X176357628Y-41072819D01*
X176267123Y-41208269D01*
X176204782Y-41358773D01*
X176173000Y-41518548D01*
X176173000Y-41681452D01*
X176204782Y-41841227D01*
X176267123Y-41991731D01*
X176357628Y-42127181D01*
X176472819Y-42242372D01*
X176608269Y-42332877D01*
X176758773Y-42395218D01*
X176918548Y-42427000D01*
X177081452Y-42427000D01*
X177241227Y-42395218D01*
X177391731Y-42332877D01*
X177527181Y-42242372D01*
X177592553Y-42177000D01*
X178771669Y-42177000D01*
X178800000Y-42179790D01*
X178828331Y-42177000D01*
X178828336Y-42177000D01*
X178858045Y-42174074D01*
X178913111Y-42168651D01*
X178957770Y-42155103D01*
X179021876Y-42135657D01*
X179122115Y-42082079D01*
X179209974Y-42009974D01*
X179228039Y-41987962D01*
X185325980Y-35890021D01*
X185347992Y-35871956D01*
X185420097Y-35784097D01*
X185473675Y-35683858D01*
X185506668Y-35575094D01*
X185515018Y-35490318D01*
X185515018Y-35490312D01*
X185517808Y-35461983D01*
X185515018Y-35433654D01*
X185515018Y-35042499D01*
X185580390Y-34977127D01*
X185670895Y-34841677D01*
X185733236Y-34691173D01*
X185765018Y-34531398D01*
X185765018Y-34368494D01*
X185733236Y-34208719D01*
X185670895Y-34058215D01*
X185580390Y-33922765D01*
X185465199Y-33807574D01*
X185329749Y-33717069D01*
X185179245Y-33654728D01*
X185019470Y-33622946D01*
X184856566Y-33622946D01*
X184696791Y-33654728D01*
X184546287Y-33717069D01*
X184410837Y-33807574D01*
X184295646Y-33922765D01*
X184205141Y-34058215D01*
X184185686Y-34105184D01*
X184124870Y-34093087D01*
X183961966Y-34093087D01*
X183802191Y-34124869D01*
X183651687Y-34187210D01*
X183516237Y-34277715D01*
X183401046Y-34392906D01*
X183310541Y-34528356D01*
X183288256Y-34582158D01*
X183248191Y-34574188D01*
X183085287Y-34574188D01*
X183036784Y-34583836D01*
X183028695Y-34581382D01*
X182973629Y-34575959D01*
X182943920Y-34573033D01*
X182943915Y-34573033D01*
X182915584Y-34570243D01*
X182887253Y-34573033D01*
X177078298Y-34573033D01*
X177049967Y-34570243D01*
X177021636Y-34573033D01*
X177021631Y-34573033D01*
X176994853Y-34575670D01*
X176936855Y-34581382D01*
X176872749Y-34600829D01*
X176828091Y-34614376D01*
X176727852Y-34667954D01*
X176639993Y-34740059D01*
X176621928Y-34762071D01*
X170610999Y-40773000D01*
X170518548Y-40773000D01*
X170358773Y-40804782D01*
X170208269Y-40867123D01*
X170072819Y-40957628D01*
X169957628Y-41072819D01*
X169867123Y-41208269D01*
X169804782Y-41358773D01*
X169792095Y-41422556D01*
X169727167Y-41357628D01*
X169591717Y-41267123D01*
X169441213Y-41204782D01*
X169281438Y-41173000D01*
X169118534Y-41173000D01*
X168958759Y-41204782D01*
X168808255Y-41267123D01*
X168672805Y-41357628D01*
X168607433Y-41423000D01*
X162178319Y-41423000D01*
X162149988Y-41420210D01*
X162121657Y-41423000D01*
X162121653Y-41423000D01*
X162097960Y-41425334D01*
X162036877Y-41431349D01*
X161972771Y-41450796D01*
X161928113Y-41464343D01*
X161827874Y-41517921D01*
X161799476Y-41541227D01*
X161762024Y-41571963D01*
X161762022Y-41571965D01*
X161740015Y-41590026D01*
X161721954Y-41612033D01*
X156810999Y-46522989D01*
X156718548Y-46522989D01*
X156558773Y-46554771D01*
X156408269Y-46617112D01*
X156272819Y-46707617D01*
X156157628Y-46822808D01*
X156067123Y-46958258D01*
X156004782Y-47108762D01*
X155973000Y-47268537D01*
X137525960Y-47268537D01*
X134599591Y-44342169D01*
X134686888Y-44368650D01*
X134771664Y-44377000D01*
X134771670Y-44377000D01*
X134799999Y-44379790D01*
X134828328Y-44377000D01*
X146591669Y-44377000D01*
X146620000Y-44379790D01*
X146648331Y-44377000D01*
X146648336Y-44377000D01*
X146678045Y-44374074D01*
X146733111Y-44368651D01*
X146777770Y-44355103D01*
X146841876Y-44335657D01*
X146942115Y-44282079D01*
X147029974Y-44209974D01*
X147048039Y-44187962D01*
X148722209Y-42513792D01*
X148869664Y-42558522D01*
X149057274Y-42577000D01*
X149182726Y-42577000D01*
X149370336Y-42558522D01*
X149611051Y-42485502D01*
X149832896Y-42366924D01*
X150027344Y-42207344D01*
X150186924Y-42012896D01*
X150305502Y-41791051D01*
X150378522Y-41550336D01*
X150403178Y-41300000D01*
X150378522Y-41049664D01*
X150305502Y-40808949D01*
X150186924Y-40587104D01*
X150027344Y-40392656D01*
X149832896Y-40233076D01*
X149611051Y-40114498D01*
X149370336Y-40041478D01*
X149182726Y-40023000D01*
X149057274Y-40023000D01*
X148869664Y-40041478D01*
X148628949Y-40114498D01*
X148407104Y-40233076D01*
X148212656Y-40392656D01*
X148053076Y-40587104D01*
X147934498Y-40808949D01*
X147861478Y-41049664D01*
X147850000Y-41166202D01*
X147838522Y-41049664D01*
X147765502Y-40808949D01*
X147646924Y-40587104D01*
X147487344Y-40392656D01*
X147292896Y-40233076D01*
X147071051Y-40114498D01*
X146830336Y-40041478D01*
X146642726Y-40023000D01*
X146517274Y-40023000D01*
X146329664Y-40041478D01*
X146088949Y-40114498D01*
X145867104Y-40233076D01*
X145672656Y-40392656D01*
X145513076Y-40587104D01*
X145394498Y-40808949D01*
X145321478Y-41049664D01*
X145310000Y-41166202D01*
X145298522Y-41049664D01*
X145225502Y-40808949D01*
X145106924Y-40587104D01*
X144947344Y-40392656D01*
X144752896Y-40233076D01*
X144531051Y-40114498D01*
X144290336Y-40041478D01*
X144102726Y-40023000D01*
X143977274Y-40023000D01*
X143789664Y-40041478D01*
X143548949Y-40114498D01*
X143327104Y-40233076D01*
X143132656Y-40392656D01*
X142973076Y-40587104D01*
X142854498Y-40808949D01*
X142781478Y-41049664D01*
X142779066Y-41074153D01*
X142779066Y-40450000D01*
X142770822Y-40366293D01*
X142746405Y-40285804D01*
X142706755Y-40211624D01*
X142653395Y-40146605D01*
X142588376Y-40093245D01*
X142514196Y-40053595D01*
X142433707Y-40029178D01*
X142350000Y-40020934D01*
X140650000Y-40020934D01*
X140566293Y-40029178D01*
X140485804Y-40053595D01*
X140411624Y-40093245D01*
X140346605Y-40146605D01*
X140293245Y-40211624D01*
X140253595Y-40285804D01*
X140229178Y-40366293D01*
X140220934Y-40450000D01*
X140220934Y-40723000D01*
X129792553Y-40723000D01*
X129727181Y-40657628D01*
X129591731Y-40567123D01*
X129441227Y-40504782D01*
X129281452Y-40473000D01*
X129118548Y-40473000D01*
X128958773Y-40504782D01*
X128808269Y-40567123D01*
X128672819Y-40657628D01*
X128557628Y-40772819D01*
X128467123Y-40908269D01*
X128404782Y-41058773D01*
X128373000Y-41218548D01*
X128373000Y-41381452D01*
X128404782Y-41541227D01*
X128467123Y-41691731D01*
X128557628Y-41827181D01*
X128672819Y-41942372D01*
X128808269Y-42032877D01*
X128958773Y-42095218D01*
X129118548Y-42127000D01*
X129281452Y-42127000D01*
X129441227Y-42095218D01*
X129591731Y-42032877D01*
X129727181Y-41942372D01*
X129792553Y-41877000D01*
X133505898Y-41877000D01*
X133490026Y-41890026D01*
X133471961Y-41912038D01*
X132710999Y-42673000D01*
X132618548Y-42673000D01*
X132458773Y-42704782D01*
X132308269Y-42767123D01*
X132172819Y-42857628D01*
X132057628Y-42972819D01*
X131967123Y-43108269D01*
X131904782Y-43258773D01*
X131873000Y-43418548D01*
X131873000Y-43581452D01*
X131904782Y-43741227D01*
X131967123Y-43891731D01*
X132057628Y-44027181D01*
X132172819Y-44142372D01*
X132308269Y-44232877D01*
X132458773Y-44295218D01*
X132618548Y-44327000D01*
X132781452Y-44327000D01*
X132823000Y-44318735D01*
X132823000Y-44431452D01*
X132854782Y-44591227D01*
X132917123Y-44741731D01*
X133007628Y-44877181D01*
X133122819Y-44992372D01*
X133258269Y-45082877D01*
X133408773Y-45145218D01*
X133507418Y-45164840D01*
X137797767Y-49455190D01*
X137818962Y-49481016D01*
X137844788Y-49502211D01*
X137844790Y-49502213D01*
X137922048Y-49565617D01*
X138039659Y-49628481D01*
X138167274Y-49667193D01*
X138299989Y-49680264D01*
X138333241Y-49676989D01*
X144407010Y-49676989D01*
X143086000Y-50997999D01*
X125708028Y-50997999D01*
X125695252Y-50933773D01*
X125632911Y-50783269D01*
X125542406Y-50647819D01*
X125427215Y-50532628D01*
X125291765Y-50442123D01*
X125141261Y-50379782D01*
X124981486Y-50348000D01*
X124818582Y-50348000D01*
X124658807Y-50379782D01*
X124508303Y-50442123D01*
X124372853Y-50532628D01*
X124257662Y-50647819D01*
X124167157Y-50783269D01*
X124104816Y-50933773D01*
X124073034Y-51093548D01*
X119598946Y-51093548D01*
X119572136Y-50958773D01*
X119509795Y-50808269D01*
X119419290Y-50672819D01*
X119304099Y-50557628D01*
X119168649Y-50467123D01*
X119018145Y-50404782D01*
X118858370Y-50373000D01*
X118695466Y-50373000D01*
X118535691Y-50404782D01*
X118385187Y-50467123D01*
X118249737Y-50557628D01*
X118134546Y-50672819D01*
X118044041Y-50808269D01*
X117981700Y-50958773D01*
X117949918Y-51118548D01*
X117949918Y-51281452D01*
X117981700Y-51441227D01*
X118044041Y-51591731D01*
X118099918Y-51675357D01*
X118099919Y-55724642D01*
X118044041Y-55808269D01*
X117981700Y-55958773D01*
X117949918Y-56118548D01*
X117949918Y-56192496D01*
X117477000Y-55719578D01*
X117477000Y-51675357D01*
X117532877Y-51591731D01*
X117595218Y-51441227D01*
X117627000Y-51281452D01*
X117627000Y-51118548D01*
X117595218Y-50958773D01*
X117532877Y-50808269D01*
X117442372Y-50672819D01*
X117327181Y-50557628D01*
X117191731Y-50467123D01*
X117041227Y-50404782D01*
X116881452Y-50373000D01*
X116718548Y-50373000D01*
X116558773Y-50404782D01*
X116408269Y-50467123D01*
X116272819Y-50557628D01*
X116157628Y-50672819D01*
X116067123Y-50808269D01*
X116004782Y-50958773D01*
X115973000Y-51118548D01*
X105757765Y-51118548D01*
X105725983Y-50958773D01*
X105663642Y-50808269D01*
X105573137Y-50672819D01*
X105457946Y-50557628D01*
X105322496Y-50467123D01*
X105171992Y-50404782D01*
X105012217Y-50373000D01*
X104849313Y-50373000D01*
X104689538Y-50404782D01*
X104539034Y-50467123D01*
X104403584Y-50557628D01*
X104288393Y-50672819D01*
X104197888Y-50808269D01*
X104135547Y-50958773D01*
X104103765Y-51118548D01*
X91911612Y-51118548D01*
X91879830Y-50958773D01*
X91817489Y-50808269D01*
X91726984Y-50672819D01*
X91611793Y-50557628D01*
X91476343Y-50467123D01*
X91325839Y-50404782D01*
X91166064Y-50373000D01*
X91003160Y-50373000D01*
X90843385Y-50404782D01*
X90692881Y-50467123D01*
X90557431Y-50557628D01*
X90442240Y-50672819D01*
X90351735Y-50808269D01*
X90289394Y-50958773D01*
X90257612Y-51118548D01*
X78065459Y-51118548D01*
X78033677Y-50958773D01*
X77971336Y-50808269D01*
X77880831Y-50672819D01*
X77765640Y-50557628D01*
X77630190Y-50467123D01*
X77479686Y-50404782D01*
X77319911Y-50373000D01*
X77157007Y-50373000D01*
X76997232Y-50404782D01*
X76846728Y-50467123D01*
X76711278Y-50557628D01*
X76596087Y-50672819D01*
X76505582Y-50808269D01*
X76443241Y-50958773D01*
X76411459Y-51118548D01*
X76411459Y-51281452D01*
X76443241Y-51441227D01*
X76505582Y-51591731D01*
X76561460Y-51675358D01*
X76561459Y-55724643D01*
X76505582Y-55808269D01*
X76443241Y-55958773D01*
X76411459Y-56118548D01*
X76411459Y-56254037D01*
X75977000Y-55819578D01*
X75977000Y-51675357D01*
X76032877Y-51591731D01*
X76095218Y-51441227D01*
X76127000Y-51281452D01*
X76127000Y-51118548D01*
X76095218Y-50958773D01*
X76032877Y-50808269D01*
X75942372Y-50672819D01*
X75827181Y-50557628D01*
X75691731Y-50467123D01*
X75541227Y-50404782D01*
X75381452Y-50373000D01*
X75218548Y-50373000D01*
X75058773Y-50404782D01*
X74908269Y-50467123D01*
X74772819Y-50557628D01*
X74657628Y-50672819D01*
X74567123Y-50808269D01*
X74504782Y-50958773D01*
X74473000Y-51118548D01*
X64219306Y-51118548D01*
X64187524Y-50958773D01*
X64125183Y-50808269D01*
X64034678Y-50672819D01*
X63919487Y-50557628D01*
X63784037Y-50467123D01*
X63633533Y-50404782D01*
X63473758Y-50373000D01*
X63310854Y-50373000D01*
X63151079Y-50404782D01*
X63000575Y-50467123D01*
X62865125Y-50557628D01*
X62749934Y-50672819D01*
X62659429Y-50808269D01*
X62597088Y-50958773D01*
X62565306Y-51118548D01*
X50373153Y-51118548D01*
X50341371Y-50958773D01*
X50279030Y-50808269D01*
X50188525Y-50672819D01*
X50073334Y-50557628D01*
X49937884Y-50467123D01*
X49787380Y-50404782D01*
X49627605Y-50373000D01*
X49464701Y-50373000D01*
X49304926Y-50404782D01*
X49154422Y-50467123D01*
X49018972Y-50557628D01*
X48903781Y-50672819D01*
X48813276Y-50808269D01*
X48750935Y-50958773D01*
X48719153Y-51118548D01*
X48348136Y-51118548D01*
X48432873Y-50991731D01*
X48495214Y-50841227D01*
X48526996Y-50681452D01*
X48526996Y-50518548D01*
X48495214Y-50358773D01*
X48432873Y-50208269D01*
X48342368Y-50072819D01*
X48227177Y-49957628D01*
X48091727Y-49867123D01*
X47941223Y-49804782D01*
X47781448Y-49773000D01*
X47618544Y-49773000D01*
X47458769Y-49804782D01*
X47308265Y-49867123D01*
X47172815Y-49957628D01*
X47057624Y-50072819D01*
X46967119Y-50208269D01*
X46904778Y-50358773D01*
X46885155Y-50457422D01*
X44519578Y-52823000D01*
X40233244Y-52823000D01*
X40199999Y-52819726D01*
X40166754Y-52823000D01*
X40166748Y-52823000D01*
X40067285Y-52832796D01*
X39939670Y-52871508D01*
X39822059Y-52934372D01*
X39748352Y-52994862D01*
X39767204Y-52932715D01*
X39777000Y-52833252D01*
X39777000Y-52833243D01*
X39780274Y-52800001D01*
X39777000Y-52766759D01*
X39777000Y-51675357D01*
X39832877Y-51591731D01*
X39895218Y-51441227D01*
X39927000Y-51281452D01*
X39927000Y-51118548D01*
X39895218Y-50958773D01*
X39832877Y-50808269D01*
X39742372Y-50672819D01*
X39627181Y-50557628D01*
X39491731Y-50467123D01*
X39341227Y-50404782D01*
X39181452Y-50373000D01*
X39018548Y-50373000D01*
X38858773Y-50404782D01*
X38708269Y-50467123D01*
X38572819Y-50557628D01*
X38457628Y-50672819D01*
X38367123Y-50808269D01*
X38304782Y-50958773D01*
X38273000Y-51118548D01*
X38273000Y-51281452D01*
X38304782Y-51441227D01*
X38367123Y-51591731D01*
X38423001Y-51675358D01*
X38423000Y-52519578D01*
X35557418Y-55385160D01*
X35458773Y-55404782D01*
X35308269Y-55467123D01*
X35172819Y-55557628D01*
X35057628Y-55672819D01*
X34967123Y-55808269D01*
X34904782Y-55958773D01*
X34873000Y-56118548D01*
X30527000Y-56118548D01*
X30527000Y-30852606D01*
X30852606Y-30527000D01*
X200259364Y-30527000D01*
X200235830Y-30583817D01*
M02*
