G04 #@! TF.GenerationSoftware,KiCad,Pcbnew,(5.1.2)-2*
G04 #@! TF.CreationDate,2019-07-30T15:23:15+02:00*
G04 #@! TF.ProjectId,sensor_array_15_sensors,73656e73-6f72-45f6-9172-7261795f3135,1*
G04 #@! TF.SameCoordinates,Original*
G04 #@! TF.FileFunction,Legend,Bot*
G04 #@! TF.FilePolarity,Positive*
%FSLAX46Y46*%
G04 Gerber Fmt 4.6, Leading zero omitted, Abs format (unit mm)*
G04 Created by KiCad (PCBNEW (5.1.2)-2) date 2019-07-30 15:23:15*
%MOMM*%
%LPD*%
G04 APERTURE LIST*
%ADD10C,0.300000*%
G04 APERTURE END LIST*
D10*
X54837857Y-31178571D02*
X54837857Y-32250000D01*
X54909285Y-32464285D01*
X55052142Y-32607142D01*
X55266428Y-32678571D01*
X55409285Y-32678571D01*
X53409285Y-32678571D02*
X54123571Y-32678571D01*
X54123571Y-31178571D01*
X52052142Y-32535714D02*
X52123571Y-32607142D01*
X52337857Y-32678571D01*
X52480714Y-32678571D01*
X52695000Y-32607142D01*
X52837857Y-32464285D01*
X52909285Y-32321428D01*
X52980714Y-32035714D01*
X52980714Y-31821428D01*
X52909285Y-31535714D01*
X52837857Y-31392857D01*
X52695000Y-31250000D01*
X52480714Y-31178571D01*
X52337857Y-31178571D01*
X52123571Y-31250000D01*
X52052142Y-31321428D01*
X50980714Y-31178571D02*
X50980714Y-32250000D01*
X51052142Y-32464285D01*
X51195000Y-32607142D01*
X51409285Y-32678571D01*
X51552142Y-32678571D01*
X49552142Y-32678571D02*
X50266428Y-32678571D01*
X50266428Y-31178571D01*
X48195000Y-32535714D02*
X48266428Y-32607142D01*
X48480714Y-32678571D01*
X48623571Y-32678571D01*
X48837857Y-32607142D01*
X48980714Y-32464285D01*
X49052142Y-32321428D01*
X49123571Y-32035714D01*
X49123571Y-31821428D01*
X49052142Y-31535714D01*
X48980714Y-31392857D01*
X48837857Y-31250000D01*
X48623571Y-31178571D01*
X48480714Y-31178571D01*
X48266428Y-31250000D01*
X48195000Y-31321428D01*
X47123571Y-31178571D02*
X47123571Y-32250000D01*
X47195000Y-32464285D01*
X47337857Y-32607142D01*
X47552142Y-32678571D01*
X47695000Y-32678571D01*
X45695000Y-32678571D02*
X46409285Y-32678571D01*
X46409285Y-31178571D01*
X44337857Y-32535714D02*
X44409285Y-32607142D01*
X44623571Y-32678571D01*
X44766428Y-32678571D01*
X44980714Y-32607142D01*
X45123571Y-32464285D01*
X45195000Y-32321428D01*
X45266428Y-32035714D01*
X45266428Y-31821428D01*
X45195000Y-31535714D01*
X45123571Y-31392857D01*
X44980714Y-31250000D01*
X44766428Y-31178571D01*
X44623571Y-31178571D01*
X44409285Y-31250000D01*
X44337857Y-31321428D01*
X43266428Y-31178571D02*
X43266428Y-32250000D01*
X43337857Y-32464285D01*
X43480714Y-32607142D01*
X43695000Y-32678571D01*
X43837857Y-32678571D01*
X41837857Y-32678571D02*
X42552142Y-32678571D01*
X42552142Y-31178571D01*
X40480714Y-32535714D02*
X40552142Y-32607142D01*
X40766428Y-32678571D01*
X40909285Y-32678571D01*
X41123571Y-32607142D01*
X41266428Y-32464285D01*
X41337857Y-32321428D01*
X41409285Y-32035714D01*
X41409285Y-31821428D01*
X41337857Y-31535714D01*
X41266428Y-31392857D01*
X41123571Y-31250000D01*
X40909285Y-31178571D01*
X40766428Y-31178571D01*
X40552142Y-31250000D01*
X40480714Y-31321428D01*
M02*
