M48
; DRILL file {KiCad (5.1.2)-2} date 30/07/2019 15:23:21
; FORMAT={-:-/ absolute / metric / decimal}
; #@! TF.CreationDate,2019-07-30T15:23:21+02:00
; #@! TF.GenerationSoftware,Kicad,Pcbnew,(5.1.2)-2
; #@! TF.FileFunction,Plated,1,2,PTH
FMAT,2
METRIC
T1C0.400
T2C1.000
T3C2.200
%
G90
G05
T1
X35.7Y-56.2
X35.7Y-58.0
X39.1Y-51.2
X39.7Y-58.0
X47.7Y-50.6
X49.546Y-51.2
X49.546Y-56.2
X53.536Y-58.0
X63.392Y-51.2
X63.392Y-56.2
X67.371Y-58.0
X75.3Y-51.2
X77.2Y-58.0
X77.238Y-51.2
X77.238Y-56.2
X81.207Y-58.0
X91.085Y-51.2
X91.085Y-56.2
X95.043Y-58.0
X104.931Y-51.2
X104.931Y-56.2
X108.879Y-58.0
X116.8Y-51.2
X118.777Y-51.2
X118.777Y-56.2
X118.8Y-58.0
X122.714Y-58.0
X124.9Y-50.0
X124.9Y-51.175
X125.6Y-43.7
X127.1Y-42.2
X129.2Y-41.3
X130.4Y-42.3
X131.5Y-46.0
X131.5Y-49.0
X131.5Y-53.0
X132.5Y-46.0
X132.623Y-56.2
X132.7Y-43.5
X133.5Y-49.0
X133.5Y-53.0
X133.65Y-44.35
X134.5Y-43.5
X135.5Y-43.05
X136.55Y-58.0
X142.6Y-50.65
X146.469Y-51.2
X146.469Y-56.2
X150.386Y-58.0
X156.8Y-47.35
X158.3Y-51.2
X160.3Y-58.0
X160.315Y-51.2
X160.315Y-56.2
X164.221Y-58.0
X169.2Y-42.0
X170.6Y-41.6
X173.8Y-41.6
X174.162Y-51.2
X174.162Y-56.2
X176.2Y-37.6
X177.0Y-41.6
X178.057Y-58.0
X179.4Y-37.6
X181.4Y-36.4
X182.3Y-35.9
X183.167Y-35.401
X184.043Y-34.92
X184.938Y-34.45
X185.2Y-41.6
X187.6Y-37.6
X188.008Y-51.2
X188.008Y-56.2
X188.45Y-41.6
X190.0Y-51.2
X190.8Y-37.6
X191.65Y-41.6
X191.893Y-58.0
X195.9Y-38.1
X196.0Y-33.9
X197.0Y-33.4
X198.0Y-32.9
X198.5Y-50.9
X199.208Y-31.937
X200.1Y-31.4
X201.0Y-30.9
X201.854Y-51.2
X201.854Y-56.2
X201.9Y-58.0
X205.729Y-58.0
X210.6Y-49.1
X215.7Y-51.2
X215.7Y-56.2
X219.564Y-58.0
X233.0Y-57.0
X203.35Y-40.0
X203.833Y-38.833
X203.833Y-41.167
X205.0Y-38.35
X205.0Y-41.65
X206.167Y-38.833
X206.167Y-41.167
X206.65Y-40.0
X228.35Y-50.0
X228.833Y-48.833
X228.833Y-51.167
X230.0Y-48.35
X230.0Y-51.65
X231.167Y-48.833
X231.167Y-51.167
X231.65Y-50.0
X58.35Y-40.0
X58.833Y-38.833
X58.833Y-41.167
X60.0Y-38.35
X60.0Y-41.65
X61.167Y-38.833
X61.167Y-41.167
X61.65Y-40.0
X228.35Y-35.0
X228.833Y-33.833
X228.833Y-36.167
X230.0Y-33.35
X230.0Y-36.65
X231.167Y-33.833
X231.167Y-36.167
X231.65Y-35.0
X33.35Y-50.0
X33.833Y-48.833
X33.833Y-51.167
X35.0Y-48.35
X35.0Y-51.65
X36.167Y-48.833
X36.167Y-51.167
X36.65Y-50.0
X33.35Y-35.0
X33.833Y-33.833
X33.833Y-36.167
X35.0Y-33.35
X35.0Y-36.65
X36.167Y-33.833
X36.167Y-36.167
X36.65Y-35.0
T2
X209.3Y-41.3
X211.84Y-41.3
X214.38Y-41.3
X141.5Y-41.3
X144.04Y-41.3
X146.58Y-41.3
X149.12Y-41.3
T3
X35.0Y-35.0
X205.0Y-40.0
X230.0Y-50.0
X60.0Y-40.0
X230.0Y-35.0
X35.0Y-50.0
T0
M30
