G04 #@! TF.GenerationSoftware,KiCad,Pcbnew,(5.1.2)-2*
G04 #@! TF.CreationDate,2019-07-30T15:23:15+02:00*
G04 #@! TF.ProjectId,sensor_array_15_sensors,73656e73-6f72-45f6-9172-7261795f3135,1*
G04 #@! TF.SameCoordinates,Original*
G04 #@! TF.FileFunction,Legend,Top*
G04 #@! TF.FilePolarity,Positive*
%FSLAX46Y46*%
G04 Gerber Fmt 4.6, Leading zero omitted, Abs format (unit mm)*
G04 Created by KiCad (PCBNEW (5.1.2)-2) date 2019-07-30 15:23:15*
%MOMM*%
%LPD*%
G04 APERTURE LIST*
%ADD10C,0.150000*%
%ADD11C,0.120000*%
%ADD12C,0.300000*%
%ADD13C,0.200000*%
%ADD14C,0.100000*%
%ADD15C,0.010000*%
G04 APERTURE END LIST*
D10*
X226552380Y-44928571D02*
X226552380Y-44357142D01*
X227552380Y-44642857D02*
X226552380Y-44642857D01*
X226885714Y-44119047D02*
X227552380Y-43880952D01*
X226885714Y-43642857D02*
X227552380Y-43880952D01*
X227790476Y-43976190D01*
X227838095Y-44023809D01*
X227885714Y-44119047D01*
X226885714Y-43261904D02*
X227885714Y-43261904D01*
X226933333Y-43261904D02*
X226885714Y-43166666D01*
X226885714Y-42976190D01*
X226933333Y-42880952D01*
X226980952Y-42833333D01*
X227076190Y-42785714D01*
X227361904Y-42785714D01*
X227457142Y-42833333D01*
X227504761Y-42880952D01*
X227552380Y-42976190D01*
X227552380Y-43166666D01*
X227504761Y-43261904D01*
X227504761Y-41976190D02*
X227552380Y-42071428D01*
X227552380Y-42261904D01*
X227504761Y-42357142D01*
X227409523Y-42404761D01*
X227028571Y-42404761D01*
X226933333Y-42357142D01*
X226885714Y-42261904D01*
X226885714Y-42071428D01*
X226933333Y-41976190D01*
X227028571Y-41928571D01*
X227123809Y-41928571D01*
X227219047Y-42404761D01*
X227028571Y-40404761D02*
X227076190Y-40261904D01*
X227123809Y-40214285D01*
X227219047Y-40166666D01*
X227361904Y-40166666D01*
X227457142Y-40214285D01*
X227504761Y-40261904D01*
X227552380Y-40357142D01*
X227552380Y-40738095D01*
X226552380Y-40738095D01*
X226552380Y-40404761D01*
X226600000Y-40309523D01*
X226647619Y-40261904D01*
X226742857Y-40214285D01*
X226838095Y-40214285D01*
X226933333Y-40261904D01*
X226980952Y-40309523D01*
X227028571Y-40404761D01*
X227028571Y-40738095D01*
X37452380Y-44857142D02*
X37452380Y-44285714D01*
X38452380Y-44571428D02*
X37452380Y-44571428D01*
X37785714Y-44047619D02*
X38452380Y-43809523D01*
X37785714Y-43571428D02*
X38452380Y-43809523D01*
X38690476Y-43904761D01*
X38738095Y-43952380D01*
X38785714Y-44047619D01*
X37785714Y-43190476D02*
X38785714Y-43190476D01*
X37833333Y-43190476D02*
X37785714Y-43095238D01*
X37785714Y-42904761D01*
X37833333Y-42809523D01*
X37880952Y-42761904D01*
X37976190Y-42714285D01*
X38261904Y-42714285D01*
X38357142Y-42761904D01*
X38404761Y-42809523D01*
X38452380Y-42904761D01*
X38452380Y-43095238D01*
X38404761Y-43190476D01*
X38404761Y-41904761D02*
X38452380Y-42000000D01*
X38452380Y-42190476D01*
X38404761Y-42285714D01*
X38309523Y-42333333D01*
X37928571Y-42333333D01*
X37833333Y-42285714D01*
X37785714Y-42190476D01*
X37785714Y-42000000D01*
X37833333Y-41904761D01*
X37928571Y-41857142D01*
X38023809Y-41857142D01*
X38119047Y-42333333D01*
X38166666Y-40714285D02*
X38166666Y-40238095D01*
X38452380Y-40809523D02*
X37452380Y-40476190D01*
X38452380Y-40142857D01*
D11*
X182800000Y-45200000D02*
X182800000Y-37200000D01*
D10*
X183252380Y-39247619D02*
X183252380Y-39152380D01*
X183300000Y-39057142D01*
X183347619Y-39009523D01*
X183442857Y-38961904D01*
X183633333Y-38914285D01*
X183871428Y-38914285D01*
X184061904Y-38961904D01*
X184157142Y-39009523D01*
X184204761Y-39057142D01*
X184252380Y-39152380D01*
X184252380Y-39247619D01*
X184204761Y-39342857D01*
X184157142Y-39390476D01*
X184061904Y-39438095D01*
X183871428Y-39485714D01*
X183633333Y-39485714D01*
X183442857Y-39438095D01*
X183347619Y-39390476D01*
X183300000Y-39342857D01*
X183252380Y-39247619D01*
X182204761Y-43985714D02*
X182252380Y-43842857D01*
X182252380Y-43604761D01*
X182204761Y-43509523D01*
X182157142Y-43461904D01*
X182061904Y-43414285D01*
X181966666Y-43414285D01*
X181871428Y-43461904D01*
X181823809Y-43509523D01*
X181776190Y-43604761D01*
X181728571Y-43795238D01*
X181680952Y-43890476D01*
X181633333Y-43938095D01*
X181538095Y-43985714D01*
X181442857Y-43985714D01*
X181347619Y-43938095D01*
X181300000Y-43890476D01*
X181252380Y-43795238D01*
X181252380Y-43557142D01*
X181300000Y-43414285D01*
X182252380Y-42985714D02*
X181252380Y-42985714D01*
X181252380Y-42604761D01*
X181300000Y-42509523D01*
X181347619Y-42461904D01*
X181442857Y-42414285D01*
X181585714Y-42414285D01*
X181680952Y-42461904D01*
X181728571Y-42509523D01*
X181776190Y-42604761D01*
X181776190Y-42985714D01*
X182252380Y-41985714D02*
X181252380Y-41985714D01*
X182252380Y-40604761D02*
X182204761Y-40700000D01*
X182109523Y-40747619D01*
X181252380Y-40747619D01*
X182252380Y-40223809D02*
X181585714Y-40223809D01*
X181252380Y-40223809D02*
X181300000Y-40271428D01*
X181347619Y-40223809D01*
X181300000Y-40176190D01*
X181252380Y-40223809D01*
X181347619Y-40223809D01*
X181585714Y-39747619D02*
X182252380Y-39747619D01*
X181680952Y-39747619D02*
X181633333Y-39700000D01*
X181585714Y-39604761D01*
X181585714Y-39461904D01*
X181633333Y-39366666D01*
X181728571Y-39319047D01*
X182252380Y-39319047D01*
X182204761Y-38461904D02*
X182252380Y-38557142D01*
X182252380Y-38747619D01*
X182204761Y-38842857D01*
X182109523Y-38890476D01*
X181728571Y-38890476D01*
X181633333Y-38842857D01*
X181585714Y-38747619D01*
X181585714Y-38557142D01*
X181633333Y-38461904D01*
X181728571Y-38414285D01*
X181823809Y-38414285D01*
X181919047Y-38890476D01*
D11*
X180800000Y-37200000D02*
X194400000Y-37200000D01*
X180800000Y-35200000D02*
X194400000Y-35200000D01*
X180800000Y-45200000D02*
X180800000Y-35200000D01*
D10*
X184861904Y-36604761D02*
X185004761Y-36652380D01*
X185242857Y-36652380D01*
X185338095Y-36604761D01*
X185385714Y-36557142D01*
X185433333Y-36461904D01*
X185433333Y-36366666D01*
X185385714Y-36271428D01*
X185338095Y-36223809D01*
X185242857Y-36176190D01*
X185052380Y-36128571D01*
X184957142Y-36080952D01*
X184909523Y-36033333D01*
X184861904Y-35938095D01*
X184861904Y-35842857D01*
X184909523Y-35747619D01*
X184957142Y-35700000D01*
X185052380Y-35652380D01*
X185290476Y-35652380D01*
X185433333Y-35700000D01*
X185861904Y-36652380D02*
X185861904Y-35652380D01*
X186242857Y-35652380D01*
X186338095Y-35700000D01*
X186385714Y-35747619D01*
X186433333Y-35842857D01*
X186433333Y-35985714D01*
X186385714Y-36080952D01*
X186338095Y-36128571D01*
X186242857Y-36176190D01*
X185861904Y-36176190D01*
X186861904Y-36652380D02*
X186861904Y-35652380D01*
X188052380Y-36604761D02*
X188195238Y-36652380D01*
X188433333Y-36652380D01*
X188528571Y-36604761D01*
X188576190Y-36557142D01*
X188623809Y-36461904D01*
X188623809Y-36366666D01*
X188576190Y-36271428D01*
X188528571Y-36223809D01*
X188433333Y-36176190D01*
X188242857Y-36128571D01*
X188147619Y-36080952D01*
X188100000Y-36033333D01*
X188052380Y-35938095D01*
X188052380Y-35842857D01*
X188100000Y-35747619D01*
X188147619Y-35700000D01*
X188242857Y-35652380D01*
X188480952Y-35652380D01*
X188623809Y-35700000D01*
X189052380Y-36128571D02*
X189385714Y-36128571D01*
X189528571Y-36652380D02*
X189052380Y-36652380D01*
X189052380Y-35652380D01*
X189528571Y-35652380D01*
X190433333Y-36652380D02*
X189957142Y-36652380D01*
X189957142Y-35652380D01*
X168033333Y-34732142D02*
X167985714Y-34779761D01*
X167842857Y-34827380D01*
X167747619Y-34827380D01*
X167604761Y-34779761D01*
X167509523Y-34684523D01*
X167461904Y-34589285D01*
X167414285Y-34398809D01*
X167414285Y-34255952D01*
X167461904Y-34065476D01*
X167509523Y-33970238D01*
X167604761Y-33875000D01*
X167747619Y-33827380D01*
X167842857Y-33827380D01*
X167985714Y-33875000D01*
X168033333Y-33922619D01*
X168414285Y-34779761D02*
X168557142Y-34827380D01*
X168795238Y-34827380D01*
X168890476Y-34779761D01*
X168938095Y-34732142D01*
X168985714Y-34636904D01*
X168985714Y-34541666D01*
X168938095Y-34446428D01*
X168890476Y-34398809D01*
X168795238Y-34351190D01*
X168604761Y-34303571D01*
X168509523Y-34255952D01*
X168461904Y-34208333D01*
X168414285Y-34113095D01*
X168414285Y-34017857D01*
X168461904Y-33922619D01*
X168509523Y-33875000D01*
X168604761Y-33827380D01*
X168842857Y-33827380D01*
X168985714Y-33875000D01*
X167057142Y-36429761D02*
X167200000Y-36477380D01*
X167438095Y-36477380D01*
X167533333Y-36429761D01*
X167580952Y-36382142D01*
X167628571Y-36286904D01*
X167628571Y-36191666D01*
X167580952Y-36096428D01*
X167533333Y-36048809D01*
X167438095Y-36001190D01*
X167247619Y-35953571D01*
X167152380Y-35905952D01*
X167104761Y-35858333D01*
X167057142Y-35763095D01*
X167057142Y-35667857D01*
X167104761Y-35572619D01*
X167152380Y-35525000D01*
X167247619Y-35477380D01*
X167485714Y-35477380D01*
X167628571Y-35525000D01*
X168057142Y-35953571D02*
X168390476Y-35953571D01*
X168533333Y-36477380D02*
X168057142Y-36477380D01*
X168057142Y-35477380D01*
X168533333Y-35477380D01*
X169438095Y-36477380D02*
X168961904Y-36477380D01*
X168961904Y-35477380D01*
D11*
X166200000Y-45200000D02*
X166200000Y-33200000D01*
D10*
X167604761Y-43985714D02*
X167652380Y-43842857D01*
X167652380Y-43604761D01*
X167604761Y-43509523D01*
X167557142Y-43461904D01*
X167461904Y-43414285D01*
X167366666Y-43414285D01*
X167271428Y-43461904D01*
X167223809Y-43509523D01*
X167176190Y-43604761D01*
X167128571Y-43795238D01*
X167080952Y-43890476D01*
X167033333Y-43938095D01*
X166938095Y-43985714D01*
X166842857Y-43985714D01*
X166747619Y-43938095D01*
X166700000Y-43890476D01*
X166652380Y-43795238D01*
X166652380Y-43557142D01*
X166700000Y-43414285D01*
X167652380Y-42985714D02*
X166652380Y-42985714D01*
X166652380Y-42604761D01*
X166700000Y-42509523D01*
X166747619Y-42461904D01*
X166842857Y-42414285D01*
X166985714Y-42414285D01*
X167080952Y-42461904D01*
X167128571Y-42509523D01*
X167176190Y-42604761D01*
X167176190Y-42985714D01*
X167652380Y-41985714D02*
X166652380Y-41985714D01*
X167652380Y-40604761D02*
X167604761Y-40700000D01*
X167509523Y-40747619D01*
X166652380Y-40747619D01*
X167652380Y-40223809D02*
X166985714Y-40223809D01*
X166652380Y-40223809D02*
X166700000Y-40271428D01*
X166747619Y-40223809D01*
X166700000Y-40176190D01*
X166652380Y-40223809D01*
X166747619Y-40223809D01*
X166985714Y-39747619D02*
X167652380Y-39747619D01*
X167080952Y-39747619D02*
X167033333Y-39700000D01*
X166985714Y-39604761D01*
X166985714Y-39461904D01*
X167033333Y-39366666D01*
X167128571Y-39319047D01*
X167652380Y-39319047D01*
X167604761Y-38461904D02*
X167652380Y-38557142D01*
X167652380Y-38747619D01*
X167604761Y-38842857D01*
X167509523Y-38890476D01*
X167128571Y-38890476D01*
X167033333Y-38842857D01*
X166985714Y-38747619D01*
X166985714Y-38557142D01*
X167033333Y-38461904D01*
X167128571Y-38414285D01*
X167223809Y-38414285D01*
X167319047Y-38890476D01*
D11*
X166200000Y-33200000D02*
X179800000Y-33200000D01*
X176600000Y-45200000D02*
X176600000Y-35200000D01*
X173400000Y-45200000D02*
X173400000Y-35200000D01*
D10*
X168652380Y-39247619D02*
X168652380Y-39152380D01*
X168700000Y-39057142D01*
X168747619Y-39009523D01*
X168842857Y-38961904D01*
X169033333Y-38914285D01*
X169271428Y-38914285D01*
X169461904Y-38961904D01*
X169557142Y-39009523D01*
X169604761Y-39057142D01*
X169652380Y-39152380D01*
X169652380Y-39247619D01*
X169604761Y-39342857D01*
X169557142Y-39390476D01*
X169461904Y-39438095D01*
X169271428Y-39485714D01*
X169033333Y-39485714D01*
X168842857Y-39438095D01*
X168747619Y-39390476D01*
X168700000Y-39342857D01*
X168652380Y-39247619D01*
X169652380Y-42914285D02*
X169652380Y-43485714D01*
X169652380Y-43200000D02*
X168652380Y-43200000D01*
X168795238Y-43295238D01*
X168890476Y-43390476D01*
X168938095Y-43485714D01*
D11*
X168200000Y-45200000D02*
X168200000Y-37200000D01*
X170200000Y-33200000D02*
X170200000Y-45200000D01*
X179800000Y-33200000D02*
X179800000Y-45200000D01*
X170200000Y-35200000D02*
X179800000Y-35200000D01*
X166200000Y-37200000D02*
X179800000Y-37200000D01*
D10*
X178114285Y-35747619D02*
X178161904Y-35700000D01*
X178257142Y-35652380D01*
X178495238Y-35652380D01*
X178590476Y-35700000D01*
X178638095Y-35747619D01*
X178685714Y-35842857D01*
X178685714Y-35938095D01*
X178638095Y-36080952D01*
X178066666Y-36652380D01*
X178685714Y-36652380D01*
X173071428Y-34557142D02*
X173023809Y-34604761D01*
X172880952Y-34652380D01*
X172785714Y-34652380D01*
X172642857Y-34604761D01*
X172547619Y-34509523D01*
X172500000Y-34414285D01*
X172452380Y-34223809D01*
X172452380Y-34080952D01*
X172500000Y-33890476D01*
X172547619Y-33795238D01*
X172642857Y-33700000D01*
X172785714Y-33652380D01*
X172880952Y-33652380D01*
X173023809Y-33700000D01*
X173071428Y-33747619D01*
X173452380Y-34604761D02*
X173595238Y-34652380D01*
X173833333Y-34652380D01*
X173928571Y-34604761D01*
X173976190Y-34557142D01*
X174023809Y-34461904D01*
X174023809Y-34366666D01*
X173976190Y-34271428D01*
X173928571Y-34223809D01*
X173833333Y-34176190D01*
X173642857Y-34128571D01*
X173547619Y-34080952D01*
X173500000Y-34033333D01*
X173452380Y-33938095D01*
X173452380Y-33842857D01*
X173500000Y-33747619D01*
X173547619Y-33700000D01*
X173642857Y-33652380D01*
X173880952Y-33652380D01*
X174023809Y-33700000D01*
X175357142Y-34652380D02*
X175261904Y-34604761D01*
X175214285Y-34509523D01*
X175214285Y-33652380D01*
X175738095Y-34652380D02*
X175738095Y-33985714D01*
X175738095Y-33652380D02*
X175690476Y-33700000D01*
X175738095Y-33747619D01*
X175785714Y-33700000D01*
X175738095Y-33652380D01*
X175738095Y-33747619D01*
X176214285Y-33985714D02*
X176214285Y-34652380D01*
X176214285Y-34080952D02*
X176261904Y-34033333D01*
X176357142Y-33985714D01*
X176500000Y-33985714D01*
X176595238Y-34033333D01*
X176642857Y-34128571D01*
X176642857Y-34652380D01*
X177500000Y-34604761D02*
X177404761Y-34652380D01*
X177214285Y-34652380D01*
X177119047Y-34604761D01*
X177071428Y-34509523D01*
X177071428Y-34128571D01*
X177119047Y-34033333D01*
X177214285Y-33985714D01*
X177404761Y-33985714D01*
X177500000Y-34033333D01*
X177547619Y-34128571D01*
X177547619Y-34223809D01*
X177071428Y-34319047D01*
X171552380Y-35652380D02*
X171647619Y-35652380D01*
X171742857Y-35700000D01*
X171790476Y-35747619D01*
X171838095Y-35842857D01*
X171885714Y-36033333D01*
X171885714Y-36271428D01*
X171838095Y-36461904D01*
X171790476Y-36557142D01*
X171742857Y-36604761D01*
X171647619Y-36652380D01*
X171552380Y-36652380D01*
X171457142Y-36604761D01*
X171409523Y-36557142D01*
X171361904Y-36461904D01*
X171314285Y-36271428D01*
X171314285Y-36033333D01*
X171361904Y-35842857D01*
X171409523Y-35747619D01*
X171457142Y-35700000D01*
X171552380Y-35652380D01*
X175285714Y-36652380D02*
X174714285Y-36652380D01*
X175000000Y-36652380D02*
X175000000Y-35652380D01*
X174904761Y-35795238D01*
X174809523Y-35890476D01*
X174714285Y-35938095D01*
D11*
X168200000Y-41200000D02*
X179800000Y-41200000D01*
X179800000Y-45200000D02*
X166200000Y-45200000D01*
X194400000Y-45200000D02*
X180800000Y-45200000D01*
X182800000Y-41200000D02*
X194400000Y-41200000D01*
X194400000Y-35200000D02*
X194400000Y-45200000D01*
D10*
X184252380Y-42914285D02*
X184252380Y-43485714D01*
X184252380Y-43200000D02*
X183252380Y-43200000D01*
X183395238Y-43295238D01*
X183490476Y-43390476D01*
X183538095Y-43485714D01*
D11*
X184800000Y-45200000D02*
X184800000Y-37200000D01*
D12*
X117037857Y-31878571D02*
X117323571Y-31878571D01*
X117466428Y-31950000D01*
X117609285Y-32092857D01*
X117680714Y-32378571D01*
X117680714Y-32878571D01*
X117609285Y-33164285D01*
X117466428Y-33307142D01*
X117323571Y-33378571D01*
X117037857Y-33378571D01*
X116895000Y-33307142D01*
X116752142Y-33164285D01*
X116680714Y-32878571D01*
X116680714Y-32378571D01*
X116752142Y-32092857D01*
X116895000Y-31950000D01*
X117037857Y-31878571D01*
X118323571Y-33378571D02*
X118323571Y-31878571D01*
X118895000Y-31878571D01*
X119037857Y-31950000D01*
X119109285Y-32021428D01*
X119180714Y-32164285D01*
X119180714Y-32378571D01*
X119109285Y-32521428D01*
X119037857Y-32592857D01*
X118895000Y-32664285D01*
X118323571Y-32664285D01*
X119823571Y-33378571D02*
X119823571Y-31878571D01*
X120680714Y-33378571D02*
X120037857Y-32521428D01*
X120680714Y-31878571D02*
X119823571Y-32735714D01*
X121323571Y-32592857D02*
X121823571Y-32592857D01*
X122037857Y-33378571D02*
X121323571Y-33378571D01*
X121323571Y-31878571D01*
X122037857Y-31878571D01*
X122966428Y-32664285D02*
X122966428Y-33378571D01*
X122466428Y-31878571D02*
X122966428Y-32664285D01*
X123466428Y-31878571D01*
D13*
X116958571Y-34352380D02*
X117149047Y-34352380D01*
X117244285Y-34400000D01*
X117339523Y-34495238D01*
X117387142Y-34685714D01*
X117387142Y-35019047D01*
X117339523Y-35209523D01*
X117244285Y-35304761D01*
X117149047Y-35352380D01*
X116958571Y-35352380D01*
X116863333Y-35304761D01*
X116768095Y-35209523D01*
X116720476Y-35019047D01*
X116720476Y-34685714D01*
X116768095Y-34495238D01*
X116863333Y-34400000D01*
X116958571Y-34352380D01*
X117815714Y-34685714D02*
X117815714Y-35685714D01*
X117815714Y-34733333D02*
X117910952Y-34685714D01*
X118101428Y-34685714D01*
X118196666Y-34733333D01*
X118244285Y-34780952D01*
X118291904Y-34876190D01*
X118291904Y-35161904D01*
X118244285Y-35257142D01*
X118196666Y-35304761D01*
X118101428Y-35352380D01*
X117910952Y-35352380D01*
X117815714Y-35304761D01*
X118577619Y-34685714D02*
X118958571Y-34685714D01*
X118720476Y-34352380D02*
X118720476Y-35209523D01*
X118768095Y-35304761D01*
X118863333Y-35352380D01*
X118958571Y-35352380D01*
X119291904Y-35352380D02*
X119291904Y-34685714D01*
X119291904Y-34352380D02*
X119244285Y-34400000D01*
X119291904Y-34447619D01*
X119339523Y-34400000D01*
X119291904Y-34352380D01*
X119291904Y-34447619D01*
X120196666Y-35304761D02*
X120101428Y-35352380D01*
X119910952Y-35352380D01*
X119815714Y-35304761D01*
X119768095Y-35257142D01*
X119720476Y-35161904D01*
X119720476Y-34876190D01*
X119768095Y-34780952D01*
X119815714Y-34733333D01*
X119910952Y-34685714D01*
X120101428Y-34685714D01*
X120196666Y-34733333D01*
X121053809Y-35352380D02*
X121053809Y-34828571D01*
X121006190Y-34733333D01*
X120910952Y-34685714D01*
X120720476Y-34685714D01*
X120625238Y-34733333D01*
X121053809Y-35304761D02*
X120958571Y-35352380D01*
X120720476Y-35352380D01*
X120625238Y-35304761D01*
X120577619Y-35209523D01*
X120577619Y-35114285D01*
X120625238Y-35019047D01*
X120720476Y-34971428D01*
X120958571Y-34971428D01*
X121053809Y-34923809D01*
X121672857Y-35352380D02*
X121577619Y-35304761D01*
X121530000Y-35209523D01*
X121530000Y-34352380D01*
X122768095Y-35304761D02*
X122910952Y-35352380D01*
X123149047Y-35352380D01*
X123244285Y-35304761D01*
X123291904Y-35257142D01*
X123339523Y-35161904D01*
X123339523Y-35066666D01*
X123291904Y-34971428D01*
X123244285Y-34923809D01*
X123149047Y-34876190D01*
X122958571Y-34828571D01*
X122863333Y-34780952D01*
X122815714Y-34733333D01*
X122768095Y-34638095D01*
X122768095Y-34542857D01*
X122815714Y-34447619D01*
X122863333Y-34400000D01*
X122958571Y-34352380D01*
X123196666Y-34352380D01*
X123339523Y-34400000D01*
X124149047Y-35304761D02*
X124053809Y-35352380D01*
X123863333Y-35352380D01*
X123768095Y-35304761D01*
X123720476Y-35209523D01*
X123720476Y-34828571D01*
X123768095Y-34733333D01*
X123863333Y-34685714D01*
X124053809Y-34685714D01*
X124149047Y-34733333D01*
X124196666Y-34828571D01*
X124196666Y-34923809D01*
X123720476Y-35019047D01*
X124625238Y-34685714D02*
X124625238Y-35352380D01*
X124625238Y-34780952D02*
X124672857Y-34733333D01*
X124768095Y-34685714D01*
X124910952Y-34685714D01*
X125006190Y-34733333D01*
X125053809Y-34828571D01*
X125053809Y-35352380D01*
X125482380Y-35304761D02*
X125577619Y-35352380D01*
X125768095Y-35352380D01*
X125863333Y-35304761D01*
X125910952Y-35209523D01*
X125910952Y-35161904D01*
X125863333Y-35066666D01*
X125768095Y-35019047D01*
X125625238Y-35019047D01*
X125530000Y-34971428D01*
X125482380Y-34876190D01*
X125482380Y-34828571D01*
X125530000Y-34733333D01*
X125625238Y-34685714D01*
X125768095Y-34685714D01*
X125863333Y-34733333D01*
X126482380Y-35352380D02*
X126387142Y-35304761D01*
X126339523Y-35257142D01*
X126291904Y-35161904D01*
X126291904Y-34876190D01*
X126339523Y-34780952D01*
X126387142Y-34733333D01*
X126482380Y-34685714D01*
X126625238Y-34685714D01*
X126720476Y-34733333D01*
X126768095Y-34780952D01*
X126815714Y-34876190D01*
X126815714Y-35161904D01*
X126768095Y-35257142D01*
X126720476Y-35304761D01*
X126625238Y-35352380D01*
X126482380Y-35352380D01*
X127244285Y-35352380D02*
X127244285Y-34685714D01*
X127244285Y-34876190D02*
X127291904Y-34780952D01*
X127339523Y-34733333D01*
X127434761Y-34685714D01*
X127530000Y-34685714D01*
X128577619Y-35066666D02*
X129053809Y-35066666D01*
X128482380Y-35352380D02*
X128815714Y-34352380D01*
X129149047Y-35352380D01*
X129482380Y-35352380D02*
X129482380Y-34685714D01*
X129482380Y-34876190D02*
X129530000Y-34780952D01*
X129577619Y-34733333D01*
X129672857Y-34685714D01*
X129768095Y-34685714D01*
X130101428Y-35352380D02*
X130101428Y-34685714D01*
X130101428Y-34876190D02*
X130149047Y-34780952D01*
X130196666Y-34733333D01*
X130291904Y-34685714D01*
X130387142Y-34685714D01*
X131149047Y-35352380D02*
X131149047Y-34828571D01*
X131101428Y-34733333D01*
X131006190Y-34685714D01*
X130815714Y-34685714D01*
X130720476Y-34733333D01*
X131149047Y-35304761D02*
X131053809Y-35352380D01*
X130815714Y-35352380D01*
X130720476Y-35304761D01*
X130672857Y-35209523D01*
X130672857Y-35114285D01*
X130720476Y-35019047D01*
X130815714Y-34971428D01*
X131053809Y-34971428D01*
X131149047Y-34923809D01*
X131530000Y-34685714D02*
X131768095Y-35352380D01*
X132006190Y-34685714D02*
X131768095Y-35352380D01*
X131672857Y-35590476D01*
X131625238Y-35638095D01*
X131530000Y-35685714D01*
D11*
X172800000Y-38500000D02*
X172800000Y-39900000D01*
X172100000Y-40600000D02*
X171500000Y-40600000D01*
X170800000Y-39900000D02*
X170800000Y-38500000D01*
X171500000Y-37800000D02*
X172100000Y-37800000D01*
X172800000Y-38500000D02*
G75*
G03X172100000Y-37800000I-700000J0D01*
G01*
X171500000Y-37800000D02*
G75*
G03X170800000Y-38500000I0J-700000D01*
G01*
X170800000Y-39900000D02*
G75*
G03X171500000Y-40600000I700000J0D01*
G01*
X172100000Y-40600000D02*
G75*
G03X172800000Y-39900000I0J700000D01*
G01*
X176000000Y-38500000D02*
X176000000Y-39900000D01*
X175300000Y-40600000D02*
X174700000Y-40600000D01*
X174000000Y-39900000D02*
X174000000Y-38500000D01*
X174700000Y-37800000D02*
X175300000Y-37800000D01*
X176000000Y-38500000D02*
G75*
G03X175300000Y-37800000I-700000J0D01*
G01*
X174700000Y-37800000D02*
G75*
G03X174000000Y-38500000I0J-700000D01*
G01*
X174000000Y-39900000D02*
G75*
G03X174700000Y-40600000I700000J0D01*
G01*
X175300000Y-40600000D02*
G75*
G03X176000000Y-39900000I0J700000D01*
G01*
X179200000Y-38500000D02*
X179200000Y-39900000D01*
X178500000Y-40600000D02*
X177900000Y-40600000D01*
X177200000Y-39900000D02*
X177200000Y-38500000D01*
X177900000Y-37800000D02*
X178500000Y-37800000D01*
X179200000Y-38500000D02*
G75*
G03X178500000Y-37800000I-700000J0D01*
G01*
X177900000Y-37800000D02*
G75*
G03X177200000Y-38500000I0J-700000D01*
G01*
X177200000Y-39900000D02*
G75*
G03X177900000Y-40600000I700000J0D01*
G01*
X178500000Y-40600000D02*
G75*
G03X179200000Y-39900000I0J700000D01*
G01*
X172800000Y-42500000D02*
X172800000Y-43900000D01*
X172100000Y-44600000D02*
X171500000Y-44600000D01*
X170800000Y-43900000D02*
X170800000Y-42500000D01*
X171500000Y-41800000D02*
X172100000Y-41800000D01*
X172800000Y-42500000D02*
G75*
G03X172100000Y-41800000I-700000J0D01*
G01*
X171500000Y-41800000D02*
G75*
G03X170800000Y-42500000I0J-700000D01*
G01*
X170800000Y-43900000D02*
G75*
G03X171500000Y-44600000I700000J0D01*
G01*
X172100000Y-44600000D02*
G75*
G03X172800000Y-43900000I0J700000D01*
G01*
X176000000Y-42500000D02*
X176000000Y-43900000D01*
X175300000Y-44600000D02*
X174700000Y-44600000D01*
X174000000Y-43900000D02*
X174000000Y-42500000D01*
X174700000Y-41800000D02*
X175300000Y-41800000D01*
X176000000Y-42500000D02*
G75*
G03X175300000Y-41800000I-700000J0D01*
G01*
X174700000Y-41800000D02*
G75*
G03X174000000Y-42500000I0J-700000D01*
G01*
X174000000Y-43900000D02*
G75*
G03X174700000Y-44600000I700000J0D01*
G01*
X175300000Y-44600000D02*
G75*
G03X176000000Y-43900000I0J700000D01*
G01*
X179200000Y-42500000D02*
X179200000Y-43900000D01*
X178500000Y-44600000D02*
X177900000Y-44600000D01*
X177200000Y-43900000D02*
X177200000Y-42500000D01*
X177900000Y-41800000D02*
X178500000Y-41800000D01*
X179200000Y-42500000D02*
G75*
G03X178500000Y-41800000I-700000J0D01*
G01*
X177900000Y-41800000D02*
G75*
G03X177200000Y-42500000I0J-700000D01*
G01*
X177200000Y-43900000D02*
G75*
G03X177900000Y-44600000I700000J0D01*
G01*
X178500000Y-44600000D02*
G75*
G03X179200000Y-43900000I0J700000D01*
G01*
X187400000Y-38500000D02*
X187400000Y-39900000D01*
X186700000Y-40600000D02*
X186100000Y-40600000D01*
X185400000Y-39900000D02*
X185400000Y-38500000D01*
X186100000Y-37800000D02*
X186700000Y-37800000D01*
X187400000Y-38500000D02*
G75*
G03X186700000Y-37800000I-700000J0D01*
G01*
X186100000Y-37800000D02*
G75*
G03X185400000Y-38500000I0J-700000D01*
G01*
X185400000Y-39900000D02*
G75*
G03X186100000Y-40600000I700000J0D01*
G01*
X186700000Y-40600000D02*
G75*
G03X187400000Y-39900000I0J700000D01*
G01*
X187400000Y-42500000D02*
X187400000Y-43900000D01*
X186700000Y-44600000D02*
X186100000Y-44600000D01*
X185400000Y-43900000D02*
X185400000Y-42500000D01*
X186100000Y-41800000D02*
X186700000Y-41800000D01*
X187400000Y-42500000D02*
G75*
G03X186700000Y-41800000I-700000J0D01*
G01*
X186100000Y-41800000D02*
G75*
G03X185400000Y-42500000I0J-700000D01*
G01*
X185400000Y-43900000D02*
G75*
G03X186100000Y-44600000I700000J0D01*
G01*
X186700000Y-44600000D02*
G75*
G03X187400000Y-43900000I0J700000D01*
G01*
X190600000Y-38500000D02*
X190600000Y-39900000D01*
X189900000Y-40600000D02*
X189300000Y-40600000D01*
X188600000Y-39900000D02*
X188600000Y-38500000D01*
X189300000Y-37800000D02*
X189900000Y-37800000D01*
X190600000Y-38500000D02*
G75*
G03X189900000Y-37800000I-700000J0D01*
G01*
X189300000Y-37800000D02*
G75*
G03X188600000Y-38500000I0J-700000D01*
G01*
X188600000Y-39900000D02*
G75*
G03X189300000Y-40600000I700000J0D01*
G01*
X189900000Y-40600000D02*
G75*
G03X190600000Y-39900000I0J700000D01*
G01*
X190600000Y-42500000D02*
X190600000Y-43900000D01*
X189900000Y-44600000D02*
X189300000Y-44600000D01*
X188600000Y-43900000D02*
X188600000Y-42500000D01*
X189300000Y-41800000D02*
X189900000Y-41800000D01*
X190600000Y-42500000D02*
G75*
G03X189900000Y-41800000I-700000J0D01*
G01*
X189300000Y-41800000D02*
G75*
G03X188600000Y-42500000I0J-700000D01*
G01*
X188600000Y-43900000D02*
G75*
G03X189300000Y-44600000I700000J0D01*
G01*
X189900000Y-44600000D02*
G75*
G03X190600000Y-43900000I0J700000D01*
G01*
X193800000Y-38500000D02*
X193800000Y-39900000D01*
X193100000Y-40600000D02*
X192500000Y-40600000D01*
X191800000Y-39900000D02*
X191800000Y-38500000D01*
X192500000Y-37800000D02*
X193100000Y-37800000D01*
X193800000Y-38500000D02*
G75*
G03X193100000Y-37800000I-700000J0D01*
G01*
X192500000Y-37800000D02*
G75*
G03X191800000Y-38500000I0J-700000D01*
G01*
X191800000Y-39900000D02*
G75*
G03X192500000Y-40600000I700000J0D01*
G01*
X193100000Y-40600000D02*
G75*
G03X193800000Y-39900000I0J700000D01*
G01*
X193800000Y-42500000D02*
X193800000Y-43900000D01*
X193100000Y-44600000D02*
X192500000Y-44600000D01*
X191800000Y-43900000D02*
X191800000Y-42500000D01*
X192500000Y-41800000D02*
X193100000Y-41800000D01*
X193800000Y-42500000D02*
G75*
G03X193100000Y-41800000I-700000J0D01*
G01*
X192500000Y-41800000D02*
G75*
G03X191800000Y-42500000I0J-700000D01*
G01*
X191800000Y-43900000D02*
G75*
G03X192500000Y-44600000I700000J0D01*
G01*
X193100000Y-44600000D02*
G75*
G03X193800000Y-43900000I0J700000D01*
G01*
D13*
X51000000Y-33200000D02*
X50000000Y-32200000D01*
X50000000Y-32200000D02*
X50200000Y-32900000D01*
X50000000Y-32200000D02*
X50700000Y-32400000D01*
X48700000Y-32700000D02*
X49400000Y-32900000D01*
X48700000Y-32700000D02*
X48900000Y-33400000D01*
X49700000Y-33700000D02*
X48700000Y-32700000D01*
X50200000Y-34850000D02*
X49000000Y-34850000D01*
D11*
X50200000Y-35850000D02*
X50200000Y-34850000D01*
D13*
X50200000Y-33850000D02*
X50200000Y-35850000D01*
X50200000Y-34850000D02*
X52200000Y-35850000D01*
X52200000Y-33850000D02*
X50200000Y-34850000D01*
X52200000Y-35850000D02*
X52200000Y-33850000D01*
X53400000Y-34850000D02*
X52200000Y-34850000D01*
D11*
X56500000Y-39000000D02*
X56000000Y-39500000D01*
X55750000Y-39000000D02*
X55250000Y-39500000D01*
X55000000Y-39000000D02*
X54500000Y-39500000D01*
X52750000Y-39000000D02*
X52250000Y-39500000D01*
X52000000Y-39000000D02*
X51500000Y-39500000D01*
X53500000Y-39000000D02*
X53000000Y-39500000D01*
X51250000Y-39000000D02*
X50750000Y-39500000D01*
X54250000Y-39000000D02*
X53750000Y-39500000D01*
X54500000Y-35000000D02*
G75*
G03X55750000Y-36250000I1250000J0D01*
G01*
X57000000Y-37500000D02*
G75*
G03X55750000Y-36250000I-1250000J0D01*
G01*
X54500000Y-35000000D02*
G75*
G03X47000000Y-35000000I-3750000J0D01*
G01*
X57000000Y-39500000D02*
X57000000Y-37500000D01*
X56500000Y-39500000D02*
X57000000Y-39500000D01*
X47000000Y-39500000D02*
X47000000Y-35000000D01*
X47500000Y-39500000D02*
X47000000Y-39500000D01*
D14*
G36*
X55250000Y-40500000D02*
G01*
X55250000Y-39500000D01*
X55750000Y-39500000D01*
X55750000Y-40500000D01*
X55250000Y-40500000D01*
G37*
X55250000Y-40500000D02*
X55250000Y-39500000D01*
X55750000Y-39500000D01*
X55750000Y-40500000D01*
X55250000Y-40500000D01*
G36*
X54250000Y-40500000D02*
G01*
X54250000Y-39500000D01*
X54750000Y-39500000D01*
X54750000Y-40500000D01*
X54250000Y-40500000D01*
G37*
X54250000Y-40500000D02*
X54250000Y-39500000D01*
X54750000Y-39500000D01*
X54750000Y-40500000D01*
X54250000Y-40500000D01*
G36*
X52750000Y-40500000D02*
G01*
X52750000Y-39500000D01*
X53250000Y-39500000D01*
X53250000Y-40500000D01*
X52750000Y-40500000D01*
G37*
X52750000Y-40500000D02*
X52750000Y-39500000D01*
X53250000Y-39500000D01*
X53250000Y-40500000D01*
X52750000Y-40500000D01*
G36*
X51750000Y-40500000D02*
G01*
X51750000Y-39500000D01*
X52250000Y-39500000D01*
X52250000Y-40500000D01*
X51750000Y-40500000D01*
G37*
X51750000Y-40500000D02*
X51750000Y-39500000D01*
X52250000Y-39500000D01*
X52250000Y-40500000D01*
X51750000Y-40500000D01*
G36*
X50750000Y-40500000D02*
G01*
X50750000Y-39500000D01*
X51250000Y-39500000D01*
X51250000Y-40500000D01*
X50750000Y-40500000D01*
G37*
X50750000Y-40500000D02*
X50750000Y-39500000D01*
X51250000Y-39500000D01*
X51250000Y-40500000D01*
X50750000Y-40500000D01*
G36*
X49250000Y-40500000D02*
G01*
X49250000Y-39500000D01*
X49750000Y-39500000D01*
X49750000Y-40500000D01*
X49250000Y-40500000D01*
G37*
X49250000Y-40500000D02*
X49250000Y-39500000D01*
X49750000Y-39500000D01*
X49750000Y-40500000D01*
X49250000Y-40500000D01*
G36*
X48250000Y-40500000D02*
G01*
X48250000Y-39500000D01*
X48750000Y-39500000D01*
X48750000Y-40500000D01*
X48250000Y-40500000D01*
G37*
X48250000Y-40500000D02*
X48250000Y-39500000D01*
X48750000Y-39500000D01*
X48750000Y-40500000D01*
X48250000Y-40500000D01*
D11*
X56500000Y-41000000D02*
X56500000Y-39500000D01*
X47500000Y-41000000D02*
X56500000Y-41000000D01*
X47500000Y-39500000D02*
X47500000Y-41000000D01*
X56500000Y-39500000D02*
X47500000Y-39500000D01*
X47500000Y-39000000D02*
X47000000Y-39500000D01*
X48250000Y-39000000D02*
X47750000Y-39500000D01*
X49000000Y-39000000D02*
X48500000Y-39500000D01*
X49750000Y-39000000D02*
X49250000Y-39500000D01*
X50500000Y-39000000D02*
X50000000Y-39500000D01*
X44820000Y-53240000D02*
X44820000Y-51260000D01*
X45170000Y-53240000D02*
X44820000Y-53240000D01*
X45170000Y-54010000D02*
X45170000Y-53240000D01*
X43120000Y-54010000D02*
X45170000Y-54010000D01*
X41000000Y-54010000D02*
X41300000Y-54010000D01*
X41000000Y-53210000D02*
X41000000Y-54010000D01*
X39700000Y-53210000D02*
X41000000Y-53210000D01*
X39700000Y-32390000D02*
X39700000Y-53210000D01*
X41000000Y-32390000D02*
X39700000Y-32390000D01*
X41000000Y-31590000D02*
X41000000Y-32390000D01*
X41300000Y-31590000D02*
X41000000Y-31590000D01*
X45170000Y-31590000D02*
X43120000Y-31590000D01*
X45170000Y-32360000D02*
X45170000Y-31590000D01*
X44820000Y-32360000D02*
X45170000Y-32360000D01*
X44820000Y-34340000D02*
X44820000Y-32360000D01*
X45410000Y-34340000D02*
X44820000Y-34340000D01*
X58810000Y-47961252D02*
X58810000Y-47438748D01*
X57390000Y-47961252D02*
X57390000Y-47438748D01*
X68210000Y-50061252D02*
X68210000Y-49538748D01*
X66790000Y-50061252D02*
X66790000Y-49538748D01*
X42310000Y-56838748D02*
X42310000Y-57361252D01*
X40890000Y-56838748D02*
X40890000Y-57361252D01*
X54720769Y-56838748D02*
X54720769Y-57361252D01*
X56140769Y-56838748D02*
X56140769Y-57361252D01*
X68551538Y-56838748D02*
X68551538Y-57361252D01*
X69971538Y-56838748D02*
X69971538Y-57361252D01*
X83802307Y-56838748D02*
X83802307Y-57361252D01*
X82382307Y-56838748D02*
X82382307Y-57361252D01*
X84010000Y-47911252D02*
X84010000Y-47388748D01*
X82590000Y-47911252D02*
X82590000Y-47388748D01*
X71110000Y-49538748D02*
X71110000Y-50061252D01*
X69690000Y-49538748D02*
X69690000Y-50061252D01*
X43790000Y-57361252D02*
X43790000Y-56838748D01*
X45210000Y-57361252D02*
X45210000Y-56838748D01*
X57620769Y-57361252D02*
X57620769Y-56838748D01*
X59040769Y-57361252D02*
X59040769Y-56838748D01*
X71451538Y-57361252D02*
X71451538Y-56838748D01*
X72871538Y-57361252D02*
X72871538Y-56838748D01*
X86702307Y-57361252D02*
X86702307Y-56838748D01*
X85282307Y-57361252D02*
X85282307Y-56838748D01*
X50536667Y-47500000D02*
X50536667Y-47900000D01*
X51636667Y-46100000D02*
X54536667Y-46100000D01*
X54536667Y-46100000D02*
X54536667Y-46700000D01*
X51636667Y-49300000D02*
X54536667Y-49300000D01*
X54536667Y-49300000D02*
X54536667Y-48700000D01*
X50736667Y-45900000D02*
X50036667Y-45900000D01*
X50036667Y-45900000D02*
X50036667Y-46600000D01*
X75203333Y-45900000D02*
X75203333Y-46600000D01*
X75903333Y-45900000D02*
X75203333Y-45900000D01*
X79703333Y-49300000D02*
X79703333Y-48700000D01*
X76803333Y-49300000D02*
X79703333Y-49300000D01*
X79703333Y-46100000D02*
X79703333Y-46700000D01*
X76803333Y-46100000D02*
X79703333Y-46100000D01*
X75703333Y-47500000D02*
X75703333Y-47900000D01*
X37100000Y-58800000D02*
X32900000Y-58800000D01*
X37100000Y-55400000D02*
X34300000Y-55400000D01*
X50933333Y-55400000D02*
X48133333Y-55400000D01*
X50933333Y-58800000D02*
X46733333Y-58800000D01*
X64766667Y-58800000D02*
X60566667Y-58800000D01*
X64766667Y-55400000D02*
X61966667Y-55400000D01*
X78600000Y-55400000D02*
X75800000Y-55400000D01*
X78600000Y-58800000D02*
X74400000Y-58800000D01*
X92433333Y-58800000D02*
X88233333Y-58800000D01*
X92433333Y-55400000D02*
X89633333Y-55400000D01*
D15*
G36*
X146639878Y-45687776D02*
G01*
X146745612Y-45688355D01*
X146822132Y-45689922D01*
X146874372Y-45692972D01*
X146907263Y-45697996D01*
X146925737Y-45705489D01*
X146934727Y-45715944D01*
X146939163Y-45729853D01*
X146939594Y-45731654D01*
X146946333Y-45764145D01*
X146958808Y-45828252D01*
X146975719Y-45917151D01*
X146995771Y-46024019D01*
X147017664Y-46142033D01*
X147018429Y-46146178D01*
X147040359Y-46261831D01*
X147060877Y-46364014D01*
X147078659Y-46446598D01*
X147092381Y-46503456D01*
X147100718Y-46528458D01*
X147101116Y-46528901D01*
X147125677Y-46541110D01*
X147176315Y-46561456D01*
X147242095Y-46585545D01*
X147242461Y-46585674D01*
X147325317Y-46616818D01*
X147423000Y-46656491D01*
X147515077Y-46696381D01*
X147519434Y-46698353D01*
X147669407Y-46766420D01*
X148001498Y-46539639D01*
X148103374Y-46470504D01*
X148195657Y-46408697D01*
X148273003Y-46357733D01*
X148330064Y-46321127D01*
X148361495Y-46302394D01*
X148364479Y-46301004D01*
X148387321Y-46307190D01*
X148429982Y-46337035D01*
X148494128Y-46391947D01*
X148581421Y-46473334D01*
X148670535Y-46559922D01*
X148756441Y-46645247D01*
X148833327Y-46723108D01*
X148896564Y-46788697D01*
X148941523Y-46837205D01*
X148963576Y-46863825D01*
X148964396Y-46865195D01*
X148966834Y-46883463D01*
X148957650Y-46913295D01*
X148934574Y-46958721D01*
X148895337Y-47023770D01*
X148837670Y-47112470D01*
X148760795Y-47226657D01*
X148692570Y-47327162D01*
X148631582Y-47417303D01*
X148581356Y-47491849D01*
X148545416Y-47545565D01*
X148527287Y-47573218D01*
X148526146Y-47575095D01*
X148528359Y-47601590D01*
X148545138Y-47653086D01*
X148573142Y-47719851D01*
X148583122Y-47741172D01*
X148626672Y-47836159D01*
X148673134Y-47943937D01*
X148710877Y-48037192D01*
X148738073Y-48106406D01*
X148759675Y-48159006D01*
X148772158Y-48186497D01*
X148773709Y-48188616D01*
X148796668Y-48192124D01*
X148850786Y-48201738D01*
X148928868Y-48216089D01*
X149023719Y-48233807D01*
X149128143Y-48253525D01*
X149234944Y-48273874D01*
X149336926Y-48293486D01*
X149426894Y-48310991D01*
X149497653Y-48325022D01*
X149542006Y-48334209D01*
X149552885Y-48336807D01*
X149564122Y-48343218D01*
X149572605Y-48357697D01*
X149578714Y-48385133D01*
X149582832Y-48430411D01*
X149585341Y-48498420D01*
X149586621Y-48594047D01*
X149587054Y-48722180D01*
X149587077Y-48774701D01*
X149587077Y-49201845D01*
X149484500Y-49222091D01*
X149427431Y-49233070D01*
X149342269Y-49249095D01*
X149239372Y-49268233D01*
X149129096Y-49288551D01*
X149098615Y-49294132D01*
X148996855Y-49313917D01*
X148908205Y-49333373D01*
X148840108Y-49350697D01*
X148800004Y-49364088D01*
X148793323Y-49368079D01*
X148776919Y-49396342D01*
X148753399Y-49451109D01*
X148727316Y-49521588D01*
X148722142Y-49536769D01*
X148687956Y-49630896D01*
X148645523Y-49737101D01*
X148603997Y-49832473D01*
X148603792Y-49832916D01*
X148534640Y-49982525D01*
X148989512Y-50651617D01*
X148697500Y-50944116D01*
X148609180Y-51031170D01*
X148528625Y-51107909D01*
X148460360Y-51170237D01*
X148408908Y-51214056D01*
X148378794Y-51235270D01*
X148374474Y-51236616D01*
X148349111Y-51226016D01*
X148297358Y-51196547D01*
X148224868Y-51151705D01*
X148137294Y-51094984D01*
X148042612Y-51031462D01*
X147946516Y-50966668D01*
X147860837Y-50910287D01*
X147791016Y-50865788D01*
X147742494Y-50836639D01*
X147720782Y-50826308D01*
X147694293Y-50835050D01*
X147644062Y-50858087D01*
X147580451Y-50890631D01*
X147573708Y-50894249D01*
X147488046Y-50937210D01*
X147429306Y-50958279D01*
X147392772Y-50958503D01*
X147373731Y-50938928D01*
X147373620Y-50938654D01*
X147364102Y-50915472D01*
X147341403Y-50860441D01*
X147307282Y-50777822D01*
X147263500Y-50671872D01*
X147211816Y-50546852D01*
X147153992Y-50407020D01*
X147097991Y-50271637D01*
X147036447Y-50122234D01*
X146979939Y-49983832D01*
X146930161Y-49860673D01*
X146888806Y-49757002D01*
X146857568Y-49677059D01*
X146838141Y-49625088D01*
X146832154Y-49605692D01*
X146847168Y-49583443D01*
X146886439Y-49547982D01*
X146938807Y-49508887D01*
X147087941Y-49385245D01*
X147204511Y-49243522D01*
X147287118Y-49086704D01*
X147334366Y-48917775D01*
X147344857Y-48739722D01*
X147337231Y-48657539D01*
X147295682Y-48487031D01*
X147224123Y-48336459D01*
X147126995Y-48207309D01*
X147008734Y-48101064D01*
X146873780Y-48019210D01*
X146726571Y-47963232D01*
X146571544Y-47934615D01*
X146413139Y-47934844D01*
X146255794Y-47965405D01*
X146103946Y-48027782D01*
X145962035Y-48123460D01*
X145902803Y-48177572D01*
X145789203Y-48316520D01*
X145710106Y-48468361D01*
X145664986Y-48628667D01*
X145653316Y-48793012D01*
X145674569Y-48956971D01*
X145728220Y-49116118D01*
X145813740Y-49266025D01*
X145930605Y-49402267D01*
X146061193Y-49508887D01*
X146115588Y-49549642D01*
X146154014Y-49584718D01*
X146167846Y-49605726D01*
X146160603Y-49628635D01*
X146140005Y-49683365D01*
X146107746Y-49765672D01*
X146065521Y-49871315D01*
X146015023Y-49996050D01*
X145957948Y-50135636D01*
X145901854Y-50271670D01*
X145839967Y-50421201D01*
X145782644Y-50559767D01*
X145731644Y-50683107D01*
X145688727Y-50786964D01*
X145655653Y-50867080D01*
X145634181Y-50919195D01*
X145626225Y-50938654D01*
X145607429Y-50958423D01*
X145571074Y-50958365D01*
X145512479Y-50937441D01*
X145426968Y-50894613D01*
X145426292Y-50894249D01*
X145361907Y-50861012D01*
X145309861Y-50836802D01*
X145280512Y-50826404D01*
X145279217Y-50826308D01*
X145257124Y-50836855D01*
X145208348Y-50866184D01*
X145138331Y-50910827D01*
X145052514Y-50967314D01*
X144957388Y-51031462D01*
X144860540Y-51096411D01*
X144773253Y-51152896D01*
X144701181Y-51197421D01*
X144649977Y-51226490D01*
X144625526Y-51236616D01*
X144603010Y-51223307D01*
X144557742Y-51186112D01*
X144494244Y-51129128D01*
X144417039Y-51056449D01*
X144330651Y-50972171D01*
X144302399Y-50944016D01*
X144010287Y-50651416D01*
X144232631Y-50325104D01*
X144300202Y-50224897D01*
X144359507Y-50134963D01*
X144407217Y-50060510D01*
X144440007Y-50006751D01*
X144454548Y-49978894D01*
X144454974Y-49976912D01*
X144447308Y-49950655D01*
X144426689Y-49897837D01*
X144396685Y-49827310D01*
X144375625Y-49780093D01*
X144336248Y-49689694D01*
X144299165Y-49598366D01*
X144270415Y-49521200D01*
X144262605Y-49497692D01*
X144240417Y-49434916D01*
X144218727Y-49386411D01*
X144206813Y-49368079D01*
X144180523Y-49356859D01*
X144123142Y-49340954D01*
X144042118Y-49322167D01*
X143944895Y-49302299D01*
X143901385Y-49294132D01*
X143790896Y-49273829D01*
X143684916Y-49254170D01*
X143593801Y-49237088D01*
X143527908Y-49224518D01*
X143515500Y-49222091D01*
X143412923Y-49201845D01*
X143412923Y-48774701D01*
X143413153Y-48634246D01*
X143414099Y-48527979D01*
X143416141Y-48451013D01*
X143419662Y-48398460D01*
X143425043Y-48365433D01*
X143432666Y-48347045D01*
X143442912Y-48338408D01*
X143447115Y-48336807D01*
X143472470Y-48331127D01*
X143528484Y-48319795D01*
X143607964Y-48304179D01*
X143703712Y-48285647D01*
X143808533Y-48265569D01*
X143915232Y-48245312D01*
X144016613Y-48226246D01*
X144105479Y-48209739D01*
X144174637Y-48197159D01*
X144216889Y-48189875D01*
X144226290Y-48188616D01*
X144234807Y-48171763D01*
X144253660Y-48126870D01*
X144279324Y-48062430D01*
X144289123Y-48037192D01*
X144328648Y-47939686D01*
X144375192Y-47831959D01*
X144416877Y-47741172D01*
X144447550Y-47671753D01*
X144467956Y-47614710D01*
X144474768Y-47579777D01*
X144473682Y-47575095D01*
X144459285Y-47552991D01*
X144426412Y-47503831D01*
X144378590Y-47432848D01*
X144319348Y-47345278D01*
X144252215Y-47246357D01*
X144238941Y-47226830D01*
X144161046Y-47111140D01*
X144103787Y-47023044D01*
X144064881Y-46958486D01*
X144042044Y-46913411D01*
X144032994Y-46883763D01*
X144035448Y-46865485D01*
X144035511Y-46865369D01*
X144054827Y-46841361D01*
X144097551Y-46794947D01*
X144159051Y-46730937D01*
X144234698Y-46654145D01*
X144319861Y-46569382D01*
X144329465Y-46559922D01*
X144436790Y-46455989D01*
X144519615Y-46379675D01*
X144579605Y-46329571D01*
X144618423Y-46304270D01*
X144635520Y-46301004D01*
X144660473Y-46315250D01*
X144712255Y-46348156D01*
X144785520Y-46396208D01*
X144874920Y-46455890D01*
X144975111Y-46523688D01*
X144998501Y-46539639D01*
X145330593Y-46766420D01*
X145480565Y-46698353D01*
X145571770Y-46658685D01*
X145669669Y-46618791D01*
X145753831Y-46586983D01*
X145757538Y-46585674D01*
X145823369Y-46561576D01*
X145874116Y-46541200D01*
X145898842Y-46528936D01*
X145898884Y-46528901D01*
X145906729Y-46506734D01*
X145920066Y-46452217D01*
X145937570Y-46371480D01*
X145957917Y-46270650D01*
X145979782Y-46155856D01*
X145981571Y-46146178D01*
X146003504Y-46027904D01*
X146023640Y-45920542D01*
X146040680Y-45830917D01*
X146053328Y-45765851D01*
X146060284Y-45732168D01*
X146060406Y-45731654D01*
X146064639Y-45717325D01*
X146072871Y-45706507D01*
X146090033Y-45698706D01*
X146121058Y-45693429D01*
X146170878Y-45690182D01*
X146244424Y-45688472D01*
X146346629Y-45687807D01*
X146482425Y-45687693D01*
X146500000Y-45687692D01*
X146639878Y-45687776D01*
X146639878Y-45687776D01*
G37*
X146639878Y-45687776D02*
X146745612Y-45688355D01*
X146822132Y-45689922D01*
X146874372Y-45692972D01*
X146907263Y-45697996D01*
X146925737Y-45705489D01*
X146934727Y-45715944D01*
X146939163Y-45729853D01*
X146939594Y-45731654D01*
X146946333Y-45764145D01*
X146958808Y-45828252D01*
X146975719Y-45917151D01*
X146995771Y-46024019D01*
X147017664Y-46142033D01*
X147018429Y-46146178D01*
X147040359Y-46261831D01*
X147060877Y-46364014D01*
X147078659Y-46446598D01*
X147092381Y-46503456D01*
X147100718Y-46528458D01*
X147101116Y-46528901D01*
X147125677Y-46541110D01*
X147176315Y-46561456D01*
X147242095Y-46585545D01*
X147242461Y-46585674D01*
X147325317Y-46616818D01*
X147423000Y-46656491D01*
X147515077Y-46696381D01*
X147519434Y-46698353D01*
X147669407Y-46766420D01*
X148001498Y-46539639D01*
X148103374Y-46470504D01*
X148195657Y-46408697D01*
X148273003Y-46357733D01*
X148330064Y-46321127D01*
X148361495Y-46302394D01*
X148364479Y-46301004D01*
X148387321Y-46307190D01*
X148429982Y-46337035D01*
X148494128Y-46391947D01*
X148581421Y-46473334D01*
X148670535Y-46559922D01*
X148756441Y-46645247D01*
X148833327Y-46723108D01*
X148896564Y-46788697D01*
X148941523Y-46837205D01*
X148963576Y-46863825D01*
X148964396Y-46865195D01*
X148966834Y-46883463D01*
X148957650Y-46913295D01*
X148934574Y-46958721D01*
X148895337Y-47023770D01*
X148837670Y-47112470D01*
X148760795Y-47226657D01*
X148692570Y-47327162D01*
X148631582Y-47417303D01*
X148581356Y-47491849D01*
X148545416Y-47545565D01*
X148527287Y-47573218D01*
X148526146Y-47575095D01*
X148528359Y-47601590D01*
X148545138Y-47653086D01*
X148573142Y-47719851D01*
X148583122Y-47741172D01*
X148626672Y-47836159D01*
X148673134Y-47943937D01*
X148710877Y-48037192D01*
X148738073Y-48106406D01*
X148759675Y-48159006D01*
X148772158Y-48186497D01*
X148773709Y-48188616D01*
X148796668Y-48192124D01*
X148850786Y-48201738D01*
X148928868Y-48216089D01*
X149023719Y-48233807D01*
X149128143Y-48253525D01*
X149234944Y-48273874D01*
X149336926Y-48293486D01*
X149426894Y-48310991D01*
X149497653Y-48325022D01*
X149542006Y-48334209D01*
X149552885Y-48336807D01*
X149564122Y-48343218D01*
X149572605Y-48357697D01*
X149578714Y-48385133D01*
X149582832Y-48430411D01*
X149585341Y-48498420D01*
X149586621Y-48594047D01*
X149587054Y-48722180D01*
X149587077Y-48774701D01*
X149587077Y-49201845D01*
X149484500Y-49222091D01*
X149427431Y-49233070D01*
X149342269Y-49249095D01*
X149239372Y-49268233D01*
X149129096Y-49288551D01*
X149098615Y-49294132D01*
X148996855Y-49313917D01*
X148908205Y-49333373D01*
X148840108Y-49350697D01*
X148800004Y-49364088D01*
X148793323Y-49368079D01*
X148776919Y-49396342D01*
X148753399Y-49451109D01*
X148727316Y-49521588D01*
X148722142Y-49536769D01*
X148687956Y-49630896D01*
X148645523Y-49737101D01*
X148603997Y-49832473D01*
X148603792Y-49832916D01*
X148534640Y-49982525D01*
X148989512Y-50651617D01*
X148697500Y-50944116D01*
X148609180Y-51031170D01*
X148528625Y-51107909D01*
X148460360Y-51170237D01*
X148408908Y-51214056D01*
X148378794Y-51235270D01*
X148374474Y-51236616D01*
X148349111Y-51226016D01*
X148297358Y-51196547D01*
X148224868Y-51151705D01*
X148137294Y-51094984D01*
X148042612Y-51031462D01*
X147946516Y-50966668D01*
X147860837Y-50910287D01*
X147791016Y-50865788D01*
X147742494Y-50836639D01*
X147720782Y-50826308D01*
X147694293Y-50835050D01*
X147644062Y-50858087D01*
X147580451Y-50890631D01*
X147573708Y-50894249D01*
X147488046Y-50937210D01*
X147429306Y-50958279D01*
X147392772Y-50958503D01*
X147373731Y-50938928D01*
X147373620Y-50938654D01*
X147364102Y-50915472D01*
X147341403Y-50860441D01*
X147307282Y-50777822D01*
X147263500Y-50671872D01*
X147211816Y-50546852D01*
X147153992Y-50407020D01*
X147097991Y-50271637D01*
X147036447Y-50122234D01*
X146979939Y-49983832D01*
X146930161Y-49860673D01*
X146888806Y-49757002D01*
X146857568Y-49677059D01*
X146838141Y-49625088D01*
X146832154Y-49605692D01*
X146847168Y-49583443D01*
X146886439Y-49547982D01*
X146938807Y-49508887D01*
X147087941Y-49385245D01*
X147204511Y-49243522D01*
X147287118Y-49086704D01*
X147334366Y-48917775D01*
X147344857Y-48739722D01*
X147337231Y-48657539D01*
X147295682Y-48487031D01*
X147224123Y-48336459D01*
X147126995Y-48207309D01*
X147008734Y-48101064D01*
X146873780Y-48019210D01*
X146726571Y-47963232D01*
X146571544Y-47934615D01*
X146413139Y-47934844D01*
X146255794Y-47965405D01*
X146103946Y-48027782D01*
X145962035Y-48123460D01*
X145902803Y-48177572D01*
X145789203Y-48316520D01*
X145710106Y-48468361D01*
X145664986Y-48628667D01*
X145653316Y-48793012D01*
X145674569Y-48956971D01*
X145728220Y-49116118D01*
X145813740Y-49266025D01*
X145930605Y-49402267D01*
X146061193Y-49508887D01*
X146115588Y-49549642D01*
X146154014Y-49584718D01*
X146167846Y-49605726D01*
X146160603Y-49628635D01*
X146140005Y-49683365D01*
X146107746Y-49765672D01*
X146065521Y-49871315D01*
X146015023Y-49996050D01*
X145957948Y-50135636D01*
X145901854Y-50271670D01*
X145839967Y-50421201D01*
X145782644Y-50559767D01*
X145731644Y-50683107D01*
X145688727Y-50786964D01*
X145655653Y-50867080D01*
X145634181Y-50919195D01*
X145626225Y-50938654D01*
X145607429Y-50958423D01*
X145571074Y-50958365D01*
X145512479Y-50937441D01*
X145426968Y-50894613D01*
X145426292Y-50894249D01*
X145361907Y-50861012D01*
X145309861Y-50836802D01*
X145280512Y-50826404D01*
X145279217Y-50826308D01*
X145257124Y-50836855D01*
X145208348Y-50866184D01*
X145138331Y-50910827D01*
X145052514Y-50967314D01*
X144957388Y-51031462D01*
X144860540Y-51096411D01*
X144773253Y-51152896D01*
X144701181Y-51197421D01*
X144649977Y-51226490D01*
X144625526Y-51236616D01*
X144603010Y-51223307D01*
X144557742Y-51186112D01*
X144494244Y-51129128D01*
X144417039Y-51056449D01*
X144330651Y-50972171D01*
X144302399Y-50944016D01*
X144010287Y-50651416D01*
X144232631Y-50325104D01*
X144300202Y-50224897D01*
X144359507Y-50134963D01*
X144407217Y-50060510D01*
X144440007Y-50006751D01*
X144454548Y-49978894D01*
X144454974Y-49976912D01*
X144447308Y-49950655D01*
X144426689Y-49897837D01*
X144396685Y-49827310D01*
X144375625Y-49780093D01*
X144336248Y-49689694D01*
X144299165Y-49598366D01*
X144270415Y-49521200D01*
X144262605Y-49497692D01*
X144240417Y-49434916D01*
X144218727Y-49386411D01*
X144206813Y-49368079D01*
X144180523Y-49356859D01*
X144123142Y-49340954D01*
X144042118Y-49322167D01*
X143944895Y-49302299D01*
X143901385Y-49294132D01*
X143790896Y-49273829D01*
X143684916Y-49254170D01*
X143593801Y-49237088D01*
X143527908Y-49224518D01*
X143515500Y-49222091D01*
X143412923Y-49201845D01*
X143412923Y-48774701D01*
X143413153Y-48634246D01*
X143414099Y-48527979D01*
X143416141Y-48451013D01*
X143419662Y-48398460D01*
X143425043Y-48365433D01*
X143432666Y-48347045D01*
X143442912Y-48338408D01*
X143447115Y-48336807D01*
X143472470Y-48331127D01*
X143528484Y-48319795D01*
X143607964Y-48304179D01*
X143703712Y-48285647D01*
X143808533Y-48265569D01*
X143915232Y-48245312D01*
X144016613Y-48226246D01*
X144105479Y-48209739D01*
X144174637Y-48197159D01*
X144216889Y-48189875D01*
X144226290Y-48188616D01*
X144234807Y-48171763D01*
X144253660Y-48126870D01*
X144279324Y-48062430D01*
X144289123Y-48037192D01*
X144328648Y-47939686D01*
X144375192Y-47831959D01*
X144416877Y-47741172D01*
X144447550Y-47671753D01*
X144467956Y-47614710D01*
X144474768Y-47579777D01*
X144473682Y-47575095D01*
X144459285Y-47552991D01*
X144426412Y-47503831D01*
X144378590Y-47432848D01*
X144319348Y-47345278D01*
X144252215Y-47246357D01*
X144238941Y-47226830D01*
X144161046Y-47111140D01*
X144103787Y-47023044D01*
X144064881Y-46958486D01*
X144042044Y-46913411D01*
X144032994Y-46883763D01*
X144035448Y-46865485D01*
X144035511Y-46865369D01*
X144054827Y-46841361D01*
X144097551Y-46794947D01*
X144159051Y-46730937D01*
X144234698Y-46654145D01*
X144319861Y-46569382D01*
X144329465Y-46559922D01*
X144436790Y-46455989D01*
X144519615Y-46379675D01*
X144579605Y-46329571D01*
X144618423Y-46304270D01*
X144635520Y-46301004D01*
X144660473Y-46315250D01*
X144712255Y-46348156D01*
X144785520Y-46396208D01*
X144874920Y-46455890D01*
X144975111Y-46523688D01*
X144998501Y-46539639D01*
X145330593Y-46766420D01*
X145480565Y-46698353D01*
X145571770Y-46658685D01*
X145669669Y-46618791D01*
X145753831Y-46586983D01*
X145757538Y-46585674D01*
X145823369Y-46561576D01*
X145874116Y-46541200D01*
X145898842Y-46528936D01*
X145898884Y-46528901D01*
X145906729Y-46506734D01*
X145920066Y-46452217D01*
X145937570Y-46371480D01*
X145957917Y-46270650D01*
X145979782Y-46155856D01*
X145981571Y-46146178D01*
X146003504Y-46027904D01*
X146023640Y-45920542D01*
X146040680Y-45830917D01*
X146053328Y-45765851D01*
X146060284Y-45732168D01*
X146060406Y-45731654D01*
X146064639Y-45717325D01*
X146072871Y-45706507D01*
X146090033Y-45698706D01*
X146121058Y-45693429D01*
X146170878Y-45690182D01*
X146244424Y-45688472D01*
X146346629Y-45687807D01*
X146482425Y-45687693D01*
X146500000Y-45687692D01*
X146639878Y-45687776D01*
G36*
X150745224Y-52047838D02*
G01*
X150822528Y-52098361D01*
X150859814Y-52143590D01*
X150889353Y-52225663D01*
X150891699Y-52290607D01*
X150886385Y-52377445D01*
X150686115Y-52465103D01*
X150588739Y-52509887D01*
X150525113Y-52545913D01*
X150492029Y-52577117D01*
X150486280Y-52607436D01*
X150504658Y-52640805D01*
X150524923Y-52662923D01*
X150583889Y-52698393D01*
X150648024Y-52700879D01*
X150706926Y-52673235D01*
X150750197Y-52618320D01*
X150757936Y-52598928D01*
X150795006Y-52538364D01*
X150837654Y-52512552D01*
X150896154Y-52490471D01*
X150896154Y-52574184D01*
X150890982Y-52631150D01*
X150870723Y-52679189D01*
X150828262Y-52734346D01*
X150821951Y-52741514D01*
X150774720Y-52790585D01*
X150734121Y-52816920D01*
X150683328Y-52829035D01*
X150641220Y-52833003D01*
X150565902Y-52833991D01*
X150512286Y-52821466D01*
X150478838Y-52802869D01*
X150426268Y-52761975D01*
X150389879Y-52717748D01*
X150366850Y-52662126D01*
X150354359Y-52587047D01*
X150349587Y-52484449D01*
X150349206Y-52432376D01*
X150350501Y-52369948D01*
X150468471Y-52369948D01*
X150469839Y-52403438D01*
X150473249Y-52408923D01*
X150495753Y-52401472D01*
X150544182Y-52381753D01*
X150608908Y-52353718D01*
X150622443Y-52347692D01*
X150704244Y-52306096D01*
X150749312Y-52269538D01*
X150759217Y-52235296D01*
X150735526Y-52200648D01*
X150715960Y-52185339D01*
X150645360Y-52154721D01*
X150579280Y-52159780D01*
X150523959Y-52197151D01*
X150485636Y-52263473D01*
X150473349Y-52316116D01*
X150468471Y-52369948D01*
X150350501Y-52369948D01*
X150351730Y-52310720D01*
X150361032Y-52220710D01*
X150379460Y-52155167D01*
X150409360Y-52106912D01*
X150453080Y-52068767D01*
X150472141Y-52056440D01*
X150558726Y-52024336D01*
X150653522Y-52022316D01*
X150745224Y-52047838D01*
X150745224Y-52047838D01*
G37*
X150745224Y-52047838D02*
X150822528Y-52098361D01*
X150859814Y-52143590D01*
X150889353Y-52225663D01*
X150891699Y-52290607D01*
X150886385Y-52377445D01*
X150686115Y-52465103D01*
X150588739Y-52509887D01*
X150525113Y-52545913D01*
X150492029Y-52577117D01*
X150486280Y-52607436D01*
X150504658Y-52640805D01*
X150524923Y-52662923D01*
X150583889Y-52698393D01*
X150648024Y-52700879D01*
X150706926Y-52673235D01*
X150750197Y-52618320D01*
X150757936Y-52598928D01*
X150795006Y-52538364D01*
X150837654Y-52512552D01*
X150896154Y-52490471D01*
X150896154Y-52574184D01*
X150890982Y-52631150D01*
X150870723Y-52679189D01*
X150828262Y-52734346D01*
X150821951Y-52741514D01*
X150774720Y-52790585D01*
X150734121Y-52816920D01*
X150683328Y-52829035D01*
X150641220Y-52833003D01*
X150565902Y-52833991D01*
X150512286Y-52821466D01*
X150478838Y-52802869D01*
X150426268Y-52761975D01*
X150389879Y-52717748D01*
X150366850Y-52662126D01*
X150354359Y-52587047D01*
X150349587Y-52484449D01*
X150349206Y-52432376D01*
X150350501Y-52369948D01*
X150468471Y-52369948D01*
X150469839Y-52403438D01*
X150473249Y-52408923D01*
X150495753Y-52401472D01*
X150544182Y-52381753D01*
X150608908Y-52353718D01*
X150622443Y-52347692D01*
X150704244Y-52306096D01*
X150749312Y-52269538D01*
X150759217Y-52235296D01*
X150735526Y-52200648D01*
X150715960Y-52185339D01*
X150645360Y-52154721D01*
X150579280Y-52159780D01*
X150523959Y-52197151D01*
X150485636Y-52263473D01*
X150473349Y-52316116D01*
X150468471Y-52369948D01*
X150350501Y-52369948D01*
X150351730Y-52310720D01*
X150361032Y-52220710D01*
X150379460Y-52155167D01*
X150409360Y-52106912D01*
X150453080Y-52068767D01*
X150472141Y-52056440D01*
X150558726Y-52024336D01*
X150653522Y-52022316D01*
X150745224Y-52047838D01*
G36*
X150070807Y-52036782D02*
G01*
X150094161Y-52046988D01*
X150149902Y-52091134D01*
X150197569Y-52154967D01*
X150227048Y-52223087D01*
X150231846Y-52256670D01*
X150215760Y-52303556D01*
X150180475Y-52328365D01*
X150142644Y-52343387D01*
X150125321Y-52346155D01*
X150116886Y-52326066D01*
X150100230Y-52282351D01*
X150092923Y-52262598D01*
X150051948Y-52194271D01*
X149992622Y-52160191D01*
X149916552Y-52161239D01*
X149910918Y-52162581D01*
X149870305Y-52181836D01*
X149840448Y-52219375D01*
X149820055Y-52279809D01*
X149807836Y-52367751D01*
X149802500Y-52487813D01*
X149802000Y-52551698D01*
X149801752Y-52652403D01*
X149800126Y-52721054D01*
X149795801Y-52764673D01*
X149787454Y-52790282D01*
X149773765Y-52804903D01*
X149753411Y-52815558D01*
X149752234Y-52816095D01*
X149713038Y-52832667D01*
X149693619Y-52838769D01*
X149690635Y-52820319D01*
X149688081Y-52769323D01*
X149686140Y-52692308D01*
X149684997Y-52595805D01*
X149684769Y-52525184D01*
X149685932Y-52388525D01*
X149690479Y-52284851D01*
X149699999Y-52208108D01*
X149716081Y-52152246D01*
X149740313Y-52111212D01*
X149774286Y-52078954D01*
X149807833Y-52056440D01*
X149888499Y-52026476D01*
X149982381Y-52019718D01*
X150070807Y-52036782D01*
X150070807Y-52036782D01*
G37*
X150070807Y-52036782D02*
X150094161Y-52046988D01*
X150149902Y-52091134D01*
X150197569Y-52154967D01*
X150227048Y-52223087D01*
X150231846Y-52256670D01*
X150215760Y-52303556D01*
X150180475Y-52328365D01*
X150142644Y-52343387D01*
X150125321Y-52346155D01*
X150116886Y-52326066D01*
X150100230Y-52282351D01*
X150092923Y-52262598D01*
X150051948Y-52194271D01*
X149992622Y-52160191D01*
X149916552Y-52161239D01*
X149910918Y-52162581D01*
X149870305Y-52181836D01*
X149840448Y-52219375D01*
X149820055Y-52279809D01*
X149807836Y-52367751D01*
X149802500Y-52487813D01*
X149802000Y-52551698D01*
X149801752Y-52652403D01*
X149800126Y-52721054D01*
X149795801Y-52764673D01*
X149787454Y-52790282D01*
X149773765Y-52804903D01*
X149753411Y-52815558D01*
X149752234Y-52816095D01*
X149713038Y-52832667D01*
X149693619Y-52838769D01*
X149690635Y-52820319D01*
X149688081Y-52769323D01*
X149686140Y-52692308D01*
X149684997Y-52595805D01*
X149684769Y-52525184D01*
X149685932Y-52388525D01*
X149690479Y-52284851D01*
X149699999Y-52208108D01*
X149716081Y-52152246D01*
X149740313Y-52111212D01*
X149774286Y-52078954D01*
X149807833Y-52056440D01*
X149888499Y-52026476D01*
X149982381Y-52019718D01*
X150070807Y-52036782D01*
G36*
X149387333Y-52033528D02*
G01*
X149443590Y-52059117D01*
X149487747Y-52090124D01*
X149520101Y-52124795D01*
X149542438Y-52169520D01*
X149556546Y-52230692D01*
X149564211Y-52314701D01*
X149567220Y-52427940D01*
X149567538Y-52502509D01*
X149567538Y-52793420D01*
X149517773Y-52816095D01*
X149478576Y-52832667D01*
X149459157Y-52838769D01*
X149455442Y-52820610D01*
X149452495Y-52771648D01*
X149450691Y-52700153D01*
X149450308Y-52643385D01*
X149448661Y-52561371D01*
X149444222Y-52496309D01*
X149437740Y-52456467D01*
X149432590Y-52448000D01*
X149397977Y-52456646D01*
X149343640Y-52478823D01*
X149280722Y-52508886D01*
X149220368Y-52541192D01*
X149173721Y-52570098D01*
X149151926Y-52589961D01*
X149151839Y-52590175D01*
X149153714Y-52626935D01*
X149170525Y-52662026D01*
X149200039Y-52690528D01*
X149243116Y-52700061D01*
X149279932Y-52698950D01*
X149332074Y-52698133D01*
X149359444Y-52710349D01*
X149375882Y-52742624D01*
X149377955Y-52748710D01*
X149385081Y-52794739D01*
X149366024Y-52822687D01*
X149316353Y-52836007D01*
X149262697Y-52838470D01*
X149166142Y-52820210D01*
X149116159Y-52794131D01*
X149054429Y-52732868D01*
X149021690Y-52657670D01*
X149018753Y-52578211D01*
X149046424Y-52504167D01*
X149088047Y-52457769D01*
X149129604Y-52431793D01*
X149194922Y-52398907D01*
X149271038Y-52365557D01*
X149283726Y-52360461D01*
X149367333Y-52323565D01*
X149415530Y-52291046D01*
X149431030Y-52258718D01*
X149416550Y-52222394D01*
X149391692Y-52194000D01*
X149332939Y-52159039D01*
X149268293Y-52156417D01*
X149209008Y-52183358D01*
X149166339Y-52237088D01*
X149160739Y-52250950D01*
X149128133Y-52301936D01*
X149080530Y-52339787D01*
X149020461Y-52370850D01*
X149020461Y-52282768D01*
X149023997Y-52228951D01*
X149039156Y-52186534D01*
X149072768Y-52141279D01*
X149105035Y-52106420D01*
X149155209Y-52057062D01*
X149194193Y-52030547D01*
X149236064Y-52019911D01*
X149283460Y-52018154D01*
X149387333Y-52033528D01*
X149387333Y-52033528D01*
G37*
X149387333Y-52033528D02*
X149443590Y-52059117D01*
X149487747Y-52090124D01*
X149520101Y-52124795D01*
X149542438Y-52169520D01*
X149556546Y-52230692D01*
X149564211Y-52314701D01*
X149567220Y-52427940D01*
X149567538Y-52502509D01*
X149567538Y-52793420D01*
X149517773Y-52816095D01*
X149478576Y-52832667D01*
X149459157Y-52838769D01*
X149455442Y-52820610D01*
X149452495Y-52771648D01*
X149450691Y-52700153D01*
X149450308Y-52643385D01*
X149448661Y-52561371D01*
X149444222Y-52496309D01*
X149437740Y-52456467D01*
X149432590Y-52448000D01*
X149397977Y-52456646D01*
X149343640Y-52478823D01*
X149280722Y-52508886D01*
X149220368Y-52541192D01*
X149173721Y-52570098D01*
X149151926Y-52589961D01*
X149151839Y-52590175D01*
X149153714Y-52626935D01*
X149170525Y-52662026D01*
X149200039Y-52690528D01*
X149243116Y-52700061D01*
X149279932Y-52698950D01*
X149332074Y-52698133D01*
X149359444Y-52710349D01*
X149375882Y-52742624D01*
X149377955Y-52748710D01*
X149385081Y-52794739D01*
X149366024Y-52822687D01*
X149316353Y-52836007D01*
X149262697Y-52838470D01*
X149166142Y-52820210D01*
X149116159Y-52794131D01*
X149054429Y-52732868D01*
X149021690Y-52657670D01*
X149018753Y-52578211D01*
X149046424Y-52504167D01*
X149088047Y-52457769D01*
X149129604Y-52431793D01*
X149194922Y-52398907D01*
X149271038Y-52365557D01*
X149283726Y-52360461D01*
X149367333Y-52323565D01*
X149415530Y-52291046D01*
X149431030Y-52258718D01*
X149416550Y-52222394D01*
X149391692Y-52194000D01*
X149332939Y-52159039D01*
X149268293Y-52156417D01*
X149209008Y-52183358D01*
X149166339Y-52237088D01*
X149160739Y-52250950D01*
X149128133Y-52301936D01*
X149080530Y-52339787D01*
X149020461Y-52370850D01*
X149020461Y-52282768D01*
X149023997Y-52228951D01*
X149039156Y-52186534D01*
X149072768Y-52141279D01*
X149105035Y-52106420D01*
X149155209Y-52057062D01*
X149194193Y-52030547D01*
X149236064Y-52019911D01*
X149283460Y-52018154D01*
X149387333Y-52033528D01*
G36*
X148895929Y-52036662D02*
G01*
X148898911Y-52088068D01*
X148901247Y-52166192D01*
X148902749Y-52264857D01*
X148903231Y-52368343D01*
X148903231Y-52718533D01*
X148841401Y-52780363D01*
X148798793Y-52818462D01*
X148761390Y-52833895D01*
X148710270Y-52832918D01*
X148689978Y-52830433D01*
X148626554Y-52823200D01*
X148574095Y-52819055D01*
X148561308Y-52818672D01*
X148518199Y-52821176D01*
X148456544Y-52827462D01*
X148432638Y-52830433D01*
X148373922Y-52835028D01*
X148334464Y-52825046D01*
X148295338Y-52794228D01*
X148281215Y-52780363D01*
X148219385Y-52718533D01*
X148219385Y-52063503D01*
X148269150Y-52040829D01*
X148312002Y-52024034D01*
X148337073Y-52018154D01*
X148343501Y-52036736D01*
X148349509Y-52088655D01*
X148354697Y-52168172D01*
X148358664Y-52269546D01*
X148360577Y-52355192D01*
X148365923Y-52692231D01*
X148412560Y-52698825D01*
X148454976Y-52694214D01*
X148475760Y-52679287D01*
X148481570Y-52651377D01*
X148486530Y-52591925D01*
X148490246Y-52508466D01*
X148492324Y-52408532D01*
X148492624Y-52357104D01*
X148492923Y-52061054D01*
X148554454Y-52039604D01*
X148598004Y-52025020D01*
X148621694Y-52018219D01*
X148622377Y-52018154D01*
X148624754Y-52036642D01*
X148627366Y-52087906D01*
X148629995Y-52165649D01*
X148632421Y-52263574D01*
X148634115Y-52355192D01*
X148639461Y-52692231D01*
X148756692Y-52692231D01*
X148762072Y-52384746D01*
X148767451Y-52077261D01*
X148824601Y-52047707D01*
X148866797Y-52027413D01*
X148891770Y-52018204D01*
X148892491Y-52018154D01*
X148895929Y-52036662D01*
X148895929Y-52036662D01*
G37*
X148895929Y-52036662D02*
X148898911Y-52088068D01*
X148901247Y-52166192D01*
X148902749Y-52264857D01*
X148903231Y-52368343D01*
X148903231Y-52718533D01*
X148841401Y-52780363D01*
X148798793Y-52818462D01*
X148761390Y-52833895D01*
X148710270Y-52832918D01*
X148689978Y-52830433D01*
X148626554Y-52823200D01*
X148574095Y-52819055D01*
X148561308Y-52818672D01*
X148518199Y-52821176D01*
X148456544Y-52827462D01*
X148432638Y-52830433D01*
X148373922Y-52835028D01*
X148334464Y-52825046D01*
X148295338Y-52794228D01*
X148281215Y-52780363D01*
X148219385Y-52718533D01*
X148219385Y-52063503D01*
X148269150Y-52040829D01*
X148312002Y-52024034D01*
X148337073Y-52018154D01*
X148343501Y-52036736D01*
X148349509Y-52088655D01*
X148354697Y-52168172D01*
X148358664Y-52269546D01*
X148360577Y-52355192D01*
X148365923Y-52692231D01*
X148412560Y-52698825D01*
X148454976Y-52694214D01*
X148475760Y-52679287D01*
X148481570Y-52651377D01*
X148486530Y-52591925D01*
X148490246Y-52508466D01*
X148492324Y-52408532D01*
X148492624Y-52357104D01*
X148492923Y-52061054D01*
X148554454Y-52039604D01*
X148598004Y-52025020D01*
X148621694Y-52018219D01*
X148622377Y-52018154D01*
X148624754Y-52036642D01*
X148627366Y-52087906D01*
X148629995Y-52165649D01*
X148632421Y-52263574D01*
X148634115Y-52355192D01*
X148639461Y-52692231D01*
X148756692Y-52692231D01*
X148762072Y-52384746D01*
X148767451Y-52077261D01*
X148824601Y-52047707D01*
X148866797Y-52027413D01*
X148891770Y-52018204D01*
X148892491Y-52018154D01*
X148895929Y-52036662D01*
G36*
X148102081Y-52180289D02*
G01*
X148101833Y-52326320D01*
X148100872Y-52438655D01*
X148098794Y-52522678D01*
X148095193Y-52583769D01*
X148089665Y-52627309D01*
X148081804Y-52658679D01*
X148071207Y-52683262D01*
X148063182Y-52697294D01*
X147996728Y-52773388D01*
X147912470Y-52821084D01*
X147819249Y-52838199D01*
X147725900Y-52822546D01*
X147670312Y-52794418D01*
X147611957Y-52745760D01*
X147572186Y-52686333D01*
X147548190Y-52608507D01*
X147537161Y-52504652D01*
X147535599Y-52428462D01*
X147535809Y-52422986D01*
X147672308Y-52422986D01*
X147673141Y-52510355D01*
X147676961Y-52568192D01*
X147685746Y-52606029D01*
X147701474Y-52633398D01*
X147720266Y-52654042D01*
X147783375Y-52693890D01*
X147851137Y-52697295D01*
X147915179Y-52664025D01*
X147920164Y-52659517D01*
X147941439Y-52636067D01*
X147954779Y-52608166D01*
X147962001Y-52566641D01*
X147964923Y-52502316D01*
X147965385Y-52431200D01*
X147964383Y-52341858D01*
X147960238Y-52282258D01*
X147951236Y-52243089D01*
X147935667Y-52215040D01*
X147922902Y-52200144D01*
X147863600Y-52162575D01*
X147795301Y-52158057D01*
X147730110Y-52186753D01*
X147717528Y-52197406D01*
X147696111Y-52221063D01*
X147682744Y-52249251D01*
X147675566Y-52291245D01*
X147672719Y-52356319D01*
X147672308Y-52422986D01*
X147535809Y-52422986D01*
X147540322Y-52305765D01*
X147556362Y-52213577D01*
X147586528Y-52144269D01*
X147633629Y-52090211D01*
X147670312Y-52062505D01*
X147736990Y-52032572D01*
X147814272Y-52018678D01*
X147886110Y-52022397D01*
X147926308Y-52037400D01*
X147942082Y-52041670D01*
X147952550Y-52025750D01*
X147959856Y-51983089D01*
X147965385Y-51918106D01*
X147971437Y-51845732D01*
X147979844Y-51802187D01*
X147995141Y-51777287D01*
X148021864Y-51760845D01*
X148038654Y-51753564D01*
X148102154Y-51726963D01*
X148102081Y-52180289D01*
X148102081Y-52180289D01*
G37*
X148102081Y-52180289D02*
X148101833Y-52326320D01*
X148100872Y-52438655D01*
X148098794Y-52522678D01*
X148095193Y-52583769D01*
X148089665Y-52627309D01*
X148081804Y-52658679D01*
X148071207Y-52683262D01*
X148063182Y-52697294D01*
X147996728Y-52773388D01*
X147912470Y-52821084D01*
X147819249Y-52838199D01*
X147725900Y-52822546D01*
X147670312Y-52794418D01*
X147611957Y-52745760D01*
X147572186Y-52686333D01*
X147548190Y-52608507D01*
X147537161Y-52504652D01*
X147535599Y-52428462D01*
X147535809Y-52422986D01*
X147672308Y-52422986D01*
X147673141Y-52510355D01*
X147676961Y-52568192D01*
X147685746Y-52606029D01*
X147701474Y-52633398D01*
X147720266Y-52654042D01*
X147783375Y-52693890D01*
X147851137Y-52697295D01*
X147915179Y-52664025D01*
X147920164Y-52659517D01*
X147941439Y-52636067D01*
X147954779Y-52608166D01*
X147962001Y-52566641D01*
X147964923Y-52502316D01*
X147965385Y-52431200D01*
X147964383Y-52341858D01*
X147960238Y-52282258D01*
X147951236Y-52243089D01*
X147935667Y-52215040D01*
X147922902Y-52200144D01*
X147863600Y-52162575D01*
X147795301Y-52158057D01*
X147730110Y-52186753D01*
X147717528Y-52197406D01*
X147696111Y-52221063D01*
X147682744Y-52249251D01*
X147675566Y-52291245D01*
X147672719Y-52356319D01*
X147672308Y-52422986D01*
X147535809Y-52422986D01*
X147540322Y-52305765D01*
X147556362Y-52213577D01*
X147586528Y-52144269D01*
X147633629Y-52090211D01*
X147670312Y-52062505D01*
X147736990Y-52032572D01*
X147814272Y-52018678D01*
X147886110Y-52022397D01*
X147926308Y-52037400D01*
X147942082Y-52041670D01*
X147952550Y-52025750D01*
X147959856Y-51983089D01*
X147965385Y-51918106D01*
X147971437Y-51845732D01*
X147979844Y-51802187D01*
X147995141Y-51777287D01*
X148021864Y-51760845D01*
X148038654Y-51753564D01*
X148102154Y-51726963D01*
X148102081Y-52180289D01*
G36*
X147213362Y-52024670D02*
G01*
X147302117Y-52057421D01*
X147374022Y-52115350D01*
X147402144Y-52156128D01*
X147432802Y-52230954D01*
X147432165Y-52285058D01*
X147399987Y-52321446D01*
X147388081Y-52327633D01*
X147336675Y-52346925D01*
X147310422Y-52341982D01*
X147301530Y-52309587D01*
X147301077Y-52291692D01*
X147284797Y-52225859D01*
X147242365Y-52179807D01*
X147183388Y-52157564D01*
X147117475Y-52163161D01*
X147063895Y-52192229D01*
X147045798Y-52208810D01*
X147032971Y-52228925D01*
X147024306Y-52259332D01*
X147018696Y-52306788D01*
X147015035Y-52378050D01*
X147012215Y-52479875D01*
X147011484Y-52512115D01*
X147008820Y-52622410D01*
X147005792Y-52700036D01*
X147001250Y-52751396D01*
X146994046Y-52782890D01*
X146983033Y-52800920D01*
X146967060Y-52811888D01*
X146956834Y-52816733D01*
X146913406Y-52833301D01*
X146887842Y-52838769D01*
X146879395Y-52820507D01*
X146874239Y-52765296D01*
X146872346Y-52672499D01*
X146873689Y-52541478D01*
X146874107Y-52521269D01*
X146877058Y-52401733D01*
X146880548Y-52314449D01*
X146885514Y-52252591D01*
X146892893Y-52209336D01*
X146903624Y-52177860D01*
X146918645Y-52151339D01*
X146926502Y-52139975D01*
X146971553Y-52089692D01*
X147021940Y-52050581D01*
X147028108Y-52047167D01*
X147118458Y-52020212D01*
X147213362Y-52024670D01*
X147213362Y-52024670D01*
G37*
X147213362Y-52024670D02*
X147302117Y-52057421D01*
X147374022Y-52115350D01*
X147402144Y-52156128D01*
X147432802Y-52230954D01*
X147432165Y-52285058D01*
X147399987Y-52321446D01*
X147388081Y-52327633D01*
X147336675Y-52346925D01*
X147310422Y-52341982D01*
X147301530Y-52309587D01*
X147301077Y-52291692D01*
X147284797Y-52225859D01*
X147242365Y-52179807D01*
X147183388Y-52157564D01*
X147117475Y-52163161D01*
X147063895Y-52192229D01*
X147045798Y-52208810D01*
X147032971Y-52228925D01*
X147024306Y-52259332D01*
X147018696Y-52306788D01*
X147015035Y-52378050D01*
X147012215Y-52479875D01*
X147011484Y-52512115D01*
X147008820Y-52622410D01*
X147005792Y-52700036D01*
X147001250Y-52751396D01*
X146994046Y-52782890D01*
X146983033Y-52800920D01*
X146967060Y-52811888D01*
X146956834Y-52816733D01*
X146913406Y-52833301D01*
X146887842Y-52838769D01*
X146879395Y-52820507D01*
X146874239Y-52765296D01*
X146872346Y-52672499D01*
X146873689Y-52541478D01*
X146874107Y-52521269D01*
X146877058Y-52401733D01*
X146880548Y-52314449D01*
X146885514Y-52252591D01*
X146892893Y-52209336D01*
X146903624Y-52177860D01*
X146918645Y-52151339D01*
X146926502Y-52139975D01*
X146971553Y-52089692D01*
X147021940Y-52050581D01*
X147028108Y-52047167D01*
X147118458Y-52020212D01*
X147213362Y-52024670D01*
G36*
X146553501Y-52026303D02*
G01*
X146630060Y-52054733D01*
X146630936Y-52055279D01*
X146678285Y-52090127D01*
X146713241Y-52130852D01*
X146737825Y-52183925D01*
X146754062Y-52255814D01*
X146763975Y-52352992D01*
X146769586Y-52481928D01*
X146770077Y-52500298D01*
X146777141Y-52777287D01*
X146717695Y-52808028D01*
X146674681Y-52828802D01*
X146648710Y-52838646D01*
X146647509Y-52838769D01*
X146643014Y-52820606D01*
X146639444Y-52771612D01*
X146637248Y-52700031D01*
X146636769Y-52642068D01*
X146636758Y-52548170D01*
X146632466Y-52489203D01*
X146617503Y-52461079D01*
X146585482Y-52459706D01*
X146530014Y-52480998D01*
X146446269Y-52520136D01*
X146384689Y-52552643D01*
X146353017Y-52580845D01*
X146343706Y-52611582D01*
X146343692Y-52613104D01*
X146359057Y-52666054D01*
X146404547Y-52694660D01*
X146474166Y-52698803D01*
X146524313Y-52698084D01*
X146550754Y-52712527D01*
X146567243Y-52747218D01*
X146576733Y-52791416D01*
X146563057Y-52816493D01*
X146557907Y-52820082D01*
X146509425Y-52834496D01*
X146441531Y-52836537D01*
X146371612Y-52826983D01*
X146322068Y-52809522D01*
X146253570Y-52751364D01*
X146214634Y-52670408D01*
X146206923Y-52607160D01*
X146212807Y-52550111D01*
X146234101Y-52503542D01*
X146276265Y-52462181D01*
X146344759Y-52420755D01*
X146445044Y-52373993D01*
X146451154Y-52371350D01*
X146541490Y-52329617D01*
X146597235Y-52295391D01*
X146621129Y-52264635D01*
X146615913Y-52233311D01*
X146584328Y-52197383D01*
X146574883Y-52189116D01*
X146511617Y-52157058D01*
X146446064Y-52158407D01*
X146388972Y-52189838D01*
X146351093Y-52248024D01*
X146347574Y-52259446D01*
X146313300Y-52314837D01*
X146269809Y-52341518D01*
X146206923Y-52367960D01*
X146206923Y-52299548D01*
X146226052Y-52200110D01*
X146282831Y-52108902D01*
X146312378Y-52078389D01*
X146379542Y-52039228D01*
X146464956Y-52021500D01*
X146553501Y-52026303D01*
X146553501Y-52026303D01*
G37*
X146553501Y-52026303D02*
X146630060Y-52054733D01*
X146630936Y-52055279D01*
X146678285Y-52090127D01*
X146713241Y-52130852D01*
X146737825Y-52183925D01*
X146754062Y-52255814D01*
X146763975Y-52352992D01*
X146769586Y-52481928D01*
X146770077Y-52500298D01*
X146777141Y-52777287D01*
X146717695Y-52808028D01*
X146674681Y-52828802D01*
X146648710Y-52838646D01*
X146647509Y-52838769D01*
X146643014Y-52820606D01*
X146639444Y-52771612D01*
X146637248Y-52700031D01*
X146636769Y-52642068D01*
X146636758Y-52548170D01*
X146632466Y-52489203D01*
X146617503Y-52461079D01*
X146585482Y-52459706D01*
X146530014Y-52480998D01*
X146446269Y-52520136D01*
X146384689Y-52552643D01*
X146353017Y-52580845D01*
X146343706Y-52611582D01*
X146343692Y-52613104D01*
X146359057Y-52666054D01*
X146404547Y-52694660D01*
X146474166Y-52698803D01*
X146524313Y-52698084D01*
X146550754Y-52712527D01*
X146567243Y-52747218D01*
X146576733Y-52791416D01*
X146563057Y-52816493D01*
X146557907Y-52820082D01*
X146509425Y-52834496D01*
X146441531Y-52836537D01*
X146371612Y-52826983D01*
X146322068Y-52809522D01*
X146253570Y-52751364D01*
X146214634Y-52670408D01*
X146206923Y-52607160D01*
X146212807Y-52550111D01*
X146234101Y-52503542D01*
X146276265Y-52462181D01*
X146344759Y-52420755D01*
X146445044Y-52373993D01*
X146451154Y-52371350D01*
X146541490Y-52329617D01*
X146597235Y-52295391D01*
X146621129Y-52264635D01*
X146615913Y-52233311D01*
X146584328Y-52197383D01*
X146574883Y-52189116D01*
X146511617Y-52157058D01*
X146446064Y-52158407D01*
X146388972Y-52189838D01*
X146351093Y-52248024D01*
X146347574Y-52259446D01*
X146313300Y-52314837D01*
X146269809Y-52341518D01*
X146206923Y-52367960D01*
X146206923Y-52299548D01*
X146226052Y-52200110D01*
X146282831Y-52108902D01*
X146312378Y-52078389D01*
X146379542Y-52039228D01*
X146464956Y-52021500D01*
X146553501Y-52026303D01*
G36*
X145659846Y-51892120D02*
G01*
X145665572Y-51971980D01*
X145672149Y-52019039D01*
X145681262Y-52039566D01*
X145694598Y-52039829D01*
X145698923Y-52037378D01*
X145756444Y-52019636D01*
X145831268Y-52020672D01*
X145907339Y-52038910D01*
X145954918Y-52062505D01*
X146003702Y-52100198D01*
X146039364Y-52142855D01*
X146063845Y-52197057D01*
X146079087Y-52269384D01*
X146087030Y-52366419D01*
X146089616Y-52494742D01*
X146089662Y-52519358D01*
X146089692Y-52795870D01*
X146028161Y-52817320D01*
X145984459Y-52831912D01*
X145960482Y-52838706D01*
X145959777Y-52838769D01*
X145957415Y-52820345D01*
X145955406Y-52769526D01*
X145953901Y-52692993D01*
X145953053Y-52597430D01*
X145952923Y-52539329D01*
X145952651Y-52424771D01*
X145951252Y-52342667D01*
X145947849Y-52286393D01*
X145941567Y-52249326D01*
X145931529Y-52224844D01*
X145916861Y-52206325D01*
X145907702Y-52197406D01*
X145844789Y-52161466D01*
X145776136Y-52158775D01*
X145713848Y-52189170D01*
X145702329Y-52200144D01*
X145685433Y-52220779D01*
X145673714Y-52245256D01*
X145666233Y-52280647D01*
X145662054Y-52334026D01*
X145660237Y-52412466D01*
X145659846Y-52520617D01*
X145659846Y-52795870D01*
X145598315Y-52817320D01*
X145554613Y-52831912D01*
X145530636Y-52838706D01*
X145529930Y-52838769D01*
X145528126Y-52820069D01*
X145526500Y-52767322D01*
X145525117Y-52685557D01*
X145524042Y-52579805D01*
X145523340Y-52455094D01*
X145523077Y-52316455D01*
X145523077Y-51781806D01*
X145650077Y-51728236D01*
X145659846Y-51892120D01*
X145659846Y-51892120D01*
G37*
X145659846Y-51892120D02*
X145665572Y-51971980D01*
X145672149Y-52019039D01*
X145681262Y-52039566D01*
X145694598Y-52039829D01*
X145698923Y-52037378D01*
X145756444Y-52019636D01*
X145831268Y-52020672D01*
X145907339Y-52038910D01*
X145954918Y-52062505D01*
X146003702Y-52100198D01*
X146039364Y-52142855D01*
X146063845Y-52197057D01*
X146079087Y-52269384D01*
X146087030Y-52366419D01*
X146089616Y-52494742D01*
X146089662Y-52519358D01*
X146089692Y-52795870D01*
X146028161Y-52817320D01*
X145984459Y-52831912D01*
X145960482Y-52838706D01*
X145959777Y-52838769D01*
X145957415Y-52820345D01*
X145955406Y-52769526D01*
X145953901Y-52692993D01*
X145953053Y-52597430D01*
X145952923Y-52539329D01*
X145952651Y-52424771D01*
X145951252Y-52342667D01*
X145947849Y-52286393D01*
X145941567Y-52249326D01*
X145931529Y-52224844D01*
X145916861Y-52206325D01*
X145907702Y-52197406D01*
X145844789Y-52161466D01*
X145776136Y-52158775D01*
X145713848Y-52189170D01*
X145702329Y-52200144D01*
X145685433Y-52220779D01*
X145673714Y-52245256D01*
X145666233Y-52280647D01*
X145662054Y-52334026D01*
X145660237Y-52412466D01*
X145659846Y-52520617D01*
X145659846Y-52795870D01*
X145598315Y-52817320D01*
X145554613Y-52831912D01*
X145530636Y-52838706D01*
X145529930Y-52838769D01*
X145528126Y-52820069D01*
X145526500Y-52767322D01*
X145525117Y-52685557D01*
X145524042Y-52579805D01*
X145523340Y-52455094D01*
X145523077Y-52316455D01*
X145523077Y-51781806D01*
X145650077Y-51728236D01*
X145659846Y-51892120D01*
G36*
X144034254Y-51999745D02*
G01*
X144111286Y-52051567D01*
X144170816Y-52126412D01*
X144206378Y-52221654D01*
X144213571Y-52291756D01*
X144212754Y-52321009D01*
X144205914Y-52343407D01*
X144187112Y-52363474D01*
X144150408Y-52385733D01*
X144089862Y-52414709D01*
X143999534Y-52454927D01*
X143999077Y-52455129D01*
X143915933Y-52493210D01*
X143847753Y-52527025D01*
X143801505Y-52552933D01*
X143784158Y-52567295D01*
X143784154Y-52567411D01*
X143799443Y-52598685D01*
X143835196Y-52633157D01*
X143876242Y-52657990D01*
X143897037Y-52662923D01*
X143953770Y-52645862D01*
X144002627Y-52603133D01*
X144026465Y-52556155D01*
X144049397Y-52521522D01*
X144094318Y-52482081D01*
X144147123Y-52448009D01*
X144193710Y-52429480D01*
X144203452Y-52428462D01*
X144214418Y-52445215D01*
X144215079Y-52488039D01*
X144207020Y-52545781D01*
X144191827Y-52607289D01*
X144171086Y-52661409D01*
X144170038Y-52663510D01*
X144107621Y-52750660D01*
X144026726Y-52809939D01*
X143934856Y-52839034D01*
X143839513Y-52835634D01*
X143748198Y-52797428D01*
X143744138Y-52794741D01*
X143672306Y-52729642D01*
X143625073Y-52644705D01*
X143598934Y-52533021D01*
X143595426Y-52501643D01*
X143589213Y-52353536D01*
X143596661Y-52284468D01*
X143784154Y-52284468D01*
X143786590Y-52327552D01*
X143799914Y-52340126D01*
X143833132Y-52330719D01*
X143885494Y-52308483D01*
X143944024Y-52280610D01*
X143945479Y-52279872D01*
X143995089Y-52253777D01*
X144015000Y-52236363D01*
X144010090Y-52218107D01*
X143989416Y-52194120D01*
X143936819Y-52159406D01*
X143880177Y-52156856D01*
X143829369Y-52182119D01*
X143794276Y-52230847D01*
X143784154Y-52284468D01*
X143596661Y-52284468D01*
X143601992Y-52235036D01*
X143634778Y-52141055D01*
X143680421Y-52075215D01*
X143762802Y-52008681D01*
X143853546Y-51975676D01*
X143946185Y-51973573D01*
X144034254Y-51999745D01*
X144034254Y-51999745D01*
G37*
X144034254Y-51999745D02*
X144111286Y-52051567D01*
X144170816Y-52126412D01*
X144206378Y-52221654D01*
X144213571Y-52291756D01*
X144212754Y-52321009D01*
X144205914Y-52343407D01*
X144187112Y-52363474D01*
X144150408Y-52385733D01*
X144089862Y-52414709D01*
X143999534Y-52454927D01*
X143999077Y-52455129D01*
X143915933Y-52493210D01*
X143847753Y-52527025D01*
X143801505Y-52552933D01*
X143784158Y-52567295D01*
X143784154Y-52567411D01*
X143799443Y-52598685D01*
X143835196Y-52633157D01*
X143876242Y-52657990D01*
X143897037Y-52662923D01*
X143953770Y-52645862D01*
X144002627Y-52603133D01*
X144026465Y-52556155D01*
X144049397Y-52521522D01*
X144094318Y-52482081D01*
X144147123Y-52448009D01*
X144193710Y-52429480D01*
X144203452Y-52428462D01*
X144214418Y-52445215D01*
X144215079Y-52488039D01*
X144207020Y-52545781D01*
X144191827Y-52607289D01*
X144171086Y-52661409D01*
X144170038Y-52663510D01*
X144107621Y-52750660D01*
X144026726Y-52809939D01*
X143934856Y-52839034D01*
X143839513Y-52835634D01*
X143748198Y-52797428D01*
X143744138Y-52794741D01*
X143672306Y-52729642D01*
X143625073Y-52644705D01*
X143598934Y-52533021D01*
X143595426Y-52501643D01*
X143589213Y-52353536D01*
X143596661Y-52284468D01*
X143784154Y-52284468D01*
X143786590Y-52327552D01*
X143799914Y-52340126D01*
X143833132Y-52330719D01*
X143885494Y-52308483D01*
X143944024Y-52280610D01*
X143945479Y-52279872D01*
X143995089Y-52253777D01*
X144015000Y-52236363D01*
X144010090Y-52218107D01*
X143989416Y-52194120D01*
X143936819Y-52159406D01*
X143880177Y-52156856D01*
X143829369Y-52182119D01*
X143794276Y-52230847D01*
X143784154Y-52284468D01*
X143596661Y-52284468D01*
X143601992Y-52235036D01*
X143634778Y-52141055D01*
X143680421Y-52075215D01*
X143762802Y-52008681D01*
X143853546Y-51975676D01*
X143946185Y-51973573D01*
X144034254Y-51999745D01*
G36*
X142516886Y-51987256D02*
G01*
X142608464Y-52035409D01*
X142676049Y-52112905D01*
X142700057Y-52162727D01*
X142718738Y-52237533D01*
X142728301Y-52332052D01*
X142729208Y-52435210D01*
X142721921Y-52535935D01*
X142706903Y-52623153D01*
X142684615Y-52685791D01*
X142677765Y-52696579D01*
X142596632Y-52777105D01*
X142500266Y-52825336D01*
X142395701Y-52839450D01*
X142289968Y-52817629D01*
X142260543Y-52804547D01*
X142203241Y-52764231D01*
X142152950Y-52710775D01*
X142148197Y-52703995D01*
X142128878Y-52671321D01*
X142116108Y-52636394D01*
X142108564Y-52590414D01*
X142104924Y-52524584D01*
X142103865Y-52430105D01*
X142103846Y-52408923D01*
X142103894Y-52402182D01*
X142299231Y-52402182D01*
X142300368Y-52491349D01*
X142304841Y-52550520D01*
X142314246Y-52588741D01*
X142330176Y-52615053D01*
X142338308Y-52623846D01*
X142385058Y-52657261D01*
X142430447Y-52655737D01*
X142476340Y-52626752D01*
X142503712Y-52595809D01*
X142519923Y-52550643D01*
X142529026Y-52479420D01*
X142529651Y-52471114D01*
X142531204Y-52342037D01*
X142514965Y-52246172D01*
X142481152Y-52184107D01*
X142429984Y-52156432D01*
X142411720Y-52154923D01*
X142363760Y-52162513D01*
X142330953Y-52188808D01*
X142310895Y-52239095D01*
X142301178Y-52318664D01*
X142299231Y-52402182D01*
X142103894Y-52402182D01*
X142104574Y-52308249D01*
X142107629Y-52237906D01*
X142114322Y-52189163D01*
X142125960Y-52153288D01*
X142143853Y-52121548D01*
X142147808Y-52115648D01*
X142214267Y-52036104D01*
X142286685Y-51989929D01*
X142374849Y-51971599D01*
X142404787Y-51970703D01*
X142516886Y-51987256D01*
X142516886Y-51987256D01*
G37*
X142516886Y-51987256D02*
X142608464Y-52035409D01*
X142676049Y-52112905D01*
X142700057Y-52162727D01*
X142718738Y-52237533D01*
X142728301Y-52332052D01*
X142729208Y-52435210D01*
X142721921Y-52535935D01*
X142706903Y-52623153D01*
X142684615Y-52685791D01*
X142677765Y-52696579D01*
X142596632Y-52777105D01*
X142500266Y-52825336D01*
X142395701Y-52839450D01*
X142289968Y-52817629D01*
X142260543Y-52804547D01*
X142203241Y-52764231D01*
X142152950Y-52710775D01*
X142148197Y-52703995D01*
X142128878Y-52671321D01*
X142116108Y-52636394D01*
X142108564Y-52590414D01*
X142104924Y-52524584D01*
X142103865Y-52430105D01*
X142103846Y-52408923D01*
X142103894Y-52402182D01*
X142299231Y-52402182D01*
X142300368Y-52491349D01*
X142304841Y-52550520D01*
X142314246Y-52588741D01*
X142330176Y-52615053D01*
X142338308Y-52623846D01*
X142385058Y-52657261D01*
X142430447Y-52655737D01*
X142476340Y-52626752D01*
X142503712Y-52595809D01*
X142519923Y-52550643D01*
X142529026Y-52479420D01*
X142529651Y-52471114D01*
X142531204Y-52342037D01*
X142514965Y-52246172D01*
X142481152Y-52184107D01*
X142429984Y-52156432D01*
X142411720Y-52154923D01*
X142363760Y-52162513D01*
X142330953Y-52188808D01*
X142310895Y-52239095D01*
X142301178Y-52318664D01*
X142299231Y-52402182D01*
X142103894Y-52402182D01*
X142104574Y-52308249D01*
X142107629Y-52237906D01*
X142114322Y-52189163D01*
X142125960Y-52153288D01*
X142143853Y-52121548D01*
X142147808Y-52115648D01*
X142214267Y-52036104D01*
X142286685Y-51989929D01*
X142374849Y-51971599D01*
X142404787Y-51970703D01*
X142516886Y-51987256D01*
G36*
X144771664Y-51995089D02*
G01*
X144834367Y-52031358D01*
X144877961Y-52067358D01*
X144909845Y-52105075D01*
X144931810Y-52151199D01*
X144945649Y-52212421D01*
X144953153Y-52295431D01*
X144956117Y-52406919D01*
X144956461Y-52487062D01*
X144956461Y-52782065D01*
X144790385Y-52856515D01*
X144780615Y-52533402D01*
X144776579Y-52412729D01*
X144772344Y-52325141D01*
X144767097Y-52264650D01*
X144760025Y-52225268D01*
X144750311Y-52201007D01*
X144737144Y-52185880D01*
X144732919Y-52182606D01*
X144668909Y-52157034D01*
X144604208Y-52167153D01*
X144565692Y-52194000D01*
X144550025Y-52213024D01*
X144539180Y-52237988D01*
X144532288Y-52275834D01*
X144528479Y-52333502D01*
X144526883Y-52417935D01*
X144526615Y-52505928D01*
X144526563Y-52616323D01*
X144524672Y-52694463D01*
X144518345Y-52747165D01*
X144504983Y-52781242D01*
X144481985Y-52803511D01*
X144446754Y-52820787D01*
X144399697Y-52838738D01*
X144348303Y-52858278D01*
X144354421Y-52511485D01*
X144356884Y-52386468D01*
X144359767Y-52294082D01*
X144363898Y-52227881D01*
X144370107Y-52181420D01*
X144379226Y-52148256D01*
X144392083Y-52121944D01*
X144407584Y-52098729D01*
X144482371Y-52024569D01*
X144573628Y-51981684D01*
X144672883Y-51971412D01*
X144771664Y-51995089D01*
X144771664Y-51995089D01*
G37*
X144771664Y-51995089D02*
X144834367Y-52031358D01*
X144877961Y-52067358D01*
X144909845Y-52105075D01*
X144931810Y-52151199D01*
X144945649Y-52212421D01*
X144953153Y-52295431D01*
X144956117Y-52406919D01*
X144956461Y-52487062D01*
X144956461Y-52782065D01*
X144790385Y-52856515D01*
X144780615Y-52533402D01*
X144776579Y-52412729D01*
X144772344Y-52325141D01*
X144767097Y-52264650D01*
X144760025Y-52225268D01*
X144750311Y-52201007D01*
X144737144Y-52185880D01*
X144732919Y-52182606D01*
X144668909Y-52157034D01*
X144604208Y-52167153D01*
X144565692Y-52194000D01*
X144550025Y-52213024D01*
X144539180Y-52237988D01*
X144532288Y-52275834D01*
X144528479Y-52333502D01*
X144526883Y-52417935D01*
X144526615Y-52505928D01*
X144526563Y-52616323D01*
X144524672Y-52694463D01*
X144518345Y-52747165D01*
X144504983Y-52781242D01*
X144481985Y-52803511D01*
X144446754Y-52820787D01*
X144399697Y-52838738D01*
X144348303Y-52858278D01*
X144354421Y-52511485D01*
X144356884Y-52386468D01*
X144359767Y-52294082D01*
X144363898Y-52227881D01*
X144370107Y-52181420D01*
X144379226Y-52148256D01*
X144392083Y-52121944D01*
X144407584Y-52098729D01*
X144482371Y-52024569D01*
X144573628Y-51981684D01*
X144672883Y-51971412D01*
X144771664Y-51995089D01*
G36*
X143268886Y-51984505D02*
G01*
X143343539Y-52021727D01*
X143409431Y-52090261D01*
X143427577Y-52115648D01*
X143447345Y-52148866D01*
X143460172Y-52184945D01*
X143467510Y-52233098D01*
X143470813Y-52302536D01*
X143471538Y-52394206D01*
X143468263Y-52519830D01*
X143456877Y-52614154D01*
X143435041Y-52684523D01*
X143400419Y-52738286D01*
X143350670Y-52782788D01*
X143347014Y-52785423D01*
X143297985Y-52812377D01*
X143238945Y-52825712D01*
X143163859Y-52829000D01*
X143041795Y-52829000D01*
X143041744Y-52947497D01*
X143040608Y-53013492D01*
X143033686Y-53052202D01*
X143015598Y-53075419D01*
X142980962Y-53094933D01*
X142972645Y-53098920D01*
X142933720Y-53117603D01*
X142903583Y-53129403D01*
X142881174Y-53130422D01*
X142865433Y-53116761D01*
X142855302Y-53084522D01*
X142849723Y-53029804D01*
X142847635Y-52948711D01*
X142847981Y-52837344D01*
X142849700Y-52691802D01*
X142850237Y-52648269D01*
X142852172Y-52498205D01*
X142853904Y-52400042D01*
X143041692Y-52400042D01*
X143042748Y-52483364D01*
X143047438Y-52537880D01*
X143058051Y-52573837D01*
X143076872Y-52601482D01*
X143089650Y-52614965D01*
X143141890Y-52654417D01*
X143188142Y-52657628D01*
X143235867Y-52625049D01*
X143237077Y-52623846D01*
X143256494Y-52598668D01*
X143268307Y-52564447D01*
X143274265Y-52511748D01*
X143276120Y-52431131D01*
X143276154Y-52413271D01*
X143271670Y-52302175D01*
X143257074Y-52225161D01*
X143230650Y-52178147D01*
X143190683Y-52157050D01*
X143167584Y-52154923D01*
X143112762Y-52164900D01*
X143075158Y-52197752D01*
X143052523Y-52257857D01*
X143042606Y-52349598D01*
X143041692Y-52400042D01*
X142853904Y-52400042D01*
X142854222Y-52382060D01*
X142856873Y-52294679D01*
X142860606Y-52230905D01*
X142865907Y-52185582D01*
X142873258Y-52153555D01*
X142883143Y-52129668D01*
X142896046Y-52108764D01*
X142901579Y-52100898D01*
X142974969Y-52026595D01*
X143067760Y-51984467D01*
X143175096Y-51972722D01*
X143268886Y-51984505D01*
X143268886Y-51984505D01*
G37*
X143268886Y-51984505D02*
X143343539Y-52021727D01*
X143409431Y-52090261D01*
X143427577Y-52115648D01*
X143447345Y-52148866D01*
X143460172Y-52184945D01*
X143467510Y-52233098D01*
X143470813Y-52302536D01*
X143471538Y-52394206D01*
X143468263Y-52519830D01*
X143456877Y-52614154D01*
X143435041Y-52684523D01*
X143400419Y-52738286D01*
X143350670Y-52782788D01*
X143347014Y-52785423D01*
X143297985Y-52812377D01*
X143238945Y-52825712D01*
X143163859Y-52829000D01*
X143041795Y-52829000D01*
X143041744Y-52947497D01*
X143040608Y-53013492D01*
X143033686Y-53052202D01*
X143015598Y-53075419D01*
X142980962Y-53094933D01*
X142972645Y-53098920D01*
X142933720Y-53117603D01*
X142903583Y-53129403D01*
X142881174Y-53130422D01*
X142865433Y-53116761D01*
X142855302Y-53084522D01*
X142849723Y-53029804D01*
X142847635Y-52948711D01*
X142847981Y-52837344D01*
X142849700Y-52691802D01*
X142850237Y-52648269D01*
X142852172Y-52498205D01*
X142853904Y-52400042D01*
X143041692Y-52400042D01*
X143042748Y-52483364D01*
X143047438Y-52537880D01*
X143058051Y-52573837D01*
X143076872Y-52601482D01*
X143089650Y-52614965D01*
X143141890Y-52654417D01*
X143188142Y-52657628D01*
X143235867Y-52625049D01*
X143237077Y-52623846D01*
X143256494Y-52598668D01*
X143268307Y-52564447D01*
X143274265Y-52511748D01*
X143276120Y-52431131D01*
X143276154Y-52413271D01*
X143271670Y-52302175D01*
X143257074Y-52225161D01*
X143230650Y-52178147D01*
X143190683Y-52157050D01*
X143167584Y-52154923D01*
X143112762Y-52164900D01*
X143075158Y-52197752D01*
X143052523Y-52257857D01*
X143042606Y-52349598D01*
X143041692Y-52400042D01*
X142853904Y-52400042D01*
X142854222Y-52382060D01*
X142856873Y-52294679D01*
X142860606Y-52230905D01*
X142865907Y-52185582D01*
X142873258Y-52153555D01*
X142883143Y-52129668D01*
X142896046Y-52108764D01*
X142901579Y-52100898D01*
X142974969Y-52026595D01*
X143067760Y-51984467D01*
X143175096Y-51972722D01*
X143268886Y-51984505D01*
D11*
X158760000Y-42610000D02*
X158760000Y-42020000D01*
X158760000Y-42020000D02*
X160740000Y-42020000D01*
X160740000Y-42020000D02*
X160740000Y-42370000D01*
X160740000Y-42370000D02*
X161510000Y-42370000D01*
X161510000Y-42370000D02*
X161510000Y-40320000D01*
X161510000Y-38500000D02*
X161510000Y-38200000D01*
X161510000Y-38200000D02*
X160710000Y-38200000D01*
X160710000Y-38200000D02*
X160710000Y-36900000D01*
X160710000Y-36900000D02*
X152890000Y-36900000D01*
X152890000Y-36900000D02*
X152890000Y-38200000D01*
X152890000Y-38200000D02*
X152090000Y-38200000D01*
X152090000Y-38200000D02*
X152090000Y-38500000D01*
X152090000Y-40320000D02*
X152090000Y-42370000D01*
X152090000Y-42370000D02*
X152860000Y-42370000D01*
X152860000Y-42370000D02*
X152860000Y-42020000D01*
X152860000Y-42020000D02*
X154840000Y-42020000D01*
X97633076Y-56838748D02*
X97633076Y-57361252D01*
X96213076Y-56838748D02*
X96213076Y-57361252D01*
X111463845Y-56838748D02*
X111463845Y-57361252D01*
X110043845Y-56838748D02*
X110043845Y-57361252D01*
X123874614Y-56838748D02*
X123874614Y-57361252D01*
X125294614Y-56838748D02*
X125294614Y-57361252D01*
X139125383Y-56838748D02*
X139125383Y-57361252D01*
X137705383Y-56838748D02*
X137705383Y-57361252D01*
X151536152Y-56838748D02*
X151536152Y-57361252D01*
X152956152Y-56838748D02*
X152956152Y-57361252D01*
X166786921Y-56838748D02*
X166786921Y-57361252D01*
X165366921Y-56838748D02*
X165366921Y-57361252D01*
X179197690Y-56838748D02*
X179197690Y-57361252D01*
X180617690Y-56838748D02*
X180617690Y-57361252D01*
X194448459Y-56838748D02*
X194448459Y-57361252D01*
X193028459Y-56838748D02*
X193028459Y-57361252D01*
X206859228Y-56838748D02*
X206859228Y-57361252D01*
X208279228Y-56838748D02*
X208279228Y-57361252D01*
X222110000Y-56838748D02*
X222110000Y-57361252D01*
X220690000Y-56838748D02*
X220690000Y-57361252D01*
X125115000Y-40385000D02*
X128000000Y-40385000D01*
X125115000Y-38815000D02*
X125115000Y-40385000D01*
X128000000Y-38815000D02*
X125115000Y-38815000D01*
X131038748Y-38890000D02*
X131561252Y-38890000D01*
X131038748Y-40310000D02*
X131561252Y-40310000D01*
X116900000Y-40385000D02*
X119785000Y-40385000D01*
X119785000Y-40385000D02*
X119785000Y-38815000D01*
X119785000Y-38815000D02*
X116900000Y-38815000D01*
X122461252Y-38890000D02*
X121938748Y-38890000D01*
X122461252Y-40310000D02*
X121938748Y-40310000D01*
X219690000Y-51260000D02*
X220280000Y-51260000D01*
X220280000Y-51260000D02*
X220280000Y-53240000D01*
X220280000Y-53240000D02*
X219930000Y-53240000D01*
X219930000Y-53240000D02*
X219930000Y-54010000D01*
X219930000Y-54010000D02*
X221980000Y-54010000D01*
X223800000Y-54010000D02*
X224100000Y-54010000D01*
X224100000Y-54010000D02*
X224100000Y-53210000D01*
X224100000Y-53210000D02*
X225400000Y-53210000D01*
X225400000Y-53210000D02*
X225400000Y-32390000D01*
X225400000Y-32390000D02*
X224100000Y-32390000D01*
X224100000Y-32390000D02*
X224100000Y-31590000D01*
X224100000Y-31590000D02*
X223800000Y-31590000D01*
X221980000Y-31590000D02*
X219930000Y-31590000D01*
X219930000Y-31590000D02*
X219930000Y-32360000D01*
X219930000Y-32360000D02*
X220280000Y-32360000D01*
X220280000Y-32360000D02*
X220280000Y-34340000D01*
X140170000Y-39860000D02*
X150450000Y-39860000D01*
X150450000Y-39860000D02*
X150450000Y-37200000D01*
X150450000Y-37200000D02*
X140170000Y-37200000D01*
X140170000Y-37200000D02*
X140170000Y-39860000D01*
X141120000Y-37200000D02*
X141120000Y-31200000D01*
X141120000Y-31200000D02*
X141880000Y-31200000D01*
X141880000Y-31200000D02*
X141880000Y-37200000D01*
X141180000Y-37200000D02*
X141180000Y-31200000D01*
X141300000Y-37200000D02*
X141300000Y-31200000D01*
X141420000Y-37200000D02*
X141420000Y-31200000D01*
X141540000Y-37200000D02*
X141540000Y-31200000D01*
X141660000Y-37200000D02*
X141660000Y-31200000D01*
X141780000Y-37200000D02*
X141780000Y-31200000D01*
X141120000Y-40190000D02*
X141120000Y-39860000D01*
X141880000Y-40190000D02*
X141880000Y-39860000D01*
X142770000Y-39860000D02*
X142770000Y-37200000D01*
X143660000Y-37200000D02*
X143660000Y-31200000D01*
X143660000Y-31200000D02*
X144420000Y-31200000D01*
X144420000Y-31200000D02*
X144420000Y-37200000D01*
X143660000Y-40257071D02*
X143660000Y-39860000D01*
X144420000Y-40257071D02*
X144420000Y-39860000D01*
X145310000Y-39860000D02*
X145310000Y-37200000D01*
X146200000Y-37200000D02*
X146200000Y-31200000D01*
X146200000Y-31200000D02*
X146960000Y-31200000D01*
X146960000Y-31200000D02*
X146960000Y-37200000D01*
X146200000Y-40257071D02*
X146200000Y-39860000D01*
X146960000Y-40257071D02*
X146960000Y-39860000D01*
X147850000Y-39860000D02*
X147850000Y-37200000D01*
X148740000Y-37200000D02*
X148740000Y-31200000D01*
X148740000Y-31200000D02*
X149500000Y-31200000D01*
X149500000Y-31200000D02*
X149500000Y-37200000D01*
X148740000Y-40257071D02*
X148740000Y-39860000D01*
X149500000Y-40257071D02*
X149500000Y-39860000D01*
X141500000Y-42570000D02*
X140230000Y-42570000D01*
X140230000Y-42570000D02*
X140230000Y-41300000D01*
X124190000Y-47911252D02*
X124190000Y-47388748D01*
X125610000Y-47911252D02*
X125610000Y-47388748D01*
X99113076Y-57361252D02*
X99113076Y-56838748D01*
X100533076Y-57361252D02*
X100533076Y-56838748D01*
X114363845Y-57361252D02*
X114363845Y-56838748D01*
X112943845Y-57361252D02*
X112943845Y-56838748D01*
X128194614Y-57361252D02*
X128194614Y-56838748D01*
X126774614Y-57361252D02*
X126774614Y-56838748D01*
X140605383Y-57361252D02*
X140605383Y-56838748D01*
X142025383Y-57361252D02*
X142025383Y-56838748D01*
X167010000Y-47911252D02*
X167010000Y-47388748D01*
X165590000Y-47911252D02*
X165590000Y-47388748D01*
X193290000Y-47961252D02*
X193290000Y-47438748D01*
X194710000Y-47961252D02*
X194710000Y-47438748D01*
X154436152Y-57361252D02*
X154436152Y-56838748D01*
X155856152Y-57361252D02*
X155856152Y-56838748D01*
X168266921Y-57361252D02*
X168266921Y-56838748D01*
X169686921Y-57361252D02*
X169686921Y-56838748D01*
X183517690Y-57361252D02*
X183517690Y-56838748D01*
X182097690Y-57361252D02*
X182097690Y-56838748D01*
X197348459Y-57361252D02*
X197348459Y-56838748D01*
X195928459Y-57361252D02*
X195928459Y-56838748D01*
X211179228Y-57361252D02*
X211179228Y-56838748D01*
X209759228Y-57361252D02*
X209759228Y-56838748D01*
X223590000Y-57361252D02*
X223590000Y-56838748D01*
X225010000Y-57361252D02*
X225010000Y-56838748D01*
X117261252Y-42490000D02*
X116738748Y-42490000D01*
X117261252Y-43910000D02*
X116738748Y-43910000D01*
X117303333Y-47500000D02*
X117303333Y-47900000D01*
X118403333Y-46100000D02*
X121303333Y-46100000D01*
X121303333Y-46100000D02*
X121303333Y-46700000D01*
X118403333Y-49300000D02*
X121303333Y-49300000D01*
X121303333Y-49300000D02*
X121303333Y-48700000D01*
X117503333Y-45900000D02*
X116803333Y-45900000D01*
X116803333Y-45900000D02*
X116803333Y-46600000D01*
X158203333Y-45900000D02*
X158203333Y-46600000D01*
X158903333Y-45900000D02*
X158203333Y-45900000D01*
X162703333Y-49300000D02*
X162703333Y-48700000D01*
X159803333Y-49300000D02*
X162703333Y-49300000D01*
X162703333Y-46100000D02*
X162703333Y-46700000D01*
X159803333Y-46100000D02*
X162703333Y-46100000D01*
X158703333Y-47500000D02*
X158703333Y-47900000D01*
X186370000Y-47500000D02*
X186370000Y-47900000D01*
X187470000Y-46100000D02*
X190370000Y-46100000D01*
X190370000Y-46100000D02*
X190370000Y-46700000D01*
X187470000Y-49300000D02*
X190370000Y-49300000D01*
X190370000Y-49300000D02*
X190370000Y-48700000D01*
X186570000Y-45900000D02*
X185870000Y-45900000D01*
X185870000Y-45900000D02*
X185870000Y-46600000D01*
X106266667Y-55400000D02*
X103466667Y-55400000D01*
X106266667Y-58800000D02*
X102066667Y-58800000D01*
X120100000Y-58800000D02*
X115900000Y-58800000D01*
X120100000Y-55400000D02*
X117300000Y-55400000D01*
X133933333Y-55400000D02*
X131133333Y-55400000D01*
X133933333Y-58800000D02*
X129733333Y-58800000D01*
X147766667Y-58800000D02*
X143566667Y-58800000D01*
X147766667Y-55400000D02*
X144966667Y-55400000D01*
X161600000Y-58800000D02*
X157400000Y-58800000D01*
X161600000Y-55400000D02*
X158800000Y-55400000D01*
X175433333Y-55400000D02*
X172633333Y-55400000D01*
X175433333Y-58800000D02*
X171233333Y-58800000D01*
X189266667Y-58800000D02*
X185066667Y-58800000D01*
X189266667Y-55400000D02*
X186466667Y-55400000D01*
X203100000Y-55400000D02*
X200300000Y-55400000D01*
X203100000Y-58800000D02*
X198900000Y-58800000D01*
X216933333Y-58800000D02*
X212733333Y-58800000D01*
X216933333Y-55400000D02*
X214133333Y-55400000D01*
X230766667Y-55400000D02*
X227966667Y-55400000D01*
X230766667Y-58800000D02*
X226566667Y-58800000D01*
X121340000Y-40820000D02*
X121340000Y-41750000D01*
X121340000Y-43980000D02*
X121340000Y-43050000D01*
X121340000Y-43980000D02*
X123500000Y-43980000D01*
X121340000Y-40820000D02*
X122800000Y-40820000D01*
X132603733Y-42810000D02*
X132946267Y-42810000D01*
X132603733Y-41790000D02*
X132946267Y-41790000D01*
X127610000Y-47728733D02*
X127610000Y-48071267D01*
X126590000Y-47728733D02*
X126590000Y-48071267D01*
X139028733Y-48090000D02*
X139371267Y-48090000D01*
X139028733Y-49110000D02*
X139371267Y-49110000D01*
X126590000Y-44771267D02*
X126590000Y-44428733D01*
X127610000Y-44771267D02*
X127610000Y-44428733D01*
D10*
X134825000Y-44225000D02*
X134825000Y-44332500D01*
X134825000Y-54175000D02*
X134825000Y-54067500D01*
X130175000Y-54175000D02*
X130175000Y-54067500D01*
X129100000Y-44175000D02*
X134825000Y-44175000D01*
X130175000Y-54175000D02*
X134825000Y-54175000D01*
D11*
X207970000Y-39860000D02*
X215710000Y-39860000D01*
X215710000Y-39860000D02*
X215710000Y-37200000D01*
X215710000Y-37200000D02*
X207970000Y-37200000D01*
X207970000Y-37200000D02*
X207970000Y-39860000D01*
X208920000Y-37200000D02*
X208920000Y-31200000D01*
X208920000Y-31200000D02*
X209680000Y-31200000D01*
X209680000Y-31200000D02*
X209680000Y-37200000D01*
X208980000Y-37200000D02*
X208980000Y-31200000D01*
X209100000Y-37200000D02*
X209100000Y-31200000D01*
X209220000Y-37200000D02*
X209220000Y-31200000D01*
X209340000Y-37200000D02*
X209340000Y-31200000D01*
X209460000Y-37200000D02*
X209460000Y-31200000D01*
X209580000Y-37200000D02*
X209580000Y-31200000D01*
X208920000Y-40190000D02*
X208920000Y-39860000D01*
X209680000Y-40190000D02*
X209680000Y-39860000D01*
X210570000Y-39860000D02*
X210570000Y-37200000D01*
X211460000Y-37200000D02*
X211460000Y-31200000D01*
X211460000Y-31200000D02*
X212220000Y-31200000D01*
X212220000Y-31200000D02*
X212220000Y-37200000D01*
X211460000Y-40257071D02*
X211460000Y-39860000D01*
X212220000Y-40257071D02*
X212220000Y-39860000D01*
X213110000Y-39860000D02*
X213110000Y-37200000D01*
X214000000Y-37200000D02*
X214000000Y-31200000D01*
X214000000Y-31200000D02*
X214760000Y-31200000D01*
X214760000Y-31200000D02*
X214760000Y-37200000D01*
X214000000Y-40257071D02*
X214000000Y-39860000D01*
X214760000Y-40257071D02*
X214760000Y-39860000D01*
X209300000Y-42570000D02*
X208030000Y-42570000D01*
X208030000Y-42570000D02*
X208030000Y-41300000D01*
D12*
X49035714Y-36978571D02*
X49321428Y-36978571D01*
X49464285Y-37050000D01*
X49607142Y-37192857D01*
X49678571Y-37478571D01*
X49678571Y-37978571D01*
X49607142Y-38264285D01*
X49464285Y-38407142D01*
X49321428Y-38478571D01*
X49035714Y-38478571D01*
X48892857Y-38407142D01*
X48750000Y-38264285D01*
X48678571Y-37978571D01*
X48678571Y-37478571D01*
X48750000Y-37192857D01*
X48892857Y-37050000D01*
X49035714Y-36978571D01*
X50321428Y-38478571D02*
X50321428Y-36978571D01*
X50892857Y-36978571D01*
X51035714Y-37050000D01*
X51107142Y-37121428D01*
X51178571Y-37264285D01*
X51178571Y-37478571D01*
X51107142Y-37621428D01*
X51035714Y-37692857D01*
X50892857Y-37764285D01*
X50321428Y-37764285D01*
X51821428Y-38478571D02*
X51821428Y-36978571D01*
X52678571Y-38478571D02*
X52035714Y-37621428D01*
X52678571Y-36978571D02*
X51821428Y-37835714D01*
X53321428Y-37692857D02*
X53821428Y-37692857D01*
X54035714Y-38478571D02*
X53321428Y-38478571D01*
X53321428Y-36978571D01*
X54035714Y-36978571D01*
X54964285Y-37764285D02*
X54964285Y-38478571D01*
X54464285Y-36978571D02*
X54964285Y-37764285D01*
X55464285Y-36978571D01*
D10*
X46062380Y-43133333D02*
X46776666Y-43133333D01*
X46919523Y-43180952D01*
X47014761Y-43276190D01*
X47062380Y-43419047D01*
X47062380Y-43514285D01*
X47062380Y-42133333D02*
X47062380Y-42704761D01*
X47062380Y-42419047D02*
X46062380Y-42419047D01*
X46205238Y-42514285D01*
X46300476Y-42609523D01*
X46348095Y-42704761D01*
X57933333Y-45702380D02*
X57600000Y-45226190D01*
X57361904Y-45702380D02*
X57361904Y-44702380D01*
X57742857Y-44702380D01*
X57838095Y-44750000D01*
X57885714Y-44797619D01*
X57933333Y-44892857D01*
X57933333Y-45035714D01*
X57885714Y-45130952D01*
X57838095Y-45178571D01*
X57742857Y-45226190D01*
X57361904Y-45226190D01*
X58885714Y-45702380D02*
X58314285Y-45702380D01*
X58600000Y-45702380D02*
X58600000Y-44702380D01*
X58504761Y-44845238D01*
X58409523Y-44940476D01*
X58314285Y-44988095D01*
X67333333Y-47682142D02*
X67285714Y-47729761D01*
X67142857Y-47777380D01*
X67047619Y-47777380D01*
X66904761Y-47729761D01*
X66809523Y-47634523D01*
X66761904Y-47539285D01*
X66714285Y-47348809D01*
X66714285Y-47205952D01*
X66761904Y-47015476D01*
X66809523Y-46920238D01*
X66904761Y-46825000D01*
X67047619Y-46777380D01*
X67142857Y-46777380D01*
X67285714Y-46825000D01*
X67333333Y-46872619D01*
X68285714Y-47777380D02*
X67714285Y-47777380D01*
X68000000Y-47777380D02*
X68000000Y-46777380D01*
X67904761Y-46920238D01*
X67809523Y-47015476D01*
X67714285Y-47063095D01*
X40407142Y-56266666D02*
X40454761Y-56314285D01*
X40502380Y-56457142D01*
X40502380Y-56552380D01*
X40454761Y-56695238D01*
X40359523Y-56790476D01*
X40264285Y-56838095D01*
X40073809Y-56885714D01*
X39930952Y-56885714D01*
X39740476Y-56838095D01*
X39645238Y-56790476D01*
X39550000Y-56695238D01*
X39502380Y-56552380D01*
X39502380Y-56457142D01*
X39550000Y-56314285D01*
X39597619Y-56266666D01*
X39597619Y-55885714D02*
X39550000Y-55838095D01*
X39502380Y-55742857D01*
X39502380Y-55504761D01*
X39550000Y-55409523D01*
X39597619Y-55361904D01*
X39692857Y-55314285D01*
X39788095Y-55314285D01*
X39930952Y-55361904D01*
X40502380Y-55933333D01*
X40502380Y-55314285D01*
X55258333Y-55007142D02*
X55210714Y-55054761D01*
X55067857Y-55102380D01*
X54972619Y-55102380D01*
X54829761Y-55054761D01*
X54734523Y-54959523D01*
X54686904Y-54864285D01*
X54639285Y-54673809D01*
X54639285Y-54530952D01*
X54686904Y-54340476D01*
X54734523Y-54245238D01*
X54829761Y-54150000D01*
X54972619Y-54102380D01*
X55067857Y-54102380D01*
X55210714Y-54150000D01*
X55258333Y-54197619D01*
X55591666Y-54102380D02*
X56210714Y-54102380D01*
X55877380Y-54483333D01*
X56020238Y-54483333D01*
X56115476Y-54530952D01*
X56163095Y-54578571D01*
X56210714Y-54673809D01*
X56210714Y-54911904D01*
X56163095Y-55007142D01*
X56115476Y-55054761D01*
X56020238Y-55102380D01*
X55734523Y-55102380D01*
X55639285Y-55054761D01*
X55591666Y-55007142D01*
X69119871Y-55007142D02*
X69072252Y-55054761D01*
X68929395Y-55102380D01*
X68834157Y-55102380D01*
X68691299Y-55054761D01*
X68596061Y-54959523D01*
X68548442Y-54864285D01*
X68500823Y-54673809D01*
X68500823Y-54530952D01*
X68548442Y-54340476D01*
X68596061Y-54245238D01*
X68691299Y-54150000D01*
X68834157Y-54102380D01*
X68929395Y-54102380D01*
X69072252Y-54150000D01*
X69119871Y-54197619D01*
X69977014Y-54435714D02*
X69977014Y-55102380D01*
X69738918Y-54054761D02*
X69500823Y-54769047D01*
X70119871Y-54769047D01*
X82950640Y-55007142D02*
X82903021Y-55054761D01*
X82760164Y-55102380D01*
X82664926Y-55102380D01*
X82522068Y-55054761D01*
X82426830Y-54959523D01*
X82379211Y-54864285D01*
X82331592Y-54673809D01*
X82331592Y-54530952D01*
X82379211Y-54340476D01*
X82426830Y-54245238D01*
X82522068Y-54150000D01*
X82664926Y-54102380D01*
X82760164Y-54102380D01*
X82903021Y-54150000D01*
X82950640Y-54197619D01*
X83855402Y-54102380D02*
X83379211Y-54102380D01*
X83331592Y-54578571D01*
X83379211Y-54530952D01*
X83474449Y-54483333D01*
X83712545Y-54483333D01*
X83807783Y-54530952D01*
X83855402Y-54578571D01*
X83903021Y-54673809D01*
X83903021Y-54911904D01*
X83855402Y-55007142D01*
X83807783Y-55054761D01*
X83712545Y-55102380D01*
X83474449Y-55102380D01*
X83379211Y-55054761D01*
X83331592Y-55007142D01*
X83133333Y-45652380D02*
X82800000Y-45176190D01*
X82561904Y-45652380D02*
X82561904Y-44652380D01*
X82942857Y-44652380D01*
X83038095Y-44700000D01*
X83085714Y-44747619D01*
X83133333Y-44842857D01*
X83133333Y-44985714D01*
X83085714Y-45080952D01*
X83038095Y-45128571D01*
X82942857Y-45176190D01*
X82561904Y-45176190D01*
X83514285Y-44747619D02*
X83561904Y-44700000D01*
X83657142Y-44652380D01*
X83895238Y-44652380D01*
X83990476Y-44700000D01*
X84038095Y-44747619D01*
X84085714Y-44842857D01*
X84085714Y-44938095D01*
X84038095Y-45080952D01*
X83466666Y-45652380D01*
X84085714Y-45652380D01*
X70233333Y-47802380D02*
X69900000Y-47326190D01*
X69661904Y-47802380D02*
X69661904Y-46802380D01*
X70042857Y-46802380D01*
X70138095Y-46850000D01*
X70185714Y-46897619D01*
X70233333Y-46992857D01*
X70233333Y-47135714D01*
X70185714Y-47230952D01*
X70138095Y-47278571D01*
X70042857Y-47326190D01*
X69661904Y-47326190D01*
X71090476Y-47135714D02*
X71090476Y-47802380D01*
X70852380Y-46754761D02*
X70614285Y-47469047D01*
X71233333Y-47469047D01*
X44333333Y-55277380D02*
X44000000Y-54801190D01*
X43761904Y-55277380D02*
X43761904Y-54277380D01*
X44142857Y-54277380D01*
X44238095Y-54325000D01*
X44285714Y-54372619D01*
X44333333Y-54467857D01*
X44333333Y-54610714D01*
X44285714Y-54705952D01*
X44238095Y-54753571D01*
X44142857Y-54801190D01*
X43761904Y-54801190D01*
X45238095Y-54277380D02*
X44761904Y-54277380D01*
X44714285Y-54753571D01*
X44761904Y-54705952D01*
X44857142Y-54658333D01*
X45095238Y-54658333D01*
X45190476Y-54705952D01*
X45238095Y-54753571D01*
X45285714Y-54848809D01*
X45285714Y-55086904D01*
X45238095Y-55182142D01*
X45190476Y-55229761D01*
X45095238Y-55277380D01*
X44857142Y-55277380D01*
X44761904Y-55229761D01*
X44714285Y-55182142D01*
X58114102Y-55102380D02*
X57780769Y-54626190D01*
X57542673Y-55102380D02*
X57542673Y-54102380D01*
X57923626Y-54102380D01*
X58018864Y-54150000D01*
X58066483Y-54197619D01*
X58114102Y-54292857D01*
X58114102Y-54435714D01*
X58066483Y-54530952D01*
X58018864Y-54578571D01*
X57923626Y-54626190D01*
X57542673Y-54626190D01*
X58971245Y-54102380D02*
X58780769Y-54102380D01*
X58685530Y-54150000D01*
X58637911Y-54197619D01*
X58542673Y-54340476D01*
X58495054Y-54530952D01*
X58495054Y-54911904D01*
X58542673Y-55007142D01*
X58590292Y-55054761D01*
X58685530Y-55102380D01*
X58876007Y-55102380D01*
X58971245Y-55054761D01*
X59018864Y-55007142D01*
X59066483Y-54911904D01*
X59066483Y-54673809D01*
X59018864Y-54578571D01*
X58971245Y-54530952D01*
X58876007Y-54483333D01*
X58685530Y-54483333D01*
X58590292Y-54530952D01*
X58542673Y-54578571D01*
X58495054Y-54673809D01*
X71944871Y-55102380D02*
X71611538Y-54626190D01*
X71373442Y-55102380D02*
X71373442Y-54102380D01*
X71754395Y-54102380D01*
X71849633Y-54150000D01*
X71897252Y-54197619D01*
X71944871Y-54292857D01*
X71944871Y-54435714D01*
X71897252Y-54530952D01*
X71849633Y-54578571D01*
X71754395Y-54626190D01*
X71373442Y-54626190D01*
X72278204Y-54102380D02*
X72944871Y-54102380D01*
X72516299Y-55102380D01*
X85775640Y-55102380D02*
X85442307Y-54626190D01*
X85204211Y-55102380D02*
X85204211Y-54102380D01*
X85585164Y-54102380D01*
X85680402Y-54150000D01*
X85728021Y-54197619D01*
X85775640Y-54292857D01*
X85775640Y-54435714D01*
X85728021Y-54530952D01*
X85680402Y-54578571D01*
X85585164Y-54626190D01*
X85204211Y-54626190D01*
X86347068Y-54530952D02*
X86251830Y-54483333D01*
X86204211Y-54435714D01*
X86156592Y-54340476D01*
X86156592Y-54292857D01*
X86204211Y-54197619D01*
X86251830Y-54150000D01*
X86347068Y-54102380D01*
X86537545Y-54102380D01*
X86632783Y-54150000D01*
X86680402Y-54197619D01*
X86728021Y-54292857D01*
X86728021Y-54340476D01*
X86680402Y-54435714D01*
X86632783Y-54483333D01*
X86537545Y-54530952D01*
X86347068Y-54530952D01*
X86251830Y-54578571D01*
X86204211Y-54626190D01*
X86156592Y-54721428D01*
X86156592Y-54911904D01*
X86204211Y-55007142D01*
X86251830Y-55054761D01*
X86347068Y-55102380D01*
X86537545Y-55102380D01*
X86632783Y-55054761D01*
X86680402Y-55007142D01*
X86728021Y-54911904D01*
X86728021Y-54721428D01*
X86680402Y-54626190D01*
X86632783Y-54578571D01*
X86537545Y-54530952D01*
X52041428Y-45652380D02*
X51708095Y-45176190D01*
X51470000Y-45652380D02*
X51470000Y-44652380D01*
X51850952Y-44652380D01*
X51946190Y-44700000D01*
X51993809Y-44747619D01*
X52041428Y-44842857D01*
X52041428Y-44985714D01*
X51993809Y-45080952D01*
X51946190Y-45128571D01*
X51850952Y-45176190D01*
X51470000Y-45176190D01*
X52327143Y-44652380D02*
X52660476Y-45652380D01*
X52993809Y-44652380D01*
X53850952Y-45652380D02*
X53279524Y-45652380D01*
X53565238Y-45652380D02*
X53565238Y-44652380D01*
X53470000Y-44795238D01*
X53374762Y-44890476D01*
X53279524Y-44938095D01*
X77208094Y-45652380D02*
X76874761Y-45176190D01*
X76636666Y-45652380D02*
X76636666Y-44652380D01*
X77017618Y-44652380D01*
X77112856Y-44700000D01*
X77160475Y-44747619D01*
X77208094Y-44842857D01*
X77208094Y-44985714D01*
X77160475Y-45080952D01*
X77112856Y-45128571D01*
X77017618Y-45176190D01*
X76636666Y-45176190D01*
X77493809Y-44652380D02*
X77827142Y-45652380D01*
X78160475Y-44652380D01*
X78446190Y-44747619D02*
X78493809Y-44700000D01*
X78589047Y-44652380D01*
X78827142Y-44652380D01*
X78922380Y-44700000D01*
X78969999Y-44747619D01*
X79017618Y-44842857D01*
X79017618Y-44938095D01*
X78969999Y-45080952D01*
X78398571Y-45652380D01*
X79017618Y-45652380D01*
X34938095Y-54052380D02*
X34938095Y-54861904D01*
X34985714Y-54957142D01*
X35033333Y-55004761D01*
X35128571Y-55052380D01*
X35319047Y-55052380D01*
X35414285Y-55004761D01*
X35461904Y-54957142D01*
X35509523Y-54861904D01*
X35509523Y-54052380D01*
X36509523Y-55052380D02*
X35938095Y-55052380D01*
X36223809Y-55052380D02*
X36223809Y-54052380D01*
X36128571Y-54195238D01*
X36033333Y-54290476D01*
X35938095Y-54338095D01*
X48771428Y-54052380D02*
X48771428Y-54861904D01*
X48819047Y-54957142D01*
X48866666Y-55004761D01*
X48961904Y-55052380D01*
X49152380Y-55052380D01*
X49247618Y-55004761D01*
X49295237Y-54957142D01*
X49342856Y-54861904D01*
X49342856Y-54052380D01*
X49771428Y-54147619D02*
X49819047Y-54100000D01*
X49914285Y-54052380D01*
X50152380Y-54052380D01*
X50247618Y-54100000D01*
X50295237Y-54147619D01*
X50342856Y-54242857D01*
X50342856Y-54338095D01*
X50295237Y-54480952D01*
X49723809Y-55052380D01*
X50342856Y-55052380D01*
X62604762Y-54052380D02*
X62604762Y-54861904D01*
X62652381Y-54957142D01*
X62700000Y-55004761D01*
X62795238Y-55052380D01*
X62985714Y-55052380D01*
X63080952Y-55004761D01*
X63128571Y-54957142D01*
X63176190Y-54861904D01*
X63176190Y-54052380D01*
X63557143Y-54052380D02*
X64176190Y-54052380D01*
X63842857Y-54433333D01*
X63985714Y-54433333D01*
X64080952Y-54480952D01*
X64128571Y-54528571D01*
X64176190Y-54623809D01*
X64176190Y-54861904D01*
X64128571Y-54957142D01*
X64080952Y-55004761D01*
X63985714Y-55052380D01*
X63700000Y-55052380D01*
X63604762Y-55004761D01*
X63557143Y-54957142D01*
X76438095Y-54052380D02*
X76438095Y-54861904D01*
X76485714Y-54957142D01*
X76533333Y-55004761D01*
X76628571Y-55052380D01*
X76819047Y-55052380D01*
X76914285Y-55004761D01*
X76961904Y-54957142D01*
X77009523Y-54861904D01*
X77009523Y-54052380D01*
X77914285Y-54385714D02*
X77914285Y-55052380D01*
X77676190Y-54004761D02*
X77438095Y-54719047D01*
X78057142Y-54719047D01*
X90271428Y-54052380D02*
X90271428Y-54861904D01*
X90319047Y-54957142D01*
X90366666Y-55004761D01*
X90461904Y-55052380D01*
X90652380Y-55052380D01*
X90747618Y-55004761D01*
X90795237Y-54957142D01*
X90842856Y-54861904D01*
X90842856Y-54052380D01*
X91795237Y-54052380D02*
X91319047Y-54052380D01*
X91271428Y-54528571D01*
X91319047Y-54480952D01*
X91414285Y-54433333D01*
X91652380Y-54433333D01*
X91747618Y-54480952D01*
X91795237Y-54528571D01*
X91842856Y-54623809D01*
X91842856Y-54861904D01*
X91795237Y-54957142D01*
X91747618Y-55004761D01*
X91652380Y-55052380D01*
X91414285Y-55052380D01*
X91319047Y-55004761D01*
X91271428Y-54957142D01*
X159302380Y-43333333D02*
X160016666Y-43333333D01*
X160159523Y-43380952D01*
X160254761Y-43476190D01*
X160302380Y-43619047D01*
X160302380Y-43714285D01*
X159635714Y-42428571D02*
X160302380Y-42428571D01*
X159254761Y-42666666D02*
X159969047Y-42904761D01*
X159969047Y-42285714D01*
X96781409Y-55007142D02*
X96733790Y-55054761D01*
X96590933Y-55102380D01*
X96495695Y-55102380D01*
X96352837Y-55054761D01*
X96257599Y-54959523D01*
X96209980Y-54864285D01*
X96162361Y-54673809D01*
X96162361Y-54530952D01*
X96209980Y-54340476D01*
X96257599Y-54245238D01*
X96352837Y-54150000D01*
X96495695Y-54102380D01*
X96590933Y-54102380D01*
X96733790Y-54150000D01*
X96781409Y-54197619D01*
X97638552Y-54102380D02*
X97448076Y-54102380D01*
X97352837Y-54150000D01*
X97305218Y-54197619D01*
X97209980Y-54340476D01*
X97162361Y-54530952D01*
X97162361Y-54911904D01*
X97209980Y-55007142D01*
X97257599Y-55054761D01*
X97352837Y-55102380D01*
X97543314Y-55102380D01*
X97638552Y-55054761D01*
X97686171Y-55007142D01*
X97733790Y-54911904D01*
X97733790Y-54673809D01*
X97686171Y-54578571D01*
X97638552Y-54530952D01*
X97543314Y-54483333D01*
X97352837Y-54483333D01*
X97257599Y-54530952D01*
X97209980Y-54578571D01*
X97162361Y-54673809D01*
X110612178Y-55007142D02*
X110564559Y-55054761D01*
X110421702Y-55102380D01*
X110326464Y-55102380D01*
X110183606Y-55054761D01*
X110088368Y-54959523D01*
X110040749Y-54864285D01*
X109993130Y-54673809D01*
X109993130Y-54530952D01*
X110040749Y-54340476D01*
X110088368Y-54245238D01*
X110183606Y-54150000D01*
X110326464Y-54102380D01*
X110421702Y-54102380D01*
X110564559Y-54150000D01*
X110612178Y-54197619D01*
X110945511Y-54102380D02*
X111612178Y-54102380D01*
X111183606Y-55102380D01*
X124442947Y-55007142D02*
X124395328Y-55054761D01*
X124252471Y-55102380D01*
X124157233Y-55102380D01*
X124014375Y-55054761D01*
X123919137Y-54959523D01*
X123871518Y-54864285D01*
X123823899Y-54673809D01*
X123823899Y-54530952D01*
X123871518Y-54340476D01*
X123919137Y-54245238D01*
X124014375Y-54150000D01*
X124157233Y-54102380D01*
X124252471Y-54102380D01*
X124395328Y-54150000D01*
X124442947Y-54197619D01*
X125014375Y-54530952D02*
X124919137Y-54483333D01*
X124871518Y-54435714D01*
X124823899Y-54340476D01*
X124823899Y-54292857D01*
X124871518Y-54197619D01*
X124919137Y-54150000D01*
X125014375Y-54102380D01*
X125204852Y-54102380D01*
X125300090Y-54150000D01*
X125347709Y-54197619D01*
X125395328Y-54292857D01*
X125395328Y-54340476D01*
X125347709Y-54435714D01*
X125300090Y-54483333D01*
X125204852Y-54530952D01*
X125014375Y-54530952D01*
X124919137Y-54578571D01*
X124871518Y-54626190D01*
X124823899Y-54721428D01*
X124823899Y-54911904D01*
X124871518Y-55007142D01*
X124919137Y-55054761D01*
X125014375Y-55102380D01*
X125204852Y-55102380D01*
X125300090Y-55054761D01*
X125347709Y-55007142D01*
X125395328Y-54911904D01*
X125395328Y-54721428D01*
X125347709Y-54626190D01*
X125300090Y-54578571D01*
X125204852Y-54530952D01*
X138273716Y-55007142D02*
X138226097Y-55054761D01*
X138083240Y-55102380D01*
X137988002Y-55102380D01*
X137845144Y-55054761D01*
X137749906Y-54959523D01*
X137702287Y-54864285D01*
X137654668Y-54673809D01*
X137654668Y-54530952D01*
X137702287Y-54340476D01*
X137749906Y-54245238D01*
X137845144Y-54150000D01*
X137988002Y-54102380D01*
X138083240Y-54102380D01*
X138226097Y-54150000D01*
X138273716Y-54197619D01*
X138749906Y-55102380D02*
X138940383Y-55102380D01*
X139035621Y-55054761D01*
X139083240Y-55007142D01*
X139178478Y-54864285D01*
X139226097Y-54673809D01*
X139226097Y-54292857D01*
X139178478Y-54197619D01*
X139130859Y-54150000D01*
X139035621Y-54102380D01*
X138845144Y-54102380D01*
X138749906Y-54150000D01*
X138702287Y-54197619D01*
X138654668Y-54292857D01*
X138654668Y-54530952D01*
X138702287Y-54626190D01*
X138749906Y-54673809D01*
X138845144Y-54721428D01*
X139035621Y-54721428D01*
X139130859Y-54673809D01*
X139178478Y-54626190D01*
X139226097Y-54530952D01*
X151628294Y-55007142D02*
X151580675Y-55054761D01*
X151437818Y-55102380D01*
X151342580Y-55102380D01*
X151199723Y-55054761D01*
X151104485Y-54959523D01*
X151056866Y-54864285D01*
X151009247Y-54673809D01*
X151009247Y-54530952D01*
X151056866Y-54340476D01*
X151104485Y-54245238D01*
X151199723Y-54150000D01*
X151342580Y-54102380D01*
X151437818Y-54102380D01*
X151580675Y-54150000D01*
X151628294Y-54197619D01*
X152580675Y-55102380D02*
X152009247Y-55102380D01*
X152294961Y-55102380D02*
X152294961Y-54102380D01*
X152199723Y-54245238D01*
X152104485Y-54340476D01*
X152009247Y-54388095D01*
X153199723Y-54102380D02*
X153294961Y-54102380D01*
X153390199Y-54150000D01*
X153437818Y-54197619D01*
X153485437Y-54292857D01*
X153533056Y-54483333D01*
X153533056Y-54721428D01*
X153485437Y-54911904D01*
X153437818Y-55007142D01*
X153390199Y-55054761D01*
X153294961Y-55102380D01*
X153199723Y-55102380D01*
X153104485Y-55054761D01*
X153056866Y-55007142D01*
X153009247Y-54911904D01*
X152961628Y-54721428D01*
X152961628Y-54483333D01*
X153009247Y-54292857D01*
X153056866Y-54197619D01*
X153104485Y-54150000D01*
X153199723Y-54102380D01*
X165459063Y-55007142D02*
X165411444Y-55054761D01*
X165268587Y-55102380D01*
X165173349Y-55102380D01*
X165030492Y-55054761D01*
X164935254Y-54959523D01*
X164887635Y-54864285D01*
X164840016Y-54673809D01*
X164840016Y-54530952D01*
X164887635Y-54340476D01*
X164935254Y-54245238D01*
X165030492Y-54150000D01*
X165173349Y-54102380D01*
X165268587Y-54102380D01*
X165411444Y-54150000D01*
X165459063Y-54197619D01*
X166411444Y-55102380D02*
X165840016Y-55102380D01*
X166125730Y-55102380D02*
X166125730Y-54102380D01*
X166030492Y-54245238D01*
X165935254Y-54340476D01*
X165840016Y-54388095D01*
X167363825Y-55102380D02*
X166792397Y-55102380D01*
X167078111Y-55102380D02*
X167078111Y-54102380D01*
X166982873Y-54245238D01*
X166887635Y-54340476D01*
X166792397Y-54388095D01*
X179289832Y-55007142D02*
X179242213Y-55054761D01*
X179099356Y-55102380D01*
X179004118Y-55102380D01*
X178861261Y-55054761D01*
X178766023Y-54959523D01*
X178718404Y-54864285D01*
X178670785Y-54673809D01*
X178670785Y-54530952D01*
X178718404Y-54340476D01*
X178766023Y-54245238D01*
X178861261Y-54150000D01*
X179004118Y-54102380D01*
X179099356Y-54102380D01*
X179242213Y-54150000D01*
X179289832Y-54197619D01*
X180242213Y-55102380D02*
X179670785Y-55102380D01*
X179956499Y-55102380D02*
X179956499Y-54102380D01*
X179861261Y-54245238D01*
X179766023Y-54340476D01*
X179670785Y-54388095D01*
X180623166Y-54197619D02*
X180670785Y-54150000D01*
X180766023Y-54102380D01*
X181004118Y-54102380D01*
X181099356Y-54150000D01*
X181146975Y-54197619D01*
X181194594Y-54292857D01*
X181194594Y-54388095D01*
X181146975Y-54530952D01*
X180575547Y-55102380D01*
X181194594Y-55102380D01*
X193120601Y-55007142D02*
X193072982Y-55054761D01*
X192930125Y-55102380D01*
X192834887Y-55102380D01*
X192692030Y-55054761D01*
X192596792Y-54959523D01*
X192549173Y-54864285D01*
X192501554Y-54673809D01*
X192501554Y-54530952D01*
X192549173Y-54340476D01*
X192596792Y-54245238D01*
X192692030Y-54150000D01*
X192834887Y-54102380D01*
X192930125Y-54102380D01*
X193072982Y-54150000D01*
X193120601Y-54197619D01*
X194072982Y-55102380D02*
X193501554Y-55102380D01*
X193787268Y-55102380D02*
X193787268Y-54102380D01*
X193692030Y-54245238D01*
X193596792Y-54340476D01*
X193501554Y-54388095D01*
X194406316Y-54102380D02*
X195025363Y-54102380D01*
X194692030Y-54483333D01*
X194834887Y-54483333D01*
X194930125Y-54530952D01*
X194977744Y-54578571D01*
X195025363Y-54673809D01*
X195025363Y-54911904D01*
X194977744Y-55007142D01*
X194930125Y-55054761D01*
X194834887Y-55102380D01*
X194549173Y-55102380D01*
X194453935Y-55054761D01*
X194406316Y-55007142D01*
X206951370Y-55007142D02*
X206903751Y-55054761D01*
X206760894Y-55102380D01*
X206665656Y-55102380D01*
X206522799Y-55054761D01*
X206427561Y-54959523D01*
X206379942Y-54864285D01*
X206332323Y-54673809D01*
X206332323Y-54530952D01*
X206379942Y-54340476D01*
X206427561Y-54245238D01*
X206522799Y-54150000D01*
X206665656Y-54102380D01*
X206760894Y-54102380D01*
X206903751Y-54150000D01*
X206951370Y-54197619D01*
X207903751Y-55102380D02*
X207332323Y-55102380D01*
X207618037Y-55102380D02*
X207618037Y-54102380D01*
X207522799Y-54245238D01*
X207427561Y-54340476D01*
X207332323Y-54388095D01*
X208760894Y-54435714D02*
X208760894Y-55102380D01*
X208522799Y-54054761D02*
X208284704Y-54769047D01*
X208903751Y-54769047D01*
X220157142Y-56667857D02*
X220204761Y-56715476D01*
X220252380Y-56858333D01*
X220252380Y-56953571D01*
X220204761Y-57096428D01*
X220109523Y-57191666D01*
X220014285Y-57239285D01*
X219823809Y-57286904D01*
X219680952Y-57286904D01*
X219490476Y-57239285D01*
X219395238Y-57191666D01*
X219300000Y-57096428D01*
X219252380Y-56953571D01*
X219252380Y-56858333D01*
X219300000Y-56715476D01*
X219347619Y-56667857D01*
X220252380Y-55715476D02*
X220252380Y-56286904D01*
X220252380Y-56001190D02*
X219252380Y-56001190D01*
X219395238Y-56096428D01*
X219490476Y-56191666D01*
X219538095Y-56286904D01*
X219252380Y-54810714D02*
X219252380Y-55286904D01*
X219728571Y-55334523D01*
X219680952Y-55286904D01*
X219633333Y-55191666D01*
X219633333Y-54953571D01*
X219680952Y-54858333D01*
X219728571Y-54810714D01*
X219823809Y-54763095D01*
X220061904Y-54763095D01*
X220157142Y-54810714D01*
X220204761Y-54858333D01*
X220252380Y-54953571D01*
X220252380Y-55191666D01*
X220204761Y-55286904D01*
X220157142Y-55334523D01*
X126357142Y-38457142D02*
X126309523Y-38504761D01*
X126166666Y-38552380D01*
X126071428Y-38552380D01*
X125928571Y-38504761D01*
X125833333Y-38409523D01*
X125785714Y-38314285D01*
X125738095Y-38123809D01*
X125738095Y-37980952D01*
X125785714Y-37790476D01*
X125833333Y-37695238D01*
X125928571Y-37600000D01*
X126071428Y-37552380D01*
X126166666Y-37552380D01*
X126309523Y-37600000D01*
X126357142Y-37647619D01*
X126738095Y-37647619D02*
X126785714Y-37600000D01*
X126880952Y-37552380D01*
X127119047Y-37552380D01*
X127214285Y-37600000D01*
X127261904Y-37647619D01*
X127309523Y-37742857D01*
X127309523Y-37838095D01*
X127261904Y-37980952D01*
X126690476Y-38552380D01*
X127309523Y-38552380D01*
X127928571Y-37552380D02*
X128023809Y-37552380D01*
X128119047Y-37600000D01*
X128166666Y-37647619D01*
X128214285Y-37742857D01*
X128261904Y-37933333D01*
X128261904Y-38171428D01*
X128214285Y-38361904D01*
X128166666Y-38457142D01*
X128119047Y-38504761D01*
X128023809Y-38552380D01*
X127928571Y-38552380D01*
X127833333Y-38504761D01*
X127785714Y-38457142D01*
X127738095Y-38361904D01*
X127690476Y-38171428D01*
X127690476Y-37933333D01*
X127738095Y-37742857D01*
X127785714Y-37647619D01*
X127833333Y-37600000D01*
X127928571Y-37552380D01*
X130657142Y-38357142D02*
X130609523Y-38404761D01*
X130466666Y-38452380D01*
X130371428Y-38452380D01*
X130228571Y-38404761D01*
X130133333Y-38309523D01*
X130085714Y-38214285D01*
X130038095Y-38023809D01*
X130038095Y-37880952D01*
X130085714Y-37690476D01*
X130133333Y-37595238D01*
X130228571Y-37500000D01*
X130371428Y-37452380D01*
X130466666Y-37452380D01*
X130609523Y-37500000D01*
X130657142Y-37547619D01*
X131038095Y-37547619D02*
X131085714Y-37500000D01*
X131180952Y-37452380D01*
X131419047Y-37452380D01*
X131514285Y-37500000D01*
X131561904Y-37547619D01*
X131609523Y-37642857D01*
X131609523Y-37738095D01*
X131561904Y-37880952D01*
X130990476Y-38452380D01*
X131609523Y-38452380D01*
X132561904Y-38452380D02*
X131990476Y-38452380D01*
X132276190Y-38452380D02*
X132276190Y-37452380D01*
X132180952Y-37595238D01*
X132085714Y-37690476D01*
X131990476Y-37738095D01*
X117257142Y-38457142D02*
X117209523Y-38504761D01*
X117066666Y-38552380D01*
X116971428Y-38552380D01*
X116828571Y-38504761D01*
X116733333Y-38409523D01*
X116685714Y-38314285D01*
X116638095Y-38123809D01*
X116638095Y-37980952D01*
X116685714Y-37790476D01*
X116733333Y-37695238D01*
X116828571Y-37600000D01*
X116971428Y-37552380D01*
X117066666Y-37552380D01*
X117209523Y-37600000D01*
X117257142Y-37647619D01*
X117638095Y-37647619D02*
X117685714Y-37600000D01*
X117780952Y-37552380D01*
X118019047Y-37552380D01*
X118114285Y-37600000D01*
X118161904Y-37647619D01*
X118209523Y-37742857D01*
X118209523Y-37838095D01*
X118161904Y-37980952D01*
X117590476Y-38552380D01*
X118209523Y-38552380D01*
X118590476Y-37647619D02*
X118638095Y-37600000D01*
X118733333Y-37552380D01*
X118971428Y-37552380D01*
X119066666Y-37600000D01*
X119114285Y-37647619D01*
X119161904Y-37742857D01*
X119161904Y-37838095D01*
X119114285Y-37980952D01*
X118542857Y-38552380D01*
X119161904Y-38552380D01*
X121557142Y-38357142D02*
X121509523Y-38404761D01*
X121366666Y-38452380D01*
X121271428Y-38452380D01*
X121128571Y-38404761D01*
X121033333Y-38309523D01*
X120985714Y-38214285D01*
X120938095Y-38023809D01*
X120938095Y-37880952D01*
X120985714Y-37690476D01*
X121033333Y-37595238D01*
X121128571Y-37500000D01*
X121271428Y-37452380D01*
X121366666Y-37452380D01*
X121509523Y-37500000D01*
X121557142Y-37547619D01*
X121938095Y-37547619D02*
X121985714Y-37500000D01*
X122080952Y-37452380D01*
X122319047Y-37452380D01*
X122414285Y-37500000D01*
X122461904Y-37547619D01*
X122509523Y-37642857D01*
X122509523Y-37738095D01*
X122461904Y-37880952D01*
X121890476Y-38452380D01*
X122509523Y-38452380D01*
X122842857Y-37452380D02*
X123461904Y-37452380D01*
X123128571Y-37833333D01*
X123271428Y-37833333D01*
X123366666Y-37880952D01*
X123414285Y-37928571D01*
X123461904Y-38023809D01*
X123461904Y-38261904D01*
X123414285Y-38357142D01*
X123366666Y-38404761D01*
X123271428Y-38452380D01*
X122985714Y-38452380D01*
X122890476Y-38404761D01*
X122842857Y-38357142D01*
X217942380Y-43133333D02*
X218656666Y-43133333D01*
X218799523Y-43180952D01*
X218894761Y-43276190D01*
X218942380Y-43419047D01*
X218942380Y-43514285D01*
X218037619Y-42704761D02*
X217990000Y-42657142D01*
X217942380Y-42561904D01*
X217942380Y-42323809D01*
X217990000Y-42228571D01*
X218037619Y-42180952D01*
X218132857Y-42133333D01*
X218228095Y-42133333D01*
X218370952Y-42180952D01*
X218942380Y-42752380D01*
X218942380Y-42133333D01*
X138682380Y-37248333D02*
X139396666Y-37248333D01*
X139539523Y-37295952D01*
X139634761Y-37391190D01*
X139682380Y-37534047D01*
X139682380Y-37629285D01*
X138682380Y-36867380D02*
X138682380Y-36248333D01*
X139063333Y-36581666D01*
X139063333Y-36438809D01*
X139110952Y-36343571D01*
X139158571Y-36295952D01*
X139253809Y-36248333D01*
X139491904Y-36248333D01*
X139587142Y-36295952D01*
X139634761Y-36343571D01*
X139682380Y-36438809D01*
X139682380Y-36724523D01*
X139634761Y-36819761D01*
X139587142Y-36867380D01*
X124733333Y-45602380D02*
X124400000Y-45126190D01*
X124161904Y-45602380D02*
X124161904Y-44602380D01*
X124542857Y-44602380D01*
X124638095Y-44650000D01*
X124685714Y-44697619D01*
X124733333Y-44792857D01*
X124733333Y-44935714D01*
X124685714Y-45030952D01*
X124638095Y-45078571D01*
X124542857Y-45126190D01*
X124161904Y-45126190D01*
X125066666Y-44602380D02*
X125685714Y-44602380D01*
X125352380Y-44983333D01*
X125495238Y-44983333D01*
X125590476Y-45030952D01*
X125638095Y-45078571D01*
X125685714Y-45173809D01*
X125685714Y-45411904D01*
X125638095Y-45507142D01*
X125590476Y-45554761D01*
X125495238Y-45602380D01*
X125209523Y-45602380D01*
X125114285Y-45554761D01*
X125066666Y-45507142D01*
X99606409Y-55102380D02*
X99273076Y-54626190D01*
X99034980Y-55102380D02*
X99034980Y-54102380D01*
X99415933Y-54102380D01*
X99511171Y-54150000D01*
X99558790Y-54197619D01*
X99606409Y-54292857D01*
X99606409Y-54435714D01*
X99558790Y-54530952D01*
X99511171Y-54578571D01*
X99415933Y-54626190D01*
X99034980Y-54626190D01*
X100082599Y-55102380D02*
X100273076Y-55102380D01*
X100368314Y-55054761D01*
X100415933Y-55007142D01*
X100511171Y-54864285D01*
X100558790Y-54673809D01*
X100558790Y-54292857D01*
X100511171Y-54197619D01*
X100463552Y-54150000D01*
X100368314Y-54102380D01*
X100177837Y-54102380D01*
X100082599Y-54150000D01*
X100034980Y-54197619D01*
X99987361Y-54292857D01*
X99987361Y-54530952D01*
X100034980Y-54626190D01*
X100082599Y-54673809D01*
X100177837Y-54721428D01*
X100368314Y-54721428D01*
X100463552Y-54673809D01*
X100511171Y-54626190D01*
X100558790Y-54530952D01*
X113360987Y-55102380D02*
X113027654Y-54626190D01*
X112789559Y-55102380D02*
X112789559Y-54102380D01*
X113170511Y-54102380D01*
X113265749Y-54150000D01*
X113313368Y-54197619D01*
X113360987Y-54292857D01*
X113360987Y-54435714D01*
X113313368Y-54530952D01*
X113265749Y-54578571D01*
X113170511Y-54626190D01*
X112789559Y-54626190D01*
X114313368Y-55102380D02*
X113741940Y-55102380D01*
X114027654Y-55102380D02*
X114027654Y-54102380D01*
X113932416Y-54245238D01*
X113837178Y-54340476D01*
X113741940Y-54388095D01*
X114932416Y-54102380D02*
X115027654Y-54102380D01*
X115122892Y-54150000D01*
X115170511Y-54197619D01*
X115218130Y-54292857D01*
X115265749Y-54483333D01*
X115265749Y-54721428D01*
X115218130Y-54911904D01*
X115170511Y-55007142D01*
X115122892Y-55054761D01*
X115027654Y-55102380D01*
X114932416Y-55102380D01*
X114837178Y-55054761D01*
X114789559Y-55007142D01*
X114741940Y-54911904D01*
X114694321Y-54721428D01*
X114694321Y-54483333D01*
X114741940Y-54292857D01*
X114789559Y-54197619D01*
X114837178Y-54150000D01*
X114932416Y-54102380D01*
X127191756Y-55102380D02*
X126858423Y-54626190D01*
X126620328Y-55102380D02*
X126620328Y-54102380D01*
X127001280Y-54102380D01*
X127096518Y-54150000D01*
X127144137Y-54197619D01*
X127191756Y-54292857D01*
X127191756Y-54435714D01*
X127144137Y-54530952D01*
X127096518Y-54578571D01*
X127001280Y-54626190D01*
X126620328Y-54626190D01*
X128144137Y-55102380D02*
X127572709Y-55102380D01*
X127858423Y-55102380D02*
X127858423Y-54102380D01*
X127763185Y-54245238D01*
X127667947Y-54340476D01*
X127572709Y-54388095D01*
X129096518Y-55102380D02*
X128525090Y-55102380D01*
X128810804Y-55102380D02*
X128810804Y-54102380D01*
X128715566Y-54245238D01*
X128620328Y-54340476D01*
X128525090Y-54388095D01*
X141022525Y-55102380D02*
X140689192Y-54626190D01*
X140451097Y-55102380D02*
X140451097Y-54102380D01*
X140832049Y-54102380D01*
X140927287Y-54150000D01*
X140974906Y-54197619D01*
X141022525Y-54292857D01*
X141022525Y-54435714D01*
X140974906Y-54530952D01*
X140927287Y-54578571D01*
X140832049Y-54626190D01*
X140451097Y-54626190D01*
X141974906Y-55102380D02*
X141403478Y-55102380D01*
X141689192Y-55102380D02*
X141689192Y-54102380D01*
X141593954Y-54245238D01*
X141498716Y-54340476D01*
X141403478Y-54388095D01*
X142355859Y-54197619D02*
X142403478Y-54150000D01*
X142498716Y-54102380D01*
X142736811Y-54102380D01*
X142832049Y-54150000D01*
X142879668Y-54197619D01*
X142927287Y-54292857D01*
X142927287Y-54388095D01*
X142879668Y-54530952D01*
X142308240Y-55102380D01*
X142927287Y-55102380D01*
X165657142Y-50752380D02*
X165323809Y-50276190D01*
X165085714Y-50752380D02*
X165085714Y-49752380D01*
X165466666Y-49752380D01*
X165561904Y-49800000D01*
X165609523Y-49847619D01*
X165657142Y-49942857D01*
X165657142Y-50085714D01*
X165609523Y-50180952D01*
X165561904Y-50228571D01*
X165466666Y-50276190D01*
X165085714Y-50276190D01*
X166609523Y-50752380D02*
X166038095Y-50752380D01*
X166323809Y-50752380D02*
X166323809Y-49752380D01*
X166228571Y-49895238D01*
X166133333Y-49990476D01*
X166038095Y-50038095D01*
X166942857Y-49752380D02*
X167561904Y-49752380D01*
X167228571Y-50133333D01*
X167371428Y-50133333D01*
X167466666Y-50180952D01*
X167514285Y-50228571D01*
X167561904Y-50323809D01*
X167561904Y-50561904D01*
X167514285Y-50657142D01*
X167466666Y-50704761D01*
X167371428Y-50752380D01*
X167085714Y-50752380D01*
X166990476Y-50704761D01*
X166942857Y-50657142D01*
X193357142Y-50802380D02*
X193023809Y-50326190D01*
X192785714Y-50802380D02*
X192785714Y-49802380D01*
X193166666Y-49802380D01*
X193261904Y-49850000D01*
X193309523Y-49897619D01*
X193357142Y-49992857D01*
X193357142Y-50135714D01*
X193309523Y-50230952D01*
X193261904Y-50278571D01*
X193166666Y-50326190D01*
X192785714Y-50326190D01*
X194309523Y-50802380D02*
X193738095Y-50802380D01*
X194023809Y-50802380D02*
X194023809Y-49802380D01*
X193928571Y-49945238D01*
X193833333Y-50040476D01*
X193738095Y-50088095D01*
X195166666Y-50135714D02*
X195166666Y-50802380D01*
X194928571Y-49754761D02*
X194690476Y-50469047D01*
X195309523Y-50469047D01*
X154853294Y-55102380D02*
X154519961Y-54626190D01*
X154281866Y-55102380D02*
X154281866Y-54102380D01*
X154662818Y-54102380D01*
X154758056Y-54150000D01*
X154805675Y-54197619D01*
X154853294Y-54292857D01*
X154853294Y-54435714D01*
X154805675Y-54530952D01*
X154758056Y-54578571D01*
X154662818Y-54626190D01*
X154281866Y-54626190D01*
X155805675Y-55102380D02*
X155234247Y-55102380D01*
X155519961Y-55102380D02*
X155519961Y-54102380D01*
X155424723Y-54245238D01*
X155329485Y-54340476D01*
X155234247Y-54388095D01*
X156710437Y-54102380D02*
X156234247Y-54102380D01*
X156186628Y-54578571D01*
X156234247Y-54530952D01*
X156329485Y-54483333D01*
X156567580Y-54483333D01*
X156662818Y-54530952D01*
X156710437Y-54578571D01*
X156758056Y-54673809D01*
X156758056Y-54911904D01*
X156710437Y-55007142D01*
X156662818Y-55054761D01*
X156567580Y-55102380D01*
X156329485Y-55102380D01*
X156234247Y-55054761D01*
X156186628Y-55007142D01*
X168684063Y-55102380D02*
X168350730Y-54626190D01*
X168112635Y-55102380D02*
X168112635Y-54102380D01*
X168493587Y-54102380D01*
X168588825Y-54150000D01*
X168636444Y-54197619D01*
X168684063Y-54292857D01*
X168684063Y-54435714D01*
X168636444Y-54530952D01*
X168588825Y-54578571D01*
X168493587Y-54626190D01*
X168112635Y-54626190D01*
X169636444Y-55102380D02*
X169065016Y-55102380D01*
X169350730Y-55102380D02*
X169350730Y-54102380D01*
X169255492Y-54245238D01*
X169160254Y-54340476D01*
X169065016Y-54388095D01*
X170493587Y-54102380D02*
X170303111Y-54102380D01*
X170207873Y-54150000D01*
X170160254Y-54197619D01*
X170065016Y-54340476D01*
X170017397Y-54530952D01*
X170017397Y-54911904D01*
X170065016Y-55007142D01*
X170112635Y-55054761D01*
X170207873Y-55102380D01*
X170398349Y-55102380D01*
X170493587Y-55054761D01*
X170541206Y-55007142D01*
X170588825Y-54911904D01*
X170588825Y-54673809D01*
X170541206Y-54578571D01*
X170493587Y-54530952D01*
X170398349Y-54483333D01*
X170207873Y-54483333D01*
X170112635Y-54530952D01*
X170065016Y-54578571D01*
X170017397Y-54673809D01*
X182514832Y-55102380D02*
X182181499Y-54626190D01*
X181943404Y-55102380D02*
X181943404Y-54102380D01*
X182324356Y-54102380D01*
X182419594Y-54150000D01*
X182467213Y-54197619D01*
X182514832Y-54292857D01*
X182514832Y-54435714D01*
X182467213Y-54530952D01*
X182419594Y-54578571D01*
X182324356Y-54626190D01*
X181943404Y-54626190D01*
X183467213Y-55102380D02*
X182895785Y-55102380D01*
X183181499Y-55102380D02*
X183181499Y-54102380D01*
X183086261Y-54245238D01*
X182991023Y-54340476D01*
X182895785Y-54388095D01*
X183800547Y-54102380D02*
X184467213Y-54102380D01*
X184038642Y-55102380D01*
X196345601Y-55102380D02*
X196012268Y-54626190D01*
X195774173Y-55102380D02*
X195774173Y-54102380D01*
X196155125Y-54102380D01*
X196250363Y-54150000D01*
X196297982Y-54197619D01*
X196345601Y-54292857D01*
X196345601Y-54435714D01*
X196297982Y-54530952D01*
X196250363Y-54578571D01*
X196155125Y-54626190D01*
X195774173Y-54626190D01*
X197297982Y-55102380D02*
X196726554Y-55102380D01*
X197012268Y-55102380D02*
X197012268Y-54102380D01*
X196917030Y-54245238D01*
X196821792Y-54340476D01*
X196726554Y-54388095D01*
X197869411Y-54530952D02*
X197774173Y-54483333D01*
X197726554Y-54435714D01*
X197678935Y-54340476D01*
X197678935Y-54292857D01*
X197726554Y-54197619D01*
X197774173Y-54150000D01*
X197869411Y-54102380D01*
X198059887Y-54102380D01*
X198155125Y-54150000D01*
X198202744Y-54197619D01*
X198250363Y-54292857D01*
X198250363Y-54340476D01*
X198202744Y-54435714D01*
X198155125Y-54483333D01*
X198059887Y-54530952D01*
X197869411Y-54530952D01*
X197774173Y-54578571D01*
X197726554Y-54626190D01*
X197678935Y-54721428D01*
X197678935Y-54911904D01*
X197726554Y-55007142D01*
X197774173Y-55054761D01*
X197869411Y-55102380D01*
X198059887Y-55102380D01*
X198155125Y-55054761D01*
X198202744Y-55007142D01*
X198250363Y-54911904D01*
X198250363Y-54721428D01*
X198202744Y-54626190D01*
X198155125Y-54578571D01*
X198059887Y-54530952D01*
X210176370Y-55102380D02*
X209843037Y-54626190D01*
X209604942Y-55102380D02*
X209604942Y-54102380D01*
X209985894Y-54102380D01*
X210081132Y-54150000D01*
X210128751Y-54197619D01*
X210176370Y-54292857D01*
X210176370Y-54435714D01*
X210128751Y-54530952D01*
X210081132Y-54578571D01*
X209985894Y-54626190D01*
X209604942Y-54626190D01*
X211128751Y-55102380D02*
X210557323Y-55102380D01*
X210843037Y-55102380D02*
X210843037Y-54102380D01*
X210747799Y-54245238D01*
X210652561Y-54340476D01*
X210557323Y-54388095D01*
X211604942Y-55102380D02*
X211795418Y-55102380D01*
X211890656Y-55054761D01*
X211938275Y-55007142D01*
X212033513Y-54864285D01*
X212081132Y-54673809D01*
X212081132Y-54292857D01*
X212033513Y-54197619D01*
X211985894Y-54150000D01*
X211890656Y-54102380D01*
X211700180Y-54102380D01*
X211604942Y-54150000D01*
X211557323Y-54197619D01*
X211509704Y-54292857D01*
X211509704Y-54530952D01*
X211557323Y-54626190D01*
X211604942Y-54673809D01*
X211700180Y-54721428D01*
X211890656Y-54721428D01*
X211985894Y-54673809D01*
X212033513Y-54626190D01*
X212081132Y-54530952D01*
X224407142Y-55302380D02*
X224073809Y-54826190D01*
X223835714Y-55302380D02*
X223835714Y-54302380D01*
X224216666Y-54302380D01*
X224311904Y-54350000D01*
X224359523Y-54397619D01*
X224407142Y-54492857D01*
X224407142Y-54635714D01*
X224359523Y-54730952D01*
X224311904Y-54778571D01*
X224216666Y-54826190D01*
X223835714Y-54826190D01*
X224788095Y-54397619D02*
X224835714Y-54350000D01*
X224930952Y-54302380D01*
X225169047Y-54302380D01*
X225264285Y-54350000D01*
X225311904Y-54397619D01*
X225359523Y-54492857D01*
X225359523Y-54588095D01*
X225311904Y-54730952D01*
X224740476Y-55302380D01*
X225359523Y-55302380D01*
X225978571Y-54302380D02*
X226073809Y-54302380D01*
X226169047Y-54350000D01*
X226216666Y-54397619D01*
X226264285Y-54492857D01*
X226311904Y-54683333D01*
X226311904Y-54921428D01*
X226264285Y-55111904D01*
X226216666Y-55207142D01*
X226169047Y-55254761D01*
X226073809Y-55302380D01*
X225978571Y-55302380D01*
X225883333Y-55254761D01*
X225835714Y-55207142D01*
X225788095Y-55111904D01*
X225740476Y-54921428D01*
X225740476Y-54683333D01*
X225788095Y-54492857D01*
X225835714Y-54397619D01*
X225883333Y-54350000D01*
X225978571Y-54302380D01*
X116357142Y-42052380D02*
X116023809Y-41576190D01*
X115785714Y-42052380D02*
X115785714Y-41052380D01*
X116166666Y-41052380D01*
X116261904Y-41100000D01*
X116309523Y-41147619D01*
X116357142Y-41242857D01*
X116357142Y-41385714D01*
X116309523Y-41480952D01*
X116261904Y-41528571D01*
X116166666Y-41576190D01*
X115785714Y-41576190D01*
X116738095Y-41147619D02*
X116785714Y-41100000D01*
X116880952Y-41052380D01*
X117119047Y-41052380D01*
X117214285Y-41100000D01*
X117261904Y-41147619D01*
X117309523Y-41242857D01*
X117309523Y-41338095D01*
X117261904Y-41480952D01*
X116690476Y-42052380D01*
X117309523Y-42052380D01*
X118261904Y-42052380D02*
X117690476Y-42052380D01*
X117976190Y-42052380D02*
X117976190Y-41052380D01*
X117880952Y-41195238D01*
X117785714Y-41290476D01*
X117690476Y-41338095D01*
X118808094Y-50752380D02*
X118474761Y-50276190D01*
X118236666Y-50752380D02*
X118236666Y-49752380D01*
X118617618Y-49752380D01*
X118712856Y-49800000D01*
X118760475Y-49847619D01*
X118808094Y-49942857D01*
X118808094Y-50085714D01*
X118760475Y-50180952D01*
X118712856Y-50228571D01*
X118617618Y-50276190D01*
X118236666Y-50276190D01*
X119093809Y-49752380D02*
X119427142Y-50752380D01*
X119760475Y-49752380D01*
X119998571Y-49752380D02*
X120617618Y-49752380D01*
X120284285Y-50133333D01*
X120427142Y-50133333D01*
X120522380Y-50180952D01*
X120569999Y-50228571D01*
X120617618Y-50323809D01*
X120617618Y-50561904D01*
X120569999Y-50657142D01*
X120522380Y-50704761D01*
X120427142Y-50752380D01*
X120141428Y-50752380D01*
X120046190Y-50704761D01*
X119998571Y-50657142D01*
X160208094Y-50752380D02*
X159874761Y-50276190D01*
X159636666Y-50752380D02*
X159636666Y-49752380D01*
X160017618Y-49752380D01*
X160112856Y-49800000D01*
X160160475Y-49847619D01*
X160208094Y-49942857D01*
X160208094Y-50085714D01*
X160160475Y-50180952D01*
X160112856Y-50228571D01*
X160017618Y-50276190D01*
X159636666Y-50276190D01*
X160493809Y-49752380D02*
X160827142Y-50752380D01*
X161160475Y-49752380D01*
X161922380Y-50085714D02*
X161922380Y-50752380D01*
X161684285Y-49704761D02*
X161446190Y-50419047D01*
X162065237Y-50419047D01*
X187874761Y-50752380D02*
X187541428Y-50276190D01*
X187303333Y-50752380D02*
X187303333Y-49752380D01*
X187684285Y-49752380D01*
X187779523Y-49800000D01*
X187827142Y-49847619D01*
X187874761Y-49942857D01*
X187874761Y-50085714D01*
X187827142Y-50180952D01*
X187779523Y-50228571D01*
X187684285Y-50276190D01*
X187303333Y-50276190D01*
X188160476Y-49752380D02*
X188493809Y-50752380D01*
X188827142Y-49752380D01*
X189636666Y-49752380D02*
X189160476Y-49752380D01*
X189112857Y-50228571D01*
X189160476Y-50180952D01*
X189255714Y-50133333D01*
X189493809Y-50133333D01*
X189589047Y-50180952D01*
X189636666Y-50228571D01*
X189684285Y-50323809D01*
X189684285Y-50561904D01*
X189636666Y-50657142D01*
X189589047Y-50704761D01*
X189493809Y-50752380D01*
X189255714Y-50752380D01*
X189160476Y-50704761D01*
X189112857Y-50657142D01*
X104104762Y-54052380D02*
X104104762Y-54861904D01*
X104152381Y-54957142D01*
X104200000Y-55004761D01*
X104295238Y-55052380D01*
X104485714Y-55052380D01*
X104580952Y-55004761D01*
X104628571Y-54957142D01*
X104676190Y-54861904D01*
X104676190Y-54052380D01*
X105580952Y-54052380D02*
X105390476Y-54052380D01*
X105295238Y-54100000D01*
X105247619Y-54147619D01*
X105152381Y-54290476D01*
X105104762Y-54480952D01*
X105104762Y-54861904D01*
X105152381Y-54957142D01*
X105200000Y-55004761D01*
X105295238Y-55052380D01*
X105485714Y-55052380D01*
X105580952Y-55004761D01*
X105628571Y-54957142D01*
X105676190Y-54861904D01*
X105676190Y-54623809D01*
X105628571Y-54528571D01*
X105580952Y-54480952D01*
X105485714Y-54433333D01*
X105295238Y-54433333D01*
X105200000Y-54480952D01*
X105152381Y-54528571D01*
X105104762Y-54623809D01*
X117938095Y-54052380D02*
X117938095Y-54861904D01*
X117985714Y-54957142D01*
X118033333Y-55004761D01*
X118128571Y-55052380D01*
X118319047Y-55052380D01*
X118414285Y-55004761D01*
X118461904Y-54957142D01*
X118509523Y-54861904D01*
X118509523Y-54052380D01*
X118890476Y-54052380D02*
X119557142Y-54052380D01*
X119128571Y-55052380D01*
X129288095Y-54502380D02*
X129288095Y-55311904D01*
X129335714Y-55407142D01*
X129383333Y-55454761D01*
X129478571Y-55502380D01*
X129669047Y-55502380D01*
X129764285Y-55454761D01*
X129811904Y-55407142D01*
X129859523Y-55311904D01*
X129859523Y-54502380D01*
X130478571Y-54930952D02*
X130383333Y-54883333D01*
X130335714Y-54835714D01*
X130288095Y-54740476D01*
X130288095Y-54692857D01*
X130335714Y-54597619D01*
X130383333Y-54550000D01*
X130478571Y-54502380D01*
X130669047Y-54502380D01*
X130764285Y-54550000D01*
X130811904Y-54597619D01*
X130859523Y-54692857D01*
X130859523Y-54740476D01*
X130811904Y-54835714D01*
X130764285Y-54883333D01*
X130669047Y-54930952D01*
X130478571Y-54930952D01*
X130383333Y-54978571D01*
X130335714Y-55026190D01*
X130288095Y-55121428D01*
X130288095Y-55311904D01*
X130335714Y-55407142D01*
X130383333Y-55454761D01*
X130478571Y-55502380D01*
X130669047Y-55502380D01*
X130764285Y-55454761D01*
X130811904Y-55407142D01*
X130859523Y-55311904D01*
X130859523Y-55121428D01*
X130811904Y-55026190D01*
X130764285Y-54978571D01*
X130669047Y-54930952D01*
X145604762Y-54052380D02*
X145604762Y-54861904D01*
X145652381Y-54957142D01*
X145700000Y-55004761D01*
X145795238Y-55052380D01*
X145985714Y-55052380D01*
X146080952Y-55004761D01*
X146128571Y-54957142D01*
X146176190Y-54861904D01*
X146176190Y-54052380D01*
X146700000Y-55052380D02*
X146890476Y-55052380D01*
X146985714Y-55004761D01*
X147033333Y-54957142D01*
X147128571Y-54814285D01*
X147176190Y-54623809D01*
X147176190Y-54242857D01*
X147128571Y-54147619D01*
X147080952Y-54100000D01*
X146985714Y-54052380D01*
X146795238Y-54052380D01*
X146700000Y-54100000D01*
X146652381Y-54147619D01*
X146604762Y-54242857D01*
X146604762Y-54480952D01*
X146652381Y-54576190D01*
X146700000Y-54623809D01*
X146795238Y-54671428D01*
X146985714Y-54671428D01*
X147080952Y-54623809D01*
X147128571Y-54576190D01*
X147176190Y-54480952D01*
X158961904Y-54052380D02*
X158961904Y-54861904D01*
X159009523Y-54957142D01*
X159057142Y-55004761D01*
X159152380Y-55052380D01*
X159342857Y-55052380D01*
X159438095Y-55004761D01*
X159485714Y-54957142D01*
X159533333Y-54861904D01*
X159533333Y-54052380D01*
X160533333Y-55052380D02*
X159961904Y-55052380D01*
X160247619Y-55052380D02*
X160247619Y-54052380D01*
X160152380Y-54195238D01*
X160057142Y-54290476D01*
X159961904Y-54338095D01*
X161152380Y-54052380D02*
X161247619Y-54052380D01*
X161342857Y-54100000D01*
X161390476Y-54147619D01*
X161438095Y-54242857D01*
X161485714Y-54433333D01*
X161485714Y-54671428D01*
X161438095Y-54861904D01*
X161390476Y-54957142D01*
X161342857Y-55004761D01*
X161247619Y-55052380D01*
X161152380Y-55052380D01*
X161057142Y-55004761D01*
X161009523Y-54957142D01*
X160961904Y-54861904D01*
X160914285Y-54671428D01*
X160914285Y-54433333D01*
X160961904Y-54242857D01*
X161009523Y-54147619D01*
X161057142Y-54100000D01*
X161152380Y-54052380D01*
X172795237Y-54052380D02*
X172795237Y-54861904D01*
X172842856Y-54957142D01*
X172890475Y-55004761D01*
X172985713Y-55052380D01*
X173176190Y-55052380D01*
X173271428Y-55004761D01*
X173319047Y-54957142D01*
X173366666Y-54861904D01*
X173366666Y-54052380D01*
X174366666Y-55052380D02*
X173795237Y-55052380D01*
X174080952Y-55052380D02*
X174080952Y-54052380D01*
X173985713Y-54195238D01*
X173890475Y-54290476D01*
X173795237Y-54338095D01*
X175319047Y-55052380D02*
X174747618Y-55052380D01*
X175033333Y-55052380D02*
X175033333Y-54052380D01*
X174938094Y-54195238D01*
X174842856Y-54290476D01*
X174747618Y-54338095D01*
X186628571Y-54052380D02*
X186628571Y-54861904D01*
X186676190Y-54957142D01*
X186723809Y-55004761D01*
X186819047Y-55052380D01*
X187009524Y-55052380D01*
X187104762Y-55004761D01*
X187152381Y-54957142D01*
X187200000Y-54861904D01*
X187200000Y-54052380D01*
X188200000Y-55052380D02*
X187628571Y-55052380D01*
X187914286Y-55052380D02*
X187914286Y-54052380D01*
X187819047Y-54195238D01*
X187723809Y-54290476D01*
X187628571Y-54338095D01*
X188580952Y-54147619D02*
X188628571Y-54100000D01*
X188723809Y-54052380D01*
X188961905Y-54052380D01*
X189057143Y-54100000D01*
X189104762Y-54147619D01*
X189152381Y-54242857D01*
X189152381Y-54338095D01*
X189104762Y-54480952D01*
X188533333Y-55052380D01*
X189152381Y-55052380D01*
X200461904Y-54052380D02*
X200461904Y-54861904D01*
X200509523Y-54957142D01*
X200557142Y-55004761D01*
X200652380Y-55052380D01*
X200842857Y-55052380D01*
X200938095Y-55004761D01*
X200985714Y-54957142D01*
X201033333Y-54861904D01*
X201033333Y-54052380D01*
X202033333Y-55052380D02*
X201461904Y-55052380D01*
X201747619Y-55052380D02*
X201747619Y-54052380D01*
X201652380Y-54195238D01*
X201557142Y-54290476D01*
X201461904Y-54338095D01*
X202366666Y-54052380D02*
X202985714Y-54052380D01*
X202652380Y-54433333D01*
X202795238Y-54433333D01*
X202890476Y-54480952D01*
X202938095Y-54528571D01*
X202985714Y-54623809D01*
X202985714Y-54861904D01*
X202938095Y-54957142D01*
X202890476Y-55004761D01*
X202795238Y-55052380D01*
X202509523Y-55052380D01*
X202414285Y-55004761D01*
X202366666Y-54957142D01*
X214295237Y-54052380D02*
X214295237Y-54861904D01*
X214342856Y-54957142D01*
X214390475Y-55004761D01*
X214485713Y-55052380D01*
X214676190Y-55052380D01*
X214771428Y-55004761D01*
X214819047Y-54957142D01*
X214866666Y-54861904D01*
X214866666Y-54052380D01*
X215866666Y-55052380D02*
X215295237Y-55052380D01*
X215580952Y-55052380D02*
X215580952Y-54052380D01*
X215485713Y-54195238D01*
X215390475Y-54290476D01*
X215295237Y-54338095D01*
X216723809Y-54385714D02*
X216723809Y-55052380D01*
X216485713Y-54004761D02*
X216247618Y-54719047D01*
X216866666Y-54719047D01*
X228128571Y-54052380D02*
X228128571Y-54861904D01*
X228176190Y-54957142D01*
X228223809Y-55004761D01*
X228319047Y-55052380D01*
X228509524Y-55052380D01*
X228604762Y-55004761D01*
X228652381Y-54957142D01*
X228700000Y-54861904D01*
X228700000Y-54052380D01*
X229700000Y-55052380D02*
X229128571Y-55052380D01*
X229414286Y-55052380D02*
X229414286Y-54052380D01*
X229319047Y-54195238D01*
X229223809Y-54290476D01*
X229128571Y-54338095D01*
X230604762Y-54052380D02*
X230128571Y-54052380D01*
X230080952Y-54528571D01*
X230128571Y-54480952D01*
X230223809Y-54433333D01*
X230461905Y-54433333D01*
X230557143Y-54480952D01*
X230604762Y-54528571D01*
X230652381Y-54623809D01*
X230652381Y-54861904D01*
X230604762Y-54957142D01*
X230557143Y-55004761D01*
X230461905Y-55052380D01*
X230223809Y-55052380D01*
X230128571Y-55004761D01*
X230080952Y-54957142D01*
X119861904Y-44352380D02*
X119861904Y-45161904D01*
X119909523Y-45257142D01*
X119957142Y-45304761D01*
X120052380Y-45352380D01*
X120242857Y-45352380D01*
X120338095Y-45304761D01*
X120385714Y-45257142D01*
X120433333Y-45161904D01*
X120433333Y-44352380D01*
X121433333Y-45352380D02*
X120861904Y-45352380D01*
X121147619Y-45352380D02*
X121147619Y-44352380D01*
X121052380Y-44495238D01*
X120957142Y-44590476D01*
X120861904Y-44638095D01*
X121766666Y-44352380D02*
X122433333Y-44352380D01*
X122004761Y-45352380D01*
X135257142Y-42657142D02*
X135209523Y-42704761D01*
X135066666Y-42752380D01*
X134971428Y-42752380D01*
X134828571Y-42704761D01*
X134733333Y-42609523D01*
X134685714Y-42514285D01*
X134638095Y-42323809D01*
X134638095Y-42180952D01*
X134685714Y-41990476D01*
X134733333Y-41895238D01*
X134828571Y-41800000D01*
X134971428Y-41752380D01*
X135066666Y-41752380D01*
X135209523Y-41800000D01*
X135257142Y-41847619D01*
X136209523Y-42752380D02*
X135638095Y-42752380D01*
X135923809Y-42752380D02*
X135923809Y-41752380D01*
X135828571Y-41895238D01*
X135733333Y-41990476D01*
X135638095Y-42038095D01*
X137066666Y-41752380D02*
X136876190Y-41752380D01*
X136780952Y-41800000D01*
X136733333Y-41847619D01*
X136638095Y-41990476D01*
X136590476Y-42180952D01*
X136590476Y-42561904D01*
X136638095Y-42657142D01*
X136685714Y-42704761D01*
X136780952Y-42752380D01*
X136971428Y-42752380D01*
X137066666Y-42704761D01*
X137114285Y-42657142D01*
X137161904Y-42561904D01*
X137161904Y-42323809D01*
X137114285Y-42228571D01*
X137066666Y-42180952D01*
X136971428Y-42133333D01*
X136780952Y-42133333D01*
X136685714Y-42180952D01*
X136638095Y-42228571D01*
X136590476Y-42323809D01*
X126457142Y-50657142D02*
X126409523Y-50704761D01*
X126266666Y-50752380D01*
X126171428Y-50752380D01*
X126028571Y-50704761D01*
X125933333Y-50609523D01*
X125885714Y-50514285D01*
X125838095Y-50323809D01*
X125838095Y-50180952D01*
X125885714Y-49990476D01*
X125933333Y-49895238D01*
X126028571Y-49800000D01*
X126171428Y-49752380D01*
X126266666Y-49752380D01*
X126409523Y-49800000D01*
X126457142Y-49847619D01*
X127409523Y-50752380D02*
X126838095Y-50752380D01*
X127123809Y-50752380D02*
X127123809Y-49752380D01*
X127028571Y-49895238D01*
X126933333Y-49990476D01*
X126838095Y-50038095D01*
X127742857Y-49752380D02*
X128409523Y-49752380D01*
X127980952Y-50752380D01*
X138557142Y-50457142D02*
X138509523Y-50504761D01*
X138366666Y-50552380D01*
X138271428Y-50552380D01*
X138128571Y-50504761D01*
X138033333Y-50409523D01*
X137985714Y-50314285D01*
X137938095Y-50123809D01*
X137938095Y-49980952D01*
X137985714Y-49790476D01*
X138033333Y-49695238D01*
X138128571Y-49600000D01*
X138271428Y-49552380D01*
X138366666Y-49552380D01*
X138509523Y-49600000D01*
X138557142Y-49647619D01*
X139509523Y-50552380D02*
X138938095Y-50552380D01*
X139223809Y-50552380D02*
X139223809Y-49552380D01*
X139128571Y-49695238D01*
X139033333Y-49790476D01*
X138938095Y-49838095D01*
X140080952Y-49980952D02*
X139985714Y-49933333D01*
X139938095Y-49885714D01*
X139890476Y-49790476D01*
X139890476Y-49742857D01*
X139938095Y-49647619D01*
X139985714Y-49600000D01*
X140080952Y-49552380D01*
X140271428Y-49552380D01*
X140366666Y-49600000D01*
X140414285Y-49647619D01*
X140461904Y-49742857D01*
X140461904Y-49790476D01*
X140414285Y-49885714D01*
X140366666Y-49933333D01*
X140271428Y-49980952D01*
X140080952Y-49980952D01*
X139985714Y-50028571D01*
X139938095Y-50076190D01*
X139890476Y-50171428D01*
X139890476Y-50361904D01*
X139938095Y-50457142D01*
X139985714Y-50504761D01*
X140080952Y-50552380D01*
X140271428Y-50552380D01*
X140366666Y-50504761D01*
X140414285Y-50457142D01*
X140461904Y-50361904D01*
X140461904Y-50171428D01*
X140414285Y-50076190D01*
X140366666Y-50028571D01*
X140271428Y-49980952D01*
X126057142Y-42657142D02*
X126009523Y-42704761D01*
X125866666Y-42752380D01*
X125771428Y-42752380D01*
X125628571Y-42704761D01*
X125533333Y-42609523D01*
X125485714Y-42514285D01*
X125438095Y-42323809D01*
X125438095Y-42180952D01*
X125485714Y-41990476D01*
X125533333Y-41895238D01*
X125628571Y-41800000D01*
X125771428Y-41752380D01*
X125866666Y-41752380D01*
X126009523Y-41800000D01*
X126057142Y-41847619D01*
X127009523Y-42752380D02*
X126438095Y-42752380D01*
X126723809Y-42752380D02*
X126723809Y-41752380D01*
X126628571Y-41895238D01*
X126533333Y-41990476D01*
X126438095Y-42038095D01*
X127485714Y-42752380D02*
X127676190Y-42752380D01*
X127771428Y-42704761D01*
X127819047Y-42657142D01*
X127914285Y-42514285D01*
X127961904Y-42323809D01*
X127961904Y-41942857D01*
X127914285Y-41847619D01*
X127866666Y-41800000D01*
X127771428Y-41752380D01*
X127580952Y-41752380D01*
X127485714Y-41800000D01*
X127438095Y-41847619D01*
X127390476Y-41942857D01*
X127390476Y-42180952D01*
X127438095Y-42276190D01*
X127485714Y-42323809D01*
X127580952Y-42371428D01*
X127771428Y-42371428D01*
X127866666Y-42323809D01*
X127914285Y-42276190D01*
X127961904Y-42180952D01*
X129061904Y-42952380D02*
X129061904Y-43761904D01*
X129109523Y-43857142D01*
X129157142Y-43904761D01*
X129252380Y-43952380D01*
X129442857Y-43952380D01*
X129538095Y-43904761D01*
X129585714Y-43857142D01*
X129633333Y-43761904D01*
X129633333Y-42952380D01*
X130633333Y-43952380D02*
X130061904Y-43952380D01*
X130347619Y-43952380D02*
X130347619Y-42952380D01*
X130252380Y-43095238D01*
X130157142Y-43190476D01*
X130061904Y-43238095D01*
X131490476Y-42952380D02*
X131300000Y-42952380D01*
X131204761Y-43000000D01*
X131157142Y-43047619D01*
X131061904Y-43190476D01*
X131014285Y-43380952D01*
X131014285Y-43761904D01*
X131061904Y-43857142D01*
X131109523Y-43904761D01*
X131204761Y-43952380D01*
X131395238Y-43952380D01*
X131490476Y-43904761D01*
X131538095Y-43857142D01*
X131585714Y-43761904D01*
X131585714Y-43523809D01*
X131538095Y-43428571D01*
X131490476Y-43380952D01*
X131395238Y-43333333D01*
X131204761Y-43333333D01*
X131109523Y-43380952D01*
X131061904Y-43428571D01*
X131014285Y-43523809D01*
X34238095Y-32252380D02*
X34238095Y-31252380D01*
X34238095Y-31728571D02*
X34809523Y-31728571D01*
X34809523Y-32252380D02*
X34809523Y-31252380D01*
X35809523Y-32252380D02*
X35238095Y-32252380D01*
X35523809Y-32252380D02*
X35523809Y-31252380D01*
X35428571Y-31395238D01*
X35333333Y-31490476D01*
X35238095Y-31538095D01*
X34238095Y-47252380D02*
X34238095Y-46252380D01*
X34238095Y-46728571D02*
X34809523Y-46728571D01*
X34809523Y-47252380D02*
X34809523Y-46252380D01*
X35238095Y-46347619D02*
X35285714Y-46300000D01*
X35380952Y-46252380D01*
X35619047Y-46252380D01*
X35714285Y-46300000D01*
X35761904Y-46347619D01*
X35809523Y-46442857D01*
X35809523Y-46538095D01*
X35761904Y-46680952D01*
X35190476Y-47252380D01*
X35809523Y-47252380D01*
X204238095Y-37252380D02*
X204238095Y-36252380D01*
X204238095Y-36728571D02*
X204809523Y-36728571D01*
X204809523Y-37252380D02*
X204809523Y-36252380D01*
X205714285Y-36252380D02*
X205523809Y-36252380D01*
X205428571Y-36300000D01*
X205380952Y-36347619D01*
X205285714Y-36490476D01*
X205238095Y-36680952D01*
X205238095Y-37061904D01*
X205285714Y-37157142D01*
X205333333Y-37204761D01*
X205428571Y-37252380D01*
X205619047Y-37252380D01*
X205714285Y-37204761D01*
X205761904Y-37157142D01*
X205809523Y-37061904D01*
X205809523Y-36823809D01*
X205761904Y-36728571D01*
X205714285Y-36680952D01*
X205619047Y-36633333D01*
X205428571Y-36633333D01*
X205333333Y-36680952D01*
X205285714Y-36728571D01*
X205238095Y-36823809D01*
X59238095Y-37252380D02*
X59238095Y-36252380D01*
X59238095Y-36728571D02*
X59809523Y-36728571D01*
X59809523Y-37252380D02*
X59809523Y-36252380D01*
X60761904Y-36252380D02*
X60285714Y-36252380D01*
X60238095Y-36728571D01*
X60285714Y-36680952D01*
X60380952Y-36633333D01*
X60619047Y-36633333D01*
X60714285Y-36680952D01*
X60761904Y-36728571D01*
X60809523Y-36823809D01*
X60809523Y-37061904D01*
X60761904Y-37157142D01*
X60714285Y-37204761D01*
X60619047Y-37252380D01*
X60380952Y-37252380D01*
X60285714Y-37204761D01*
X60238095Y-37157142D01*
X229238095Y-32252380D02*
X229238095Y-31252380D01*
X229238095Y-31728571D02*
X229809523Y-31728571D01*
X229809523Y-32252380D02*
X229809523Y-31252380D01*
X230190476Y-31252380D02*
X230809523Y-31252380D01*
X230476190Y-31633333D01*
X230619047Y-31633333D01*
X230714285Y-31680952D01*
X230761904Y-31728571D01*
X230809523Y-31823809D01*
X230809523Y-32061904D01*
X230761904Y-32157142D01*
X230714285Y-32204761D01*
X230619047Y-32252380D01*
X230333333Y-32252380D01*
X230238095Y-32204761D01*
X230190476Y-32157142D01*
X229238095Y-47252380D02*
X229238095Y-46252380D01*
X229238095Y-46728571D02*
X229809523Y-46728571D01*
X229809523Y-47252380D02*
X229809523Y-46252380D01*
X230714285Y-46585714D02*
X230714285Y-47252380D01*
X230476190Y-46204761D02*
X230238095Y-46919047D01*
X230857142Y-46919047D01*
X215666666Y-35552380D02*
X215666666Y-36266666D01*
X215619047Y-36409523D01*
X215523809Y-36504761D01*
X215380952Y-36552380D01*
X215285714Y-36552380D01*
X216619047Y-35552380D02*
X216142857Y-35552380D01*
X216095238Y-36028571D01*
X216142857Y-35980952D01*
X216238095Y-35933333D01*
X216476190Y-35933333D01*
X216571428Y-35980952D01*
X216619047Y-36028571D01*
X216666666Y-36123809D01*
X216666666Y-36361904D01*
X216619047Y-36457142D01*
X216571428Y-36504761D01*
X216476190Y-36552380D01*
X216238095Y-36552380D01*
X216142857Y-36504761D01*
X216095238Y-36457142D01*
M02*
